<svg width="147" height="19" viewBox="0 0 147 19" fill="none" xmlns="http://www.w3.org/2000/svg">
<path d="M0.83957 12.9607C0.71957 13.0407 0.57957 13.074 0.41957 13.0607C0.272904 13.034 0.166237 12.974 0.0995703 12.8807C0.0329037 12.7874 0.066237 12.6807 0.19957 12.5607C1.1729 11.814 2.0729 10.9874 2.89957 10.0807C3.72624 9.1607 4.4129 8.21404 4.95957 7.2407C5.51957 6.25404 5.87957 5.3007 6.03957 4.3807C6.0529 4.23404 6.00624 4.1007 5.89957 3.9807C5.7929 3.8607 5.60624 3.77404 5.33957 3.7207C5.2329 3.7207 5.1329 3.72737 5.03957 3.7407C4.95957 3.7407 4.8729 3.7407 4.77957 3.7407C4.53957 3.76737 4.19957 3.80737 3.75957 3.8607C3.31957 3.91404 2.9529 3.96737 2.65957 4.0207C2.4329 4.07404 2.2729 4.0807 2.17957 4.0407C2.08624 4.0007 2.00624 3.94737 1.93957 3.8807C1.92624 3.86737 1.91957 3.8607 1.91957 3.8607C1.7729 3.7407 1.64624 3.61404 1.53957 3.4807C1.44624 3.33404 1.38624 3.22737 1.35957 3.1607C1.31957 3.09404 1.32624 3.00737 1.37957 2.9007C1.44624 2.79404 1.52624 2.74737 1.61957 2.7607C2.2329 2.86737 2.90624 2.9207 3.63957 2.9207C4.3729 2.9207 5.0329 2.90737 5.61957 2.8807C6.1129 2.85404 6.6329 2.8207 7.17957 2.7807C7.72624 2.7407 8.2529 2.68737 8.75957 2.6207C9.27957 2.55404 9.7129 2.4807 10.0596 2.4007C10.2062 2.3607 10.3129 2.3607 10.3796 2.4007C10.4462 2.42737 10.5062 2.4807 10.5596 2.5607C10.6129 2.65404 10.6596 2.79404 10.6996 2.9807C10.7396 3.15404 10.7596 3.2807 10.7596 3.3607C10.7596 3.4407 10.7196 3.51404 10.6396 3.5807C10.5596 3.64737 10.4996 3.6807 10.4596 3.6807C10.0329 3.65404 9.47957 3.63404 8.79957 3.6207C8.1329 3.60737 7.38624 3.61404 6.55957 3.6407C6.78624 3.74737 6.9929 3.8807 7.17957 4.0407C7.36624 4.2007 7.45957 4.3607 7.45957 4.5207C7.3929 4.8807 7.2529 5.29404 7.03957 5.7607C6.83957 6.22737 6.58624 6.72737 6.27957 7.2607C6.90624 7.76737 7.44624 8.19404 7.89957 8.5407C8.3529 8.88737 8.76624 9.1807 9.13957 9.4207C9.52624 9.6607 9.92624 9.88737 10.3396 10.1007C10.6062 10.314 10.7796 10.5874 10.8596 10.9207C10.9529 11.2407 10.9929 11.534 10.9796 11.8007C10.9796 11.894 10.9262 11.9807 10.8196 12.0607C10.7129 12.1407 10.5996 12.194 10.4796 12.2207C10.3596 12.2474 10.2796 12.2407 10.2396 12.2007C9.8129 11.6007 9.33957 11.034 8.81957 10.5007C8.29957 9.95404 7.78624 9.45404 7.27957 9.0007C6.7729 8.53404 6.31957 8.1407 5.91957 7.8207C5.51957 8.4207 5.0529 9.0407 4.51957 9.6807C3.99957 10.3074 3.42624 10.9074 2.79957 11.4807C2.18624 12.0407 1.5329 12.534 0.83957 12.9607ZM13.4596 17.6607C13.3129 17.6607 13.2329 17.594 13.2196 17.4607C13.2062 17.354 13.1862 17.1607 13.1596 16.8807C13.1462 16.5874 13.1329 16.274 13.1196 15.9407C13.1062 15.594 13.0996 15.294 13.0996 15.0407V2.7807C13.0996 2.36737 13.0796 2.04737 13.0396 1.8207C13.0129 1.59404 12.9262 1.40737 12.7796 1.2607C12.6462 1.1007 12.4062 0.934036 12.0596 0.760703C11.9529 0.694035 11.8996 0.627368 11.8996 0.560702C11.8996 0.494035 11.9462 0.407369 12.0396 0.300703C12.1329 0.180703 12.2329 0.120703 12.3396 0.120703C12.4996 0.120703 12.6996 0.160703 12.9396 0.240702C13.1796 0.320702 13.4129 0.414035 13.6396 0.520702C13.8662 0.614035 14.0329 0.700702 14.1396 0.780703C14.2996 0.900703 14.3729 1.03404 14.3596 1.1807C14.3196 1.4607 14.2862 1.7207 14.2596 1.9607C14.2462 2.2007 14.2396 2.4807 14.2396 2.8007V15.0007C14.2396 15.214 14.2262 15.474 14.1996 15.7807C14.1862 16.074 14.1529 16.3674 14.0996 16.6607C14.0462 16.9407 13.9662 17.174 13.8596 17.3607C13.7662 17.5607 13.6329 17.6607 13.4596 17.6607ZM22.2266 9.2807C21.4799 9.29404 20.7999 9.15404 20.1866 8.8607C19.5733 8.56737 19.0799 8.14737 18.7066 7.6007C18.3466 7.05404 18.1666 6.4207 18.1666 5.7007C18.1666 5.00737 18.3466 4.38737 18.7066 3.8407C19.0799 3.2807 19.5733 2.83404 20.1866 2.5007C20.8133 2.15404 21.4999 1.97404 22.2466 1.9607C22.9933 1.93404 23.6733 2.0607 24.2866 2.3407C24.8999 2.6207 25.3933 3.03404 25.7666 3.5807C26.1399 4.11404 26.3266 4.76737 26.3266 5.5407C26.3266 6.24737 26.1399 6.8807 25.7666 7.4407C25.3933 7.98737 24.8933 8.42737 24.2666 8.7607C23.6533 9.0807 22.9733 9.25404 22.2266 9.2807ZM22.2466 8.3807C23.0599 8.35404 23.7399 8.08737 24.2866 7.5807C24.8466 7.07404 25.1266 6.39404 25.1266 5.5407C25.1266 4.60737 24.8399 3.9207 24.2666 3.4807C23.7066 3.0407 23.0266 2.83404 22.2266 2.8607C21.3999 2.91404 20.7066 3.18737 20.1466 3.6807C19.5999 4.17404 19.3266 4.8407 19.3266 5.6807C19.3266 6.5607 19.6066 7.2407 20.1666 7.7207C20.7399 8.18737 21.4333 8.40737 22.2466 8.3807ZM30.9466 11.0407C30.8266 11.0407 30.7533 10.974 30.7266 10.8407C30.6999 10.7074 30.6733 10.5074 30.6466 10.2407C30.6333 9.97404 30.6266 9.7007 30.6266 9.4207C30.6266 9.12737 30.6266 8.89404 30.6266 8.7207V7.7207L29.7466 7.7607C29.3333 7.77404 28.9799 7.80737 28.6866 7.8607C28.4066 7.9007 28.0666 7.96737 27.6666 8.0607C27.5199 8.08737 27.3999 8.1007 27.3066 8.1007C27.2266 8.08737 27.1333 8.04737 27.0266 7.9807C26.9199 7.91404 26.7799 7.81404 26.6066 7.6807C26.4333 7.54737 26.3333 7.44737 26.3066 7.3807C26.2799 7.3007 26.2999 7.21404 26.3666 7.1207C26.4333 7.02737 26.5133 6.98737 26.6066 7.0007C26.9799 7.06737 27.3999 7.10737 27.8666 7.1207C28.3333 7.1207 28.9733 7.09404 29.7866 7.0407L30.6266 7.0007V3.8607L29.6266 3.9007C29.2533 3.91404 28.9466 3.93404 28.7066 3.9607C28.4666 3.98737 28.1733 4.02737 27.8266 4.0807C27.6933 4.10737 27.5799 4.12737 27.4866 4.1407C27.3933 4.1407 27.2933 4.11404 27.1866 4.0607C27.0799 4.00737 26.9399 3.92737 26.7666 3.8207C26.6066 3.71404 26.5133 3.62737 26.4866 3.5607C26.4466 3.4807 26.4599 3.38737 26.5266 3.2807C26.6066 3.1607 26.6999 3.11404 26.8066 3.1407C27.1133 3.19404 27.4599 3.23404 27.8466 3.2607C28.2333 3.28737 28.7933 3.27404 29.5266 3.2207L30.6266 3.1607V2.7207C30.6266 2.3207 30.6066 2.00737 30.5666 1.7807C30.5399 1.55404 30.4533 1.3607 30.3066 1.2007C30.1733 1.0407 29.9466 0.867369 29.6266 0.680703C29.4933 0.587369 29.4599 0.467369 29.5266 0.320703C29.6466 0.120703 29.8066 0.0207028 30.0066 0.0207028C30.2066 0.0207028 30.4733 0.094036 30.8066 0.240702C31.1399 0.387369 31.4133 0.527369 31.6266 0.660702C31.6933 0.700702 31.7533 0.754035 31.8066 0.820702C31.8599 0.887369 31.8799 0.960702 31.8666 1.0407C31.8266 1.26737 31.7999 1.49404 31.7866 1.7207C31.7733 1.94737 31.7666 2.2007 31.7666 2.4807V8.5807C31.7666 8.7807 31.7533 9.0207 31.7266 9.3007C31.7133 9.56737 31.6733 9.83404 31.6066 10.1007C31.5533 10.3674 31.4733 10.594 31.3666 10.7807C31.2599 10.954 31.1199 11.0407 30.9466 11.0407ZM30.9066 18.9407C30.7999 18.9674 30.7266 18.9474 30.6866 18.8807C30.6466 18.8274 30.6199 18.774 30.6066 18.7207C30.5533 18.4807 30.5199 18.214 30.5066 17.9207C30.5066 17.6407 30.5066 17.3674 30.5066 17.1007V13.3807C30.5066 13.194 30.4599 13.1007 30.3666 13.1007C30.2866 13.1007 30.0933 13.1074 29.7866 13.1207C29.4933 13.134 29.1466 13.154 28.7466 13.1807C28.3466 13.194 27.9399 13.214 27.5266 13.2407C27.1266 13.2674 26.7866 13.294 26.5066 13.3207C25.6266 13.3874 24.8733 13.4474 24.2466 13.5007C23.6333 13.554 23.1266 13.614 22.7266 13.6807C22.4866 13.734 22.2733 13.7007 22.0866 13.5807C21.9799 13.514 21.8399 13.4074 21.6666 13.2607C21.5066 13.1007 21.4133 12.9874 21.3866 12.9207C21.3599 12.8407 21.3866 12.7407 21.4666 12.6207C21.5466 12.5007 21.6333 12.454 21.7266 12.4807C22.0333 12.5607 22.5599 12.614 23.3066 12.6407C24.0666 12.6674 24.9733 12.654 26.0266 12.6007C26.6666 12.574 27.2866 12.5407 27.8866 12.5007C28.4866 12.4474 29.0066 12.3874 29.4466 12.3207C29.8866 12.254 30.1799 12.1874 30.3266 12.1207C30.4199 12.0807 30.5199 12.0674 30.6266 12.0807C30.8133 12.1207 30.9999 12.154 31.1866 12.1807C31.3866 12.2074 31.5599 12.234 31.7066 12.2607C31.8399 12.274 31.8866 12.374 31.8466 12.5607C31.8333 12.6407 31.8133 12.7807 31.7866 12.9807C31.7733 13.1674 31.7599 13.3607 31.7466 13.5607C31.7333 13.7607 31.7266 13.9274 31.7266 14.0607L31.6866 16.8007C31.6866 17.054 31.6599 17.334 31.6066 17.6407C31.5533 17.9607 31.4733 18.2407 31.3666 18.4807C31.2599 18.734 31.1066 18.8874 30.9066 18.9407ZM43.9843 7.2007C43.1976 7.22737 42.4709 7.10737 41.8043 6.8407C41.1376 6.57404 40.6043 6.18737 40.2043 5.6807C39.8176 5.1607 39.6243 4.5607 39.6243 3.8807C39.6243 3.21404 39.8243 2.62737 40.2243 2.1207C40.6243 1.6007 41.1576 1.18737 41.8243 0.880702C42.4909 0.574036 43.2176 0.414036 44.0043 0.400703C44.8043 0.374036 45.5376 0.487369 46.2043 0.740702C46.8709 0.994035 47.3976 1.37404 47.7843 1.8807C48.1843 2.37404 48.3843 2.98737 48.3843 3.7207C48.3843 4.37404 48.1843 4.9607 47.7843 5.4807C47.3843 6.0007 46.8509 6.41404 46.1843 6.7207C45.5176 7.01404 44.7843 7.17404 43.9843 7.2007ZM41.7243 18.4007C41.1376 18.414 40.6976 18.3007 40.4043 18.0607C40.1109 17.834 39.9643 17.4274 39.9643 16.8407V15.8607C39.9643 15.794 39.9576 15.7274 39.9443 15.6607C39.9443 15.594 39.9176 15.5474 39.8643 15.5207C39.7309 15.454 39.5776 15.3607 39.4043 15.2407C39.2309 15.1074 39.1243 15.0074 39.0843 14.9407C39.0443 14.874 39.0576 14.774 39.1243 14.6407C39.2043 14.494 39.2843 14.434 39.3643 14.4607C39.5909 14.514 39.8376 14.554 40.1043 14.5807C40.3709 14.594 40.6709 14.6074 41.0043 14.6207C41.2309 14.6207 41.5576 14.6207 41.9843 14.6207C42.4109 14.6074 42.8843 14.6007 43.4043 14.6007C43.9243 14.5874 44.4509 14.574 44.9843 14.5607C45.5176 14.534 45.9976 14.514 46.4243 14.5007C46.8643 14.474 47.2043 14.4474 47.4443 14.4207C47.4576 14.3407 47.4709 14.194 47.4843 13.9807C47.5109 13.754 47.5309 13.5074 47.5443 13.2407C47.5709 12.974 47.5843 12.7407 47.5843 12.5407C47.5843 12.4607 47.5709 12.414 47.5443 12.4007C47.5176 12.3874 47.4709 12.3807 47.4043 12.3807L42.6643 12.6207C42.1976 12.634 41.7576 12.6607 41.3443 12.7007C40.9443 12.7407 40.6576 12.774 40.4843 12.8007C40.2176 12.8407 40.0043 12.8074 39.8443 12.7007C39.7243 12.6207 39.5909 12.5207 39.4443 12.4007C39.3109 12.2807 39.2309 12.1874 39.2043 12.1207C39.1776 12.0407 39.2043 11.9474 39.2843 11.8407C39.3776 11.7207 39.4709 11.674 39.5643 11.7007C39.7376 11.7407 39.9776 11.774 40.2843 11.8007C40.5909 11.8274 40.9176 11.854 41.2643 11.8807C41.6109 11.894 41.9176 11.9007 42.1843 11.9007C42.4776 11.9007 42.8709 11.894 43.3643 11.8807C43.8576 11.8674 44.3776 11.8474 44.9243 11.8207C45.4709 11.794 45.9776 11.754 46.4443 11.7007C46.9109 11.6474 47.2643 11.5807 47.5043 11.5007C47.5176 11.5007 47.5376 11.494 47.5643 11.4807C47.6043 11.4807 47.6443 11.4807 47.6843 11.4807C47.7243 11.4674 47.7709 11.4674 47.8243 11.4807L48.7443 11.7007C48.8909 11.7407 48.9309 11.8474 48.8643 12.0207C48.8376 12.074 48.7976 12.2007 48.7443 12.4007C48.6909 12.5874 48.6309 12.8074 48.5643 13.0607C48.5109 13.3007 48.4509 13.534 48.3843 13.7607C48.3309 13.9874 48.2909 14.1607 48.2643 14.2807C48.3709 14.3474 48.5043 14.434 48.6643 14.5407C48.8376 14.634 48.9243 14.714 48.9243 14.7807C48.9243 14.8874 48.8709 15.0074 48.7643 15.1407C48.6709 15.2607 48.6043 15.314 48.5643 15.3007C48.4043 15.2874 48.1043 15.2807 47.6643 15.2807C47.2243 15.2674 46.7043 15.2607 46.1043 15.2607C45.5176 15.2607 44.9043 15.2674 44.2643 15.2807C43.6376 15.2807 43.0443 15.294 42.4843 15.3207C41.9376 15.3474 41.4843 15.374 41.1243 15.4007V16.7207C41.1243 17.1074 41.1709 17.3474 41.2643 17.4407C41.3576 17.534 41.5376 17.5874 41.8043 17.6007C41.8443 17.6007 41.9309 17.6007 42.0643 17.6007C42.3309 17.6007 42.6976 17.6007 43.1643 17.6007C43.6443 17.6007 44.1576 17.594 44.7043 17.5807C45.2509 17.5674 45.7776 17.5474 46.2843 17.5207C46.9776 17.494 47.5309 17.4474 47.9443 17.3807C48.3709 17.3274 48.7376 17.2474 49.0443 17.1407C49.2176 17.074 49.3443 17.054 49.4243 17.0807C49.5043 17.1074 49.5843 17.1674 49.6643 17.2607C49.7576 17.3407 49.8443 17.4474 49.9243 17.5807C50.0043 17.714 50.0509 17.8207 50.0643 17.9007C50.0776 17.9807 50.0309 18.074 49.9243 18.1807C49.8176 18.2874 49.7376 18.3407 49.6843 18.3407C49.0443 18.314 48.4976 18.3007 48.0443 18.3007C47.5909 18.3007 47.0776 18.3074 46.5043 18.3207C46.4643 18.3207 46.4176 18.3207 46.3643 18.3207C46.3109 18.3207 46.2576 18.3207 46.2043 18.3207L41.7243 18.4007ZM44.0043 6.3607C44.9109 6.3207 45.6576 6.06737 46.2443 5.6007C46.8309 5.13404 47.1376 4.50737 47.1643 3.7207C47.1909 3.1607 47.0643 2.7007 46.7843 2.3407C46.5043 1.96737 46.1176 1.69404 45.6243 1.5207C45.1443 1.33404 44.5976 1.2407 43.9843 1.2407C43.3843 1.2407 42.8376 1.3607 42.3443 1.6007C41.8643 1.82737 41.4776 2.1407 41.1843 2.5407C40.9043 2.92737 40.7643 3.36737 40.7643 3.8607C40.7643 4.67404 41.0776 5.3007 41.7043 5.7407C42.3309 6.1807 43.0976 6.38737 44.0043 6.3607ZM36.5643 10.3207C36.4309 10.3207 36.2843 10.2607 36.1243 10.1407C36.0576 10.0874 35.9576 10.0074 35.8243 9.9007C35.7043 9.7807 35.5909 9.66737 35.4843 9.5607C35.3776 9.4407 35.3109 9.3607 35.2843 9.3207C35.2576 9.25404 35.2709 9.16737 35.3243 9.0607C35.3909 8.95404 35.4709 8.9007 35.5643 8.9007C35.9509 8.96737 36.4109 9.02737 36.9443 9.0807C37.4909 9.1207 38.1709 9.1407 38.9843 9.1407C39.4776 9.1407 40.0976 9.13404 40.8443 9.1207C41.6043 9.09404 42.4109 9.06737 43.2643 9.0407C44.1309 9.01404 44.9709 8.98737 45.7843 8.9607C46.6109 8.9207 47.3376 8.8807 47.9643 8.8407C48.3109 8.81404 48.7043 8.78737 49.1443 8.7607C49.5976 8.7207 50.0243 8.67404 50.4243 8.6207C50.8243 8.56737 51.1243 8.5207 51.3243 8.4807C51.5509 8.42737 51.7043 8.38737 51.7843 8.3607C51.8776 8.33404 51.9576 8.3207 52.0243 8.3207C52.1176 8.3207 52.2243 8.4007 52.3443 8.5607C52.4109 8.66737 52.4776 8.79404 52.5443 8.9407C52.6243 9.07404 52.6643 9.18737 52.6643 9.2807C52.6643 9.4007 52.6109 9.49404 52.5043 9.5607C52.4109 9.62737 52.3509 9.6607 52.3243 9.6607C52.0976 9.63404 51.8309 9.6207 51.5243 9.6207C51.2176 9.60737 50.9176 9.6007 50.6243 9.6007C50.3443 9.58737 50.1109 9.5807 49.9243 9.5807C49.6043 9.5807 49.1643 9.58737 48.6043 9.6007C48.0576 9.61404 47.4443 9.63404 46.7643 9.6607C46.0843 9.67404 45.3909 9.69404 44.6843 9.7207C43.9776 9.74737 43.2976 9.77404 42.6443 9.8007C42.0043 9.82737 41.4443 9.85404 40.9643 9.8807C40.4976 9.89404 40.1576 9.90737 39.9443 9.9207C39.5443 9.93404 39.1376 9.96737 38.7243 10.0207C38.3109 10.0607 37.9376 10.1074 37.6043 10.1607C37.2843 10.2007 37.0643 10.234 36.9443 10.2607C36.8909 10.274 36.8309 10.2874 36.7643 10.3007C36.6976 10.314 36.6309 10.3207 36.5643 10.3207ZM66.2749 18.9207C66.0215 18.9607 65.8749 18.774 65.8349 18.3607L65.5349 14.4007C65.5082 13.9474 65.4349 13.6207 65.3149 13.4207C65.1949 13.2207 64.9615 13.034 64.6149 12.8607C64.4815 12.8207 64.4482 12.7074 64.5149 12.5207C64.5682 12.374 64.6415 12.2874 64.7349 12.2607C64.8282 12.2207 64.9282 12.2074 65.0349 12.2207C65.1815 12.2474 65.3749 12.2874 65.6149 12.3407C65.8549 12.394 66.0682 12.4474 66.2549 12.5007C66.3882 12.5007 66.6549 12.5007 67.0549 12.5007C67.4682 12.4874 67.9349 12.4807 68.4549 12.4807C68.9749 12.4674 69.4816 12.454 69.9749 12.4407C70.4816 12.414 70.8949 12.3874 71.2149 12.3607C71.5616 12.334 71.8882 12.3007 72.1949 12.2607C72.5016 12.2207 72.7282 12.1674 72.8749 12.1007C72.8882 12.0874 72.9082 12.074 72.9349 12.0607C73.0149 12.034 73.0949 12.034 73.1749 12.0607L74.2349 12.3207C74.3549 12.3474 74.3949 12.4407 74.3549 12.6007C74.3149 12.7607 74.2682 13.014 74.2149 13.3607C74.1616 13.694 74.1149 14.0007 74.0749 14.2807C74.0482 14.494 74.0082 14.774 73.9549 15.1207C73.9149 15.454 73.8749 15.8007 73.8349 16.1607C73.7949 16.5074 73.7616 16.8074 73.7349 17.0607C73.8282 17.1274 73.9549 17.2274 74.1149 17.3607C74.2882 17.494 74.3749 17.6074 74.3749 17.7007C74.3749 17.794 74.3282 17.894 74.2349 18.0007C74.1415 18.1207 74.0815 18.1807 74.0549 18.1807C73.5882 18.1407 73.0215 18.114 72.3549 18.1007C71.7016 18.1007 71.0215 18.1074 70.3149 18.1207C69.6215 18.134 68.9615 18.1474 68.3349 18.1607C67.7215 18.1874 67.2149 18.2074 66.8149 18.2207C66.7882 18.434 66.7215 18.594 66.6149 18.7007C66.5082 18.8207 66.3949 18.894 66.2749 18.9207ZM66.7949 17.4007C66.8349 17.4007 67.0149 17.4007 67.3349 17.4007C67.6549 17.4007 68.0549 17.394 68.5349 17.3807C69.0282 17.3807 69.5415 17.374 70.0749 17.3607C70.6216 17.3474 71.1349 17.3274 71.6149 17.3007C72.1082 17.274 72.5082 17.2474 72.8149 17.2207L72.9949 13.2407C72.9949 13.1474 72.9749 13.094 72.9349 13.0807C72.8949 13.0674 72.8549 13.0607 72.8149 13.0607C72.8015 13.0607 72.7949 13.0607 72.7949 13.0607C72.5149 13.074 72.1149 13.0874 71.5949 13.1007C71.0749 13.114 70.5082 13.134 69.8949 13.1607C69.2816 13.174 68.6815 13.1874 68.0949 13.2007C67.5082 13.214 67.0149 13.2274 66.6149 13.2407L66.7949 17.4007ZM63.0749 9.8807C62.7949 9.8807 62.5682 9.7407 62.3949 9.4607C62.2215 9.16737 62.1349 8.82737 62.1349 8.4407V4.5607C62.1349 4.13404 62.0749 3.79404 61.9549 3.5407C61.8349 3.27404 61.5815 3.04737 61.1949 2.8607C61.0482 2.79404 61.0082 2.68737 61.0749 2.5407C61.2215 2.27404 61.4015 2.15404 61.6149 2.1807C61.7615 2.20737 61.9549 2.25404 62.1949 2.3207C62.4349 2.37404 62.6482 2.43404 62.8349 2.5007C63.1815 2.51404 63.6282 2.51404 64.1749 2.5007C64.7215 2.48737 65.2882 2.4607 65.8749 2.4207C66.4615 2.3807 67.0015 2.32737 67.4949 2.2607C67.9882 2.19404 68.3549 2.11404 68.5949 2.0207C68.7549 1.96737 68.8682 1.95404 68.9349 1.9807C69.0149 2.00737 69.0882 2.06737 69.1549 2.1607C69.2082 2.22737 69.2749 2.33404 69.3549 2.4807C69.4349 2.62737 69.4749 2.7407 69.4749 2.8207C69.4749 2.91404 69.4349 3.0007 69.3549 3.0807C69.2882 3.1607 69.2282 3.2007 69.1749 3.2007C68.7215 3.1607 68.1549 3.14737 67.4749 3.1607C66.7949 3.17404 66.0815 3.19404 65.3349 3.2207C64.5882 3.24737 63.8949 3.2807 63.2549 3.3207V8.0807C63.2549 8.09404 63.2549 8.11404 63.2549 8.1407C63.2549 8.3007 63.2749 8.44737 63.3149 8.5807C63.3549 8.71404 63.5015 8.7807 63.7549 8.7807C64.6215 8.76737 65.4749 8.7007 66.3149 8.5807C67.1549 8.4607 67.9415 8.31404 68.6749 8.1407C69.4082 7.96737 70.0549 7.78737 70.6149 7.6007C71.1749 7.41404 71.6082 7.24737 71.9149 7.1007C72.1682 7.00737 72.3082 7.0407 72.3349 7.2007C72.3749 7.3607 72.2882 7.52737 72.0749 7.7007C71.9016 7.84737 71.5682 8.01404 71.0749 8.2007C70.5816 8.38737 69.9882 8.5807 69.2949 8.7807C68.6149 8.9807 67.8949 9.16737 67.1349 9.3407C66.3882 9.5007 65.6615 9.63404 64.9549 9.7407C64.2482 9.83404 63.6215 9.8807 63.0749 9.8807ZM73.3349 11.0407C73.2149 11.0407 73.1415 10.974 73.1149 10.8407C73.0882 10.7074 73.0615 10.5074 73.0349 10.2407C73.0216 9.97404 73.0149 9.7007 73.0149 9.4207C73.0149 9.12737 73.0149 8.89404 73.0149 8.7207V2.7207C73.0149 2.3207 72.9949 2.00737 72.9549 1.7807C72.9282 1.55404 72.8416 1.3607 72.6949 1.2007C72.5615 1.0407 72.3349 0.867369 72.0149 0.680703C71.8816 0.587369 71.8482 0.467369 71.9149 0.320703C72.0349 0.120703 72.1949 0.0207028 72.3949 0.0207028C72.5949 0.0207028 72.8616 0.094036 73.1949 0.240702C73.5282 0.387369 73.8016 0.527369 74.0149 0.660702C74.0816 0.700702 74.1416 0.754035 74.1949 0.820702C74.2482 0.887369 74.2682 0.960702 74.2549 1.0407C74.2149 1.26737 74.1882 1.49404 74.1749 1.7207C74.1615 1.94737 74.1549 2.2007 74.1549 2.4807V5.9807C74.8349 5.9807 75.4016 5.93404 75.8549 5.8407C76.3082 5.73404 76.6482 5.64737 76.8749 5.5807C77.0216 5.52737 77.1282 5.5207 77.1949 5.5607C77.2616 5.6007 77.3216 5.66737 77.3749 5.7607C77.4282 5.8407 77.4882 5.97404 77.5549 6.1607C77.6216 6.33404 77.6549 6.4607 77.6549 6.5407C77.6549 6.6207 77.6082 6.69404 77.5149 6.7607C77.4349 6.82737 77.3749 6.8607 77.3349 6.8607C76.8016 6.80737 76.2749 6.77404 75.7549 6.7607C75.2482 6.73404 74.7149 6.7207 74.1549 6.7207V8.5807C74.1549 8.7807 74.1416 9.0207 74.1149 9.3007C74.1015 9.56737 74.0615 9.83404 73.9949 10.1007C73.9415 10.3674 73.8615 10.594 73.7549 10.7807C73.6482 10.954 73.5082 11.0407 73.3349 11.0407ZM88.0933 7.8207C87.28 7.83404 86.5267 7.7007 85.8333 7.4207C85.1533 7.1407 84.6067 6.73404 84.1933 6.2007C83.78 5.66737 83.5733 5.0407 83.5733 4.3207C83.5733 3.6407 83.78 3.02737 84.1933 2.4807C84.6067 1.93404 85.1533 1.5007 85.8333 1.1807C86.5267 0.847369 87.2867 0.674036 88.1133 0.660702C88.94 0.660702 89.6933 0.794035 90.3733 1.0607C91.0533 1.32737 91.6 1.7207 92.0133 2.2407C92.4267 2.7607 92.6333 3.4007 92.6333 4.1607C92.6333 4.85404 92.4267 5.47404 92.0133 6.0207C91.6 6.56737 91.0467 7.0007 90.3533 7.3207C89.6733 7.62737 88.92 7.79404 88.0933 7.8207ZM88.1133 6.9607C89.0733 6.9207 89.8533 6.6607 90.4533 6.1807C91.0667 5.68737 91.3867 5.01404 91.4133 4.1607C91.44 3.54737 91.3067 3.04737 91.0133 2.6607C90.72 2.27404 90.32 1.98737 89.8133 1.8007C89.3067 1.61404 88.7333 1.5207 88.0933 1.5207C87.4667 1.5207 86.8933 1.6407 86.3733 1.8807C85.8667 2.10737 85.4667 2.43404 85.1733 2.8607C84.88 3.27404 84.7333 3.75404 84.7333 4.3007C84.7333 5.19404 85.06 5.86737 85.7133 6.3207C86.3667 6.77404 87.1667 6.98737 88.1133 6.9607ZM80.7333 11.5007C80.5067 11.554 80.3467 11.574 80.2533 11.5607C80.1733 11.534 80.0667 11.474 79.9333 11.3807C79.8533 11.3274 79.7467 11.2474 79.6133 11.1407C79.48 11.034 79.3533 10.9274 79.2333 10.8207C79.1267 10.7007 79.0667 10.614 79.0533 10.5607C79.04 10.494 79.0733 10.4007 79.1533 10.2807C79.2333 10.1607 79.3067 10.114 79.3733 10.1407C79.8 10.234 80.3133 10.3074 80.9133 10.3607C81.5133 10.4007 82.1667 10.414 82.8733 10.4007C84.1667 10.3874 85.5733 10.3674 87.0933 10.3407C88.6267 10.314 90.1333 10.2674 91.6133 10.2007C92.48 10.1607 93.2733 10.1007 93.9933 10.0207C94.7267 9.9407 95.2467 9.85404 95.5533 9.7607C95.7 9.70737 95.8133 9.7007 95.8933 9.7407C95.9867 9.7807 96.0667 9.84737 96.1333 9.9407C96.2133 10.0474 96.2867 10.174 96.3533 10.3207C96.42 10.4674 96.4533 10.5874 96.4533 10.6807C96.4533 10.774 96.4067 10.8607 96.3133 10.9407C96.22 11.0074 96.1533 11.0407 96.1133 11.0407C95.62 10.974 95.0733 10.9407 94.4733 10.9407C93.8733 10.9274 93.3 10.9274 92.7533 10.9407C92.6067 10.9407 92.4667 10.9407 92.3333 10.9407C92.2 10.9407 92.0667 10.9407 91.9333 10.9407C91.3333 10.954 90.6733 10.974 89.9533 11.0007C89.2333 11.014 88.4933 11.034 87.7333 11.0607C86.9867 11.074 86.2667 11.094 85.5733 11.1207C84.8933 11.134 84.28 11.154 83.7333 11.1807C83.1333 11.2074 82.58 11.2474 82.0733 11.3007C81.58 11.354 81.1333 11.4207 80.7333 11.5007ZM85.5533 18.3007C84.2467 18.3007 83.5933 17.694 83.5933 16.4807V15.3807C83.5933 15.0074 83.54 14.694 83.4333 14.4407C83.34 14.174 83.14 13.974 82.8333 13.8407C82.7533 13.814 82.7 13.7607 82.6733 13.6807C82.6467 13.6007 82.6467 13.5274 82.6733 13.4607C82.8067 13.234 82.98 13.1274 83.1933 13.1407C83.3667 13.1674 83.6 13.234 83.8933 13.3407C84.1867 13.4474 84.4333 13.554 84.6333 13.6607C84.7933 13.754 84.86 13.8674 84.8333 14.0007C84.8067 14.094 84.78 14.2607 84.7533 14.5007C84.74 14.7407 84.7333 14.974 84.7333 15.2007V16.3807C84.7333 16.8474 84.8133 17.1407 84.9733 17.2607C85.1467 17.394 85.3733 17.4674 85.6533 17.4807C85.7867 17.494 86.0267 17.5007 86.3733 17.5007C86.7333 17.5007 87.1333 17.494 87.5733 17.4807C88.0133 17.4674 88.4333 17.454 88.8333 17.4407C89.2467 17.4274 89.58 17.414 89.8333 17.4007C90.5267 17.3607 91.1467 17.294 91.6933 17.2007C92.2533 17.1074 92.6467 17.0274 92.8733 16.9607C93.1667 16.8674 93.3733 16.9074 93.4933 17.0807C93.56 17.1874 93.6333 17.314 93.7133 17.4607C93.7933 17.6074 93.84 17.7274 93.8533 17.8207C93.8667 17.914 93.82 18.0007 93.7133 18.0807C93.62 18.174 93.5467 18.2207 93.4933 18.2207C93.0267 18.194 92.6067 18.174 92.2333 18.1607C91.8733 18.1607 91.4867 18.1607 91.0733 18.1607C90.6733 18.174 90.18 18.194 89.5933 18.2207C88.9133 18.2474 88.2333 18.2674 87.5533 18.2807C86.8733 18.294 86.2067 18.3007 85.5533 18.3007ZM109.904 12.1207C109.117 12.134 108.451 11.994 107.904 11.7007C107.371 11.4074 106.964 11.0274 106.684 10.5607C106.417 10.0807 106.284 9.6007 106.284 9.1207C106.284 8.6407 106.404 8.16737 106.644 7.7007C106.884 7.2207 107.264 6.8207 107.784 6.5007C108.317 6.16737 109.017 5.99404 109.884 5.9807C111.044 5.95404 111.951 6.22737 112.604 6.8007C113.257 7.37404 113.564 8.11404 113.524 9.0207C113.511 9.51404 113.364 9.99404 113.084 10.4607C112.804 10.9274 112.397 11.314 111.864 11.6207C111.344 11.9274 110.691 12.094 109.904 12.1207ZM117.444 14.3207C117.324 14.3607 117.231 14.3607 117.164 14.3207C117.111 14.2674 117.077 14.214 117.064 14.1607C117.024 14.0407 116.997 13.854 116.984 13.6007C116.971 13.3474 116.964 13.0807 116.964 12.8007C116.964 12.5207 116.964 12.2807 116.964 12.0807C116.964 11.9874 116.964 11.9207 116.964 11.8807V2.7607C116.964 2.3607 116.944 2.04737 116.904 1.8207C116.877 1.59404 116.797 1.4007 116.664 1.2407C116.531 1.0807 116.304 0.907369 115.984 0.720702C115.837 0.614035 115.804 0.494035 115.884 0.360702C116.031 0.120702 116.217 0.020702 116.444 0.0607023C116.671 0.0873686 116.937 0.174035 117.244 0.320703C117.551 0.454036 117.797 0.580702 117.984 0.700702C118.051 0.740703 118.111 0.794036 118.164 0.860703C118.217 0.927369 118.237 1.0007 118.224 1.0807C118.184 1.30737 118.157 1.53404 118.144 1.7607C118.131 1.98737 118.124 2.2407 118.124 2.5207V7.3407C118.831 7.3407 119.411 7.29404 119.864 7.2007C120.317 7.09404 120.651 7.00737 120.864 6.9407C121.011 6.88737 121.117 6.8807 121.184 6.9207C121.264 6.9607 121.331 7.0207 121.384 7.1007C121.437 7.19404 121.491 7.33404 121.544 7.5207C121.611 7.69404 121.644 7.8207 121.644 7.9007C121.644 7.9807 121.604 8.05404 121.524 8.1207C121.444 8.18737 121.384 8.2207 121.344 8.2207C120.784 8.16737 120.244 8.13404 119.724 8.1207C119.204 8.09404 118.671 8.0807 118.124 8.0807V11.7407C118.124 11.994 118.104 12.314 118.064 12.7007C118.037 13.0874 117.971 13.4407 117.864 13.7607C117.771 14.0807 117.631 14.2674 117.444 14.3207ZM109.904 11.2607C110.664 11.234 111.257 11.014 111.684 10.6007C112.111 10.174 112.344 9.65404 112.384 9.0407C112.411 8.73404 112.337 8.4007 112.164 8.0407C111.991 7.6807 111.717 7.37404 111.344 7.1207C110.971 6.85404 110.477 6.73404 109.864 6.7607C109.011 6.78737 108.377 7.0407 107.964 7.5207C107.564 7.98737 107.364 8.51404 107.364 9.1007C107.364 9.47404 107.464 9.83404 107.664 10.1807C107.877 10.514 108.177 10.7807 108.564 10.9807C108.951 11.1807 109.397 11.274 109.904 11.2607ZM111.544 18.3607C110.224 18.3607 109.571 17.7407 109.584 16.5007V15.7807C109.584 15.4074 109.531 15.094 109.424 14.8407C109.331 14.574 109.131 14.374 108.824 14.2407C108.744 14.214 108.691 14.1607 108.664 14.0807C108.637 14.0007 108.637 13.9274 108.664 13.8607C108.797 13.634 108.971 13.5274 109.184 13.5407C109.357 13.5674 109.591 13.634 109.884 13.7407C110.177 13.8474 110.424 13.954 110.624 14.0607C110.784 14.154 110.851 14.2674 110.824 14.4007C110.797 14.494 110.771 14.6607 110.744 14.9007C110.731 15.1407 110.724 15.374 110.724 15.6007V16.4007C110.724 16.8674 110.804 17.1674 110.964 17.3007C111.137 17.4474 111.364 17.5274 111.644 17.5407C111.777 17.554 112.011 17.5607 112.344 17.5607C112.691 17.5607 113.077 17.554 113.504 17.5407C113.931 17.5274 114.337 17.514 114.724 17.5007C115.124 17.4874 115.451 17.474 115.704 17.4607C116.397 17.4207 116.984 17.354 117.464 17.2607C117.957 17.1674 118.317 17.0874 118.544 17.0207C118.837 16.9274 119.044 16.9674 119.164 17.1407C119.231 17.2474 119.304 17.374 119.384 17.5207C119.464 17.6674 119.511 17.7874 119.524 17.8807C119.537 17.974 119.491 18.0607 119.384 18.1407C119.291 18.234 119.217 18.2807 119.164 18.2807C118.697 18.254 118.297 18.234 117.964 18.2207C117.631 18.2207 117.277 18.2207 116.904 18.2207C116.531 18.234 116.051 18.254 115.464 18.2807C114.784 18.3074 114.124 18.3274 113.484 18.3407C112.844 18.354 112.197 18.3607 111.544 18.3607ZM105.784 5.1007C105.557 5.1407 105.391 5.1407 105.284 5.1007C105.177 5.0607 105.077 5.0007 104.984 4.9207C104.864 4.78737 104.757 4.66737 104.664 4.5607C104.571 4.4407 104.504 4.34737 104.464 4.2807C104.424 4.21404 104.437 4.12737 104.504 4.0207C104.571 3.9007 104.651 3.85404 104.744 3.8807C105.064 3.94737 105.444 3.99404 105.884 4.0207C106.337 4.04737 106.804 4.06737 107.284 4.0807C107.777 4.0807 108.237 4.07404 108.664 4.0607C109.104 4.04737 109.471 4.03404 109.764 4.0207C110.764 3.9807 111.651 3.92737 112.424 3.8607C113.211 3.7807 113.864 3.66737 114.384 3.5207C114.531 3.4807 114.637 3.4807 114.704 3.5207C114.771 3.54737 114.831 3.60737 114.884 3.7007C114.937 3.7807 114.984 3.9007 115.024 4.0607C115.077 4.2207 115.104 4.3407 115.104 4.4207C115.104 4.5007 115.057 4.57404 114.964 4.6407C114.884 4.70737 114.824 4.7407 114.784 4.7407C114.304 4.7007 113.704 4.67404 112.984 4.6607C112.277 4.64737 111.504 4.65404 110.664 4.6807C109.824 4.70737 108.984 4.75404 108.144 4.8207C107.304 4.88737 106.517 4.9807 105.784 5.1007ZM109.164 2.4607C108.951 2.43404 108.677 2.3807 108.344 2.3007C108.011 2.2207 107.697 2.1207 107.404 2.0007C107.124 1.8807 106.931 1.75404 106.824 1.6207C106.744 1.5407 106.731 1.4207 106.784 1.2607C106.851 1.1007 106.944 1.03404 107.064 1.0607C107.704 1.19404 108.371 1.2807 109.064 1.3207C109.757 1.3607 110.404 1.36737 111.004 1.3407C111.617 1.31404 112.104 1.28737 112.464 1.2607C112.557 1.24737 112.637 1.2807 112.704 1.3607C112.784 1.4407 112.831 1.51404 112.844 1.5807C112.857 1.68737 112.811 1.80737 112.704 1.9407C112.597 2.07404 112.484 2.16737 112.364 2.2207C112.231 2.27404 111.971 2.32737 111.584 2.3807C111.211 2.4207 110.804 2.45404 110.364 2.4807C109.924 2.49404 109.524 2.48737 109.164 2.4607ZM130.129 11.6007C129.969 11.7074 129.809 11.7474 129.649 11.7207C129.502 11.6807 129.402 11.6074 129.349 11.5007C129.309 11.394 129.376 11.2807 129.549 11.1607C130.309 10.6274 130.989 10.0207 131.589 9.3407C132.189 8.6607 132.696 7.97404 133.109 7.2807C133.536 6.58737 133.869 5.94737 134.109 5.3607C134.362 4.7607 134.516 4.2807 134.569 3.9207C134.582 3.78737 134.549 3.66737 134.469 3.5607C134.389 3.4407 134.216 3.34737 133.949 3.2807C133.789 3.29404 133.549 3.32737 133.229 3.3807C132.909 3.4207 132.582 3.4607 132.249 3.5007C131.929 3.5407 131.662 3.5807 131.449 3.6207C131.196 3.6607 131.022 3.66737 130.929 3.6407C130.849 3.6007 130.762 3.53404 130.669 3.4407L130.149 2.8007C130.109 2.73404 130.122 2.65404 130.189 2.5607C130.256 2.45404 130.336 2.40737 130.429 2.4207C131.029 2.5007 131.709 2.54737 132.469 2.5607C133.229 2.57404 133.896 2.56737 134.469 2.5407C135.189 2.5007 135.876 2.4407 136.529 2.3607C137.182 2.2807 137.769 2.17404 138.289 2.0407C138.436 2.0007 138.542 2.0007 138.609 2.0407C138.676 2.06737 138.736 2.12737 138.789 2.2207C138.842 2.31404 138.896 2.4407 138.949 2.6007C139.016 2.74737 139.049 2.86737 139.049 2.9607C139.049 3.0407 139.002 3.11404 138.909 3.1807C138.829 3.23404 138.769 3.2607 138.729 3.2607C138.262 3.23404 137.742 3.21404 137.169 3.2007C136.596 3.18737 135.889 3.19404 135.049 3.2207C135.276 3.32737 135.482 3.44737 135.669 3.5807C135.856 3.71404 135.936 3.8407 135.909 3.9607C135.802 4.61404 135.409 5.5207 134.729 6.6807C135.409 7.2007 136.102 7.65404 136.809 8.0407C137.516 8.41404 138.102 8.7207 138.569 8.9607C138.716 9.0407 138.842 9.24737 138.949 9.5807C139.069 9.9007 139.116 10.194 139.089 10.4607C139.076 10.554 139.016 10.6407 138.909 10.7207C138.802 10.7874 138.696 10.834 138.589 10.8607C138.482 10.8874 138.416 10.8807 138.389 10.8407C138.122 10.454 137.742 10.0407 137.249 9.6007C136.769 9.14737 136.269 8.71404 135.749 8.3007C135.242 7.87404 134.789 7.51404 134.389 7.2207C133.869 8.0207 133.249 8.81404 132.529 9.6007C131.809 10.374 131.009 11.0407 130.129 11.6007ZM141.909 13.5807C141.789 13.5807 141.716 13.514 141.689 13.3807C141.662 13.2474 141.636 13.0407 141.609 12.7607C141.596 12.4674 141.589 12.1674 141.589 11.8607C141.589 11.554 141.589 11.314 141.589 11.1407V2.7207C141.589 2.3207 141.569 2.00737 141.529 1.7807C141.502 1.55404 141.422 1.3607 141.289 1.2007C141.156 1.0407 140.929 0.867369 140.609 0.680703C140.462 0.574036 140.429 0.454036 140.509 0.320703C140.629 0.120703 140.782 0.0207028 140.969 0.0207028C141.169 0.0207028 141.436 0.094036 141.769 0.240702C142.116 0.387369 142.396 0.527369 142.609 0.660702C142.769 0.754035 142.842 0.880702 142.829 1.0407C142.789 1.26737 142.762 1.49404 142.749 1.7207C142.736 1.94737 142.729 2.2007 142.729 2.4807V6.5607C143.436 6.5607 144.009 6.51404 144.449 6.4207C144.889 6.31404 145.222 6.22737 145.449 6.1607C145.596 6.10737 145.702 6.1007 145.769 6.1407C145.836 6.1807 145.896 6.24737 145.949 6.3407C146.002 6.4207 146.062 6.55404 146.129 6.7407C146.196 6.91404 146.229 7.0407 146.229 7.1207C146.229 7.2007 146.182 7.27404 146.089 7.3407C146.009 7.40737 145.949 7.4407 145.909 7.4407C145.362 7.38737 144.829 7.35404 144.309 7.3407C143.802 7.31404 143.276 7.3007 142.729 7.3007V11.0007C142.729 11.1874 142.716 11.4274 142.689 11.7207C142.676 12.0007 142.642 12.2874 142.589 12.5807C142.536 12.8607 142.456 13.1007 142.349 13.3007C142.242 13.4874 142.096 13.5807 141.909 13.5807ZM136.229 18.2607C135.562 18.2607 135.069 18.0874 134.749 17.7407C134.429 17.394 134.269 16.914 134.269 16.3007V14.9807C134.269 14.554 134.229 14.2274 134.149 14.0007C134.069 13.774 133.856 13.5874 133.509 13.4407C133.429 13.414 133.376 13.3607 133.349 13.2807C133.336 13.2007 133.336 13.1274 133.349 13.0607C133.442 12.794 133.616 12.6807 133.869 12.7207C134.082 12.7474 134.322 12.8207 134.589 12.9407C134.856 13.0474 135.089 13.1607 135.289 13.2807C135.462 13.3874 135.536 13.494 135.509 13.6007C135.496 13.694 135.476 13.8607 135.449 14.1007C135.422 14.3407 135.409 14.574 135.409 14.8007V16.2007C135.409 16.6674 135.489 16.9874 135.649 17.1607C135.822 17.3207 136.049 17.414 136.329 17.4407C136.489 17.454 136.742 17.4607 137.089 17.4607C137.449 17.4607 137.842 17.454 138.269 17.4407C138.696 17.4274 139.109 17.414 139.509 17.4007C139.922 17.3874 140.256 17.374 140.509 17.3607C141.202 17.3207 141.789 17.254 142.269 17.1607C142.762 17.0674 143.122 16.9874 143.349 16.9207C143.642 16.8274 143.849 16.8674 143.969 17.0407C144.036 17.1474 144.109 17.274 144.189 17.4207C144.269 17.5674 144.316 17.6874 144.329 17.7807C144.342 17.874 144.296 17.9607 144.189 18.0407C144.096 18.134 144.022 18.1807 143.969 18.1807C143.502 18.154 143.102 18.134 142.769 18.1207C142.436 18.1207 142.082 18.1207 141.709 18.1207C141.336 18.134 140.856 18.154 140.269 18.1807C139.589 18.2074 138.909 18.2274 138.229 18.2407C137.549 18.254 136.882 18.2607 136.229 18.2607Z" fill="#969674"/>
</svg>
