<svg width="226" height="39" viewBox="0 0 226 39" fill="none" xmlns="http://www.w3.org/2000/svg">
<path d="M4.19977 20.8801C3.8531 20.8801 3.5731 20.7467 3.35977 20.4801C3.14643 20.1867 3.0131 19.8267 2.95977 19.4001L2.15977 9.68008C2.10643 8.85341 1.98643 8.22674 1.79977 7.80008C1.6131 7.37341 1.27977 7.02674 0.799766 6.76008C0.266432 6.46674 0.0797657 6.08008 0.239766 5.60008C0.373099 5.22674 0.573099 4.93341 0.839766 4.72008C1.1331 4.50674 1.4931 4.44008 1.91977 4.52008C2.31977 4.62674 2.7331 4.74674 3.15977 4.88008C3.58643 4.98674 4.0131 5.12008 4.43977 5.28008C4.86643 5.28008 5.42643 5.28008 6.11977 5.28008C6.8131 5.25341 7.51977 5.22674 8.23977 5.20008C8.98643 5.17341 9.63977 5.14674 10.1998 5.12008C10.7864 5.09341 11.1598 5.06674 11.3198 5.04008C12.0398 4.98674 12.7064 4.90674 13.3198 4.80008C13.9598 4.69341 14.4798 4.56008 14.8798 4.40008C15.1998 4.29341 15.5464 4.28008 15.9198 4.36008L18.6798 5.04008C19.1064 5.14674 19.2398 5.46674 19.0798 6.00008C19.0264 6.24008 18.9464 6.62674 18.8398 7.16008C18.7598 7.69341 18.6798 8.22674 18.5998 8.76008C18.5198 9.29341 18.4531 9.70674 18.3998 10.0001C18.3198 10.5067 18.2131 11.1734 18.0798 12.0001C17.9731 12.8001 17.8664 13.6134 17.7598 14.4401C17.6531 15.2667 17.5598 15.9601 17.4798 16.5201C17.7464 16.7067 17.9998 16.9601 18.2398 17.2801C18.5064 17.5734 18.6398 17.7467 18.6398 17.8001C18.6398 18.1201 18.5198 18.4401 18.2798 18.7601C18.0398 19.0534 17.7598 19.2267 17.4398 19.2801C16.7998 19.2267 15.9331 19.2001 14.8398 19.2001C13.7731 19.2001 12.6531 19.2134 11.4798 19.2401C10.3331 19.2667 9.2531 19.2934 8.23977 19.3201C7.2531 19.3467 6.51977 19.3867 6.03977 19.4401C5.8531 19.8401 5.58643 20.1867 5.23977 20.4801C4.91977 20.7467 4.5731 20.8801 4.19977 20.8801ZM25.5598 38.6801C25.1864 38.7067 24.9198 38.6267 24.7598 38.4401C24.5998 38.2534 24.4931 38.0534 24.4398 37.8401C24.3331 37.3867 24.2664 36.8534 24.2398 36.2401C24.2131 35.6267 24.1998 35.0534 24.1998 34.5201L24.1198 27.8001C24.1198 27.5601 24.0664 27.4134 23.9598 27.3601C23.8531 27.2801 23.7198 27.2401 23.5598 27.2401C22.8398 27.2667 21.7064 27.3334 20.1598 27.4401C18.6398 27.5201 16.9331 27.6267 15.0398 27.7601C14.3464 27.8134 13.5198 27.9067 12.5598 28.0401C11.5998 28.1734 10.7731 28.3201 10.0798 28.4801C9.5731 28.6134 9.2131 28.6667 8.99977 28.6401C8.8131 28.5867 8.59977 28.4801 8.35977 28.3201C8.0131 28.0801 7.62643 27.7467 7.19977 27.3201C6.7731 26.8934 6.4931 26.5467 6.35977 26.2801C6.3331 26.0134 6.4531 25.7067 6.71977 25.3601C6.98643 25.0134 7.30643 24.8267 7.67977 24.8001C8.0531 24.8801 8.54643 24.9601 9.15977 25.0401C9.7731 25.0934 10.4264 25.1334 11.1198 25.1601C11.8398 25.1867 12.4931 25.2001 13.0798 25.2001C14.3064 25.1734 15.5064 25.1467 16.6798 25.1201C17.8531 25.0667 19.0531 24.9867 20.2798 24.8801C21.0531 24.8267 21.7598 24.7467 22.3998 24.6401C23.0664 24.5334 23.6531 24.3867 24.1598 24.2001C24.3731 24.1201 24.5331 24.0801 24.6398 24.0801C24.7464 24.0534 24.9198 24.0667 25.1598 24.1201L27.7998 24.6001C28.2264 24.6801 28.3998 24.9467 28.3198 25.4001C28.2931 25.6401 28.2531 25.9867 28.1998 26.4401C28.1464 26.8667 28.0931 27.3201 28.0398 27.8001C28.0131 28.2801 27.9998 28.6801 27.9998 29.0001L27.9598 33.9201C27.9598 34.6134 27.8664 35.3201 27.6798 36.0401C27.5198 36.7867 27.2531 37.4001 26.8798 37.8801C26.5331 38.3867 26.0931 38.6534 25.5598 38.6801ZM25.9198 22.4801C25.4664 22.4801 25.1598 22.2001 24.9998 21.6401C24.8664 21.0267 24.7864 20.3601 24.7598 19.6401C24.7331 18.8934 24.7198 18.2801 24.7198 17.8001C24.7198 17.6934 24.7198 17.6134 24.7198 17.5601V6.08008C24.7198 5.33341 24.6931 4.77341 24.6398 4.40008C24.5864 4.00008 24.4398 3.68008 24.1998 3.44008C23.9864 3.20008 23.6264 2.90674 23.1198 2.56008C22.8531 2.40008 22.6531 2.21341 22.5198 2.00008C22.4131 1.78674 22.4264 1.54674 22.5598 1.28008C22.7731 0.826743 23.0531 0.53341 23.3998 0.400076C23.7464 0.266743 24.1331 0.240077 24.5598 0.320077C25.1731 0.426743 25.7998 0.640076 26.4398 0.960076C27.0798 1.25341 27.6131 1.54674 28.0398 1.84008C28.5198 2.16008 28.7598 2.49341 28.7598 2.84008C28.7064 3.18674 28.6398 3.66674 28.5598 4.28008C28.4798 4.89341 28.4398 5.50674 28.4398 6.12008V12.1601C29.4798 12.0534 30.4131 11.8934 31.2398 11.6801C32.0931 11.4401 32.6931 11.2667 33.0398 11.1601C33.3331 11.0534 33.5731 11.0401 33.7598 11.1201C33.9464 11.1734 34.0931 11.2801 34.1998 11.4401C34.4131 11.7067 34.6264 12.0801 34.8398 12.5601C35.0531 13.0401 35.1598 13.3734 35.1598 13.5601C35.1598 13.8267 34.9864 14.0934 34.6398 14.3601C34.3198 14.6267 34.0664 14.7601 33.8798 14.7601C33.0531 14.6267 32.1598 14.5467 31.1998 14.5201C30.2664 14.4667 29.3464 14.4401 28.4398 14.4401V17.3601C28.4398 18.0267 28.3598 18.7601 28.1998 19.5601C28.0664 20.3334 27.8131 21.0134 27.4398 21.6001C27.0664 22.1601 26.5598 22.4534 25.9198 22.4801ZM6.27977 16.9601C6.9731 16.9601 7.79977 16.9601 8.75977 16.9601C9.74643 16.9334 10.7331 16.8934 11.7198 16.8401C12.7331 16.7867 13.6131 16.7201 14.3598 16.6401C14.3864 16.1601 14.3998 15.5067 14.3998 14.6801C14.4264 13.8267 14.4531 12.9334 14.4798 12.0001C14.5064 11.0667 14.5198 10.2267 14.5198 9.48008C14.5464 8.73341 14.5598 8.24008 14.5598 8.00008C14.5598 7.76008 14.5064 7.61341 14.3998 7.56008C14.3198 7.48008 14.1998 7.44008 14.0398 7.44008C13.7464 7.44008 13.1331 7.45341 12.1998 7.48008C11.2664 7.50674 10.2264 7.53341 9.07977 7.56008C7.95977 7.58674 6.91977 7.62674 5.95977 7.68008L6.27977 16.9601ZM49.2766 37.6801C48.6633 37.6534 48.0766 37.3601 47.5166 36.8001C46.9833 36.2667 46.7166 35.4534 46.7166 34.3601V31.6801C46.69 31.5201 46.5433 31.3467 46.2766 31.1601C45.9566 30.9467 45.69 30.7601 45.4766 30.6001C45.29 30.4134 45.1833 30.2534 45.1566 30.1201C45.1833 29.9067 45.3033 29.6267 45.5166 29.2801C45.73 28.9067 45.97 28.7067 46.2366 28.6801C46.85 28.7601 47.5566 28.8267 48.3566 28.8801C49.1566 28.9067 49.81 28.9334 50.3166 28.9601C50.85 28.9867 51.5566 29.0001 52.4366 29.0001C53.3433 28.9734 54.33 28.9467 55.3966 28.9201C56.4633 28.8934 57.5433 28.8534 58.6366 28.8001C59.73 28.7201 60.73 28.6401 61.6366 28.5601C61.69 28.0801 61.73 27.5601 61.7566 27.0001C61.7833 26.4401 61.7966 25.9067 61.7966 25.4001C61.7966 25.1867 61.7566 25.0667 61.6766 25.0401C61.5966 24.9867 61.4766 24.9601 61.3166 24.9601C61.0233 24.9601 60.5166 24.9867 59.7966 25.0401C59.0766 25.0667 58.2633 25.1067 57.3566 25.1601C56.4766 25.1867 55.61 25.2267 54.7566 25.2801C53.93 25.3334 53.25 25.3734 52.7166 25.4001C52.45 25.4001 52.0766 25.4267 51.5966 25.4801C51.1433 25.5067 50.6633 25.5467 50.1566 25.6001C49.6766 25.6534 49.2633 25.7201 48.9166 25.8001C48.3833 25.9067 47.9966 25.9467 47.7566 25.9201C47.5166 25.8934 47.2766 25.7867 47.0366 25.6001C46.77 25.3867 46.4366 25.0934 46.0366 24.7201C45.6633 24.3467 45.45 24.1067 45.3966 24.0001C45.3433 23.7601 45.4366 23.4801 45.6766 23.1601C45.9166 22.8401 46.1833 22.6534 46.4766 22.6001C47.5166 22.8134 48.7033 22.9334 50.0366 22.9601C51.3966 22.9601 52.8366 22.9467 54.3566 22.9201C55.2633 22.8934 56.21 22.8534 57.1966 22.8001C58.21 22.7467 59.1433 22.6667 59.9966 22.5601C60.85 22.4534 61.4766 22.3334 61.8766 22.2001C62.0633 22.1201 62.1966 22.0801 62.2766 22.0801C62.3566 22.0801 62.45 22.0934 62.5566 22.1201C62.6366 22.1467 62.7033 22.1601 62.7566 22.1601L65.6366 22.7601C66.0633 22.8401 66.1966 23.1467 66.0366 23.6801C65.9833 23.8934 65.8766 24.2667 65.7166 24.8001C65.5566 25.3334 65.3966 25.9201 65.2366 26.5601C65.1033 27.1734 64.9833 27.7201 64.8766 28.2001C65.17 28.3601 65.4633 28.5734 65.7566 28.8401C66.0766 29.0801 66.2366 29.2667 66.2366 29.4001C66.2366 29.7201 66.1166 30.0667 65.8766 30.4401C65.6633 30.8134 65.3966 31.0534 65.0766 31.1601C64.2233 31.1334 63.17 31.1201 61.9166 31.1201C60.6633 31.1201 59.3433 31.1334 57.9566 31.1601C56.57 31.1867 55.2233 31.2267 53.9166 31.2801C52.6366 31.3334 51.5166 31.3867 50.5566 31.4401V33.7201C50.5566 34.1467 50.5966 34.4934 50.6766 34.7601C50.7833 35.0001 50.9966 35.1334 51.3166 35.1601C52.33 35.2134 53.53 35.2267 54.9166 35.2001C56.33 35.1734 57.65 35.1467 58.8766 35.1201C60.77 35.0667 62.33 34.9334 63.5566 34.7201C64.7833 34.5067 65.61 34.3201 66.0366 34.1601C66.33 34.0267 66.57 34.0134 66.7566 34.1201C66.9433 34.2001 67.09 34.3201 67.1966 34.4801C67.41 34.7467 67.6233 35.0934 67.8366 35.5201C68.05 35.9467 68.1566 36.2267 68.1566 36.3601C68.1566 36.5734 67.9966 36.8401 67.6766 37.1601C67.3833 37.4801 67.1433 37.6401 66.9566 37.6401C66.5833 37.6134 65.9966 37.5867 65.1966 37.5601C64.4233 37.5601 63.5433 37.5467 62.5566 37.5201C61.57 37.5201 60.57 37.5334 59.5566 37.5601C59.37 37.5601 59.05 37.5601 58.5966 37.5601C58.17 37.5867 57.6633 37.6001 57.0766 37.6001C56.2233 37.6267 55.29 37.6401 54.2766 37.6401C53.2633 37.6667 52.3033 37.6801 51.3966 37.6801C50.49 37.7067 49.7833 37.7067 49.2766 37.6801ZM39.9166 23.2401C39.3033 23.5067 38.7033 23.5601 38.1166 23.4001C37.5566 23.2134 37.25 22.9601 37.1966 22.6401C37.17 22.5067 37.1833 22.3334 37.2366 22.1201C37.3166 21.8801 37.5166 21.6801 37.8366 21.5201C38.85 21.0401 39.9966 20.3201 41.2766 19.3601C42.5566 18.4001 43.8366 17.2801 45.1166 16.0001C46.3966 14.7201 47.5433 13.3601 48.5566 11.9201C49.5966 10.4534 50.3566 8.96008 50.8366 7.44008C50.9166 7.20008 50.81 7.08008 50.5166 7.08008C49.93 7.10674 49.21 7.14674 48.3566 7.20008C47.53 7.22674 46.8766 7.26674 46.3966 7.32008C45.65 7.37341 44.8633 7.44008 44.0366 7.52008C43.2366 7.60008 42.49 7.70674 41.7966 7.84008C41.29 7.94674 40.93 7.98674 40.7166 7.96008C40.5033 7.93341 40.25 7.78674 39.9566 7.52008C39.77 7.36008 39.49 7.10674 39.1166 6.76008C38.7433 6.38674 38.49 6.08008 38.3566 5.84008C38.3033 5.60008 38.41 5.32008 38.6766 5.00008C38.9433 4.65341 39.1833 4.48008 39.3966 4.48008C40.3833 4.72008 41.45 4.85341 42.5966 4.88008C43.77 4.90674 44.8766 4.89341 45.9166 4.84008C47.1433 4.78674 48.3166 4.69341 49.4366 4.56008C50.5566 4.40008 51.3033 4.21341 51.6766 4.00008C51.9966 3.86674 52.29 3.84008 52.5566 3.92008C52.9833 4.05341 53.49 4.25341 54.0766 4.52008C54.6633 4.76008 55.13 4.94674 55.4766 5.08008C55.69 5.16008 55.8366 5.28008 55.9166 5.44008C55.9966 5.57341 55.97 5.78674 55.8366 6.08008C55.73 6.42674 55.49 6.94674 55.1166 7.64008C54.77 8.33341 54.45 8.93341 54.1566 9.44008C53.49 10.6401 52.6633 11.9067 51.6766 13.2401C50.69 14.5467 49.57 15.8401 48.3166 17.1201C47.09 18.4001 45.7566 19.5734 44.3166 20.6401C42.9033 21.7067 41.4366 22.5734 39.9166 23.2401ZM63.5166 21.0801C63.01 21.0801 62.7033 20.8134 62.5966 20.2801C62.49 19.5867 62.41 18.8401 62.3566 18.0401C62.33 17.2134 62.3166 16.5601 62.3166 16.0801V13.9601C61.97 13.9867 61.65 14.0134 61.3566 14.0401C61.0633 14.0667 60.8233 14.0934 60.6366 14.1201C60.05 14.2001 59.45 14.2934 58.8366 14.4001C58.25 14.4801 57.69 14.6001 57.1566 14.7601C56.81 14.8667 56.53 14.9201 56.3166 14.9201C56.13 14.9201 55.9166 14.8801 55.6766 14.8001C55.5166 14.7201 55.25 14.5734 54.8766 14.3601C54.53 14.1201 54.1966 13.8934 53.8766 13.6801C53.5833 13.4401 53.4233 13.2934 53.3966 13.2401C53.29 12.9467 53.37 12.6134 53.6366 12.2401C53.93 11.8401 54.21 11.6401 54.4766 11.6401C55.49 11.8267 56.69 11.8934 58.0766 11.8401C58.4766 11.8401 59.0766 11.8267 59.8766 11.8001C60.7033 11.7467 61.5166 11.6934 62.3166 11.6401V6.08008C62.3166 5.33341 62.29 4.77341 62.2366 4.40008C62.1833 4.00008 62.0366 3.68008 61.7966 3.44008C61.5833 3.20008 61.2233 2.90674 60.7166 2.56008C60.45 2.40008 60.25 2.21341 60.1166 2.00008C60.01 1.78674 60.0233 1.54674 60.1566 1.28008C60.37 0.826743 60.65 0.53341 60.9966 0.400076C61.3433 0.266743 61.73 0.240077 62.1566 0.320077C62.77 0.426743 63.3966 0.640076 64.0366 0.960076C64.6766 1.25341 65.21 1.54674 65.6366 1.84008C66.1166 2.16008 66.3566 2.49341 66.3566 2.84008C66.3033 3.18674 66.2366 3.66674 66.1566 4.28008C66.0766 4.89341 66.0366 5.50674 66.0366 6.12008V15.8401C66.0366 16.5067 65.9566 17.2534 65.7966 18.0801C65.6633 18.9067 65.41 19.6134 65.0366 20.2001C64.6633 20.7867 64.1566 21.0801 63.5166 21.0801ZM77.4013 27.0801C76.628 27.0267 76.028 26.6667 75.6013 26.0001C75.2013 25.3334 75.0013 24.5467 75.0013 23.6401V17.0801C74.9747 16.8401 74.788 16.6134 74.4413 16.4001C74.148 16.2401 73.828 16.0401 73.4813 15.8001C73.1613 15.5601 72.988 15.3734 72.9613 15.2401C72.9347 14.9467 73.0147 14.6134 73.2013 14.2401C73.4147 13.8667 73.668 13.6667 73.9613 13.6401C74.4147 13.6667 74.8947 13.7067 75.4013 13.7601C75.9347 13.8134 76.4547 13.8534 76.9613 13.8801C78.4013 13.9067 79.8413 13.8934 81.2813 13.8401C82.748 13.7601 84.2147 13.6401 85.6813 13.4801C85.7347 13.0267 85.788 12.4401 85.8413 11.7201C85.9213 10.9734 85.988 10.2534 86.0413 9.56008C86.1213 8.86674 86.1613 8.36008 86.1613 8.04008C86.1613 7.80008 86.108 7.65341 86.0013 7.60008C85.9213 7.52008 85.8013 7.48008 85.6413 7.48008C85.0547 7.48008 84.228 7.50674 83.1613 7.56008C82.0947 7.61341 81.0147 7.69341 79.9213 7.80008C79.5213 7.82674 79.0813 7.88008 78.6013 7.96008C78.1213 8.01341 77.628 8.10674 77.1213 8.24008C76.588 8.34674 76.2147 8.38674 76.0013 8.36008C75.8147 8.33341 75.6013 8.22674 75.3613 8.04008C75.1747 7.90674 74.948 7.70674 74.6813 7.44008C74.4147 7.17341 74.1747 6.92008 73.9613 6.68008C73.7747 6.41341 73.668 6.24008 73.6413 6.16008C73.6147 5.97341 73.708 5.74674 73.9213 5.48008C74.1347 5.18674 74.388 5.01341 74.6813 4.96008C75.7213 5.14674 76.7613 5.25341 77.8013 5.28008C78.868 5.30674 79.9347 5.30674 81.0013 5.28008C81.9613 5.22674 82.9347 5.17341 83.9213 5.12008C84.908 5.04008 85.7747 4.86674 86.5213 4.60008C86.7347 4.52008 86.908 4.48008 87.0413 4.48008C87.1747 4.45341 87.3613 4.48008 87.6013 4.56008L90.2813 5.36008C90.6813 5.54674 90.8147 5.86674 90.6813 6.32008C90.5747 6.66674 90.4547 7.06674 90.3213 7.52008C90.188 7.94674 90.068 8.37341 89.9613 8.80008L88.8413 13.2001C89.108 13.3867 89.4013 13.6534 89.7213 14.0001C90.068 14.3467 90.2413 14.5467 90.2413 14.6001C90.2413 14.9467 90.1213 15.2934 89.8813 15.6401C89.6413 15.9867 89.3613 16.1867 89.0413 16.2401C88.2147 16.1867 87.2013 16.1734 86.0013 16.2001C84.8013 16.2267 83.5613 16.2667 82.2813 16.3201C81.0013 16.3467 79.8413 16.4001 78.8013 16.4801V22.4401C78.8013 22.9201 78.8813 23.2401 79.0413 23.4001C79.228 23.5334 79.468 23.6001 79.7613 23.6001C81.148 23.6001 82.548 23.5067 83.9613 23.3201C85.3747 23.1334 86.7213 22.8934 88.0013 22.6001C89.2813 22.3067 90.4013 22.0134 91.3613 21.7201C92.3213 21.4001 93.0147 21.1467 93.4413 20.9601C93.8947 20.7467 94.2413 20.7067 94.4813 20.8401C94.7213 20.9734 94.8413 21.1734 94.8413 21.4401C94.868 22.2401 94.108 22.9867 92.5613 23.6801C91.8147 24.0001 90.828 24.3601 89.6013 24.7601C88.4013 25.1334 87.0813 25.4934 85.6413 25.8401C84.2013 26.1867 82.7613 26.4801 81.3213 26.7201C79.8813 26.9334 78.5747 27.0534 77.4013 27.0801ZM97.8413 36.2801C97.388 36.2801 97.0947 35.9467 96.9613 35.2801C96.8813 34.8267 96.8147 34.2801 96.7613 33.6401C96.7347 33.0001 96.7213 32.3734 96.7213 31.7601C96.7213 31.1467 96.7213 30.6667 96.7213 30.3201V6.68008C96.7213 6.62674 96.7213 6.54674 96.7213 6.44008C96.7213 5.50674 96.6413 4.77341 96.4813 4.24008C96.348 3.70674 95.8547 3.18674 95.0013 2.68008C94.8413 2.57341 94.6947 2.45341 94.5613 2.32008C94.428 2.18674 94.3613 2.02674 94.3613 1.84008C94.3613 1.54674 94.508 1.21341 94.8013 0.840075C95.0947 0.466742 95.4547 0.280076 95.8813 0.280076C96.1747 0.280076 96.5747 0.360076 97.0813 0.520077C97.588 0.65341 98.108 0.840077 98.6413 1.08008C99.1747 1.29341 99.628 1.52008 100.001 1.76008C100.508 2.08008 100.761 2.40008 100.761 2.72008C100.735 3.06674 100.668 3.64008 100.561 4.44008C100.481 5.21341 100.441 5.96008 100.441 6.68008L100.401 30.1201C100.401 30.6267 100.361 31.2267 100.281 31.9201C100.201 32.6134 100.055 33.2934 99.8413 33.9601C99.6547 34.6267 99.388 35.1734 99.0413 35.6001C98.7213 36.0534 98.3213 36.2801 97.8413 36.2801ZM139.998 34.6801C139.492 34.6801 139.198 34.3467 139.118 33.6801C139.065 33.2267 139.012 32.7067 138.958 32.1201C138.932 31.5067 138.905 30.9201 138.878 30.3601C138.878 29.8001 138.878 29.3601 138.878 29.0401V21.7601C138.185 21.8134 137.492 21.8934 136.798 22.0001C136.132 22.1067 135.465 22.2401 134.798 22.4001C134.265 22.5334 133.785 22.5201 133.358 22.3601C133.198 22.2801 132.945 22.1334 132.598 21.9201C132.278 21.7067 131.972 21.4934 131.678 21.2801C131.412 21.0401 131.265 20.8934 131.238 20.8401C131.132 20.5201 131.198 20.2001 131.438 19.8801C131.678 19.5334 131.918 19.3467 132.158 19.3201C133.172 19.4801 134.252 19.5601 135.398 19.5601C136.572 19.5601 137.732 19.5067 138.878 19.4001V13.5601C138.398 13.5867 137.905 13.6401 137.398 13.7201C136.918 13.8001 136.372 13.9201 135.758 14.0801C135.465 14.1334 135.238 14.1601 135.078 14.1601C134.918 14.1601 134.705 14.1067 134.438 14.0001C134.305 13.9467 134.132 13.8667 133.918 13.7601C133.705 13.6267 133.492 13.4934 133.278 13.3601C132.532 15.0401 131.572 16.7867 130.398 18.6001C129.225 20.4134 127.905 22.1201 126.438 23.7201C124.972 25.3201 123.398 26.6534 121.718 27.7201C121.185 28.0667 120.625 28.2534 120.038 28.2801C119.478 28.2801 119.132 28.0667 118.998 27.6401C118.945 27.4001 118.985 27.1601 119.118 26.9201C119.252 26.6801 119.452 26.4667 119.718 26.2801C120.918 25.3201 122.105 24.1601 123.278 22.8001C124.478 21.4401 125.572 19.9867 126.558 18.4401C127.572 16.8667 128.425 15.2801 129.118 13.6801C129.838 12.0801 130.332 10.5601 130.598 9.12008C130.678 8.80008 130.585 8.64008 130.318 8.64008C129.332 8.64008 128.238 8.70674 127.038 8.84008C125.838 8.97341 124.652 9.17341 123.478 9.44008C123.452 9.44008 123.425 9.44008 123.398 9.44008C122.945 9.54674 122.625 9.60008 122.438 9.60008C122.278 9.57341 122.052 9.42674 121.758 9.16008C121.572 9.00008 121.278 8.73341 120.878 8.36008C120.505 7.96008 120.252 7.64008 120.118 7.40008C120.065 7.16008 120.172 6.88008 120.438 6.56008C120.705 6.21341 120.945 6.04008 121.158 6.04008C121.745 6.17341 122.478 6.26674 123.358 6.32008C124.238 6.37341 125.158 6.38674 126.118 6.36008C127.105 6.33341 128.038 6.26674 128.918 6.16008C129.825 6.02674 130.585 5.85341 131.198 5.64008C131.385 5.56008 131.545 5.53341 131.678 5.56008C131.812 5.56008 131.945 5.58674 132.078 5.64008C132.105 5.64008 132.118 5.64008 132.118 5.64008C132.545 5.77341 133.052 5.92008 133.638 6.08008C134.225 6.24008 134.692 6.38674 135.038 6.52008C135.492 6.68008 135.612 7.02674 135.398 7.56008C135.345 7.80008 135.225 8.16008 135.038 8.64008C134.878 9.12008 134.705 9.61341 134.518 10.1201C134.358 10.6001 134.212 11.0001 134.078 11.3201C134.852 11.4267 135.638 11.4801 136.438 11.4801C137.238 11.4534 138.052 11.4134 138.878 11.3601V7.60008C138.878 6.85341 138.852 6.29341 138.798 5.92008C138.745 5.52008 138.625 5.20008 138.438 4.96008C138.252 4.69341 137.972 4.41341 137.598 4.12008C137.332 3.90674 137.132 3.70674 136.998 3.52008C136.892 3.33341 136.905 3.10674 137.038 2.84008C137.492 1.93341 138.158 1.61341 139.038 1.88008C139.572 2.04008 140.078 2.25341 140.558 2.52008C141.065 2.78674 141.505 3.05341 141.878 3.32008C142.385 3.66674 142.638 4.00008 142.638 4.32008C142.558 4.66674 142.505 5.14674 142.478 5.76008C142.452 6.37341 142.438 6.98674 142.438 7.60008V28.8401C142.438 29.3467 142.398 29.9334 142.318 30.6001C142.238 31.2401 142.105 31.8801 141.918 32.5201C141.732 33.1334 141.478 33.6534 141.158 34.0801C140.865 34.4801 140.478 34.6801 139.998 34.6801ZM146.318 36.1201C145.838 36.1201 145.532 35.7867 145.398 35.1201C145.318 34.6401 145.252 34.0801 145.198 33.4401C145.172 32.7734 145.145 32.1467 145.118 31.5601C145.118 30.9467 145.118 30.4801 145.118 30.1601V6.08008C145.118 5.33341 145.092 4.77341 145.038 4.40008C144.985 4.02674 144.865 3.72008 144.678 3.48008C144.492 3.21341 144.172 2.92008 143.718 2.60008C143.452 2.38674 143.252 2.18674 143.118 2.00008C143.012 1.81341 143.025 1.57341 143.158 1.28008C143.585 0.426744 144.252 0.106744 145.158 0.320077C145.772 0.480077 146.358 0.706743 146.918 1.00008C147.505 1.29341 148.012 1.58674 148.438 1.88008C148.918 2.20008 149.158 2.52008 149.158 2.84008C149.105 3.18674 149.038 3.66674 148.958 4.28008C148.878 4.89341 148.838 5.50674 148.838 6.12008L148.798 29.9601C148.798 30.4667 148.758 31.0667 148.678 31.7601C148.625 32.4534 148.505 33.1334 148.318 33.8001C148.132 34.4667 147.878 35.0134 147.558 35.4401C147.238 35.8934 146.825 36.1201 146.318 36.1201ZM162.614 22.0801C162.267 22.0801 161.987 21.9334 161.774 21.6401C161.587 21.3201 161.48 20.8134 161.454 20.1201L161.174 10.4401C161.147 9.66674 161.107 9.02674 161.054 8.52008C161 8.01341 160.88 7.57341 160.694 7.20008C160.507 6.80008 160.187 6.41341 159.734 6.04008C159.547 5.85341 159.414 5.66674 159.334 5.48008C159.254 5.29341 159.294 5.06674 159.454 4.80008C159.72 4.37341 160.027 4.10674 160.374 4.00008C160.72 3.89341 161.067 3.89341 161.414 4.00008C161.867 4.10674 162.414 4.34674 163.054 4.72008C163.694 5.06674 164.16 5.38674 164.454 5.68008C164.747 5.94674 164.934 6.16008 165.014 6.32008C165.094 6.48008 165.147 6.66674 165.174 6.88008C165.12 7.20008 165.067 7.58674 165.014 8.04008C164.987 8.46674 164.96 8.90674 164.934 9.36008C165.574 9.38674 166.467 9.40008 167.614 9.40008C168.76 9.37341 169.974 9.33341 171.254 9.28008C172.56 9.22674 173.787 9.17341 174.934 9.12008C176.107 9.06674 177.04 9.01341 177.734 8.96008V8.16008C177.734 8.00008 177.734 7.85341 177.734 7.72008C177.734 7.56008 177.734 7.41341 177.734 7.28008C177.76 6.45341 177.72 5.84008 177.614 5.44008C177.507 5.01341 177.147 4.57341 176.534 4.12008C176.294 3.98674 176.12 3.81341 176.014 3.60008C175.934 3.38674 175.974 3.14674 176.134 2.88008C176.374 2.45341 176.667 2.18674 177.014 2.08008C177.387 1.97341 177.747 1.97341 178.094 2.08008C178.547 2.18674 179.027 2.37341 179.534 2.64008C180.04 2.88008 180.507 3.14674 180.934 3.44008C181.547 3.86674 181.88 4.22674 181.934 4.52008C181.827 5.08008 181.747 5.80008 181.694 6.68008C181.64 7.56008 181.614 8.25341 181.614 8.76008L181.574 17.8001C181.574 18.7867 181.307 19.6401 180.774 20.3601C180.24 21.0534 179.654 21.4001 179.014 21.4001C178.587 21.4001 178.28 21.2801 178.094 21.0401C177.934 20.7734 177.827 20.3867 177.774 19.8801C177.107 19.8801 176.187 19.8934 175.014 19.9201C173.867 19.9201 172.64 19.9334 171.334 19.9601C170.054 19.9867 168.827 20.0134 167.654 20.0401C166.507 20.0667 165.574 20.1067 164.854 20.1601C164.667 20.7467 164.347 21.2134 163.894 21.5601C163.467 21.9067 163.04 22.0801 162.614 22.0801ZM157.334 32.0801C156.96 32.0801 156.587 31.9467 156.214 31.6801C155.787 31.4134 155.32 31.0534 154.814 30.6001C154.334 30.1201 154.067 29.7867 154.014 29.6001C153.934 29.3601 154.04 29.0401 154.334 28.6401C154.627 28.2134 154.947 28.0267 155.294 28.0801C156.147 28.2667 157.227 28.4267 158.534 28.5601C159.867 28.6667 161.427 28.7201 163.214 28.7201C163.934 28.7201 164.88 28.7201 166.054 28.7201C167.254 28.6934 168.507 28.6667 169.814 28.6401L169.774 25.9601C169.747 24.9734 169.667 24.3334 169.534 24.0401C169.4 23.7201 169.134 23.4001 168.734 23.0801C168.707 23.0534 168.68 23.0267 168.654 23.0001C168.414 22.8134 168.254 22.6534 168.174 22.5201C168.094 22.3867 168.107 22.1867 168.214 21.9201C168.427 21.4667 168.707 21.1867 169.054 21.0801C169.4 20.9467 169.747 20.9067 170.094 20.9601C170.547 21.0401 171.027 21.1867 171.534 21.4001C172.067 21.6134 172.52 21.8267 172.894 22.0401C173.427 22.3601 173.72 22.6534 173.774 22.9201C173.56 23.7734 173.44 24.6801 173.414 25.6401L173.254 28.5601C174.32 28.5334 175.307 28.5067 176.214 28.4801C177.12 28.4267 177.854 28.3867 178.414 28.3601C180.067 28.2534 181.56 28.1201 182.894 27.9601C184.254 27.7734 185.347 27.5734 186.174 27.3601C186.52 27.2534 186.814 27.2001 187.054 27.2001C187.347 27.2001 187.614 27.3734 187.854 27.7201C188.04 28.0134 188.24 28.4001 188.454 28.8801C188.667 29.3601 188.774 29.6934 188.774 29.8801C188.774 30.1734 188.587 30.4667 188.214 30.7601C187.84 31.0267 187.574 31.1601 187.414 31.1601C186.774 31.0801 185.974 31.0267 185.014 31.0001C184.054 30.9467 183.054 30.9201 182.014 30.9201C181 30.8934 180.027 30.8801 179.094 30.8801C176.8 30.9067 174.294 30.9601 171.574 31.0401C168.854 31.0934 166.067 31.1734 163.214 31.2801C162.787 31.3067 162.214 31.3601 161.494 31.4401C160.8 31.5201 160.12 31.6134 159.454 31.7201C158.814 31.8001 158.334 31.8801 158.014 31.9601C157.747 32.0401 157.52 32.0801 157.334 32.0801ZM165.014 17.6801C165.76 17.6801 166.707 17.6801 167.854 17.6801C169 17.6534 170.2 17.6267 171.454 17.6001C172.707 17.5467 173.894 17.4934 175.014 17.4401C176.134 17.3867 177.04 17.3334 177.734 17.2801V11.5601C177.094 11.5601 176.2 11.5734 175.054 11.6001C173.934 11.6001 172.72 11.6134 171.414 11.6401C170.134 11.6667 168.907 11.7067 167.734 11.7601C166.587 11.7867 165.654 11.8134 164.934 11.8401L165.014 17.6801ZM199.3 19.0801C198.687 19.0801 198.14 18.7601 197.66 18.1201C197.207 17.4534 196.98 16.4401 196.98 15.0801V9.20008C196.98 8.34674 196.887 7.73341 196.7 7.36008C196.54 6.98674 196.153 6.62674 195.54 6.28008C194.98 5.96008 194.793 5.57341 194.98 5.12008C195.193 4.58674 195.473 4.26674 195.82 4.16008C196.167 4.02674 196.54 3.98674 196.94 4.04008C197.393 4.09341 197.953 4.21341 198.62 4.40008C199.287 4.56008 199.847 4.70674 200.3 4.84008C201.5 4.86674 202.94 4.85341 204.62 4.80008C206.3 4.74674 207.993 4.66674 209.7 4.56008C211.593 4.42674 213.047 4.28008 214.06 4.12008C215.073 3.96008 215.78 3.81341 216.18 3.68008C216.473 3.57341 216.713 3.56008 216.9 3.64008C217.087 3.72008 217.233 3.84008 217.34 4.00008C217.553 4.26674 217.78 4.60008 218.02 5.00008C218.26 5.40008 218.38 5.66674 218.38 5.80008C218.38 6.01341 218.22 6.28008 217.9 6.60008C217.607 6.92008 217.367 7.08008 217.18 7.08008C216.673 7.02674 215.793 7.00008 214.54 7.00008C213.287 6.97341 211.913 6.97341 210.42 7.00008C208.58 7.02674 206.793 7.08008 205.06 7.16008C203.327 7.21341 201.927 7.26674 200.86 7.32008V14.7201C200.86 15.4667 200.967 15.9601 201.18 16.2001C201.393 16.4401 201.767 16.5467 202.3 16.5201C202.967 16.4934 203.62 16.4801 204.26 16.4801C204.9 16.4801 205.66 16.4667 206.54 16.4401C207.42 16.4134 208.527 16.3601 209.86 16.2801C211.753 16.1734 213.26 16.0267 214.38 15.8401C215.5 15.6267 216.26 15.4667 216.66 15.3601C216.953 15.2534 217.193 15.2401 217.38 15.3201C217.567 15.4001 217.713 15.5201 217.82 15.6801C218.033 15.9467 218.247 16.3067 218.46 16.7601C218.673 17.1867 218.78 17.4667 218.78 17.6001C218.78 17.8134 218.62 18.0801 218.3 18.4001C218.007 18.7201 217.767 18.8801 217.58 18.8801C217.073 18.8267 216.153 18.8001 214.82 18.8001C213.487 18.7734 212.073 18.7734 210.58 18.8001C210.34 18.8001 209.86 18.8134 209.14 18.8401C208.447 18.8401 207.633 18.8534 206.7 18.8801C205.793 18.9067 204.847 18.9467 203.86 19.0001C202.9 19.0267 202.007 19.0534 201.18 19.0801C200.38 19.0801 199.753 19.0801 199.3 19.0801ZM193.74 31.8801C193.367 31.8801 192.993 31.7467 192.62 31.4801C192.193 31.2134 191.727 30.8534 191.22 30.4001C190.74 29.9201 190.473 29.5867 190.42 29.4001C190.34 29.1601 190.447 28.8401 190.74 28.4401C191.033 28.0134 191.353 27.8267 191.7 27.8801C192.553 28.0667 193.633 28.2267 194.94 28.3601C196.273 28.4667 197.833 28.5201 199.62 28.5201C200.34 28.5201 201.287 28.5201 202.46 28.5201C203.66 28.4934 204.913 28.4667 206.22 28.4401L206.18 25.0401C206.153 24.0534 206.073 23.4134 205.94 23.1201C205.807 22.8001 205.54 22.4801 205.14 22.1601C205.113 22.1334 205.087 22.1067 205.06 22.0801C204.82 21.8934 204.66 21.7334 204.58 21.6001C204.5 21.4667 204.513 21.2667 204.62 21.0001C204.833 20.5467 205.113 20.2534 205.46 20.1201C205.807 19.9867 206.153 19.9467 206.5 20.0001C206.953 20.0801 207.433 20.2267 207.94 20.4401C208.473 20.6534 208.927 20.8801 209.3 21.1201C209.833 21.4401 210.127 21.7334 210.18 22.0001C209.967 22.8534 209.847 23.7601 209.82 24.7201L209.62 28.3601C210.687 28.3334 211.673 28.3067 212.58 28.2801C213.513 28.2267 214.26 28.1867 214.82 28.1601C216.473 28.0534 217.967 27.9201 219.3 27.7601C220.66 27.5734 221.753 27.3734 222.58 27.1601C222.927 27.0534 223.22 27.0001 223.46 27.0001C223.753 27.0001 224.02 27.1734 224.26 27.5201C224.447 27.8134 224.647 28.2001 224.86 28.6801C225.073 29.1601 225.18 29.4934 225.18 29.6801C225.18 29.9734 224.993 30.2667 224.62 30.5601C224.247 30.8267 223.98 30.9601 223.82 30.9601C223.18 30.8801 222.38 30.8267 221.42 30.8001C220.46 30.7467 219.46 30.7201 218.42 30.7201C217.407 30.6934 216.433 30.6801 215.5 30.6801C213.207 30.7067 210.7 30.7601 207.98 30.8401C205.26 30.8934 202.473 30.9734 199.62 31.0801C199.193 31.1067 198.62 31.1601 197.9 31.2401C197.207 31.3201 196.527 31.4134 195.86 31.5201C195.22 31.6001 194.74 31.6801 194.42 31.7601C194.153 31.8401 193.927 31.8801 193.74 31.8801Z" fill="#00411D"/>
</svg>
