<svg width="288" height="93" viewBox="0 0 288 93" fill="none" xmlns="http://www.w3.org/2000/svg">
<path d="M8.71691 74.082C8.42358 74.082 8.15025 73.9754 7.89691 73.762C7.65691 73.5354 7.53691 73.1954 7.53691 72.742C7.53691 72.222 7.63691 71.742 7.83691 71.302C8.03691 70.862 8.28358 70.4887 8.57691 70.182C8.88358 69.8754 9.18358 69.662 9.47691 69.542C9.58358 69.502 9.67691 69.482 9.75691 69.482C9.86358 69.482 9.95025 69.5354 10.0169 69.642L10.2369 70.002C9.81025 70.1887 9.45691 70.462 9.17691 70.822C8.89691 71.182 8.70358 71.5754 8.59691 72.002C8.91691 72.0154 9.18358 72.1154 9.39691 72.302C9.61025 72.4887 9.71691 72.7287 9.71691 73.022C9.71691 73.3687 9.61691 73.6354 9.41691 73.822C9.21691 73.9954 8.98358 74.082 8.71691 74.082ZM11.8169 74.082C11.5236 74.082 11.2502 73.9754 10.9969 73.762C10.7569 73.5354 10.6369 73.1954 10.6369 72.742C10.6369 72.222 10.7369 71.742 10.9369 71.302C11.1369 70.862 11.3836 70.4887 11.6769 70.182C11.9836 69.8754 12.2836 69.662 12.5769 69.542C12.6836 69.502 12.7769 69.482 12.8569 69.482C12.9636 69.482 13.0502 69.5354 13.1169 69.642L13.3369 70.002C12.9102 70.1887 12.5569 70.462 12.2769 70.822C11.9969 71.182 11.8036 71.5754 11.6969 72.002C12.0169 72.0154 12.2836 72.1154 12.4969 72.302C12.7102 72.4887 12.8169 72.7287 12.8169 73.022C12.8169 73.3687 12.7169 73.6354 12.5169 73.822C12.3169 73.9954 12.0836 74.082 11.8169 74.082ZM24.7047 88.222C23.9047 88.222 23.1981 88.0754 22.5847 87.782C21.9847 87.502 21.5114 87.1087 21.1647 86.602C20.8181 86.1087 20.6447 85.5354 20.6447 84.882C20.6447 84.242 20.8314 83.6687 21.2047 83.162C21.5781 82.642 22.0781 82.2354 22.7047 81.942C23.3314 81.6354 24.0181 81.482 24.7647 81.482C25.5247 81.482 26.2114 81.6087 26.8247 81.862C27.4514 82.1154 27.9514 82.4887 28.3247 82.982C28.6981 83.4754 28.8714 84.082 28.8447 84.802C28.8447 85.4687 28.6581 86.062 28.2847 86.582C27.9114 87.102 27.4114 87.502 26.7847 87.782C26.1581 88.0754 25.4647 88.222 24.7047 88.222ZM24.7247 87.322C25.5514 87.322 26.2381 87.102 26.7847 86.662C27.3447 86.222 27.6381 85.5954 27.6647 84.782C27.6914 84.262 27.5714 83.822 27.3047 83.462C27.0381 83.0887 26.6781 82.8087 26.2247 82.622C25.7847 82.422 25.2914 82.322 24.7447 82.322C24.1847 82.322 23.6847 82.4354 23.2447 82.662C22.8047 82.8754 22.4514 83.1754 22.1847 83.562C21.9314 83.9487 21.8047 84.382 21.8047 84.862C21.8047 85.622 22.0781 86.222 22.6247 86.662C23.1847 87.102 23.8847 87.322 24.7247 87.322ZM15.9647 80.762C15.8047 80.8687 15.6447 80.9087 15.4847 80.882C15.3247 80.8554 15.2181 80.7887 15.1647 80.682C15.1247 80.5754 15.1914 80.462 15.3647 80.342C16.1247 79.8087 16.8114 79.2087 17.4247 78.542C18.0514 77.862 18.5847 77.182 19.0247 76.502C19.4781 75.822 19.8381 75.1954 20.1047 74.622C20.3714 74.0354 20.5314 73.562 20.5847 73.202C20.5981 73.0554 20.5647 72.9287 20.4847 72.822C20.4047 72.702 20.2314 72.6154 19.9647 72.562C19.8047 72.562 19.5647 72.582 19.2447 72.622C18.9247 72.662 18.5981 72.7087 18.2647 72.762C17.9447 72.802 17.6781 72.842 17.4647 72.882C17.2114 72.922 17.0381 72.9287 16.9447 72.902C16.8647 72.862 16.7781 72.7954 16.6847 72.702C16.6181 72.6354 16.5114 72.5154 16.3647 72.342C16.2314 72.1687 16.1647 72.0754 16.1647 72.062C16.1247 71.9954 16.1381 71.9154 16.2047 71.822C16.2714 71.7154 16.3514 71.6687 16.4447 71.682C16.8447 71.7487 17.2847 71.7954 17.7647 71.822C18.2447 71.8487 18.7247 71.8554 19.2047 71.842C19.6847 71.8287 20.1114 71.8154 20.4847 71.802C21.2047 71.762 21.8781 71.702 22.5047 71.622C23.1447 71.542 23.7247 71.4354 24.2447 71.302C24.4981 71.2487 24.6647 71.3087 24.7447 71.482C24.7981 71.5754 24.8514 71.702 24.9047 71.862C24.9714 72.0087 25.0047 72.1287 25.0047 72.222C25.0047 72.302 24.9581 72.3754 24.8647 72.442C24.7847 72.5087 24.7314 72.542 24.7047 72.542C24.2381 72.502 23.7247 72.4754 23.1647 72.462C22.6047 72.4487 21.9114 72.462 21.0847 72.502C21.3114 72.6087 21.5114 72.7287 21.6847 72.862C21.8714 72.9954 21.9514 73.1154 21.9247 73.222C21.8181 73.862 21.4247 74.722 20.7447 75.802C21.5314 76.3887 22.2447 76.8554 22.8847 77.202C23.5247 77.5487 24.0781 77.8354 24.5447 78.062C24.6914 78.1687 24.8247 78.3687 24.9447 78.662C25.0781 78.942 25.1381 79.2154 25.1247 79.482C25.1114 79.562 25.0514 79.642 24.9447 79.722C24.8381 79.7887 24.7314 79.842 24.6247 79.882C24.5181 79.9087 24.4514 79.902 24.4247 79.862C24.1581 79.4754 23.7781 79.062 23.2847 78.622C22.7914 78.182 22.2781 77.762 21.7447 77.362C21.2247 76.962 20.7714 76.6287 20.3847 76.362C19.8381 77.1487 19.1847 77.942 18.4247 78.742C17.6647 79.5287 16.8447 80.202 15.9647 80.762ZM28.0447 81.302C27.9247 81.342 27.8381 81.342 27.7847 81.302C27.7314 81.2487 27.6981 81.1887 27.6847 81.122C27.6581 80.9887 27.6314 80.7754 27.6047 80.482C27.5914 80.1887 27.5847 79.8887 27.5847 79.582C27.5847 79.2754 27.5847 79.0354 27.5847 78.862V72.122C27.5847 71.722 27.5647 71.4087 27.5247 71.182C27.4981 70.9554 27.4114 70.762 27.2647 70.602C27.1314 70.442 26.9047 70.2687 26.5847 70.082C26.4514 69.9887 26.4181 69.8687 26.4847 69.722C26.6314 69.482 26.8247 69.382 27.0647 69.422C27.2781 69.4487 27.5381 69.5354 27.8447 69.682C28.1514 69.8154 28.3981 69.942 28.5847 70.062C28.6514 70.102 28.7114 70.1554 28.7647 70.222C28.8181 70.2887 28.8381 70.362 28.8247 70.442C28.7847 70.6687 28.7581 70.8954 28.7447 71.122C28.7314 71.3487 28.7247 71.602 28.7247 71.882V75.342C29.4181 75.342 29.9914 75.2954 30.4447 75.202C30.8981 75.0954 31.2381 75.0087 31.4647 74.942C31.6114 74.8887 31.7181 74.882 31.7847 74.922C31.8514 74.962 31.9114 75.0287 31.9647 75.122C32.0181 75.202 32.0781 75.3354 32.1447 75.522C32.2114 75.6954 32.2447 75.822 32.2447 75.902C32.2447 75.982 32.1981 76.0554 32.1047 76.122C32.0247 76.1887 31.9647 76.222 31.9247 76.222C31.3647 76.1687 30.8247 76.1354 30.3047 76.122C29.7981 76.0954 29.2714 76.082 28.7247 76.082V78.722C28.7247 78.9887 28.7047 79.3154 28.6647 79.702C28.6381 80.0754 28.5714 80.4154 28.4647 80.722C28.3714 81.0287 28.2314 81.222 28.0447 81.302ZM38.3232 79.162C37.5632 79.1754 36.8632 79.0287 36.2232 78.722C35.5965 78.4154 35.0898 77.982 34.7032 77.422C34.3298 76.8487 34.1432 76.1887 34.1432 75.442C34.1432 74.7354 34.3298 74.0954 34.7032 73.522C35.0898 72.9487 35.5965 72.4887 36.2232 72.142C36.8632 71.7954 37.5698 71.6154 38.3432 71.602C39.1032 71.5754 39.7965 71.7087 40.4232 72.002C41.0632 72.2954 41.5698 72.722 41.9432 73.282C42.3165 73.8287 42.5032 74.4954 42.5032 75.282C42.5032 76.0154 42.3098 76.6687 41.9232 77.242C41.5498 77.8154 41.0498 78.2754 40.4232 78.622C39.7965 78.9554 39.0965 79.1354 38.3232 79.162ZM38.3432 78.242C39.2098 78.202 39.9098 77.9287 40.4432 77.422C40.9898 76.9154 41.2632 76.202 41.2632 75.282C41.2632 74.322 40.9898 73.6087 40.4432 73.142C39.8965 72.662 39.1898 72.4487 38.3232 72.502C37.4565 72.5554 36.7298 72.842 36.1432 73.362C35.5698 73.8687 35.2832 74.5554 35.2832 75.422C35.2832 76.342 35.5698 77.0554 36.1432 77.562C36.7298 78.0687 37.4632 78.2954 38.3432 78.242ZM46.7232 83.322C46.6032 83.322 46.5298 83.2554 46.5032 83.122C46.4765 82.9887 46.4498 82.7754 46.4232 82.482C46.4098 82.1887 46.4032 81.8887 46.4032 81.582C46.4032 81.2754 46.4032 81.0354 46.4032 80.862V72.082C46.4032 71.682 46.3832 71.3687 46.3432 71.142C46.3165 70.9154 46.2365 70.722 46.1032 70.562C45.9698 70.402 45.7432 70.2287 45.4232 70.042C45.2765 69.9354 45.2432 69.8154 45.3232 69.682C45.4432 69.482 45.5965 69.382 45.7832 69.382C45.9832 69.382 46.2498 69.4554 46.5832 69.602C46.9298 69.7487 47.2098 69.8887 47.4232 70.022C47.5832 70.1154 47.6565 70.242 47.6432 70.402C47.6032 70.6287 47.5765 70.8554 47.5632 71.082C47.5498 71.3087 47.5432 71.562 47.5432 71.842V80.722C47.5432 80.9087 47.5298 81.1487 47.5032 81.442C47.4898 81.722 47.4565 82.0087 47.4032 82.302C47.3498 82.5954 47.2698 82.842 47.1632 83.042C47.0565 83.2287 46.9098 83.322 46.7232 83.322ZM40.8432 87.622C40.1765 87.622 39.6832 87.4487 39.3632 87.102C39.0432 86.7554 38.8832 86.2754 38.8832 85.662V84.342C38.8832 83.9154 38.8432 83.5887 38.7632 83.362C38.6832 83.1354 38.4698 82.9487 38.1232 82.802C38.0432 82.7754 37.9898 82.722 37.9632 82.642C37.9498 82.562 37.9498 82.4887 37.9632 82.422C38.0565 82.1554 38.2298 82.042 38.4832 82.082C38.6965 82.1087 38.9365 82.182 39.2032 82.302C39.4698 82.4087 39.7032 82.522 39.9032 82.642C40.0765 82.7487 40.1498 82.8554 40.1232 82.962C40.1098 83.0554 40.0898 83.222 40.0632 83.462C40.0365 83.702 40.0232 83.9354 40.0232 84.162V85.562C40.0232 86.0287 40.1032 86.3487 40.2632 86.522C40.4365 86.682 40.6632 86.7754 40.9432 86.802C41.1032 86.8154 41.3565 86.822 41.7032 86.822C42.0632 86.822 42.4565 86.8154 42.8832 86.802C43.3098 86.7887 43.7232 86.7754 44.1232 86.762C44.5365 86.7487 44.8698 86.7354 45.1232 86.722C45.8165 86.682 46.4032 86.6154 46.8832 86.522C47.3765 86.4287 47.7365 86.3487 47.9632 86.282C48.2565 86.1887 48.4632 86.2287 48.5832 86.402C48.6498 86.5087 48.7232 86.6354 48.8032 86.782C48.8832 86.9287 48.9298 87.0487 48.9432 87.142C48.9565 87.2354 48.9098 87.322 48.8032 87.402C48.7098 87.4954 48.6365 87.542 48.5832 87.542C48.1165 87.5154 47.7165 87.4954 47.3832 87.482C47.0498 87.482 46.6965 87.482 46.3232 87.482C45.9498 87.4954 45.4698 87.5154 44.8832 87.542C44.2032 87.5687 43.5232 87.5887 42.8432 87.602C42.1632 87.6154 41.4965 87.622 40.8432 87.622ZM56.6655 78.482C55.9055 78.4954 55.2055 78.362 54.5655 78.082C53.9255 77.7887 53.4122 77.3754 53.0255 76.842C52.6388 76.2954 52.4455 75.662 52.4455 74.942C52.4455 74.2487 52.6388 73.6287 53.0255 73.082C53.4122 72.5354 53.9255 72.0954 54.5655 71.762C55.2055 71.4287 55.9122 71.2554 56.6855 71.242C57.4588 71.2154 58.1655 71.342 58.8055 71.622C59.4455 71.902 59.9588 72.3087 60.3455 72.842C60.7322 73.3754 60.9255 74.022 60.9255 74.782C60.9255 75.4754 60.7255 76.102 60.3255 76.662C59.9388 77.2087 59.4255 77.642 58.7855 77.962C58.1455 78.282 57.4388 78.4554 56.6655 78.482ZM56.6855 77.622C57.5388 77.5954 58.2522 77.3287 58.8255 76.822C59.4122 76.3154 59.7055 75.6354 59.7055 74.782C59.7055 73.8487 59.4122 73.162 58.8255 72.722C58.2522 72.282 57.5322 72.0754 56.6655 72.102C55.7988 72.1554 55.0655 72.4287 54.4655 72.922C53.8788 73.4154 53.5855 74.082 53.5855 74.922C53.5855 75.802 53.8855 76.482 54.4855 76.962C55.0855 77.4287 55.8188 77.6487 56.6855 77.622ZM64.4455 87.022C64.2988 87.022 64.2188 86.9554 64.2055 86.822C64.1922 86.7154 64.1722 86.522 64.1455 86.242C64.1322 85.9487 64.1188 85.6354 64.1055 85.302C64.0922 84.9554 64.0855 84.6554 64.0855 84.402V72.142C64.0855 71.7287 64.0655 71.4087 64.0255 71.182C63.9988 70.9554 63.9122 70.7687 63.7655 70.622C63.6322 70.462 63.3922 70.2954 63.0455 70.122C62.9388 70.0554 62.8855 69.9887 62.8855 69.922C62.8855 69.8554 62.9322 69.7687 63.0255 69.662C63.1188 69.542 63.2188 69.482 63.3255 69.482C63.4855 69.482 63.6855 69.522 63.9255 69.602C64.1655 69.682 64.3988 69.7754 64.6255 69.882C64.8522 69.9754 65.0188 70.062 65.1255 70.142C65.2855 70.262 65.3588 70.3954 65.3455 70.542C65.3055 70.822 65.2722 71.082 65.2455 71.322C65.2322 71.562 65.2255 71.842 65.2255 72.162V84.362C65.2255 84.5754 65.2122 84.8354 65.1855 85.142C65.1722 85.4354 65.1388 85.7287 65.0855 86.022C65.0322 86.302 64.9522 86.5354 64.8455 86.722C64.7522 86.922 64.6188 87.022 64.4455 87.022ZM52.3255 83.042C52.2188 83.042 52.1188 83.022 52.0255 82.982C51.9455 82.942 51.8455 82.882 51.7255 82.802C51.5655 82.6954 51.3855 82.5687 51.1855 82.422C50.9855 82.2754 50.8722 82.1554 50.8455 82.062C50.8322 81.9954 50.8522 81.9087 50.9055 81.802C50.9722 81.6954 51.0522 81.642 51.1455 81.642C51.4922 81.6954 51.8322 81.7354 52.1655 81.762C52.4988 81.7754 52.8322 81.782 53.1655 81.782C53.6322 81.782 54.1988 81.762 54.8655 81.722C55.5455 81.6687 56.2722 81.5954 57.0455 81.502C57.8188 81.4087 58.5855 81.3087 59.3455 81.202C60.1188 81.082 60.8388 80.962 61.5055 80.842C62.1722 80.7087 62.7322 80.5754 63.1855 80.442C63.2655 80.4154 63.3455 80.4154 63.4255 80.442C63.5055 80.4554 63.5455 80.5154 63.5455 80.622C63.5455 80.702 63.5055 80.7954 63.4255 80.902C63.3455 80.9954 63.2388 81.0754 63.1055 81.142C62.9455 81.2087 62.6255 81.302 62.1455 81.422C61.6788 81.5287 61.1122 81.6487 60.4455 81.782C59.7788 81.9154 59.0655 82.042 58.3055 82.162C57.5455 82.282 56.7988 82.382 56.0655 82.462C55.4522 82.5287 54.8588 82.5954 54.2855 82.662C53.7255 82.7287 53.2655 82.8154 52.9055 82.922C52.6522 83.002 52.4588 83.042 52.3255 83.042ZM76.5146 82.122C76.2879 82.1754 76.1279 82.1954 76.0346 82.182C75.9546 82.1554 75.8479 82.0954 75.7146 82.002C75.6346 81.9487 75.5279 81.8687 75.3946 81.762C75.2612 81.6554 75.1412 81.542 75.0346 81.422C74.9279 81.302 74.8679 81.222 74.8546 81.182C74.8012 81.1287 74.8212 81.042 74.9146 80.922C75.0212 80.7887 75.1079 80.7354 75.1746 80.762C75.6012 80.8554 76.1079 80.9287 76.6946 80.982C77.2946 81.022 77.9479 81.0354 78.6546 81.022C79.3746 81.022 80.1346 81.022 80.9346 81.022C81.7346 81.0087 82.5546 80.9887 83.3946 80.962L83.3346 79.162C82.3212 79.082 81.5479 78.7754 81.0146 78.242C80.4946 77.6954 80.2346 77.0954 80.2346 76.442C80.2346 75.6687 80.5279 75.022 81.1146 74.502C81.7146 73.9687 82.6546 73.6754 83.9346 73.622C85.0412 73.5954 85.9412 73.822 86.6346 74.302C87.3279 74.7687 87.6612 75.4554 87.6346 76.362C87.6079 77.0154 87.3279 77.6087 86.7946 78.142C86.2746 78.662 85.5146 78.9887 84.5146 79.122L84.4346 80.922C84.9412 80.9087 85.4412 80.8954 85.9346 80.882C86.4279 80.8687 86.9146 80.8487 87.3946 80.822C88.2612 80.782 89.0546 80.722 89.7746 80.642C90.5079 80.562 91.0279 80.4754 91.3346 80.382C91.4812 80.3287 91.5946 80.322 91.6746 80.362C91.7546 80.402 91.8346 80.4687 91.9146 80.562C91.9812 80.6687 92.0479 80.7954 92.1146 80.942C92.1946 81.0887 92.2346 81.2087 92.2346 81.302C92.2346 81.3954 92.1879 81.482 92.0946 81.562C92.0012 81.6287 91.9346 81.662 91.8946 81.662C91.4012 81.5954 90.8546 81.562 90.2546 81.562C89.6546 81.5487 89.0812 81.5487 88.5346 81.562C88.3879 81.562 88.2479 81.562 88.1146 81.562C87.9812 81.562 87.8479 81.562 87.7146 81.562C87.1146 81.5754 86.4546 81.5954 85.7346 81.622C85.0146 81.6354 84.2746 81.6554 83.5146 81.682C82.7679 81.6954 82.0479 81.7154 81.3546 81.742C80.6746 81.7554 80.0612 81.7754 79.5146 81.802C78.9146 81.8287 78.3612 81.8687 77.8546 81.922C77.3612 81.9754 76.9146 82.042 76.5146 82.122ZM83.8546 78.342C84.6679 78.3154 85.2879 78.1087 85.7146 77.722C86.1412 77.322 86.3679 76.862 86.3946 76.342C86.3946 76.0487 86.3279 75.7487 86.1946 75.442C86.0746 75.122 85.8346 74.8554 85.4746 74.642C85.1279 74.4287 84.6146 74.322 83.9346 74.322C83.3212 74.322 82.8279 74.4287 82.4546 74.642C82.0946 74.8554 81.8346 75.122 81.6746 75.442C81.5146 75.762 81.4346 76.082 81.4346 76.402C81.4346 76.9354 81.6412 77.3954 82.0546 77.782C82.4812 78.1554 83.0812 78.342 83.8546 78.342ZM81.3946 87.762C80.7279 87.762 80.2279 87.6287 79.8946 87.362C79.5746 87.0954 79.4212 86.6554 79.4346 86.042V85.342C79.4346 84.9687 79.3812 84.6554 79.2746 84.402C79.1812 84.1354 78.9812 83.9354 78.6746 83.802C78.5946 83.7754 78.5412 83.722 78.5146 83.642C78.4879 83.562 78.4879 83.4887 78.5146 83.422C78.6479 83.1954 78.8212 83.0887 79.0346 83.102C79.2079 83.1287 79.4412 83.1954 79.7346 83.302C80.0279 83.4087 80.2746 83.5154 80.4746 83.622C80.6346 83.7154 80.7012 83.8287 80.6746 83.962C80.6479 84.0554 80.6212 84.222 80.5946 84.462C80.5812 84.702 80.5746 84.9354 80.5746 85.162V85.942C80.5746 86.3954 80.6546 86.6754 80.8146 86.782C80.9746 86.8887 81.2012 86.942 81.4946 86.942C81.6412 86.9554 81.8812 86.9554 82.2146 86.942C82.5479 86.942 82.9212 86.9354 83.3346 86.922C83.7612 86.9087 84.1679 86.8887 84.5546 86.862C84.9546 86.8487 85.2746 86.8354 85.5146 86.822C86.2079 86.782 86.8279 86.7154 87.3746 86.622C87.9346 86.5287 88.3279 86.4487 88.5546 86.382C88.8479 86.2887 89.0546 86.3287 89.1746 86.502C89.2412 86.6087 89.3146 86.7354 89.3946 86.882C89.4746 87.0287 89.5212 87.1487 89.5346 87.242C89.5479 87.3354 89.5012 87.422 89.3946 87.502C89.3012 87.5954 89.2279 87.642 89.1746 87.642C88.7079 87.6154 88.2879 87.5954 87.9146 87.582C87.5546 87.582 87.1679 87.582 86.7546 87.582C86.3546 87.5954 85.8612 87.6154 85.2746 87.642C84.5946 87.6687 83.9412 87.6954 83.3146 87.722C82.6879 87.7487 82.0479 87.762 81.3946 87.762ZM78.6546 73.222C78.4279 73.262 78.2679 73.262 78.1746 73.222C78.0812 73.182 77.9879 73.122 77.8946 73.042C77.7479 72.9087 77.6212 72.782 77.5146 72.662C77.4212 72.5287 77.3546 72.4287 77.3146 72.362C77.2746 72.2954 77.2946 72.2087 77.3746 72.102C77.4546 71.982 77.5346 71.9287 77.6146 71.942C77.8146 71.9687 78.0746 72.002 78.3946 72.042C78.7279 72.082 79.0812 72.1154 79.4546 72.142C79.8279 72.1554 80.1746 72.162 80.4946 72.162C80.8812 72.162 81.3212 72.1554 81.8146 72.142C82.3212 72.1287 82.8346 72.1154 83.3546 72.102C83.8879 72.0754 84.3812 72.0554 84.8346 72.042C85.2879 72.0154 85.6612 71.9887 85.9546 71.962C86.8612 71.9087 87.5612 71.8354 88.0546 71.742C88.5612 71.6487 88.9612 71.5687 89.2546 71.502C89.4012 71.462 89.5079 71.462 89.5746 71.502C89.6412 71.5287 89.7012 71.5887 89.7546 71.682C89.8079 71.7754 89.8546 71.8954 89.8946 72.042C89.9346 72.1754 89.9546 72.2887 89.9546 72.382C89.9546 72.462 89.9079 72.5354 89.8146 72.602C89.7346 72.6687 89.6746 72.702 89.6346 72.702C88.8346 72.6354 87.9479 72.6154 86.9746 72.642C86.0012 72.6554 85.0079 72.682 83.9946 72.722C83.2746 72.7487 82.6212 72.782 82.0346 72.822C81.4612 72.8487 80.9079 72.8887 80.3746 72.942C79.8412 72.9954 79.2679 73.0887 78.6546 73.222ZM82.9146 70.742C82.6879 70.7154 82.4079 70.6687 82.0746 70.602C81.7546 70.522 81.4546 70.4287 81.1746 70.322C80.8946 70.202 80.6946 70.082 80.5746 69.962C80.5079 69.882 80.4946 69.7687 80.5346 69.622C80.5879 69.4754 80.6879 69.4087 80.8346 69.422C81.4746 69.542 82.1412 69.6154 82.8346 69.642C83.5412 69.6687 84.1946 69.6687 84.7946 69.642C85.4079 69.602 85.9012 69.5687 86.2746 69.542C86.3812 69.5287 86.4746 69.5754 86.5546 69.682C86.6346 69.7754 86.6812 69.8487 86.6946 69.902C86.7079 70.0087 86.6546 70.1287 86.5346 70.262C86.4279 70.3954 86.3079 70.4887 86.1746 70.542C86.0146 70.5954 85.7479 70.642 85.3746 70.682C85.0012 70.722 84.5946 70.7487 84.1546 70.762C83.7146 70.7754 83.3012 70.7687 82.9146 70.742ZM99.0538 80.242C98.2538 80.2554 97.5271 80.102 96.8738 79.782C96.2205 79.462 95.7005 79.0087 95.3138 78.422C94.9271 77.822 94.7338 77.142 94.7338 76.382C94.7338 75.6354 94.9271 74.9687 95.3138 74.382C95.7005 73.782 96.2205 73.302 96.8738 72.942C97.5405 72.582 98.2738 72.3954 99.0738 72.382C99.8738 72.3554 100.594 72.4887 101.234 72.782C101.887 73.0754 102.407 73.5087 102.794 74.082C103.18 74.6554 103.374 75.362 103.374 76.202C103.374 76.962 103.18 77.6487 102.794 78.262C102.407 78.862 101.887 79.3354 101.234 79.682C100.58 80.0287 99.8538 80.2154 99.0538 80.242ZM99.0738 79.242C99.6605 79.2154 100.187 79.0754 100.654 78.822C101.12 78.5554 101.487 78.202 101.754 77.762C102.034 77.3087 102.174 76.7954 102.174 76.222C102.174 75.5954 102.034 75.062 101.754 74.622C101.474 74.182 101.1 73.8487 100.634 73.622C100.167 73.382 99.6471 73.2754 99.0738 73.302C98.5005 73.302 97.9738 73.442 97.4938 73.722C97.0138 73.9887 96.6271 74.3554 96.3338 74.822C96.0538 75.2754 95.9138 75.7887 95.9138 76.362C95.9138 76.962 96.0538 77.4887 96.3338 77.942C96.6271 78.382 97.0138 78.7154 97.4938 78.942C97.9738 79.1687 98.5005 79.2687 99.0738 79.242ZM107.234 87.022C107.087 87.022 107.007 86.9554 106.994 86.822C106.98 86.7154 106.96 86.522 106.934 86.242C106.92 85.9487 106.907 85.6354 106.894 85.302C106.88 84.9554 106.874 84.6554 106.874 84.402V72.142C106.874 71.7287 106.854 71.4087 106.814 71.182C106.787 70.9554 106.7 70.7687 106.554 70.622C106.42 70.462 106.18 70.2954 105.834 70.122C105.727 70.0554 105.674 69.9887 105.674 69.922C105.674 69.8554 105.72 69.7687 105.814 69.662C105.907 69.542 106.007 69.482 106.114 69.482C106.274 69.482 106.474 69.522 106.714 69.602C106.954 69.682 107.187 69.7754 107.414 69.882C107.64 69.9754 107.807 70.062 107.914 70.142C108.074 70.262 108.147 70.3954 108.134 70.542C108.094 70.822 108.06 71.082 108.034 71.322C108.02 71.562 108.014 71.842 108.014 72.162V84.362C108.014 84.5754 108 84.8354 107.974 85.142C107.96 85.4354 107.927 85.7287 107.874 86.022C107.82 86.302 107.74 86.5354 107.634 86.722C107.54 86.922 107.407 87.022 107.234 87.022ZM124.168 87.742C123.581 87.7554 123.141 87.6287 122.848 87.362C122.568 87.1087 122.428 86.682 122.428 86.082V85.022C122.428 84.862 122.388 84.7554 122.308 84.702C122.201 84.6354 122.061 84.542 121.888 84.422C121.728 84.2887 121.614 84.1887 121.548 84.122C121.494 84.0687 121.508 83.9754 121.588 83.842C121.668 83.6954 121.748 83.6287 121.828 83.642C122.294 83.7487 122.841 83.8087 123.468 83.822C123.694 83.8354 124.014 83.842 124.428 83.842C124.854 83.8287 125.328 83.8154 125.848 83.802C126.381 83.7754 126.908 83.7554 127.428 83.742C127.948 83.7154 128.421 83.6887 128.848 83.662C129.288 83.622 129.621 83.5887 129.848 83.562C129.861 83.482 129.881 83.322 129.908 83.082C129.934 82.8287 129.961 82.562 129.988 82.282C130.014 81.9887 130.028 81.7487 130.028 81.562C130.028 81.4687 130.008 81.4154 129.968 81.402C129.941 81.3887 129.914 81.382 129.888 81.382L125.088 81.602C124.581 81.6287 124.168 81.6554 123.848 81.682C123.528 81.7087 123.234 81.7487 122.968 81.802C122.821 81.8287 122.701 81.842 122.608 81.842C122.514 81.8287 122.414 81.7887 122.308 81.722C122.201 81.6554 122.074 81.562 121.928 81.442C121.781 81.3087 121.694 81.2087 121.668 81.142C121.654 81.0754 121.688 80.9887 121.768 80.882C121.848 80.762 121.934 80.7154 122.028 80.742C122.174 80.782 122.401 80.8154 122.708 80.842C123.014 80.8687 123.348 80.8887 123.708 80.902C124.081 80.902 124.421 80.8954 124.728 80.882C125.101 80.8687 125.541 80.8554 126.048 80.842C126.568 80.8154 127.088 80.7887 127.608 80.762C128.128 80.7354 128.594 80.702 129.008 80.662C129.434 80.6087 129.748 80.5487 129.948 80.482C129.948 80.482 129.954 80.482 129.968 80.482C130.008 80.4554 130.048 80.442 130.088 80.442C130.141 80.4287 130.201 80.4287 130.268 80.442L131.188 80.722C131.334 80.7754 131.374 80.8754 131.308 81.022C131.281 81.0887 131.234 81.2287 131.168 81.442C131.114 81.642 131.054 81.8754 130.988 82.142C130.921 82.4087 130.854 82.662 130.788 82.902C130.734 83.142 130.694 83.322 130.668 83.442C130.774 83.4954 130.908 83.5754 131.068 83.682C131.241 83.7754 131.328 83.862 131.328 83.942C131.328 84.0487 131.274 84.162 131.168 84.282C131.074 84.402 131.008 84.4554 130.968 84.442C130.808 84.4287 130.508 84.422 130.068 84.422C129.628 84.4087 129.108 84.4087 128.508 84.422C127.921 84.422 127.308 84.4354 126.668 84.462C126.041 84.4754 125.454 84.4954 124.908 84.522C124.361 84.5487 123.914 84.5754 123.568 84.602V85.962C123.568 86.402 123.621 86.6754 123.728 86.782C123.848 86.8887 124.041 86.942 124.308 86.942C124.348 86.942 124.434 86.942 124.568 86.942C124.834 86.942 125.188 86.942 125.628 86.942C126.081 86.942 126.568 86.9354 127.088 86.922C127.621 86.9087 128.141 86.8887 128.648 86.862C129.341 86.822 129.901 86.7687 130.328 86.702C130.754 86.6354 131.121 86.5487 131.428 86.442C131.588 86.3754 131.708 86.3554 131.788 86.382C131.868 86.4087 131.954 86.4687 132.048 86.562C132.128 86.642 132.208 86.742 132.288 86.862C132.368 86.9954 132.414 87.102 132.428 87.182C132.441 87.262 132.394 87.3554 132.288 87.462C132.181 87.5687 132.108 87.622 132.068 87.622C131.374 87.5954 130.781 87.582 130.288 87.582C129.794 87.5954 129.221 87.6154 128.568 87.642C127.888 87.6687 127.148 87.6887 126.348 87.702C125.548 87.7154 124.821 87.7287 124.168 87.742ZM117.748 79.902C117.614 79.9687 117.474 79.982 117.328 79.942C117.181 79.902 117.081 79.8354 117.028 79.742C116.988 79.6487 117.048 79.5487 117.208 79.442C117.701 79.1354 118.214 78.7287 118.748 78.222C119.294 77.7154 119.821 77.1554 120.328 76.542C120.834 75.9287 121.288 75.302 121.688 74.662C122.101 74.022 122.421 73.402 122.648 72.802C122.661 72.7754 122.674 72.7287 122.688 72.662C122.794 72.342 122.861 72.042 122.888 71.762C122.928 71.482 122.808 71.2687 122.528 71.122C122.341 71.0154 122.294 70.8754 122.388 70.702C122.548 70.422 122.788 70.3487 123.108 70.482C123.294 70.5354 123.508 70.6354 123.748 70.782C123.988 70.9287 124.161 71.0554 124.268 71.162C124.374 71.2287 124.461 71.3154 124.528 71.422C124.594 71.5287 124.614 71.6154 124.588 71.682C124.441 71.9087 124.301 72.1687 124.168 72.462C124.034 72.742 123.894 73.022 123.748 73.302C123.574 73.6754 123.368 74.0487 123.128 74.422C123.968 75.142 124.708 75.702 125.348 76.102C125.988 76.502 126.534 76.8154 126.988 77.042C127.174 77.1754 127.321 77.3954 127.428 77.702C127.534 77.9954 127.574 78.282 127.548 78.562C127.521 78.7354 127.401 78.862 127.188 78.942C126.988 79.022 126.874 79.0354 126.848 78.982C126.608 78.662 126.308 78.3154 125.948 77.942C125.588 77.5687 125.208 77.1954 124.808 76.822C124.408 76.4354 124.028 76.0887 123.668 75.782C123.308 75.462 123.001 75.202 122.748 75.002C122.308 75.6554 121.808 76.2954 121.248 76.922C120.701 77.5487 120.128 78.122 119.528 78.642C118.928 79.162 118.334 79.582 117.748 79.902ZM130.308 79.582C130.188 79.582 130.114 79.5154 130.088 79.382C130.061 79.2487 130.034 79.0554 130.008 78.802C129.994 78.5354 129.988 78.262 129.988 77.982C129.988 77.702 129.988 77.4754 129.988 77.302V72.082C129.988 71.682 129.968 71.3687 129.928 71.142C129.901 70.9154 129.814 70.722 129.668 70.562C129.534 70.402 129.308 70.2287 128.988 70.042C128.854 69.9487 128.821 69.8287 128.888 69.682C129.008 69.482 129.168 69.382 129.368 69.382C129.568 69.382 129.834 69.4554 130.168 69.602C130.501 69.7487 130.774 69.8887 130.988 70.022C131.054 70.062 131.114 70.1154 131.168 70.182C131.221 70.2487 131.241 70.322 131.228 70.402C131.188 70.6287 131.161 70.8554 131.148 71.082C131.134 71.3087 131.128 71.562 131.128 71.842V75.142C131.808 75.142 132.374 75.0954 132.828 75.002C133.281 74.8954 133.621 74.8087 133.848 74.742C133.994 74.6887 134.101 74.682 134.168 74.722C134.234 74.762 134.294 74.8287 134.348 74.922C134.401 75.002 134.461 75.1354 134.528 75.322C134.594 75.4954 134.628 75.622 134.628 75.702C134.628 75.782 134.581 75.8554 134.488 75.922C134.408 75.9887 134.348 76.022 134.308 76.022C133.774 75.9687 133.254 75.9354 132.748 75.922C132.241 75.8954 131.701 75.882 131.128 75.882V77.162C131.128 77.4287 131.108 77.7554 131.068 78.142C131.028 78.5154 130.948 78.8487 130.828 79.142C130.708 79.4354 130.534 79.582 130.308 79.582ZM140.846 80.242C140.059 80.2554 139.333 80.102 138.666 79.782C138.013 79.462 137.493 79.0087 137.106 78.422C136.719 77.822 136.526 77.142 136.526 76.382C136.526 75.6354 136.719 74.9687 137.106 74.382C137.493 73.782 138.013 73.302 138.666 72.942C139.333 72.582 140.066 72.3954 140.866 72.382C141.666 72.3554 142.386 72.4887 143.026 72.782C143.679 73.0754 144.199 73.5087 144.586 74.082C144.973 74.6554 145.166 75.362 145.166 76.202C145.166 76.962 144.973 77.6487 144.586 78.262C144.199 78.862 143.679 79.3354 143.026 79.682C142.373 80.0287 141.646 80.2154 140.846 80.242ZM140.866 79.242C141.453 79.2154 141.979 79.0754 142.446 78.822C142.913 78.5554 143.279 78.202 143.546 77.762C143.826 77.3087 143.966 76.7954 143.966 76.222C143.966 75.5954 143.826 75.062 143.546 74.622C143.266 74.182 142.893 73.8487 142.426 73.622C141.959 73.382 141.439 73.2754 140.866 73.302C140.293 73.302 139.766 73.442 139.286 73.722C138.806 73.9887 138.419 74.3554 138.126 74.822C137.846 75.2754 137.706 75.7887 137.706 76.362C137.706 76.962 137.846 77.4887 138.126 77.942C138.419 78.382 138.806 78.7154 139.286 78.942C139.766 79.1687 140.293 79.2687 140.866 79.242ZM148.826 87.022C148.679 87.022 148.599 86.9554 148.586 86.822C148.573 86.7154 148.553 86.522 148.526 86.242C148.513 85.9487 148.499 85.6354 148.486 85.302C148.473 84.9554 148.466 84.6554 148.466 84.402V72.142C148.466 71.7287 148.446 71.4087 148.406 71.182C148.379 70.9554 148.293 70.7687 148.146 70.622C148.013 70.462 147.773 70.2954 147.426 70.122C147.319 70.0554 147.266 69.9887 147.266 69.922C147.266 69.8554 147.313 69.7687 147.406 69.662C147.499 69.542 147.599 69.482 147.706 69.482C147.866 69.482 148.066 69.522 148.306 69.602C148.546 69.682 148.779 69.7754 149.006 69.882C149.233 69.9754 149.399 70.062 149.506 70.142C149.666 70.262 149.739 70.3954 149.726 70.542C149.686 70.822 149.653 71.082 149.626 71.322C149.613 71.562 149.606 71.842 149.606 72.162V77.622C150.313 77.622 150.933 77.5687 151.466 77.462C152.013 77.342 152.393 77.2487 152.606 77.182C152.753 77.1287 152.859 77.122 152.926 77.162C152.993 77.202 153.053 77.262 153.106 77.342C153.173 77.4354 153.239 77.5754 153.306 77.762C153.386 77.9487 153.426 78.0887 153.426 78.182C153.426 78.262 153.379 78.3354 153.286 78.402C153.206 78.4687 153.146 78.502 153.106 78.502C152.613 78.4354 152.099 78.402 151.566 78.402C151.046 78.3887 150.519 78.382 149.986 78.382C149.919 78.382 149.853 78.382 149.786 78.382C149.733 78.382 149.673 78.382 149.606 78.382V84.362C149.606 84.5754 149.593 84.8354 149.566 85.142C149.553 85.4354 149.519 85.7287 149.466 86.022C149.413 86.302 149.333 86.5354 149.226 86.722C149.133 86.922 148.999 87.022 148.826 87.022ZM166.271 88.342C166.138 88.382 166.031 88.3487 165.951 88.242C165.884 88.1354 165.838 87.982 165.811 87.782L165.611 84.342C165.584 83.902 165.511 83.582 165.391 83.382C165.271 83.1687 165.038 82.982 164.691 82.822C164.571 82.7554 164.538 82.6354 164.591 82.462C164.644 82.3287 164.718 82.2487 164.811 82.222C164.904 82.182 165.004 82.1687 165.111 82.182C165.258 82.2087 165.451 82.242 165.691 82.282C165.931 82.322 166.144 82.3687 166.331 82.422C166.678 82.4354 167.098 82.442 167.591 82.442C168.084 82.4287 168.598 82.4154 169.131 82.402H169.171C169.158 82.2554 169.151 82.0887 169.151 81.902C169.151 81.7154 169.144 81.5154 169.131 81.302L169.091 79.142L165.491 79.282C165.091 79.2954 164.684 79.3287 164.271 79.382C163.858 79.422 163.484 79.4687 163.151 79.522C162.831 79.562 162.611 79.5954 162.491 79.622C162.438 79.6354 162.378 79.6487 162.311 79.662C162.244 79.6754 162.178 79.682 162.111 79.682C161.978 79.682 161.831 79.622 161.671 79.502C161.604 79.4487 161.504 79.3687 161.371 79.262C161.251 79.142 161.138 79.0287 161.031 78.922C160.924 78.802 160.858 78.722 160.831 78.682C160.804 78.6154 160.818 78.5287 160.871 78.422C160.938 78.3154 161.018 78.262 161.111 78.262C161.498 78.3287 161.958 78.3887 162.491 78.442C163.038 78.482 163.718 78.502 164.531 78.502C165.024 78.502 165.644 78.4954 166.391 78.482C167.151 78.4554 167.958 78.4287 168.811 78.402C169.678 78.3754 170.518 78.3487 171.331 78.322C172.158 78.282 172.884 78.242 173.511 78.202C173.858 78.1754 174.251 78.1487 174.691 78.122C175.144 78.082 175.571 78.0354 175.971 77.982C176.371 77.9287 176.671 77.882 176.871 77.842C177.098 77.7887 177.251 77.7487 177.331 77.722C177.424 77.6954 177.504 77.682 177.571 77.682C177.664 77.682 177.771 77.762 177.891 77.922C177.958 78.0287 178.024 78.1554 178.091 78.302C178.171 78.4354 178.211 78.5487 178.211 78.642C178.211 78.762 178.158 78.8554 178.051 78.922C177.958 78.9887 177.898 79.022 177.871 79.022C177.644 78.9954 177.378 78.982 177.071 78.982C176.764 78.9687 176.464 78.962 176.171 78.962C175.891 78.9487 175.658 78.942 175.471 78.942C175.151 78.942 174.711 78.9487 174.151 78.962C173.604 78.9754 172.991 78.9954 172.311 79.022C171.631 79.0354 170.944 79.0554 170.251 79.082V80.902C170.251 81.1554 170.244 81.4154 170.231 81.682C170.218 81.9354 170.198 82.1687 170.171 82.382C170.438 82.3687 170.691 82.3554 170.931 82.342C171.184 82.3287 171.418 82.3154 171.631 82.302C172.018 82.2754 172.351 82.242 172.631 82.202C172.911 82.162 173.104 82.1154 173.211 82.062C173.278 82.022 173.371 82.0154 173.491 82.042C173.678 82.082 173.844 82.122 173.991 82.162C174.138 82.1887 174.304 82.2354 174.491 82.302C174.624 82.342 174.658 82.442 174.591 82.602C174.564 82.7087 174.524 82.8887 174.471 83.142C174.431 83.382 174.391 83.6354 174.351 83.902C174.311 84.1687 174.278 84.3754 174.251 84.522L173.971 86.562C174.051 86.6287 174.158 86.722 174.291 86.842C174.438 86.962 174.511 87.062 174.511 87.142C174.511 87.2354 174.464 87.3287 174.371 87.422C174.278 87.5287 174.211 87.582 174.171 87.582C173.704 87.5554 173.138 87.5354 172.471 87.522C171.804 87.522 171.111 87.522 170.391 87.522C169.684 87.522 169.011 87.5287 168.371 87.542C167.731 87.5554 167.211 87.5687 166.811 87.582C166.784 87.7954 166.711 87.962 166.591 88.082C166.484 88.202 166.378 88.2887 166.271 88.342ZM166.811 86.822C166.838 86.822 166.918 86.822 167.051 86.822C167.304 86.822 167.691 86.822 168.211 86.822C168.731 86.822 169.298 86.8154 169.911 86.802C170.538 86.802 171.131 86.7954 171.691 86.782C172.251 86.7687 172.704 86.742 173.051 86.702C173.064 86.5154 173.078 86.2554 173.091 85.922C173.118 85.5754 173.138 85.2154 173.151 84.842C173.164 84.4554 173.178 84.1087 173.191 83.802C173.204 83.4954 173.211 83.2954 173.211 83.202C173.211 83.1087 173.191 83.0554 173.151 83.042C173.111 83.0287 173.071 83.022 173.031 83.022C173.018 83.022 173.011 83.022 173.011 83.022C172.731 83.0354 172.324 83.0487 171.791 83.062C171.271 83.0754 170.691 83.0887 170.051 83.102C169.424 83.1154 168.811 83.1287 168.211 83.142C167.611 83.1554 167.104 83.1687 166.691 83.182L166.811 86.822ZM163.431 76.582C163.258 76.6354 163.098 76.6354 162.951 76.582C162.818 76.5154 162.738 76.4354 162.711 76.342C162.698 76.2487 162.771 76.1754 162.931 76.122C163.851 75.802 164.698 75.3887 165.471 74.882C166.258 74.3754 166.938 73.8487 167.511 73.302C168.098 72.742 168.551 72.242 168.871 71.802C169.111 71.482 169.271 71.1687 169.351 70.862C169.431 70.5554 169.331 70.3087 169.051 70.122C168.878 70.0154 168.851 69.8754 168.971 69.702C169.091 69.5287 169.204 69.4487 169.311 69.462C169.431 69.462 169.551 69.482 169.671 69.522C169.698 69.5354 169.718 69.542 169.731 69.542C169.864 69.5954 170.024 69.6887 170.211 69.822C170.411 69.942 170.584 70.0687 170.731 70.202C170.838 70.2954 170.918 70.3954 170.971 70.502C171.024 70.5954 171.031 70.6754 170.991 70.742C170.844 70.9287 170.691 71.142 170.531 71.382C170.371 71.6087 170.198 71.8554 170.011 72.122C169.971 72.1754 169.931 72.2287 169.891 72.282C169.864 72.322 169.831 72.362 169.791 72.402C170.231 72.602 170.758 72.8087 171.371 73.022C171.998 73.2354 172.624 73.4287 173.251 73.602C173.878 73.762 174.418 73.882 174.871 73.962C175.058 74.042 175.258 74.2287 175.471 74.522C175.684 74.8154 175.804 75.0954 175.831 75.362C175.831 75.5087 175.744 75.6487 175.571 75.782C175.398 75.9154 175.284 75.9554 175.231 75.902C174.884 75.6354 174.438 75.3554 173.891 75.062C173.358 74.7687 172.798 74.482 172.211 74.202C171.624 73.922 171.071 73.6687 170.551 73.442C170.044 73.2154 169.644 73.042 169.351 72.922C168.858 73.4554 168.284 73.9687 167.631 74.462C166.978 74.942 166.291 75.3687 165.571 75.742C164.851 76.102 164.138 76.382 163.431 76.582ZM193.39 87.002C193.284 87.042 193.204 87.042 193.15 87.002C193.11 86.962 193.084 86.9154 193.07 86.862C193.044 86.7554 193.017 86.5554 192.99 86.262C192.964 85.9687 192.944 85.6487 192.93 85.302C192.93 84.9554 192.93 84.6554 192.93 84.402V72.162C192.93 71.7487 192.91 71.4287 192.87 71.202C192.844 70.9754 192.757 70.7887 192.61 70.642C192.464 70.482 192.217 70.3154 191.87 70.142C191.724 70.062 191.697 69.942 191.79 69.782C191.857 69.6487 191.93 69.5687 192.01 69.542C192.104 69.502 192.21 69.4887 192.33 69.502C192.49 69.5154 192.677 69.5687 192.89 69.662C193.117 69.742 193.33 69.8287 193.53 69.922C193.73 70.0154 193.87 70.0954 193.95 70.162C194.017 70.2154 194.077 70.2754 194.13 70.342C194.184 70.4087 194.204 70.482 194.19 70.562C194.15 70.842 194.117 71.102 194.09 71.342C194.077 71.582 194.07 71.862 194.07 72.182V84.362C194.07 84.6287 194.05 84.962 194.01 85.362C193.97 85.7487 193.904 86.1087 193.81 86.442C193.717 86.762 193.577 86.9487 193.39 87.002ZM184.45 86.042C184.53 85.8154 184.61 85.482 184.69 85.042C184.784 84.5887 184.864 84.082 184.93 83.522C185.01 82.962 185.07 82.3954 185.11 81.822C185.164 81.2354 185.19 80.702 185.19 80.222C184.844 80.2487 184.45 80.2887 184.01 80.342C183.584 80.382 183.177 80.4287 182.79 80.482C182.404 80.5354 182.09 80.602 181.85 80.682C181.584 80.762 181.384 80.7954 181.25 80.782C181.117 80.7687 180.964 80.7154 180.79 80.622C180.657 80.542 180.47 80.4154 180.23 80.242C180.004 80.0687 179.877 79.942 179.85 79.862C179.81 79.782 179.817 79.6887 179.87 79.582C179.937 79.462 180.017 79.402 180.11 79.402C180.59 79.4554 181.11 79.4887 181.67 79.502C182.244 79.5154 182.757 79.5154 183.21 79.502C185.65 79.422 187.63 79.2887 189.15 79.102C190.67 78.902 191.65 78.7287 192.09 78.582C192.277 78.5287 192.39 78.5487 192.43 78.642C192.484 78.722 192.477 78.8287 192.41 78.962C192.344 79.082 192.23 79.182 192.07 79.262C191.684 79.382 191.037 79.5154 190.13 79.662C189.224 79.8087 188.017 79.9554 186.51 80.102C186.497 80.5687 186.457 81.0954 186.39 81.682C186.324 82.2554 186.237 82.8287 186.13 83.402C186.024 83.9754 185.904 84.4954 185.77 84.962C185.65 85.4287 185.517 85.782 185.37 86.022C185.264 86.182 185.124 86.2954 184.95 86.362C184.79 86.4154 184.65 86.4154 184.53 86.362C184.424 86.3087 184.397 86.202 184.45 86.042ZM181.43 77.402C181.257 77.4687 181.097 77.482 180.95 77.442C180.804 77.3887 180.71 77.3154 180.67 77.222C180.644 77.1287 180.704 77.0487 180.85 76.982C181.717 76.5954 182.484 76.142 183.15 75.622C183.817 75.102 184.37 74.5754 184.81 74.042C185.264 73.4954 185.597 73.0087 185.81 72.582C185.97 72.262 186.07 71.9554 186.11 71.662C186.164 71.3687 186.05 71.1354 185.77 70.962C185.597 70.8554 185.577 70.7287 185.71 70.582C185.817 70.4087 185.924 70.322 186.03 70.322C186.15 70.322 186.264 70.342 186.37 70.382C186.384 70.3954 186.397 70.402 186.41 70.402C186.517 70.4287 186.657 70.4954 186.83 70.602C187.017 70.6954 187.19 70.802 187.35 70.922C187.457 71.0154 187.544 71.102 187.61 71.182C187.677 71.262 187.697 71.3287 187.67 71.382L187.05 72.622L186.65 73.302C187.304 73.6487 187.924 73.9554 188.51 74.222C189.097 74.4754 189.724 74.682 190.39 74.842C190.59 74.8954 190.797 75.0554 191.01 75.322C191.224 75.5887 191.35 75.8487 191.39 76.102C191.39 76.2487 191.31 76.3954 191.15 76.542C191.004 76.6754 190.89 76.7154 190.81 76.662C190.357 76.3287 189.857 75.9887 189.31 75.642C188.764 75.2954 188.224 74.962 187.69 74.642C187.17 74.322 186.704 74.0487 186.29 73.822C185.997 74.2087 185.664 74.582 185.29 74.942C184.917 75.2887 184.517 75.6287 184.09 75.962C183.237 76.6154 182.35 77.0954 181.43 77.402ZM202.428 76.182C201.828 76.182 201.528 75.7354 201.528 74.842V72.942C201.528 72.542 201.475 72.1754 201.368 71.842C201.275 71.4954 201.021 71.2087 200.608 70.982C200.461 70.902 200.441 70.7887 200.548 70.642C200.721 70.3887 200.948 70.2954 201.228 70.362C201.415 70.4154 201.635 70.502 201.888 70.622C202.141 70.7287 202.355 70.8554 202.528 71.002C202.715 71.162 202.795 71.282 202.768 71.362C202.728 71.562 202.701 71.7887 202.688 72.042C202.675 72.2954 202.668 72.5554 202.668 72.822V74.742C202.668 75.0087 202.701 75.1887 202.768 75.282C202.835 75.362 203.001 75.402 203.268 75.402C204.015 75.402 204.821 75.3887 205.688 75.362C206.568 75.3354 207.375 75.2954 208.108 75.242C208.895 75.202 209.508 75.1487 209.948 75.082C210.388 75.002 210.768 74.9087 211.088 74.802C211.248 74.7354 211.368 74.7154 211.448 74.742C211.528 74.7687 211.615 74.8287 211.708 74.922C211.788 75.002 211.861 75.1154 211.928 75.262C211.995 75.3954 212.041 75.5087 212.068 75.602C212.095 75.6954 212.055 75.7887 211.948 75.882C211.841 75.9754 211.761 76.022 211.708 76.022C211.255 75.9954 210.855 75.982 210.508 75.982C210.175 75.9687 209.815 75.9687 209.428 75.982C209.055 75.982 208.575 75.9954 207.988 76.022C207.455 76.0354 206.848 76.0554 206.168 76.082C205.501 76.1087 204.835 76.1354 204.168 76.162C203.515 76.1754 202.935 76.182 202.428 76.182ZM199.288 80.662C199.061 80.7154 198.901 80.7354 198.808 80.722C198.728 80.6954 198.621 80.6354 198.488 80.542C198.408 80.4887 198.301 80.4087 198.168 80.302C198.035 80.1954 197.908 80.0887 197.788 79.982C197.681 79.862 197.621 79.7754 197.608 79.722C197.595 79.6554 197.628 79.562 197.708 79.442C197.788 79.322 197.861 79.2754 197.928 79.302C198.355 79.3954 198.868 79.4687 199.468 79.522C200.068 79.562 200.721 79.5754 201.428 79.562C202.721 79.5487 204.128 79.5287 205.648 79.502C207.181 79.4754 208.688 79.4287 210.168 79.362C211.035 79.322 211.828 79.262 212.548 79.182C213.281 79.102 213.801 79.0154 214.108 78.922C214.255 78.8687 214.368 78.862 214.448 78.902C214.541 78.942 214.621 79.0087 214.688 79.102C214.768 79.2087 214.841 79.3354 214.908 79.482C214.975 79.6287 215.008 79.7487 215.008 79.842C215.008 79.9354 214.961 80.022 214.868 80.102C214.775 80.1687 214.708 80.202 214.668 80.202C214.175 80.1354 213.628 80.102 213.028 80.102C212.428 80.0887 211.855 80.0887 211.308 80.102C211.161 80.102 211.021 80.102 210.888 80.102C210.755 80.102 210.621 80.102 210.488 80.102C209.888 80.1154 209.228 80.1354 208.508 80.162C207.788 80.1754 207.048 80.1954 206.288 80.222C205.541 80.2354 204.821 80.2554 204.128 80.282C203.448 80.2954 202.835 80.3154 202.288 80.342C201.688 80.3687 201.135 80.4087 200.628 80.462C200.135 80.5154 199.688 80.582 199.288 80.662ZM204.148 87.662C202.841 87.662 202.188 87.0554 202.188 85.842V84.742C202.188 84.3687 202.135 84.0554 202.028 83.802C201.935 83.5354 201.735 83.3354 201.428 83.202C201.348 83.1754 201.295 83.122 201.268 83.042C201.241 82.962 201.241 82.8887 201.268 82.822C201.401 82.5954 201.575 82.4887 201.788 82.502C201.961 82.5287 202.195 82.5954 202.488 82.702C202.781 82.8087 203.028 82.9154 203.228 83.022C203.388 83.1154 203.455 83.2287 203.428 83.362C203.401 83.4554 203.375 83.622 203.348 83.862C203.335 84.102 203.328 84.3354 203.328 84.562V85.742C203.328 86.2087 203.408 86.502 203.568 86.622C203.741 86.7554 203.968 86.8287 204.248 86.842C204.395 86.8554 204.648 86.862 205.008 86.862C205.381 86.862 205.795 86.8554 206.248 86.842C206.701 86.8287 207.135 86.8087 207.548 86.782C207.975 86.7687 208.315 86.7554 208.568 86.742C209.261 86.7154 209.855 86.6554 210.348 86.562C210.855 86.4687 211.221 86.382 211.448 86.302C211.728 86.182 211.935 86.222 212.068 86.422C212.135 86.5287 212.208 86.6554 212.288 86.802C212.368 86.9487 212.415 87.0687 212.428 87.162C212.441 87.2554 212.395 87.342 212.288 87.422C212.195 87.5154 212.121 87.562 212.068 87.562C211.601 87.5354 211.161 87.5154 210.748 87.502C210.348 87.502 209.921 87.502 209.468 87.502C209.028 87.5154 208.515 87.5354 207.928 87.562C207.248 87.5887 206.608 87.6087 206.008 87.622C205.421 87.6487 204.801 87.662 204.148 87.662ZM225.079 79.222C224.932 79.2487 224.825 79.2154 224.759 79.122C224.692 79.0287 224.652 78.8954 224.639 78.722C224.585 78.122 224.532 77.4954 224.479 76.842C224.425 76.1887 224.379 75.5887 224.339 75.042C224.299 74.4954 224.259 74.102 224.219 73.862C224.139 73.3954 224.032 73.062 223.899 72.862C223.779 72.6487 223.545 72.4354 223.199 72.222C223.105 72.142 223.079 72.042 223.119 71.922C223.265 71.6154 223.459 71.4954 223.699 71.562C223.845 71.5887 224.045 71.642 224.299 71.722C224.552 71.7887 224.772 71.8554 224.959 71.922C225.225 71.922 225.572 71.922 225.999 71.922C226.439 71.922 226.892 71.9154 227.359 71.902C227.839 71.8754 228.272 71.8487 228.659 71.822C229.499 71.7687 230.072 71.6687 230.379 71.522C230.485 71.482 230.592 71.4754 230.699 71.502C231.005 71.5954 231.345 71.7087 231.719 71.842C231.772 71.8554 231.819 71.8887 231.859 71.942C231.899 71.982 231.905 72.0487 231.879 72.142C231.825 72.2887 231.759 72.5487 231.679 72.922C231.612 73.2954 231.545 73.742 231.479 74.262C231.412 74.662 231.345 75.1687 231.279 75.782C231.225 76.382 231.165 76.942 231.099 77.462C231.165 77.5154 231.279 77.6154 231.439 77.762C231.599 77.8954 231.679 78.002 231.679 78.082C231.679 78.1887 231.632 78.282 231.539 78.362C231.445 78.442 231.379 78.4754 231.339 78.462C231.192 78.4487 230.932 78.442 230.559 78.442C230.199 78.4287 229.779 78.4287 229.299 78.442C228.832 78.442 228.352 78.4487 227.859 78.462C227.379 78.4754 226.932 78.4887 226.519 78.502C226.119 78.5154 225.805 78.5287 225.579 78.542C225.552 78.7554 225.485 78.9154 225.379 79.022C225.285 79.1287 225.185 79.1954 225.079 79.222ZM225.559 77.742C225.745 77.7554 226.045 77.762 226.459 77.762C226.872 77.7487 227.325 77.7354 227.819 77.722C228.312 77.6954 228.779 77.6687 229.219 77.642C229.659 77.6154 229.985 77.582 230.199 77.542C230.252 76.382 230.292 75.4354 230.319 74.702C230.359 73.9687 230.385 73.3154 230.399 72.742C230.399 72.6487 230.385 72.5954 230.359 72.582C230.332 72.5554 230.305 72.542 230.279 72.542C229.919 72.542 229.439 72.5554 228.839 72.582C228.239 72.5954 227.619 72.6154 226.979 72.642C226.352 72.6554 225.799 72.6754 225.319 72.702L225.559 77.742ZM235.679 80.402C235.559 80.402 235.485 80.3354 235.459 80.202C235.432 80.0687 235.405 79.8687 235.379 79.602C235.365 79.3354 235.359 79.062 235.359 78.782C235.359 78.4887 235.359 78.2554 235.359 78.082V72.082C235.359 71.682 235.339 71.3687 235.299 71.142C235.272 70.9154 235.185 70.722 235.039 70.562C234.905 70.402 234.679 70.2287 234.359 70.042C234.225 69.9487 234.192 69.8287 234.259 69.682C234.379 69.482 234.539 69.382 234.739 69.382C234.939 69.382 235.205 69.4554 235.539 69.602C235.872 69.7487 236.145 69.8887 236.359 70.022C236.425 70.062 236.485 70.1154 236.539 70.182C236.592 70.2487 236.612 70.322 236.599 70.402C236.559 70.6287 236.532 70.8554 236.519 71.082C236.505 71.3087 236.499 71.562 236.499 71.842V75.342C237.179 75.342 237.745 75.2954 238.199 75.202C238.652 75.0954 238.992 75.0087 239.219 74.942C239.365 74.8887 239.472 74.882 239.539 74.922C239.605 74.962 239.665 75.0287 239.719 75.122C239.772 75.202 239.832 75.3354 239.899 75.522C239.965 75.6954 239.999 75.822 239.999 75.902C239.999 75.982 239.952 76.0554 239.859 76.122C239.779 76.1887 239.719 76.222 239.679 76.222C239.145 76.1687 238.619 76.1354 238.099 76.122C237.592 76.0954 237.059 76.082 236.499 76.082V77.942C236.499 78.142 236.485 78.382 236.459 78.662C236.445 78.9287 236.405 79.1954 236.339 79.462C236.285 79.7287 236.205 79.9554 236.099 80.142C235.992 80.3154 235.852 80.402 235.679 80.402ZM235.639 88.302C235.532 88.3287 235.459 88.3087 235.419 88.242C235.379 88.1887 235.352 88.1354 235.339 88.082C235.285 87.842 235.252 87.5754 235.239 87.282C235.239 87.002 235.239 86.7287 235.239 86.462V82.742C235.239 82.5554 235.192 82.462 235.099 82.462C235.019 82.462 234.832 82.4687 234.539 82.482C234.259 82.4954 233.925 82.5154 233.539 82.542C233.165 82.5554 232.779 82.5754 232.379 82.602C231.992 82.6287 231.659 82.6554 231.379 82.682C230.499 82.7487 229.759 82.8087 229.159 82.862C228.559 82.9154 228.059 82.9754 227.659 83.042C227.419 83.0954 227.205 83.062 227.019 82.942C226.912 82.8754 226.772 82.7687 226.599 82.622C226.439 82.462 226.345 82.3487 226.319 82.282C226.292 82.202 226.319 82.102 226.399 81.982C226.479 81.862 226.565 81.8154 226.659 81.842C226.965 81.922 227.485 81.9754 228.219 82.002C228.952 82.0287 229.845 82.0154 230.899 81.962C231.539 81.9354 232.145 81.902 232.719 81.862C233.292 81.8087 233.785 81.7487 234.199 81.682C234.625 81.6154 234.912 81.5487 235.059 81.482C235.152 81.442 235.252 81.4287 235.359 81.442C235.545 81.482 235.732 81.5154 235.919 81.542C236.119 81.5687 236.292 81.5954 236.439 81.622C236.572 81.6354 236.619 81.7354 236.579 81.922C236.565 82.002 236.545 82.142 236.519 82.342C236.505 82.5287 236.492 82.722 236.479 82.922C236.465 83.122 236.459 83.2887 236.459 83.422L236.419 86.162C236.419 86.4154 236.392 86.6954 236.339 87.002C236.285 87.322 236.205 87.602 236.099 87.842C235.992 88.0954 235.839 88.2487 235.639 88.302ZM248.237 87.742C247.65 87.7554 247.21 87.6287 246.917 87.362C246.637 87.1087 246.497 86.682 246.497 86.082V85.022C246.497 84.862 246.457 84.7554 246.377 84.702C246.27 84.6354 246.13 84.542 245.957 84.422C245.797 84.2887 245.684 84.1887 245.617 84.122C245.564 84.0687 245.577 83.9754 245.657 83.842C245.737 83.6954 245.817 83.6287 245.897 83.642C246.364 83.7487 246.91 83.8087 247.537 83.822C247.764 83.8354 248.084 83.842 248.497 83.842C248.924 83.8287 249.397 83.8154 249.917 83.802C250.45 83.7754 250.977 83.7554 251.497 83.742C252.017 83.7154 252.49 83.6887 252.917 83.662C253.357 83.622 253.69 83.5887 253.917 83.562C253.93 83.482 253.95 83.322 253.977 83.082C254.004 82.8287 254.03 82.562 254.057 82.282C254.084 81.9887 254.097 81.7487 254.097 81.562C254.097 81.4687 254.077 81.4154 254.037 81.402C254.01 81.3887 253.984 81.382 253.957 81.382L249.157 81.602C248.65 81.6287 248.237 81.6554 247.917 81.682C247.597 81.7087 247.304 81.7487 247.037 81.802C246.89 81.8287 246.77 81.842 246.677 81.842C246.584 81.8287 246.484 81.7887 246.377 81.722C246.27 81.6554 246.144 81.562 245.997 81.442C245.85 81.3087 245.764 81.2087 245.737 81.142C245.724 81.0754 245.757 80.9887 245.837 80.882C245.917 80.762 246.004 80.7154 246.097 80.742C246.244 80.782 246.47 80.8154 246.777 80.842C247.084 80.8687 247.417 80.8887 247.777 80.902C248.15 80.902 248.49 80.8954 248.797 80.882C249.17 80.8687 249.61 80.8554 250.117 80.842C250.637 80.8154 251.157 80.7887 251.677 80.762C252.197 80.7354 252.664 80.702 253.077 80.662C253.504 80.6087 253.817 80.5487 254.017 80.482C254.017 80.482 254.024 80.482 254.037 80.482C254.077 80.4554 254.117 80.442 254.157 80.442C254.21 80.4287 254.27 80.4287 254.337 80.442L255.257 80.722C255.404 80.7754 255.444 80.8754 255.377 81.022C255.35 81.0887 255.304 81.2287 255.237 81.442C255.184 81.642 255.124 81.8754 255.057 82.142C254.99 82.4087 254.924 82.662 254.857 82.902C254.804 83.142 254.764 83.322 254.737 83.442C254.844 83.4954 254.977 83.5754 255.137 83.682C255.31 83.7754 255.397 83.862 255.397 83.942C255.397 84.0487 255.344 84.162 255.237 84.282C255.144 84.402 255.077 84.4554 255.037 84.442C254.877 84.4287 254.577 84.422 254.137 84.422C253.697 84.4087 253.177 84.4087 252.577 84.422C251.99 84.422 251.377 84.4354 250.737 84.462C250.11 84.4754 249.524 84.4954 248.977 84.522C248.43 84.5487 247.984 84.5754 247.637 84.602V85.962C247.637 86.402 247.69 86.6754 247.797 86.782C247.917 86.8887 248.11 86.942 248.377 86.942C248.417 86.942 248.504 86.942 248.637 86.942C248.904 86.942 249.257 86.942 249.697 86.942C250.15 86.942 250.637 86.9354 251.157 86.922C251.69 86.9087 252.21 86.8887 252.717 86.862C253.41 86.822 253.97 86.7687 254.397 86.702C254.824 86.6354 255.19 86.5487 255.497 86.442C255.657 86.3754 255.777 86.3554 255.857 86.382C255.937 86.4087 256.024 86.4687 256.117 86.562C256.197 86.642 256.277 86.742 256.357 86.862C256.437 86.9954 256.484 87.102 256.497 87.182C256.51 87.262 256.464 87.3554 256.357 87.462C256.25 87.5687 256.177 87.622 256.137 87.622C255.444 87.5954 254.85 87.582 254.357 87.582C253.864 87.5954 253.29 87.6154 252.637 87.642C251.957 87.6687 251.217 87.6887 250.417 87.702C249.617 87.7154 248.89 87.7287 248.237 87.742ZM242.177 80.902C242.017 80.982 241.844 81.002 241.657 80.962C241.47 80.922 241.35 80.8487 241.297 80.742C241.244 80.622 241.31 80.5087 241.497 80.402C241.95 80.162 242.457 79.842 243.017 79.442C243.577 79.042 244.15 78.582 244.737 78.062C245.324 77.5287 245.877 76.962 246.397 76.362C246.917 75.762 247.37 75.1487 247.757 74.522C248.144 73.882 248.424 73.2554 248.597 72.642C248.637 72.522 248.63 72.4554 248.577 72.442C248.524 72.4154 248.484 72.402 248.457 72.402C248.444 72.402 248.437 72.402 248.437 72.402C248.13 72.402 247.737 72.422 247.257 72.462C246.79 72.4887 246.404 72.5154 246.097 72.542C245.524 72.5954 245.064 72.642 244.717 72.682C244.384 72.722 244.017 72.7754 243.617 72.842C243.204 72.9087 242.897 72.862 242.697 72.702C242.39 72.4487 242.19 72.2354 242.097 72.062C242.07 71.9954 242.084 71.9087 242.137 71.802C242.204 71.682 242.284 71.6354 242.377 71.662C242.764 71.7287 243.237 71.782 243.797 71.822C244.37 71.8487 244.97 71.842 245.597 71.802C246.117 71.7754 246.664 71.7287 247.237 71.662C247.824 71.5954 248.29 71.4887 248.637 71.342C248.744 71.302 248.85 71.302 248.957 71.342L250.077 71.762C250.13 71.7887 250.17 71.8287 250.197 71.882C250.237 71.922 250.237 71.9887 250.197 72.082L249.537 73.482C249.11 74.3754 248.584 75.2154 247.957 76.002C247.33 76.7887 246.67 77.502 245.977 78.142C245.284 78.782 244.604 79.3354 243.937 79.802C243.27 80.2687 242.684 80.6354 242.177 80.902ZM254.497 79.582C254.377 79.582 254.304 79.5154 254.277 79.382C254.25 79.2487 254.224 79.0554 254.197 78.802C254.184 78.5354 254.177 78.262 254.177 77.982C254.177 77.702 254.177 77.4754 254.177 77.302V75.762L253.557 75.782C252.837 75.8087 252.29 75.8554 251.917 75.922C251.557 75.9887 251.204 76.062 250.857 76.142C250.71 76.1687 250.59 76.182 250.497 76.182C250.417 76.1687 250.324 76.1287 250.217 76.062C250.124 75.9954 249.984 75.8887 249.797 75.742C249.61 75.582 249.504 75.4687 249.477 75.402C249.45 75.3354 249.47 75.2554 249.537 75.162C249.617 75.0554 249.704 75.0154 249.797 75.042C250.024 75.082 250.43 75.1154 251.017 75.142C251.604 75.1554 252.337 75.1354 253.217 75.082L254.177 75.022V72.082C254.177 71.682 254.157 71.3687 254.117 71.142C254.09 70.9154 254.004 70.722 253.857 70.562C253.724 70.402 253.497 70.2287 253.177 70.042C253.044 69.9487 253.01 69.8287 253.077 69.682C253.197 69.482 253.357 69.382 253.557 69.382C253.757 69.382 254.024 69.4554 254.357 69.602C254.69 69.7487 254.964 69.8887 255.177 70.022C255.244 70.062 255.304 70.1154 255.357 70.182C255.41 70.2487 255.43 70.322 255.417 70.402C255.377 70.6287 255.35 70.8554 255.337 71.082C255.324 71.3087 255.317 71.562 255.317 71.842V77.162C255.317 77.4287 255.297 77.7554 255.257 78.142C255.217 78.5154 255.137 78.8487 255.017 79.142C254.897 79.4354 254.724 79.582 254.497 79.582ZM261.459 82.542C261.166 82.5554 260.933 82.422 260.759 82.142C260.586 81.8487 260.499 81.5087 260.499 81.122V77.722C260.499 77.5887 260.479 77.4954 260.439 77.442C260.413 77.3754 260.346 77.3087 260.239 77.242C260.106 77.1754 259.946 77.0887 259.759 76.982C259.573 76.8754 259.459 76.7887 259.419 76.722C259.379 76.6554 259.393 76.5487 259.459 76.402C259.526 76.2554 259.599 76.1887 259.679 76.202C259.906 76.2287 260.146 76.2554 260.399 76.282C260.666 76.3087 260.933 76.3287 261.199 76.342C261.466 76.3554 261.799 76.362 262.199 76.362C262.613 76.3487 263.046 76.3287 263.499 76.302C263.953 76.2754 264.379 76.242 264.779 76.202C265.179 76.162 265.499 76.122 265.739 76.082C265.753 75.9887 265.779 75.802 265.819 75.522C265.859 75.2287 265.899 74.902 265.939 74.542C265.979 74.182 266.019 73.842 266.059 73.522C266.099 73.202 266.126 72.9687 266.139 72.822C266.153 72.7154 266.139 72.6554 266.099 72.642C266.073 72.6154 266.046 72.602 266.019 72.602C266.006 72.602 265.979 72.602 265.939 72.602C265.779 72.602 265.479 72.6087 265.039 72.622C264.613 72.622 264.046 72.6554 263.339 72.722C262.993 72.7487 262.706 72.7754 262.479 72.802C262.266 72.8154 262.059 72.8354 261.859 72.862C261.659 72.8754 261.426 72.9087 261.159 72.962C260.906 73.0154 260.733 73.0287 260.639 73.002C260.559 72.9754 260.459 72.9087 260.339 72.802C260.206 72.6954 260.099 72.5954 260.019 72.502C259.939 72.3954 259.873 72.2954 259.819 72.202C259.779 72.1354 259.793 72.0554 259.859 71.962C259.926 71.8554 260.006 71.8087 260.099 71.822C260.326 71.8487 260.573 71.8754 260.839 71.902C261.119 71.9154 261.393 71.9287 261.659 71.942C261.953 71.9554 262.313 71.962 262.739 71.962C263.166 71.9487 263.593 71.9287 264.019 71.902C264.459 71.8754 264.839 71.8487 265.159 71.822C265.386 71.7954 265.593 71.7554 265.779 71.702C265.979 71.6354 266.113 71.582 266.179 71.542C266.286 71.4754 266.406 71.4754 266.539 71.542L267.459 71.922C267.593 71.9754 267.633 72.082 267.579 72.242C267.553 72.3087 267.493 72.462 267.399 72.702C267.319 72.942 267.246 73.2154 267.179 73.522L266.639 75.922C266.746 75.9887 266.879 76.0954 267.039 76.242C267.199 76.3754 267.279 76.4754 267.279 76.542C267.279 76.6487 267.226 76.7487 267.119 76.842C267.026 76.9354 266.959 76.982 266.919 76.982C266.773 76.9687 266.486 76.9687 266.059 76.982C265.633 76.982 265.146 76.9954 264.599 77.022C264.053 77.0487 263.513 77.0754 262.979 77.102C262.446 77.1287 261.999 77.1554 261.639 77.182V80.902C261.639 81.0754 261.673 81.2087 261.739 81.302C261.819 81.3954 261.993 81.4354 262.259 81.422C262.993 81.4087 263.759 81.342 264.559 81.222C265.359 81.102 266.126 80.962 266.859 80.802C267.606 80.6287 268.259 80.4554 268.819 80.282C269.379 80.0954 269.786 79.9354 270.039 79.802C270.306 79.6954 270.453 79.7287 270.479 79.902C270.519 80.0754 270.433 80.242 270.219 80.402C270.033 80.522 269.699 80.6754 269.219 80.862C268.739 81.0354 268.166 81.222 267.499 81.422C266.846 81.622 266.153 81.8087 265.419 81.982C264.699 82.142 263.993 82.2754 263.299 82.382C262.606 82.4887 261.993 82.542 261.459 82.542ZM271.599 87.022C271.453 87.022 271.373 86.9554 271.359 86.822C271.346 86.7154 271.326 86.522 271.299 86.242C271.286 85.9487 271.273 85.6354 271.259 85.302C271.246 84.9554 271.239 84.6554 271.239 84.402V72.142C271.239 71.7287 271.219 71.4087 271.179 71.182C271.153 70.9554 271.066 70.7687 270.919 70.622C270.786 70.462 270.546 70.2954 270.199 70.122C270.093 70.0554 270.039 69.9887 270.039 69.922C270.039 69.8554 270.086 69.7687 270.179 69.662C270.273 69.542 270.373 69.482 270.479 69.482C270.639 69.482 270.839 69.522 271.079 69.602C271.319 69.682 271.553 69.7754 271.779 69.882C272.006 69.9754 272.173 70.062 272.279 70.142C272.439 70.262 272.513 70.3954 272.499 70.542C272.459 70.822 272.426 71.082 272.399 71.322C272.386 71.562 272.379 71.842 272.379 72.162V84.362C272.379 84.5754 272.366 84.8354 272.339 85.142C272.326 85.4354 272.293 85.7287 272.239 86.022C272.186 86.302 272.106 86.5354 271.999 86.722C271.906 86.922 271.773 87.022 271.599 87.022ZM277.412 69.482C277.705 69.482 277.972 69.5954 278.212 69.822C278.465 70.0354 278.592 70.3687 278.592 70.822C278.592 71.3287 278.492 71.8087 278.292 72.262C278.092 72.702 277.838 73.0754 277.532 73.382C277.238 73.6887 276.945 73.902 276.652 74.022C276.558 74.062 276.465 74.082 276.372 74.082C276.265 74.082 276.178 74.0287 276.112 73.922L275.892 73.562C276.318 73.3754 276.672 73.102 276.952 72.742C277.232 72.382 277.425 71.9887 277.532 71.562C277.212 71.5487 276.945 71.4487 276.732 71.262C276.518 71.0754 276.412 70.8354 276.412 70.542C276.412 70.1954 276.512 69.9354 276.712 69.762C276.925 69.5754 277.158 69.482 277.412 69.482ZM280.512 69.482C280.805 69.482 281.072 69.5954 281.312 69.822C281.565 70.0354 281.692 70.3687 281.692 70.822C281.692 71.3287 281.592 71.8087 281.392 72.262C281.192 72.702 280.938 73.0754 280.632 73.382C280.338 73.6887 280.045 73.902 279.752 74.022C279.658 74.062 279.565 74.082 279.472 74.082C279.365 74.082 279.278 74.0287 279.212 73.922L278.992 73.562C279.418 73.3754 279.772 73.102 280.052 72.742C280.332 72.382 280.525 71.9887 280.632 71.562C280.312 71.5487 280.045 71.4487 279.832 71.262C279.618 71.0754 279.512 70.8354 279.512 70.542C279.512 70.1954 279.612 69.9354 279.812 69.762C280.025 69.5754 280.258 69.482 280.512 69.482Z" fill="#969674"/>
<path d="M20.0863 49.4C18.2996 49.4 16.7263 49.0933 15.3663 48.48C14.0063 47.8667 12.9396 47.0267 12.1662 45.96C11.3929 44.8667 11.0063 43.6267 11.0063 42.24C11.0063 40.8533 11.4196 39.6133 12.2463 38.52C13.0996 37.4267 14.2196 36.5733 15.6063 35.96C17.0196 35.32 18.5663 35 20.2463 35C21.9796 35 23.5396 35.2533 24.9263 35.76C26.3129 36.2667 27.4063 37.0267 28.2063 38.04C29.0063 39.0267 29.4063 40.2933 29.4063 41.84C29.4063 43.3067 28.9929 44.6133 28.1663 45.76C27.3663 46.9067 26.2596 47.8 24.8463 48.44C23.4596 49.08 21.8729 49.4 20.0863 49.4ZM5.76625 32.28C5.17958 32.4133 4.75292 32.4533 4.48625 32.4C4.24625 32.3467 3.97958 32.2133 3.68625 32C3.52625 31.8667 3.28625 31.6667 2.96625 31.4C2.67292 31.1333 2.37958 30.8667 2.08625 30.6C1.81958 30.3333 1.65958 30.1333 1.60625 30C1.55292 29.7867 1.67292 29.48 1.96625 29.08C2.25958 28.68 2.56625 28.4933 2.88625 28.52C3.73958 28.7067 4.75292 28.8533 5.92625 28.96C7.12625 29.04 8.39292 29.0933 9.72625 29.12C10.6063 29.12 11.5663 29.12 12.6063 29.12C13.6463 29.12 14.6996 29.1067 15.7663 29.08L15.7263 25.8C15.7263 24.9467 15.6596 24.3067 15.5263 23.88C15.4196 23.4267 15.1529 23.04 14.7263 22.72C14.5129 22.56 14.3529 22.4 14.2463 22.24C14.1663 22.08 14.1796 21.88 14.2863 21.64C14.4996 21.1867 14.7663 20.8933 15.0863 20.76C15.4329 20.6267 15.7796 20.6 16.1263 20.68C16.4996 20.76 16.9529 20.9333 17.4863 21.2C18.0463 21.44 18.4596 21.6667 18.7263 21.88C19.2863 22.28 19.5796 22.5867 19.6063 22.8C19.4996 23.2267 19.4196 23.6933 19.3663 24.2C19.3396 24.7067 19.3129 25.2133 19.2863 25.72L19.1663 29C20.6329 28.9467 22.0329 28.8933 23.3663 28.84C24.6996 28.7867 25.8463 28.7333 26.8063 28.68C28.4596 28.5733 29.9929 28.44 31.4063 28.28C32.8463 28.12 33.9796 27.9333 34.8063 27.72C35.3396 27.5867 35.6996 27.5467 35.8863 27.6C36.0996 27.6267 36.2996 27.7867 36.4863 28.08C36.6729 28.3467 36.8729 28.72 37.0863 29.2C37.2996 29.6533 37.4063 29.9733 37.4063 30.16C37.3796 30.4533 37.1796 30.7467 36.8063 31.04C36.4596 31.3067 36.2063 31.44 36.0463 31.44C35.2996 31.36 34.5663 31.3067 33.8463 31.28C33.1529 31.2267 32.3263 31.1867 31.3663 31.16C30.4329 31.1333 29.2196 31.12 27.7263 31.12C26.2063 31.12 24.4863 31.1467 22.5663 31.2C20.6463 31.2267 18.7263 31.28 16.8063 31.36C14.8863 31.44 13.1529 31.52 11.6063 31.6C10.4596 31.6533 9.40625 31.7467 8.44625 31.88C7.48625 31.9867 6.59292 32.12 5.76625 32.28ZM25.6863 26.4C25.4196 26.4 25.2196 26.24 25.0863 25.92C24.9796 25.5733 24.9796 25.1733 25.0863 24.72C25.1929 24.2667 25.3263 23.56 25.4863 22.6C25.6729 21.64 25.8463 20.6133 26.0063 19.52C26.1929 18.4267 26.3263 17.4667 26.4063 16.64C26.4329 16.4267 26.4063 16.2933 26.3263 16.24C26.2463 16.1867 26.0596 16.16 25.7663 16.16C24.6463 16.1867 23.6196 16.2133 22.6863 16.24C21.7796 16.2667 20.8729 16.3067 19.9663 16.36C19.0596 16.3867 18.0329 16.44 16.8863 16.52C16.1929 16.5467 15.3796 16.6267 14.4463 16.76C13.5129 16.8667 12.6996 16.9867 12.0063 17.12C11.4996 17.2267 11.1396 17.2667 10.9263 17.24C10.7396 17.1867 10.5263 17.08 10.2863 16.92C9.96625 16.68 9.57958 16.3467 9.12625 15.92C8.69958 15.4933 8.45958 15.2133 8.40625 15.08C8.35292 14.84 8.45958 14.5333 8.72625 14.16C9.01958 13.76 9.35292 13.5733 9.72625 13.6C10.2596 13.7333 11.0329 13.84 12.0463 13.92C13.0863 13.9733 14.0596 14 14.9663 14C15.8463 14 16.5796 14 17.1663 14C17.7796 13.9733 18.3396 13.96 18.8463 13.96C19.3529 13.9333 19.9129 13.9067 20.5263 13.88C21.1663 13.8267 21.9663 13.7733 22.9263 13.72C23.8329 13.6667 24.6063 13.5867 25.2463 13.48C25.8863 13.3467 26.4063 13.2133 26.8063 13.08C27.0463 13 27.2463 12.9733 27.4063 13C27.5663 13 27.7529 13.04 27.9663 13.12L30.7263 14.04C30.9129 14.0933 31.0596 14.2133 31.1663 14.4C31.2729 14.56 31.2596 14.8133 31.1263 15.16C30.9929 15.56 30.8329 16.0667 30.6463 16.68C30.4596 17.2667 30.3263 17.7067 30.2463 18C29.9796 18.9867 29.6729 20.0533 29.3263 21.2C28.9796 22.32 28.6329 23.3333 28.2863 24.24C27.7263 25.7333 26.8596 26.4533 25.6863 26.4ZM20.1663 46.64C21.6596 46.64 22.8996 46.2267 23.8863 45.4C24.8996 44.5733 25.4062 43.4533 25.4062 42.04C25.4062 40.5733 24.9129 39.4533 23.9262 38.68C22.9663 37.9067 21.7796 37.52 20.3663 37.52C18.8196 37.52 17.5263 37.9467 16.4863 38.8C15.4463 39.6267 14.9263 40.76 14.9263 42.2C14.9263 43.5333 15.4329 44.6133 16.4463 45.44C17.4596 46.24 18.6996 46.64 20.1663 46.64ZM46.5647 27.68C46.2714 27.76 45.8847 27.7467 45.4047 27.64C44.9247 27.5333 44.6314 27.2667 44.5247 26.84C44.498 26.6267 44.5247 26.4267 44.6047 26.24C44.7114 26.0267 44.8847 25.8667 45.1247 25.76C46.8047 25.0667 48.4047 24.28 49.9247 23.4C51.4714 22.4933 52.818 21.5333 53.9647 20.52C55.1114 19.48 55.9247 18.44 56.4047 17.4C56.5114 17.1333 56.5247 16.8267 56.4447 16.48C56.3114 16.5067 56.178 16.52 56.0447 16.52C55.938 16.52 55.818 16.52 55.6847 16.52C54.6447 16.5733 53.6314 16.64 52.6447 16.72C51.6847 16.8 50.698 16.9467 49.6847 17.16C49.178 17.2667 48.8447 17.3067 48.6847 17.28C48.5247 17.2533 48.298 17.12 48.0047 16.88C47.818 16.7467 47.5247 16.4933 47.1247 16.12C46.7514 15.72 46.498 15.4133 46.3647 15.2C46.3114 14.96 46.4314 14.6667 46.7247 14.32C47.0447 13.9467 47.3114 13.76 47.5247 13.76C48.3514 13.9467 49.3247 14.0667 50.4447 14.12C51.5914 14.1733 52.858 14.1867 54.2447 14.16C55.578 14.1333 56.7514 14.1067 57.7647 14.08C58.8047 14.0267 60.018 13.9467 61.4047 13.84C62.898 13.7333 64.1914 13.5867 65.2847 13.4C66.378 13.1867 67.098 13.04 67.4447 12.96C67.898 12.8267 68.2314 12.92 68.4447 13.24C68.658 13.5867 68.8314 14 68.9647 14.48C69.1247 14.96 69.218 15.2667 69.2447 15.4C69.2447 15.5867 69.098 15.8267 68.8047 16.12C68.5114 16.3867 68.2714 16.52 68.0847 16.52C67.658 16.4667 66.8047 16.4133 65.5247 16.36C64.2447 16.3067 62.858 16.2933 61.3647 16.32C61.0447 16.32 60.738 16.32 60.4447 16.32C60.178 16.32 59.9114 16.3333 59.6447 16.36C60.3647 16.84 60.698 17.32 60.6447 17.8C60.378 18.3867 60.0314 18.9733 59.6047 19.56C60.7514 20.0133 61.7247 20.3733 62.5247 20.64C63.3247 20.88 64.098 21.0667 64.8447 21.2C65.618 21.3067 66.498 21.3867 67.4847 21.44C67.938 21.5733 68.378 21.84 68.8047 22.24C69.258 22.64 69.6314 23.08 69.9247 23.56C70.2447 24.04 70.418 24.4533 70.4447 24.8C70.418 25.1733 70.2047 25.5467 69.8047 25.92C69.4314 26.2667 69.098 26.44 68.8047 26.44C67.178 25.5067 65.4047 24.6 63.4847 23.72C61.5647 22.8133 59.7514 22 58.0447 21.28C56.898 22.3733 55.6047 23.36 54.1647 24.24C52.7514 25.0933 51.3647 25.8133 50.0047 26.4C48.6447 26.9867 47.498 27.4133 46.5647 27.68ZM57.8847 47.6C57.3514 47.6 57.018 47.28 56.8847 46.64C56.7514 45.9467 56.6714 45.2 56.6447 44.4C56.618 43.5733 56.6047 42.92 56.6047 42.44V32.84C55.458 32.8667 54.3247 32.92 53.2047 33C52.0847 33.0533 50.978 33.1067 49.8847 33.16C48.738 33.2133 47.6847 33.3067 46.7247 33.44C45.7647 33.5467 44.8714 33.68 44.0447 33.84C43.458 33.9733 43.0314 34.0133 42.7647 33.96C42.5247 33.9067 42.258 33.7733 41.9647 33.56C41.8047 33.4267 41.578 33.2267 41.2847 32.96C40.9914 32.6933 40.7114 32.4267 40.4447 32.16C40.2047 31.8667 40.058 31.6533 40.0047 31.52C39.9514 31.3067 40.0714 31 40.3647 30.6C40.658 30.2 40.9647 30.0133 41.2847 30.04C42.138 30.2267 43.1514 30.3733 44.3247 30.48C45.5247 30.56 46.7914 30.6133 48.1247 30.64C49.4047 30.64 50.818 30.64 52.3647 30.64C53.9114 30.6133 55.4714 30.5733 57.0447 30.52C58.6447 30.4667 60.1514 30.4133 61.5647 30.36C63.0047 30.3067 64.2314 30.2533 65.2447 30.2C66.898 30.0933 68.3914 29.96 69.7247 29.8C71.0847 29.64 72.178 29.4533 73.0047 29.24C73.538 29.1067 73.898 29.0667 74.0847 29.12C74.298 29.1467 74.498 29.3067 74.6847 29.6C74.8714 29.8667 75.0714 30.24 75.2847 30.72C75.498 31.1733 75.6047 31.4933 75.6047 31.68C75.578 31.9733 75.378 32.2667 75.0047 32.56C74.658 32.8267 74.4047 32.96 74.2447 32.96C73.498 32.88 72.7647 32.8267 72.0447 32.8C71.3514 32.7467 70.5247 32.7067 69.5647 32.68C68.6314 32.6533 67.418 32.64 65.9247 32.64C65.0447 32.64 64.138 32.6533 63.2047 32.68C62.298 32.68 61.3647 32.6933 60.4047 32.72V42.24C60.4047 42.9067 60.338 43.6667 60.2047 44.52C60.0714 45.3467 59.818 46.0667 59.4447 46.68C59.098 47.2933 58.578 47.6 57.8847 47.6ZM100.315 29.76C98.6886 29.7867 97.1953 29.5067 95.8353 28.92C94.4753 28.3067 93.3953 27.4267 92.5953 26.28C91.7953 25.1333 91.3953 23.7867 91.3953 22.24C91.3953 20.8 91.7953 19.4933 92.5953 18.32C93.422 17.1467 94.502 16.2133 95.8353 15.52C97.1953 14.8 98.6753 14.4267 100.275 14.4C101.902 14.3467 103.382 14.6133 104.715 15.2C106.075 15.76 107.155 16.6133 107.955 17.76C108.782 18.88 109.195 20.2667 109.195 21.92C109.195 23.3867 108.782 24.7067 107.955 25.88C107.155 27.0533 106.075 27.9867 104.715 28.68C103.382 29.3467 101.915 29.7067 100.315 29.76ZM102.115 48.6C101.502 48.5733 100.915 48.28 100.355 47.72C99.822 47.1867 99.5553 46.3733 99.5553 45.28V42.6C99.5286 42.44 99.382 42.2667 99.1153 42.08C98.7953 41.8667 98.5286 41.68 98.3153 41.52C98.1286 41.3333 98.022 41.1733 97.9953 41.04C98.022 40.8267 98.142 40.5467 98.3553 40.2C98.5686 39.8267 98.8086 39.6267 99.0753 39.6C99.6886 39.68 100.395 39.7467 101.195 39.8C101.995 39.8267 102.649 39.8533 103.155 39.88C103.689 39.9067 104.395 39.92 105.275 39.92C106.182 39.8933 107.169 39.8667 108.235 39.84C109.302 39.8133 110.382 39.7733 111.475 39.72C112.569 39.64 113.569 39.56 114.475 39.48C114.529 39 114.569 38.48 114.595 37.92C114.622 37.36 114.635 36.8267 114.635 36.32C114.635 36.1067 114.595 35.9867 114.515 35.96C114.435 35.9067 114.315 35.88 114.155 35.88C113.862 35.88 113.355 35.9067 112.635 35.96C111.915 35.9867 111.102 36.0267 110.195 36.08C109.315 36.1067 108.449 36.1467 107.595 36.2C106.769 36.2533 106.089 36.2933 105.555 36.32C105.289 36.32 104.915 36.3467 104.435 36.4C103.982 36.4267 103.502 36.4667 102.995 36.52C102.515 36.5733 102.102 36.64 101.755 36.72C101.222 36.8267 100.835 36.8667 100.595 36.84C100.355 36.8133 100.115 36.7067 99.8753 36.52C99.6086 36.3067 99.2753 36.0133 98.8753 35.64C98.502 35.2667 98.2886 35.0267 98.2353 34.92C98.182 34.68 98.2753 34.4 98.5153 34.08C98.7553 33.76 99.022 33.5733 99.3153 33.52C100.355 33.7333 101.542 33.8533 102.875 33.88C104.235 33.88 105.675 33.8667 107.195 33.84C108.102 33.8133 109.049 33.7733 110.035 33.72C111.049 33.6667 111.982 33.5867 112.835 33.48C113.689 33.3733 114.315 33.2533 114.715 33.12C114.902 33.04 115.035 33 115.115 33C115.195 33 115.289 33.0133 115.395 33.04C115.475 33.0667 115.542 33.08 115.595 33.08L118.475 33.68C118.902 33.76 119.035 34.0667 118.875 34.6C118.822 34.8133 118.715 35.1867 118.555 35.72C118.395 36.2533 118.235 36.84 118.075 37.48C117.942 38.0933 117.822 38.64 117.715 39.12C118.009 39.28 118.302 39.4933 118.595 39.76C118.915 40 119.075 40.1867 119.075 40.32C119.075 40.64 118.955 40.9867 118.715 41.36C118.502 41.7333 118.235 41.9733 117.915 42.08C117.062 42.0533 116.009 42.04 114.755 42.04C113.502 42.04 112.182 42.0533 110.795 42.08C109.409 42.1067 108.062 42.1467 106.755 42.2C105.475 42.2533 104.355 42.3067 103.395 42.36V44.64C103.395 45.0667 103.435 45.4133 103.515 45.68C103.622 45.92 103.835 46.0533 104.155 46.08C105.169 46.1333 106.369 46.1467 107.755 46.12C109.169 46.0933 110.489 46.0667 111.715 46.04C113.609 45.9867 115.169 45.8533 116.395 45.64C117.622 45.4267 118.449 45.24 118.875 45.08C119.169 44.9467 119.409 44.9333 119.595 45.04C119.782 45.12 119.929 45.24 120.035 45.4C120.249 45.6667 120.462 46.0133 120.675 46.44C120.889 46.8667 120.995 47.1467 120.995 47.28C120.995 47.4933 120.835 47.76 120.515 48.08C120.222 48.4 119.982 48.56 119.795 48.56C119.422 48.5333 118.835 48.5067 118.035 48.48C117.262 48.48 116.382 48.4667 115.395 48.44C114.409 48.44 113.409 48.4533 112.395 48.48C112.209 48.48 111.889 48.48 111.435 48.48C111.009 48.5067 110.502 48.52 109.915 48.52C109.062 48.5467 108.129 48.56 107.115 48.56C106.102 48.5867 105.142 48.6 104.235 48.6C103.329 48.6267 102.622 48.6267 102.115 48.6ZM116.355 32C115.849 32 115.542 31.7333 115.435 31.2C115.329 30.5067 115.249 29.76 115.195 28.96C115.169 28.1333 115.155 27.48 115.155 27V17C115.155 16.2533 115.129 15.6933 115.075 15.32C115.022 14.92 114.875 14.6 114.635 14.36C114.422 14.12 114.062 13.8267 113.555 13.48C113.289 13.32 113.089 13.1333 112.955 12.92C112.849 12.7067 112.862 12.4667 112.995 12.2C113.209 11.7467 113.489 11.4533 113.835 11.32C114.182 11.1867 114.569 11.16 114.995 11.24C115.609 11.3467 116.235 11.56 116.875 11.88C117.515 12.1733 118.049 12.4667 118.475 12.76C118.955 13.08 119.195 13.4133 119.195 13.76C119.142 14.1067 119.075 14.5867 118.995 15.2C118.915 15.8133 118.875 16.4267 118.875 17.04V23.08C119.915 22.9733 120.849 22.8133 121.675 22.6C122.529 22.36 123.129 22.1867 123.475 22.08C123.769 21.9733 124.009 21.96 124.195 22.04C124.382 22.0933 124.529 22.2 124.635 22.36C124.849 22.6267 125.062 23 125.275 23.48C125.489 23.96 125.595 24.2933 125.595 24.48C125.595 24.7467 125.422 25.0133 125.075 25.28C124.755 25.5467 124.502 25.68 124.315 25.68C123.489 25.5467 122.595 25.4667 121.635 25.44C120.702 25.3867 119.782 25.36 118.875 25.36V26.76C118.875 27.4267 118.795 28.1733 118.635 29C118.502 29.8267 118.249 30.5333 117.875 31.12C117.502 31.7067 116.995 32 116.355 32ZM100.275 27.12C101.689 27.0667 102.875 26.5733 103.835 25.64C104.822 24.7067 105.315 23.4667 105.315 21.92C105.315 20.1867 104.822 18.92 103.835 18.12C102.875 17.2933 101.702 16.92 100.315 17C98.8486 17.08 97.622 17.5733 96.6353 18.48C95.6753 19.3867 95.1953 20.6267 95.1953 22.2C95.1953 23.8 95.6886 25.04 96.6753 25.92C97.662 26.7733 98.862 27.1733 100.275 27.12ZM138.272 49.6C137.606 49.6 137.232 49.1333 137.152 48.2L136.592 40.36C136.539 39.5333 136.432 38.9467 136.272 38.6C136.139 38.2267 135.806 37.9067 135.272 37.64C134.739 37.3467 134.552 36.96 134.712 36.48C135.006 35.6533 135.579 35.28 136.432 35.36C136.886 35.4133 137.352 35.5067 137.832 35.64C138.339 35.7467 138.832 35.8667 139.312 36C140.006 36 140.806 36 141.712 36C142.619 35.9733 143.512 35.9467 144.392 35.92C145.299 35.8933 146.086 35.8667 146.752 35.84C147.419 35.7867 147.832 35.76 147.992 35.76C148.766 35.7067 149.459 35.64 150.072 35.56C150.686 35.4533 151.246 35.3067 151.752 35.12C151.752 35.12 151.766 35.12 151.792 35.12C152.006 35.04 152.152 35 152.232 35C152.339 34.9733 152.512 34.9867 152.752 35.04L155.592 35.68C155.939 35.76 156.059 36.0533 155.952 36.56C155.899 36.8 155.832 37.1333 155.752 37.56C155.699 37.9867 155.632 38.4267 155.552 38.88C155.499 39.3067 155.459 39.6533 155.432 39.92C155.326 40.8267 155.206 41.76 155.072 42.72C154.966 43.68 154.859 44.5867 154.752 45.44C155.019 45.6267 155.286 45.8533 155.552 46.12C155.846 46.3867 155.992 46.56 155.992 46.64C155.992 46.9867 155.872 47.3333 155.632 47.68C155.419 48.0267 155.152 48.2267 154.832 48.28C154.299 48.2533 153.566 48.2267 152.632 48.2C151.699 48.2 150.659 48.2 149.512 48.2C148.366 48.2 147.206 48.2133 146.032 48.24C144.859 48.2667 143.766 48.2933 142.752 48.32C141.739 48.3467 140.899 48.3733 140.232 48.4C140.019 48.7467 139.739 49.0267 139.392 49.24C139.046 49.48 138.672 49.6 138.272 49.6ZM131.352 32.2C131.006 32.2 130.726 32.08 130.512 31.84C130.326 31.6 130.219 31.1467 130.192 30.48L129.952 21.04C129.926 20.24 129.886 19.64 129.832 19.24C129.806 18.8133 129.726 18.4667 129.592 18.2C129.459 17.9333 129.206 17.6533 128.832 17.36C128.646 17.2 128.512 17.0267 128.432 16.84C128.352 16.6267 128.406 16.3867 128.592 16.12C128.886 15.6667 129.206 15.4 129.552 15.32C129.899 15.2133 130.246 15.2267 130.592 15.36C131.072 15.52 131.579 15.7467 132.112 16.04C132.646 16.3067 133.059 16.5867 133.352 16.88C133.512 17.04 133.646 17.2 133.752 17.36C133.859 17.52 133.912 17.6667 133.912 17.8C133.859 18.0933 133.806 18.4933 133.752 19C133.726 19.48 133.712 19.96 133.712 20.44C134.406 20.44 135.259 20.44 136.272 20.44C137.312 20.4133 138.352 20.3867 139.392 20.36C140.459 20.3067 141.379 20.2533 142.152 20.2V19.12C142.152 18.0267 142.099 17.28 141.992 16.88C141.886 16.4533 141.606 16.0533 141.152 15.68C140.912 15.4667 140.739 15.28 140.632 15.12C140.552 14.9333 140.592 14.7067 140.752 14.44C140.992 14.0133 141.286 13.7467 141.632 13.64C142.006 13.5333 142.366 13.5333 142.712 13.64C143.166 13.7467 143.606 13.9067 144.032 14.12C144.459 14.3333 144.886 14.5867 145.312 14.88C145.899 15.28 146.192 15.64 146.192 15.96C146.086 16.3867 146.006 17 145.952 17.8C145.926 18.5733 145.912 19.2133 145.912 19.72V28.6C145.912 29.5867 145.659 30.36 145.152 30.92C144.646 31.48 144.072 31.76 143.432 31.76C142.792 31.76 142.406 31.3733 142.272 30.6C141.526 30.5733 140.619 30.5733 139.552 30.6C138.512 30.6 137.459 30.6133 136.392 30.64C135.326 30.64 134.379 30.6667 133.552 30.72C133.339 31.2267 133.019 31.6 132.592 31.84C132.166 32.08 131.752 32.2 131.352 32.2ZM153.152 33.4C152.699 33.4 152.392 33.12 152.232 32.56C152.099 31.9467 152.019 31.28 151.992 30.56C151.966 29.8133 151.952 29.2 151.952 28.72C151.952 28.6133 151.952 28.5333 151.952 28.48V17C151.952 16.2533 151.926 15.6933 151.872 15.32C151.819 14.92 151.672 14.6 151.432 14.36C151.219 14.12 150.859 13.8267 150.352 13.48C150.086 13.32 149.886 13.1333 149.752 12.92C149.646 12.7067 149.659 12.4667 149.792 12.2C150.006 11.7467 150.286 11.4533 150.632 11.32C150.979 11.1867 151.366 11.16 151.792 11.24C152.406 11.3467 153.032 11.56 153.672 11.88C154.312 12.1733 154.846 12.4667 155.272 12.76C155.752 13.08 155.992 13.4133 155.992 13.76C155.939 14.1067 155.872 14.5867 155.792 15.2C155.712 15.8133 155.672 16.4267 155.672 17.04V23.08C156.712 22.9733 157.646 22.8133 158.472 22.6C159.326 22.36 159.926 22.1867 160.272 22.08C160.566 21.9733 160.806 21.96 160.992 22.04C161.179 22.0933 161.326 22.2 161.432 22.36C161.646 22.6267 161.859 23 162.072 23.48C162.286 23.96 162.392 24.2933 162.392 24.48C162.392 24.7467 162.219 25.0133 161.872 25.28C161.552 25.5467 161.299 25.68 161.112 25.68C160.286 25.5467 159.392 25.4667 158.432 25.44C157.499 25.3867 156.579 25.36 155.672 25.36V28.28C155.672 28.9467 155.592 29.68 155.432 30.48C155.299 31.2533 155.046 31.9333 154.672 32.52C154.299 33.08 153.792 33.3733 153.152 33.4ZM140.592 45.8C141.579 45.8 142.726 45.8 144.032 45.8C145.339 45.7733 146.659 45.7333 147.992 45.68C149.352 45.6267 150.552 45.5733 151.592 45.52C151.619 44.8 151.632 44 151.632 43.12C151.659 42.24 151.672 41.4 151.672 40.6C151.699 39.7733 151.699 39.1467 151.672 38.72C151.672 38.48 151.619 38.3333 151.512 38.28C151.432 38.2 151.312 38.16 151.152 38.16C150.912 38.16 150.392 38.1733 149.592 38.2C148.792 38.2 147.846 38.2133 146.752 38.24C145.659 38.2667 144.552 38.2933 143.432 38.32C142.312 38.3467 141.312 38.3867 140.432 38.44L140.592 45.8ZM133.752 28.32C134.472 28.32 135.339 28.32 136.352 28.32C137.366 28.2933 138.392 28.2667 139.432 28.24C140.472 28.1867 141.392 28.1333 142.192 28.08L142.152 22.72C141.459 22.72 140.606 22.7333 139.592 22.76C138.579 22.7867 137.539 22.8133 136.472 22.84C135.432 22.84 134.512 22.8533 133.712 22.88L133.752 28.32ZM180.132 34.84C179.865 34.8667 179.625 34.88 179.412 34.88C179.199 34.88 178.945 34.7867 178.652 34.6C178.465 34.4667 178.172 34.2667 177.772 34C177.372 33.7067 177.012 33.4133 176.692 33.12C176.372 32.8267 176.199 32.6267 176.172 32.52C176.172 32.2267 176.305 31.92 176.572 31.6C176.839 31.28 177.065 31.1067 177.252 31.08C178.185 31.1867 179.185 31.2533 180.252 31.28C181.319 31.28 182.185 31.28 182.852 31.28C183.465 31.2533 184.132 31.2267 184.852 31.2C185.572 31.1467 186.319 31.08 187.092 31L186.932 27.08C185.625 26.8933 184.439 26.5067 183.372 25.92C182.332 25.3333 181.505 24.5733 180.892 23.64C180.279 22.7067 179.972 21.64 179.972 20.44C179.972 19.1333 180.359 17.96 181.132 16.92C181.932 15.88 182.999 15.0533 184.332 14.44C185.665 13.8 187.119 13.4533 188.692 13.4C190.319 13.3467 191.785 13.5733 193.092 14.08C194.399 14.5867 195.439 15.3467 196.212 16.36C196.985 17.3733 197.372 18.6133 197.372 20.08C197.372 21.2267 197.065 22.2667 196.452 23.2C195.865 24.1067 195.065 24.88 194.052 25.52C193.065 26.16 191.945 26.6133 190.692 26.88L190.532 30.64C192.239 30.4267 193.879 30.1867 195.452 29.92C197.052 29.6267 198.399 29.32 199.492 29C199.919 28.8667 200.239 28.8933 200.452 29.08C200.665 29.2667 200.772 29.4667 200.772 29.68C200.772 30.5067 200.265 31.0533 199.252 31.32C198.585 31.5067 197.719 31.72 196.652 31.96C195.585 32.2 194.439 32.4267 193.212 32.64C191.985 32.8533 190.772 33.0533 189.572 33.24C188.399 33.4267 187.345 33.5867 186.412 33.72C185.692 33.8 184.932 33.92 184.132 34.08C183.332 34.2133 182.572 34.3467 181.852 34.48C181.159 34.6133 180.585 34.7333 180.132 34.84ZM196.372 49.6C194.612 49.6 193.065 49.3067 191.732 48.72C190.425 48.1333 189.399 47.32 188.652 46.28C187.932 45.2667 187.572 44.0933 187.572 42.76C187.572 41.4267 187.972 40.24 188.772 39.2C189.572 38.1333 190.652 37.3067 192.012 36.72C193.372 36.1067 194.879 35.8 196.532 35.8C198.185 35.8 199.679 36.0667 201.012 36.6C202.345 37.1067 203.399 37.8667 204.172 38.88C204.972 39.8933 205.372 41.1467 205.372 42.64C205.372 44 204.972 45.2 204.172 46.24C203.372 47.28 202.292 48.0933 200.932 48.68C199.572 49.2933 198.052 49.6 196.372 49.6ZM203.132 35.8C202.625 35.8 202.319 35.52 202.212 34.96C202.105 34.2667 202.025 33.5467 201.972 32.8C201.945 32.0533 201.932 31.4667 201.932 31.04V17C201.932 16.2533 201.905 15.6933 201.852 15.32C201.799 14.92 201.652 14.6 201.412 14.36C201.199 14.12 200.839 13.8267 200.332 13.48C200.065 13.32 199.865 13.1333 199.732 12.92C199.625 12.7067 199.639 12.4667 199.772 12.2C199.985 11.7467 200.265 11.4533 200.612 11.32C200.959 11.1867 201.345 11.16 201.772 11.24C202.385 11.3467 203.012 11.56 203.652 11.88C204.292 12.1733 204.825 12.4667 205.252 12.76C205.732 13.08 205.972 13.4133 205.972 13.76C205.919 14.1067 205.852 14.5867 205.772 15.2C205.692 15.8133 205.652 16.4267 205.652 17.04V23.48C206.692 23.3733 207.625 23.2133 208.452 23C209.305 22.76 209.905 22.5867 210.252 22.48C210.545 22.3733 210.785 22.36 210.972 22.44C211.159 22.4933 211.305 22.6 211.412 22.76C211.625 23.0267 211.839 23.4 212.052 23.88C212.265 24.36 212.372 24.6933 212.372 24.88C212.372 25.1467 212.199 25.4133 211.852 25.68C211.532 25.9467 211.279 26.08 211.092 26.08C210.265 25.9467 209.372 25.8667 208.412 25.84C207.479 25.7867 206.559 25.76 205.652 25.76V30.84C205.652 31.5067 205.572 32.2267 205.412 33C205.279 33.7467 205.025 34.4 204.652 34.96C204.279 35.4933 203.772 35.7733 203.132 35.8ZM196.412 46.8C197.825 46.8 198.999 46.44 199.932 45.72C200.892 44.9733 201.385 43.9067 201.412 42.52C201.465 41.1867 200.999 40.1467 200.012 39.4C199.025 38.6533 197.839 38.28 196.452 38.28C195.012 38.28 193.825 38.7067 192.892 39.56C191.959 40.3867 191.492 41.4267 191.492 42.68C191.492 43.96 191.945 44.9733 192.852 45.72C193.785 46.44 194.972 46.8 196.412 46.8ZM188.652 24.52C190.012 24.44 191.159 24.0267 192.092 23.28C193.025 22.5067 193.492 21.4133 193.492 20C193.492 18.5333 193.025 17.4667 192.092 16.8C191.185 16.1333 190.052 15.8267 188.692 15.88C187.279 15.9333 186.105 16.3467 185.172 17.12C184.265 17.8933 183.812 18.96 183.812 20.32C183.812 21.7333 184.265 22.8133 185.172 23.56C186.105 24.28 187.265 24.6 188.652 24.52ZM225.069 49.6C224.402 49.6 224.029 49.1333 223.949 48.2L223.389 40.36C223.336 39.5333 223.229 38.9467 223.069 38.6C222.936 38.2267 222.602 37.9067 222.069 37.64C221.536 37.3467 221.349 36.96 221.509 36.48C221.802 35.6533 222.376 35.28 223.229 35.36C223.682 35.4133 224.149 35.5067 224.629 35.64C225.136 35.7467 225.629 35.8667 226.109 36C226.802 36 227.602 36 228.509 36C229.416 35.9733 230.309 35.9467 231.189 35.92C232.096 35.8933 232.882 35.8667 233.549 35.84C234.216 35.7867 234.629 35.76 234.789 35.76C235.562 35.7067 236.256 35.64 236.869 35.56C237.482 35.4533 238.042 35.3067 238.549 35.12C238.549 35.12 238.562 35.12 238.589 35.12C238.802 35.04 238.949 35 239.029 35C239.136 34.9733 239.309 34.9867 239.549 35.04L242.389 35.68C242.736 35.76 242.856 36.0533 242.749 36.56C242.696 36.8 242.629 37.1333 242.549 37.56C242.496 37.9867 242.429 38.4267 242.349 38.88C242.296 39.3067 242.256 39.6533 242.229 39.92C242.122 40.8267 242.002 41.76 241.869 42.72C241.762 43.68 241.656 44.5867 241.549 45.44C241.816 45.6267 242.082 45.8533 242.349 46.12C242.642 46.3867 242.789 46.56 242.789 46.64C242.789 46.9867 242.669 47.3333 242.429 47.68C242.216 48.0267 241.949 48.2267 241.629 48.28C241.096 48.2533 240.362 48.2267 239.429 48.2C238.496 48.2 237.456 48.2 236.309 48.2C235.162 48.2 234.002 48.2133 232.829 48.24C231.656 48.2667 230.562 48.2933 229.549 48.32C228.536 48.3467 227.696 48.3733 227.029 48.4C226.816 48.7467 226.536 49.0267 226.189 49.24C225.842 49.48 225.469 49.6 225.069 49.6ZM218.149 32.2C217.802 32.2 217.522 32.08 217.309 31.84C217.122 31.6 217.016 31.1467 216.989 30.48L216.749 21.04C216.722 20.24 216.682 19.64 216.629 19.24C216.602 18.8133 216.522 18.4667 216.389 18.2C216.256 17.9333 216.002 17.6533 215.629 17.36C215.442 17.2 215.309 17.0267 215.229 16.84C215.149 16.6267 215.202 16.3867 215.389 16.12C215.682 15.6667 216.002 15.4 216.349 15.32C216.696 15.2133 217.042 15.2267 217.389 15.36C217.869 15.52 218.376 15.7467 218.909 16.04C219.442 16.3067 219.856 16.5867 220.149 16.88C220.309 17.04 220.442 17.2 220.549 17.36C220.656 17.52 220.709 17.6667 220.709 17.8C220.656 18.0933 220.602 18.4933 220.549 19C220.522 19.48 220.509 19.96 220.509 20.44C221.202 20.44 222.056 20.44 223.069 20.44C224.109 20.4133 225.149 20.3867 226.189 20.36C227.256 20.3067 228.176 20.2533 228.949 20.2V19.12C228.949 18.0267 228.896 17.28 228.789 16.88C228.682 16.4533 228.402 16.0533 227.949 15.68C227.709 15.4667 227.536 15.28 227.429 15.12C227.349 14.9333 227.389 14.7067 227.549 14.44C227.789 14.0133 228.082 13.7467 228.429 13.64C228.802 13.5333 229.162 13.5333 229.509 13.64C229.962 13.7467 230.402 13.9067 230.829 14.12C231.256 14.3333 231.682 14.5867 232.109 14.88C232.696 15.28 232.989 15.64 232.989 15.96C232.882 16.3867 232.802 17 232.749 17.8C232.722 18.5733 232.709 19.2133 232.709 19.72V28.6C232.709 29.5867 232.456 30.36 231.949 30.92C231.442 31.48 230.869 31.76 230.229 31.76C229.589 31.76 229.202 31.3733 229.069 30.6C228.322 30.5733 227.416 30.5733 226.349 30.6C225.309 30.6 224.256 30.6133 223.189 30.64C222.122 30.64 221.176 30.6667 220.349 30.72C220.136 31.2267 219.816 31.6 219.389 31.84C218.962 32.08 218.549 32.2 218.149 32.2ZM239.949 33.4C239.496 33.4 239.189 33.12 239.029 32.56C238.896 31.9467 238.816 31.28 238.789 30.56C238.762 29.8133 238.749 29.2 238.749 28.72C238.749 28.6133 238.749 28.5333 238.749 28.48V17C238.749 16.2533 238.722 15.6933 238.669 15.32C238.616 14.92 238.469 14.6 238.229 14.36C238.016 14.12 237.656 13.8267 237.149 13.48C236.882 13.32 236.682 13.1333 236.549 12.92C236.442 12.7067 236.456 12.4667 236.589 12.2C236.802 11.7467 237.082 11.4533 237.429 11.32C237.776 11.1867 238.162 11.16 238.589 11.24C239.202 11.3467 239.829 11.56 240.469 11.88C241.109 12.1733 241.642 12.4667 242.069 12.76C242.549 13.08 242.789 13.4133 242.789 13.76C242.736 14.1067 242.669 14.5867 242.589 15.2C242.509 15.8133 242.469 16.4267 242.469 17.04V23.08C243.509 22.9733 244.442 22.8133 245.269 22.6C246.122 22.36 246.722 22.1867 247.069 22.08C247.362 21.9733 247.602 21.96 247.789 22.04C247.976 22.0933 248.122 22.2 248.229 22.36C248.442 22.6267 248.656 23 248.869 23.48C249.082 23.96 249.189 24.2933 249.189 24.48C249.189 24.7467 249.016 25.0133 248.669 25.28C248.349 25.5467 248.096 25.68 247.909 25.68C247.082 25.5467 246.189 25.4667 245.229 25.44C244.296 25.3867 243.376 25.36 242.469 25.36V28.28C242.469 28.9467 242.389 29.68 242.229 30.48C242.096 31.2533 241.842 31.9333 241.469 32.52C241.096 33.08 240.589 33.3733 239.949 33.4ZM227.389 45.8C228.376 45.8 229.522 45.8 230.829 45.8C232.136 45.7733 233.456 45.7333 234.789 45.68C236.149 45.6267 237.349 45.5733 238.389 45.52C238.416 44.8 238.429 44 238.429 43.12C238.456 42.24 238.469 41.4 238.469 40.6C238.496 39.7733 238.496 39.1467 238.469 38.72C238.469 38.48 238.416 38.3333 238.309 38.28C238.229 38.2 238.109 38.16 237.949 38.16C237.709 38.16 237.189 38.1733 236.389 38.2C235.589 38.2 234.642 38.2133 233.549 38.24C232.456 38.2667 231.349 38.2933 230.229 38.32C229.109 38.3467 228.109 38.3867 227.229 38.44L227.389 45.8ZM220.549 28.32C221.269 28.32 222.136 28.32 223.149 28.32C224.162 28.2933 225.189 28.2667 226.229 28.24C227.269 28.1867 228.189 28.1333 228.989 28.08L228.949 22.72C228.256 22.72 227.402 22.7333 226.389 22.76C225.376 22.7867 224.336 22.8133 223.269 22.84C222.229 22.84 221.309 22.8533 220.509 22.88L220.549 28.32ZM257.346 27.68C257.053 27.76 256.666 27.7467 256.186 27.64C255.706 27.5333 255.413 27.2667 255.306 26.84C255.279 26.6267 255.306 26.4267 255.386 26.24C255.493 26.0267 255.666 25.8667 255.906 25.76C257.586 25.0667 259.186 24.28 260.706 23.4C262.253 22.4933 263.599 21.5333 264.746 20.52C265.893 19.48 266.706 18.44 267.186 17.4C267.293 17.1333 267.306 16.8267 267.226 16.48C267.093 16.5067 266.959 16.52 266.826 16.52C266.719 16.52 266.599 16.52 266.466 16.52C265.426 16.5733 264.413 16.64 263.426 16.72C262.466 16.8 261.479 16.9467 260.466 17.16C259.959 17.2667 259.626 17.3067 259.466 17.28C259.306 17.2533 259.079 17.12 258.786 16.88C258.599 16.7467 258.306 16.4933 257.906 16.12C257.533 15.72 257.279 15.4133 257.146 15.2C257.093 14.96 257.213 14.6667 257.506 14.32C257.826 13.9467 258.093 13.76 258.306 13.76C259.133 13.9467 260.106 14.0667 261.226 14.12C262.373 14.1733 263.639 14.1867 265.026 14.16C266.359 14.1333 267.533 14.1067 268.546 14.08C269.586 14.0267 270.799 13.9467 272.186 13.84C273.679 13.7333 274.973 13.5867 276.066 13.4C277.159 13.1867 277.879 13.04 278.226 12.96C278.679 12.8267 279.013 12.92 279.226 13.24C279.439 13.5867 279.613 14 279.746 14.48C279.906 14.96 279.999 15.2667 280.026 15.4C280.026 15.5867 279.879 15.8267 279.586 16.12C279.293 16.3867 279.053 16.52 278.866 16.52C278.439 16.4667 277.586 16.4133 276.306 16.36C275.026 16.3067 273.639 16.2933 272.146 16.32C271.826 16.32 271.519 16.32 271.226 16.32C270.959 16.32 270.693 16.3333 270.426 16.36C271.146 16.84 271.479 17.32 271.426 17.8C271.159 18.3867 270.813 18.9733 270.386 19.56C271.533 20.0133 272.506 20.3733 273.306 20.64C274.106 20.88 274.879 21.0667 275.626 21.2C276.399 21.3067 277.279 21.3867 278.266 21.44C278.719 21.5733 279.159 21.84 279.586 22.24C280.039 22.64 280.413 23.08 280.706 23.56C281.026 24.04 281.199 24.4533 281.226 24.8C281.199 25.1733 280.986 25.5467 280.586 25.92C280.213 26.2667 279.879 26.44 279.586 26.44C277.959 25.5067 276.186 24.6 274.266 23.72C272.346 22.8133 270.533 22 268.826 21.28C267.679 22.3733 266.386 23.36 264.946 24.24C263.533 25.0933 262.146 25.8133 260.786 26.4C259.426 26.9867 258.279 27.4133 257.346 27.68ZM268.666 47.6C268.133 47.6 267.799 47.28 267.666 46.64C267.533 45.9467 267.453 45.2 267.426 44.4C267.399 43.5733 267.386 42.92 267.386 42.44V32.84C266.239 32.8667 265.106 32.92 263.986 33C262.866 33.0533 261.759 33.1067 260.666 33.16C259.519 33.2133 258.466 33.3067 257.506 33.44C256.546 33.5467 255.653 33.68 254.826 33.84C254.239 33.9733 253.813 34.0133 253.546 33.96C253.306 33.9067 253.039 33.7733 252.746 33.56C252.586 33.4267 252.359 33.2267 252.066 32.96C251.773 32.6933 251.493 32.4267 251.226 32.16C250.986 31.8667 250.839 31.6533 250.786 31.52C250.733 31.3067 250.853 31 251.146 30.6C251.439 30.2 251.746 30.0133 252.066 30.04C252.919 30.2267 253.933 30.3733 255.106 30.48C256.306 30.56 257.573 30.6133 258.906 30.64C260.186 30.64 261.599 30.64 263.146 30.64C264.693 30.6133 266.253 30.5733 267.826 30.52C269.426 30.4667 270.933 30.4133 272.346 30.36C273.786 30.3067 275.013 30.2533 276.026 30.2C277.679 30.0933 279.173 29.96 280.506 29.8C281.866 29.64 282.959 29.4533 283.786 29.24C284.319 29.1067 284.679 29.0667 284.866 29.12C285.079 29.1467 285.279 29.3067 285.466 29.6C285.653 29.8667 285.853 30.24 286.066 30.72C286.279 31.1733 286.386 31.4933 286.386 31.68C286.359 31.9733 286.159 32.2667 285.786 32.56C285.439 32.8267 285.186 32.96 285.026 32.96C284.279 32.88 283.546 32.8267 282.826 32.8C282.133 32.7467 281.306 32.7067 280.346 32.68C279.413 32.6533 278.199 32.64 276.706 32.64C275.826 32.64 274.919 32.6533 273.986 32.68C273.079 32.68 272.146 32.6933 271.186 32.72V42.24C271.186 42.9067 271.119 43.6667 270.986 44.52C270.853 45.3467 270.599 46.0667 270.226 46.68C269.879 47.2933 269.359 47.6 268.666 47.6Z" fill="#00411D"/>
</svg>
