<svg width="321" height="102" viewBox="0 0 321 102" fill="none" xmlns="http://www.w3.org/2000/svg">
<path d="M15.2233 27.4C14.8767 27.4 14.61 27.2533 14.4233 26.96C14.2367 26.64 14.1167 26.2667 14.0633 25.84L13.5033 18.2C13.45 17.4 13.33 16.8267 13.1433 16.48C12.9833 16.1333 12.6367 15.8267 12.1033 15.56C11.8367 15.4267 11.65 15.2667 11.5433 15.08C11.4367 14.8933 11.4367 14.6533 11.5433 14.36C11.6767 13.96 11.9033 13.6533 12.2233 13.44C12.5433 13.2267 12.9167 13.16 13.3433 13.24C13.7433 13.32 14.17 13.4133 14.6233 13.52C15.1033 13.6 15.57 13.7067 16.0233 13.84C16.7433 13.84 17.5833 13.84 18.5433 13.84C19.5033 13.8133 20.45 13.7867 21.3833 13.76C22.3433 13.7067 23.17 13.6667 23.8633 13.64C24.5833 13.5867 25.0233 13.56 25.1833 13.56C25.9567 13.5067 26.7033 13.44 27.4233 13.36C28.1433 13.2533 28.7567 13.1067 29.2633 12.92C29.2633 12.92 29.2767 12.92 29.3033 12.92C29.5167 12.84 29.6633 12.8 29.7433 12.8C29.85 12.7733 30.0233 12.7867 30.2633 12.84L33.3433 13.64C33.7167 13.7467 33.8367 14.0533 33.7033 14.56C33.65 14.8 33.57 15.1333 33.4633 15.56C33.3567 15.9867 33.25 16.4267 33.1433 16.88C33.0367 17.3067 32.9567 17.6533 32.9033 17.92C32.7167 18.8267 32.5567 19.7333 32.4233 20.64C32.29 21.5467 32.1433 22.44 31.9833 23.32C32.2233 23.48 32.4633 23.68 32.7033 23.92C32.9433 24.1333 33.0767 24.3067 33.1033 24.44C33.13 24.7067 33.0233 25.0267 32.7833 25.4C32.5433 25.7467 32.2633 25.96 31.9433 26.04C31.17 25.9867 30.13 25.96 28.8233 25.96C27.5167 25.9333 26.1167 25.9333 24.6233 25.96C23.1567 25.9867 21.7567 26.0267 20.4233 26.08C19.09 26.1067 17.9967 26.1467 17.1433 26.2C16.9567 26.5467 16.6767 26.84 16.3033 27.08C15.9567 27.2933 15.5967 27.4 15.2233 27.4ZM23.3033 42.2C22.8233 42.2 22.5167 41.9333 22.3833 41.4C22.25 40.7867 22.17 40.1333 22.1433 39.44C22.1167 38.7467 22.1033 38.1467 22.1033 37.64C22.1033 37.5067 22.1033 37.4133 22.1033 37.36V32.92C20.8233 32.9467 19.57 32.9867 18.3433 33.04C17.1433 33.0933 16.0233 33.1467 14.9833 33.2C13.8367 33.2533 12.7833 33.3467 11.8233 33.48C10.8633 33.5867 9.97001 33.72 9.14334 33.88C8.55667 34.0133 8.13001 34.0533 7.86334 34C7.62334 33.9467 7.35667 33.8133 7.06334 33.6C6.90334 33.4667 6.66334 33.2667 6.34334 33C6.05001 32.7333 5.75667 32.4667 5.46334 32.2C5.19667 31.9333 5.03667 31.7333 4.98334 31.6C4.93001 31.3867 5.05001 31.08 5.34334 30.68C5.63667 30.28 5.94334 30.0933 6.26334 30.12C7.11667 30.3067 8.13001 30.4533 9.30334 30.56C10.5033 30.64 11.77 30.6933 13.1033 30.72C14.3833 30.72 15.7967 30.72 17.3433 30.72C18.89 30.6933 20.45 30.6533 22.0233 30.6C23.6233 30.5467 25.13 30.4933 26.5433 30.44C27.9567 30.3867 29.17 30.3333 30.1833 30.28C31.8367 30.1733 33.37 30.04 34.7833 29.88C36.2233 29.72 37.3567 29.5333 38.1833 29.32C38.7167 29.1867 39.0767 29.1467 39.2633 29.2C39.4767 29.2267 39.6767 29.3867 39.8633 29.68C40.05 29.9467 40.25 30.32 40.4633 30.8C40.6767 31.2533 40.7833 31.5733 40.7833 31.76C40.7567 32.0533 40.5567 32.3467 40.1833 32.64C39.8367 32.9067 39.5833 33.04 39.4233 33.04C38.6767 32.96 37.9433 32.9067 37.2233 32.88C36.53 32.8267 35.7033 32.7867 34.7433 32.76C33.81 32.7333 32.5967 32.72 31.1033 32.72C30.33 32.72 29.49 32.7333 28.5833 32.76C27.7033 32.76 26.7967 32.7733 25.8633 32.8V37.16C25.8633 37.8267 25.7833 38.56 25.6233 39.36C25.4633 40.1333 25.1967 40.8 24.8233 41.36C24.45 41.92 23.9433 42.2 23.3033 42.2ZM16.8233 48.4C16.4233 48.3733 15.97 48.24 15.4633 48C14.9833 47.7867 14.57 47.4133 14.2233 46.88C13.8767 46.3733 13.7033 45.68 13.7033 44.8V42.56C13.7033 41.5467 13.65 40.8533 13.5433 40.48C13.4367 40.08 13.05 39.7067 12.3833 39.36C11.8767 39.0933 11.7567 38.68 12.0233 38.12C12.2367 37.6667 12.5167 37.3867 12.8633 37.28C13.2367 37.1733 13.61 37.1467 13.9833 37.2C14.4367 37.28 14.93 37.4267 15.4633 37.64C15.9967 37.8267 16.4633 38.04 16.8633 38.28C17.1567 38.4667 17.3967 38.6533 17.5833 38.84C17.7967 39 17.9033 39.1867 17.9033 39.4C17.7967 39.8533 17.7167 40.3333 17.6633 40.84C17.61 41.3467 17.5833 41.8533 17.5833 42.36V44.4C17.5833 44.9867 17.6367 45.36 17.7433 45.52C17.8767 45.68 18.1433 45.7733 18.5433 45.8C19.5567 45.8267 20.7433 45.84 22.1033 45.84C23.49 45.84 24.9567 45.7867 26.5033 45.68C28.1833 45.5733 29.65 45.4 30.9033 45.16C32.1567 44.92 32.9833 44.7467 33.3833 44.64C33.6767 44.5333 33.9167 44.52 34.1033 44.6C34.29 44.68 34.4367 44.8 34.5433 44.96C34.7567 45.2267 34.97 45.6 35.1833 46.08C35.3967 46.56 35.5033 46.8667 35.5033 47C35.5033 47.24 35.3433 47.52 35.0233 47.84C34.73 48.16 34.49 48.32 34.3033 48.32C33.9567 48.2933 33.3967 48.2667 32.6233 48.24C31.85 48.2133 30.97 48.2 29.9833 48.2C29.0233 48.2 28.0367 48.2133 27.0233 48.24C26.81 48.24 26.5433 48.24 26.2233 48.24C25.93 48.2667 25.61 48.28 25.2633 48.28C24.3833 48.3067 23.3967 48.3333 22.3033 48.36C21.21 48.3867 20.17 48.4 19.1833 48.4C18.1967 48.4267 17.41 48.4267 16.8233 48.4ZM17.5033 23.64C18.5167 23.64 19.6767 23.64 20.9833 23.64C22.3167 23.6133 23.6633 23.5733 25.0233 23.52C26.3833 23.4667 27.61 23.4133 28.7033 23.36L29.0233 16.44C29.0233 16.2 28.97 16.0533 28.8633 16C28.7833 15.92 28.6633 15.88 28.5033 15.88C28.2633 15.88 27.73 15.8933 26.9033 15.92C26.1033 15.92 25.13 15.9467 23.9833 16C22.8633 16.0267 21.7167 16.0667 20.5433 16.12C19.37 16.1467 18.3167 16.1867 17.3833 16.24L17.5033 23.64ZM46.5418 35.28C45.9284 35.5467 45.3418 35.6267 44.7818 35.52C44.2218 35.4133 43.9018 35.2 43.8218 34.88C43.7951 34.7467 43.8084 34.5733 43.8618 34.36C43.9151 34.1467 44.1018 33.96 44.4218 33.8C45.4618 33.24 46.6218 32.4667 47.9018 31.48C49.2084 30.4667 50.5018 29.3067 51.7818 28C53.0618 26.6667 54.2084 25.24 55.2218 23.72C56.2351 22.1733 56.9951 20.5867 57.5018 18.96C57.5551 18.72 57.4484 18.6 57.1818 18.6C56.5951 18.6267 55.8884 18.6667 55.0618 18.72C54.2618 18.7467 53.6218 18.7867 53.1418 18.84C52.3951 18.8933 51.6351 18.96 50.8618 19.04C50.1151 19.12 49.3418 19.2267 48.5418 19.36C48.0351 19.44 47.6751 19.48 47.4618 19.48C47.2484 19.4533 46.9951 19.3067 46.7018 19.04C46.5151 18.88 46.2351 18.6267 45.8618 18.28C45.4884 17.9067 45.2351 17.6 45.1018 17.36C45.0484 17.12 45.1551 16.84 45.4218 16.52C45.6884 16.1733 45.9284 16 46.1418 16C47.1284 16.24 48.1951 16.3733 49.3418 16.4C50.5151 16.4267 51.6218 16.4133 52.6618 16.36C53.4084 16.3067 54.1684 16.2533 54.9418 16.2C55.7151 16.12 56.4084 16.0267 57.0218 15.92C57.6351 15.7867 58.0618 15.6533 58.3018 15.52C58.6218 15.3867 58.9151 15.36 59.1818 15.44C59.6084 15.5733 60.1151 15.76 60.7018 16C61.2884 16.2133 61.7551 16.3867 62.1018 16.52C62.3151 16.6 62.4618 16.72 62.5418 16.88C62.6218 17.0133 62.5951 17.2267 62.4618 17.52C62.3818 17.76 62.2351 18.0933 62.0218 18.52C61.8351 18.9467 61.6351 19.3867 61.4218 19.84C62.4351 20.0267 63.6084 20.0933 64.9418 20.04C65.3151 20.04 65.8751 20.0267 66.6218 20C67.3951 19.9467 68.1684 19.8933 68.9418 19.84V17C68.9418 16.2533 68.9151 15.6933 68.8618 15.32C68.8084 14.92 68.6618 14.6 68.4218 14.36C68.2084 14.12 67.8484 13.8267 67.3418 13.48C67.0751 13.32 66.8751 13.1333 66.7418 12.92C66.6351 12.7067 66.6484 12.4667 66.7818 12.2C66.9951 11.7467 67.2751 11.4533 67.6218 11.32C67.9684 11.1867 68.3551 11.16 68.7818 11.24C69.3951 11.3467 70.0218 11.56 70.6618 11.88C71.3018 12.1733 71.8351 12.4667 72.2618 12.76C72.7418 13.08 72.9818 13.4133 72.9818 13.76C72.9284 14.1067 72.8618 14.5867 72.7818 15.2C72.7018 15.8133 72.6618 16.4267 72.6618 17.04V30.24C72.6618 30.9067 72.5818 31.6267 72.4218 32.4C72.2884 33.1467 72.0351 33.8 71.6618 34.36C71.2884 34.8933 70.7818 35.1733 70.1418 35.2C69.6351 35.2 69.3284 34.92 69.2218 34.36C69.1151 33.6667 69.0351 32.9467 68.9818 32.2C68.9551 31.4533 68.9418 30.8667 68.9418 30.44V29.36C67.6351 29.3867 66.4218 29.48 65.3018 29.64C64.2084 29.7733 63.3818 29.9067 62.8218 30.04C62.4751 30.12 62.1951 30.1733 61.9818 30.2C61.7951 30.2 61.5818 30.16 61.3418 30.08C61.1818 30 60.9284 29.8667 60.5818 29.68C60.2351 29.4667 59.9151 29.2533 59.6218 29.04C59.3551 28.8267 59.2084 28.6667 59.1818 28.56C59.1551 28.24 59.2484 27.9333 59.4618 27.64C59.6751 27.32 59.9151 27.16 60.1818 27.16C61.1951 27.3467 62.4218 27.4133 63.8618 27.36C64.2884 27.36 64.9418 27.3467 65.8218 27.32C66.7284 27.2667 67.7684 27.2 68.9418 27.12V22.04C67.8484 22.12 66.8884 22.2267 66.0618 22.36C65.2351 22.4667 64.5284 22.5867 63.9418 22.72C63.5951 22.8267 63.3151 22.88 63.1018 22.88C62.9151 22.88 62.7018 22.84 62.4618 22.76C62.2751 22.6533 61.9684 22.4933 61.5418 22.28C61.1418 22.04 60.8084 21.8267 60.5418 21.64C59.6351 23.3467 58.4618 25.08 57.0218 26.84C55.6084 28.6 54.0084 30.2133 52.2218 31.68C50.4351 33.1467 48.5418 34.3467 46.5418 35.28ZM63.4618 49.6C61.7018 49.6 60.1551 49.2933 58.8218 48.68C57.4884 48.0667 56.4484 47.2133 55.7018 46.12C54.9551 45.0533 54.5818 43.8267 54.5818 42.44C54.5818 41.0533 54.9818 39.8133 55.7818 38.72C56.6084 37.6267 57.7018 36.76 59.0618 36.12C60.4484 35.48 61.9684 35.16 63.6218 35.16C65.2751 35.16 66.7818 35.44 68.1418 36C69.5018 36.5333 70.5818 37.3333 71.3818 38.4C72.1818 39.44 72.5818 40.7333 72.5818 42.28C72.5818 43.72 72.1684 44.9867 71.3418 46.08C70.5418 47.1733 69.4484 48.0267 68.0618 48.64C66.6751 49.28 65.1418 49.6 63.4618 49.6ZM63.5018 46.76C64.9151 46.76 66.1018 46.36 67.0618 45.56C68.0218 44.76 68.5284 43.6267 68.5818 42.16C68.6351 40.7467 68.1551 39.6533 67.1418 38.88C66.1551 38.08 64.9551 37.68 63.5418 37.68C62.1284 37.68 60.9418 38.12 59.9818 39C59.0218 39.88 58.5418 40.9867 58.5418 42.32C58.5418 43.7067 59.0084 44.8 59.9418 45.6C60.9018 46.3733 62.0884 46.76 63.5018 46.76ZM107.009 30.6C105.116 30.6267 103.409 30.3333 101.889 29.72C100.396 29.08 99.2093 28.1467 98.3293 26.92C97.4493 25.6933 97.0093 24.2267 97.0093 22.52C97.0626 20.8933 97.5293 19.4667 98.4093 18.24C99.3159 17.0133 100.529 16.04 102.049 15.32C103.569 14.5733 105.276 14.1733 107.169 14.12C109.143 14.0667 110.903 14.36 112.449 15C113.996 15.6133 115.209 16.5333 116.089 17.76C116.969 18.96 117.369 20.4267 117.289 22.16C117.209 23.8667 116.716 25.3467 115.809 26.6C114.903 27.8533 113.689 28.8267 112.169 29.52C110.676 30.1867 108.956 30.5467 107.009 30.6ZM93.5293 42.8C93.1559 42.8 92.7826 42.6667 92.4093 42.4C91.9826 42.1333 91.5159 41.7733 91.0093 41.32C90.5293 40.84 90.2626 40.5067 90.2093 40.32C90.1293 40.08 90.2359 39.76 90.5293 39.36C90.8226 38.9333 91.1426 38.7467 91.4893 38.8C92.3426 38.9867 93.4226 39.1467 94.7293 39.28C96.0626 39.3867 97.6226 39.44 99.4093 39.44C100.129 39.44 101.076 39.44 102.249 39.44C103.449 39.4133 104.703 39.3867 106.009 39.36L105.969 36.36C105.969 35.5867 105.889 35 105.729 34.6C105.596 34.1733 105.329 33.8 104.929 33.48C104.903 33.4533 104.876 33.4267 104.849 33.4C104.609 33.2133 104.449 33.0533 104.369 32.92C104.289 32.7867 104.303 32.5867 104.409 32.32C104.623 31.8667 104.903 31.5733 105.249 31.44C105.596 31.3067 105.943 31.2667 106.289 31.32C106.743 31.4 107.223 31.56 107.729 31.8C108.263 32.0133 108.716 32.2267 109.089 32.44C109.623 32.76 109.916 33.0533 109.969 33.32C109.756 34.1733 109.636 35.08 109.609 36.04L109.449 39.28C110.516 39.2533 111.503 39.2267 112.409 39.2C113.316 39.1467 114.049 39.1067 114.609 39.08C116.263 38.9733 117.756 38.84 119.089 38.68C120.449 38.4933 121.543 38.2933 122.369 38.08C122.716 37.9733 123.009 37.92 123.249 37.92C123.543 37.92 123.809 38.0933 124.049 38.44C124.236 38.7333 124.436 39.12 124.649 39.6C124.863 40.08 124.969 40.4133 124.969 40.6C124.969 40.8933 124.783 41.1867 124.409 41.48C124.036 41.7467 123.769 41.88 123.609 41.88C122.969 41.8 122.169 41.7467 121.209 41.72C120.249 41.6667 119.249 41.64 118.209 41.64C117.196 41.6133 116.223 41.6 115.289 41.6C112.996 41.6267 110.489 41.68 107.769 41.76C105.049 41.8133 102.263 41.8933 99.4093 42C98.9826 42.0267 98.4093 42.08 97.6893 42.16C96.9959 42.24 96.3159 42.3333 95.6493 42.44C95.0093 42.52 94.5293 42.6 94.2093 42.68C93.9426 42.76 93.7159 42.8 93.5293 42.8ZM107.009 27.96C108.796 27.9067 110.276 27.36 111.449 26.32C112.623 25.28 113.223 23.8933 113.249 22.16C113.276 20.4533 112.729 19.1333 111.609 18.2C110.489 17.24 109.009 16.76 107.169 16.76C105.196 16.8133 103.689 17.4133 102.649 18.56C101.609 19.68 101.063 20.9867 101.009 22.48C101.009 23.6 101.276 24.5867 101.809 25.44C102.343 26.2933 103.063 26.9467 103.969 27.4C104.876 27.8267 105.889 28.0133 107.009 27.96ZM131.616 36C131.269 36 130.989 35.8533 130.776 35.56C130.589 35.24 130.482 34.8667 130.456 34.44L129.656 22.32C129.602 21.52 129.482 20.9067 129.296 20.48C129.109 20.0533 128.749 19.7067 128.216 19.44C127.949 19.28 127.762 19.1067 127.656 18.92C127.549 18.7333 127.549 18.5067 127.656 18.24C127.789 17.8667 127.989 17.5867 128.256 17.4C128.549 17.1867 128.909 17.1067 129.336 17.16C129.709 17.24 130.122 17.3467 130.576 17.48C131.029 17.6133 131.469 17.7467 131.896 17.88C132.242 17.88 132.736 17.88 133.376 17.88C134.042 17.8533 134.736 17.8267 135.456 17.8C136.202 17.7467 136.869 17.7067 137.456 17.68C138.069 17.6533 138.522 17.6267 138.816 17.6C138.896 17.6 138.949 17.6 138.976 17.6C139.989 17.5467 140.829 17.4667 141.496 17.36C142.189 17.2533 142.789 17.1067 143.296 16.92C143.509 16.84 143.682 16.8 143.816 16.8C143.949 16.7733 144.136 16.8 144.376 16.88L147.296 17.8C147.696 17.9867 147.829 18.3067 147.696 18.76C147.642 19 147.549 19.4 147.416 19.96C147.309 20.52 147.202 21.08 147.096 21.64C147.016 22.2 146.949 22.6133 146.896 22.88C146.709 24.1333 146.496 25.52 146.256 27.04C146.042 28.56 145.869 30.0133 145.736 31.4C146.029 31.56 146.349 31.8 146.696 32.12C147.042 32.44 147.216 32.64 147.216 32.72C147.216 33.0667 147.069 33.4133 146.776 33.76C146.509 34.1067 146.216 34.3067 145.896 34.36C145.229 34.3067 144.362 34.28 143.296 34.28C142.229 34.28 141.082 34.2933 139.856 34.32C138.656 34.32 137.496 34.3467 136.376 34.4C135.256 34.4267 134.296 34.4667 133.496 34.52C133.282 34.92 133.002 35.2667 132.656 35.56C132.336 35.8533 131.989 36 131.616 36ZM153.656 47.2C153.202 47.2 152.909 46.8667 152.776 46.2C152.696 45.7467 152.629 45.2 152.576 44.56C152.549 43.92 152.536 43.2933 152.536 42.68C152.536 42.0667 152.536 41.5867 152.536 41.24V17.6C152.536 17.5467 152.536 17.4667 152.536 17.36C152.536 16.4267 152.456 15.6933 152.296 15.16C152.162 14.6267 151.669 14.1067 150.816 13.6C150.656 13.4933 150.509 13.3733 150.376 13.24C150.242 13.1067 150.176 12.9467 150.176 12.76C150.176 12.4667 150.322 12.1333 150.616 11.76C150.909 11.3867 151.269 11.2 151.696 11.2C151.989 11.2 152.389 11.28 152.896 11.44C153.402 11.5733 153.922 11.76 154.456 12C154.989 12.2133 155.442 12.44 155.816 12.68C156.322 13 156.576 13.32 156.576 13.64C156.549 13.9867 156.482 14.56 156.376 15.36C156.296 16.1333 156.256 16.88 156.256 17.6L156.216 41.04C156.216 41.5467 156.176 42.1467 156.096 42.84C156.016 43.5333 155.869 44.2133 155.656 44.88C155.469 45.5467 155.202 46.0933 154.856 46.52C154.536 46.9733 154.136 47.2 153.656 47.2ZM133.816 31.92C134.669 31.92 135.616 31.9067 136.656 31.88C137.722 31.8533 138.776 31.8267 139.816 31.8C140.882 31.7467 141.829 31.6933 142.656 31.64C142.682 31.2133 142.696 30.6 142.696 29.8C142.722 28.9733 142.736 28.08 142.736 27.12C142.762 26.16 142.776 25.2267 142.776 24.32C142.802 23.3867 142.816 22.5867 142.816 21.92C142.842 21.2267 142.856 20.7867 142.856 20.6C142.856 20.36 142.802 20.2133 142.696 20.16C142.616 20.08 142.496 20.04 142.336 20.04C142.096 20.04 141.642 20.0533 140.976 20.08C140.336 20.08 139.576 20.0933 138.696 20.12C137.816 20.1467 136.922 20.1733 136.016 20.2C135.136 20.2267 134.336 20.2533 133.616 20.28L133.816 31.92ZM164.46 37.2C164.247 37.3333 163.927 37.44 163.5 37.52C163.074 37.5733 162.674 37.56 162.3 37.48C161.954 37.4 161.727 37.2133 161.62 36.92C161.594 36.7867 161.607 36.6267 161.66 36.44C161.714 36.2533 161.86 36.0667 162.1 35.88C163.46 34.84 164.754 33.6133 165.98 32.2C167.207 30.76 168.287 29.28 169.22 27.76C170.18 26.24 170.94 24.8133 171.5 23.48C172.06 22.12 172.354 21 172.38 20.12C172.38 19.8267 172.3 19.52 172.14 19.2C171.34 19.28 170.54 19.3733 169.74 19.48C168.94 19.56 168.14 19.6667 167.34 19.8C167.314 19.8 167.287 19.8 167.26 19.8C166.807 19.9067 166.487 19.96 166.3 19.96C166.14 19.9333 165.914 19.7867 165.62 19.52C165.434 19.36 165.14 19.0667 164.74 18.64C164.367 18.2133 164.114 17.88 163.98 17.64C163.927 17.4 164.034 17.12 164.3 16.8C164.567 16.4533 164.807 16.28 165.02 16.28C165.874 16.4667 166.887 16.5733 168.06 16.6C169.234 16.6267 170.527 16.6267 171.94 16.6C174.714 16.4933 176.874 16.32 178.42 16.08C179.967 15.84 181.06 15.6667 181.7 15.56C181.994 15.5067 182.207 15.5067 182.34 15.56C182.5 15.6133 182.634 15.72 182.74 15.88C182.954 16.2267 183.127 16.6267 183.26 17.08C183.394 17.5333 183.46 17.8267 183.46 17.96C183.46 18.1733 183.3 18.4267 182.98 18.72C182.687 18.9867 182.447 19.12 182.26 19.12C181.567 19.0667 180.594 19.0267 179.34 19C178.114 18.9733 176.834 18.9867 175.5 19.04C175.874 19.3067 176.18 19.6 176.42 19.92C176.687 20.2133 176.794 20.4667 176.74 20.68C176.474 21.5333 176.154 22.3867 175.78 23.24C175.434 24.0933 175.034 24.9333 174.58 25.76C176.18 27.12 177.554 28.12 178.7 28.76C179.874 29.4 180.874 29.9067 181.7 30.28C182.1 30.52 182.447 30.8933 182.74 31.4C183.034 31.9067 183.274 32.4267 183.46 32.96C183.647 33.4667 183.754 33.9067 183.78 34.28C183.754 34.68 183.474 35.04 182.94 35.36C182.434 35.6533 181.954 35.7467 181.5 35.64C181.02 35.0533 180.434 34.4 179.74 33.68C179.047 32.9333 178.314 32.1867 177.54 31.44C176.794 30.6933 176.06 29.9867 175.34 29.32C174.62 28.6533 173.994 28.1067 173.46 27.68C172.554 29.12 171.567 30.4667 170.5 31.72C169.46 32.9467 168.42 34.04 167.38 35C166.34 35.9333 165.367 36.6667 164.46 37.2ZM187.86 47.2C187.407 47.2 187.114 46.8667 186.98 46.2C186.9 45.7467 186.834 45.2 186.78 44.56C186.754 43.92 186.74 43.2933 186.74 42.68C186.74 42.0667 186.74 41.5867 186.74 41.24V17.6C186.74 17.5467 186.74 17.4667 186.74 17.36C186.74 16.4267 186.66 15.6933 186.5 15.16C186.367 14.6267 185.874 14.1067 185.02 13.6C184.86 13.4933 184.714 13.3733 184.58 13.24C184.447 13.1067 184.38 12.9467 184.38 12.76C184.38 12.4667 184.527 12.1333 184.82 11.76C185.114 11.3867 185.474 11.2 185.9 11.2C186.194 11.2 186.594 11.28 187.1 11.44C187.607 11.5733 188.127 11.76 188.66 12C189.194 12.2133 189.647 12.44 190.02 12.68C190.527 13 190.78 13.32 190.78 13.64C190.754 13.9867 190.687 14.56 190.58 15.36C190.5 16.1333 190.46 16.88 190.46 17.6V27.72C191.634 27.6667 192.7 27.52 193.66 27.28C194.62 27.0133 195.287 26.8267 195.66 26.72C195.954 26.6133 196.194 26.6 196.38 26.68C196.567 26.7333 196.714 26.84 196.82 27C197.034 27.2667 197.247 27.64 197.46 28.12C197.674 28.6 197.78 28.9333 197.78 29.12C197.78 29.3867 197.607 29.6533 197.26 29.92C196.94 30.16 196.687 30.28 196.5 30.28C195.567 30.1467 194.554 30.0533 193.46 30C192.394 29.9467 191.38 29.9333 190.42 29.96V41.04C190.42 41.5467 190.38 42.1467 190.3 42.84C190.22 43.5333 190.074 44.2133 189.86 44.88C189.674 45.5467 189.407 46.0933 189.06 46.52C188.74 46.9733 188.34 47.2 187.86 47.2ZM216.02 31.8C215.674 31.8 215.394 31.6667 215.18 31.4C214.967 31.1067 214.834 30.7467 214.78 30.32L213.98 20.6C213.927 19.7733 213.807 19.1467 213.62 18.72C213.434 18.2933 213.1 17.9467 212.62 17.68C212.087 17.3867 211.9 17 212.06 16.52C212.194 16.1467 212.394 15.8533 212.66 15.64C212.954 15.4267 213.314 15.36 213.74 15.44C214.14 15.5467 214.554 15.6667 214.98 15.8C215.407 15.9067 215.834 16.04 216.26 16.2C216.687 16.2 217.247 16.2 217.94 16.2C218.634 16.1733 219.34 16.1467 220.06 16.12C220.807 16.0933 221.46 16.0667 222.02 16.04C222.607 16.0133 222.98 15.9867 223.14 15.96C223.86 15.9067 224.527 15.8267 225.14 15.72C225.78 15.6133 226.3 15.48 226.7 15.32C227.02 15.2133 227.367 15.2 227.74 15.28L230.5 15.96C230.927 16.0667 231.06 16.3867 230.9 16.92C230.847 17.16 230.767 17.5467 230.66 18.08C230.58 18.6133 230.5 19.1467 230.42 19.68C230.34 20.2133 230.274 20.6267 230.22 20.92C230.14 21.4267 230.034 22.0933 229.9 22.92C229.794 23.72 229.687 24.5333 229.58 25.36C229.474 26.1867 229.38 26.88 229.3 27.44C229.567 27.6267 229.82 27.88 230.06 28.2C230.327 28.4933 230.46 28.6667 230.46 28.72C230.46 29.04 230.34 29.36 230.1 29.68C229.86 29.9733 229.58 30.1467 229.26 30.2C228.62 30.1467 227.754 30.12 226.66 30.12C225.594 30.12 224.474 30.1333 223.3 30.16C222.154 30.1867 221.074 30.2133 220.06 30.24C219.074 30.2667 218.34 30.3067 217.86 30.36C217.674 30.76 217.407 31.1067 217.06 31.4C216.74 31.6667 216.394 31.8 216.02 31.8ZM237.38 49.6C237.007 49.6267 236.74 49.5467 236.58 49.36C236.42 49.1733 236.314 48.9733 236.26 48.76C236.154 48.3067 236.087 47.7733 236.06 47.16C236.034 46.5467 236.02 45.9733 236.02 45.44L235.94 38.72C235.94 38.48 235.887 38.3333 235.78 38.28C235.674 38.2 235.54 38.16 235.38 38.16C234.66 38.1867 233.527 38.2533 231.98 38.36C230.46 38.44 228.754 38.5467 226.86 38.68C226.167 38.7333 225.34 38.8267 224.38 38.96C223.42 39.0933 222.594 39.24 221.9 39.4C221.394 39.5333 221.034 39.5867 220.82 39.56C220.634 39.5067 220.42 39.4 220.18 39.24C219.834 39 219.447 38.6667 219.02 38.24C218.594 37.8133 218.314 37.4667 218.18 37.2C218.154 36.9333 218.274 36.6267 218.54 36.28C218.807 35.9333 219.127 35.7467 219.5 35.72C219.874 35.8 220.367 35.88 220.98 35.96C221.594 36.0133 222.247 36.0533 222.94 36.08C223.66 36.1067 224.314 36.12 224.9 36.12C226.127 36.0933 227.327 36.0667 228.5 36.04C229.674 35.9867 230.874 35.9067 232.1 35.8C232.874 35.7467 233.58 35.6667 234.22 35.56C234.887 35.4533 235.474 35.3067 235.98 35.12C236.194 35.04 236.354 35 236.46 35C236.567 34.9733 236.74 34.9867 236.98 35.04L239.62 35.52C240.047 35.6 240.22 35.8667 240.14 36.32C240.114 36.56 240.074 36.9067 240.02 37.36C239.967 37.7867 239.914 38.24 239.86 38.72C239.834 39.2 239.82 39.6 239.82 39.92L239.78 44.84C239.78 45.5333 239.687 46.24 239.5 46.96C239.34 47.7067 239.074 48.32 238.7 48.8C238.354 49.3067 237.914 49.5733 237.38 49.6ZM237.74 33.4C237.287 33.4 236.98 33.12 236.82 32.56C236.687 31.9467 236.607 31.28 236.58 30.56C236.554 29.8133 236.54 29.2 236.54 28.72C236.54 28.6133 236.54 28.5333 236.54 28.48V17C236.54 16.2533 236.514 15.6933 236.46 15.32C236.407 14.92 236.26 14.6 236.02 14.36C235.807 14.12 235.447 13.8267 234.94 13.48C234.674 13.32 234.474 13.1333 234.34 12.92C234.234 12.7067 234.247 12.4667 234.38 12.2C234.594 11.7467 234.874 11.4533 235.22 11.32C235.567 11.1867 235.954 11.16 236.38 11.24C236.994 11.3467 237.62 11.56 238.26 11.88C238.9 12.1733 239.434 12.4667 239.86 12.76C240.34 13.08 240.58 13.4133 240.58 13.76C240.527 14.1067 240.46 14.5867 240.38 15.2C240.3 15.8133 240.26 16.4267 240.26 17.04V23.08C241.3 22.9733 242.234 22.8133 243.06 22.6C243.914 22.36 244.514 22.1867 244.86 22.08C245.154 21.9733 245.394 21.96 245.58 22.04C245.767 22.0933 245.914 22.2 246.02 22.36C246.234 22.6267 246.447 23 246.66 23.48C246.874 23.96 246.98 24.2933 246.98 24.48C246.98 24.7467 246.807 25.0133 246.46 25.28C246.14 25.5467 245.887 25.68 245.7 25.68C244.874 25.5467 243.98 25.4667 243.02 25.44C242.087 25.3867 241.167 25.36 240.26 25.36V28.28C240.26 28.9467 240.18 29.68 240.02 30.48C239.887 31.2533 239.634 31.9333 239.26 32.52C238.887 33.08 238.38 33.3733 237.74 33.4ZM218.1 27.88C218.794 27.88 219.62 27.88 220.58 27.88C221.567 27.8533 222.554 27.8133 223.54 27.76C224.554 27.7067 225.434 27.64 226.18 27.56C226.207 27.08 226.22 26.4267 226.22 25.6C226.247 24.7467 226.274 23.8533 226.3 22.92C226.327 21.9867 226.34 21.1467 226.34 20.4C226.367 19.6533 226.38 19.16 226.38 18.92C226.38 18.68 226.327 18.5333 226.22 18.48C226.14 18.4 226.02 18.36 225.86 18.36C225.567 18.36 224.954 18.3733 224.02 18.4C223.087 18.4267 222.047 18.4533 220.9 18.48C219.78 18.5067 218.74 18.5467 217.78 18.6L218.1 27.88ZM261.097 48.6C260.484 48.5733 259.897 48.28 259.337 47.72C258.804 47.1867 258.537 46.3733 258.537 45.28V42.6C258.51 42.44 258.364 42.2667 258.097 42.08C257.777 41.8667 257.51 41.68 257.297 41.52C257.11 41.3333 257.004 41.1733 256.977 41.04C257.004 40.8267 257.124 40.5467 257.337 40.2C257.55 39.8267 257.79 39.6267 258.057 39.6C258.67 39.68 259.377 39.7467 260.177 39.8C260.977 39.8267 261.63 39.8533 262.137 39.88C262.67 39.9067 263.377 39.92 264.257 39.92C265.164 39.8933 266.15 39.8667 267.217 39.84C268.284 39.8133 269.364 39.7733 270.457 39.72C271.55 39.64 272.55 39.56 273.457 39.48C273.51 39 273.55 38.48 273.577 37.92C273.604 37.36 273.617 36.8267 273.617 36.32C273.617 36.1067 273.577 35.9867 273.497 35.96C273.417 35.9067 273.297 35.88 273.137 35.88C272.844 35.88 272.337 35.9067 271.617 35.96C270.897 35.9867 270.084 36.0267 269.177 36.08C268.297 36.1067 267.43 36.1467 266.577 36.2C265.75 36.2533 265.07 36.2933 264.537 36.32C264.27 36.32 263.897 36.3467 263.417 36.4C262.964 36.4267 262.484 36.4667 261.977 36.52C261.497 36.5733 261.084 36.64 260.737 36.72C260.204 36.8267 259.817 36.8667 259.577 36.84C259.337 36.8133 259.097 36.7067 258.857 36.52C258.59 36.3067 258.257 36.0133 257.857 35.64C257.484 35.2667 257.27 35.0267 257.217 34.92C257.164 34.68 257.257 34.4 257.497 34.08C257.737 33.76 258.004 33.5733 258.297 33.52C259.337 33.7333 260.524 33.8533 261.857 33.88C263.217 33.88 264.657 33.8667 266.177 33.84C267.084 33.8133 268.03 33.7733 269.017 33.72C270.03 33.6667 270.964 33.5867 271.817 33.48C272.67 33.3733 273.297 33.2533 273.697 33.12C273.884 33.04 274.017 33 274.097 33C274.177 33 274.27 33.0133 274.377 33.04C274.457 33.0667 274.524 33.08 274.577 33.08L277.457 33.68C277.884 33.76 278.017 34.0667 277.857 34.6C277.804 34.8133 277.697 35.1867 277.537 35.72C277.377 36.2533 277.217 36.84 277.057 37.48C276.924 38.0933 276.804 38.64 276.697 39.12C276.99 39.28 277.284 39.4933 277.577 39.76C277.897 40 278.057 40.1867 278.057 40.32C278.057 40.64 277.937 40.9867 277.697 41.36C277.484 41.7333 277.217 41.9733 276.897 42.08C276.044 42.0533 274.99 42.04 273.737 42.04C272.484 42.04 271.164 42.0533 269.777 42.08C268.39 42.1067 267.044 42.1467 265.737 42.2C264.457 42.2533 263.337 42.3067 262.377 42.36V44.64C262.377 45.0667 262.417 45.4133 262.497 45.68C262.604 45.92 262.817 46.0533 263.137 46.08C264.15 46.1333 265.35 46.1467 266.737 46.12C268.15 46.0933 269.47 46.0667 270.697 46.04C272.59 45.9867 274.15 45.8533 275.377 45.64C276.604 45.4267 277.43 45.24 277.857 45.08C278.15 44.9467 278.39 44.9333 278.577 45.04C278.764 45.12 278.91 45.24 279.017 45.4C279.23 45.6667 279.444 46.0133 279.657 46.44C279.87 46.8667 279.977 47.1467 279.977 47.28C279.977 47.4933 279.817 47.76 279.497 48.08C279.204 48.4 278.964 48.56 278.777 48.56C278.404 48.5333 277.817 48.5067 277.017 48.48C276.244 48.48 275.364 48.4667 274.377 48.44C273.39 48.44 272.39 48.4533 271.377 48.48C271.19 48.48 270.87 48.48 270.417 48.48C269.99 48.5067 269.484 48.52 268.897 48.52C268.044 48.5467 267.11 48.56 266.097 48.56C265.084 48.5867 264.124 48.6 263.217 48.6C262.31 48.6267 261.604 48.6267 261.097 48.6ZM251.737 34.16C251.124 34.4267 250.524 34.48 249.937 34.32C249.377 34.1333 249.07 33.88 249.017 33.56C248.99 33.4267 249.004 33.2533 249.057 33.04C249.137 32.8 249.337 32.6 249.657 32.44C250.67 31.96 251.817 31.24 253.097 30.28C254.377 29.32 255.657 28.2 256.937 26.92C258.217 25.64 259.364 24.28 260.377 22.84C261.417 21.3733 262.177 19.88 262.657 18.36C262.737 18.12 262.63 18 262.337 18C261.75 18.0267 261.03 18.0667 260.177 18.12C259.35 18.1467 258.697 18.1867 258.217 18.24C257.47 18.2933 256.684 18.36 255.857 18.44C255.057 18.52 254.31 18.6267 253.617 18.76C253.11 18.8667 252.75 18.9067 252.537 18.88C252.324 18.8533 252.07 18.7067 251.777 18.44C251.59 18.28 251.31 18.0267 250.937 17.68C250.564 17.3067 250.31 17 250.177 16.76C250.124 16.52 250.23 16.24 250.497 15.92C250.764 15.5733 251.004 15.4 251.217 15.4C252.204 15.64 253.27 15.7733 254.417 15.8C255.59 15.8267 256.697 15.8133 257.737 15.76C258.964 15.7067 260.137 15.6133 261.257 15.48C262.377 15.32 263.124 15.1333 263.497 14.92C263.817 14.7867 264.11 14.76 264.377 14.84C264.804 14.9733 265.31 15.1733 265.897 15.44C266.484 15.68 266.95 15.8667 267.297 16C267.51 16.08 267.657 16.2 267.737 16.36C267.817 16.4933 267.79 16.7067 267.657 17C267.55 17.3467 267.31 17.8667 266.937 18.56C266.59 19.2533 266.27 19.8533 265.977 20.36C265.31 21.56 264.484 22.8267 263.497 24.16C262.51 25.4667 261.39 26.76 260.137 28.04C258.91 29.32 257.577 30.4933 256.137 31.56C254.724 32.6267 253.257 33.4933 251.737 34.16ZM275.337 32C274.83 32 274.524 31.7333 274.417 31.2C274.31 30.5067 274.23 29.76 274.177 28.96C274.15 28.1333 274.137 27.48 274.137 27V24.88C273.79 24.9067 273.47 24.9333 273.177 24.96C272.884 24.9867 272.644 25.0133 272.457 25.04C271.87 25.12 271.27 25.2133 270.657 25.32C270.07 25.4 269.51 25.52 268.977 25.68C268.63 25.7867 268.35 25.84 268.137 25.84C267.95 25.84 267.737 25.8 267.497 25.72C267.337 25.64 267.07 25.4933 266.697 25.28C266.35 25.04 266.017 24.8133 265.697 24.6C265.404 24.36 265.244 24.2133 265.217 24.16C265.11 23.8667 265.19 23.5333 265.457 23.16C265.75 22.76 266.03 22.56 266.297 22.56C267.31 22.7467 268.51 22.8133 269.897 22.76C270.297 22.76 270.897 22.7467 271.697 22.72C272.524 22.6667 273.337 22.6133 274.137 22.56V17C274.137 16.2533 274.11 15.6933 274.057 15.32C274.004 14.92 273.857 14.6 273.617 14.36C273.404 14.12 273.044 13.8267 272.537 13.48C272.27 13.32 272.07 13.1333 271.937 12.92C271.83 12.7067 271.844 12.4667 271.977 12.2C272.19 11.7467 272.47 11.4533 272.817 11.32C273.164 11.1867 273.55 11.16 273.977 11.24C274.59 11.3467 275.217 11.56 275.857 11.88C276.497 12.1733 277.03 12.4667 277.457 12.76C277.937 13.08 278.177 13.4133 278.177 13.76C278.124 14.1067 278.057 14.5867 277.977 15.2C277.897 15.8133 277.857 16.4267 277.857 17.04V26.76C277.857 27.4267 277.777 28.1733 277.617 29C277.484 29.8267 277.23 30.5333 276.857 31.12C276.484 31.7067 275.977 32 275.337 32ZM289.222 38C288.448 37.9467 287.848 37.5867 287.422 36.92C287.022 36.2533 286.822 35.4667 286.822 34.56V28C286.795 27.76 286.608 27.5333 286.262 27.32C285.968 27.16 285.648 26.96 285.302 26.72C284.982 26.48 284.808 26.2933 284.782 26.16C284.755 25.8667 284.835 25.5333 285.022 25.16C285.235 24.7867 285.488 24.5867 285.782 24.56C286.235 24.5867 286.715 24.6267 287.222 24.68C287.755 24.7333 288.275 24.7733 288.782 24.8C290.222 24.8267 291.662 24.8133 293.102 24.76C294.568 24.68 296.035 24.56 297.502 24.4C297.555 23.9467 297.608 23.36 297.662 22.64C297.742 21.8933 297.808 21.1733 297.862 20.48C297.942 19.7867 297.982 19.28 297.982 18.96C297.982 18.72 297.928 18.5733 297.822 18.52C297.742 18.44 297.622 18.4 297.462 18.4C296.875 18.4 296.048 18.4267 294.982 18.48C293.915 18.5333 292.835 18.6133 291.742 18.72C291.342 18.7467 290.902 18.8 290.422 18.88C289.942 18.9333 289.448 19.0267 288.942 19.16C288.408 19.2667 288.035 19.3067 287.822 19.28C287.635 19.2533 287.422 19.1467 287.182 18.96C286.995 18.8267 286.768 18.6267 286.502 18.36C286.235 18.0933 285.995 17.84 285.782 17.6C285.595 17.3333 285.488 17.16 285.462 17.08C285.435 16.8933 285.528 16.6667 285.742 16.4C285.955 16.1067 286.208 15.9333 286.502 15.88C287.542 16.0667 288.582 16.1733 289.622 16.2C290.688 16.2267 291.755 16.2267 292.822 16.2C293.782 16.1467 294.755 16.0933 295.742 16.04C296.728 15.96 297.595 15.7867 298.342 15.52C298.555 15.44 298.728 15.4 298.862 15.4C298.995 15.3733 299.182 15.4 299.422 15.48L302.102 16.28C302.502 16.4667 302.635 16.7867 302.502 17.24C302.395 17.5867 302.275 17.9867 302.142 18.44C302.008 18.8667 301.888 19.2933 301.782 19.72L300.662 24.12C300.928 24.3067 301.222 24.5733 301.542 24.92C301.888 25.2667 302.062 25.4667 302.062 25.52C302.062 25.8667 301.942 26.2133 301.702 26.56C301.462 26.9067 301.182 27.1067 300.862 27.16C300.035 27.1067 299.022 27.0933 297.822 27.12C296.622 27.1467 295.382 27.1867 294.102 27.24C292.822 27.2667 291.662 27.32 290.622 27.4V33.36C290.622 33.84 290.702 34.16 290.862 34.32C291.048 34.4533 291.288 34.52 291.582 34.52C292.968 34.52 294.368 34.4267 295.782 34.24C297.195 34.0533 298.542 33.8133 299.822 33.52C301.102 33.2267 302.222 32.9333 303.182 32.64C304.142 32.32 304.835 32.0667 305.262 31.88C305.715 31.6667 306.062 31.6267 306.302 31.76C306.542 31.8933 306.662 32.0933 306.662 32.36C306.688 33.16 305.928 33.9067 304.382 34.6C303.635 34.92 302.648 35.28 301.422 35.68C300.222 36.0533 298.902 36.4133 297.462 36.76C296.022 37.1067 294.582 37.4 293.142 37.64C291.702 37.8533 290.395 37.9733 289.222 38ZM309.662 47.2C309.208 47.2 308.915 46.8667 308.782 46.2C308.702 45.7467 308.635 45.2 308.582 44.56C308.555 43.92 308.542 43.2933 308.542 42.68C308.542 42.0667 308.542 41.5867 308.542 41.24V17.6C308.542 17.5467 308.542 17.4667 308.542 17.36C308.542 16.4267 308.462 15.6933 308.302 15.16C308.168 14.6267 307.675 14.1067 306.822 13.6C306.662 13.4933 306.515 13.3733 306.382 13.24C306.248 13.1067 306.182 12.9467 306.182 12.76C306.182 12.4667 306.328 12.1333 306.622 11.76C306.915 11.3867 307.275 11.2 307.702 11.2C307.995 11.2 308.395 11.28 308.902 11.44C309.408 11.5733 309.928 11.76 310.462 12C310.995 12.2133 311.448 12.44 311.822 12.68C312.328 13 312.582 13.32 312.582 13.64C312.555 13.9867 312.488 14.56 312.382 15.36C312.302 16.1333 312.262 16.88 312.262 17.6L312.222 41.04C312.222 41.5467 312.182 42.1467 312.102 42.84C312.022 43.5333 311.875 44.2133 311.662 44.88C311.475 45.5467 311.208 46.0933 310.862 46.52C310.542 46.9733 310.142 47.2 309.662 47.2Z" fill="#00411D"/>
<path d="M23.0175 83.5C22.7242 83.5 22.4508 83.3933 22.1975 83.18C21.9575 82.9533 21.8375 82.6133 21.8375 82.16C21.8375 81.64 21.9375 81.16 22.1375 80.72C22.3375 80.28 22.5842 79.9067 22.8775 79.6C23.1842 79.2933 23.4842 79.08 23.7775 78.96C23.8842 78.92 23.9775 78.9 24.0575 78.9C24.1642 78.9 24.2508 78.9533 24.3175 79.06L24.5375 79.42C24.1108 79.6067 23.7575 79.88 23.4775 80.24C23.1975 80.6 23.0042 80.9933 22.8975 81.42C23.2175 81.4333 23.4842 81.5333 23.6975 81.72C23.9108 81.9067 24.0175 82.1467 24.0175 82.44C24.0175 82.7867 23.9175 83.0533 23.7175 83.24C23.5175 83.4133 23.2842 83.5 23.0175 83.5ZM26.1175 83.5C25.8242 83.5 25.5508 83.3933 25.2975 83.18C25.0575 82.9533 24.9375 82.6133 24.9375 82.16C24.9375 81.64 25.0375 81.16 25.2375 80.72C25.4375 80.28 25.6842 79.9067 25.9775 79.6C26.2842 79.2933 26.5842 79.08 26.8775 78.96C26.9842 78.92 27.0775 78.9 27.1575 78.9C27.2642 78.9 27.3508 78.9533 27.4175 79.06L27.6375 79.42C27.2108 79.6067 26.8575 79.88 26.5775 80.24C26.2975 80.6 26.1042 80.9933 25.9975 81.42C26.3175 81.4333 26.5842 81.5333 26.7975 81.72C27.0108 81.9067 27.1175 82.1467 27.1175 82.44C27.1175 82.7867 27.0175 83.0533 26.8175 83.24C26.6175 83.4133 26.3842 83.5 26.1175 83.5ZM37.3653 88.28C36.472 88.2933 35.6653 88.1533 34.9453 87.86C34.2387 87.5533 33.6787 87.1067 33.2653 86.52C32.852 85.9333 32.6453 85.2333 32.6453 84.42C32.672 83.6467 32.8987 82.9667 33.3253 82.38C33.752 81.78 34.3253 81.3067 35.0453 80.96C35.7653 80.6 36.572 80.4067 37.4653 80.38C38.3853 80.3533 39.2053 80.4933 39.9253 80.8C40.6587 81.1067 41.232 81.5467 41.6453 82.12C42.072 82.6933 42.2653 83.3867 42.2253 84.2C42.172 85.0133 41.932 85.7267 41.5053 86.34C41.0787 86.94 40.512 87.4067 39.8053 87.74C39.0987 88.0733 38.2853 88.2533 37.3653 88.28ZM37.3853 87.42C38.412 87.3933 39.252 87.1 39.9053 86.54C40.572 85.9667 40.9187 85.1933 40.9453 84.22C40.9587 83.26 40.6453 82.52 40.0053 82C39.3653 81.48 38.5053 81.2267 37.4253 81.24C36.6653 81.2533 36.0253 81.4067 35.5053 81.7C34.9853 81.9933 34.592 82.38 34.3253 82.86C34.0587 83.3267 33.912 83.84 33.8853 84.4C33.8853 85.0133 34.0387 85.5533 34.3453 86.02C34.652 86.4867 35.072 86.8467 35.6053 87.1C36.1387 87.34 36.732 87.4467 37.3853 87.42ZM30.9453 94.04C30.7053 94.0933 30.5453 94.1133 30.4653 94.1C30.3853 94.0733 30.2787 94.0133 30.1453 93.92C30.0653 93.8667 29.9587 93.78 29.8253 93.66C29.692 93.54 29.572 93.4267 29.4653 93.32C29.3587 93.2 29.292 93.1133 29.2653 93.06C29.2253 92.9933 29.2453 92.9 29.3253 92.78C29.4187 92.66 29.512 92.6133 29.6053 92.64C30.032 92.7333 30.5053 92.8067 31.0253 92.86C31.5587 92.9 32.1787 92.9133 32.8853 92.9C33.0187 92.9 33.152 92.9 33.2853 92.9C33.432 92.9 33.572 92.9 33.7053 92.9C34.2787 92.9 34.852 92.9 35.4253 92.9C36.012 92.9 36.612 92.8867 37.2253 92.86L37.2453 91.38C37.2587 90.98 37.232 90.64 37.1653 90.36C37.0987 90.0667 36.8987 89.8267 36.5653 89.64C36.4187 89.56 36.3987 89.4333 36.5053 89.26C36.6387 89.0467 36.832 88.9733 37.0853 89.04C37.2987 89.0933 37.4853 89.16 37.6453 89.24C37.8187 89.3067 37.9987 89.4133 38.1853 89.56C38.372 89.6933 38.452 89.8133 38.4253 89.92C38.332 90.2933 38.2787 90.74 38.2653 91.26C38.252 91.4733 38.2387 91.7267 38.2253 92.02C38.212 92.3 38.2053 92.5733 38.2053 92.84C38.6987 92.8267 39.192 92.82 39.6853 92.82C40.1787 92.8067 40.6787 92.7867 41.1853 92.76C42.052 92.7333 42.8453 92.6733 43.5653 92.58C44.2853 92.4867 44.792 92.3867 45.0853 92.28C45.232 92.24 45.3453 92.24 45.4253 92.28C45.5053 92.3067 45.5853 92.3733 45.6653 92.48C45.7453 92.5867 45.8253 92.7267 45.9053 92.9C45.9987 93.06 46.0453 93.1933 46.0453 93.3C46.0453 93.3933 45.9987 93.4733 45.9053 93.54C45.812 93.6067 45.7387 93.64 45.6853 93.64C45.072 93.5867 44.3787 93.56 43.6053 93.56C42.8453 93.5467 42.152 93.54 41.5253 93.54C40.7253 93.5533 39.8587 93.5733 38.9253 93.6C37.992 93.6133 37.072 93.6267 36.1653 93.64C35.272 93.6533 34.4587 93.68 33.7253 93.72C33.1387 93.7467 32.6253 93.7867 32.1853 93.84C31.7453 93.8933 31.332 93.96 30.9453 94.04ZM49.5931 90.76C49.4865 90.7733 49.3931 90.72 49.3131 90.6C49.2465 90.4667 49.2065 90.3133 49.1931 90.14L48.7731 84.12C48.7465 83.68 48.6598 83.3467 48.5131 83.12C48.3798 82.88 48.1398 82.6667 47.7931 82.48C47.6598 82.4133 47.6265 82.3 47.6931 82.14C47.7865 81.9 47.9665 81.7933 48.2331 81.82C48.3398 81.8467 48.4931 81.8867 48.6931 81.94C48.8931 81.98 49.0865 82.0333 49.2731 82.1C49.5665 82.1133 49.9731 82.12 50.4931 82.12C51.0265 82.12 51.5798 82.1133 52.1531 82.1C52.7265 82.0733 53.2331 82.0467 53.6731 82.02C54.0998 81.9933 54.4465 81.9467 54.7131 81.88C54.9798 81.8133 55.1665 81.7533 55.2731 81.7C55.3665 81.6467 55.4731 81.6467 55.5931 81.7L56.6131 82.04C56.7731 82.1067 56.8265 82.22 56.7731 82.38C56.7198 82.5267 56.6531 82.7867 56.5731 83.16C56.4931 83.52 56.4198 83.96 56.3531 84.48L55.7931 88.7C55.8998 88.78 56.0398 88.9 56.2131 89.06C56.3998 89.2067 56.4931 89.3267 56.4931 89.42C56.4931 89.5267 56.4465 89.6267 56.3531 89.72C56.2598 89.8 56.1931 89.84 56.1531 89.84C55.8198 89.8133 55.4131 89.8 54.9331 89.8C54.4665 89.8 53.9598 89.8067 53.4131 89.82C52.8798 89.8333 52.3531 89.8467 51.8331 89.86C51.3131 89.8733 50.8465 89.8933 50.4331 89.92C50.3265 89.92 50.2465 89.92 50.1931 89.92C50.1798 90.16 50.1131 90.36 49.9931 90.52C49.8731 90.6667 49.7398 90.7467 49.5931 90.76ZM50.1531 89.1C50.2998 89.1 50.5731 89.1 50.9731 89.1C51.3731 89.0867 51.8265 89.0733 52.3331 89.06C52.8531 89.0333 53.3465 89.0067 53.8131 88.98C54.2931 88.9533 54.6731 88.92 54.9531 88.88C55.0331 87.6267 55.0931 86.4867 55.1331 85.46C55.1865 84.42 55.2198 83.6 55.2331 83C55.2331 82.8933 55.2131 82.8333 55.1731 82.82C55.1465 82.7933 55.1198 82.78 55.0931 82.78C54.8265 82.78 54.4731 82.7867 54.0331 82.8C53.6065 82.8 53.1465 82.8067 52.6531 82.82C52.1598 82.8333 51.6665 82.8533 51.1731 82.88C50.6931 82.8933 50.2731 82.9067 49.9131 82.92L50.1531 89.1ZM60.5531 96.44C60.4065 96.44 60.3265 96.3733 60.3131 96.24C60.2998 96.1333 60.2798 95.94 60.2531 95.66C60.2398 95.3667 60.2265 95.0533 60.2131 94.72C60.1998 94.3733 60.1931 94.0733 60.1931 93.82V81.56C60.1931 81.1467 60.1731 80.8267 60.1331 80.6C60.1065 80.3733 60.0198 80.1867 59.8731 80.04C59.7398 79.88 59.4998 79.7133 59.1531 79.54C59.0465 79.4733 58.9931 79.4067 58.9931 79.34C58.9931 79.2733 59.0398 79.1867 59.1331 79.08C59.2265 78.96 59.3265 78.9 59.4331 78.9C59.5931 78.9 59.7931 78.94 60.0331 79.02C60.2731 79.1 60.5065 79.1933 60.7331 79.3C60.9598 79.3933 61.1265 79.48 61.2331 79.56C61.3931 79.68 61.4665 79.8133 61.4531 79.96C61.4131 80.24 61.3798 80.5 61.3531 80.74C61.3398 80.98 61.3331 81.26 61.3331 81.58V93.78C61.3331 93.9933 61.3198 94.2533 61.2931 94.56C61.2798 94.8533 61.2465 95.1467 61.1931 95.44C61.1398 95.72 61.0598 95.9533 60.9531 96.14C60.8598 96.34 60.7265 96.44 60.5531 96.44ZM65.2402 91.7C65.1068 91.78 64.9468 91.8 64.7602 91.76C64.5868 91.7067 64.4868 91.6267 64.4602 91.52C64.4602 91.4267 64.5135 91.3467 64.6202 91.28C65.5535 90.6 66.4268 89.8067 67.2402 88.9C68.0668 87.9933 68.7668 87.0467 69.3402 86.06C69.9268 85.06 70.3068 84.1 70.4802 83.18C70.4935 83.0333 70.4402 82.9 70.3202 82.78C70.2135 82.6467 70.0202 82.5467 69.7402 82.48L69.1202 82.52C68.8802 82.5467 68.5535 82.5867 68.1402 82.64C67.7402 82.6933 67.3868 82.7467 67.0802 82.8C66.8535 82.8533 66.6935 82.86 66.6002 82.82C66.5068 82.78 66.4202 82.72 66.3402 82.64C66.2202 82.52 66.1068 82.3933 66.0002 82.26C65.8935 82.1133 65.8202 82.0067 65.7802 81.94C65.7535 81.8733 65.7668 81.7867 65.8202 81.68C65.8735 81.5733 65.9468 81.5267 66.0402 81.54C66.6535 81.6467 67.3268 81.7 68.0602 81.7C68.7935 81.7 69.4535 81.6867 70.0402 81.66C70.7735 81.62 71.5268 81.56 72.3002 81.48C73.0868 81.4 73.7468 81.3 74.2802 81.18C74.4268 81.14 74.5335 81.14 74.6002 81.18C74.6668 81.2067 74.7268 81.26 74.7802 81.34C74.8335 81.4333 74.8802 81.5733 74.9202 81.76C74.9735 81.9333 75.0002 82.06 75.0002 82.14C75.0002 82.22 74.9535 82.2933 74.8602 82.36C74.7802 82.4267 74.7202 82.46 74.6802 82.46C74.2668 82.4333 73.7402 82.4133 73.1002 82.4C72.4735 82.3867 71.7668 82.3933 70.9802 82.42C71.2068 82.5267 71.4202 82.6667 71.6202 82.84C71.8202 83 71.9135 83.1667 71.9002 83.34C71.7535 84.06 71.3268 84.9867 70.6202 86.12C71.2335 86.6133 71.7535 87.0267 72.1802 87.36C72.6202 87.6933 73.0202 87.98 73.3802 88.22C73.7535 88.4467 74.1468 88.6667 74.5602 88.88C74.8268 89.0933 75.0002 89.3667 75.0802 89.7C75.1735 90.02 75.2135 90.3133 75.2002 90.58C75.2002 90.6733 75.1468 90.76 75.0402 90.84C74.9335 90.92 74.8202 90.9733 74.7002 91C74.5802 91.0267 74.5002 91.02 74.4602 90.98C74.0468 90.4067 73.5868 89.8533 73.0802 89.32C72.5868 88.7867 72.0935 88.2933 71.6002 87.84C71.1068 87.3867 70.6602 87 70.2602 86.68C69.6335 87.5867 68.8868 88.4933 68.0202 89.4C67.1668 90.3067 66.2402 91.0733 65.2402 91.7ZM77.5602 96.44C77.4135 96.44 77.3335 96.3733 77.3202 96.24C77.3068 96.1333 77.2868 95.94 77.2602 95.66C77.2468 95.3667 77.2335 95.0533 77.2202 94.72C77.2068 94.3733 77.2002 94.0733 77.2002 93.82V81.56C77.2002 81.1467 77.1802 80.8267 77.1402 80.6C77.1135 80.3733 77.0268 80.1867 76.8802 80.04C76.7468 79.88 76.5068 79.7133 76.1602 79.54C76.0535 79.4733 76.0002 79.4067 76.0002 79.34C76.0002 79.2733 76.0468 79.1867 76.1402 79.08C76.2335 78.96 76.3335 78.9 76.4402 78.9C76.6002 78.9 76.8002 78.94 77.0402 79.02C77.2802 79.1 77.5135 79.1933 77.7402 79.3C77.9668 79.3933 78.1335 79.48 78.2402 79.56C78.4002 79.68 78.4735 79.8133 78.4602 79.96C78.4202 80.24 78.3868 80.5 78.3602 80.74C78.3468 80.98 78.3402 81.26 78.3402 81.58V87.04C79.0468 87.04 79.6668 86.9867 80.2002 86.88C80.7468 86.76 81.1268 86.6667 81.3402 86.6C81.4868 86.5467 81.5935 86.54 81.6602 86.58C81.7268 86.62 81.7868 86.68 81.8402 86.76C81.9068 86.8533 81.9735 86.9933 82.0402 87.18C82.1202 87.3667 82.1602 87.5067 82.1602 87.6C82.1602 87.68 82.1135 87.7533 82.0202 87.82C81.9402 87.8867 81.8802 87.92 81.8402 87.92C81.3468 87.8533 80.8335 87.82 80.3002 87.82C79.7802 87.8067 79.2535 87.8 78.7202 87.8C78.6535 87.8 78.5868 87.8 78.5202 87.8C78.4668 87.8 78.4068 87.8 78.3402 87.8V93.78C78.3402 93.9933 78.3268 94.2533 78.3002 94.56C78.2868 94.8533 78.2535 95.1467 78.2002 95.44C78.1468 95.72 78.0668 95.9533 77.9602 96.14C77.8668 96.34 77.7335 96.44 77.5602 96.44ZM98.9253 97.64C98.1253 97.64 97.4187 97.5 96.8053 97.22C96.192 96.94 95.712 96.5533 95.3653 96.06C95.032 95.5667 94.8653 95 94.8653 94.36C94.8653 93.7333 95.052 93.1733 95.4253 92.68C95.812 92.1733 96.3187 91.7733 96.9453 91.48C97.572 91.1867 98.2587 91.04 99.0053 91.04C99.752 91.04 100.432 91.16 101.045 91.4C101.672 91.64 102.172 92 102.545 92.48C102.919 92.96 103.092 93.56 103.065 94.28C103.065 94.9333 102.879 95.5133 102.505 96.02C102.132 96.5267 101.632 96.92 101.005 97.2C100.379 97.4933 99.6853 97.64 98.9253 97.64ZM94.8853 90.16C94.0853 90.1733 93.412 90.04 92.8653 89.76C92.332 89.4667 91.9253 89.0933 91.6453 88.64C91.3653 88.1867 91.2253 87.74 91.2253 87.3C91.2253 86.8333 91.3453 86.38 91.5853 85.94C91.8253 85.4867 92.212 85.1067 92.7453 84.8C93.2787 84.4933 93.9853 84.3267 94.8653 84.3C96.0387 84.2733 96.952 84.54 97.6053 85.1C98.2587 85.6467 98.572 86.3467 98.5453 87.2C98.532 87.68 98.3853 88.1467 98.1053 88.6C97.8253 89.04 97.4187 89.4067 96.8853 89.7C96.352 89.98 95.6853 90.1333 94.8853 90.16ZM98.9653 96.74C99.7653 96.7267 100.439 96.5067 100.985 96.08C101.532 95.6533 101.819 95.0467 101.845 94.26C101.845 93.5 101.565 92.9133 101.005 92.5C100.459 92.0867 99.7853 91.88 98.9853 91.88C98.172 91.9067 97.4787 92.1467 96.9053 92.6C96.3453 93.04 96.0653 93.62 96.0653 94.34C96.0653 95.0733 96.3387 95.6533 96.8853 96.08C97.4453 96.52 98.1387 96.74 98.9653 96.74ZM102.565 91.14C102.445 91.18 102.352 91.18 102.285 91.14C102.232 91.0867 102.199 91.0333 102.185 90.98C102.132 90.8067 102.099 90.5267 102.085 90.14C102.085 89.74 102.085 89.3933 102.085 89.1C102.085 89.0067 102.085 88.94 102.085 88.9V81.54C102.085 81.14 102.065 80.8267 102.025 80.6C101.999 80.3733 101.919 80.18 101.785 80.02C101.652 79.86 101.425 79.6867 101.105 79.5C100.959 79.3933 100.925 79.2733 101.005 79.14C101.152 78.9 101.339 78.8 101.565 78.84C101.792 78.8667 102.052 78.9533 102.345 79.1C102.652 79.2333 102.905 79.36 103.105 79.48C103.265 79.5733 103.345 79.7 103.345 79.86C103.305 80.0867 103.279 80.3133 103.265 80.54C103.252 80.7667 103.245 81.02 103.245 81.3V82.84C103.912 82.8267 104.465 82.7733 104.905 82.68C105.345 82.5867 105.665 82.5067 105.865 82.44C106.012 82.3867 106.119 82.38 106.185 82.42C106.252 82.46 106.312 82.52 106.365 82.6C106.419 82.6933 106.479 82.8133 106.545 82.96C106.612 83.1067 106.645 83.22 106.645 83.3C106.645 83.38 106.599 83.4533 106.505 83.52C106.425 83.5867 106.365 83.62 106.325 83.62C105.952 83.58 105.585 83.56 105.225 83.56C104.865 83.56 104.499 83.5667 104.125 83.58C103.979 83.58 103.832 83.58 103.685 83.58C103.539 83.58 103.392 83.58 103.245 83.58V86.72C103.925 86.72 104.492 86.68 104.945 86.6C105.399 86.52 105.739 86.4467 105.965 86.38C106.112 86.3267 106.219 86.32 106.285 86.36C106.352 86.4 106.412 86.46 106.465 86.54C106.519 86.6333 106.579 86.76 106.645 86.92C106.712 87.08 106.745 87.2 106.745 87.28C106.745 87.36 106.699 87.4333 106.605 87.5C106.525 87.5667 106.465 87.6 106.425 87.6C105.892 87.5467 105.365 87.5133 104.845 87.5C104.339 87.4733 103.805 87.46 103.245 87.46V88.76C103.245 89.0133 103.225 89.32 103.185 89.68C103.159 90.0267 103.092 90.3467 102.985 90.64C102.892 90.92 102.752 91.0867 102.565 91.14ZM94.8853 89.3C95.6453 89.2733 96.2387 89.0667 96.6653 88.68C97.092 88.28 97.3187 87.7867 97.3453 87.2C97.372 86.9067 97.2987 86.5933 97.1253 86.26C96.9653 85.9267 96.6987 85.64 96.3253 85.4C95.952 85.16 95.4587 85.0533 94.8453 85.08C93.992 85.1067 93.3653 85.34 92.9653 85.78C92.5653 86.22 92.3653 86.72 92.3653 87.28C92.3653 87.6267 92.4653 87.96 92.6653 88.28C92.8787 88.6 93.172 88.8533 93.5453 89.04C93.932 89.2267 94.3787 89.3133 94.8853 89.3ZM90.8853 83.62C90.6587 83.66 90.492 83.66 90.3853 83.62C90.2787 83.58 90.1787 83.5133 90.0853 83.42C89.9653 83.3 89.8587 83.18 89.7653 83.06C89.672 82.94 89.6053 82.8467 89.5653 82.78C89.5253 82.7133 89.5387 82.6267 89.6053 82.52C89.672 82.4133 89.752 82.3733 89.8453 82.4C90.272 82.48 90.792 82.5333 91.4053 82.56C92.032 82.5867 92.652 82.5933 93.2653 82.58C93.8787 82.5667 94.3787 82.5533 94.7653 82.54C95.7653 82.5 96.672 82.44 97.4853 82.36C98.2987 82.28 98.9653 82.1667 99.4853 82.02C99.632 81.98 99.7387 81.98 99.8053 82.02C99.872 82.0467 99.932 82.1067 99.9853 82.2C100.039 82.2933 100.085 82.42 100.125 82.58C100.179 82.7267 100.205 82.8467 100.205 82.94C100.205 83.02 100.159 83.0933 100.065 83.16C99.9853 83.2133 99.9253 83.24 99.8853 83.24C99.4053 83.2133 98.8053 83.2 98.0853 83.2C97.3787 83.1867 96.6053 83.1933 95.7653 83.22C94.9387 83.2333 94.0987 83.2733 93.2453 83.34C92.4053 83.4067 91.6187 83.5 90.8853 83.62ZM94.1453 80.96C93.932 80.9333 93.6587 80.88 93.3253 80.8C92.992 80.7067 92.6787 80.6 92.3853 80.48C92.1053 80.36 91.912 80.24 91.8053 80.12C91.7387 80.04 91.732 79.92 91.7853 79.76C91.8387 79.6 91.9253 79.5333 92.0453 79.56C92.6853 79.6933 93.3587 79.78 94.0653 79.82C94.7853 79.86 95.452 79.8667 96.0653 79.84C96.692 79.8133 97.1853 79.7867 97.5453 79.76C97.6387 79.7467 97.7187 79.7867 97.7853 79.88C97.8653 79.96 97.912 80.0267 97.9253 80.08C97.9387 80.1867 97.892 80.3133 97.7853 80.46C97.6787 80.5933 97.5653 80.68 97.4453 80.72C97.2987 80.7733 97.0253 80.8267 96.6253 80.88C96.2387 80.92 95.8187 80.9533 95.3653 80.98C94.912 80.9933 94.5053 80.9867 94.1453 80.96ZM117.074 85.98C116.287 86.0067 115.561 85.8867 114.894 85.62C114.227 85.3533 113.694 84.9667 113.294 84.46C112.907 83.94 112.714 83.34 112.714 82.66C112.714 81.9933 112.914 81.4067 113.314 80.9C113.714 80.38 114.247 79.9667 114.914 79.66C115.581 79.3533 116.307 79.1933 117.094 79.18C117.894 79.1533 118.627 79.2667 119.294 79.52C119.961 79.7733 120.487 80.1533 120.874 80.66C121.274 81.1533 121.474 81.7667 121.474 82.5C121.474 83.1533 121.274 83.74 120.874 84.26C120.474 84.78 119.941 85.1933 119.274 85.5C118.607 85.7933 117.874 85.9533 117.074 85.98ZM114.814 97.18C114.227 97.1933 113.787 97.08 113.494 96.84C113.201 96.6133 113.054 96.2067 113.054 95.62V94.64C113.054 94.5733 113.047 94.5067 113.034 94.44C113.034 94.3733 113.007 94.3267 112.954 94.3C112.821 94.2333 112.667 94.14 112.494 94.02C112.321 93.8867 112.214 93.7867 112.174 93.72C112.134 93.6533 112.147 93.5533 112.214 93.42C112.294 93.2733 112.374 93.2133 112.454 93.24C112.681 93.2933 112.927 93.3333 113.194 93.36C113.461 93.3733 113.761 93.3867 114.094 93.4C114.321 93.4 114.647 93.4 115.074 93.4C115.501 93.3867 115.974 93.38 116.494 93.38C117.014 93.3667 117.541 93.3533 118.074 93.34C118.607 93.3133 119.087 93.2933 119.514 93.28C119.954 93.2533 120.294 93.2267 120.534 93.2C120.547 93.12 120.561 92.9733 120.574 92.76C120.601 92.5333 120.621 92.2867 120.634 92.02C120.661 91.7533 120.674 91.52 120.674 91.32C120.674 91.24 120.661 91.1933 120.634 91.18C120.607 91.1667 120.561 91.16 120.494 91.16L115.754 91.4C115.287 91.4133 114.847 91.44 114.434 91.48C114.034 91.52 113.747 91.5533 113.574 91.58C113.307 91.62 113.094 91.5867 112.934 91.48C112.814 91.4 112.681 91.3 112.534 91.18C112.401 91.06 112.321 90.9667 112.294 90.9C112.267 90.82 112.294 90.7267 112.374 90.62C112.467 90.5 112.561 90.4533 112.654 90.48C112.827 90.52 113.067 90.5533 113.374 90.58C113.681 90.6067 114.007 90.6333 114.354 90.66C114.701 90.6733 115.007 90.68 115.274 90.68C115.567 90.68 115.961 90.6733 116.454 90.66C116.947 90.6467 117.467 90.6267 118.014 90.6C118.561 90.5733 119.067 90.5333 119.534 90.48C120.001 90.4267 120.354 90.36 120.594 90.28C120.607 90.28 120.627 90.2733 120.654 90.26C120.694 90.26 120.734 90.26 120.774 90.26C120.814 90.2467 120.861 90.2467 120.914 90.26L121.834 90.48C121.981 90.52 122.021 90.6267 121.954 90.8C121.927 90.8533 121.887 90.98 121.834 91.18C121.781 91.3667 121.721 91.5867 121.654 91.84C121.601 92.08 121.541 92.3133 121.474 92.54C121.421 92.7667 121.381 92.94 121.354 93.06C121.461 93.1267 121.594 93.2133 121.754 93.32C121.927 93.4133 122.014 93.4933 122.014 93.56C122.014 93.6667 121.961 93.7867 121.854 93.92C121.761 94.04 121.694 94.0933 121.654 94.08C121.494 94.0667 121.194 94.06 120.754 94.06C120.314 94.0467 119.794 94.04 119.194 94.04C118.607 94.04 117.994 94.0467 117.354 94.06C116.727 94.06 116.134 94.0733 115.574 94.1C115.027 94.1267 114.574 94.1533 114.214 94.18V95.5C114.214 95.8867 114.261 96.1267 114.354 96.22C114.447 96.3133 114.627 96.3667 114.894 96.38C114.934 96.38 115.021 96.38 115.154 96.38C115.421 96.38 115.787 96.38 116.254 96.38C116.734 96.38 117.247 96.3733 117.794 96.36C118.341 96.3467 118.867 96.3267 119.374 96.3C120.067 96.2733 120.621 96.2267 121.034 96.16C121.461 96.1067 121.827 96.0267 122.134 95.92C122.307 95.8533 122.434 95.8333 122.514 95.86C122.594 95.8867 122.674 95.9467 122.754 96.04C122.847 96.12 122.934 96.2267 123.014 96.36C123.094 96.4933 123.141 96.6 123.154 96.68C123.167 96.76 123.121 96.8533 123.014 96.96C122.907 97.0667 122.827 97.12 122.774 97.12C122.134 97.0933 121.587 97.08 121.134 97.08C120.681 97.08 120.167 97.0867 119.594 97.1C119.554 97.1 119.507 97.1 119.454 97.1C119.401 97.1 119.347 97.1 119.294 97.1L114.814 97.18ZM117.094 85.14C118.001 85.1 118.747 84.8467 119.334 84.38C119.921 83.9133 120.227 83.2867 120.254 82.5C120.281 81.94 120.154 81.48 119.874 81.12C119.594 80.7467 119.207 80.4733 118.714 80.3C118.234 80.1133 117.687 80.02 117.074 80.02C116.474 80.02 115.927 80.14 115.434 80.38C114.954 80.6067 114.567 80.92 114.274 81.32C113.994 81.7067 113.854 82.1467 113.854 82.64C113.854 83.4533 114.167 84.08 114.794 84.52C115.421 84.96 116.187 85.1667 117.094 85.14ZM109.654 89.1C109.521 89.1 109.374 89.04 109.214 88.92C109.147 88.8667 109.047 88.7867 108.914 88.68C108.794 88.56 108.681 88.4467 108.574 88.34C108.467 88.22 108.401 88.14 108.374 88.1C108.347 88.0333 108.361 87.9467 108.414 87.84C108.481 87.7333 108.561 87.68 108.654 87.68C109.041 87.7467 109.501 87.8067 110.034 87.86C110.581 87.9 111.261 87.92 112.074 87.92C112.567 87.92 113.187 87.9133 113.934 87.9C114.694 87.8733 115.501 87.8467 116.354 87.82C117.221 87.7933 118.061 87.7667 118.874 87.74C119.701 87.7 120.427 87.66 121.054 87.62C121.401 87.5933 121.794 87.5667 122.234 87.54C122.687 87.5 123.114 87.4533 123.514 87.4C123.914 87.3467 124.214 87.3 124.414 87.26C124.641 87.2067 124.794 87.1667 124.874 87.14C124.967 87.1133 125.047 87.1 125.114 87.1C125.207 87.1 125.314 87.18 125.434 87.34C125.501 87.4467 125.567 87.5733 125.634 87.72C125.714 87.8533 125.754 87.9667 125.754 88.06C125.754 88.18 125.701 88.2733 125.594 88.34C125.501 88.4067 125.441 88.44 125.414 88.44C125.187 88.4133 124.921 88.4 124.614 88.4C124.307 88.3867 124.007 88.38 123.714 88.38C123.434 88.3667 123.201 88.36 123.014 88.36C122.694 88.36 122.254 88.3667 121.694 88.38C121.147 88.3933 120.534 88.4133 119.854 88.44C119.174 88.4533 118.481 88.4733 117.774 88.5C117.067 88.5267 116.387 88.5533 115.734 88.58C115.094 88.6067 114.534 88.6333 114.054 88.66C113.587 88.6733 113.247 88.6867 113.034 88.7C112.634 88.7133 112.227 88.7467 111.814 88.8C111.401 88.84 111.027 88.8867 110.694 88.94C110.374 88.98 110.154 89.0133 110.034 89.04C109.981 89.0533 109.921 89.0667 109.854 89.08C109.787 89.0933 109.721 89.1 109.654 89.1ZM139.365 97.7C139.111 97.74 138.965 97.5533 138.925 97.14L138.625 93.18C138.598 92.7267 138.525 92.4 138.405 92.2C138.285 92 138.051 91.8133 137.705 91.64C137.571 91.6 137.538 91.4867 137.605 91.3C137.658 91.1533 137.731 91.0667 137.825 91.04C137.918 91 138.018 90.9867 138.125 91C138.271 91.0267 138.465 91.0667 138.705 91.12C138.945 91.1733 139.158 91.2267 139.345 91.28C139.478 91.28 139.745 91.28 140.145 91.28C140.558 91.2667 141.025 91.26 141.545 91.26C142.065 91.2467 142.571 91.2333 143.065 91.22C143.571 91.1933 143.985 91.1667 144.305 91.14C144.651 91.1133 144.978 91.08 145.285 91.04C145.591 91 145.818 90.9467 145.965 90.88C145.978 90.8667 145.998 90.8533 146.025 90.84C146.105 90.8133 146.185 90.8133 146.265 90.84L147.325 91.1C147.445 91.1267 147.485 91.22 147.445 91.38C147.405 91.54 147.358 91.7933 147.305 92.14C147.251 92.4733 147.205 92.78 147.165 93.06C147.138 93.2733 147.098 93.5533 147.045 93.9C147.005 94.2333 146.965 94.58 146.925 94.94C146.885 95.2867 146.851 95.5867 146.825 95.84C146.918 95.9067 147.045 96.0067 147.205 96.14C147.378 96.2733 147.465 96.3867 147.465 96.48C147.465 96.5733 147.418 96.6733 147.325 96.78C147.231 96.9 147.171 96.96 147.145 96.96C146.678 96.92 146.111 96.8933 145.445 96.88C144.791 96.88 144.111 96.8867 143.405 96.9C142.711 96.9133 142.051 96.9267 141.425 96.94C140.811 96.9667 140.305 96.9867 139.905 97C139.878 97.2133 139.811 97.3733 139.705 97.48C139.598 97.6 139.485 97.6733 139.365 97.7ZM139.885 96.18C139.925 96.18 140.105 96.18 140.425 96.18C140.745 96.18 141.145 96.1733 141.625 96.16C142.118 96.16 142.631 96.1533 143.165 96.14C143.711 96.1267 144.225 96.1067 144.705 96.08C145.198 96.0533 145.598 96.0267 145.905 96L146.085 92.02C146.085 91.9267 146.065 91.8733 146.025 91.86C145.985 91.8467 145.945 91.84 145.905 91.84C145.891 91.84 145.885 91.84 145.885 91.84C145.605 91.8533 145.205 91.8667 144.685 91.88C144.165 91.8933 143.598 91.9133 142.985 91.94C142.371 91.9533 141.771 91.9667 141.185 91.98C140.598 91.9933 140.105 92.0067 139.705 92.02L139.885 96.18ZM136.165 88.66C135.885 88.66 135.658 88.52 135.485 88.24C135.311 87.9467 135.225 87.6067 135.225 87.22V83.34C135.225 82.9133 135.165 82.5733 135.045 82.32C134.925 82.0533 134.671 81.8267 134.285 81.64C134.138 81.5733 134.098 81.4667 134.165 81.32C134.311 81.0533 134.491 80.9333 134.705 80.96C134.851 80.9867 135.045 81.0333 135.285 81.1C135.525 81.1533 135.738 81.2133 135.925 81.28C136.271 81.2933 136.718 81.2933 137.265 81.28C137.811 81.2667 138.378 81.24 138.965 81.2C139.551 81.16 140.091 81.1067 140.585 81.04C141.078 80.9733 141.445 80.8933 141.685 80.8C141.845 80.7467 141.958 80.7333 142.025 80.76C142.105 80.7867 142.178 80.8467 142.245 80.94C142.298 81.0067 142.365 81.1133 142.445 81.26C142.525 81.4067 142.565 81.52 142.565 81.6C142.565 81.6933 142.525 81.78 142.445 81.86C142.378 81.94 142.318 81.98 142.265 81.98C141.811 81.94 141.245 81.9267 140.565 81.94C139.885 81.9533 139.171 81.9733 138.425 82C137.678 82.0267 136.985 82.06 136.345 82.1V86.86C136.345 86.8733 136.345 86.8933 136.345 86.92C136.345 87.08 136.365 87.2267 136.405 87.36C136.445 87.4933 136.591 87.56 136.845 87.56C137.711 87.5467 138.565 87.48 139.405 87.36C140.245 87.24 141.031 87.0933 141.765 86.92C142.498 86.7467 143.145 86.5667 143.705 86.38C144.265 86.1933 144.698 86.0267 145.005 85.88C145.258 85.7867 145.398 85.82 145.425 85.98C145.465 86.14 145.378 86.3067 145.165 86.48C144.991 86.6267 144.658 86.7933 144.165 86.98C143.671 87.1667 143.078 87.36 142.385 87.56C141.705 87.76 140.985 87.9467 140.225 88.12C139.478 88.28 138.751 88.4133 138.045 88.52C137.338 88.6133 136.711 88.66 136.165 88.66ZM146.425 89.82C146.305 89.82 146.231 89.7533 146.205 89.62C146.178 89.4867 146.151 89.2867 146.125 89.02C146.111 88.7533 146.105 88.48 146.105 88.2C146.105 87.9067 146.105 87.6733 146.105 87.5V81.5C146.105 81.1 146.085 80.7867 146.045 80.56C146.018 80.3333 145.931 80.14 145.785 79.98C145.651 79.82 145.425 79.6467 145.105 79.46C144.971 79.3667 144.938 79.2467 145.005 79.1C145.125 78.9 145.285 78.8 145.485 78.8C145.685 78.8 145.951 78.8733 146.285 79.02C146.618 79.1667 146.891 79.3067 147.105 79.44C147.171 79.48 147.231 79.5333 147.285 79.6C147.338 79.6667 147.358 79.74 147.345 79.82C147.305 80.0467 147.278 80.2733 147.265 80.5C147.251 80.7267 147.245 80.98 147.245 81.26V84.76C147.925 84.76 148.491 84.7133 148.945 84.62C149.398 84.5133 149.738 84.4267 149.965 84.36C150.111 84.3067 150.218 84.3 150.285 84.34C150.351 84.38 150.411 84.4467 150.465 84.54C150.518 84.62 150.578 84.7533 150.645 84.94C150.711 85.1133 150.745 85.24 150.745 85.32C150.745 85.4 150.698 85.4733 150.605 85.54C150.525 85.6067 150.465 85.64 150.425 85.64C149.891 85.5867 149.365 85.5533 148.845 85.54C148.338 85.5133 147.805 85.5 147.245 85.5V87.36C147.245 87.56 147.231 87.8 147.205 88.08C147.191 88.3467 147.151 88.6133 147.085 88.88C147.031 89.1467 146.951 89.3733 146.845 89.56C146.738 89.7333 146.598 89.82 146.425 89.82ZM161.183 86.6C160.37 86.6133 159.616 86.48 158.923 86.2C158.243 85.92 157.696 85.5133 157.283 84.98C156.87 84.4467 156.663 83.82 156.663 83.1C156.663 82.42 156.87 81.8067 157.283 81.26C157.696 80.7133 158.243 80.28 158.923 79.96C159.616 79.6267 160.376 79.4533 161.203 79.44C162.03 79.44 162.783 79.5733 163.463 79.84C164.143 80.1067 164.69 80.5 165.103 81.02C165.516 81.54 165.723 82.18 165.723 82.94C165.723 83.6333 165.516 84.2533 165.103 84.8C164.69 85.3467 164.136 85.78 163.443 86.1C162.763 86.4067 162.01 86.5733 161.183 86.6ZM161.203 85.74C162.163 85.7 162.943 85.44 163.543 84.96C164.156 84.4667 164.476 83.7933 164.503 82.94C164.53 82.3267 164.396 81.8267 164.103 81.44C163.81 81.0533 163.41 80.7667 162.903 80.58C162.396 80.3933 161.823 80.3 161.183 80.3C160.556 80.3 159.983 80.42 159.463 80.66C158.956 80.8867 158.556 81.2133 158.263 81.64C157.97 82.0533 157.823 82.5333 157.823 83.08C157.823 83.9733 158.15 84.6467 158.803 85.1C159.456 85.5533 160.256 85.7667 161.203 85.74ZM153.823 90.28C153.596 90.3333 153.436 90.3533 153.343 90.34C153.263 90.3133 153.156 90.2533 153.023 90.16C152.943 90.1067 152.836 90.0267 152.703 89.92C152.57 89.8133 152.443 89.7067 152.323 89.6C152.216 89.48 152.156 89.3933 152.143 89.34C152.13 89.2733 152.163 89.18 152.243 89.06C152.323 88.94 152.396 88.8933 152.463 88.92C152.89 89.0133 153.403 89.0867 154.003 89.14C154.603 89.18 155.256 89.1933 155.963 89.18C157.256 89.1667 158.663 89.1467 160.183 89.12C161.716 89.0933 163.223 89.0467 164.703 88.98C165.57 88.94 166.363 88.88 167.083 88.8C167.816 88.72 168.336 88.6333 168.643 88.54C168.79 88.4867 168.903 88.48 168.983 88.52C169.076 88.56 169.156 88.6267 169.223 88.72C169.303 88.8267 169.376 88.9533 169.443 89.1C169.51 89.2467 169.543 89.3667 169.543 89.46C169.543 89.5533 169.496 89.64 169.403 89.72C169.31 89.7867 169.243 89.82 169.203 89.82C168.71 89.7533 168.163 89.72 167.563 89.72C166.963 89.7067 166.39 89.7067 165.843 89.72C165.696 89.72 165.556 89.72 165.423 89.72C165.29 89.72 165.156 89.72 165.023 89.72C164.423 89.7333 163.763 89.7533 163.043 89.78C162.323 89.7933 161.583 89.8133 160.823 89.84C160.076 89.8533 159.356 89.8733 158.663 89.9C157.983 89.9133 157.37 89.9333 156.823 89.96C156.223 89.9867 155.67 90.0267 155.163 90.08C154.67 90.1333 154.223 90.2 153.823 90.28ZM158.643 97.08C157.336 97.08 156.683 96.4733 156.683 95.26V94.16C156.683 93.7867 156.63 93.4733 156.523 93.22C156.43 92.9533 156.23 92.7533 155.923 92.62C155.843 92.5933 155.79 92.54 155.763 92.46C155.736 92.38 155.736 92.3067 155.763 92.24C155.896 92.0133 156.07 91.9067 156.283 91.92C156.456 91.9467 156.69 92.0133 156.983 92.12C157.276 92.2267 157.523 92.3333 157.723 92.44C157.883 92.5333 157.95 92.6467 157.923 92.78C157.896 92.8733 157.87 93.04 157.843 93.28C157.83 93.52 157.823 93.7533 157.823 93.98V95.16C157.823 95.6267 157.903 95.92 158.063 96.04C158.236 96.1733 158.463 96.2467 158.743 96.26C158.876 96.2733 159.116 96.28 159.463 96.28C159.823 96.28 160.223 96.2733 160.663 96.26C161.103 96.2467 161.523 96.2333 161.923 96.22C162.336 96.2067 162.67 96.1933 162.923 96.18C163.616 96.14 164.236 96.0733 164.783 95.98C165.343 95.8867 165.736 95.8067 165.963 95.74C166.256 95.6467 166.463 95.6867 166.583 95.86C166.65 95.9667 166.723 96.0933 166.803 96.24C166.883 96.3867 166.93 96.5067 166.943 96.6C166.956 96.6933 166.91 96.78 166.803 96.86C166.71 96.9533 166.636 97 166.583 97C166.116 96.9733 165.696 96.9533 165.323 96.94C164.963 96.94 164.576 96.94 164.163 96.94C163.763 96.9533 163.27 96.9733 162.683 97C162.003 97.0267 161.323 97.0467 160.643 97.06C159.963 97.0733 159.296 97.08 158.643 97.08ZM177.754 90.32C177.634 90.3867 177.5 90.4067 177.354 90.38C177.207 90.34 177.114 90.28 177.074 90.2C177.034 90.0933 177.074 89.9867 177.194 89.88C177.78 89.48 178.36 88.9733 178.934 88.36C179.507 87.7467 180.04 87.0933 180.534 86.4C181.04 85.7067 181.467 85.0333 181.814 84.38C182.174 83.7267 182.42 83.1533 182.554 82.66C182.674 82.3267 182.74 81.9933 182.754 81.66C182.78 81.3133 182.667 81.0533 182.414 80.88C182.307 80.84 182.247 80.7867 182.234 80.72C182.22 80.64 182.234 80.5667 182.274 80.5C182.38 80.3133 182.487 80.2133 182.594 80.2C182.7 80.1733 182.84 80.1933 183.014 80.26C183.094 80.2867 183.22 80.3467 183.394 80.44C183.567 80.52 183.734 80.6067 183.894 80.7C184.054 80.7933 184.16 80.8667 184.214 80.92C184.334 81.0133 184.42 81.1067 184.474 81.2C184.54 81.28 184.56 81.3467 184.534 81.4C184.414 81.64 184.28 81.9267 184.134 82.26C183.987 82.58 183.847 82.88 183.714 83.16C183.58 83.44 183.44 83.7267 183.294 84.02C183.147 84.3 182.98 84.5867 182.794 84.88C183.634 85.5867 184.394 86.14 185.074 86.54C185.767 86.94 186.347 87.2467 186.814 87.46C187 87.5933 187.147 87.82 187.254 88.14C187.374 88.4467 187.407 88.7333 187.354 89C187.327 89.1467 187.207 89.2667 186.994 89.36C186.794 89.44 186.68 89.4533 186.654 89.4C186.427 89.08 186.134 88.74 185.774 88.38C185.414 88.0067 185.02 87.6333 184.594 87.26C184.18 86.8867 183.78 86.5467 183.394 86.24C183.02 85.92 182.7 85.66 182.434 85.46C182.007 86.1133 181.534 86.7533 181.014 87.38C180.494 88.0067 179.954 88.58 179.394 89.1C178.847 89.6067 178.3 90.0133 177.754 90.32ZM190.214 92.36C190.094 92.36 190.02 92.2933 189.994 92.16C189.967 92.0267 189.94 91.82 189.914 91.54C189.9 91.2467 189.894 90.9467 189.894 90.64C189.894 90.3333 189.894 90.0933 189.894 89.92V81.5C189.894 81.1 189.874 80.7867 189.834 80.56C189.807 80.3333 189.727 80.14 189.594 79.98C189.46 79.82 189.234 79.6467 188.914 79.46C188.767 79.3533 188.734 79.2333 188.814 79.1C188.934 78.9 189.087 78.8 189.274 78.8C189.474 78.8 189.74 78.8733 190.074 79.02C190.42 79.1667 190.7 79.3067 190.914 79.44C191.074 79.5333 191.147 79.66 191.134 79.82C191.094 80.0467 191.067 80.2733 191.054 80.5C191.04 80.7267 191.034 80.98 191.034 81.26V85.34C191.74 85.34 192.314 85.2933 192.754 85.2C193.194 85.0933 193.527 85.0067 193.754 84.94C193.9 84.8867 194.007 84.88 194.074 84.92C194.14 84.96 194.2 85.0267 194.254 85.12C194.307 85.2 194.367 85.3333 194.434 85.52C194.5 85.6933 194.534 85.82 194.534 85.9C194.534 85.98 194.487 86.0533 194.394 86.12C194.314 86.1867 194.254 86.22 194.214 86.22C193.667 86.1667 193.134 86.1333 192.614 86.12C192.107 86.0933 191.58 86.08 191.034 86.08V89.78C191.034 89.9667 191.02 90.2067 190.994 90.5C190.98 90.78 190.947 91.0667 190.894 91.36C190.84 91.64 190.76 91.88 190.654 92.08C190.547 92.2667 190.4 92.36 190.214 92.36ZM184.434 97.04C183.767 97.04 183.274 96.8667 182.954 96.52C182.634 96.1733 182.474 95.6933 182.474 95.08V93.76C182.474 93.3333 182.434 93.0067 182.354 92.78C182.274 92.5533 182.06 92.3667 181.714 92.22C181.634 92.1933 181.58 92.14 181.554 92.06C181.54 91.98 181.54 91.9067 181.554 91.84C181.647 91.5733 181.82 91.46 182.074 91.5C182.287 91.5267 182.527 91.6 182.794 91.72C183.06 91.8267 183.294 91.94 183.494 92.06C183.667 92.1667 183.74 92.2733 183.714 92.38C183.7 92.4733 183.68 92.64 183.654 92.88C183.627 93.12 183.614 93.3533 183.614 93.58V94.98C183.614 95.4467 183.694 95.7667 183.854 95.94C184.027 96.1 184.254 96.1933 184.534 96.22C184.694 96.2333 184.947 96.24 185.294 96.24C185.654 96.24 186.047 96.2333 186.474 96.22C186.9 96.2067 187.314 96.1933 187.714 96.18C188.127 96.1667 188.46 96.1533 188.714 96.14C189.407 96.1 189.994 96.0333 190.474 95.94C190.967 95.8467 191.327 95.7667 191.554 95.7C191.847 95.6067 192.054 95.6467 192.174 95.82C192.24 95.9267 192.314 96.0533 192.394 96.2C192.474 96.3467 192.52 96.4667 192.534 96.56C192.547 96.6533 192.5 96.74 192.394 96.82C192.3 96.9133 192.227 96.96 192.174 96.96C191.707 96.9333 191.307 96.9133 190.974 96.9C190.64 96.9 190.287 96.9 189.914 96.9C189.54 96.9133 189.06 96.9333 188.474 96.96C187.794 96.9867 187.114 97.0067 186.434 97.02C185.754 97.0333 185.087 97.04 184.434 97.04ZM199.252 97.92C199.119 97.9733 198.972 97.9733 198.812 97.92C198.665 97.88 198.572 97.8067 198.532 97.7C198.492 97.6067 198.559 97.52 198.732 97.44C199.719 96.9333 200.572 96.3733 201.292 95.76C202.012 95.1467 202.592 94.5733 203.032 94.04C203.485 93.5067 203.785 93.12 203.932 92.88C204.172 92.4933 204.325 92.1533 204.392 91.86C204.472 91.5533 204.359 91.2933 204.052 91.08C203.879 90.9733 203.839 90.84 203.932 90.68C204.105 90.4 204.345 90.3333 204.652 90.48C205.012 90.6533 205.365 90.8733 205.712 91.14C205.979 91.3533 206.079 91.52 206.012 91.64C205.905 91.7867 205.779 91.98 205.632 92.22C205.499 92.4467 205.345 92.6933 205.172 92.96C205.665 93.3333 206.219 93.68 206.832 94C207.445 94.32 208.019 94.6 208.552 94.84C209.099 95.08 209.512 95.2533 209.792 95.36C209.925 95.4133 210.052 95.54 210.172 95.74C210.305 95.9267 210.412 96.1333 210.492 96.36C210.585 96.6 210.632 96.8067 210.632 96.98C210.605 97.14 210.492 97.2667 210.292 97.36C210.092 97.4533 209.972 97.48 209.932 97.44C209.625 97.1067 209.245 96.7533 208.792 96.38C208.339 96.02 207.865 95.6667 207.372 95.32C206.879 94.96 206.405 94.6267 205.952 94.32C205.499 94.0133 205.112 93.7467 204.792 93.52C204.365 94.08 203.859 94.6467 203.272 95.22C202.685 95.78 202.045 96.2933 201.352 96.76C200.672 97.2267 199.972 97.6133 199.252 97.92ZM197.232 89.7C197.099 89.7 196.952 89.64 196.792 89.52C196.725 89.4667 196.625 89.3867 196.492 89.28C196.372 89.16 196.259 89.0467 196.152 88.94C196.045 88.82 195.979 88.74 195.952 88.7C195.925 88.6333 195.939 88.5467 195.992 88.44C196.059 88.3333 196.139 88.28 196.232 88.28C196.619 88.3467 197.079 88.4067 197.612 88.46C198.159 88.5 198.839 88.52 199.652 88.52C200.145 88.52 200.765 88.5133 201.512 88.5C202.272 88.4733 203.079 88.4467 203.932 88.42C204.799 88.3933 205.639 88.3667 206.452 88.34C207.279 88.3 208.005 88.26 208.632 88.22C208.979 88.1933 209.372 88.1667 209.812 88.14C210.265 88.1 210.692 88.0533 211.092 88C211.492 87.9467 211.792 87.9 211.992 87.86C212.219 87.8067 212.372 87.7667 212.452 87.74C212.545 87.7133 212.625 87.7 212.692 87.7C212.785 87.7 212.892 87.78 213.012 87.94C213.079 88.0467 213.145 88.1733 213.212 88.32C213.292 88.4533 213.332 88.5667 213.332 88.66C213.332 88.78 213.279 88.8733 213.172 88.94C213.079 89.0067 213.019 89.04 212.992 89.04C212.765 89.0133 212.499 89 212.192 89C211.885 88.9867 211.585 88.98 211.292 88.98C211.012 88.9667 210.779 88.96 210.592 88.96C210.272 88.96 209.832 88.9667 209.272 88.98C208.725 88.9933 208.112 89.0133 207.432 89.04C206.752 89.0533 206.059 89.0733 205.352 89.1C204.645 89.1267 203.965 89.1533 203.312 89.18C202.672 89.2067 202.112 89.2333 201.632 89.26C201.165 89.2733 200.825 89.2867 200.612 89.3C200.212 89.3133 199.805 89.3467 199.392 89.4C198.979 89.44 198.605 89.4867 198.272 89.54C197.952 89.58 197.732 89.6133 197.612 89.64C197.559 89.6533 197.499 89.6667 197.432 89.68C197.365 89.6933 197.299 89.7 197.232 89.7ZM205.852 85.62C205.559 85.6333 205.339 85.52 205.192 85.28C205.059 85.04 204.992 84.7 204.992 84.26V81.92C204.992 81.4933 204.959 81.1533 204.892 80.9C204.825 80.6333 204.619 80.4133 204.272 80.24C204.139 80.1867 204.099 80.0933 204.152 79.96C204.245 79.7067 204.419 79.6 204.672 79.64C204.819 79.6667 204.985 79.7067 205.172 79.76C205.359 79.8133 205.539 79.8733 205.712 79.94C205.979 79.94 206.305 79.9333 206.692 79.92C207.092 79.8933 207.492 79.8667 207.892 79.84C208.305 79.8 208.685 79.7533 209.032 79.7C209.379 79.6467 209.645 79.5867 209.832 79.52C209.992 79.4533 210.112 79.4333 210.192 79.46C210.285 79.4867 210.365 79.5467 210.432 79.64C210.485 79.7067 210.545 79.8 210.612 79.92C210.679 80.04 210.712 80.1333 210.712 80.2C210.712 80.28 210.665 80.36 210.572 80.44C210.492 80.52 210.425 80.56 210.372 80.56C209.945 80.5333 209.412 80.5333 208.772 80.56C208.132 80.5867 207.505 80.6133 206.892 80.64C206.732 80.6533 206.579 80.6667 206.432 80.68C206.285 80.68 206.145 80.68 206.012 80.68V84.22C206.012 84.4867 206.045 84.66 206.112 84.74C206.179 84.82 206.345 84.8533 206.612 84.84C207.399 84.8133 208.099 84.76 208.712 84.68C209.339 84.6 209.772 84.52 210.012 84.44C210.172 84.3733 210.299 84.3467 210.392 84.36C210.485 84.3733 210.572 84.4267 210.652 84.52C210.799 84.7067 210.892 84.8867 210.932 85.06C210.959 85.14 210.919 85.2333 210.812 85.34C210.719 85.4333 210.645 85.48 210.592 85.48C210.072 85.4533 209.512 85.4533 208.912 85.48C208.325 85.5067 207.739 85.5333 207.152 85.56C206.925 85.5733 206.705 85.5867 206.492 85.6C206.279 85.6 206.065 85.6067 205.852 85.62ZM199.652 86.18C199.079 86.2467 198.792 85.8733 198.792 85.06V82.28C198.792 81.8533 198.745 81.4933 198.652 81.2C198.572 80.9067 198.312 80.68 197.872 80.52C197.725 80.48 197.685 80.3667 197.752 80.18C197.845 79.94 198.019 79.8333 198.272 79.86C198.419 79.8867 198.605 79.9267 198.832 79.98C199.072 80.0333 199.285 80.0933 199.472 80.16C199.845 80.16 200.252 80.1467 200.692 80.12C201.145 80.0933 201.559 80.06 201.932 80.02C202.305 79.98 202.559 79.9333 202.692 79.88C202.852 79.8267 202.972 79.8133 203.052 79.84C203.132 79.8667 203.205 79.9267 203.272 80.02C203.299 80.0467 203.345 80.1133 203.412 80.22C203.479 80.3133 203.512 80.4 203.512 80.48C203.512 80.56 203.472 80.64 203.392 80.72C203.325 80.7867 203.272 80.82 203.232 80.82C202.792 80.7933 202.312 80.7933 201.792 80.82C201.272 80.8333 200.725 80.86 200.152 80.9C200.099 80.9 200.045 80.9067 199.992 80.92C199.952 80.92 199.912 80.92 199.872 80.92V84.58C199.872 84.5933 199.872 84.62 199.872 84.66C199.872 84.8333 199.892 84.9667 199.932 85.06C199.972 85.1533 200.105 85.1867 200.332 85.16C200.772 85.12 201.245 85.04 201.752 84.92C202.259 84.7867 202.725 84.6467 203.152 84.5C203.579 84.3533 203.879 84.2333 204.052 84.14C204.239 84.0467 204.359 84.0333 204.412 84.1C204.465 84.1667 204.465 84.26 204.412 84.38C204.359 84.5 204.265 84.6067 204.132 84.7C204.012 84.78 203.792 84.8933 203.472 85.04C203.165 85.1867 202.799 85.34 202.372 85.5C201.945 85.66 201.492 85.8067 201.012 85.94C200.545 86.06 200.092 86.14 199.652 86.18ZM220.591 90.9C219.805 90.9133 219.138 90.7733 218.591 90.48C218.058 90.1867 217.651 89.8067 217.371 89.34C217.105 88.86 216.971 88.38 216.971 87.9C216.971 87.42 217.091 86.9467 217.331 86.48C217.571 86 217.951 85.6 218.471 85.28C219.005 84.9467 219.705 84.7733 220.571 84.76C221.731 84.7333 222.638 85.0067 223.291 85.58C223.945 86.1533 224.251 86.8933 224.211 87.8C224.198 88.2933 224.051 88.7733 223.771 89.24C223.491 89.7067 223.085 90.0933 222.551 90.4C222.031 90.7067 221.378 90.8733 220.591 90.9ZM228.131 93.1C228.011 93.14 227.918 93.14 227.851 93.1C227.798 93.0467 227.765 92.9933 227.751 92.94C227.711 92.82 227.685 92.6333 227.671 92.38C227.658 92.1267 227.651 91.86 227.651 91.58C227.651 91.3 227.651 91.06 227.651 90.86C227.651 90.7667 227.651 90.7 227.651 90.66V81.54C227.651 81.14 227.631 80.8267 227.591 80.6C227.565 80.3733 227.485 80.18 227.351 80.02C227.218 79.86 226.991 79.6867 226.671 79.5C226.525 79.3933 226.491 79.2733 226.571 79.14C226.718 78.9 226.905 78.8 227.131 78.84C227.358 78.8667 227.625 78.9533 227.931 79.1C228.238 79.2333 228.485 79.36 228.671 79.48C228.738 79.52 228.798 79.5733 228.851 79.64C228.905 79.7067 228.925 79.78 228.911 79.86C228.871 80.0867 228.845 80.3133 228.831 80.54C228.818 80.7667 228.811 81.02 228.811 81.3V86.12C229.518 86.12 230.098 86.0733 230.551 85.98C231.005 85.8733 231.338 85.7867 231.551 85.72C231.698 85.6667 231.805 85.66 231.871 85.7C231.951 85.74 232.018 85.8 232.071 85.88C232.125 85.9733 232.178 86.1133 232.231 86.3C232.298 86.4733 232.331 86.6 232.331 86.68C232.331 86.76 232.291 86.8333 232.211 86.9C232.131 86.9667 232.071 87 232.031 87C231.471 86.9467 230.931 86.9133 230.411 86.9C229.891 86.8733 229.358 86.86 228.811 86.86V90.52C228.811 90.7733 228.791 91.0933 228.751 91.48C228.725 91.8667 228.658 92.22 228.551 92.54C228.458 92.86 228.318 93.0467 228.131 93.1ZM220.591 90.04C221.351 90.0133 221.945 89.7933 222.371 89.38C222.798 88.9533 223.031 88.4333 223.071 87.82C223.098 87.5133 223.025 87.18 222.851 86.82C222.678 86.46 222.405 86.1533 222.031 85.9C221.658 85.6333 221.165 85.5133 220.551 85.54C219.698 85.5667 219.065 85.82 218.651 86.3C218.251 86.7667 218.051 87.2933 218.051 87.88C218.051 88.2533 218.151 88.6133 218.351 88.96C218.565 89.2933 218.865 89.56 219.251 89.76C219.638 89.96 220.085 90.0533 220.591 90.04ZM222.231 97.14C220.911 97.14 220.258 96.52 220.271 95.28V94.56C220.271 94.1867 220.218 93.8733 220.111 93.62C220.018 93.3533 219.818 93.1533 219.511 93.02C219.431 92.9933 219.378 92.94 219.351 92.86C219.325 92.78 219.325 92.7067 219.351 92.64C219.485 92.4133 219.658 92.3067 219.871 92.32C220.045 92.3467 220.278 92.4133 220.571 92.52C220.865 92.6267 221.111 92.7333 221.311 92.84C221.471 92.9333 221.538 93.0467 221.511 93.18C221.485 93.2733 221.458 93.44 221.431 93.68C221.418 93.92 221.411 94.1533 221.411 94.38V95.18C221.411 95.6467 221.491 95.9467 221.651 96.08C221.825 96.2267 222.051 96.3067 222.331 96.32C222.465 96.3333 222.698 96.34 223.031 96.34C223.378 96.34 223.765 96.3333 224.191 96.32C224.618 96.3067 225.025 96.2933 225.411 96.28C225.811 96.2667 226.138 96.2533 226.391 96.24C227.085 96.2 227.671 96.1333 228.151 96.04C228.645 95.9467 229.005 95.8667 229.231 95.8C229.525 95.7067 229.731 95.7467 229.851 95.92C229.918 96.0267 229.991 96.1533 230.071 96.3C230.151 96.4467 230.198 96.5667 230.211 96.66C230.225 96.7533 230.178 96.84 230.071 96.92C229.978 97.0133 229.905 97.06 229.851 97.06C229.385 97.0333 228.985 97.0133 228.651 97C228.318 97 227.965 97 227.591 97C227.218 97.0133 226.738 97.0333 226.151 97.06C225.471 97.0867 224.811 97.1067 224.171 97.12C223.531 97.1333 222.885 97.14 222.231 97.14ZM216.471 83.88C216.245 83.92 216.078 83.92 215.971 83.88C215.865 83.84 215.765 83.78 215.671 83.7C215.551 83.5667 215.445 83.4467 215.351 83.34C215.258 83.22 215.191 83.1267 215.151 83.06C215.111 82.9933 215.125 82.9067 215.191 82.8C215.258 82.68 215.338 82.6333 215.431 82.66C215.751 82.7267 216.131 82.7733 216.571 82.8C217.025 82.8267 217.491 82.8467 217.971 82.86C218.465 82.86 218.925 82.8533 219.351 82.84C219.791 82.8267 220.158 82.8133 220.451 82.8C221.451 82.76 222.338 82.7067 223.111 82.64C223.898 82.56 224.551 82.4467 225.071 82.3C225.218 82.26 225.325 82.26 225.391 82.3C225.458 82.3267 225.518 82.3867 225.571 82.48C225.625 82.56 225.671 82.68 225.711 82.84C225.765 83 225.791 83.12 225.791 83.2C225.791 83.28 225.745 83.3533 225.651 83.42C225.571 83.4867 225.511 83.52 225.471 83.52C224.991 83.48 224.391 83.4533 223.671 83.44C222.965 83.4267 222.191 83.4333 221.351 83.46C220.511 83.4867 219.671 83.5333 218.831 83.6C217.991 83.6667 217.205 83.76 216.471 83.88ZM219.851 81.24C219.638 81.2133 219.365 81.16 219.031 81.08C218.698 81 218.385 80.9 218.091 80.78C217.811 80.66 217.618 80.5333 217.511 80.4C217.431 80.32 217.418 80.2 217.471 80.04C217.538 79.88 217.631 79.8133 217.751 79.84C218.391 79.9733 219.058 80.06 219.751 80.1C220.445 80.14 221.091 80.1467 221.691 80.12C222.305 80.0933 222.791 80.0667 223.151 80.04C223.245 80.0267 223.325 80.06 223.391 80.14C223.471 80.22 223.518 80.2933 223.531 80.36C223.545 80.4667 223.498 80.5867 223.391 80.72C223.285 80.8533 223.171 80.9467 223.051 81C222.918 81.0533 222.658 81.1067 222.271 81.16C221.898 81.2 221.491 81.2333 221.051 81.26C220.611 81.2733 220.211 81.2667 219.851 81.24ZM241.996 88.64C241.85 88.6667 241.743 88.6333 241.676 88.54C241.61 88.4467 241.57 88.3133 241.556 88.14C241.503 87.54 241.45 86.9133 241.396 86.26C241.343 85.6067 241.296 85.0067 241.256 84.46C241.216 83.9133 241.176 83.52 241.136 83.28C241.056 82.8133 240.95 82.48 240.816 82.28C240.696 82.0667 240.463 81.8533 240.116 81.64C240.023 81.56 239.996 81.46 240.036 81.34C240.183 81.0333 240.376 80.9133 240.616 80.98C240.763 81.0067 240.963 81.06 241.216 81.14C241.47 81.2067 241.69 81.2733 241.876 81.34C242.143 81.34 242.49 81.34 242.916 81.34C243.356 81.34 243.81 81.3333 244.276 81.32C244.756 81.2933 245.19 81.2667 245.576 81.24C246.416 81.1867 246.99 81.0867 247.296 80.94C247.403 80.9 247.51 80.8933 247.616 80.92C247.923 81.0133 248.263 81.1267 248.636 81.26C248.69 81.2733 248.736 81.3067 248.776 81.36C248.816 81.4 248.823 81.4667 248.796 81.56C248.743 81.7067 248.676 81.9667 248.596 82.34C248.53 82.7133 248.463 83.16 248.396 83.68C248.33 84.08 248.263 84.5867 248.196 85.2C248.143 85.8 248.083 86.36 248.016 86.88C248.083 86.9333 248.196 87.0333 248.356 87.18C248.516 87.3133 248.596 87.42 248.596 87.5C248.596 87.6067 248.55 87.7 248.456 87.78C248.363 87.86 248.296 87.8933 248.256 87.88C248.11 87.8667 247.85 87.86 247.476 87.86C247.116 87.8467 246.696 87.8467 246.216 87.86C245.75 87.86 245.27 87.8667 244.776 87.88C244.296 87.8933 243.85 87.9067 243.436 87.92C243.036 87.9333 242.723 87.9467 242.496 87.96C242.47 88.1733 242.403 88.3333 242.296 88.44C242.203 88.5467 242.103 88.6133 241.996 88.64ZM242.476 87.16C242.663 87.1733 242.963 87.18 243.376 87.18C243.79 87.1667 244.243 87.1533 244.736 87.14C245.23 87.1133 245.696 87.0867 246.136 87.06C246.576 87.0333 246.903 87 247.116 86.96C247.17 85.8 247.21 84.8533 247.236 84.12C247.276 83.3867 247.303 82.7333 247.316 82.16C247.316 82.0667 247.303 82.0133 247.276 82C247.25 81.9733 247.223 81.96 247.196 81.96C246.836 81.96 246.356 81.9733 245.756 82C245.156 82.0133 244.536 82.0333 243.896 82.06C243.27 82.0733 242.716 82.0933 242.236 82.12L242.476 87.16ZM252.596 89.82C252.476 89.82 252.403 89.7533 252.376 89.62C252.35 89.4867 252.323 89.2867 252.296 89.02C252.283 88.7533 252.276 88.48 252.276 88.2C252.276 87.9067 252.276 87.6733 252.276 87.5V81.5C252.276 81.1 252.256 80.7867 252.216 80.56C252.19 80.3333 252.103 80.14 251.956 79.98C251.823 79.82 251.596 79.6467 251.276 79.46C251.143 79.3667 251.11 79.2467 251.176 79.1C251.296 78.9 251.456 78.8 251.656 78.8C251.856 78.8 252.123 78.8733 252.456 79.02C252.79 79.1667 253.063 79.3067 253.276 79.44C253.343 79.48 253.403 79.5333 253.456 79.6C253.51 79.6667 253.53 79.74 253.516 79.82C253.476 80.0467 253.45 80.2733 253.436 80.5C253.423 80.7267 253.416 80.98 253.416 81.26V84.76C254.096 84.76 254.663 84.7133 255.116 84.62C255.57 84.5133 255.91 84.4267 256.136 84.36C256.283 84.3067 256.39 84.3 256.456 84.34C256.523 84.38 256.583 84.4467 256.636 84.54C256.69 84.62 256.75 84.7533 256.816 84.94C256.883 85.1133 256.916 85.24 256.916 85.32C256.916 85.4 256.87 85.4733 256.776 85.54C256.696 85.6067 256.636 85.64 256.596 85.64C256.063 85.5867 255.536 85.5533 255.016 85.54C254.51 85.5133 253.976 85.5 253.416 85.5V87.36C253.416 87.56 253.403 87.8 253.376 88.08C253.363 88.3467 253.323 88.6133 253.256 88.88C253.203 89.1467 253.123 89.3733 253.016 89.56C252.91 89.7333 252.77 89.82 252.596 89.82ZM252.556 97.72C252.45 97.7467 252.376 97.7267 252.336 97.66C252.296 97.6067 252.27 97.5533 252.256 97.5C252.203 97.26 252.17 96.9933 252.156 96.7C252.156 96.42 252.156 96.1467 252.156 95.88V92.16C252.156 91.9733 252.11 91.88 252.016 91.88C251.936 91.88 251.75 91.8867 251.456 91.9C251.176 91.9133 250.843 91.9333 250.456 91.96C250.083 91.9733 249.696 91.9933 249.296 92.02C248.91 92.0467 248.576 92.0733 248.296 92.1C247.416 92.1667 246.676 92.2267 246.076 92.28C245.476 92.3333 244.976 92.3933 244.576 92.46C244.336 92.5133 244.123 92.48 243.936 92.36C243.83 92.2933 243.69 92.1867 243.516 92.04C243.356 91.88 243.263 91.7667 243.236 91.7C243.21 91.62 243.236 91.52 243.316 91.4C243.396 91.28 243.483 91.2333 243.576 91.26C243.883 91.34 244.403 91.3933 245.136 91.42C245.87 91.4467 246.763 91.4333 247.816 91.38C248.456 91.3533 249.063 91.32 249.636 91.28C250.21 91.2267 250.703 91.1667 251.116 91.1C251.543 91.0333 251.83 90.9667 251.976 90.9C252.07 90.86 252.17 90.8467 252.276 90.86C252.463 90.9 252.65 90.9333 252.836 90.96C253.036 90.9867 253.21 91.0133 253.356 91.04C253.49 91.0533 253.536 91.1533 253.496 91.34C253.483 91.42 253.463 91.56 253.436 91.76C253.423 91.9467 253.41 92.14 253.396 92.34C253.383 92.54 253.376 92.7067 253.376 92.84L253.336 95.58C253.336 95.8333 253.31 96.1133 253.256 96.42C253.203 96.74 253.123 97.02 253.016 97.26C252.91 97.5133 252.756 97.6667 252.556 97.72ZM265.155 97.16C264.568 97.1733 264.128 97.0467 263.835 96.78C263.555 96.5267 263.415 96.1 263.415 95.5V94.44C263.415 94.28 263.375 94.1733 263.295 94.12C263.188 94.0533 263.048 93.96 262.875 93.84C262.715 93.7067 262.602 93.6067 262.535 93.54C262.482 93.4867 262.495 93.3933 262.575 93.26C262.655 93.1133 262.735 93.0467 262.815 93.06C263.282 93.1667 263.828 93.2267 264.455 93.24C264.682 93.2533 265.002 93.26 265.415 93.26C265.842 93.2467 266.315 93.2333 266.835 93.22C267.368 93.1933 267.895 93.1733 268.415 93.16C268.935 93.1333 269.408 93.1067 269.835 93.08C270.275 93.04 270.608 93.0067 270.835 92.98C270.848 92.9 270.868 92.74 270.895 92.5C270.922 92.2467 270.948 91.98 270.975 91.7C271.002 91.4067 271.015 91.1667 271.015 90.98C271.015 90.8867 270.995 90.8333 270.955 90.82C270.928 90.8067 270.902 90.8 270.875 90.8L266.075 91.02C265.568 91.0467 265.155 91.0733 264.835 91.1C264.515 91.1267 264.222 91.1667 263.955 91.22C263.808 91.2467 263.688 91.26 263.595 91.26C263.502 91.2467 263.402 91.2067 263.295 91.14C263.188 91.0733 263.062 90.98 262.915 90.86C262.768 90.7267 262.682 90.6267 262.655 90.56C262.642 90.4933 262.675 90.4067 262.755 90.3C262.835 90.18 262.922 90.1333 263.015 90.16C263.162 90.2 263.388 90.2333 263.695 90.26C264.002 90.2867 264.335 90.3067 264.695 90.32C265.068 90.32 265.408 90.3133 265.715 90.3C266.088 90.2867 266.528 90.2733 267.035 90.26C267.555 90.2333 268.075 90.2067 268.595 90.18C269.115 90.1533 269.582 90.12 269.995 90.08C270.422 90.0267 270.735 89.9667 270.935 89.9C270.935 89.9 270.942 89.9 270.955 89.9C270.995 89.8733 271.035 89.86 271.075 89.86C271.128 89.8467 271.188 89.8467 271.255 89.86L272.175 90.14C272.322 90.1933 272.362 90.2933 272.295 90.44C272.268 90.5067 272.222 90.6467 272.155 90.86C272.102 91.06 272.042 91.2933 271.975 91.56C271.908 91.8267 271.842 92.08 271.775 92.32C271.722 92.56 271.682 92.74 271.655 92.86C271.762 92.9133 271.895 92.9933 272.055 93.1C272.228 93.1933 272.315 93.28 272.315 93.36C272.315 93.4667 272.262 93.58 272.155 93.7C272.062 93.82 271.995 93.8733 271.955 93.86C271.795 93.8467 271.495 93.84 271.055 93.84C270.615 93.8267 270.095 93.8267 269.495 93.84C268.908 93.84 268.295 93.8533 267.655 93.88C267.028 93.8933 266.442 93.9133 265.895 93.94C265.348 93.9667 264.902 93.9933 264.555 94.02V95.38C264.555 95.82 264.608 96.0933 264.715 96.2C264.835 96.3067 265.028 96.36 265.295 96.36C265.335 96.36 265.422 96.36 265.555 96.36C265.822 96.36 266.175 96.36 266.615 96.36C267.068 96.36 267.555 96.3533 268.075 96.34C268.608 96.3267 269.128 96.3067 269.635 96.28C270.328 96.24 270.888 96.1867 271.315 96.12C271.742 96.0533 272.108 95.9667 272.415 95.86C272.575 95.7933 272.695 95.7733 272.775 95.8C272.855 95.8267 272.942 95.8867 273.035 95.98C273.115 96.06 273.195 96.16 273.275 96.28C273.355 96.4133 273.402 96.52 273.415 96.6C273.428 96.68 273.382 96.7733 273.275 96.88C273.168 96.9867 273.095 97.04 273.055 97.04C272.362 97.0133 271.768 97 271.275 97C270.782 97.0133 270.208 97.0333 269.555 97.06C268.875 97.0867 268.135 97.1067 267.335 97.12C266.535 97.1333 265.808 97.1467 265.155 97.16ZM259.095 90.32C258.935 90.4 258.762 90.42 258.575 90.38C258.388 90.34 258.268 90.2667 258.215 90.16C258.162 90.04 258.228 89.9267 258.415 89.82C258.868 89.58 259.375 89.26 259.935 88.86C260.495 88.46 261.068 88 261.655 87.48C262.242 86.9467 262.795 86.38 263.315 85.78C263.835 85.18 264.288 84.5667 264.675 83.94C265.062 83.3 265.342 82.6733 265.515 82.06C265.555 81.94 265.548 81.8733 265.495 81.86C265.442 81.8333 265.402 81.82 265.375 81.82C265.362 81.82 265.355 81.82 265.355 81.82C265.048 81.82 264.655 81.84 264.175 81.88C263.708 81.9067 263.322 81.9333 263.015 81.96C262.442 82.0133 261.982 82.06 261.635 82.1C261.302 82.14 260.935 82.1933 260.535 82.26C260.122 82.3267 259.815 82.28 259.615 82.12C259.308 81.8667 259.108 81.6533 259.015 81.48C258.988 81.4133 259.002 81.3267 259.055 81.22C259.122 81.1 259.202 81.0533 259.295 81.08C259.682 81.1467 260.155 81.2 260.715 81.24C261.288 81.2667 261.888 81.26 262.515 81.22C263.035 81.1933 263.582 81.1467 264.155 81.08C264.742 81.0133 265.208 80.9067 265.555 80.76C265.662 80.72 265.768 80.72 265.875 80.76L266.995 81.18C267.048 81.2067 267.088 81.2467 267.115 81.3C267.155 81.34 267.155 81.4067 267.115 81.5L266.455 82.9C266.028 83.7933 265.502 84.6333 264.875 85.42C264.248 86.2067 263.588 86.92 262.895 87.56C262.202 88.2 261.522 88.7533 260.855 89.22C260.188 89.6867 259.602 90.0533 259.095 90.32ZM271.415 89C271.295 89 271.222 88.9333 271.195 88.8C271.168 88.6667 271.142 88.4733 271.115 88.22C271.102 87.9533 271.095 87.68 271.095 87.4C271.095 87.12 271.095 86.8933 271.095 86.72V85.18L270.475 85.2C269.755 85.2267 269.208 85.2733 268.835 85.34C268.475 85.4067 268.122 85.48 267.775 85.56C267.628 85.5867 267.508 85.6 267.415 85.6C267.335 85.5867 267.242 85.5467 267.135 85.48C267.042 85.4133 266.902 85.3067 266.715 85.16C266.528 85 266.422 84.8867 266.395 84.82C266.368 84.7533 266.388 84.6733 266.455 84.58C266.535 84.4733 266.622 84.4333 266.715 84.46C266.942 84.5 267.348 84.5333 267.935 84.56C268.522 84.5733 269.255 84.5533 270.135 84.5L271.095 84.44V81.5C271.095 81.1 271.075 80.7867 271.035 80.56C271.008 80.3333 270.922 80.14 270.775 79.98C270.642 79.82 270.415 79.6467 270.095 79.46C269.962 79.3667 269.928 79.2467 269.995 79.1C270.115 78.9 270.275 78.8 270.475 78.8C270.675 78.8 270.942 78.8733 271.275 79.02C271.608 79.1667 271.882 79.3067 272.095 79.44C272.162 79.48 272.222 79.5333 272.275 79.6C272.328 79.6667 272.348 79.74 272.335 79.82C272.295 80.0467 272.268 80.2733 272.255 80.5C272.242 80.7267 272.235 80.98 272.235 81.26V86.58C272.235 86.8467 272.215 87.1733 272.175 87.56C272.135 87.9333 272.055 88.2667 271.935 88.56C271.815 88.8533 271.642 89 271.415 89ZM278.377 91.96C278.084 91.9733 277.851 91.84 277.677 91.56C277.504 91.2667 277.417 90.9267 277.417 90.54V87.14C277.417 87.0067 277.397 86.9133 277.357 86.86C277.331 86.7933 277.264 86.7267 277.157 86.66C277.024 86.5933 276.864 86.5067 276.677 86.4C276.491 86.2933 276.377 86.2067 276.337 86.14C276.297 86.0733 276.311 85.9667 276.377 85.82C276.444 85.6733 276.517 85.6067 276.597 85.62C276.824 85.6467 277.064 85.6733 277.317 85.7C277.584 85.7267 277.851 85.7467 278.117 85.76C278.384 85.7733 278.717 85.78 279.117 85.78C279.531 85.7667 279.964 85.7467 280.417 85.72C280.871 85.6933 281.297 85.66 281.697 85.62C282.097 85.58 282.417 85.54 282.657 85.5C282.671 85.4067 282.697 85.22 282.737 84.94C282.777 84.6467 282.817 84.32 282.857 83.96C282.897 83.6 282.937 83.26 282.977 82.94C283.017 82.62 283.044 82.3867 283.057 82.24C283.071 82.1333 283.057 82.0733 283.017 82.06C282.991 82.0333 282.964 82.02 282.937 82.02C282.924 82.02 282.897 82.02 282.857 82.02C282.697 82.02 282.397 82.0267 281.957 82.04C281.531 82.04 280.964 82.0733 280.257 82.14C279.911 82.1667 279.624 82.1933 279.397 82.22C279.184 82.2333 278.977 82.2533 278.777 82.28C278.577 82.2933 278.344 82.3267 278.077 82.38C277.824 82.4333 277.651 82.4467 277.557 82.42C277.477 82.3933 277.377 82.3267 277.257 82.22C277.124 82.1133 277.017 82.0133 276.937 81.92C276.857 81.8133 276.791 81.7133 276.737 81.62C276.697 81.5533 276.711 81.4733 276.777 81.38C276.844 81.2733 276.924 81.2267 277.017 81.24C277.244 81.2667 277.491 81.2933 277.757 81.32C278.037 81.3333 278.311 81.3467 278.577 81.36C278.871 81.3733 279.231 81.38 279.657 81.38C280.084 81.3667 280.511 81.3467 280.937 81.32C281.377 81.2933 281.757 81.2667 282.077 81.24C282.304 81.2133 282.511 81.1733 282.697 81.12C282.897 81.0533 283.031 81 283.097 80.96C283.204 80.8933 283.324 80.8933 283.457 80.96L284.377 81.34C284.511 81.3933 284.551 81.5 284.497 81.66C284.471 81.7267 284.411 81.88 284.317 82.12C284.237 82.36 284.164 82.6333 284.097 82.94L283.557 85.34C283.664 85.4067 283.797 85.5133 283.957 85.66C284.117 85.7933 284.197 85.8933 284.197 85.96C284.197 86.0667 284.144 86.1667 284.037 86.26C283.944 86.3533 283.877 86.4 283.837 86.4C283.691 86.3867 283.404 86.3867 282.977 86.4C282.551 86.4 282.064 86.4133 281.517 86.44C280.971 86.4667 280.431 86.4933 279.897 86.52C279.364 86.5467 278.917 86.5733 278.557 86.6V90.32C278.557 90.4933 278.591 90.6267 278.657 90.72C278.737 90.8133 278.911 90.8533 279.177 90.84C279.911 90.8267 280.677 90.76 281.477 90.64C282.277 90.52 283.044 90.38 283.777 90.22C284.524 90.0467 285.177 89.8733 285.737 89.7C286.297 89.5133 286.704 89.3533 286.957 89.22C287.224 89.1133 287.371 89.1467 287.397 89.32C287.437 89.4933 287.351 89.66 287.137 89.82C286.951 89.94 286.617 90.0933 286.137 90.28C285.657 90.4533 285.084 90.64 284.417 90.84C283.764 91.04 283.071 91.2267 282.337 91.4C281.617 91.56 280.911 91.6933 280.217 91.8C279.524 91.9067 278.911 91.96 278.377 91.96ZM288.517 96.44C288.371 96.44 288.291 96.3733 288.277 96.24C288.264 96.1333 288.244 95.94 288.217 95.66C288.204 95.3667 288.191 95.0533 288.177 94.72C288.164 94.3733 288.157 94.0733 288.157 93.82V81.56C288.157 81.1467 288.137 80.8267 288.097 80.6C288.071 80.3733 287.984 80.1867 287.837 80.04C287.704 79.88 287.464 79.7133 287.117 79.54C287.011 79.4733 286.957 79.4067 286.957 79.34C286.957 79.2733 287.004 79.1867 287.097 79.08C287.191 78.96 287.291 78.9 287.397 78.9C287.557 78.9 287.757 78.94 287.997 79.02C288.237 79.1 288.471 79.1933 288.697 79.3C288.924 79.3933 289.091 79.48 289.197 79.56C289.357 79.68 289.431 79.8133 289.417 79.96C289.377 80.24 289.344 80.5 289.317 80.74C289.304 80.98 289.297 81.26 289.297 81.58V93.78C289.297 93.9933 289.284 94.2533 289.257 94.56C289.244 94.8533 289.211 95.1467 289.157 95.44C289.104 95.72 289.024 95.9533 288.917 96.14C288.824 96.34 288.691 96.44 288.517 96.44ZM294.329 78.9C294.623 78.9 294.889 79.0133 295.129 79.24C295.383 79.4533 295.509 79.7867 295.509 80.24C295.509 80.7467 295.409 81.2267 295.209 81.68C295.009 82.12 294.756 82.4933 294.449 82.8C294.156 83.1067 293.863 83.32 293.569 83.44C293.476 83.48 293.383 83.5 293.289 83.5C293.183 83.5 293.096 83.4467 293.029 83.34L292.809 82.98C293.236 82.7933 293.589 82.52 293.869 82.16C294.149 81.8 294.343 81.4067 294.449 80.98C294.129 80.9667 293.863 80.8667 293.649 80.68C293.436 80.4933 293.329 80.2533 293.329 79.96C293.329 79.6133 293.429 79.3533 293.629 79.18C293.843 78.9933 294.076 78.9 294.329 78.9ZM297.429 78.9C297.723 78.9 297.989 79.0133 298.229 79.24C298.483 79.4533 298.609 79.7867 298.609 80.24C298.609 80.7467 298.509 81.2267 298.309 81.68C298.109 82.12 297.856 82.4933 297.549 82.8C297.256 83.1067 296.963 83.32 296.669 83.44C296.576 83.48 296.483 83.5 296.389 83.5C296.283 83.5 296.196 83.4467 296.129 83.34L295.909 82.98C296.336 82.7933 296.689 82.52 296.969 82.16C297.249 81.8 297.443 81.4067 297.549 80.98C297.229 80.9667 296.963 80.8667 296.749 80.68C296.536 80.4933 296.429 80.2533 296.429 79.96C296.429 79.6133 296.529 79.3533 296.729 79.18C296.943 78.9933 297.176 78.9 297.429 78.9Z" fill="#969674"/>
</svg>
