<svg width="55" height="159" viewBox="0 0 55 159" fill="none" xmlns="http://www.w3.org/2000/svg">
<path d="M2.58 62.4772C2.40667 62.4772 2.26667 62.4105 2.16 62.2772C2.05333 62.1305 2 61.8905 2 61.5572L1.92 55.7972C1.90667 55.2105 1.87333 54.7639 1.82 54.4572C1.76667 54.1505 1.56667 53.8505 1.22 53.5572C1.12667 53.4639 1.06 53.3705 1.02 53.2772C0.98 53.1839 1 53.0705 1.08 52.9372C1.21333 52.7239 1.36667 52.5905 1.54 52.5372C1.71333 52.4839 1.88667 52.4839 2.06 52.5372C2.28667 52.5905 2.56 52.7172 2.88 52.9172C3.2 53.1039 3.43333 53.2705 3.58 53.4172C3.72667 53.5639 3.82 53.6772 3.86 53.7572C3.9 53.8239 3.92667 53.9105 3.94 54.0172C3.9 54.2305 3.86667 54.4972 3.84 54.8172C3.82667 55.1239 3.82 55.4105 3.82 55.6772C4.18 55.6772 4.64 55.6772 5.2 55.6772C5.76 55.6639 6.32667 55.6505 6.9 55.6372C7.47333 55.6105 7.94667 55.5839 8.32 55.5572V54.5572C8.32 54.4772 8.32 54.4039 8.32 54.3372C8.32 54.2572 8.32 54.1839 8.32 54.1172C8.33333 53.7039 8.31333 53.3972 8.26 53.1972C8.20667 52.9839 8.02667 52.7639 7.72 52.5372C7.6 52.4705 7.51333 52.3839 7.46 52.2772C7.42 52.1705 7.44 52.0505 7.52 51.9172C7.64 51.7039 7.78667 51.5705 7.96 51.5172C8.14667 51.4639 8.32667 51.4639 8.5 51.5172C8.72667 51.5705 8.96667 51.6639 9.22 51.7972C9.47333 51.9172 9.70667 52.0505 9.92 52.1972C10.2133 52.3972 10.3733 52.5772 10.4 52.7372C10.3467 53.0172 10.3067 53.3772 10.28 53.8172C10.2533 54.2572 10.24 54.6039 10.24 54.8572L10.22 60.4972C10.22 60.9905 10.0867 61.4105 9.82 61.7572C9.56667 62.1039 9.28 62.2772 8.96 62.2772C8.74667 62.2772 8.59333 62.2172 8.5 62.0972C8.42 61.9772 8.36667 61.8039 8.34 61.5772C7.96667 61.5639 7.48667 61.5639 6.9 61.5772C6.32667 61.5772 5.74667 61.5839 5.16 61.5972C4.57333 61.6105 4.07333 61.6239 3.66 61.6372C3.54 61.8905 3.38 62.0972 3.18 62.2572C2.98 62.4039 2.78 62.4772 2.58 62.4772ZM13.44 67.7172C13.2133 67.7172 13.0667 67.5505 13 67.2172C12.96 66.9905 12.9267 66.7172 12.9 66.3972C12.8867 66.0772 12.88 65.7639 12.88 65.4572C12.88 65.1505 12.88 64.9105 12.88 64.7372V52.9172C12.88 52.8905 12.88 52.8505 12.88 52.7972C12.88 52.3305 12.84 51.9639 12.76 51.6972C12.6933 51.4305 12.4467 51.1705 12.02 50.9172C11.94 50.8639 11.8667 50.8039 11.8 50.7372C11.7333 50.6705 11.7 50.5905 11.7 50.4972C11.7 50.3505 11.7733 50.1839 11.92 49.9972C12.0667 49.8105 12.2467 49.7172 12.46 49.7172C12.6067 49.7172 12.8067 49.7572 13.06 49.8372C13.3133 49.9039 13.5733 49.9972 13.84 50.1172C14.1067 50.2239 14.3333 50.3372 14.52 50.4572C14.7733 50.6172 14.9 50.7772 14.9 50.9372C14.8867 51.1105 14.8533 51.3972 14.8 51.7972C14.76 52.1839 14.74 52.5572 14.74 52.9172V57.9772C15.3267 57.9505 15.86 57.8772 16.34 57.7572C16.82 57.6239 17.1533 57.5305 17.34 57.4772C17.4867 57.4239 17.6067 57.4172 17.7 57.4572C17.7933 57.4839 17.8667 57.5372 17.92 57.6172C18.0267 57.7505 18.1333 57.9372 18.24 58.1772C18.3467 58.4172 18.4 58.5839 18.4 58.6772C18.4 58.8105 18.3133 58.9439 18.14 59.0772C17.98 59.1972 17.8533 59.2572 17.76 59.2572C17.2933 59.1905 16.7867 59.1439 16.24 59.1172C15.7067 59.0905 15.2 59.0839 14.72 59.0972V64.6372C14.72 64.8905 14.7 65.1905 14.66 65.5372C14.62 65.8839 14.5467 66.2239 14.44 66.5572C14.3467 66.8905 14.2133 67.1639 14.04 67.3772C13.88 67.6039 13.68 67.7172 13.44 67.7172ZM3.8 60.3572C4.16 60.3572 4.61333 60.3572 5.16 60.3572C5.72 60.3572 6.28667 60.3505 6.86 60.3372C7.44667 60.3105 7.93333 60.2839 8.32 60.2572V56.8572C7.98667 56.8572 7.54 56.8639 6.98 56.8772C6.42 56.8772 5.85333 56.8839 5.28 56.8972C4.70667 56.9105 4.22 56.9239 3.82 56.9372L3.8 60.3572ZM22.0538 62.9372C21.6804 62.8705 21.4004 62.6705 21.2138 62.3372C21.0271 61.9905 20.9338 61.5972 20.9338 61.1572V54.9772C20.9338 54.5505 20.8871 54.2439 20.7938 54.0572C20.7138 53.8705 20.5204 53.6905 20.2138 53.5172C19.9338 53.3572 19.8404 53.1639 19.9338 52.9372C20.0404 52.6705 20.1804 52.5105 20.3538 52.4572C20.5271 52.3905 20.7138 52.3705 20.9138 52.3972C21.1404 52.4239 21.4138 52.4839 21.7338 52.5772C22.0671 52.6572 22.3471 52.7305 22.5738 52.7972C23.2938 52.7839 24.0271 52.7505 24.7738 52.6972C25.5338 52.6305 26.2138 52.5505 26.8138 52.4572C27.4271 52.3639 27.8671 52.2705 28.1338 52.1772C28.2804 52.1239 28.4004 52.1172 28.4938 52.1572C28.5871 52.1972 28.6604 52.2572 28.7138 52.3372C28.8204 52.4705 28.9204 52.6439 29.0138 52.8572C29.1204 53.0705 29.1738 53.2105 29.1738 53.2772C29.1738 53.3839 29.0938 53.5239 28.9338 53.6972C28.7871 53.8572 28.6671 53.9372 28.5738 53.9372C28.3071 53.9105 27.9338 53.8972 27.4538 53.8972C26.9871 53.8839 26.4738 53.8839 25.9138 53.8972C25.3671 53.9105 24.8204 53.9239 24.2738 53.9372C23.7404 53.9505 23.2738 53.9705 22.8738 53.9972V60.3372C22.8738 60.6305 22.9071 60.8372 22.9738 60.9572C23.0404 61.0639 23.2071 61.1105 23.4738 61.0972C24.1004 61.0705 24.7604 61.0039 25.4538 60.8972C26.1471 60.7905 26.8204 60.6639 27.4738 60.5172C28.1271 60.3572 28.7071 60.2039 29.2138 60.0572C29.7204 59.8972 30.1071 59.7639 30.3738 59.6572C30.5871 59.5639 30.7538 59.5505 30.8738 59.6172C30.9938 59.6705 31.0604 59.7572 31.0738 59.8772C31.0871 60.2905 30.7138 60.6772 29.9538 61.0372C29.5804 61.2105 29.0738 61.4039 28.4338 61.6172C27.7938 61.8172 27.0938 62.0172 26.3338 62.2172C25.5738 62.4039 24.8138 62.5639 24.0538 62.6972C23.3071 62.8305 22.6404 62.9105 22.0538 62.9372ZM32.5338 67.7172C32.3071 67.7172 32.1604 67.5505 32.0938 67.2172C32.0538 66.9905 32.0204 66.7172 31.9938 66.3972C31.9804 66.0772 31.9738 65.7639 31.9738 65.4572C31.9738 65.1505 31.9738 64.9105 31.9738 64.7372V52.9172C31.9738 52.8905 31.9738 52.8505 31.9738 52.7972C31.9738 52.3305 31.9338 51.9639 31.8538 51.6972C31.7871 51.4305 31.5404 51.1705 31.1138 50.9172C31.0338 50.8639 30.9604 50.8039 30.8938 50.7372C30.8271 50.6705 30.7938 50.5905 30.7938 50.4972C30.7938 50.3505 30.8671 50.1839 31.0138 49.9972C31.1604 49.8105 31.3404 49.7172 31.5538 49.7172C31.7004 49.7172 31.9004 49.7572 32.1538 49.8372C32.4071 49.9039 32.6671 49.9972 32.9338 50.1172C33.2004 50.2239 33.4271 50.3372 33.6138 50.4572C33.8671 50.6172 33.9938 50.7772 33.9938 50.9372C33.9804 51.1105 33.9471 51.3972 33.8938 51.7972C33.8538 52.1839 33.8338 52.5572 33.8338 52.9172L33.8138 64.6372C33.8138 64.8905 33.7938 65.1905 33.7538 65.5372C33.7138 65.8839 33.6404 66.2239 33.5338 66.5572C33.4404 66.8905 33.3071 67.1639 33.1338 67.3772C32.9738 67.6039 32.7738 67.7172 32.5338 67.7172ZM41.9361 68.9172C41.6028 68.9172 41.4161 68.6839 41.3761 68.2172L41.0961 64.2972C41.0694 63.8839 41.0161 63.5905 40.9361 63.4172C40.8694 63.2305 40.7028 63.0705 40.4361 62.9372C40.1694 62.7905 40.0761 62.5972 40.1561 62.3572C40.3028 61.9439 40.5894 61.7572 41.0161 61.7972C41.2428 61.8239 41.4761 61.8705 41.7161 61.9372C41.9694 61.9905 42.2161 62.0505 42.4561 62.1172C42.8028 62.1172 43.2028 62.1172 43.6561 62.1172C44.1094 62.1039 44.5561 62.0905 44.9961 62.0772C45.4494 62.0639 45.8428 62.0505 46.1761 62.0372C46.5094 62.0105 46.7161 61.9972 46.7961 61.9972C47.1828 61.9705 47.5294 61.9372 47.8361 61.8972C48.1428 61.8439 48.4228 61.7705 48.6761 61.6772C48.6761 61.6772 48.6828 61.6772 48.6961 61.6772C48.8028 61.6372 48.8761 61.6172 48.9161 61.6172C48.9694 61.6039 49.0561 61.6105 49.1761 61.6372L50.5961 61.9572C50.7694 61.9972 50.8294 62.1439 50.7761 62.3972C50.7494 62.5172 50.7161 62.6839 50.6761 62.8972C50.6494 63.1105 50.6161 63.3305 50.5761 63.5572C50.5494 63.7705 50.5294 63.9439 50.5161 64.0772C50.4628 64.5305 50.4028 64.9972 50.3361 65.4772C50.2828 65.9572 50.2294 66.4105 50.1761 66.8372C50.3094 66.9305 50.4428 67.0439 50.5761 67.1772C50.7228 67.3105 50.7961 67.3972 50.7961 67.4372C50.7961 67.6105 50.7361 67.7839 50.6161 67.9572C50.5094 68.1305 50.3761 68.2305 50.2161 68.2572C49.9494 68.2439 49.5828 68.2305 49.1161 68.2172C48.6494 68.2172 48.1294 68.2172 47.5561 68.2172C46.9828 68.2172 46.4028 68.2239 45.8161 68.2372C45.2294 68.2505 44.6828 68.2639 44.1761 68.2772C43.6694 68.2905 43.2494 68.3039 42.9161 68.3172C42.8094 68.4905 42.6694 68.6305 42.4961 68.7372C42.3228 68.8572 42.1361 68.9172 41.9361 68.9172ZM37.9761 61.5572C37.6694 61.6772 37.3761 61.7105 37.0961 61.6572C36.8161 61.6039 36.6561 61.4972 36.6161 61.3372C36.6028 61.2705 36.6094 61.1839 36.6361 61.0772C36.6761 60.9705 36.7761 60.8772 36.9361 60.7972C37.4694 60.5305 38.0694 60.1505 38.7361 59.6572C39.4028 59.1505 40.0628 58.5705 40.7161 57.9172C41.3694 57.2505 41.9561 56.5372 42.4761 55.7772C43.0094 55.0039 43.4028 54.2105 43.6561 53.3972C43.6828 53.2772 43.6294 53.2172 43.4961 53.2172C43.2028 53.2305 42.8361 53.2505 42.3961 53.2772C41.9561 53.2905 41.6161 53.3105 41.3761 53.3372C41.0028 53.3639 40.6094 53.3972 40.1961 53.4372C39.7828 53.4772 39.3761 53.5305 38.9761 53.5972C38.7228 53.6372 38.5428 53.6572 38.4361 53.6572C38.3294 53.6439 38.2028 53.5705 38.0561 53.4372C37.9628 53.3572 37.8228 53.2305 37.6361 53.0572C37.4494 52.8705 37.3228 52.7172 37.2561 52.5972C37.2294 52.4772 37.2828 52.3372 37.4161 52.1772C37.5494 52.0039 37.6694 51.9172 37.7761 51.9172C38.2694 52.0372 38.8228 52.1039 39.4361 52.1172C40.0494 52.1305 40.6161 52.1239 41.1361 52.0972C41.7494 52.0705 42.3428 52.0239 42.9161 51.9572C43.4894 51.8772 43.8694 51.7839 44.0561 51.6772C44.2161 51.6105 44.3628 51.5972 44.4961 51.6372C44.7094 51.7039 44.9628 51.7972 45.2561 51.9172C45.5494 52.0239 45.7828 52.1105 45.9561 52.1772C46.0628 52.2172 46.1361 52.2772 46.1761 52.3572C46.2161 52.4239 46.2028 52.5305 46.1361 52.6772C46.0828 52.8505 45.9694 53.1172 45.7961 53.4772C45.6228 53.8372 45.4761 54.1439 45.3561 54.3972C44.9161 55.2772 44.3228 56.1839 43.5761 57.1172C42.8428 58.0505 41.9961 58.9105 41.0361 59.6972C40.0894 60.4705 39.0694 61.0905 37.9761 61.5572ZM49.3761 60.8172C49.1494 60.8172 48.9961 60.6772 48.9161 60.3972C48.8494 60.0905 48.8094 59.7572 48.7961 59.3972C48.7828 59.0239 48.7761 58.7172 48.7761 58.4772C48.7761 58.4239 48.7761 58.3839 48.7761 58.3572V52.6172C48.7761 52.2439 48.7628 51.9639 48.7361 51.7772C48.7094 51.5772 48.6361 51.4172 48.5161 51.2972C48.4094 51.1772 48.2294 51.0305 47.9761 50.8572C47.8428 50.7772 47.7428 50.6839 47.6761 50.5772C47.6228 50.4705 47.6294 50.3505 47.6961 50.2172C47.8028 49.9905 47.9428 49.8439 48.1161 49.7772C48.2894 49.7105 48.4828 49.6972 48.6961 49.7372C49.0028 49.7905 49.3161 49.8972 49.6361 50.0572C49.9561 50.2039 50.2228 50.3505 50.4361 50.4972C50.6761 50.6572 50.7961 50.8239 50.7961 50.9972C50.7694 51.1705 50.7361 51.4105 50.6961 51.7172C50.6561 52.0239 50.6361 52.3305 50.6361 52.6372V55.6572C51.1561 55.6039 51.6228 55.5239 52.0361 55.4172C52.4628 55.2972 52.7628 55.2105 52.9361 55.1572C53.0828 55.1039 53.2028 55.0972 53.2961 55.1372C53.3894 55.1639 53.4628 55.2172 53.5161 55.2972C53.6228 55.4305 53.7294 55.6172 53.8361 55.8572C53.9428 56.0972 53.9961 56.2639 53.9961 56.3572C53.9961 56.4905 53.9094 56.6239 53.7361 56.7572C53.5761 56.8905 53.4494 56.9572 53.3561 56.9572C52.9428 56.8905 52.4961 56.8505 52.0161 56.8372C51.5494 56.8105 51.0894 56.7972 50.6361 56.7972V58.2572C50.6361 58.5905 50.5961 58.9572 50.5161 59.3572C50.4494 59.7439 50.3228 60.0839 50.1361 60.3772C49.9494 60.6572 49.6961 60.8039 49.3761 60.8172ZM43.0961 67.0172C43.5894 67.0172 44.1628 67.0172 44.8161 67.0172C45.4694 67.0039 46.1294 66.9839 46.7961 66.9572C47.4761 66.9305 48.0761 66.9039 48.5961 66.8772C48.6094 66.5172 48.6161 66.1172 48.6161 65.6772C48.6294 65.2372 48.6361 64.8172 48.6361 64.4172C48.6494 64.0039 48.6494 63.6905 48.6361 63.4772C48.6361 63.3572 48.6094 63.2839 48.5561 63.2572C48.5161 63.2172 48.4561 63.1972 48.3761 63.1972C48.2561 63.1972 47.9961 63.2039 47.5961 63.2172C47.1961 63.2172 46.7228 63.2239 46.1761 63.2372C45.6294 63.2505 45.0761 63.2639 44.5161 63.2772C43.9561 63.2905 43.4561 63.3105 43.0161 63.3372L43.0961 67.0172Z" fill="#014B2E"/>
<path d="M2.24 103.784C2.13333 103.851 1.97333 103.904 1.76 103.944C1.56 103.971 1.36667 103.971 1.18 103.944C0.993333 103.904 0.873333 103.817 0.82 103.684C0.806667 103.617 0.813333 103.537 0.84 103.444C0.866667 103.337 0.933333 103.237 1.04 103.144C1.70667 102.651 2.32 102.097 2.88 101.484C3.45333 100.857 3.95333 100.224 4.38 99.584C4.82 98.9307 5.16667 98.3173 5.42 97.744C5.67333 97.1707 5.80667 96.684 5.82 96.284C5.82 96.124 5.77333 95.9907 5.68 95.884C5.30667 95.9107 4.93333 95.9507 4.56 96.004C4.2 96.044 3.82667 96.0973 3.44 96.164C3.18667 96.2173 3.00667 96.2373 2.9 96.224C2.79333 96.2107 2.66667 96.1373 2.52 96.004C2.42667 95.924 2.3 95.7973 2.14 95.624C1.98 95.4507 1.86667 95.304 1.8 95.184C1.77333 95.064 1.82667 94.924 1.96 94.764C2.09333 94.5907 2.21333 94.504 2.32 94.504C2.74667 94.5973 3.24 94.6507 3.8 94.664C4.37333 94.664 5.01333 94.6573 5.72 94.644C6.65333 94.604 7.41333 94.5506 8 94.484C8.6 94.4173 9.08 94.3507 9.44 94.284C9.8 94.204 10.0867 94.144 10.3 94.104C10.4467 94.0773 10.5533 94.0773 10.62 94.104C10.7 94.1307 10.7667 94.184 10.82 94.264C10.9267 94.4373 11.0133 94.6307 11.08 94.844C11.1467 95.0573 11.18 95.1973 11.18 95.264C11.18 95.3707 11.1 95.4907 10.94 95.624C10.7933 95.7573 10.6733 95.824 10.58 95.824C10.2067 95.7973 9.73333 95.7773 9.16 95.764C8.6 95.7507 7.99333 95.7573 7.34 95.784C7.52667 95.8907 7.68 96.0173 7.8 96.164C7.92 96.2973 7.97333 96.4173 7.96 96.524C7.82667 96.9373 7.65333 97.3507 7.44 97.764C7.24 98.164 7.02667 98.564 6.8 98.964C7.50667 99.484 8.10667 99.8707 8.6 100.124C9.09333 100.377 9.52667 100.557 9.9 100.664C10.02 100.717 10.16 100.851 10.32 101.064C10.48 101.277 10.62 101.517 10.74 101.784C10.86 102.051 10.92 102.297 10.92 102.524C10.8933 102.764 10.7467 102.951 10.48 103.084C10.2133 103.217 9.99333 103.264 9.82 103.224C9.5 102.837 9.12667 102.444 8.7 102.044C8.28667 101.644 7.86667 101.257 7.44 100.884C7.01333 100.511 6.61333 100.171 6.24 99.864C5.62667 100.717 4.96 101.491 4.24 102.184C3.53333 102.877 2.86667 103.411 2.24 103.784ZM14.18 106.084C13.94 106.084 13.7867 105.951 13.72 105.684C13.6533 105.377 13.6133 105.024 13.6 104.624C13.5867 104.224 13.58 103.891 13.58 103.624C13.58 103.557 13.58 103.511 13.58 103.484V99.104C13.4467 99.1173 13.32 99.1307 13.2 99.144C13.0933 99.144 13.0067 99.1507 12.94 99.164C12.6467 99.1907 12.3467 99.2307 12.04 99.284C11.7467 99.324 11.4667 99.3773 11.2 99.444C11.0267 99.4973 10.8867 99.524 10.78 99.524C10.6867 99.524 10.58 99.504 10.46 99.464C10.38 99.424 10.2467 99.3507 10.06 99.244C9.88667 99.1373 9.72 99.0307 9.56 98.924C9.41333 98.8173 9.33333 98.7373 9.32 98.684C9.26667 98.524 9.30667 98.364 9.44 98.204C9.58667 98.0307 9.72667 97.944 9.86 97.944C10.0867 97.984 10.36 98.0173 10.68 98.044C11 98.0707 11.3267 98.0773 11.66 98.064C11.8467 98.064 12.12 98.0573 12.48 98.044C12.84 98.0173 13.2067 97.9907 13.58 97.964V95.084C13.58 94.7107 13.56 94.4307 13.52 94.244C13.4933 94.0573 13.42 93.904 13.3 93.784C13.18 93.6507 12.9933 93.504 12.74 93.344C12.6067 93.264 12.5067 93.1707 12.44 93.064C12.3867 92.944 12.3933 92.8173 12.46 92.684C12.5667 92.4573 12.7067 92.3107 12.88 92.244C13.0533 92.1773 13.2467 92.164 13.46 92.204C13.7667 92.2573 14.0867 92.364 14.42 92.524C14.7533 92.6706 15.0267 92.8173 15.24 92.964C15.48 93.1373 15.6 93.304 15.6 93.464C15.5733 93.6373 15.54 93.8773 15.5 94.184C15.46 94.4907 15.44 94.7973 15.44 95.104V103.384C15.44 103.717 15.4 104.091 15.32 104.504C15.2533 104.917 15.1267 105.284 14.94 105.604C14.7533 105.911 14.5 106.071 14.18 106.084ZM7.48 110.784C7.28 110.771 7.05333 110.711 6.8 110.604C6.56 110.497 6.35333 110.311 6.18 110.044C6.00667 109.791 5.92 109.437 5.92 108.984V107.524C5.92 107.124 5.90667 106.831 5.88 106.644C5.86667 106.444 5.81333 106.284 5.72 106.164C5.62667 106.044 5.46667 105.911 5.24 105.764C5.12 105.684 5.04 105.597 5 105.504C4.97333 105.411 4.99333 105.291 5.06 105.144C5.16667 104.917 5.30667 104.777 5.48 104.724C5.66667 104.671 5.85333 104.657 6.04 104.684C6.26667 104.724 6.51333 104.797 6.78 104.904C7.06 104.997 7.3 105.104 7.5 105.224C7.64667 105.317 7.76667 105.411 7.86 105.504C7.96667 105.584 8.02 105.677 8.02 105.784C7.96667 106.011 7.92667 106.277 7.9 106.584C7.87333 106.891 7.86 107.171 7.86 107.424V108.744C7.86 109.077 7.90667 109.284 8 109.364C8.09333 109.431 8.24 109.471 8.44 109.484C8.94667 109.497 9.48 109.504 10.04 109.504C10.6133 109.504 11.2867 109.484 12.06 109.444C12.9267 109.404 13.6733 109.317 14.3 109.184C14.9267 109.051 15.34 108.957 15.54 108.904C15.6867 108.851 15.8067 108.844 15.9 108.884C15.9933 108.924 16.0667 108.984 16.12 109.064C16.2267 109.197 16.3333 109.377 16.44 109.604C16.5467 109.831 16.6 109.984 16.6 110.064C16.6 110.171 16.52 110.304 16.36 110.464C16.2133 110.624 16.0933 110.704 16 110.704C15.8267 110.691 15.5533 110.677 15.18 110.664C14.8067 110.664 14.38 110.664 13.9 110.664C13.42 110.664 12.9267 110.671 12.42 110.684C12.2867 110.684 12.12 110.684 11.92 110.684C11.7333 110.697 11.52 110.711 11.28 110.724C10.8667 110.737 10.4133 110.751 9.92 110.764C9.44 110.777 8.98 110.784 8.54 110.784C8.1 110.797 7.74667 110.797 7.48 110.784ZM20.2777 103.824C19.9843 103.891 19.771 103.911 19.6377 103.884C19.5177 103.857 19.3843 103.791 19.2377 103.684C19.1577 103.617 19.0377 103.517 18.8777 103.384C18.731 103.251 18.5843 103.117 18.4377 102.984C18.3043 102.851 18.2243 102.751 18.1977 102.684C18.171 102.577 18.231 102.424 18.3777 102.224C18.5243 102.024 18.6777 101.931 18.8377 101.944C19.2643 102.037 19.771 102.111 20.3577 102.164C20.9577 102.204 21.591 102.231 22.2577 102.244C22.8577 102.244 23.5177 102.244 24.2377 102.244C24.9577 102.231 25.6843 102.217 26.4177 102.204L26.3377 100.064C25.7643 100.077 25.1777 100.097 24.5777 100.124C23.9777 100.137 23.511 100.144 23.1777 100.144C22.871 100.144 22.6177 99.9973 22.4177 99.704C22.2177 99.4107 22.1177 98.924 22.1177 98.244V95.504C22.1177 95.0773 22.0777 94.7973 21.9977 94.664C21.931 94.5307 21.7443 94.3773 21.4377 94.204C21.1443 94.044 21.0443 93.8373 21.1377 93.584C21.2443 93.3173 21.3843 93.1573 21.5577 93.104C21.7443 93.0506 21.9377 93.0373 22.1377 93.064C22.3243 93.0907 22.551 93.1373 22.8177 93.204C23.0843 93.2573 23.3243 93.3173 23.5377 93.384C24.1243 93.3973 24.8043 93.3907 25.5777 93.364C26.351 93.3373 27.1843 93.2973 28.0777 93.244C29.0243 93.1907 29.7443 93.124 30.2377 93.044C30.7443 92.964 31.0977 92.8906 31.2977 92.824C31.4443 92.7706 31.5643 92.764 31.6577 92.804C31.7643 92.844 31.8443 92.904 31.8977 92.984C32.0043 93.1173 32.111 93.2707 32.2177 93.444C32.3377 93.6173 32.3977 93.744 32.3977 93.824C32.3977 93.9307 32.3177 94.064 32.1577 94.224C32.011 94.3707 31.891 94.444 31.7977 94.444C31.5443 94.4173 31.1043 94.404 30.4777 94.404C29.8643 94.404 29.1843 94.4107 28.4377 94.424C27.5443 94.4373 26.711 94.4707 25.9377 94.524C25.1777 94.564 24.551 94.5973 24.0577 94.624V96.044C24.6443 96.0307 25.2843 96.0173 25.9777 96.004C26.671 95.9773 27.3843 95.9507 28.1177 95.924C29.0243 95.884 29.7177 95.8373 30.1977 95.784C30.691 95.7173 31.0377 95.6573 31.2377 95.604C31.3843 95.564 31.4977 95.564 31.5777 95.604C31.6577 95.6307 31.7243 95.684 31.7777 95.764C31.8843 95.8973 31.9843 96.0373 32.0777 96.184C32.171 96.3307 32.2177 96.4373 32.2177 96.504C32.2177 96.6107 32.1443 96.744 31.9977 96.904C31.851 97.0507 31.731 97.124 31.6377 97.124C30.9443 97.0707 29.8843 97.0507 28.4577 97.064C27.711 97.0773 26.9377 97.104 26.1377 97.144C25.3377 97.1707 24.6443 97.1973 24.0577 97.224V97.984C24.0577 98.3573 24.0843 98.5973 24.1377 98.704C24.2043 98.7973 24.371 98.844 24.6377 98.844C25.1443 98.844 25.691 98.8373 26.2777 98.824C26.8777 98.8107 27.5643 98.7907 28.3377 98.764C29.2843 98.724 30.0177 98.6707 30.5377 98.604C31.071 98.524 31.4377 98.4573 31.6377 98.404C31.7843 98.3507 31.9043 98.344 31.9977 98.384C32.091 98.424 32.1643 98.484 32.2177 98.564C32.3243 98.6973 32.431 98.8573 32.5377 99.044C32.6443 99.2173 32.6977 99.3373 32.6977 99.404C32.6977 99.5107 32.6177 99.644 32.4577 99.804C32.311 99.964 32.191 100.044 32.0977 100.044C31.9377 100.031 31.6443 100.024 31.2177 100.024C30.791 100.011 30.311 100.004 29.7777 100.004C29.2577 99.9907 28.751 99.9907 28.2577 100.004L28.1577 102.144C28.6643 102.117 29.1443 102.097 29.5977 102.084C30.051 102.057 30.451 102.037 30.7977 102.024C31.6243 101.971 32.391 101.904 33.0977 101.824C33.8177 101.744 34.3843 101.651 34.7977 101.544C35.0643 101.477 35.2443 101.457 35.3377 101.484C35.4443 101.497 35.5443 101.577 35.6377 101.724C35.731 101.857 35.831 102.044 35.9377 102.284C36.0443 102.511 36.0977 102.671 36.0977 102.764C36.0843 102.911 35.9843 103.057 35.7977 103.204C35.6243 103.337 35.4977 103.404 35.4177 103.404C35.0443 103.364 34.6777 103.337 34.3177 103.324C33.971 103.297 33.5577 103.277 33.0777 103.264C32.611 103.251 32.0043 103.244 31.2577 103.244C30.4977 103.244 29.6377 103.257 28.6777 103.284C27.7177 103.297 26.7577 103.324 25.7977 103.364C24.8377 103.404 23.971 103.444 23.1977 103.484C22.6243 103.511 22.0977 103.557 21.6177 103.624C21.1377 103.677 20.691 103.744 20.2777 103.824ZM27.3377 111.484C26.4443 111.484 25.6577 111.344 24.9777 111.064C24.2977 110.784 23.7643 110.391 23.3777 109.884C22.991 109.377 22.7977 108.784 22.7977 108.104C22.7977 107.451 23.0043 106.871 23.4177 106.364C23.8443 105.844 24.4043 105.437 25.0977 105.144C25.8043 104.837 26.5777 104.684 27.4177 104.684C28.2843 104.684 29.0643 104.804 29.7577 105.044C30.451 105.271 30.9977 105.624 31.3977 106.104C31.7977 106.571 31.9977 107.171 31.9977 107.904C31.9977 108.624 31.791 109.251 31.3777 109.784C30.9777 110.331 30.4243 110.751 29.7177 111.044C29.0243 111.337 28.231 111.484 27.3377 111.484ZM27.3777 110.104C28.1243 110.104 28.7443 109.931 29.2377 109.584C29.7443 109.224 29.9977 108.697 29.9977 108.004C29.9977 107.337 29.751 106.831 29.2577 106.484C28.7777 106.124 28.1843 105.944 27.4777 105.944C26.7043 105.944 26.0577 106.137 25.5377 106.524C25.0177 106.897 24.7577 107.417 24.7577 108.084C24.7577 108.737 25.011 109.237 25.5177 109.584C26.0243 109.931 26.6443 110.104 27.3777 110.104Z" fill="#014B2E"/>
<path d="M6.08 153.951C5.90667 153.951 5.76 153.871 5.64 153.711C5.53333 153.564 5.48 153.324 5.48 152.991L5.46 149.411C5.46 149.371 5.46 149.311 5.46 149.231C5.46 148.711 5.43333 148.324 5.38 148.071C5.32667 147.817 5.14 147.571 4.82 147.331C4.60667 147.171 4.56 146.964 4.68 146.711C4.78667 146.484 4.93333 146.351 5.12 146.311C5.30667 146.271 5.48667 146.271 5.66 146.311C5.88667 146.364 6.14667 146.471 6.44 146.631C6.73333 146.777 6.95333 146.911 7.1 147.031C7.24667 147.151 7.34 147.251 7.38 147.331C7.43333 147.411 7.46 147.484 7.46 147.551C7.44667 147.671 7.42667 147.811 7.4 147.971C7.38667 148.117 7.37333 148.277 7.36 148.451C7.68 148.464 8.1 148.471 8.62 148.471C9.15333 148.457 9.71333 148.444 10.3 148.431C10.9 148.404 11.46 148.377 11.98 148.351C12.5133 148.324 12.94 148.297 13.26 148.271C13.26 147.817 13.24 147.477 13.2 147.251C13.16 147.024 13.0133 146.824 12.76 146.651C12.6533 146.571 12.5667 146.477 12.5 146.371C12.4467 146.264 12.46 146.144 12.54 146.011C12.66 145.784 12.8067 145.644 12.98 145.591C13.1533 145.524 13.3333 145.524 13.52 145.591C13.7467 145.644 13.96 145.717 14.16 145.811C14.3733 145.904 14.5867 146.024 14.8 146.171C15.1067 146.357 15.2733 146.531 15.3 146.691C15.2467 146.971 15.2067 147.317 15.18 147.731C15.1533 148.131 15.14 148.457 15.14 148.711V152.051C15.14 152.544 15.0067 152.957 14.74 153.291C14.4733 153.637 14.18 153.811 13.86 153.811C13.66 153.811 13.52 153.751 13.44 153.631C13.36 153.511 13.3067 153.344 13.28 153.131C12.96 153.131 12.5267 153.131 11.98 153.131C11.4333 153.131 10.8533 153.137 10.24 153.151C9.62667 153.164 9.04 153.177 8.48 153.191C7.93333 153.204 7.49333 153.217 7.16 153.231C7.04 153.457 6.87333 153.631 6.66 153.751C6.46 153.884 6.26667 153.951 6.08 153.951ZM5.7 144.131C4.87333 144.144 4.11333 144.004 3.42 143.711C2.74 143.404 2.2 142.964 1.8 142.391C1.4 141.804 1.2 141.117 1.2 140.331C1.2 139.584 1.4 138.917 1.8 138.331C2.21333 137.731 2.76 137.257 3.44 136.911C4.12 136.551 4.86667 136.364 5.68 136.351C6.50667 136.324 7.26 136.457 7.94 136.751C8.62 137.044 9.16667 137.477 9.58 138.051C9.99333 138.624 10.2 139.331 10.2 140.171C10.2 140.931 9.99333 141.604 9.58 142.191C9.16667 142.777 8.62 143.244 7.94 143.591C7.26 143.924 6.51333 144.104 5.7 144.131ZM5.68 142.811C6.41333 142.784 7.02667 142.544 7.52 142.091C8.01333 141.624 8.26 140.984 8.26 140.171C8.26 139.277 8.00667 138.631 7.5 138.231C7.00667 137.817 6.40667 137.631 5.7 137.671C4.95333 137.711 4.33333 137.957 3.84 138.411C3.34667 138.864 3.1 139.497 3.1 140.311C3.1 141.137 3.34667 141.771 3.84 142.211C4.33333 142.637 4.94667 142.837 5.68 142.811ZM13.98 145.051C13.7267 145.051 13.5733 144.917 13.52 144.651C13.4667 144.304 13.4267 143.931 13.4 143.531C13.3867 143.117 13.38 142.791 13.38 142.551V137.551C13.38 137.177 13.3667 136.897 13.34 136.711C13.3133 136.511 13.24 136.351 13.12 136.231C13.0133 136.111 12.8333 135.964 12.58 135.791C12.4467 135.711 12.3467 135.617 12.28 135.511C12.2267 135.404 12.2333 135.284 12.3 135.151C12.4067 134.924 12.5467 134.777 12.72 134.711C12.8933 134.644 13.0867 134.631 13.3 134.671C13.6067 134.724 13.92 134.831 14.24 134.991C14.56 135.137 14.8267 135.284 15.04 135.431C15.28 135.591 15.4 135.757 15.4 135.931C15.3733 136.104 15.34 136.344 15.3 136.651C15.26 136.957 15.24 137.264 15.24 137.571V142.431C15.24 142.764 15.2 143.137 15.12 143.551C15.0533 143.964 14.9267 144.317 14.74 144.611C14.5533 144.904 14.3 145.051 13.98 145.051ZM7.34 151.951C7.7 151.964 8.14667 151.971 8.68 151.971C9.21333 151.957 9.76667 151.944 10.34 151.931C10.9267 151.904 11.48 151.877 12 151.851C12.52 151.824 12.94 151.797 13.26 151.771V149.611C12.9533 149.611 12.54 149.617 12.02 149.631C11.5 149.631 10.9467 149.637 10.36 149.651C9.77333 149.651 9.20667 149.664 8.66 149.691C8.12667 149.704 7.68667 149.717 7.34 149.731V151.951ZM23.1223 142.751C22.949 142.751 22.8157 142.677 22.7223 142.531C22.629 142.371 22.569 142.184 22.5423 141.971L22.2623 138.151C22.2357 137.751 22.1757 137.464 22.0823 137.291C22.0023 137.117 21.829 136.964 21.5623 136.831C21.429 136.764 21.3357 136.684 21.2823 136.591C21.229 136.497 21.229 136.377 21.2823 136.231C21.349 136.031 21.4623 135.877 21.6223 135.771C21.7823 135.664 21.969 135.631 22.1823 135.671C22.3823 135.711 22.5957 135.757 22.8223 135.811C23.0623 135.851 23.2957 135.904 23.5223 135.971C23.8823 135.971 24.3023 135.971 24.7823 135.971C25.2623 135.957 25.7357 135.944 26.2023 135.931C26.6823 135.904 27.0957 135.884 27.4423 135.871C27.8023 135.844 28.0223 135.831 28.1023 135.831C28.489 135.804 28.8623 135.771 29.2223 135.731C29.5823 135.677 29.889 135.604 30.1423 135.511C30.1423 135.511 30.149 135.511 30.1623 135.511C30.269 135.471 30.3423 135.451 30.3823 135.451C30.4357 135.437 30.5223 135.444 30.6423 135.471L32.1823 135.871C32.369 135.924 32.429 136.077 32.3623 136.331C32.3357 136.451 32.2957 136.617 32.2423 136.831C32.189 137.044 32.1357 137.264 32.0823 137.491C32.029 137.704 31.989 137.877 31.9623 138.011C31.869 138.464 31.789 138.917 31.7223 139.371C31.6557 139.824 31.5823 140.271 31.5023 140.711C31.6223 140.791 31.7423 140.891 31.8623 141.011C31.9823 141.117 32.049 141.204 32.0623 141.271C32.0757 141.404 32.0223 141.564 31.9023 141.751C31.7823 141.924 31.6423 142.031 31.4823 142.071C31.0957 142.044 30.5757 142.031 29.9223 142.031C29.269 142.017 28.569 142.017 27.8223 142.031C27.089 142.044 26.389 142.064 25.7223 142.091C25.0557 142.104 24.509 142.124 24.0823 142.151C23.989 142.324 23.849 142.471 23.6623 142.591C23.489 142.697 23.309 142.751 23.1223 142.751ZM27.1623 150.151C26.9223 150.151 26.769 150.017 26.7023 149.751C26.6357 149.444 26.5957 149.117 26.5823 148.771C26.569 148.424 26.5623 148.124 26.5623 147.871C26.5623 147.804 26.5623 147.757 26.5623 147.731V145.511C25.9223 145.524 25.2957 145.544 24.6823 145.571C24.0823 145.597 23.5223 145.624 23.0023 145.651C22.429 145.677 21.9023 145.724 21.4223 145.791C20.9423 145.844 20.4957 145.911 20.0823 145.991C19.789 146.057 19.5757 146.077 19.4423 146.051C19.3223 146.024 19.189 145.957 19.0423 145.851C18.9623 145.784 18.8423 145.684 18.6823 145.551C18.5357 145.417 18.389 145.284 18.2423 145.151C18.109 145.017 18.029 144.917 18.0023 144.851C17.9757 144.744 18.0357 144.591 18.1823 144.391C18.329 144.191 18.4823 144.097 18.6423 144.111C19.069 144.204 19.5757 144.277 20.1623 144.331C20.7623 144.371 21.3957 144.397 22.0623 144.411C22.7023 144.411 23.409 144.411 24.1823 144.411C24.9557 144.397 25.7357 144.377 26.5223 144.351C27.3223 144.324 28.0757 144.297 28.7823 144.271C29.489 144.244 30.0957 144.217 30.6023 144.191C31.429 144.137 32.1957 144.071 32.9023 143.991C33.6223 143.911 34.189 143.817 34.6023 143.711C34.869 143.644 35.049 143.624 35.1423 143.651C35.249 143.664 35.349 143.744 35.4423 143.891C35.5357 144.024 35.6357 144.211 35.7423 144.451C35.849 144.677 35.9023 144.837 35.9023 144.931C35.889 145.077 35.789 145.224 35.6023 145.371C35.429 145.504 35.3023 145.571 35.2223 145.571C34.849 145.531 34.4823 145.504 34.1223 145.491C33.7757 145.464 33.3623 145.444 32.8823 145.431C32.4157 145.417 31.809 145.411 31.0623 145.411C30.6757 145.411 30.2557 145.417 29.8023 145.431C29.3623 145.431 28.909 145.437 28.4423 145.451V147.631C28.4423 147.964 28.4023 148.331 28.3223 148.731C28.2423 149.117 28.109 149.451 27.9223 149.731C27.7357 150.011 27.4823 150.151 27.1623 150.151ZM23.9223 153.251C23.7223 153.237 23.4957 153.171 23.2423 153.051C23.0023 152.944 22.7957 152.757 22.6223 152.491C22.449 152.237 22.3623 151.891 22.3623 151.451V150.331C22.3623 149.824 22.3357 149.477 22.2823 149.291C22.229 149.091 22.0357 148.904 21.7023 148.731C21.449 148.597 21.389 148.391 21.5223 148.111C21.629 147.884 21.769 147.744 21.9423 147.691C22.129 147.637 22.3157 147.624 22.5023 147.651C22.729 147.691 22.9757 147.764 23.2423 147.871C23.509 147.964 23.7423 148.071 23.9423 148.191C24.089 148.284 24.209 148.377 24.3023 148.471C24.409 148.551 24.4623 148.644 24.4623 148.751C24.409 148.977 24.369 149.217 24.3423 149.471C24.3157 149.724 24.3023 149.977 24.3023 150.231V151.251C24.3023 151.544 24.329 151.731 24.3823 151.811C24.449 151.891 24.5823 151.937 24.7823 151.951C25.289 151.964 25.8823 151.971 26.5623 151.971C27.2557 151.971 27.989 151.944 28.7623 151.891C29.6023 151.837 30.3357 151.751 30.9623 151.631C31.589 151.511 32.0023 151.424 32.2023 151.371C32.349 151.317 32.469 151.311 32.5623 151.351C32.6557 151.391 32.729 151.451 32.7823 151.531C32.889 151.664 32.9957 151.851 33.1023 152.091C33.209 152.331 33.2623 152.484 33.2623 152.551C33.2623 152.671 33.1823 152.811 33.0223 152.971C32.8757 153.131 32.7557 153.211 32.6623 153.211C32.489 153.197 32.209 153.184 31.8223 153.171C31.4357 153.157 30.9957 153.151 30.5023 153.151C30.0223 153.151 29.529 153.157 29.0223 153.171C28.9157 153.171 28.7823 153.171 28.6223 153.171C28.4757 153.184 28.3157 153.191 28.1423 153.191C27.7023 153.204 27.209 153.217 26.6623 153.231C26.1157 153.244 25.5957 153.251 25.1023 153.251C24.609 153.264 24.2157 153.264 23.9223 153.251ZM24.2623 140.871C24.769 140.871 25.349 140.871 26.0023 140.871C26.669 140.857 27.3423 140.837 28.0223 140.811C28.7023 140.784 29.3157 140.757 29.8623 140.731L30.0223 137.271C30.0223 137.151 29.9957 137.077 29.9423 137.051C29.9023 137.011 29.8423 136.991 29.7623 136.991C29.6423 136.991 29.3757 136.997 28.9623 137.011C28.5623 137.011 28.0757 137.024 27.5023 137.051C26.9423 137.064 26.369 137.084 25.7823 137.111C25.1957 137.124 24.669 137.144 24.2023 137.171L24.2623 140.871ZM41.4616 144.051C41.1549 144.051 40.8816 143.891 40.6416 143.571C40.4149 143.237 40.3016 142.731 40.3016 142.051V139.111C40.3016 138.684 40.2549 138.377 40.1616 138.191C40.0816 138.004 39.8882 137.824 39.5816 137.651C39.3016 137.491 39.2082 137.297 39.3016 137.071C39.4082 136.804 39.5482 136.644 39.7216 136.591C39.8949 136.524 40.0816 136.504 40.2816 136.531C40.5082 136.557 40.7882 136.617 41.1216 136.711C41.4549 136.791 41.7349 136.864 41.9616 136.931C42.5616 136.944 43.2816 136.937 44.1216 136.911C44.9616 136.884 45.8082 136.844 46.6616 136.791C47.6082 136.724 48.3349 136.651 48.8416 136.571C49.3482 136.491 49.7016 136.417 49.9016 136.351C50.0482 136.297 50.1682 136.291 50.2616 136.331C50.3549 136.371 50.4282 136.431 50.4816 136.511C50.5882 136.644 50.7016 136.811 50.8216 137.011C50.9416 137.211 51.0016 137.344 51.0016 137.411C51.0016 137.517 50.9216 137.651 50.7616 137.811C50.6149 137.971 50.4949 138.051 50.4016 138.051C50.1482 138.024 49.7082 138.011 49.0816 138.011C48.4549 137.997 47.7682 137.997 47.0216 138.011C46.1016 138.024 45.2082 138.051 44.3416 138.091C43.4749 138.117 42.7749 138.144 42.2416 138.171V141.871C42.2416 142.244 42.2949 142.491 42.4016 142.611C42.5082 142.731 42.6949 142.784 42.9616 142.771C43.2949 142.757 43.6216 142.751 43.9416 142.751C44.2616 142.751 44.6416 142.744 45.0816 142.731C45.5216 142.717 46.0749 142.691 46.7416 142.651C47.6882 142.597 48.4416 142.524 49.0016 142.431C49.5616 142.324 49.9416 142.244 50.1416 142.191C50.2882 142.137 50.4082 142.131 50.5016 142.171C50.5949 142.211 50.6682 142.271 50.7216 142.351C50.8282 142.484 50.9349 142.664 51.0416 142.891C51.1482 143.104 51.2016 143.244 51.2016 143.311C51.2016 143.417 51.1216 143.551 50.9616 143.711C50.8149 143.871 50.6949 143.951 50.6016 143.951C50.3482 143.924 49.8882 143.911 49.2216 143.911C48.5549 143.897 47.8482 143.897 47.1016 143.911C46.9816 143.911 46.7416 143.917 46.3816 143.931C46.0349 143.931 45.6282 143.937 45.1616 143.951C44.7082 143.964 44.2349 143.984 43.7416 144.011C43.2616 144.024 42.8149 144.037 42.4016 144.051C42.0016 144.051 41.6882 144.051 41.4616 144.051ZM38.6816 150.451C38.4949 150.451 38.3082 150.384 38.1216 150.251C37.9082 150.117 37.6749 149.937 37.4216 149.711C37.1816 149.471 37.0482 149.304 37.0216 149.211C36.9816 149.091 37.0349 148.931 37.1816 148.731C37.3282 148.517 37.4882 148.424 37.6616 148.451C38.0882 148.544 38.6282 148.624 39.2816 148.691C39.9482 148.744 40.7282 148.771 41.6216 148.771C41.9816 148.771 42.4549 148.771 43.0416 148.771C43.6416 148.757 44.2682 148.744 44.9216 148.731L44.9016 147.031C44.8882 146.537 44.8482 146.217 44.7816 146.071C44.7149 145.911 44.5816 145.751 44.3816 145.591C44.3682 145.577 44.3549 145.564 44.3416 145.551C44.2216 145.457 44.1416 145.377 44.1016 145.311C44.0616 145.244 44.0682 145.144 44.1216 145.011C44.2282 144.784 44.3682 144.637 44.5416 144.571C44.7149 144.504 44.8882 144.484 45.0616 144.511C45.2882 144.551 45.5282 144.624 45.7816 144.731C46.0482 144.837 46.2749 144.951 46.4616 145.071C46.7282 145.231 46.8749 145.377 46.9016 145.511C46.7949 145.937 46.7349 146.391 46.7216 146.871L46.6216 148.691C47.1549 148.677 47.6482 148.664 48.1016 148.651C48.5682 148.624 48.9416 148.604 49.2216 148.591C50.0482 148.537 50.7949 148.471 51.4616 148.391C52.1416 148.297 52.6882 148.197 53.1016 148.091C53.2749 148.037 53.4216 148.011 53.5416 148.011C53.6882 148.011 53.8216 148.097 53.9416 148.271C54.0349 148.417 54.1349 148.611 54.2416 148.851C54.3482 149.091 54.4016 149.257 54.4016 149.351C54.4016 149.497 54.3082 149.644 54.1216 149.791C53.9349 149.924 53.8016 149.991 53.7216 149.991C53.4016 149.951 53.0016 149.924 52.5216 149.911C52.0416 149.884 51.5416 149.871 51.0216 149.871C50.5149 149.857 50.0282 149.851 49.5616 149.851C48.4149 149.864 47.1616 149.891 45.8016 149.931C44.4416 149.957 43.0482 149.997 41.6216 150.051C41.4082 150.064 41.1216 150.091 40.7616 150.131C40.4149 150.171 40.0749 150.217 39.7416 150.271C39.4216 150.311 39.1816 150.351 39.0216 150.391C38.8882 150.431 38.7749 150.451 38.6816 150.451Z" fill="#014B2E"/>
<path d="M18.507 24.8C17.6536 24.8 16.907 24.6533 16.267 24.36C15.627 24.0667 15.127 23.66 14.767 23.14C14.407 22.6333 14.227 22.0467 14.227 21.38C14.227 20.7133 14.4203 20.12 14.807 19.6C15.207 19.0667 15.7336 18.6533 16.387 18.36C17.0536 18.0533 17.787 17.9 18.587 17.9C19.4003 17.9 20.1336 18.0333 20.787 18.3C21.4403 18.5533 21.9603 18.9333 22.347 19.44C22.7336 19.9467 22.927 20.5733 22.927 21.32C22.927 22 22.727 22.6 22.327 23.12C21.9403 23.64 21.4136 24.0467 20.747 24.34C20.0803 24.6467 19.3336 24.8 18.507 24.8ZM14.647 17.1C13.7803 17.1133 13.0536 16.9733 12.467 16.68C11.8803 16.3867 11.4336 16.0067 11.127 15.54C10.8336 15.0733 10.687 14.6067 10.687 14.14C10.687 13.6467 10.8136 13.1667 11.067 12.7C11.3203 12.22 11.7336 11.8267 12.307 11.52C12.8803 11.2 13.6403 11.0333 14.587 11.02C15.2003 11.0067 15.8136 11.0933 16.427 11.28C17.0403 11.4533 17.547 11.7533 17.947 12.18C18.3603 12.6067 18.567 13.1933 18.567 13.94C18.567 14.4467 18.4203 14.94 18.127 15.42C17.847 15.9 17.4136 16.2933 16.827 16.6C16.2536 16.9067 15.527 17.0733 14.647 17.1ZM21.907 17.9C21.6536 17.9 21.5003 17.76 21.447 17.48C21.3936 17.1333 21.3536 16.7733 21.327 16.4C21.3136 16.0267 21.307 15.7333 21.307 15.52V8.5C21.307 8.12667 21.2936 7.84667 21.267 7.66C21.2403 7.46 21.167 7.3 21.047 7.18C20.9403 7.06 20.7603 6.91333 20.507 6.74C20.3736 6.66 20.2736 6.56667 20.207 6.46C20.1536 6.35333 20.1603 6.23333 20.227 6.1C20.3336 5.87333 20.4736 5.72667 20.647 5.66C20.8203 5.59333 21.0136 5.58 21.227 5.62C21.5336 5.67333 21.847 5.78 22.167 5.94C22.487 6.08667 22.7536 6.23333 22.967 6.38C23.207 6.54 23.327 6.70667 23.327 6.88C23.3003 7.05333 23.267 7.29333 23.227 7.6C23.187 7.90667 23.167 8.21333 23.167 8.52V9.72C23.6736 9.66667 24.127 9.58667 24.527 9.48C24.927 9.37333 25.207 9.29333 25.367 9.24C25.5136 9.18667 25.6336 9.18 25.727 9.22C25.8203 9.24667 25.8936 9.3 25.947 9.38C26.0536 9.51333 26.1603 9.69333 26.267 9.92C26.3736 10.1333 26.427 10.2867 26.427 10.38C26.427 10.5133 26.3403 10.6467 26.167 10.78C26.007 10.9133 25.8803 10.98 25.787 10.98C25.3736 10.9133 24.9403 10.88 24.487 10.88C24.047 10.8667 23.607 10.86 23.167 10.86V13.66C23.687 13.62 24.1603 13.5533 24.587 13.46C25.0136 13.3533 25.307 13.2733 25.467 13.22C25.6136 13.1667 25.7336 13.16 25.827 13.2C25.9203 13.2267 25.9936 13.28 26.047 13.36C26.1536 13.4933 26.2603 13.68 26.367 13.92C26.4736 14.1467 26.527 14.3133 26.527 14.42C26.527 14.5533 26.4403 14.6867 26.267 14.82C26.107 14.94 25.9803 15 25.887 15C25.4736 14.9333 25.027 14.8933 24.547 14.88C24.0803 14.8533 23.6203 14.8333 23.167 14.82V15.42C23.167 15.7533 23.127 16.1133 23.047 16.5C22.9803 16.8733 22.8536 17.2 22.667 17.48C22.4803 17.7467 22.227 17.8867 21.907 17.9ZM18.527 23.4C19.2203 23.4 19.8003 23.22 20.267 22.86C20.7336 22.4867 20.9736 21.9533 20.987 21.26C21.0136 20.5933 20.7803 20.0733 20.287 19.7C19.807 19.3267 19.227 19.14 18.547 19.14C17.8536 19.14 17.2803 19.3533 16.827 19.78C16.3736 20.1933 16.147 20.7133 16.147 21.34C16.147 21.98 16.367 22.4867 16.807 22.86C17.2603 23.22 17.8336 23.4 18.527 23.4ZM10.467 10.68C10.2136 10.7333 10.0336 10.7533 9.92695 10.74C9.82029 10.7267 9.69362 10.6533 9.54695 10.52C9.45362 10.44 9.32695 10.3133 9.16695 10.14C9.00695 9.96667 8.89362 9.82 8.82695 9.7C8.80029 9.58 8.85362 9.44667 8.98695 9.3C9.12029 9.14 9.24029 9.06 9.34695 9.06C9.56029 9.1 9.85362 9.13333 10.227 9.16C10.6003 9.18667 11.0136 9.20667 11.467 9.22C11.9203 9.22 12.367 9.22 12.807 9.22C13.2603 9.22 13.667 9.21333 14.027 9.2C15.4136 9.16 16.547 9.08 17.427 8.96C18.307 8.84 18.9136 8.74 19.247 8.66C19.5003 8.59333 19.6803 8.64 19.787 8.8C19.8936 8.97333 19.9736 9.15333 20.027 9.34C20.0936 9.52667 20.127 9.65333 20.127 9.72C20.127 9.82667 20.047 9.95333 19.887 10.1C19.7403 10.2467 19.6203 10.3133 19.527 10.3C19.1803 10.2733 18.707 10.26 18.107 10.26C17.5203 10.2467 16.887 10.2467 16.207 10.26C15.527 10.26 14.8936 10.28 14.307 10.32C13.9603 10.3333 13.5536 10.36 13.087 10.4C12.6203 10.4267 12.1536 10.4667 11.687 10.52C11.2336 10.56 10.827 10.6133 10.467 10.68ZM14.607 15.8C15.2603 15.7733 15.767 15.58 16.127 15.22C16.5003 14.86 16.687 14.4 16.687 13.84C16.687 13.5867 16.6203 13.3267 16.487 13.06C16.3536 12.78 16.1403 12.5467 15.847 12.36C15.567 12.1733 15.1936 12.08 14.727 12.08C13.9536 12.08 13.387 12.28 13.027 12.68C12.6803 13.0667 12.507 13.52 12.507 14.04C12.507 14.5467 12.6936 14.9733 13.067 15.32C13.4536 15.6533 13.967 15.8133 14.607 15.8ZM13.827 8.04C13.5736 8 13.2803 7.93333 12.947 7.84C12.6136 7.74667 12.2936 7.63333 11.987 7.5C11.6803 7.35333 11.4403 7.20667 11.267 7.06C11.2003 6.94 11.2136 6.77333 11.307 6.56C11.4003 6.33333 11.5403 6.21333 11.727 6.2C12.2336 6.29333 12.7536 6.36667 13.287 6.42C13.8336 6.47333 14.3536 6.5 14.847 6.5C15.2736 6.5 15.687 6.48667 16.087 6.46C16.487 6.43333 16.8136 6.40667 17.067 6.38C17.2803 6.39333 17.4536 6.46667 17.587 6.6C17.7336 6.72 17.807 6.83333 17.807 6.94C17.7936 7.04667 17.7336 7.2 17.627 7.4C17.5203 7.58667 17.387 7.72667 17.227 7.82C17.0003 7.9 16.6803 7.96667 16.267 8.02C15.8536 8.06 15.427 8.08667 14.987 8.1C14.547 8.1 14.1603 8.08 13.827 8.04Z" fill="#014B2E"/>
</svg>
