<svg width="145" height="59" viewBox="0 0 145 59" fill="none" xmlns="http://www.w3.org/2000/svg">
<path d="M16.8638 27.7445C16.4585 27.7445 16.2238 27.4778 16.1598 26.9445C16.1171 26.5818 16.0745 26.1658 16.0318 25.6965C16.0105 25.2058 15.9891 24.7365 15.9678 24.2885C15.9678 23.8405 15.9678 23.4885 15.9678 23.2325V17.4085C15.4131 17.4511 14.8585 17.5151 14.3038 17.6005C13.7705 17.6858 13.2371 17.7925 12.7038 17.9205C12.2771 18.0271 11.8931 18.0165 11.5518 17.8885C11.4238 17.8245 11.2211 17.7071 10.9438 17.5365C10.6878 17.3658 10.4425 17.1951 10.2078 17.0245C9.99446 16.8325 9.87713 16.7151 9.8558 16.6725C9.77046 16.4165 9.8238 16.1605 10.0158 15.9045C10.2078 15.6271 10.3998 15.4778 10.5918 15.4565C11.4025 15.5845 12.2665 15.6485 13.1838 15.6485C14.1225 15.6485 15.0505 15.6058 15.9678 15.5205V10.8485C15.5838 10.8698 15.1891 10.9125 14.7838 10.9765C14.3998 11.0405 13.9625 11.1365 13.4718 11.2645C13.2371 11.3071 13.0558 11.3285 12.9278 11.3285C12.7998 11.3285 12.6291 11.2858 12.4158 11.2005C12.3091 11.1578 12.1705 11.0938 11.9998 11.0085C11.8291 10.9018 11.6585 10.7951 11.4878 10.6885C10.8905 12.0325 10.1225 13.4298 9.1838 14.8805C8.24513 16.3311 7.18913 17.6965 6.0158 18.9765C4.84246 20.2565 3.5838 21.3231 2.2398 22.1765C1.81313 22.4538 1.36513 22.6031 0.895797 22.6245C0.447797 22.6245 0.170464 22.4538 0.063797 22.1125C0.0211303 21.9205 0.0531303 21.7285 0.159797 21.5365C0.266464 21.3445 0.426464 21.1738 0.639797 21.0245C1.5998 20.2565 2.54913 19.3285 3.4878 18.2405C4.4478 17.1525 5.32246 15.9898 6.1118 14.7525C6.92246 13.4938 7.60513 12.2245 8.1598 10.9445C8.7358 9.66445 9.13046 8.44845 9.3438 7.29645C9.4078 7.04045 9.33313 6.91245 9.1198 6.91245C8.33046 6.91245 7.4558 6.96579 6.4958 7.07245C5.5358 7.17912 4.58646 7.33912 3.6478 7.55245C3.62646 7.55245 3.60513 7.55245 3.5838 7.55245C3.22113 7.63779 2.96513 7.68045 2.8158 7.68045C2.6878 7.65912 2.50646 7.54179 2.2718 7.32845C2.12246 7.20045 1.8878 6.98712 1.5678 6.68845C1.26913 6.36845 1.06646 6.11245 0.959797 5.92045C0.91713 5.72845 1.00246 5.50445 1.2158 5.24845C1.42913 4.97112 1.62113 4.83245 1.7918 4.83245C2.26113 4.93912 2.8478 5.01379 3.5518 5.05645C4.2558 5.09912 4.9918 5.10979 5.7598 5.08845C6.54913 5.06712 7.2958 5.01379 7.9998 4.92845C8.72513 4.82178 9.33313 4.68312 9.8238 4.51245C9.97313 4.44845 10.1011 4.42712 10.2078 4.44845C10.3145 4.44845 10.4211 4.46979 10.5278 4.51245C10.5491 4.51245 10.5598 4.51245 10.5598 4.51245C10.9011 4.61912 11.3065 4.73645 11.7758 4.86445C12.2451 4.99245 12.6185 5.10979 12.8958 5.21645C13.2585 5.34445 13.3545 5.62179 13.1838 6.04845C13.1411 6.24045 13.0451 6.52845 12.8958 6.91245C12.7678 7.29645 12.6291 7.69112 12.4798 8.09645C12.3518 8.48045 12.2345 8.80045 12.1278 9.05645C12.7465 9.14179 13.3758 9.18445 14.0158 9.18445C14.6558 9.16312 15.3065 9.13112 15.9678 9.08845V6.08045C15.9678 5.48312 15.9465 5.03512 15.9038 4.73645C15.8611 4.41645 15.7651 4.16045 15.6158 3.96845C15.4665 3.75512 15.2425 3.53112 14.9438 3.29645C14.7305 3.12578 14.5705 2.96578 14.4638 2.81645C14.3785 2.66712 14.3891 2.48578 14.4958 2.27245C14.8585 1.54712 15.3918 1.29112 16.0958 1.50445C16.5225 1.63245 16.9278 1.80312 17.3118 2.01645C17.7171 2.22979 18.0691 2.44312 18.3678 2.65645C18.7731 2.93379 18.9758 3.20045 18.9758 3.45645C18.9118 3.73378 18.8691 4.11779 18.8478 4.60845C18.8265 5.09912 18.8158 5.58979 18.8158 6.08045V23.0725C18.8158 23.4778 18.7838 23.9471 18.7198 24.4805C18.6558 24.9925 18.5491 25.5045 18.3998 26.0165C18.2505 26.5071 18.0478 26.9231 17.7918 27.2645C17.5571 27.5845 17.2478 27.7445 16.8638 27.7445ZM21.9198 28.8965C21.5358 28.8965 21.2905 28.6298 21.1838 28.0965C21.1198 27.7125 21.0665 27.2645 21.0238 26.7525C21.0025 26.2191 20.9811 25.7178 20.9598 25.2485C20.9598 24.7578 20.9598 24.3845 20.9598 24.1285V4.86445C20.9598 4.26712 20.9385 3.81912 20.8958 3.52045C20.8531 3.22179 20.7571 2.97645 20.6078 2.78445C20.4585 2.57112 20.2025 2.33645 19.8398 2.08045C19.6265 1.90978 19.4665 1.74979 19.3598 1.60045C19.2745 1.45112 19.2851 1.25912 19.3918 1.02445C19.7331 0.341785 20.2665 0.0857855 20.9918 0.256453C21.4825 0.384452 21.9518 0.565785 22.3998 0.800451C22.8691 1.03512 23.2745 1.26979 23.6158 1.50445C23.9998 1.76045 24.1918 2.01645 24.1918 2.27245C24.1491 2.54978 24.0958 2.93379 24.0318 3.42445C23.9678 3.91512 23.9358 4.40579 23.9358 4.89645L23.9038 23.9685C23.9038 24.3738 23.8718 24.8538 23.8078 25.4085C23.7651 25.9631 23.6691 26.5071 23.5198 27.0405C23.3705 27.5738 23.1678 28.0111 22.9118 28.3525C22.6558 28.7151 22.3251 28.8965 21.9198 28.8965ZM34.9563 17.6645C34.679 17.6645 34.455 17.5471 34.2843 17.3125C34.135 17.0565 34.0496 16.6511 34.0283 16.0965L33.8043 8.35245C33.783 7.73378 33.751 7.22179 33.7083 6.81645C33.6656 6.41112 33.5696 6.05912 33.4203 5.76045C33.271 5.44045 33.015 5.13112 32.6523 4.83245C32.503 4.68312 32.3963 4.53379 32.3323 4.38445C32.2683 4.23512 32.3003 4.05379 32.4283 3.84045C32.6416 3.49912 32.887 3.28579 33.1643 3.20045C33.4416 3.11512 33.719 3.11512 33.9963 3.20045C34.359 3.28579 34.7963 3.47778 35.3083 3.77645C35.8203 4.05378 36.1936 4.30979 36.4283 4.54445C36.663 4.75779 36.8123 4.92845 36.8763 5.05645C36.9403 5.18445 36.983 5.33378 37.0043 5.50445C36.9616 5.76045 36.919 6.06979 36.8763 6.43245C36.855 6.77379 36.8336 7.12579 36.8123 7.48845C37.3243 7.50979 38.039 7.52045 38.9563 7.52045C39.8736 7.49912 40.8443 7.46712 41.8683 7.42445C42.9136 7.38179 43.895 7.33912 44.8123 7.29645C45.751 7.25379 46.4976 7.21112 47.0523 7.16845V6.52845C47.0523 6.40045 47.0523 6.28312 47.0523 6.17645C47.0523 6.04845 47.0523 5.93112 47.0523 5.82445C47.0736 5.16312 47.0416 4.67245 46.9563 4.35245C46.871 4.01112 46.583 3.65912 46.0923 3.29645C45.9003 3.18979 45.7616 3.05112 45.6763 2.88045C45.6123 2.70979 45.6443 2.51779 45.7723 2.30445C45.9643 1.96312 46.199 1.74979 46.4763 1.66445C46.775 1.57912 47.063 1.57912 47.3403 1.66445C47.703 1.74979 48.087 1.89912 48.4923 2.11245C48.8976 2.30445 49.271 2.51779 49.6123 2.75245C50.103 3.09379 50.3696 3.38179 50.4123 3.61645C50.327 4.06445 50.263 4.64045 50.2203 5.34445C50.1776 6.04845 50.1563 6.60312 50.1563 7.00845L50.1243 14.2405C50.1243 15.0298 49.911 15.7125 49.4843 16.2885C49.0576 16.8431 48.5883 17.1205 48.0763 17.1205C47.735 17.1205 47.4896 17.0245 47.3403 16.8325C47.2123 16.6191 47.127 16.3098 47.0843 15.9045C46.551 15.9045 45.815 15.9151 44.8763 15.9365C43.959 15.9365 42.9776 15.9471 41.9323 15.9685C40.9083 15.9898 39.927 16.0111 38.9883 16.0325C38.071 16.0538 37.3243 16.0858 36.7483 16.1285C36.599 16.5978 36.343 16.9711 35.9803 17.2485C35.639 17.5258 35.2976 17.6645 34.9563 17.6645ZM30.7323 25.6645C30.4336 25.6645 30.135 25.5578 29.8363 25.3445C29.495 25.1311 29.1216 24.8431 28.7163 24.4805C28.3323 24.0965 28.119 23.8298 28.0763 23.6805C28.0123 23.4885 28.0976 23.2325 28.3323 22.9125C28.567 22.5711 28.823 22.4218 29.1003 22.4645C29.783 22.6138 30.647 22.7418 31.6923 22.8485C32.759 22.9338 34.007 22.9765 35.4363 22.9765C36.0123 22.9765 36.7696 22.9765 37.7083 22.9765C38.6683 22.9551 39.671 22.9338 40.7163 22.9125L40.6843 20.7685C40.663 19.9791 40.599 19.4671 40.4923 19.2325C40.3856 18.9765 40.1723 18.7205 39.8523 18.4645C39.831 18.4431 39.8096 18.4218 39.7883 18.4005C39.5963 18.2511 39.4683 18.1231 39.4043 18.0165C39.3403 17.9098 39.351 17.7498 39.4363 17.5365C39.607 17.1738 39.831 16.9498 40.1083 16.8645C40.3856 16.7578 40.663 16.7258 40.9403 16.7685C41.303 16.8325 41.687 16.9498 42.0923 17.1205C42.519 17.2911 42.8816 17.4618 43.1803 17.6325C43.607 17.8885 43.8416 18.1231 43.8843 18.3365C43.7136 19.0191 43.6176 19.7445 43.5963 20.5125L43.4683 22.8485C44.3216 22.8271 45.111 22.8058 45.8363 22.7845C46.5616 22.7418 47.1483 22.7098 47.5963 22.6885C48.919 22.6031 50.1136 22.4965 51.1803 22.3685C52.2683 22.2191 53.143 22.0591 53.8043 21.8885C54.0816 21.8031 54.3163 21.7605 54.5083 21.7605C54.743 21.7605 54.9563 21.8991 55.1483 22.1765C55.2976 22.4111 55.4576 22.7205 55.6283 23.1045C55.799 23.4885 55.8843 23.7551 55.8843 23.9045C55.8843 24.1391 55.735 24.3738 55.4363 24.6085C55.1376 24.8218 54.9243 24.9285 54.7963 24.9285C54.2843 24.8645 53.6443 24.8218 52.8763 24.8005C52.1083 24.7578 51.3083 24.7365 50.4763 24.7365C49.6656 24.7151 48.887 24.7045 48.1403 24.7045C46.3056 24.7258 44.3003 24.7685 42.1243 24.8325C39.9483 24.8751 37.719 24.9391 35.4363 25.0245C35.095 25.0458 34.6363 25.0885 34.0603 25.1525C33.5056 25.2165 32.9616 25.2911 32.4283 25.3765C31.9163 25.4405 31.5323 25.5045 31.2763 25.5685C31.063 25.6325 30.8816 25.6645 30.7323 25.6645ZM36.8763 14.1445C37.4736 14.1445 38.231 14.1445 39.1483 14.1445C40.0656 14.1231 41.0256 14.1018 42.0283 14.0805C43.031 14.0378 43.9803 13.9951 44.8763 13.9525C45.7723 13.9098 46.4976 13.8671 47.0523 13.8245V9.24845C46.5403 9.24845 45.8256 9.25912 44.9083 9.28045C44.0123 9.28045 43.0416 9.29112 41.9963 9.31245C40.9723 9.33379 39.991 9.36579 39.0523 9.40845C38.135 9.42979 37.3883 9.45112 36.8123 9.47245L36.8763 14.1445ZM66.6413 30.9445C65.2546 30.2405 64.0386 29.1311 62.9933 27.6165C61.9693 26.1018 61.1693 24.3098 60.5933 22.2405C60.0173 20.1711 59.7293 17.9525 59.7293 15.5845C59.7293 13.2165 60.0173 10.9978 60.5933 8.92845C61.1693 6.85912 61.9693 5.06712 62.9933 3.55245C64.0386 2.03779 65.2546 0.928452 66.6413 0.224451L67.4093 1.34445C66.4066 2.04845 65.5213 3.11512 64.7533 4.54445C63.9853 5.97379 63.388 7.63778 62.9613 9.53645C62.556 11.4351 62.3533 13.4511 62.3533 15.5845C62.3533 17.7178 62.556 19.7338 62.9613 21.6325C63.388 23.5311 63.9853 25.1951 64.7533 26.6245C65.5213 28.0325 66.4066 29.0991 67.4093 29.8245L66.6413 30.9445ZM85.7428 30.4005C85.2948 30.4005 85.0708 30.2085 85.0708 29.8245C85.0708 29.6965 85.0815 29.2378 85.1028 28.4485C85.1455 27.6805 85.1775 26.6991 85.1988 25.5045C85.2415 24.3098 85.2628 23.0405 85.2628 21.6965V18.2405C83.5348 18.4111 81.9135 18.5711 80.3988 18.7205C78.9055 18.8485 77.7535 18.9445 76.9428 19.0085C76.6015 19.0298 76.3775 19.1258 76.2708 19.2965C76.1641 19.4458 76.1321 19.7231 76.1748 20.1285C76.2175 20.3205 76.1321 20.4485 75.9188 20.5125C75.6841 20.5551 75.5348 20.4911 75.4708 20.3205C75.3855 20.0645 75.2468 19.7125 75.0548 19.2645C74.8841 18.8165 74.7028 18.3685 74.5108 17.9205C74.3401 17.4725 74.2015 17.1311 74.0948 16.8965C74.0308 16.7258 74.0521 16.6085 74.1588 16.5445C74.2441 16.4805 74.4788 16.5018 74.8628 16.6085C74.9908 16.6298 75.1401 16.6618 75.3108 16.7045C75.5028 16.7471 75.7055 16.7791 75.9188 16.8005C76.3881 16.8431 77.0601 16.8645 77.9348 16.8645C78.8308 16.8645 79.8548 16.8538 81.0068 16.8325C82.1801 16.8111 83.3961 16.7791 84.6548 16.7365C85.1241 16.1818 85.6788 15.5098 86.3188 14.7205C86.9588 13.9098 87.5988 13.0671 88.2388 12.1925C88.8788 11.3178 89.4548 10.4965 89.9668 9.72845C90.4788 8.96045 90.8308 8.33112 91.0228 7.84045C91.2148 7.34979 91.3001 6.98712 91.2788 6.75245C91.2788 6.49645 91.3535 6.32579 91.5028 6.24045C91.5668 6.19779 91.6735 6.20845 91.8228 6.27245C92.0148 6.37912 92.2921 6.56045 92.6548 6.81645C93.0175 7.05112 93.3801 7.28579 93.7428 7.52045C94.1268 7.75512 94.4148 7.94712 94.6068 8.09645C94.7561 8.20312 94.7881 8.35245 94.7028 8.54445C94.6175 8.73645 94.4681 8.80045 94.2548 8.73645C93.9775 8.65112 93.7641 8.61912 93.6148 8.64045C93.4655 8.64045 93.2841 8.77912 93.0708 9.05645C92.6868 9.52579 92.2068 10.0911 91.6308 10.7525C91.0761 11.3925 90.4575 12.0751 89.7748 12.8005C89.1135 13.5045 88.4415 14.1978 87.7588 14.8805C87.0761 15.5418 86.4361 16.1498 85.8388 16.7045C87.1401 16.6618 88.4201 16.6191 89.6788 16.5765C90.9588 16.5125 92.1321 16.4591 93.1988 16.4165C94.2655 16.3525 95.1401 16.2991 95.8228 16.2565C94.9695 15.2111 94.0415 14.3151 93.0388 13.5685C93.0175 13.4405 93.0388 13.3231 93.1028 13.2165C93.1881 13.1098 93.2948 13.0458 93.4228 13.0245C94.2121 13.3658 95.0441 13.8138 95.9188 14.3685C96.7935 14.9231 97.5721 15.5311 98.2548 16.1925C98.9588 16.8325 99.4281 17.4511 99.6628 18.0485C99.9188 18.6458 99.9508 19.1898 99.7588 19.6805C99.5881 20.1711 99.3215 20.4698 98.9588 20.5765C98.7455 20.6405 98.5641 20.6298 98.4148 20.5445C98.2868 20.4378 98.1481 20.2138 97.9988 19.8725C97.7855 19.3818 97.5401 18.8911 97.2628 18.4005C97.0068 17.9098 96.7081 17.4298 96.3668 16.9605C95.4495 17.0885 94.1695 17.2485 92.5268 17.4405C90.9055 17.6325 89.1775 17.8245 87.3428 18.0165V21.6965C87.3428 23.0831 87.3535 24.3525 87.3748 25.5045C87.4175 26.6351 87.4495 27.5525 87.4708 28.2565C87.5135 28.9605 87.5348 29.3871 87.5348 29.5365C87.5348 29.7071 87.3428 29.8885 86.9588 30.0805C86.5748 30.2938 86.1695 30.4005 85.7428 30.4005ZM83.4708 14.9125C83.3001 15.0618 83.1188 15.1151 82.9268 15.0725C82.7348 15.0298 82.5215 14.8378 82.2868 14.4965C81.6041 13.4938 80.7295 12.5551 79.6628 11.6805C78.5961 10.8058 77.4015 10.0698 76.0788 9.47245C75.9295 9.19512 76.0148 8.99245 76.3348 8.86445C77.0175 9.03512 77.7855 9.29112 78.6388 9.63245C79.4921 9.95245 80.2921 10.3045 81.0388 10.6885C81.2735 10.3685 81.5401 9.96312 81.8388 9.47245C82.1588 8.96045 82.4575 8.43779 82.7348 7.90445C83.0335 7.37112 83.2575 6.90179 83.4068 6.49645C83.5135 6.21912 83.5668 5.99512 83.5668 5.82445C83.5668 5.63245 83.5775 5.48312 83.5988 5.37645C81.8495 5.50445 80.1321 5.58979 78.4468 5.63245C76.7615 5.67512 75.2468 5.68578 73.9028 5.66445C73.6681 5.42979 73.6575 5.20579 73.8708 4.99245C75.2361 4.90712 76.7508 4.78979 78.4148 4.64045C80.1001 4.49112 81.8068 4.29912 83.5348 4.06445C85.2841 3.80845 86.9588 3.52045 88.5588 3.20045C90.1801 2.88045 91.6095 2.51778 92.8468 2.11245C93.2095 2.00578 93.4655 1.87779 93.6148 1.72845C93.7641 1.55779 93.8708 1.46179 93.9348 1.44045C94.0201 1.41912 94.1268 1.45112 94.2548 1.53645C94.4255 1.68579 94.6495 1.89912 94.9268 2.17645C95.2041 2.43245 95.4815 2.69912 95.7588 2.97645C96.0361 3.23245 96.2495 3.44579 96.3988 3.61645C96.5268 3.74445 96.5375 3.90445 96.4308 4.09645C96.2815 4.26712 96.1215 4.29912 95.9508 4.19245C95.7161 4.04312 95.5028 3.96845 95.3108 3.96845C95.1401 3.94712 94.8735 3.97912 94.5108 4.06445C93.1455 4.34178 91.5775 4.58712 89.8068 4.80045C88.0361 5.01379 86.2228 5.18445 84.3668 5.31245C84.6868 5.52579 85.0708 5.80312 85.5188 6.14445C85.9668 6.46445 86.3081 6.72045 86.5428 6.91245C86.6921 7.01912 86.7348 7.17912 86.6708 7.39245C86.5855 7.58445 86.4361 7.63779 86.2228 7.55245C85.9455 7.46712 85.7215 7.43512 85.5508 7.45645C85.4015 7.47779 85.2415 7.58445 85.0708 7.77645C84.6015 8.28845 84.0361 8.86445 83.3748 9.50445C82.7348 10.1231 82.1801 10.6458 81.7108 11.0725C82.0735 11.2858 82.4041 11.5098 82.7028 11.7445C83.0015 11.9578 83.2255 12.1711 83.3748 12.3845C83.7801 12.8538 83.9721 13.3338 83.9508 13.8245C83.9295 14.3151 83.7695 14.6778 83.4708 14.9125ZM71.8548 30.1445C71.5348 30.0591 71.4175 29.8671 71.5028 29.5685C72.3988 28.9711 73.3161 28.2458 74.2548 27.3925C75.1935 26.5391 76.0681 25.6325 76.8788 24.6725C77.6895 23.6911 78.3295 22.7311 78.7988 21.7925C78.9908 21.3871 79.0761 21.0671 79.0548 20.8325C79.0335 20.5765 79.0868 20.4165 79.2148 20.3525C79.2788 20.3098 79.3855 20.3205 79.5348 20.3845C79.7268 20.5125 79.9935 20.7045 80.3348 20.9605C80.6975 21.1951 81.0495 21.4405 81.3908 21.6965C81.7535 21.9311 82.0308 22.1231 82.2228 22.2725C82.3508 22.4005 82.3828 22.5605 82.3188 22.7525C82.2121 22.9231 82.0628 22.9765 81.8708 22.9125C81.8495 22.9125 81.8281 22.9125 81.8068 22.9125C81.5935 22.8485 81.3908 22.8165 81.1988 22.8165C81.0281 22.8165 80.8468 22.9445 80.6548 23.2005C79.9721 24.0751 79.1188 24.9711 78.0948 25.8885C77.0921 26.7845 76.0361 27.6058 74.9268 28.3525C73.8388 29.0991 72.8148 29.6965 71.8548 30.1445ZM99.3108 28.7685C98.9055 29.0458 98.4575 28.8325 97.9668 28.1285C97.4548 27.3391 96.8041 26.5498 96.0148 25.7605C95.2255 24.9498 94.3935 24.1925 93.5188 23.4885C92.6441 22.7845 91.8015 22.2085 90.9908 21.7605C90.8841 21.4405 90.9801 21.2378 91.2788 21.1525C92.2388 21.4725 93.2308 21.8885 94.2548 22.4005C95.3001 22.8911 96.2708 23.4351 97.1668 24.0325C98.0628 24.6085 98.7668 25.2058 99.2788 25.8245C99.7268 26.3365 99.9295 26.9018 99.8868 27.5205C99.8655 28.1391 99.6735 28.5551 99.3108 28.7685ZM114.767 16.8325L114.511 15.4565C115.044 15.5845 115.503 15.6591 115.887 15.6805C116.271 15.7018 116.463 15.7125 116.463 15.7125H120.399V7.48845H117.679C117.679 7.48845 117.497 7.49912 117.135 7.52045C116.793 7.52045 116.409 7.56312 115.983 7.64845L115.727 6.27245C116.26 6.40045 116.719 6.47512 117.103 6.49645C117.487 6.51779 117.679 6.52845 117.679 6.52845H120.527C120.42 6.42179 120.335 6.27245 120.271 6.08045C119.972 5.35512 119.588 4.66179 119.119 4.00045C118.649 3.31779 118.063 2.73112 117.359 2.24045C117.295 1.92045 117.412 1.73912 117.711 1.69645C118.287 1.86712 118.841 2.11245 119.375 2.43245C119.929 2.75245 120.409 3.10445 120.815 3.48845C121.241 3.85112 121.529 4.21379 121.679 4.57645C121.871 5.04579 121.913 5.45112 121.807 5.79245C121.7 6.13379 121.561 6.37912 121.391 6.52845H125.007C125.156 6.27245 125.348 5.93112 125.583 5.50445C125.839 5.05645 126.084 4.57645 126.319 4.06445C126.553 3.55245 126.724 3.09378 126.831 2.68845C126.959 2.26179 127.001 1.97379 126.959 1.82445C126.937 1.67512 126.98 1.55779 127.087 1.47245C127.193 1.40845 127.3 1.41912 127.407 1.50445C127.705 1.65379 128.1 1.88845 128.591 2.20845C129.103 2.52845 129.508 2.78445 129.807 2.97645C129.977 3.10445 130.031 3.25378 129.967 3.42445C129.903 3.65912 129.753 3.73378 129.519 3.64845C129.305 3.58445 129.124 3.56312 128.975 3.58445C128.847 3.58445 128.719 3.66979 128.591 3.84045C128.207 4.28845 127.78 4.75778 127.311 5.24845C126.841 5.73912 126.415 6.16578 126.031 6.52845H128.463C128.591 6.52845 128.708 6.47512 128.815 6.36845C128.943 6.24045 129.113 6.05912 129.327 5.82445C129.54 5.58979 129.7 5.41912 129.807 5.31245C129.999 5.09912 130.201 5.08845 130.415 5.28045C130.607 5.42979 130.852 5.64312 131.151 5.92045C131.471 6.19779 131.727 6.44312 131.919 6.65645C132.089 6.84845 132.143 7.04045 132.079 7.23245C132.036 7.40312 131.929 7.48845 131.759 7.48845H126.223V14.5605C126.543 14.1125 126.884 13.5791 127.247 12.9605C127.631 12.3418 127.983 11.7231 128.303 11.1045C128.644 10.4645 128.889 9.93112 129.039 9.50445C129.188 9.09912 129.252 8.82179 129.231 8.67245C129.231 8.52312 129.284 8.41645 129.391 8.35245C129.497 8.28845 129.604 8.29912 129.711 8.38445C129.967 8.53379 130.329 8.77912 130.799 9.12045C131.289 9.44045 131.684 9.71779 131.983 9.95245C132.132 10.0591 132.164 10.2085 132.079 10.4005C132.015 10.6138 131.865 10.6778 131.631 10.5925C131.375 10.5071 131.183 10.4858 131.055 10.5285C130.948 10.5711 130.809 10.6991 130.639 10.9125C130.212 11.5098 129.721 12.1071 129.167 12.7045C128.633 13.2805 128.1 13.8138 127.567 14.3045C127.055 14.7738 126.607 15.1685 126.223 15.4885V15.7125H128.847C129.017 15.7125 129.124 15.6591 129.167 15.5525C129.273 15.4458 129.476 15.2218 129.775 14.8805C130.073 14.5391 130.276 14.3045 130.383 14.1765C130.553 14.0058 130.745 13.9951 130.959 14.1445C131.193 14.3151 131.513 14.5818 131.919 14.9445C132.324 15.3071 132.623 15.5951 132.815 15.8085C133.007 16.0218 133.071 16.2245 133.007 16.4165C132.964 16.5871 132.825 16.6725 132.591 16.6725H116.495C116.495 16.6725 116.313 16.6831 115.951 16.7045C115.609 16.7045 115.215 16.7471 114.767 16.8325ZM118.191 30.2725C117.807 30.2725 117.615 30.1125 117.615 29.7925C117.615 29.6005 117.625 29.0885 117.647 28.2565C117.689 27.4245 117.721 26.4218 117.743 25.2485C117.764 24.0538 117.775 22.8378 117.775 21.6005C117.775 20.4698 117.743 19.6911 117.679 19.2645C117.636 18.8378 117.561 18.4858 117.455 18.2085C117.412 18.0805 117.433 17.9738 117.519 17.8885C117.604 17.8031 117.721 17.7925 117.871 17.8565C118.084 17.9418 118.436 18.1125 118.927 18.3685C119.417 18.6031 119.801 18.7951 120.079 18.9445H126.415C126.564 18.9445 126.681 18.9018 126.767 18.8165C126.873 18.7098 127.012 18.5711 127.183 18.4005C127.353 18.2085 127.492 18.0591 127.599 17.9525C127.791 17.7605 128.004 17.7498 128.239 17.9205C128.495 18.1125 128.793 18.3578 129.135 18.6565C129.497 18.9551 129.775 19.2005 129.967 19.3925C130.223 19.6485 130.191 19.8618 129.871 20.0325C129.785 20.0538 129.679 20.0965 129.551 20.1605C129.423 20.2245 129.295 20.2885 129.167 20.3525C129.081 20.3738 129.017 20.4165 128.975 20.4805C128.932 20.5445 128.911 20.6831 128.911 20.8965C128.911 21.5578 128.921 22.3258 128.943 23.2005C128.964 24.0751 128.985 24.9391 129.007 25.7925C129.028 26.6245 129.049 27.3391 129.071 27.9365C129.092 28.5125 129.103 28.8645 129.103 28.9925C129.103 29.1845 128.953 29.3658 128.655 29.5365C128.377 29.7285 128.015 29.8245 127.567 29.8245C127.161 29.8245 126.959 29.6538 126.959 29.3125V28.1605H119.663V29.6005C119.663 29.7498 119.503 29.8991 119.183 30.0485C118.884 30.1978 118.553 30.2725 118.191 30.2725ZM105.647 30.4005C105.263 30.4005 105.071 30.2298 105.071 29.8885C105.071 29.6965 105.081 29.2165 105.103 28.4485C105.124 27.7018 105.145 26.8271 105.167 25.8245C105.188 24.8005 105.199 23.8191 105.199 22.8805C105.199 21.0671 105.103 19.9045 104.911 19.3925C104.847 19.2431 104.857 19.1258 104.943 19.0405C105.028 18.9551 105.145 18.9445 105.295 19.0085C105.508 19.1151 105.86 19.2965 106.351 19.5525C106.863 19.8085 107.257 20.0111 107.535 20.1605H110.511C110.703 20.1605 110.831 20.1178 110.895 20.0325C111.001 19.9258 111.129 19.7871 111.279 19.6165C111.428 19.4458 111.567 19.2965 111.695 19.1685C111.865 18.9978 112.057 18.9871 112.271 19.1365C112.484 19.2645 112.783 19.4885 113.167 19.8085C113.572 20.1285 113.86 20.3738 114.031 20.5445C114.287 20.7578 114.265 20.9498 113.967 21.1205C113.839 21.2058 113.711 21.2805 113.583 21.3445C113.476 21.4085 113.369 21.4831 113.263 21.5685C113.092 21.6538 113.007 21.7925 113.007 21.9845C113.007 22.4538 113.017 23.0405 113.039 23.7445C113.06 24.4271 113.081 25.1098 113.103 25.7925C113.145 26.4538 113.177 27.0298 113.199 27.5205C113.22 28.0111 113.231 28.3098 113.231 28.4165C113.231 28.5658 113.071 28.7151 112.751 28.8645C112.452 29.0351 112.068 29.1205 111.599 29.1205C111.215 29.1205 111.023 28.9605 111.023 28.6405V27.7445H107.151V29.6965C107.151 29.8458 107.001 29.9951 106.703 30.1445C106.425 30.3151 106.073 30.4005 105.647 30.4005ZM119.663 27.2005H126.959V24.0005H119.663V27.2005ZM119.663 23.0405H126.959V19.9045H119.663V23.0405ZM107.151 26.7845H111.023V21.1205H107.151V26.7845ZM122.223 15.7125H124.399V7.48845H122.223V15.7125ZM103.759 8.73645L103.503 7.32845C104.036 7.45645 104.495 7.53112 104.879 7.55245C105.263 7.57379 105.455 7.58445 105.455 7.58445H111.279C111.428 7.58445 111.545 7.54178 111.631 7.45645C111.737 7.34978 111.919 7.16845 112.175 6.91245C112.452 6.63512 112.633 6.45379 112.719 6.36845C112.889 6.19779 113.092 6.19779 113.327 6.36845C113.54 6.51779 113.839 6.74179 114.223 7.04045C114.628 7.33912 114.916 7.57379 115.087 7.74445C115.257 7.89379 115.321 8.07512 115.279 8.28845C115.236 8.48045 115.119 8.57645 114.927 8.57645H105.455C105.455 8.57645 105.273 8.58712 104.911 8.60845C104.569 8.60845 104.185 8.65112 103.759 8.73645ZM104.783 4.57645L104.527 3.20045C105.06 3.32845 105.519 3.40312 105.903 3.42445C106.287 3.44578 106.479 3.45645 106.479 3.45645H110.095C110.223 3.45645 110.34 3.40312 110.447 3.29645C110.553 3.18979 110.724 3.01912 110.959 2.78445C111.215 2.54978 111.385 2.38978 111.471 2.30445C111.62 2.13379 111.812 2.13379 112.047 2.30445C112.26 2.43245 112.548 2.63512 112.911 2.91245C113.273 3.18979 113.54 3.41378 113.711 3.58445C113.881 3.73379 113.945 3.91512 113.903 4.12845C113.86 4.32045 113.743 4.41645 113.551 4.41645H106.511C106.511 4.41645 106.329 4.42712 105.967 4.44845C105.625 4.44845 105.231 4.49112 104.783 4.57645ZM105.039 12.8965L104.783 11.4885C105.316 11.6378 105.775 11.7231 106.159 11.7445C106.543 11.7658 106.735 11.7765 106.735 11.7765H110.063C110.191 11.7765 110.308 11.7231 110.415 11.6165L111.407 10.6245C111.577 10.4538 111.78 10.4538 112.015 10.6245C112.185 10.7311 112.463 10.9338 112.847 11.2325C113.231 11.5098 113.508 11.7338 113.679 11.9045C113.849 12.0538 113.903 12.2351 113.839 12.4485C113.796 12.6405 113.689 12.7365 113.519 12.7365H106.735C106.735 12.7365 106.553 12.7471 106.191 12.7685C105.849 12.7685 105.465 12.8111 105.039 12.8965ZM105.039 17.0565L104.783 15.6485C105.316 15.7765 105.775 15.8511 106.159 15.8725C106.543 15.8938 106.735 15.9045 106.735 15.9045H109.807C109.956 15.9045 110.073 15.8618 110.159 15.7765L111.151 14.7845C111.257 14.6778 111.353 14.6245 111.439 14.6245C111.524 14.6245 111.631 14.6671 111.759 14.7525C111.951 14.8805 112.239 15.0938 112.623 15.3925C113.007 15.6911 113.273 15.9151 113.423 16.0645C113.593 16.2138 113.657 16.3951 113.615 16.6085C113.572 16.8005 113.455 16.8965 113.263 16.8965H106.735C106.735 16.8965 106.553 16.9071 106.191 16.9285C105.849 16.9285 105.465 16.9711 105.039 17.0565ZM118.831 14.9445C118.617 15.0298 118.425 15.0511 118.255 15.0085C118.105 14.9445 117.988 14.7418 117.903 14.4005C117.689 13.5471 117.337 12.6725 116.847 11.7765C116.356 10.8805 115.833 10.1338 115.279 9.53645C115.257 9.38712 115.289 9.26979 115.375 9.18445C115.481 9.07779 115.599 9.03512 115.727 9.05645C116.516 9.50445 117.273 10.0591 117.999 10.7205C118.724 11.3818 119.215 12.0751 119.471 12.8005C119.663 13.3765 119.663 13.8565 119.471 14.2405C119.3 14.6031 119.087 14.8378 118.831 14.9445ZM137.295 30.9445L136.527 29.8245C137.551 29.0991 138.436 28.0325 139.183 26.6245C139.951 25.1951 140.537 23.5311 140.943 21.6325C141.369 19.7338 141.583 17.7178 141.583 15.5845C141.583 13.4511 141.369 11.4351 140.943 9.53645C140.537 7.63778 139.951 5.97379 139.183 4.54445C138.436 3.11512 137.551 2.04845 136.527 1.34445L137.295 0.224451C138.681 0.928452 139.887 2.03779 140.911 3.55245C141.956 5.06712 142.767 6.85912 143.343 8.92845C143.919 10.9978 144.207 13.2165 144.207 15.5845C144.207 17.9525 143.919 20.1711 143.343 22.2405C142.767 24.3098 141.956 26.1018 140.911 27.6165C139.887 29.1311 138.681 30.2405 137.295 30.9445ZM39.2945 57.5445V40.9845C39.2945 40.7978 39.3345 40.6445 39.4145 40.5245C39.4945 40.4045 39.6079 40.3378 39.7545 40.3245L43.4545 39.9645L43.4945 40.4045C43.5212 40.6578 43.4012 40.7978 43.1345 40.8245L41.3945 41.0245C41.0745 41.0645 40.8412 41.1511 40.6945 41.2845C40.5612 41.4178 40.4945 41.6311 40.4945 41.9245V56.6045C40.4945 56.8978 40.5612 57.1111 40.6945 57.2445C40.8412 57.3778 41.0745 57.4645 41.3945 57.5045L43.1345 57.7045C43.4012 57.7311 43.5212 57.8711 43.4945 58.1245L43.4545 58.5645L39.7545 58.2045C39.6079 58.1911 39.4945 58.1178 39.4145 57.9845C39.3345 57.8645 39.2945 57.7178 39.2945 57.5445ZM62.5738 56.8045C62.4804 56.8445 62.4071 56.8445 62.3538 56.8045C62.3004 56.7511 62.2671 56.7045 62.2538 56.6645C62.2271 56.5578 62.2004 56.3578 62.1738 56.0645C62.1471 55.7711 62.1271 55.4511 62.1137 55.1045C62.1137 54.7578 62.1137 54.4511 62.1137 54.1845V47.9845H61.9138C61.3538 48.0378 60.9071 48.0845 60.5738 48.1245C60.2538 48.1645 59.8938 48.2245 59.4938 48.3045C59.3471 48.3311 59.2271 48.3445 59.1338 48.3445C59.0538 48.3311 58.9604 48.2911 58.8538 48.2245C58.7604 48.1845 58.6471 48.1245 58.5138 48.0445C58.3938 47.9511 58.2938 47.8645 58.2138 47.7845C57.6004 48.8378 56.8471 49.8645 55.9538 50.8645C55.0738 51.8645 54.0538 52.7445 52.8938 53.5045C52.7338 53.6111 52.5738 53.6578 52.4137 53.6445C52.2538 53.6311 52.1471 53.5778 52.0938 53.4845C52.0538 53.3911 52.1338 53.2711 52.3338 53.1245C53.2404 52.4578 54.1138 51.6445 54.9538 50.6845C55.7938 49.7111 56.5271 48.6511 57.1538 47.5045C57.7804 46.3578 58.2138 45.1845 58.4538 43.9845C58.4804 43.8511 58.4738 43.7778 58.4338 43.7645C58.3938 43.7378 58.3538 43.7245 58.3138 43.7245C58.3004 43.7245 58.2938 43.7245 58.2938 43.7245C57.9871 43.7245 57.6938 43.7378 57.4138 43.7645C57.1471 43.7778 56.8538 43.7978 56.5338 43.8245C56.1604 43.8511 55.8471 43.8845 55.5938 43.9245C55.3538 43.9511 55.1271 43.9845 54.9138 44.0245C54.7004 44.0511 54.4538 44.0911 54.1738 44.1445C53.9604 44.1978 53.8138 44.2111 53.7337 44.1845C53.6671 44.1578 53.5871 44.1045 53.4938 44.0245C53.4804 44.0111 53.4671 44.0045 53.4538 44.0045C53.3338 43.8845 53.2071 43.7578 53.0738 43.6245C52.9538 43.4911 52.8738 43.3911 52.8338 43.3245C52.7938 43.2578 52.8071 43.1778 52.8738 43.0845C52.9538 42.9778 53.0404 42.9378 53.1338 42.9645C53.4138 43.0178 53.8071 43.0578 54.3138 43.0845C54.8338 43.1111 55.3538 43.1111 55.8738 43.0845C56.4738 43.0578 56.9538 43.0245 57.3138 42.9845C57.6871 42.9311 58.0471 42.8445 58.3938 42.7245C58.4738 42.6711 58.5738 42.6711 58.6938 42.7245L59.9538 43.1445C60.0071 43.1711 60.0471 43.2111 60.0738 43.2645C60.1138 43.3178 60.1138 43.3911 60.0738 43.4845C59.9538 43.7778 59.8338 44.0778 59.7138 44.3845C59.6071 44.6911 59.5004 44.9911 59.3938 45.2845C59.2738 45.6045 59.1404 45.9311 58.9938 46.2645C58.8471 46.5845 58.6871 46.9111 58.5138 47.2445C58.7138 47.2711 58.9204 47.2911 59.1338 47.3045C59.3471 47.3178 59.6338 47.3178 59.9938 47.3045C60.3538 47.2911 60.8538 47.2711 61.4938 47.2445L62.1137 47.2045V43.7445C62.1137 43.6911 62.1137 43.6445 62.1137 43.6045C62.1137 43.5645 62.1137 43.5178 62.1137 43.4645C62.1137 42.9445 62.0804 42.5311 62.0138 42.2245C61.9471 41.9045 61.7071 41.6178 61.2938 41.3645C61.1604 41.2711 61.1271 41.1511 61.1937 41.0045C61.2738 40.8711 61.3538 40.7845 61.4338 40.7445C61.5271 40.7045 61.6338 40.6911 61.7538 40.7045C61.9004 40.7178 62.0671 40.7711 62.2538 40.8645C62.4404 40.9578 62.6138 41.0578 62.7738 41.1645C62.9338 41.2711 63.0404 41.3511 63.0938 41.4045C63.2404 41.5511 63.3071 41.6778 63.2938 41.7845C63.2538 42.0378 63.2271 42.3178 63.2138 42.6245C63.2138 42.9178 63.2138 43.2045 63.2138 43.4845C63.2138 43.5378 63.2138 43.5911 63.2138 43.6445C63.2138 43.6845 63.2138 43.7245 63.2138 43.7645V54.1445C63.2138 54.4245 63.2004 54.7645 63.1738 55.1645C63.1471 55.5645 63.0871 55.9245 62.9938 56.2445C62.9004 56.5645 62.7604 56.7511 62.5738 56.8045ZM65.7138 57.4845C65.6204 57.5245 65.5471 57.5178 65.4938 57.4645C65.4404 57.4245 65.4071 57.3845 65.3938 57.3445C65.3671 57.2378 65.3404 57.0378 65.3138 56.7445C65.2871 56.4511 65.2671 56.1311 65.2538 55.7845C65.2538 55.4378 65.2538 55.1311 65.2538 54.8645V42.6445C65.2538 42.6178 65.2538 42.5711 65.2538 42.5045C65.2538 42.1311 65.2404 41.8378 65.2138 41.6245C65.1871 41.4111 65.1138 41.2311 64.9938 41.0845C64.8738 40.9245 64.6604 40.7511 64.3538 40.5645C64.2071 40.4578 64.1738 40.3378 64.2538 40.2045C64.4004 39.9645 64.5804 39.8645 64.7938 39.9045C65.0338 39.9445 65.3004 40.0445 65.5938 40.2045C65.8871 40.3511 66.1071 40.4845 66.2538 40.6045C66.3204 40.6711 66.3738 40.7378 66.4138 40.8045C66.4671 40.8578 66.4871 40.9245 66.4738 41.0045C66.4338 41.2845 66.4071 41.5511 66.3938 41.8045C66.3804 42.0578 66.3738 42.3445 66.3738 42.6645V54.8245C66.3738 55.1045 66.3538 55.4445 66.3138 55.8445C66.2871 56.2445 66.2271 56.6045 66.1338 56.9245C66.0404 57.2445 65.9004 57.4311 65.7138 57.4845ZM70.9867 54.0645L72.8867 50.6645L74.7867 54.0645H70.9867ZM70.9867 43.4645H74.7867L72.8867 46.8645L70.9867 43.4645ZM81.6545 50.5045C81.5079 50.5178 81.4012 50.4645 81.3345 50.3445C81.2679 50.2245 81.2345 50.0645 81.2345 49.8645L81.1345 44.9045C81.1345 44.4378 81.1145 44.0645 81.0745 43.7845C81.0345 43.4911 80.9545 43.2445 80.8345 43.0445C80.7145 42.8311 80.5212 42.6311 80.2545 42.4445C80.1079 42.3511 80.0812 42.2311 80.1745 42.0845C80.3212 41.8445 80.5212 41.7578 80.7745 41.8245C80.9612 41.8778 81.1745 41.9711 81.4145 42.1045C81.6679 42.2378 81.8745 42.3778 82.0345 42.5245C82.2212 42.6978 82.3079 42.8445 82.2945 42.9645C82.2679 43.1511 82.2479 43.4045 82.2345 43.7245C82.2212 44.0311 82.2145 44.3178 82.2145 44.5845C82.6145 44.5845 83.1345 44.5778 83.7745 44.5645C84.4279 44.5511 85.1145 44.5378 85.8345 44.5245C86.5679 44.4978 87.2612 44.4711 87.9145 44.4445C88.5812 44.4178 89.1345 44.3845 89.5745 44.3445V43.7845C89.5745 43.1845 89.5279 42.7111 89.4345 42.3645C89.3412 42.0178 89.0879 41.7045 88.6745 41.4245C88.5412 41.3311 88.5212 41.2178 88.6145 41.0845C88.8012 40.8578 88.9945 40.7711 89.1945 40.8245C89.3812 40.8645 89.6145 40.9645 89.8945 41.1245C90.1879 41.2711 90.4145 41.4178 90.5745 41.5645C90.7612 41.7511 90.8479 41.8778 90.8345 41.9445C90.8079 42.1445 90.7745 42.4178 90.7345 42.7645C90.7079 43.0978 90.6945 43.4045 90.6945 43.6845V48.6645C90.6945 49.0511 90.6412 49.3911 90.5345 49.6845C90.4279 49.9778 90.2545 50.1378 90.0145 50.1645C89.8679 50.1911 89.7612 50.1378 89.6945 50.0045C89.6412 49.8578 89.6012 49.6911 89.5745 49.5045C89.1345 49.5045 88.5879 49.5111 87.9345 49.5245C87.2945 49.5245 86.6145 49.5311 85.8945 49.5445C85.1879 49.5445 84.5079 49.5511 83.8545 49.5645C83.2145 49.5778 82.6745 49.5978 82.2345 49.6245C82.2079 49.8778 82.1345 50.0845 82.0145 50.2445C81.8945 50.4045 81.7745 50.4911 81.6545 50.5045ZM82.2345 48.8245C82.6745 48.8378 83.2145 48.8445 83.8545 48.8445C84.5079 48.8311 85.1879 48.8178 85.8945 48.8045C86.6145 48.7778 87.2945 48.7511 87.9345 48.7245C88.5879 48.6845 89.1345 48.6445 89.5745 48.6045V45.2245C89.1345 45.2245 88.5879 45.2311 87.9345 45.2445C87.2945 45.2445 86.6145 45.2511 85.8945 45.2645C85.1879 45.2778 84.5079 45.2978 83.8545 45.3245C83.2012 45.3378 82.6545 45.3578 82.2145 45.3845L82.2345 48.8245ZM79.1945 55.2045C78.9545 55.2578 78.7945 55.2778 78.7145 55.2645C78.6345 55.2378 78.5279 55.1778 78.3945 55.0845C78.3145 55.0311 78.2079 54.9445 78.0745 54.8245C77.9412 54.7045 77.8212 54.5911 77.7145 54.4845C77.6079 54.3645 77.5412 54.2778 77.5145 54.2245C77.4745 54.1578 77.4945 54.0645 77.5745 53.9445C77.6679 53.8245 77.7612 53.7778 77.8545 53.8045C78.2812 53.8978 78.7545 53.9711 79.2745 54.0245C79.8079 54.0645 80.4279 54.0778 81.1345 54.0645C81.2679 54.0645 81.4012 54.0645 81.5345 54.0645C81.6812 54.0645 81.8212 54.0645 81.9545 54.0645C82.5279 54.0645 83.1012 54.0645 83.6745 54.0645C84.2612 54.0645 84.8612 54.0511 85.4745 54.0245L85.4945 52.6845C85.5079 52.2845 85.4812 51.9378 85.4145 51.6445C85.3479 51.3511 85.1479 51.1111 84.8145 50.9245C84.7212 50.8711 84.6745 50.8178 84.6745 50.7645C84.6879 50.7111 84.7145 50.6445 84.7545 50.5645C84.8745 50.3378 85.0612 50.2511 85.3145 50.3045C85.6745 50.3978 86.0479 50.5778 86.4345 50.8445C86.6212 50.9778 86.7012 51.1045 86.6745 51.2245C86.6212 51.4245 86.5812 51.6311 86.5545 51.8445C86.5412 52.0445 86.5279 52.2845 86.5145 52.5645C86.5012 52.8045 86.4879 53.0445 86.4745 53.2845C86.4612 53.5245 86.4545 53.7645 86.4545 54.0045C86.9479 53.9911 87.4412 53.9845 87.9345 53.9845C88.4279 53.9711 88.9279 53.9511 89.4345 53.9245C90.3012 53.8978 91.0945 53.8378 91.8145 53.7445C92.5345 53.6511 93.0412 53.5511 93.3345 53.4445C93.4812 53.4045 93.5945 53.4045 93.6745 53.4445C93.7545 53.4711 93.8345 53.5378 93.9145 53.6445C93.9945 53.7511 94.0745 53.8911 94.1545 54.0645C94.2479 54.2245 94.2945 54.3578 94.2945 54.4645C94.2945 54.5578 94.2479 54.6378 94.1545 54.7045C94.0612 54.7711 93.9879 54.8045 93.9345 54.8045C93.3212 54.7511 92.6279 54.7245 91.8545 54.7245C91.0945 54.7111 90.4012 54.7045 89.7745 54.7045C88.9745 54.7178 88.1079 54.7378 87.1745 54.7645C86.2412 54.7778 85.3212 54.7911 84.4145 54.8045C83.5212 54.8178 82.7079 54.8445 81.9745 54.8845C81.3879 54.9111 80.8745 54.9511 80.4345 55.0045C79.9945 55.0578 79.5812 55.1245 79.1945 55.2045ZM106.694 57.5445C106.694 57.7178 106.654 57.8645 106.574 57.9845C106.494 58.1178 106.38 58.1911 106.234 58.2045L102.534 58.5645L102.494 58.1245C102.467 57.8711 102.587 57.7311 102.854 57.7045L104.594 57.5045C104.914 57.4645 105.14 57.3778 105.274 57.2445C105.42 57.1111 105.494 56.8978 105.494 56.6045V41.9245C105.494 41.6311 105.42 41.4178 105.274 41.2845C105.14 41.1511 104.914 41.0645 104.594 41.0245L102.854 40.8245C102.587 40.7978 102.467 40.6578 102.494 40.4045L102.534 39.9645L106.234 40.3245C106.38 40.3378 106.494 40.4045 106.574 40.5245C106.654 40.6445 106.694 40.7978 106.694 40.9845V57.5445Z" fill="#014B2E"/>
</svg>
