<svg width="263" height="49" viewBox="0 0 263 49" fill="none" xmlns="http://www.w3.org/2000/svg">
<path d="M5.52023 10.7207C4.73357 10.7207 4.0669 10.5807 3.52023 10.3007C2.9869 10.0207 2.58023 9.67404 2.30023 9.2607C2.03357 8.83404 1.90023 8.40737 1.90023 7.9807C1.90023 7.5407 2.02023 7.10737 2.26023 6.6807C2.50023 6.2407 2.88023 5.87404 3.40023 5.5807C3.93357 5.27404 4.63357 5.11404 5.50023 5.1007C6.66023 5.1007 7.56023 5.3607 8.20023 5.8807C8.85357 6.38737 9.1669 7.04737 9.14024 7.8607C9.1269 8.3007 8.98023 8.7407 8.70023 9.1807C8.42023 9.6207 8.01357 9.98737 7.48023 10.2807C6.96023 10.574 6.3069 10.7207 5.52023 10.7207ZM7.48023 18.3807C6.89357 18.394 6.45357 18.2874 6.16023 18.0607C5.88023 17.834 5.74023 17.4207 5.74023 16.8207V15.9807C5.74023 15.8207 5.70023 15.714 5.62023 15.6607C5.51357 15.594 5.37357 15.5007 5.20023 15.3807C5.04023 15.2474 4.9269 15.1474 4.86023 15.0807C4.8069 15.0274 4.82023 14.934 4.90023 14.8007C4.98023 14.654 5.06023 14.5874 5.14023 14.6007C5.6069 14.7074 6.15357 14.7674 6.78023 14.7807C7.0069 14.794 7.3269 14.8007 7.74023 14.8007C8.1669 14.7874 8.64023 14.774 9.16023 14.7607C9.69357 14.734 10.2202 14.714 10.7402 14.7007C11.2602 14.674 11.7336 14.6474 12.1602 14.6207C12.6002 14.5807 12.9336 14.5474 13.1602 14.5207C13.1869 14.414 13.2202 14.1807 13.2602 13.8207C13.3002 13.4474 13.3269 13.114 13.3402 12.8207C13.3536 12.7274 13.3402 12.674 13.3002 12.6607C13.2602 12.6474 13.2269 12.6407 13.2002 12.6407L8.40024 12.8607C7.89357 12.8874 7.48023 12.914 7.16023 12.9407C6.84023 12.9674 6.5469 13.0074 6.28023 13.0607C6.13357 13.0874 6.01357 13.1007 5.92023 13.1007C5.8269 13.0874 5.7269 13.0474 5.62023 12.9807C5.51357 12.914 5.3869 12.8207 5.24023 12.7007C5.09357 12.5674 5.0069 12.4674 4.98023 12.4007C4.9669 12.334 5.00023 12.2474 5.08023 12.1407C5.16023 12.0207 5.2469 11.974 5.34023 12.0007C5.4869 12.0407 5.71357 12.074 6.02023 12.1007C6.3269 12.1274 6.66023 12.1474 7.02023 12.1607C7.39357 12.1607 7.73357 12.154 8.04023 12.1407C8.41357 12.1274 8.85357 12.114 9.36024 12.1007C9.88023 12.074 10.4002 12.0474 10.9202 12.0207C11.4402 11.994 11.9069 11.9607 12.3202 11.9207C12.7469 11.8674 13.0602 11.8074 13.2602 11.7407C13.2602 11.7407 13.2669 11.7407 13.2802 11.7407C13.3202 11.714 13.3602 11.7007 13.4002 11.7007C13.4536 11.6874 13.5136 11.6874 13.5802 11.7007L14.5002 11.9807C14.6469 12.034 14.6869 12.134 14.6202 12.2807C14.5936 12.3474 14.5469 12.4807 14.4802 12.6807C14.4269 12.8674 14.3669 13.0807 14.3002 13.3207C14.2336 13.5607 14.1669 13.7807 14.1002 13.9807C14.0469 14.1807 14.0069 14.3207 13.9802 14.4007C14.0869 14.454 14.2202 14.534 14.3802 14.6407C14.5536 14.734 14.6402 14.8207 14.6402 14.9007C14.6402 15.0074 14.5869 15.1207 14.4802 15.2407C14.3869 15.3607 14.3202 15.414 14.2802 15.4007C14.1202 15.3874 13.8202 15.3807 13.3802 15.3807C12.9402 15.3674 12.4202 15.3674 11.8202 15.3807C11.2336 15.3807 10.6202 15.394 9.98023 15.4207C9.35357 15.434 8.7669 15.454 8.22023 15.4807C7.67357 15.5074 7.2269 15.534 6.88023 15.5607V16.7007C6.88023 17.0874 6.93357 17.3274 7.04023 17.4207C7.16023 17.5274 7.35357 17.5807 7.62023 17.5807C7.66023 17.5807 7.7469 17.5807 7.88023 17.5807C8.1469 17.5807 8.50023 17.5807 8.94023 17.5807C9.39357 17.5807 9.88024 17.574 10.4002 17.5607C10.9336 17.5474 11.4536 17.5274 11.9602 17.5007C12.6536 17.4607 13.2136 17.4074 13.6402 17.3407C14.0669 17.274 14.4336 17.1874 14.7402 17.0807C14.9002 17.014 15.0202 16.994 15.1002 17.0207C15.1802 17.0474 15.2669 17.1074 15.3602 17.2007C15.4402 17.2807 15.5202 17.3807 15.6002 17.5007C15.6802 17.634 15.7269 17.7407 15.7402 17.8207C15.7536 17.9007 15.7069 17.994 15.6002 18.1007C15.4936 18.2074 15.4202 18.2607 15.3802 18.2607C14.6869 18.234 14.0936 18.2207 13.6002 18.2207C13.1069 18.234 12.5336 18.254 11.8802 18.2807C11.2002 18.3074 10.4602 18.3274 9.66023 18.3407C8.86023 18.354 8.13357 18.3674 7.48023 18.3807ZM13.6202 10.9607C13.5002 10.9607 13.4269 10.894 13.4002 10.7607C13.3602 10.614 13.3336 10.3807 13.3202 10.0607C13.3069 9.7407 13.3002 9.43404 13.3002 9.1407L13.0802 9.1607C12.6669 9.18737 12.3002 9.2207 11.9802 9.2607C11.6602 9.28737 11.3002 9.34737 10.9002 9.4407C10.7536 9.46737 10.6336 9.4807 10.5402 9.4807C10.4602 9.46737 10.3669 9.42737 10.2602 9.3607C10.1536 9.29404 10.0136 9.19404 9.84023 9.0607C9.6669 8.92737 9.5669 8.82737 9.54024 8.7607C9.51357 8.6807 9.53357 8.59404 9.60023 8.5007C9.6669 8.40737 9.7469 8.36737 9.84023 8.3807C10.2136 8.44737 10.6336 8.49404 11.1002 8.5207C11.5669 8.53404 12.2069 8.50737 13.0202 8.4407L13.3002 8.4207V6.2007L12.7202 6.2407C12.3469 6.26737 12.0202 6.29404 11.7402 6.3207C11.4736 6.34737 11.1669 6.38737 10.8202 6.4407C10.6869 6.46737 10.5736 6.48737 10.4802 6.5007C10.3869 6.5007 10.2869 6.47404 10.1802 6.4207C10.0736 6.36737 9.93357 6.28737 9.76023 6.1807C9.60023 6.0607 9.5069 5.96737 9.48023 5.9007C9.44023 5.8207 9.45357 5.72737 9.52023 5.6207C9.60023 5.5007 9.69357 5.45404 9.80023 5.4807C10.1069 5.53404 10.4669 5.5807 10.8802 5.6207C11.3069 5.64737 11.8869 5.63404 12.6202 5.5807L13.3002 5.5407V2.7207C13.3002 2.3207 13.2802 2.00737 13.2402 1.7807C13.2136 1.55404 13.1269 1.3607 12.9802 1.2007C12.8469 1.0407 12.6202 0.867369 12.3002 0.680703C12.1669 0.587369 12.1336 0.467369 12.2002 0.320703C12.3202 0.120703 12.4802 0.0207028 12.6802 0.0207028C12.8802 0.0207028 13.1469 0.094036 13.4802 0.240702C13.8136 0.387369 14.0869 0.527369 14.3002 0.660702C14.3669 0.700702 14.4269 0.754035 14.4802 0.820702C14.5336 0.887369 14.5536 0.960702 14.5402 1.0407C14.5002 1.26737 14.4736 1.49404 14.4602 1.7207C14.4469 1.94737 14.4402 2.2007 14.4402 2.4807V8.5207C14.4402 8.7207 14.4269 8.9607 14.4002 9.2407C14.3869 9.50737 14.3469 9.77404 14.2802 10.0407C14.2269 10.3074 14.1469 10.5274 14.0402 10.7007C13.9336 10.874 13.7936 10.9607 13.6202 10.9607ZM5.52023 9.8607C6.28023 9.83404 6.8669 9.62737 7.28023 9.2407C7.7069 8.85404 7.93357 8.4007 7.96023 7.8807C7.9869 7.58737 7.91357 7.2807 7.74023 6.9607C7.58023 6.6407 7.31357 6.37404 6.94023 6.1607C6.58023 5.93404 6.09357 5.83404 5.48023 5.8607C4.6269 5.88737 4.00023 6.11404 3.60023 6.5407C3.20023 6.95404 3.00023 7.42737 3.00023 7.9607C3.00023 8.2807 3.10023 8.59404 3.30023 8.9007C3.51357 9.19404 3.8069 9.43404 4.18023 9.6207C4.5669 9.79404 5.01357 9.87404 5.52023 9.8607ZM1.38023 4.5407C1.15357 4.5807 0.986901 4.5807 0.880234 4.5407C0.773568 4.5007 0.673568 4.4407 0.580234 4.3607C0.446901 4.22737 0.333568 4.10737 0.240234 4.0007C0.160234 3.8807 0.100234 3.78737 0.0602344 3.7207C0.0202344 3.65404 0.0335678 3.56737 0.100234 3.4607C0.166901 3.3407 0.240234 3.29404 0.320234 3.3207C0.640234 3.38737 1.02023 3.43404 1.46023 3.4607C1.91357 3.48737 2.38023 3.5007 2.86023 3.5007C3.34023 3.5007 3.79357 3.5007 4.22023 3.5007C4.6469 3.48737 5.0069 3.47404 5.30023 3.4607C6.2869 3.4207 7.1669 3.36737 7.94024 3.3007C8.71357 3.2207 9.36023 3.10737 9.88023 2.9607C10.0269 2.9207 10.1336 2.9207 10.2002 2.9607C10.2669 2.98737 10.3269 3.04737 10.3802 3.1407C10.4336 3.2207 10.4802 3.3407 10.5202 3.5007C10.5736 3.6607 10.6002 3.7807 10.6002 3.8607C10.6002 3.9407 10.5536 4.01404 10.4602 4.0807C10.3802 4.14737 10.3202 4.1807 10.2802 4.1807C9.80024 4.1407 9.2069 4.11404 8.50023 4.1007C7.79357 4.08737 7.02023 4.09404 6.18023 4.1207C5.35357 4.14737 4.5269 4.19404 3.70023 4.2607C2.87357 4.32737 2.10023 4.4207 1.38023 4.5407ZM4.54023 2.0007C4.3269 1.97404 4.05357 1.9207 3.72023 1.8407C3.3869 1.74737 3.07357 1.6407 2.78023 1.5207C2.50023 1.38737 2.3069 1.2607 2.20023 1.1407C2.13357 1.0607 2.1269 0.947369 2.18023 0.800702C2.23357 0.654036 2.32023 0.594036 2.44023 0.620702C3.08023 0.754035 3.75357 0.840702 4.46023 0.880702C5.18023 0.907369 5.8469 0.907369 6.46023 0.880702C7.0869 0.840702 7.58023 0.807369 7.94024 0.780703C8.03357 0.767369 8.11357 0.807369 8.18023 0.900702C8.26023 0.980702 8.3069 1.05404 8.32023 1.1207C8.33357 1.22737 8.2869 1.34737 8.18023 1.4807C8.07357 1.61404 7.96023 1.70737 7.84023 1.7607C7.68023 1.82737 7.4069 1.88737 7.02023 1.9407C6.6469 1.9807 6.23357 2.00737 5.78023 2.0207C5.34023 2.03404 4.9269 2.02737 4.54023 2.0007ZM22.6132 9.8007C21.8532 9.81404 21.1532 9.66737 20.5132 9.3607C19.8865 9.05404 19.3799 8.6207 18.9932 8.0607C18.6199 7.48737 18.4332 6.82737 18.4332 6.0807C18.4332 5.37404 18.6199 4.73404 18.9932 4.1607C19.3799 3.58737 19.8865 3.12737 20.5132 2.7807C21.1532 2.43404 21.8599 2.25404 22.6332 2.2407C23.3932 2.21404 24.0865 2.34737 24.7132 2.6407C25.3532 2.93404 25.8599 3.3607 26.2332 3.9207C26.6065 4.46737 26.7932 5.13404 26.7932 5.9207C26.7932 6.65404 26.5999 7.30737 26.2132 7.8807C25.8399 8.45404 25.3399 8.91404 24.7132 9.2607C24.0865 9.59404 23.3865 9.77404 22.6132 9.8007ZM22.6332 8.8807C23.4999 8.8407 24.1999 8.56737 24.7332 8.0607C25.2799 7.55404 25.5532 6.8407 25.5532 5.9207C25.5532 4.9607 25.2799 4.24737 24.7332 3.7807C24.1865 3.3007 23.4799 3.08737 22.6132 3.1407C21.7465 3.19404 21.0199 3.4807 20.4332 4.0007C19.8599 4.50737 19.5732 5.19404 19.5732 6.0607C19.5732 6.9807 19.8599 7.69404 20.4332 8.2007C21.0199 8.70737 21.7532 8.93404 22.6332 8.8807ZM31.2132 13.9607C31.0932 13.9607 31.0199 13.894 30.9932 13.7607C30.9665 13.6274 30.9399 13.414 30.9132 13.1207C30.8999 12.8274 30.8932 12.5274 30.8932 12.2207C30.8932 11.914 30.8932 11.674 30.8932 11.5007V8.4407L30.0132 8.4807C29.5999 8.49404 29.2465 8.52737 28.9532 8.5807C28.6732 8.6207 28.3332 8.68737 27.9332 8.7807C27.7865 8.80737 27.6665 8.8207 27.5732 8.8207C27.4932 8.80737 27.3999 8.76737 27.2932 8.7007C27.1865 8.63404 27.0465 8.53404 26.8732 8.4007C26.6999 8.26737 26.5999 8.16737 26.5732 8.1007C26.5465 8.0207 26.5665 7.93404 26.6332 7.8407C26.6999 7.74737 26.7799 7.70737 26.8732 7.7207C27.2465 7.78737 27.6665 7.82737 28.1332 7.8407C28.5999 7.8407 29.2399 7.81404 30.0532 7.7607L30.8932 7.7207V4.0807L29.8932 4.1207C29.5199 4.13404 29.2132 4.15404 28.9732 4.1807C28.7332 4.20737 28.4399 4.24737 28.0932 4.3007C27.9599 4.32737 27.8465 4.34737 27.7532 4.3607C27.6599 4.3607 27.5599 4.33404 27.4532 4.2807C27.3465 4.22737 27.2065 4.14737 27.0332 4.0407C26.8732 3.93404 26.7799 3.84737 26.7532 3.7807C26.7132 3.7007 26.7265 3.60737 26.7932 3.5007C26.8732 3.3807 26.9665 3.33404 27.0732 3.3607C27.3799 3.41404 27.7265 3.45404 28.1132 3.4807C28.4999 3.50737 29.0599 3.49404 29.7932 3.4407L30.8932 3.3807V2.7207C30.8932 2.3207 30.8732 2.00737 30.8332 1.7807C30.8065 1.55404 30.7265 1.3607 30.5932 1.2007C30.4599 1.0407 30.2332 0.867369 29.9132 0.680703C29.7665 0.574036 29.7332 0.454036 29.8132 0.320703C29.9332 0.120703 30.0865 0.0207028 30.2732 0.0207028C30.4732 0.0207028 30.7399 0.094036 31.0732 0.240702C31.4199 0.387369 31.6999 0.527369 31.9132 0.660702C32.0732 0.754035 32.1465 0.880702 32.1332 1.0407C32.0932 1.26737 32.0665 1.49404 32.0532 1.7207C32.0399 1.94737 32.0332 2.2007 32.0332 2.4807V11.3607C32.0332 11.5474 32.0199 11.7874 31.9932 12.0807C31.9799 12.3607 31.9465 12.6474 31.8932 12.9407C31.8399 13.234 31.7599 13.4807 31.6532 13.6807C31.5465 13.8674 31.3999 13.9607 31.2132 13.9607ZM25.3332 18.2607C24.6665 18.2607 24.1732 18.0874 23.8532 17.7407C23.5332 17.394 23.3732 16.914 23.3732 16.3007V14.9807C23.3732 14.554 23.3332 14.2274 23.2532 14.0007C23.1732 13.774 22.9599 13.5874 22.6132 13.4407C22.5332 13.414 22.4799 13.3607 22.4532 13.2807C22.4399 13.2007 22.4399 13.1274 22.4532 13.0607C22.5465 12.794 22.7199 12.6807 22.9732 12.7207C23.1865 12.7474 23.4265 12.8207 23.6932 12.9407C23.9599 13.0474 24.1932 13.1607 24.3932 13.2807C24.5665 13.3874 24.6399 13.494 24.6132 13.6007C24.5999 13.694 24.5799 13.8607 24.5532 14.1007C24.5265 14.3407 24.5132 14.574 24.5132 14.8007V16.2007C24.5132 16.6674 24.5932 16.9874 24.7532 17.1607C24.9265 17.3207 25.1532 17.414 25.4332 17.4407C25.5932 17.454 25.8465 17.4607 26.1932 17.4607C26.5532 17.4607 26.9465 17.454 27.3732 17.4407C27.7999 17.4274 28.2132 17.414 28.6132 17.4007C29.0265 17.3874 29.3599 17.374 29.6132 17.3607C30.3065 17.3207 30.8932 17.254 31.3732 17.1607C31.8665 17.0674 32.2265 16.9874 32.4532 16.9207C32.7465 16.8274 32.9532 16.8674 33.0732 17.0407C33.1399 17.1474 33.2132 17.274 33.2932 17.4207C33.3732 17.5674 33.4199 17.6874 33.4332 17.7807C33.4465 17.874 33.3999 17.9607 33.2932 18.0407C33.1999 18.134 33.1265 18.1807 33.0732 18.1807C32.6065 18.154 32.2065 18.134 31.8732 18.1207C31.5399 18.1207 31.1865 18.1207 30.8132 18.1207C30.4399 18.134 29.9599 18.154 29.3732 18.1807C28.6932 18.2074 28.0132 18.2274 27.3332 18.2407C26.6532 18.254 25.9865 18.2607 25.3332 18.2607ZM54.8023 14.3407C54.6823 14.3407 54.6089 14.274 54.5823 14.1407C54.5556 14.0074 54.5289 13.794 54.5023 13.5007C54.4889 13.2074 54.4823 12.9074 54.4823 12.6007C54.4823 12.2807 54.4823 12.034 54.4823 11.8607V2.7207C54.4823 2.3207 54.4623 2.00737 54.4223 1.7807C54.3956 1.55404 54.3156 1.3607 54.1823 1.2007C54.0489 1.0407 53.8223 0.867369 53.5023 0.680703C53.3556 0.574036 53.3223 0.454036 53.4023 0.320703C53.5223 0.120703 53.6756 0.0207028 53.8623 0.0207028C54.0623 0.0207028 54.3289 0.094036 54.6623 0.240702C55.0089 0.387369 55.2889 0.527369 55.5023 0.660702C55.6623 0.754035 55.7356 0.880702 55.7223 1.0407C55.6823 1.26737 55.6556 1.49404 55.6423 1.7207C55.6289 1.94737 55.6223 2.2007 55.6223 2.4807V7.1407C56.3156 7.1407 56.8889 7.09404 57.3423 7.0007C57.7956 6.89404 58.1289 6.80737 58.3423 6.7407C58.4889 6.68737 58.5956 6.6807 58.6623 6.7207C58.7423 6.7607 58.8089 6.82737 58.8623 6.9207C58.9156 7.01404 58.9689 7.14737 59.0223 7.3207C59.0889 7.49404 59.1223 7.62737 59.1223 7.7207C59.1223 7.78737 59.0823 7.85404 59.0023 7.9207C58.9223 7.98737 58.8623 8.0207 58.8223 8.0207C58.2756 7.96737 57.7423 7.93404 57.2223 7.9207C56.7156 7.89404 56.1823 7.8807 55.6223 7.8807V11.7207C55.6223 11.894 55.6089 12.1274 55.5823 12.4207C55.5689 12.714 55.5356 13.0074 55.4823 13.3007C55.4289 13.594 55.3489 13.8407 55.2423 14.0407C55.1356 14.2407 54.9889 14.3407 54.8023 14.3407ZM43.5823 11.5607C43.3156 11.6407 43.1156 11.674 42.9823 11.6607C42.8489 11.6474 42.6956 11.5874 42.5223 11.4807C42.4423 11.4274 42.3223 11.354 42.1623 11.2607C42.0156 11.1674 41.8823 11.0807 41.7623 11.0007C41.6423 10.9074 41.5689 10.834 41.5423 10.7807C41.5023 10.714 41.5156 10.6207 41.5823 10.5007C41.6489 10.3807 41.7289 10.3207 41.8223 10.3207C42.3023 10.3874 42.8156 10.4274 43.3623 10.4407C43.9089 10.454 44.4089 10.454 44.8623 10.4407L46.0223 10.3807V8.3007C46.0223 7.91404 45.9889 7.58737 45.9223 7.3207C45.8689 7.05404 45.6623 6.81404 45.3023 6.6007C45.2489 6.5607 45.2089 6.5207 45.1823 6.4807C45.1689 6.41404 45.1889 6.33404 45.2423 6.2407C45.4023 6.0007 45.5956 5.91404 45.8223 5.9807C46.0489 6.04737 46.2489 6.13404 46.4223 6.2407C46.5956 6.33404 46.7556 6.43404 46.9023 6.5407C47.0756 6.68737 47.1489 6.8007 47.1223 6.8807C47.0823 7.06737 47.0556 7.26737 47.0423 7.4807C47.0289 7.6807 47.0156 7.91404 47.0023 8.1807C47.0023 8.40737 46.9956 8.73404 46.9823 9.1607C46.9823 9.58737 46.9756 9.96737 46.9623 10.3007C48.7089 10.154 50.1156 9.98737 51.1823 9.8007C52.2489 9.6007 52.9689 9.45404 53.3423 9.3607C53.5289 9.30737 53.6489 9.32737 53.7023 9.4207C53.7556 9.5007 53.7489 9.60737 53.6823 9.7407C53.6156 9.8607 53.4889 9.9607 53.3023 10.0407C52.8089 10.174 51.9689 10.354 50.7823 10.5807C49.6089 10.794 48.1623 10.994 46.4423 11.1807C45.9089 11.234 45.3889 11.2874 44.8823 11.3407C44.3756 11.3807 43.9423 11.454 43.5823 11.5607ZM48.6223 18.2607C47.3156 18.2607 46.6623 17.6407 46.6623 16.4007V15.4807C46.6623 15.1074 46.6223 14.814 46.5423 14.6007C46.4623 14.374 46.2489 14.1874 45.9023 14.0407C45.8223 14.014 45.7689 13.9607 45.7423 13.8807C45.7289 13.8007 45.7289 13.7274 45.7423 13.6607C45.8356 13.394 46.0089 13.2807 46.2623 13.3207C46.4756 13.374 46.7156 13.454 46.9823 13.5607C47.2489 13.654 47.4823 13.7607 47.6823 13.8807C47.8556 13.9874 47.9289 14.094 47.9023 14.2007C47.8889 14.294 47.8689 14.454 47.8423 14.6807C47.8156 14.9074 47.8023 15.114 47.8023 15.3007V16.3007C47.8023 16.7674 47.8823 17.074 48.0423 17.2207C48.2023 17.3674 48.4289 17.4407 48.7223 17.4407C48.8423 17.454 49.0889 17.4607 49.4623 17.4607C49.8356 17.474 50.2556 17.474 50.7223 17.4607C51.1889 17.4474 51.6356 17.4274 52.0623 17.4007C52.5023 17.3874 52.8489 17.374 53.1023 17.3607C53.7956 17.3207 54.3823 17.254 54.8623 17.1607C55.3556 17.0674 55.7156 16.9874 55.9423 16.9207C56.2356 16.8274 56.4423 16.8674 56.5623 17.0407C56.6289 17.1474 56.7023 17.274 56.7823 17.4207C56.8623 17.5674 56.9089 17.6874 56.9223 17.7807C56.9356 17.874 56.8889 17.9607 56.7823 18.0407C56.6889 18.134 56.6156 18.1807 56.5623 18.1807C56.0956 18.154 55.6956 18.134 55.3623 18.1207C55.0289 18.1207 54.6756 18.1207 54.3023 18.1207C53.9289 18.134 53.4489 18.154 52.8623 18.1807C52.1823 18.2074 51.4689 18.2274 50.7223 18.2407C49.9756 18.254 49.2756 18.2607 48.6223 18.2607ZM50.0023 8.3807C49.8956 8.3807 49.8289 8.33404 49.8023 8.2407C49.7756 8.13404 49.7956 7.95404 49.8623 7.7007C49.9556 7.3407 50.0423 6.91404 50.1223 6.4207C50.2156 5.92737 50.3023 5.41404 50.3823 4.8807C50.4623 4.33404 50.5289 3.81404 50.5823 3.3207C50.5956 3.21404 50.5689 3.15404 50.5023 3.1407C50.4489 3.12737 50.4089 3.1207 50.3823 3.1207C50.3689 3.1207 50.3623 3.1207 50.3623 3.1207C50.1489 3.1207 49.8356 3.12737 49.4223 3.1407C49.0089 3.15404 48.5889 3.17404 48.1623 3.2007C47.7489 3.21404 47.4356 3.23404 47.2223 3.2607C46.6489 3.3007 46.1356 3.34737 45.6823 3.4007C45.2289 3.4407 44.8089 3.51404 44.4223 3.6207C44.1556 3.68737 43.9756 3.70737 43.8823 3.6807C43.7889 3.6407 43.6823 3.56737 43.5623 3.4607C43.2689 3.20737 43.0623 3.0007 42.9423 2.8407C42.9023 2.77404 42.9223 2.68737 43.0023 2.5807C43.0956 2.47404 43.1823 2.43404 43.2623 2.4607C43.5289 2.51404 43.8756 2.55404 44.3023 2.5807C44.7423 2.59404 45.2023 2.6007 45.6823 2.6007C46.1623 2.6007 46.6156 2.58737 47.0423 2.5607C47.4023 2.53404 47.8089 2.50737 48.2623 2.4807C48.7289 2.4407 49.1623 2.38737 49.5623 2.3207C49.9756 2.25404 50.2889 2.1807 50.5023 2.1007C50.6089 2.0607 50.7156 2.0607 50.8223 2.1007L51.8423 2.4607C51.9089 2.48737 51.9556 2.5207 51.9823 2.5607C52.0223 2.6007 52.0223 2.67404 51.9823 2.7807C51.8756 3.08737 51.7889 3.3807 51.7223 3.6607C51.6556 3.92737 51.6023 4.13404 51.5623 4.2807C51.4023 5.02737 51.2756 5.60737 51.1823 6.0207C51.0889 6.43404 50.9889 6.83404 50.8823 7.2207C50.7623 7.64737 50.6289 7.94737 50.4823 8.1207C50.3489 8.2807 50.1889 8.36737 50.0023 8.3807ZM71.3109 16.9607C71.2042 17.0007 71.1242 17.0007 71.0709 16.9607C71.0309 16.9074 71.0042 16.8607 70.9909 16.8207C70.9642 16.714 70.9375 16.514 70.9109 16.2207C70.8842 15.9274 70.8642 15.6074 70.8509 15.2607C70.8509 14.914 70.8509 14.6074 70.8509 14.3407V10.3407L70.0909 10.3607C69.6775 10.3874 69.2909 10.4207 68.9309 10.4607C68.5842 10.4874 68.2109 10.5474 67.8109 10.6407C67.6642 10.6674 67.5442 10.6807 67.4509 10.6807C67.3709 10.6674 67.2775 10.6274 67.1709 10.5607C67.0642 10.494 66.9242 10.4007 66.7509 10.2807C66.5775 10.1474 66.4775 10.0474 66.4509 9.9807C66.4242 9.9007 66.4442 9.8207 66.5109 9.7407C66.5775 9.64737 66.6575 9.60737 66.7509 9.6207C67.1242 9.67404 67.5575 9.70737 68.0509 9.7207C68.5442 9.73404 69.1975 9.71404 70.0109 9.6607C70.1709 9.64737 70.3175 9.6407 70.4509 9.6407C70.5842 9.62737 70.7175 9.60737 70.8509 9.5807V6.4207H70.6909C70.3175 6.44737 70.0309 6.47404 69.8309 6.5007C69.6309 6.51404 69.3575 6.5607 69.0109 6.6407C68.8642 6.66737 68.7442 6.68737 68.6509 6.7007C68.5709 6.7007 68.4775 6.67404 68.3709 6.6207C68.2642 6.5807 68.1309 6.51404 67.9709 6.4207C67.8109 6.31404 67.6909 6.2207 67.6109 6.1407C67.2375 7.00737 66.7509 7.89404 66.1509 8.8007C65.5642 9.69404 64.8709 10.554 64.0709 11.3807C63.2842 12.194 62.4042 12.9207 61.4309 13.5607C61.2709 13.6674 61.1109 13.714 60.9509 13.7007C60.7909 13.6874 60.6842 13.634 60.6309 13.5407C60.5909 13.4474 60.6709 13.3274 60.8709 13.1807C61.7775 12.514 62.6509 11.7007 63.4909 10.7407C64.3309 9.76737 65.0642 8.70737 65.6909 7.5607C66.3175 6.41404 66.7509 5.2407 66.9909 4.0407C67.0175 3.90737 67.0109 3.83404 66.9709 3.8207C66.9309 3.79404 66.8909 3.7807 66.8509 3.7807C66.8375 3.7807 66.8309 3.7807 66.8309 3.7807C66.5242 3.7807 66.2309 3.79404 65.9509 3.8207C65.6842 3.83404 65.3909 3.85404 65.0709 3.8807C64.6975 3.90737 64.3842 3.9407 64.1309 3.9807C63.8909 4.00737 63.6642 4.0407 63.4509 4.0807C63.2375 4.10737 62.9909 4.14737 62.7109 4.2007C62.4975 4.25404 62.3509 4.26737 62.2709 4.2407C62.2042 4.21404 62.1242 4.1607 62.0309 4.0807C62.0175 4.06737 62.0042 4.0607 61.9909 4.0607C61.8709 3.9407 61.7442 3.81404 61.6109 3.6807C61.4909 3.54737 61.4109 3.44737 61.3709 3.3807C61.3309 3.31404 61.3442 3.23404 61.4109 3.1407C61.4909 3.03404 61.5775 2.99404 61.6709 3.0207C61.9509 3.07404 62.3442 3.11404 62.8509 3.1407C63.3709 3.16737 63.8909 3.16737 64.4109 3.1407C65.0109 3.11404 65.4909 3.0807 65.8509 3.0407C66.2242 2.98737 66.5842 2.9007 66.9309 2.7807C67.0109 2.72737 67.1109 2.72737 67.2309 2.7807L68.4909 3.2007C68.5442 3.22737 68.5842 3.26737 68.6109 3.3207C68.6509 3.37404 68.6509 3.44737 68.6109 3.5407C68.4909 3.83404 68.3709 4.13404 68.2509 4.4407C68.1442 4.74737 68.0375 5.04737 67.9309 5.3407L67.7909 5.7007C68.0975 5.75404 68.4509 5.78737 68.8509 5.8007C69.2642 5.8007 69.8375 5.77404 70.5709 5.7207H70.8509V3.9007C70.8509 3.84737 70.8509 3.8007 70.8509 3.7607C70.8509 3.7207 70.8509 3.67404 70.8509 3.6207C70.8509 3.1007 70.8175 2.68737 70.7509 2.3807C70.6842 2.0607 70.4442 1.77404 70.0309 1.5207C69.8709 1.41404 69.8375 1.29404 69.9309 1.1607C70.0109 1.02737 70.0909 0.940703 70.1709 0.900702C70.2642 0.860702 70.3642 0.847369 70.4709 0.860703C70.7109 0.887369 70.9709 0.994036 71.2509 1.1807C71.5442 1.35404 71.7309 1.4807 71.8109 1.5607C71.8775 1.62737 71.9309 1.69404 71.9709 1.7607C72.0242 1.81404 72.0442 1.87404 72.0309 1.9407C71.9909 2.19404 71.9642 2.47404 71.9509 2.7807C71.9509 3.07404 71.9509 3.3607 71.9509 3.6407C71.9509 3.69404 71.9509 3.74737 71.9509 3.8007C71.9509 3.8407 71.9509 3.8807 71.9509 3.9207V14.3007C71.9509 14.5807 71.9375 14.9207 71.9109 15.3207C71.8842 15.7207 71.8242 16.0807 71.7309 16.4007C71.6375 16.7207 71.4975 16.9074 71.3109 16.9607ZM74.4509 17.6407C74.3442 17.6807 74.2642 17.674 74.2109 17.6207C74.1709 17.5807 74.1442 17.5407 74.1309 17.5007C74.1042 17.394 74.0775 17.194 74.0509 16.9007C74.0242 16.6074 74.0042 16.2874 73.9909 15.9407C73.9909 15.594 73.9909 15.2874 73.9909 15.0207V2.8007C73.9909 2.77404 73.9909 2.72737 73.9909 2.6607C73.9909 2.28737 73.9775 1.99404 73.9509 1.7807C73.9242 1.56737 73.8442 1.38737 73.7109 1.2407C73.5909 1.0807 73.3775 0.907369 73.0709 0.720702C72.9375 0.627369 72.9042 0.507369 72.9709 0.360702C73.1175 0.120702 73.3042 0.020702 73.5309 0.0607023C73.7709 0.100703 74.0309 0.200703 74.3109 0.360702C74.6042 0.507369 74.8242 0.640703 74.9709 0.760703C74.9842 0.774036 74.9975 0.787369 75.0109 0.800702C75.0775 0.854036 75.1309 0.914036 75.1709 0.980702C75.2109 1.03404 75.2242 1.09404 75.2109 1.1607C75.1709 1.4407 75.1375 1.70737 75.1109 1.9607C75.0975 2.21404 75.0909 2.5007 75.0909 2.8207V14.9807C75.0909 15.2607 75.0775 15.6007 75.0509 16.0007C75.0242 16.4007 74.9642 16.7607 74.8709 17.0807C74.7775 17.4007 74.6375 17.5874 74.4509 17.6407ZM91.1387 17.6607C90.992 17.6607 90.912 17.594 90.8987 17.4607C90.8853 17.354 90.8653 17.1607 90.8387 16.8807C90.8253 16.5874 90.812 16.274 90.7987 15.9407C90.7853 15.594 90.7787 15.294 90.7787 15.0407V2.7807C90.7787 2.36737 90.7587 2.04737 90.7187 1.8207C90.692 1.59404 90.6053 1.40737 90.4587 1.2607C90.3253 1.1007 90.0853 0.934036 89.7387 0.760703C89.632 0.694035 89.5787 0.627368 89.5787 0.560702C89.5787 0.494035 89.6253 0.407369 89.7187 0.300703C89.812 0.180703 89.912 0.120703 90.0187 0.120703C90.1787 0.120703 90.3787 0.160703 90.6187 0.240702C90.8587 0.320702 91.092 0.414035 91.3187 0.520702C91.5453 0.614035 91.712 0.700702 91.8187 0.780703C91.9787 0.900703 92.052 1.03404 92.0387 1.1807C91.9987 1.4607 91.9653 1.7207 91.9387 1.9607C91.9253 2.2007 91.9187 2.4807 91.9187 2.8007V8.2607C92.6253 8.2607 93.2453 8.20737 93.7787 8.1007C94.3253 7.9807 94.7053 7.88737 94.9187 7.8207C95.0653 7.76737 95.172 7.7607 95.2387 7.8007C95.3053 7.8407 95.3653 7.9007 95.4187 7.9807C95.4853 8.07404 95.552 8.21404 95.6187 8.4007C95.6987 8.58737 95.7387 8.72737 95.7387 8.8207C95.7387 8.9007 95.692 8.97404 95.5987 9.0407C95.5187 9.10737 95.4587 9.1407 95.4187 9.1407C94.9253 9.07404 94.412 9.0407 93.8787 9.0407C93.3587 9.02737 92.832 9.0207 92.2987 9.0207C92.232 9.0207 92.1653 9.0207 92.0987 9.0207C92.0453 9.0207 91.9853 9.0207 91.9187 9.0207V15.0007C91.9187 15.214 91.9053 15.474 91.8787 15.7807C91.8653 16.074 91.832 16.3674 91.7787 16.6607C91.7253 16.9407 91.6453 17.174 91.5387 17.3607C91.4453 17.5607 91.312 17.6607 91.1387 17.6607ZM81.1187 12.5607C80.8387 12.574 80.6053 12.4407 80.4187 12.1607C80.2453 11.8674 80.1587 11.5274 80.1587 11.1407V5.5407C80.1587 5.31404 80.152 5.08737 80.1387 4.8607C80.1387 4.6207 80.112 4.38737 80.0587 4.1607C80.0053 3.97404 79.8987 3.7807 79.7387 3.5807C79.5787 3.3807 79.4187 3.22737 79.2587 3.1207C79.1387 3.01404 79.1187 2.89404 79.1987 2.7607C79.372 2.53404 79.5653 2.44737 79.7787 2.5007C79.9653 2.5407 80.2053 2.6407 80.4987 2.8007C80.792 2.9607 81.0253 3.10737 81.1987 3.2407C81.3853 3.4007 81.4653 3.5407 81.4387 3.6607C81.412 3.84737 81.3853 4.1207 81.3587 4.4807C81.332 4.82737 81.3187 5.13404 81.3187 5.4007V10.8807C81.3187 11.054 81.352 11.1874 81.4187 11.2807C81.4987 11.3607 81.672 11.394 81.9387 11.3807C82.672 11.3674 83.4253 11.294 84.1987 11.1607C84.972 11.0274 85.712 10.8674 86.4187 10.6807C87.1387 10.494 87.7587 10.314 88.2787 10.1407C88.812 9.95404 89.192 9.80737 89.4187 9.7007C89.6587 9.59404 89.7987 9.63404 89.8387 9.8207C89.892 9.99404 89.812 10.1607 89.5987 10.3207C89.4253 10.4274 89.1053 10.574 88.6387 10.7607C88.1853 10.9474 87.6387 11.1474 86.9987 11.3607C86.372 11.5607 85.7053 11.754 84.9987 11.9407C84.292 12.114 83.5987 12.2607 82.9187 12.3807C82.252 12.5007 81.652 12.5607 81.1187 12.5607ZM108.469 11.3807C107.669 11.394 106.995 11.2607 106.449 10.9807C105.915 10.6874 105.509 10.314 105.229 9.8607C104.949 9.40737 104.809 8.9607 104.809 8.5207C104.809 8.05404 104.929 7.6007 105.169 7.1607C105.409 6.70737 105.795 6.32737 106.329 6.0207C106.862 5.71404 107.569 5.54737 108.449 5.5207C109.622 5.49404 110.535 5.7607 111.189 6.3207C111.842 6.86737 112.155 7.56737 112.129 8.4207C112.115 8.9007 111.969 9.36737 111.689 9.8207C111.409 10.2607 111.002 10.6274 110.469 10.9207C109.935 11.2007 109.269 11.354 108.469 11.3807ZM108.469 10.5207C109.229 10.494 109.822 10.2874 110.249 9.9007C110.675 9.5007 110.902 9.00737 110.929 8.4207C110.955 8.12737 110.882 7.81404 110.709 7.4807C110.549 7.14737 110.282 6.8607 109.909 6.6207C109.535 6.3807 109.042 6.27404 108.429 6.3007C107.575 6.32737 106.949 6.5607 106.549 7.0007C106.149 7.4407 105.949 7.9407 105.949 8.5007C105.949 8.84737 106.049 9.1807 106.249 9.5007C106.462 9.8207 106.755 10.074 107.129 10.2607C107.515 10.4474 107.962 10.534 108.469 10.5207ZM116.009 11.7207C115.889 11.7207 115.815 11.654 115.789 11.5207C115.762 11.3874 115.735 11.1874 115.709 10.9207C115.695 10.6407 115.689 10.354 115.689 10.0607C115.689 9.76737 115.689 9.53404 115.689 9.3607V2.7207C115.689 2.3207 115.669 2.00737 115.629 1.7807C115.602 1.55404 115.515 1.3607 115.369 1.2007C115.235 1.0407 115.009 0.867369 114.689 0.680703C114.555 0.587369 114.522 0.467369 114.589 0.320703C114.709 0.120703 114.869 0.0207028 115.069 0.0207028C115.269 0.0207028 115.535 0.094036 115.869 0.240702C116.202 0.387369 116.475 0.527369 116.689 0.660702C116.755 0.700702 116.815 0.754035 116.869 0.820702C116.922 0.887369 116.942 0.960702 116.929 1.0407C116.889 1.26737 116.862 1.49404 116.849 1.7207C116.835 1.94737 116.829 2.2007 116.829 2.4807V6.3807C117.522 6.3807 118.095 6.32737 118.549 6.2207C119.002 6.11404 119.335 6.02737 119.549 5.9607C119.695 5.90737 119.802 5.9007 119.869 5.9407C119.949 5.9807 120.015 6.04737 120.069 6.1407C120.122 6.23404 120.175 6.36737 120.229 6.5407C120.295 6.71404 120.329 6.84737 120.329 6.9407C120.329 7.0207 120.289 7.09404 120.209 7.1607C120.129 7.21404 120.069 7.2407 120.029 7.2407C119.469 7.18737 118.929 7.15404 118.409 7.1407C117.902 7.11404 117.375 7.1007 116.829 7.1007V9.2207C116.829 9.4207 116.815 9.6607 116.789 9.9407C116.775 10.2207 116.735 10.5007 116.669 10.7807C116.615 11.0474 116.535 11.274 116.429 11.4607C116.322 11.634 116.182 11.7207 116.009 11.7207ZM115.969 18.9407C115.862 18.9674 115.789 18.9474 115.749 18.8807C115.709 18.8274 115.682 18.774 115.669 18.7207C115.615 18.4807 115.582 18.2274 115.569 17.9607C115.569 17.7074 115.569 17.4474 115.569 17.1807V13.8807C115.569 13.7074 115.522 13.6207 115.429 13.6207C115.349 13.6207 115.155 13.6274 114.849 13.6407C114.555 13.654 114.209 13.674 113.809 13.7007C113.409 13.714 113.002 13.734 112.589 13.7607C112.189 13.774 111.849 13.794 111.569 13.8207C110.689 13.9007 109.935 13.9674 109.309 14.0207C108.695 14.0607 108.189 14.1207 107.789 14.2007C107.535 14.2407 107.322 14.2007 107.149 14.0807C107.042 14.014 106.902 13.9074 106.729 13.7607C106.569 13.6007 106.475 13.4874 106.449 13.4207C106.422 13.3407 106.449 13.2407 106.529 13.1207C106.609 13.0007 106.695 12.954 106.789 12.9807C107.095 13.0607 107.622 13.1207 108.369 13.1607C109.129 13.1874 110.035 13.174 111.089 13.1207C111.729 13.0807 112.349 13.0407 112.949 13.0007C113.549 12.9474 114.069 12.8874 114.509 12.8207C114.949 12.754 115.242 12.6874 115.389 12.6207C115.482 12.5807 115.582 12.5674 115.689 12.5807C115.875 12.6207 116.062 12.654 116.249 12.6807C116.449 12.7074 116.622 12.734 116.769 12.7607C116.902 12.774 116.949 12.874 116.909 13.0607C116.895 13.1407 116.875 13.2807 116.849 13.4807C116.835 13.6674 116.822 13.8674 116.809 14.0807C116.795 14.2807 116.789 14.4474 116.789 14.5807L116.749 16.8807C116.749 17.134 116.722 17.4074 116.669 17.7007C116.615 18.0074 116.535 18.274 116.429 18.5007C116.322 18.7407 116.169 18.8874 115.969 18.9407ZM104.469 4.8407C104.242 4.8807 104.075 4.8807 103.969 4.8407C103.862 4.8007 103.762 4.73404 103.669 4.6407C103.549 4.5207 103.442 4.4007 103.349 4.2807C103.255 4.1607 103.189 4.06737 103.149 4.0007C103.109 3.93404 103.122 3.84737 103.189 3.7407C103.255 3.63404 103.335 3.59404 103.429 3.6207C103.855 3.7007 104.375 3.75404 104.989 3.7807C105.615 3.80737 106.235 3.81404 106.849 3.8007C107.462 3.78737 107.962 3.77404 108.349 3.7607C109.349 3.7207 110.255 3.6607 111.069 3.5807C111.882 3.5007 112.549 3.38737 113.069 3.2407C113.215 3.2007 113.322 3.2007 113.389 3.2407C113.455 3.26737 113.515 3.32737 113.569 3.4207C113.622 3.51404 113.669 3.6407 113.709 3.8007C113.762 3.94737 113.789 4.06737 113.789 4.1607C113.789 4.2407 113.742 4.31404 113.649 4.3807C113.569 4.43404 113.509 4.4607 113.469 4.4607C112.989 4.43404 112.389 4.4207 111.669 4.4207C110.962 4.40737 110.189 4.41404 109.349 4.4407C108.522 4.45404 107.682 4.49404 106.829 4.5607C105.989 4.62737 105.202 4.7207 104.469 4.8407ZM107.729 2.1807C107.515 2.15404 107.242 2.1007 106.909 2.0207C106.575 1.92737 106.262 1.8207 105.969 1.7007C105.689 1.5807 105.495 1.4607 105.389 1.3407C105.322 1.2607 105.315 1.1407 105.369 0.980702C105.422 0.820702 105.509 0.754035 105.629 0.780703C106.269 0.914036 106.942 1.0007 107.649 1.0407C108.369 1.0807 109.035 1.08737 109.649 1.0607C110.275 1.03404 110.769 1.00737 111.129 0.980702C111.222 0.967369 111.302 1.00737 111.369 1.1007C111.449 1.1807 111.495 1.24737 111.509 1.3007C111.522 1.40737 111.475 1.53404 111.369 1.6807C111.262 1.81404 111.149 1.9007 111.029 1.9407C110.882 1.99404 110.609 2.04737 110.209 2.1007C109.822 2.1407 109.402 2.17404 108.949 2.2007C108.495 2.21404 108.089 2.20737 107.729 2.1807ZM130.562 19.0407C129.762 19.0407 129.049 18.9074 128.422 18.6407C127.796 18.374 127.302 18.0007 126.942 17.5207C126.596 17.0407 126.422 16.494 126.422 15.8807C126.422 15.3207 126.589 14.814 126.922 14.3607C127.256 13.9074 127.702 13.534 128.262 13.2407C128.822 12.9474 129.442 12.7674 130.122 12.7007C130.096 12.5007 130.076 12.254 130.062 11.9607C130.062 11.6674 130.056 11.3674 130.042 11.0607L130.022 10.4807C129.342 10.5074 128.689 10.534 128.062 10.5607C127.449 10.574 126.896 10.594 126.402 10.6207C125.802 10.6474 125.249 10.694 124.742 10.7607C124.249 10.814 123.802 10.8807 123.402 10.9607C123.189 11.0007 123.042 11.014 122.962 11.0007C122.882 10.974 122.776 10.9274 122.642 10.8607C122.629 10.8474 122.616 10.8407 122.602 10.8407C122.522 10.7874 122.416 10.7074 122.282 10.6007C122.149 10.4807 122.029 10.3674 121.922 10.2607C121.816 10.1407 121.756 10.0607 121.742 10.0207C121.702 9.95404 121.722 9.8607 121.802 9.7407C121.896 9.6207 121.982 9.57404 122.062 9.6007C122.489 9.6807 122.996 9.74737 123.582 9.8007C124.182 9.8407 124.836 9.85404 125.542 9.8407C126.836 9.82737 128.242 9.8007 129.762 9.7607C131.296 9.7207 132.802 9.67404 134.282 9.6207C135.149 9.5807 135.942 9.5207 136.662 9.4407C137.396 9.34737 137.916 9.24737 138.222 9.1407C138.369 9.08737 138.482 9.0807 138.562 9.1207C138.642 9.1607 138.722 9.23404 138.802 9.3407C138.869 9.44737 138.936 9.57404 139.002 9.7207C139.082 9.85404 139.122 9.97404 139.122 10.0807C139.122 10.174 139.076 10.254 138.982 10.3207C138.889 10.3874 138.822 10.4207 138.782 10.4207C138.249 10.3807 137.649 10.3607 136.982 10.3607C136.329 10.3474 135.716 10.3407 135.142 10.3407C135.049 10.3407 134.956 10.3407 134.862 10.3407C134.769 10.3407 134.682 10.3407 134.602 10.3407L131.162 10.4407V10.8607C131.162 11.1807 131.156 11.514 131.142 11.8607C131.129 12.194 131.089 12.4674 131.022 12.6807C131.769 12.7074 132.429 12.8474 133.002 13.1007C133.576 13.3407 134.022 13.6874 134.342 14.1407C134.676 14.594 134.829 15.1474 134.802 15.8007C134.776 16.4274 134.569 16.9874 134.182 17.4807C133.809 17.974 133.309 18.354 132.682 18.6207C132.056 18.9007 131.349 19.0407 130.562 19.0407ZM130.602 18.1607C131.429 18.1474 132.116 17.934 132.662 17.5207C133.222 17.1074 133.516 16.5274 133.542 15.7807C133.542 15.0607 133.262 14.494 132.702 14.0807C132.156 13.6674 131.462 13.4607 130.622 13.4607C130.076 13.474 129.576 13.5874 129.122 13.8007C128.669 14.014 128.309 14.3007 128.042 14.6607C127.789 15.0074 127.662 15.4074 127.662 15.8607C127.662 16.5407 127.942 17.094 128.502 17.5207C129.076 17.9474 129.776 18.1607 130.602 18.1607ZM125.822 7.7407C125.596 7.7807 125.402 7.75404 125.242 7.6607C125.136 7.5807 124.989 7.47404 124.802 7.3407C124.616 7.19404 124.509 7.08737 124.482 7.0207C124.456 6.9407 124.482 6.8407 124.562 6.7207C124.642 6.6007 124.729 6.55404 124.822 6.5807C125.076 6.63404 125.409 6.68737 125.822 6.7407C126.236 6.7807 126.682 6.80737 127.162 6.8207H127.782C127.769 6.68737 127.749 6.51404 127.722 6.3007C127.696 6.07404 127.669 5.77404 127.642 5.4007C127.589 4.94737 127.496 4.5607 127.362 4.2407C127.229 3.9207 127.016 3.68737 126.722 3.5407C126.576 3.47404 126.522 3.3807 126.562 3.2607C126.602 3.11404 126.676 3.0007 126.782 2.9207C126.889 2.8407 126.996 2.81404 127.102 2.8407C127.276 2.8807 127.482 2.95404 127.722 3.0607C127.962 3.16737 128.182 3.2807 128.382 3.4007C128.582 3.53404 128.682 3.66737 128.682 3.8007C128.682 3.81404 128.682 3.82737 128.682 3.8407C128.669 3.94737 128.656 4.05404 128.642 4.1607C128.629 4.25404 128.622 4.39404 128.622 4.5807C128.622 4.76737 128.622 5.0407 128.622 5.4007C128.636 5.74737 128.649 6.2207 128.662 6.8207C129.276 6.80737 129.882 6.79404 130.482 6.7807C131.096 6.76737 131.702 6.7407 132.302 6.7007L132.602 5.0607C132.669 4.63404 132.696 4.24737 132.682 3.9007C132.669 3.5407 132.469 3.27404 132.082 3.1007C132.029 3.07404 131.982 3.0407 131.942 3.0007C131.916 2.94737 131.916 2.87404 131.942 2.7807C132.049 2.5007 132.242 2.3807 132.522 2.4207C133.042 2.51404 133.489 2.6807 133.862 2.9207C133.916 2.94737 133.969 2.99404 134.022 3.0607C134.076 3.12737 134.089 3.19404 134.062 3.2607C133.929 3.7007 133.796 4.22737 133.662 4.8407C133.529 5.45404 133.409 6.04737 133.302 6.6207C133.769 6.5807 134.209 6.53404 134.622 6.4807C135.049 6.42737 135.422 6.35404 135.742 6.2607C135.889 6.20737 135.989 6.20737 136.042 6.2607C136.109 6.3007 136.176 6.35404 136.242 6.4207C136.242 6.43404 136.242 6.4407 136.242 6.4407C136.309 6.5207 136.369 6.6207 136.422 6.7407C136.489 6.8607 136.522 6.96737 136.522 7.0607C136.522 7.12737 136.476 7.19404 136.382 7.2607C136.302 7.32737 136.242 7.3607 136.202 7.3607C135.829 7.33404 135.516 7.3207 135.262 7.3207C135.009 7.3207 134.729 7.32737 134.422 7.3407C134.276 7.3407 134.116 7.3407 133.942 7.3407C133.769 7.3407 133.569 7.3407 133.342 7.3407C132.649 7.35404 131.962 7.37404 131.282 7.4007C130.602 7.41404 129.909 7.43404 129.202 7.4607C128.469 7.48737 127.862 7.51404 127.382 7.5407C126.916 7.56737 126.396 7.63404 125.822 7.7407ZM126.142 2.3207C125.929 2.38737 125.776 2.41404 125.682 2.4007C125.589 2.37404 125.476 2.30737 125.342 2.2007C125.209 2.09404 125.082 1.97404 124.962 1.8407C124.842 1.70737 124.762 1.60737 124.722 1.5407C124.682 1.47404 124.702 1.38737 124.782 1.2807C124.876 1.1607 124.962 1.11404 125.042 1.1407C125.269 1.19404 125.589 1.2407 126.002 1.2807C126.429 1.30737 126.869 1.3207 127.322 1.3207C127.789 1.3207 128.189 1.31404 128.522 1.3007C129.056 1.27404 129.516 1.25404 129.902 1.2407C130.302 1.22737 130.716 1.21404 131.142 1.2007C131.582 1.17404 132.116 1.14737 132.742 1.1207C133.182 1.09404 133.642 1.04737 134.122 0.980702C134.616 0.914036 134.982 0.847369 135.222 0.780703C135.369 0.740702 135.469 0.734036 135.522 0.760703C135.589 0.787369 135.656 0.840702 135.722 0.920702C135.789 1.0007 135.856 1.11404 135.922 1.2607C135.989 1.40737 136.022 1.52737 136.022 1.6207C136.022 1.7007 135.976 1.77404 135.882 1.8407C135.802 1.89404 135.742 1.9207 135.702 1.9207C135.516 1.89404 135.236 1.87404 134.862 1.8607C134.489 1.84737 134.082 1.8407 133.642 1.8407C133.216 1.8407 132.829 1.85404 132.482 1.8807C132.162 1.89404 131.736 1.91404 131.202 1.9407C130.669 1.95404 130.129 1.96737 129.582 1.9807C129.049 1.99404 128.596 2.0207 128.222 2.0607C127.969 2.08737 127.629 2.1207 127.202 2.1607C126.789 2.18737 126.436 2.2407 126.142 2.3207ZM141.421 18.3407C141.875 18.154 142.221 17.8674 142.461 17.4807C142.701 17.1074 142.861 16.7074 142.941 16.2807C142.901 16.294 142.835 16.3007 142.741 16.3007C142.448 16.3007 142.201 16.2007 142.001 16.0007C141.815 15.7874 141.721 15.534 141.721 15.2407C141.721 14.9207 141.828 14.674 142.041 14.5007C142.268 14.314 142.521 14.2207 142.801 14.2207C143.148 14.2207 143.435 14.3607 143.661 14.6407C143.901 14.9074 144.021 15.274 144.021 15.7407C144.021 16.1674 143.921 16.6207 143.721 17.1007C143.535 17.5807 143.281 17.994 142.961 18.3407C142.655 18.6874 142.321 18.8807 141.961 18.9207C141.855 18.9207 141.768 18.8674 141.701 18.7607L141.421 18.3407ZM165.714 17.6607C165.567 17.6607 165.487 17.594 165.474 17.4607C165.46 17.354 165.44 17.1607 165.414 16.8807C165.4 16.5874 165.387 16.274 165.374 15.9407C165.36 15.594 165.354 15.294 165.354 15.0407V2.7807C165.354 2.36737 165.334 2.04737 165.294 1.8207C165.267 1.59404 165.18 1.40737 165.034 1.2607C164.9 1.1007 164.66 0.934036 164.314 0.760703C164.207 0.694035 164.154 0.627368 164.154 0.560702C164.154 0.494035 164.2 0.407369 164.294 0.300703C164.387 0.180703 164.487 0.120703 164.594 0.120703C164.754 0.120703 164.954 0.160703 165.194 0.240702C165.434 0.320702 165.667 0.414035 165.894 0.520702C166.12 0.614035 166.287 0.700702 166.394 0.780703C166.554 0.900703 166.627 1.03404 166.614 1.1807C166.574 1.4607 166.54 1.7207 166.514 1.9607C166.5 2.2007 166.494 2.4807 166.494 2.8007V8.2607C167.2 8.2607 167.82 8.20737 168.354 8.1007C168.9 7.9807 169.28 7.88737 169.494 7.8207C169.64 7.76737 169.747 7.7607 169.814 7.8007C169.88 7.8407 169.94 7.9007 169.994 7.9807C170.06 8.07404 170.127 8.21404 170.194 8.4007C170.274 8.58737 170.314 8.72737 170.314 8.8207C170.314 8.9007 170.267 8.97404 170.174 9.0407C170.094 9.10737 170.034 9.1407 169.994 9.1407C169.5 9.07404 168.987 9.0407 168.454 9.0407C167.934 9.02737 167.407 9.0207 166.874 9.0207C166.807 9.0207 166.74 9.0207 166.674 9.0207C166.62 9.0207 166.56 9.0207 166.494 9.0207V15.0007C166.494 15.214 166.48 15.474 166.454 15.7807C166.44 16.074 166.407 16.3674 166.354 16.6607C166.3 16.9407 166.22 17.174 166.114 17.3607C166.02 17.5607 165.887 17.6607 165.714 17.6607ZM152.934 12.7007C152.787 12.794 152.627 12.834 152.454 12.8207C152.294 12.794 152.187 12.734 152.134 12.6407C152.08 12.5474 152.134 12.4407 152.294 12.3207C152.907 11.8674 153.514 11.3207 154.114 10.6807C154.714 10.0407 155.274 9.3607 155.794 8.6407C156.327 7.90737 156.794 7.18737 157.194 6.4807C157.594 5.7607 157.894 5.1007 158.094 4.5007C158.24 4.04737 158.327 3.65404 158.354 3.3207C158.38 2.97404 158.214 2.68737 157.854 2.4607C157.68 2.3407 157.647 2.20737 157.754 2.0607C157.874 1.87404 157.994 1.77404 158.114 1.7607C158.234 1.74737 158.374 1.77404 158.534 1.8407C158.72 1.9207 158.954 2.04737 159.234 2.2207C159.514 2.3807 159.707 2.50737 159.814 2.6007C159.96 2.73404 160.054 2.8407 160.094 2.9207C160.134 3.0007 160.14 3.07404 160.114 3.1407C159.98 3.36737 159.82 3.6807 159.634 4.0807C159.46 4.4807 159.274 4.89404 159.074 5.3207C158.967 5.54737 158.847 5.78737 158.714 6.0407C158.58 6.2807 158.44 6.52737 158.294 6.7807C159.174 7.5807 159.974 8.2207 160.694 8.7007C161.427 9.16737 162.02 9.51404 162.474 9.7407C162.607 9.83404 162.72 9.98737 162.814 10.2007C162.92 10.4007 163 10.6207 163.054 10.8607C163.107 11.0874 163.114 11.2874 163.074 11.4607C163.06 11.5674 162.994 11.654 162.874 11.7207C162.767 11.7874 162.66 11.834 162.554 11.8607C162.447 11.874 162.38 11.8674 162.354 11.8407C162.114 11.494 161.794 11.114 161.394 10.7007C161.007 10.274 160.594 9.84737 160.154 9.4207C159.714 8.9807 159.294 8.58737 158.894 8.2407C158.507 7.8807 158.187 7.6007 157.934 7.4007C157.254 8.45404 156.48 9.4607 155.614 10.4207C154.747 11.3674 153.854 12.1274 152.934 12.7007ZM173.387 10.5207C173.214 10.574 173.054 10.574 172.907 10.5207C172.761 10.4674 172.667 10.394 172.627 10.3007C172.601 10.2074 172.654 10.1274 172.787 10.0607C173.734 9.63404 174.607 9.13404 175.407 8.5607C176.221 7.98737 176.927 7.4007 177.527 6.8007C178.141 6.2007 178.614 5.6407 178.947 5.1207C179.294 4.6007 179.467 4.1807 179.467 3.8607C179.467 3.67404 179.407 3.53404 179.287 3.4407C179.181 3.33404 179.054 3.26737 178.907 3.2407L177.907 3.3007C177.747 3.31404 177.487 3.3407 177.127 3.3807C176.781 3.40737 176.427 3.4407 176.067 3.4807C175.707 3.5207 175.427 3.56737 175.227 3.6207C175.014 3.68737 174.841 3.70737 174.707 3.6807C174.574 3.6407 174.441 3.5607 174.307 3.4407C174.187 3.33404 174.067 3.21404 173.947 3.0807C173.827 2.94737 173.747 2.84737 173.707 2.7807C173.667 2.71404 173.681 2.6207 173.747 2.5007C173.827 2.3807 173.907 2.33404 173.987 2.3607C174.214 2.41404 174.541 2.45404 174.967 2.4807C175.407 2.50737 175.881 2.5207 176.387 2.5207C176.894 2.5207 177.361 2.51404 177.787 2.5007C178.187 2.48737 178.521 2.47404 178.787 2.4607C179.067 2.44737 179.327 2.4407 179.567 2.4407C179.807 2.42737 180.067 2.41404 180.347 2.4007C180.641 2.38737 181.001 2.36737 181.427 2.3407C182.081 2.28737 182.674 2.2207 183.207 2.1407C183.741 2.0607 184.127 1.98737 184.367 1.9207C184.514 1.89404 184.621 1.89404 184.687 1.9207C184.754 1.93404 184.814 1.9807 184.867 2.0607C184.934 2.1407 184.994 2.27404 185.047 2.4607C185.114 2.64737 185.147 2.78737 185.147 2.8807C185.147 2.9607 185.101 3.03404 185.007 3.1007C184.927 3.15404 184.867 3.1807 184.827 3.1807C184.681 3.16737 184.454 3.15404 184.147 3.1407C183.841 3.12737 183.494 3.1207 183.107 3.1207C182.734 3.10737 182.361 3.10737 181.987 3.1207C181.627 3.1207 181.314 3.12737 181.047 3.1407L179.967 3.1807C180.207 3.28737 180.434 3.4207 180.647 3.5807C180.861 3.7407 180.954 3.90737 180.927 4.0807C180.767 4.6807 180.407 5.32737 179.847 6.0207C180.847 6.5807 181.721 7.00737 182.467 7.3007C183.227 7.59404 183.954 7.82737 184.647 8.0007C184.941 8.17404 185.174 8.4207 185.347 8.7407C185.534 9.04737 185.634 9.33404 185.647 9.6007C185.661 9.66737 185.614 9.75404 185.507 9.8607C185.414 9.95404 185.307 10.0274 185.187 10.0807C185.067 10.134 184.981 10.134 184.927 10.0807C184.714 9.8407 184.381 9.56737 183.927 9.2607C183.474 8.9407 182.967 8.61404 182.407 8.2807C181.861 7.93404 181.314 7.61404 180.767 7.3207C180.234 7.01404 179.767 6.7607 179.367 6.5607C178.861 7.10737 178.267 7.6407 177.587 8.1607C176.921 8.6807 176.227 9.14737 175.507 9.5607C174.787 9.97404 174.081 10.294 173.387 10.5207ZM172.907 15.2607C172.667 15.314 172.507 15.334 172.427 15.3207C172.347 15.294 172.241 15.234 172.107 15.1407C172.027 15.0874 171.921 15.0007 171.787 14.8807C171.654 14.7607 171.534 14.6474 171.427 14.5407C171.321 14.4207 171.254 14.334 171.227 14.2807C171.187 14.214 171.207 14.1207 171.287 14.0007C171.381 13.8807 171.474 13.834 171.567 13.8607C171.994 13.954 172.467 14.0274 172.987 14.0807C173.521 14.1207 174.141 14.134 174.847 14.1207C175.527 14.1207 176.214 14.1207 176.907 14.1207C177.614 14.1207 178.334 14.114 179.067 14.1007L179.087 12.5207C179.087 12.254 179.074 11.9674 179.047 11.6607C179.021 11.354 178.954 11.074 178.847 10.8207C178.741 10.554 178.561 10.3607 178.307 10.2407C178.174 10.1607 178.154 10.034 178.247 9.8607C178.381 9.6607 178.581 9.59404 178.847 9.6607C179.047 9.71404 179.247 9.8007 179.447 9.9207C179.647 10.0407 179.841 10.174 180.027 10.3207C180.214 10.454 180.294 10.574 180.267 10.6807C180.214 10.8807 180.181 11.0874 180.167 11.3007C180.154 11.5007 180.141 11.7407 180.127 12.0207L180.067 14.0807C180.574 14.0674 181.081 14.054 181.587 14.0407C182.107 14.0274 182.627 14.0074 183.147 13.9807C184.014 13.954 184.807 13.894 185.527 13.8007C186.247 13.7074 186.754 13.6074 187.047 13.5007C187.194 13.4607 187.307 13.4607 187.387 13.5007C187.467 13.5274 187.547 13.594 187.627 13.7007C187.707 13.8074 187.787 13.9474 187.867 14.1207C187.961 14.2807 188.007 14.414 188.007 14.5207C188.007 14.614 187.961 14.694 187.867 14.7607C187.774 14.8274 187.701 14.8607 187.647 14.8607C187.034 14.8074 186.341 14.7807 185.567 14.7807C184.807 14.7674 184.114 14.7607 183.487 14.7607C182.687 14.774 181.821 14.794 180.887 14.8207C179.954 14.834 179.034 14.8474 178.127 14.8607C177.234 14.874 176.421 14.9007 175.687 14.9407C175.101 14.9674 174.587 15.0074 174.147 15.0607C173.707 15.114 173.294 15.1807 172.907 15.2607ZM194.675 18.8207C194.022 18.4474 193.442 17.9274 192.935 17.2607C192.429 16.6074 192.002 15.854 191.655 15.0007C191.322 14.1474 191.062 13.2474 190.875 12.3007C190.702 11.3407 190.615 10.3807 190.615 9.4207C190.615 8.4607 190.702 7.50737 190.875 6.5607C191.062 5.6007 191.322 4.69404 191.655 3.8407C192.002 2.98737 192.429 2.23404 192.935 1.5807C193.442 0.914036 194.022 0.394036 194.675 0.0207028L195.015 0.520702C194.469 0.934036 193.955 1.55404 193.475 2.3807C192.995 3.19404 192.602 4.19404 192.295 5.3807C192.002 6.55404 191.855 7.9007 191.855 9.4207C191.855 10.9274 192.002 12.274 192.295 13.4607C192.602 14.6474 192.995 15.654 193.475 16.4807C193.955 17.294 194.469 17.9074 195.015 18.3207L194.675 18.8207ZM200.443 11.2007C200.35 11.2007 200.263 11.1807 200.183 11.1407C200.103 11.0874 200.063 10.9874 200.063 10.8407C200.063 10.7607 200.07 10.5007 200.083 10.0607C200.096 9.60737 200.116 9.0407 200.143 8.3607C200.17 7.66737 200.19 6.9207 200.203 6.1207C200.216 5.30737 200.223 4.5007 200.223 3.7007C200.223 3.11404 200.216 2.65404 200.203 2.3207C200.19 1.98737 200.17 1.72737 200.143 1.5407C200.116 1.35404 200.07 1.2007 200.003 1.0807C199.963 0.987369 199.97 0.914036 200.023 0.860703C200.076 0.807369 200.156 0.800702 200.263 0.840702C200.343 0.880702 200.476 0.954036 200.663 1.0607C200.85 1.16737 201.043 1.27404 201.243 1.3807C201.456 1.48737 201.623 1.57404 201.743 1.6407H211.183C211.276 1.6407 211.35 1.61404 211.403 1.5607C211.47 1.49404 211.583 1.37404 211.743 1.2007C211.916 1.01404 212.03 0.894035 212.083 0.840702C212.19 0.720702 212.323 0.727369 212.483 0.860703C212.563 0.914036 212.676 1.01404 212.823 1.1607C212.983 1.30737 213.136 1.45404 213.283 1.6007C213.443 1.73404 213.556 1.83404 213.623 1.9007C213.703 1.95404 213.736 2.0207 213.723 2.1007C213.723 2.16737 213.67 2.22737 213.563 2.2807C213.35 2.4007 213.15 2.5007 212.963 2.5807C212.91 2.60737 212.87 2.6407 212.843 2.6807C212.816 2.7207 212.803 2.80737 212.803 2.9407C212.803 3.80737 212.81 4.68737 212.823 5.5807C212.836 6.47404 212.856 7.3007 212.883 8.0607C212.91 8.8207 212.93 9.44737 212.943 9.9407C212.956 10.4207 212.963 10.6807 212.963 10.7207C212.963 10.814 212.85 10.9207 212.623 11.0407C212.41 11.1474 212.176 11.2007 211.923 11.2007C211.656 11.2007 211.523 11.094 211.523 10.8807V10.1407H201.483V10.7407C201.483 10.834 201.376 10.934 201.163 11.0407C200.963 11.1474 200.723 11.2007 200.443 11.2007ZM203.743 18.0807C203.383 18.0407 203.083 17.9607 202.843 17.8407C202.616 17.734 202.503 17.4607 202.503 17.0207V13.3207C202.503 12.8274 202.456 12.514 202.363 12.3807C202.31 12.3007 202.31 12.234 202.363 12.1807C202.416 12.1274 202.483 12.1074 202.563 12.1207C202.71 12.1474 202.896 12.1874 203.123 12.2407C203.363 12.2807 203.603 12.3274 203.843 12.3807C204.083 12.4207 204.276 12.4607 204.423 12.5007C204.53 12.5407 204.583 12.6207 204.583 12.7407C204.57 12.8607 204.496 12.934 204.363 12.9607C204.216 12.974 204.07 13.0007 203.923 13.0407C203.79 13.0807 203.723 13.2007 203.723 13.4007V16.4607C203.723 16.594 203.75 16.7007 203.803 16.7807C203.856 16.8474 203.97 16.894 204.143 16.9207C204.29 16.934 204.55 16.9474 204.923 16.9607C205.31 16.974 205.743 16.9807 206.223 16.9807C206.716 16.9807 207.196 16.9674 207.663 16.9407C208.143 16.9007 208.55 16.8474 208.883 16.7807C209.096 16.7407 209.263 16.6474 209.383 16.5007C209.463 16.394 209.556 16.1807 209.663 15.8607C209.783 15.5274 209.903 15.1674 210.023 14.7807C210.143 14.394 210.243 14.0474 210.323 13.7407C210.416 13.434 210.47 13.2474 210.483 13.1807C210.55 13.1274 210.623 13.1074 210.703 13.1207C210.783 13.134 210.843 13.174 210.883 13.2407C210.883 13.294 210.87 13.4674 210.843 13.7607C210.816 14.054 210.783 14.3807 210.743 14.7407C210.703 15.1007 210.67 15.4207 210.643 15.7007C210.616 15.9807 210.603 16.1474 210.603 16.2007C210.603 16.294 210.636 16.374 210.703 16.4407C210.77 16.494 210.836 16.534 210.903 16.5607C211.063 16.614 211.19 16.6874 211.283 16.7807C211.376 16.8607 211.423 16.9807 211.423 17.1407C211.423 17.514 211.09 17.7674 210.423 17.9007C209.983 17.9807 209.436 18.0407 208.783 18.0807C208.143 18.134 207.483 18.1607 206.803 18.1607C206.123 18.174 205.503 18.1674 204.943 18.1407C204.396 18.1274 203.996 18.1074 203.743 18.0807ZM201.483 9.5407H205.943V6.1207H201.483V9.5407ZM207.183 9.5407H211.523V6.1207H207.183V9.5407ZM201.483 5.5207H205.943V2.2607H201.483V5.5207ZM207.183 5.5207H211.523V2.2607H207.183V5.5207ZM215.003 17.1007C214.843 17.154 214.696 17.154 214.563 17.1007C214.43 17.034 214.33 16.8607 214.263 16.5807C214.09 15.954 213.816 15.294 213.443 14.6007C213.07 13.894 212.57 13.2807 211.943 12.7607C211.903 12.5607 211.976 12.4474 212.163 12.4207C212.99 12.7674 213.71 13.2007 214.323 13.7207C214.95 14.2407 215.356 14.794 215.543 15.3807C215.663 15.754 215.67 16.1074 215.563 16.4407C215.47 16.774 215.283 16.994 215.003 17.1007ZM198.403 18.0207C198.07 18.074 197.823 18.014 197.663 17.8407C197.516 17.6807 197.463 17.4807 197.503 17.2407C197.543 17.014 197.67 16.834 197.883 16.7007C198.416 16.3674 198.863 15.8607 199.223 15.1807C199.583 14.4874 199.79 13.714 199.843 12.8607C199.91 12.794 199.976 12.7674 200.043 12.7807C200.123 12.7807 200.19 12.814 200.243 12.8807C200.323 13.454 200.35 14.034 200.323 14.6207C200.31 15.194 200.23 15.7274 200.083 16.2207C199.936 16.714 199.723 17.1207 199.443 17.4407C199.176 17.7607 198.83 17.954 198.403 18.0207ZM208.163 14.6207C207.83 14.794 207.596 14.674 207.463 14.2607C207.25 13.6874 206.943 13.1207 206.543 12.5607C206.156 12.0007 205.71 11.5407 205.203 11.1807C205.136 10.9807 205.196 10.854 205.383 10.8007C206.103 11.0274 206.75 11.3607 207.323 11.8007C207.896 12.2274 208.276 12.654 208.463 13.0807C208.623 13.414 208.67 13.7274 208.603 14.0207C208.536 14.314 208.39 14.514 208.163 14.6207ZM225.723 18.6607C225.443 18.6607 225.303 18.5474 225.303 18.3207C225.303 18.2674 225.303 18.1007 225.303 17.8207C225.316 17.554 225.33 17.2207 225.343 16.8207C225.356 16.4207 225.37 16.0207 225.383 15.6207C225.396 15.2074 225.403 14.8474 225.403 14.5407H222.423C222.423 14.5407 222.31 14.5474 222.083 14.5607C221.87 14.5607 221.63 14.5874 221.363 14.6407L221.203 13.7807C221.536 13.8607 221.823 13.9074 222.063 13.9207C222.303 13.934 222.423 13.9407 222.423 13.9407H225.403V11.9207H224.163V12.5007C224.163 12.594 224.076 12.6874 223.903 12.7807C223.743 12.8607 223.55 12.9007 223.323 12.9007C223.23 12.9007 223.143 12.8807 223.063 12.8407C222.996 12.7874 222.963 12.694 222.963 12.5607C222.963 12.4807 222.963 12.274 222.963 11.9407C222.976 11.594 222.99 11.174 223.003 10.6807C223.016 10.174 223.023 9.62737 223.023 9.0407C223.036 8.45404 223.043 7.87404 223.043 7.3007C223.043 6.6607 223.03 6.20737 223.003 5.9407C222.99 5.67404 222.95 5.46737 222.883 5.3207C222.843 5.22737 222.85 5.1607 222.903 5.1207C222.97 5.05404 223.05 5.04737 223.143 5.1007C223.25 5.15404 223.43 5.25404 223.683 5.4007C223.95 5.54737 224.17 5.67404 224.343 5.7807H225.403V3.8607H223.423C223.423 3.8607 223.31 3.86737 223.083 3.8807C222.87 3.8807 222.63 3.90737 222.363 3.9607L222.203 3.1007C222.536 3.1807 222.823 3.22737 223.063 3.2407C223.303 3.25404 223.423 3.2607 223.423 3.2607H225.403V1.7807C225.403 1.28737 225.356 0.974036 225.263 0.840702C225.21 0.760702 225.21 0.687369 225.263 0.620702C225.303 0.580702 225.37 0.567369 225.463 0.580703C225.676 0.620702 225.963 0.680702 226.323 0.760703C226.696 0.840703 226.99 0.914036 227.203 0.980702C227.31 1.0207 227.363 1.1007 227.363 1.2207C227.35 1.35404 227.276 1.4207 227.143 1.4207C226.996 1.43404 226.85 1.46737 226.703 1.5207C226.57 1.5607 226.503 1.6807 226.503 1.8807V3.2607H227.763C227.843 3.2607 227.916 3.22737 227.983 3.1607C228.05 3.0807 228.15 2.96737 228.283 2.8207C228.43 2.67404 228.53 2.56737 228.583 2.5007C228.703 2.36737 228.83 2.3607 228.963 2.4807C229.096 2.57404 229.256 2.71404 229.443 2.9007C229.63 3.07404 229.79 3.2207 229.923 3.3407C230.03 3.44737 230.063 3.5607 230.023 3.6807C229.996 3.8007 229.923 3.8607 229.803 3.8607H226.503V5.7807H227.483C227.576 5.7807 227.65 5.74737 227.703 5.6807C227.756 5.62737 227.823 5.55404 227.903 5.4607C227.996 5.35404 228.07 5.26737 228.123 5.2007C228.19 5.1207 228.25 5.08737 228.303 5.1007C228.356 5.1007 228.43 5.13404 228.523 5.2007C228.67 5.30737 228.843 5.4407 229.043 5.6007C229.243 5.7607 229.403 5.89404 229.523 6.0007C229.696 6.1607 229.67 6.3007 229.443 6.4207C229.39 6.44737 229.33 6.4807 229.263 6.5207C229.196 6.5607 229.13 6.59404 229.063 6.6207C229.01 6.64737 228.97 6.6807 228.943 6.7207C228.916 6.7607 228.903 6.84737 228.903 6.9807C228.903 7.7807 228.91 8.5607 228.923 9.3207C228.936 10.0674 228.95 10.7007 228.963 11.2207C228.976 11.7407 228.983 12.054 228.983 12.1607C228.983 12.2674 228.89 12.3674 228.703 12.4607C228.53 12.554 228.343 12.6007 228.143 12.6007C227.89 12.6007 227.763 12.5007 227.763 12.3007V11.9207H226.503V13.9407H228.143C228.236 13.9407 228.31 13.9074 228.363 13.8407C228.43 13.7607 228.53 13.6474 228.663 13.5007C228.81 13.354 228.916 13.2474 228.983 13.1807C229.103 13.0607 229.23 13.054 229.363 13.1607C229.47 13.254 229.603 13.374 229.763 13.5207C229.936 13.6674 230.09 13.8074 230.223 13.9407C230.37 13.3274 230.47 12.634 230.523 11.8607C230.59 11.074 230.623 10.174 230.623 9.1607V4.0607C230.623 3.4207 230.603 2.87404 230.563 2.4207C230.536 1.96737 230.47 1.61404 230.363 1.3607C230.336 1.2807 230.35 1.21404 230.403 1.1607C230.456 1.10737 230.53 1.1007 230.623 1.1407C230.77 1.20737 230.976 1.31404 231.243 1.4607C231.523 1.59404 231.756 1.71404 231.943 1.8207H233.443C233.51 1.8207 233.556 1.81404 233.583 1.8007C233.623 1.77404 233.656 1.74737 233.683 1.7207L234.163 1.2607C234.27 1.16737 234.39 1.17404 234.523 1.2807C234.63 1.37404 234.79 1.5207 235.003 1.7207C235.216 1.90737 235.37 2.04737 235.463 2.1407C235.623 2.3007 235.596 2.42737 235.383 2.5207L234.983 2.7207C234.93 2.73404 234.89 2.7607 234.863 2.8007C234.836 2.8407 234.823 2.92737 234.823 3.0607V9.0807C234.823 9.85404 234.823 10.6407 234.823 11.4407C234.836 12.2274 234.85 12.9674 234.863 13.6607C234.876 14.3407 234.883 14.914 234.883 15.3807C234.896 15.834 234.903 16.1207 234.903 16.2407C234.903 16.7474 234.79 17.2074 234.563 17.6207C234.35 18.034 233.89 18.3474 233.183 18.5607C233.05 18.2007 232.91 17.9207 232.763 17.7207C232.63 17.534 232.443 17.3874 232.203 17.2807C231.963 17.1874 231.63 17.1207 231.203 17.0807C231.083 16.9207 231.103 16.7807 231.263 16.6607C231.45 16.674 231.736 16.694 232.123 16.7207C232.51 16.734 232.856 16.7407 233.163 16.7407C233.376 16.7407 233.516 16.7007 233.583 16.6207C233.65 16.5407 233.683 16.414 233.683 16.2407V10.9607H231.703C231.636 12.494 231.416 13.7474 231.043 14.7207C230.67 15.6807 230.183 16.4607 229.583 17.0607C228.996 17.6474 228.323 18.1474 227.563 18.5607C227.363 18.5207 227.283 18.4074 227.323 18.2207C227.99 17.7274 228.55 17.2007 229.003 16.6407C229.456 16.0807 229.81 15.3807 230.063 14.5407H226.503C226.503 14.8474 226.51 15.2007 226.523 15.6007C226.536 15.9874 226.543 16.3674 226.543 16.7407C226.556 17.1007 226.563 17.414 226.563 17.6807C226.576 17.9474 226.583 18.114 226.583 18.1807C226.583 18.3007 226.503 18.4074 226.343 18.5007C226.183 18.6074 225.976 18.6607 225.723 18.6607ZM220.123 18.6607C219.776 18.7007 219.543 18.6474 219.423 18.5007C219.316 18.3674 219.263 18.1607 219.263 17.8807C219.263 17.814 219.263 17.734 219.263 17.6407C219.276 17.5607 219.283 17.4674 219.283 17.3607C219.296 17.014 219.303 16.6007 219.303 16.1207C219.316 15.6407 219.276 15.1674 219.183 14.7007C219.103 14.2474 218.943 13.9674 218.703 13.8607C218.476 13.7407 218.116 13.634 217.623 13.5407C217.53 13.3407 217.556 13.2007 217.703 13.1207C218.076 13.1607 218.363 13.1607 218.563 13.1207C218.763 13.0807 218.95 12.9674 219.123 12.7807C219.31 12.5807 219.523 12.234 219.763 11.7407C220.016 11.2474 220.27 10.6874 220.523 10.0607C220.79 9.4207 221.036 8.79404 221.263 8.1807C221.503 7.56737 221.703 7.0407 221.863 6.6007C222.023 6.14737 222.123 5.87404 222.163 5.7807C222.336 5.7007 222.47 5.7407 222.563 5.9007C222.536 5.9807 222.456 6.21404 222.323 6.6007C222.203 6.97404 222.05 7.4407 221.863 8.0007C221.69 8.54737 221.503 9.13404 221.303 9.7607C221.103 10.3874 220.91 10.994 220.723 11.5807C220.536 12.154 220.383 12.654 220.263 13.0807C220.143 13.494 220.076 13.774 220.063 13.9207C220.01 14.3607 220.05 14.8207 220.183 15.3007C220.33 15.7674 220.483 16.2007 220.643 16.6007C220.723 16.8007 220.79 16.994 220.843 17.1807C220.91 17.354 220.956 17.5074 220.983 17.6407C221.036 17.934 221.003 18.1607 220.883 18.3207C220.763 18.494 220.51 18.6074 220.123 18.6607ZM224.163 8.5807H227.763V6.3807H224.163V8.5807ZM224.163 11.3207H227.763V9.1807H224.163V11.3207ZM231.723 10.3607H233.683V6.5807H231.723V10.3607ZM231.723 5.9807H233.683V2.4207H231.723V5.9807ZM221.363 4.3007C221.243 4.39404 221.116 4.42737 220.983 4.4007C220.863 4.37404 220.75 4.25404 220.643 4.0407C220.363 3.49404 220.023 3.0007 219.623 2.5607C219.236 2.10737 218.83 1.75404 218.403 1.5007C218.35 1.31404 218.416 1.19404 218.603 1.1407C219.096 1.3007 219.603 1.50737 220.123 1.7607C220.643 2.01404 221.05 2.35404 221.343 2.7807C221.57 3.08737 221.663 3.39404 221.623 3.7007C221.596 3.99404 221.51 4.19404 221.363 4.3007ZM219.983 8.6607C219.85 8.71404 219.73 8.71404 219.623 8.6607C219.516 8.60737 219.41 8.47404 219.303 8.2607C219.13 7.88737 218.883 7.4807 218.563 7.0407C218.243 6.6007 217.876 6.23404 217.463 5.9407C217.41 5.7407 217.476 5.6207 217.663 5.5807C218.17 5.75404 218.663 5.97404 219.143 6.2407C219.636 6.50737 219.99 6.83404 220.203 7.2207C220.39 7.56737 220.443 7.8807 220.363 8.1607C220.296 8.42737 220.17 8.59404 219.983 8.6607ZM238.563 18.8207L238.223 18.3207C238.77 17.9074 239.283 17.294 239.763 16.4807C240.243 15.654 240.63 14.6474 240.923 13.4607C241.23 12.274 241.383 10.9274 241.383 9.4207C241.383 7.9007 241.23 6.55404 240.923 5.3807C240.63 4.19404 240.243 3.19404 239.763 2.3807C239.283 1.55404 238.77 0.934036 238.223 0.520702L238.563 0.0207028C239.216 0.394036 239.796 0.914036 240.303 1.5807C240.81 2.23404 241.23 2.98737 241.563 3.8407C241.91 4.69404 242.17 5.6007 242.343 6.5607C242.53 7.50737 242.623 8.4607 242.623 9.4207C242.623 10.3807 242.53 11.3407 242.343 12.3007C242.17 13.2474 241.91 14.1474 241.563 15.0007C241.23 15.854 240.81 16.6074 240.303 17.2607C239.796 17.9274 239.216 18.4474 238.563 18.8207ZM257.931 17.6607C257.784 17.6607 257.704 17.594 257.691 17.4607C257.678 17.354 257.658 17.1607 257.631 16.8807C257.618 16.5874 257.604 16.274 257.591 15.9407C257.578 15.594 257.571 15.294 257.571 15.0407V2.7807C257.571 2.36737 257.551 2.04737 257.511 1.8207C257.484 1.59404 257.398 1.40737 257.251 1.2607C257.118 1.1007 256.878 0.934036 256.531 0.760703C256.424 0.694035 256.371 0.627368 256.371 0.560702C256.371 0.494035 256.418 0.407369 256.511 0.300703C256.604 0.180703 256.704 0.120703 256.811 0.120703C256.971 0.120703 257.171 0.160703 257.411 0.240702C257.651 0.320702 257.884 0.414035 258.111 0.520702C258.338 0.614035 258.504 0.700702 258.611 0.780703C258.771 0.900703 258.844 1.03404 258.831 1.1807C258.791 1.4607 258.758 1.7207 258.731 1.9607C258.718 2.2007 258.711 2.4807 258.711 2.8007V8.2607C259.418 8.2607 260.038 8.20737 260.571 8.1007C261.118 7.9807 261.498 7.88737 261.711 7.8207C261.858 7.76737 261.964 7.7607 262.031 7.8007C262.098 7.8407 262.158 7.9007 262.211 7.9807C262.278 8.07404 262.344 8.21404 262.411 8.4007C262.491 8.58737 262.531 8.72737 262.531 8.8207C262.531 8.9007 262.484 8.97404 262.391 9.0407C262.311 9.10737 262.251 9.1407 262.211 9.1407C261.718 9.07404 261.204 9.0407 260.671 9.0407C260.151 9.02737 259.624 9.0207 259.091 9.0207C259.024 9.0207 258.958 9.0207 258.891 9.0207C258.838 9.0207 258.778 9.0207 258.711 9.0207V15.0007C258.711 15.214 258.698 15.474 258.671 15.7807C258.658 16.074 258.624 16.3674 258.571 16.6607C258.518 16.9407 258.438 17.174 258.331 17.3607C258.238 17.5607 258.104 17.6607 257.931 17.6607ZM246.151 14.0607C245.978 14.1407 245.811 14.1607 245.651 14.1207C245.491 14.0674 245.391 13.9874 245.351 13.8807C245.311 13.7607 245.391 13.6474 245.591 13.5407C246.404 13.0607 247.211 12.474 248.011 11.7807C248.811 11.074 249.558 10.3007 250.251 9.4607C250.944 8.60737 251.538 7.71404 252.031 6.7807C252.524 5.84737 252.871 4.9007 253.071 3.9407C253.098 3.80737 253.071 3.73404 252.991 3.7207C252.911 3.69404 252.858 3.6807 252.831 3.6807C252.618 3.6807 252.324 3.69404 251.951 3.7207C251.578 3.73404 251.204 3.75404 250.831 3.7807C250.471 3.79404 250.184 3.81404 249.971 3.8407C249.384 3.89404 248.918 3.93404 248.571 3.9607C248.224 3.98737 247.851 4.0407 247.451 4.1207C247.238 4.1607 247.084 4.16737 246.991 4.1407C246.911 4.11404 246.818 4.04737 246.711 3.9407C246.431 3.6607 246.238 3.42737 246.131 3.2407C246.091 3.17404 246.104 3.08737 246.171 2.9807C246.238 2.87404 246.311 2.83404 246.391 2.8607C246.778 2.9407 247.291 3.0007 247.931 3.0407C248.571 3.06737 249.204 3.0607 249.831 3.0207C250.418 2.99404 251.011 2.94737 251.611 2.8807C252.224 2.8007 252.704 2.69404 253.051 2.5607C253.064 2.5607 253.084 2.55404 253.111 2.5407C253.138 2.5407 253.171 2.5407 253.211 2.5407C253.251 2.52737 253.298 2.53404 253.351 2.5607L254.611 2.9607C254.664 2.98737 254.704 3.03404 254.731 3.1007C254.758 3.16737 254.751 3.2407 254.711 3.3207L254.311 4.4407C253.991 5.4007 253.544 6.3607 252.971 7.3207C252.398 8.2807 251.738 9.19404 250.991 10.0607C250.258 10.9274 249.471 11.7074 248.631 12.4007C247.804 13.0807 246.978 13.634 246.151 14.0607ZM66.6234 45.9607C66.5167 46.0007 66.4367 46.0007 66.3834 45.9607C66.3434 45.9074 66.3167 45.8607 66.3034 45.8207C66.2767 45.714 66.25 45.514 66.2234 45.2207C66.1967 44.9274 66.1767 44.6074 66.1634 44.2607C66.1634 43.914 66.1634 43.6074 66.1634 43.3407V39.3407L65.4034 39.3607C64.99 39.3874 64.6034 39.4207 64.2434 39.4607C63.8967 39.4874 63.5234 39.5474 63.1234 39.6407C62.9767 39.6674 62.8567 39.6807 62.7634 39.6807C62.6834 39.6674 62.59 39.6274 62.4834 39.5607C62.3767 39.494 62.2367 39.4007 62.0634 39.2807C61.89 39.1474 61.79 39.0474 61.7634 38.9807C61.7367 38.9007 61.7567 38.8207 61.8234 38.7407C61.89 38.6474 61.97 38.6074 62.0634 38.6207C62.4367 38.674 62.87 38.7074 63.3634 38.7207C63.8567 38.734 64.51 38.714 65.3234 38.6607C65.4834 38.6474 65.63 38.6407 65.7634 38.6407C65.8967 38.6274 66.03 38.6074 66.1634 38.5807V35.4207H66.0034C65.63 35.4474 65.3434 35.474 65.1434 35.5007C64.9434 35.514 64.67 35.5607 64.3234 35.6407C64.1767 35.6674 64.0567 35.6874 63.9634 35.7007C63.8834 35.7007 63.79 35.674 63.6834 35.6207C63.5767 35.5807 63.4434 35.514 63.2834 35.4207C63.1234 35.314 63.0034 35.2207 62.9234 35.1407C62.55 36.0074 62.0634 36.894 61.4634 37.8007C60.8767 38.694 60.1834 39.554 59.3834 40.3807C58.5967 41.194 57.7167 41.9207 56.7434 42.5607C56.5834 42.6674 56.4234 42.714 56.2634 42.7007C56.1034 42.6874 55.9967 42.634 55.9434 42.5407C55.9034 42.4474 55.9834 42.3274 56.1834 42.1807C57.09 41.514 57.9634 40.7007 58.8034 39.7407C59.6434 38.7674 60.3767 37.7074 61.0034 36.5607C61.63 35.414 62.0634 34.2407 62.3034 33.0407C62.33 32.9074 62.3234 32.834 62.2834 32.8207C62.2434 32.794 62.2034 32.7807 62.1634 32.7807C62.15 32.7807 62.1434 32.7807 62.1434 32.7807C61.8367 32.7807 61.5434 32.794 61.2634 32.8207C60.9967 32.834 60.7034 32.854 60.3834 32.8807C60.01 32.9074 59.6967 32.9407 59.4434 32.9807C59.2034 33.0074 58.9767 33.0407 58.7634 33.0807C58.55 33.1074 58.3034 33.1474 58.0234 33.2007C57.81 33.254 57.6634 33.2674 57.5834 33.2407C57.5167 33.214 57.4367 33.1607 57.3434 33.0807C57.33 33.0674 57.3167 33.0607 57.3034 33.0607C57.1834 32.9407 57.0567 32.814 56.9234 32.6807C56.8034 32.5474 56.7234 32.4474 56.6834 32.3807C56.6434 32.314 56.6567 32.234 56.7234 32.1407C56.8034 32.034 56.89 31.994 56.9834 32.0207C57.2634 32.074 57.6567 32.114 58.1634 32.1407C58.6834 32.1674 59.2034 32.1674 59.7234 32.1407C60.3234 32.114 60.8034 32.0807 61.1634 32.0407C61.5367 31.9874 61.8967 31.9007 62.2434 31.7807C62.3234 31.7274 62.4234 31.7274 62.5434 31.7807L63.8034 32.2007C63.8567 32.2274 63.8967 32.2674 63.9234 32.3207C63.9634 32.374 63.9634 32.4474 63.9234 32.5407C63.8034 32.834 63.6834 33.134 63.5634 33.4407C63.4567 33.7474 63.35 34.0474 63.2434 34.3407L63.1034 34.7007C63.41 34.754 63.7634 34.7874 64.1634 34.8007C64.5767 34.8007 65.15 34.774 65.8834 34.7207H66.1634V32.9007C66.1634 32.8474 66.1634 32.8007 66.1634 32.7607C66.1634 32.7207 66.1634 32.674 66.1634 32.6207C66.1634 32.1007 66.13 31.6874 66.0634 31.3807C65.9967 31.0607 65.7567 30.774 65.3434 30.5207C65.1834 30.414 65.15 30.294 65.2434 30.1607C65.3234 30.0274 65.4034 29.9407 65.4834 29.9007C65.5767 29.8607 65.6767 29.8474 65.7834 29.8607C66.0234 29.8874 66.2834 29.994 66.5634 30.1807C66.8567 30.354 67.0434 30.4807 67.1234 30.5607C67.19 30.6274 67.2434 30.694 67.2834 30.7607C67.3367 30.814 67.3567 30.874 67.3434 30.9407C67.3034 31.194 67.2767 31.474 67.2634 31.7807C67.2634 32.074 67.2634 32.3607 67.2634 32.6407C67.2634 32.694 67.2634 32.7474 67.2634 32.8007C67.2634 32.8407 67.2634 32.8807 67.2634 32.9207V43.3007C67.2634 43.5807 67.25 43.9207 67.2234 44.3207C67.1967 44.7207 67.1367 45.0807 67.0434 45.4007C66.95 45.7207 66.81 45.9074 66.6234 45.9607ZM69.7634 46.6407C69.6567 46.6807 69.5767 46.674 69.5234 46.6207C69.4834 46.5807 69.4567 46.5407 69.4434 46.5007C69.4167 46.394 69.39 46.194 69.3634 45.9007C69.3367 45.6074 69.3167 45.2874 69.3034 44.9407C69.3034 44.594 69.3034 44.2874 69.3034 44.0207V31.8007C69.3034 31.774 69.3034 31.7274 69.3034 31.6607C69.3034 31.2874 69.29 30.994 69.2634 30.7807C69.2367 30.5674 69.1567 30.3874 69.0234 30.2407C68.9034 30.0807 68.69 29.9074 68.3834 29.7207C68.25 29.6274 68.2167 29.5074 68.2834 29.3607C68.43 29.1207 68.6167 29.0207 68.8434 29.0607C69.0834 29.1007 69.3434 29.2007 69.6234 29.3607C69.9167 29.5074 70.1367 29.6407 70.2834 29.7607C70.2967 29.774 70.31 29.7874 70.3234 29.8007C70.39 29.854 70.4434 29.914 70.4834 29.9807C70.5234 30.034 70.5367 30.094 70.5234 30.1607C70.4834 30.4407 70.45 30.7074 70.4234 30.9607C70.41 31.214 70.4034 31.5007 70.4034 31.8207V43.9807C70.4034 44.2607 70.39 44.6007 70.3634 45.0007C70.3367 45.4007 70.2767 45.7607 70.1834 46.0807C70.09 46.4007 69.95 46.5874 69.7634 46.6407ZM82.7312 47.9207C81.9312 47.9207 81.2112 47.7807 80.5712 47.5007C79.9445 47.2207 79.4512 46.834 79.0912 46.3407C78.7312 45.8474 78.5512 45.2807 78.5512 44.6407C78.5512 44.014 78.7445 43.454 79.1312 42.9607C79.5178 42.454 80.0378 42.054 80.6912 41.7607C81.3445 41.4674 82.0578 41.3207 82.8312 41.3207C83.6178 41.3207 84.3245 41.4407 84.9512 41.6807C85.5912 41.9207 86.0978 42.274 86.4712 42.7407C86.8578 43.2074 87.0512 43.7807 87.0512 44.4607C87.0512 45.1274 86.8578 45.7207 86.4712 46.2407C86.0978 46.774 85.5845 47.1874 84.9312 47.4807C84.2778 47.774 83.5445 47.9207 82.7312 47.9207ZM82.7712 47.0407C83.6512 47.0407 84.3712 46.814 84.9312 46.3607C85.5045 45.9074 85.7912 45.3007 85.7912 44.5407C85.7912 43.7807 85.5178 43.194 84.9712 42.7807C84.4245 42.354 83.6978 42.1407 82.7912 42.1407C81.8845 42.1407 81.1512 42.3807 80.5912 42.8607C80.0445 43.3274 79.7712 43.914 79.7712 44.6207C79.7712 45.3407 80.0512 45.9207 80.6112 46.3607C81.1712 46.814 81.8912 47.0407 82.7712 47.0407ZM76.4512 36.4007C76.2778 36.454 76.1178 36.454 75.9712 36.4007C75.8378 36.3474 75.7578 36.274 75.7312 36.1807C75.7178 36.0874 75.7912 36.014 75.9512 35.9607C76.8712 35.614 77.7178 35.174 78.4912 34.6407C79.2778 34.094 79.9578 33.534 80.5312 32.9607C81.1178 32.3874 81.5712 31.8807 81.8912 31.4407C82.1312 31.1207 82.2912 30.8007 82.3712 30.4807C82.4512 30.1607 82.3512 29.9074 82.0712 29.7207C81.8978 29.614 81.8712 29.474 81.9912 29.3007C82.1245 29.114 82.2512 29.0274 82.3712 29.0407C82.5045 29.054 82.6312 29.094 82.7512 29.1607C82.8712 29.214 83.0312 29.3074 83.2312 29.4407C83.4312 29.574 83.6045 29.7074 83.7512 29.8407C83.8578 29.934 83.9378 30.034 83.9912 30.1407C84.0445 30.234 84.0512 30.314 84.0112 30.3807C83.8645 30.5674 83.7112 30.7807 83.5512 31.0207C83.4045 31.2474 83.2312 31.494 83.0312 31.7607L82.6912 32.2007C83.1178 32.4007 83.6512 32.6207 84.2912 32.8607C84.9312 33.0874 85.5712 33.294 86.2112 33.4807C86.8645 33.6674 87.4245 33.8007 87.8912 33.8807C88.0778 33.9607 88.2778 34.154 88.4912 34.4607C88.7045 34.754 88.8245 35.034 88.8512 35.3007C88.8378 35.4474 88.7512 35.5874 88.5912 35.7207C88.4312 35.8407 88.3178 35.874 88.2512 35.8207C87.8912 35.5407 87.4245 35.2474 86.8512 34.9407C86.2912 34.6207 85.7045 34.314 85.0912 34.0207C84.4778 33.714 83.9112 33.4474 83.3912 33.2207C82.8845 32.994 82.4978 32.8274 82.2312 32.7207C81.7378 33.254 81.1712 33.7674 80.5312 34.2607C79.9045 34.7407 79.2378 35.1674 78.5312 35.5407C77.8378 35.914 77.1445 36.2007 76.4512 36.4007ZM75.1512 39.7207C75.0178 39.7207 74.8712 39.6607 74.7112 39.5407C74.6445 39.4874 74.5445 39.4074 74.4112 39.3007C74.2912 39.1807 74.1778 39.0674 74.0712 38.9607C73.9645 38.8407 73.8978 38.7607 73.8712 38.7207C73.8445 38.654 73.8578 38.5674 73.9112 38.4607C73.9778 38.354 74.0578 38.3007 74.1512 38.3007C74.5378 38.3674 74.9978 38.4274 75.5312 38.4807C76.0778 38.5207 76.7578 38.5407 77.5712 38.5407C78.0645 38.5407 78.6845 38.534 79.4312 38.5207C80.1912 38.494 80.9978 38.4674 81.8512 38.4407C82.7178 38.414 83.5578 38.3874 84.3712 38.3607C85.1978 38.3207 85.9245 38.2807 86.5512 38.2407C86.8978 38.214 87.2912 38.1874 87.7312 38.1607C88.1845 38.1207 88.6112 38.074 89.0112 38.0207C89.4112 37.9674 89.7112 37.9207 89.9112 37.8807C90.1378 37.8274 90.2912 37.7874 90.3712 37.7607C90.4645 37.734 90.5445 37.7207 90.6112 37.7207C90.7045 37.7207 90.8112 37.8007 90.9312 37.9607C90.9978 38.0674 91.0645 38.194 91.1312 38.3407C91.2112 38.474 91.2512 38.5874 91.2512 38.6807C91.2512 38.8007 91.1978 38.894 91.0912 38.9607C90.9978 39.0274 90.9378 39.0607 90.9112 39.0607C90.6845 39.034 90.4178 39.0207 90.1112 39.0207C89.8045 39.0074 89.5045 39.0007 89.2112 39.0007C88.9312 38.9874 88.6978 38.9807 88.5112 38.9807C88.1912 38.9807 87.7512 38.9874 87.1912 39.0007C86.6445 39.014 86.0312 39.034 85.3512 39.0607C84.6712 39.074 83.9778 39.094 83.2712 39.1207C82.5645 39.1474 81.8845 39.174 81.2312 39.2007C80.5912 39.2274 80.0312 39.254 79.5512 39.2807C79.0845 39.294 78.7445 39.3074 78.5312 39.3207C78.1312 39.334 77.7245 39.3674 77.3112 39.4207C76.8978 39.4607 76.5245 39.5074 76.1912 39.5607C75.8712 39.6007 75.6512 39.634 75.5312 39.6607C75.4778 39.674 75.4178 39.6874 75.3512 39.7007C75.2845 39.714 75.2178 39.7207 75.1512 39.7207ZM94.9104 42.5007C94.6437 42.5674 94.4437 42.594 94.3104 42.5807C94.1771 42.5674 94.0237 42.514 93.8504 42.4207C93.7171 42.3407 93.5237 42.2207 93.2704 42.0607C93.0304 41.8874 92.8971 41.754 92.8704 41.6607C92.8304 41.5807 92.8437 41.4874 92.9104 41.3807C92.9771 41.2607 93.0571 41.2007 93.1504 41.2007C93.6304 41.254 94.1571 41.2874 94.7304 41.3007C95.3037 41.314 95.8171 41.314 96.2704 41.3007C96.6571 41.3007 97.0437 41.294 97.4304 41.2807C97.8171 41.254 98.1904 41.2274 98.5504 41.2007L98.5104 37.6607C98.1904 37.674 97.9171 37.694 97.6904 37.7207C97.4637 37.734 97.2237 37.7474 96.9704 37.7607C96.7171 37.774 96.3904 37.7807 95.9904 37.7807C95.3904 37.7807 95.0904 37.3474 95.0904 36.4807V33.6007C95.0904 33.174 95.0304 32.834 94.9104 32.5807C94.7904 32.3274 94.5437 32.1074 94.1704 31.9207C94.0371 31.854 94.0037 31.7474 94.0704 31.6007C94.1637 31.3474 94.3437 31.234 94.6104 31.2607C94.7304 31.2874 94.9037 31.334 95.1304 31.4007C95.3704 31.454 95.5837 31.514 95.7704 31.5807C96.1571 31.594 96.6637 31.6007 97.2904 31.6007C97.9304 31.5874 98.5904 31.5674 99.2704 31.5407C99.9504 31.514 100.57 31.4674 101.13 31.4007C101.704 31.334 102.124 31.2474 102.39 31.1407C102.55 31.0874 102.664 31.074 102.73 31.1007C102.81 31.1274 102.884 31.1874 102.95 31.2807C103.004 31.3474 103.07 31.4474 103.15 31.5807C103.23 31.7007 103.27 31.8007 103.27 31.8807C103.27 31.974 103.23 32.0607 103.15 32.1407C103.084 32.2074 103.024 32.2407 102.97 32.2407C102.624 32.2274 102.177 32.2207 101.63 32.2207C101.084 32.2207 100.484 32.2274 99.8304 32.2407C99.1904 32.254 98.5504 32.274 97.9104 32.3007C97.2837 32.3274 96.7171 32.3607 96.2104 32.4007V36.3407C96.2104 36.6074 96.2437 36.7874 96.3104 36.8807C96.3771 36.974 96.5437 37.0207 96.8104 37.0207C96.9171 37.0207 97.2504 37.0207 97.8104 37.0207C98.3837 37.0074 99.0437 36.9807 99.7904 36.9407C100.47 36.914 101.07 36.8607 101.59 36.7807C102.124 36.6874 102.497 36.6074 102.71 36.5407C102.884 36.4874 103.01 36.4674 103.09 36.4807C103.17 36.4807 103.25 36.534 103.33 36.6407C103.41 36.7207 103.47 36.8074 103.51 36.9007C103.564 36.994 103.604 37.094 103.63 37.2007C103.657 37.294 103.617 37.3874 103.51 37.4807C103.404 37.5607 103.324 37.6007 103.27 37.6007C102.657 37.574 102.097 37.5674 101.59 37.5807C101.084 37.594 100.484 37.614 99.7904 37.6407C99.7237 37.6407 99.6771 37.6407 99.6504 37.6407L99.5104 41.1207C100.964 40.9874 102.177 40.8274 103.15 40.6407C104.137 40.4407 104.797 40.294 105.13 40.2007C105.304 40.1474 105.417 40.1674 105.47 40.2607C105.524 40.354 105.524 40.4674 105.47 40.6007C105.417 40.734 105.304 40.8274 105.13 40.8807C104.837 40.9607 104.344 41.074 103.65 41.2207C102.957 41.3674 102.13 41.514 101.17 41.6607C100.224 41.8074 99.2037 41.934 98.1104 42.0407C97.7637 42.0674 97.3837 42.1074 96.9704 42.1607C96.5704 42.2007 96.1837 42.2474 95.8104 42.3007C95.4504 42.354 95.1504 42.4207 94.9104 42.5007ZM106.43 46.6407C106.337 46.6807 106.264 46.6807 106.21 46.6407C106.157 46.6007 106.124 46.554 106.11 46.5007C106.084 46.394 106.057 46.194 106.03 45.9007C106.004 45.6074 105.984 45.2874 105.97 44.9407C105.97 44.594 105.97 44.294 105.97 44.0407V31.8007C105.97 31.3874 105.95 31.0674 105.91 30.8407C105.884 30.614 105.797 30.4274 105.65 30.2807C105.517 30.1207 105.277 29.954 104.93 29.7807C104.77 29.7007 104.737 29.5807 104.83 29.4207C104.91 29.2874 104.99 29.2074 105.07 29.1807C105.15 29.1407 105.25 29.1274 105.37 29.1407C105.53 29.154 105.717 29.2074 105.93 29.3007C106.157 29.3807 106.37 29.4674 106.57 29.5607C106.77 29.654 106.917 29.734 107.01 29.8007C107.17 29.9207 107.244 30.054 107.23 30.2007C107.19 30.4807 107.157 30.7407 107.13 30.9807C107.117 31.2207 107.11 31.5007 107.11 31.8207V44.0007C107.11 44.2674 107.09 44.6007 107.05 45.0007C107.024 45.3874 106.957 45.7474 106.85 46.0807C106.757 46.4007 106.617 46.5874 106.43 46.6407ZM115.288 39.8807C114.528 39.894 113.835 39.7407 113.208 39.4207C112.581 39.1007 112.081 38.6474 111.708 38.0607C111.335 37.4607 111.148 36.7807 111.148 36.0207C111.148 35.274 111.335 34.6074 111.708 34.0207C112.081 33.4207 112.581 32.9407 113.208 32.5807C113.848 32.2207 114.548 32.034 115.308 32.0207C116.081 31.994 116.781 32.134 117.408 32.4407C118.035 32.734 118.535 33.1674 118.908 33.7407C119.281 34.314 119.468 35.014 119.468 35.8407C119.468 36.6007 119.281 37.2874 118.908 37.9007C118.535 38.5007 118.028 38.974 117.388 39.3207C116.761 39.6674 116.061 39.854 115.288 39.8807ZM115.328 38.8807C115.875 38.854 116.368 38.714 116.808 38.4607C117.248 38.194 117.595 37.8407 117.848 37.4007C118.115 36.9474 118.248 36.434 118.248 35.8607C118.248 35.234 118.115 34.7007 117.848 34.2607C117.581 33.8074 117.228 33.4674 116.788 33.2407C116.348 33.0007 115.855 32.894 115.308 32.9207C114.775 32.934 114.281 33.074 113.828 33.3407C113.388 33.6074 113.028 33.9674 112.748 34.4207C112.481 34.874 112.348 35.4007 112.348 36.0007C112.348 36.6007 112.481 37.1274 112.748 37.5807C113.028 38.0207 113.395 38.354 113.848 38.5807C114.301 38.8074 114.795 38.9074 115.328 38.8807ZM124.048 46.6607C123.901 46.6607 123.821 46.594 123.808 46.4607C123.795 46.354 123.775 46.1607 123.748 45.8807C123.735 45.5874 123.721 45.274 123.708 44.9407C123.695 44.594 123.688 44.294 123.688 44.0407V36.0607L123.088 36.0807C122.795 36.094 122.495 36.1207 122.188 36.1607C121.881 36.2007 121.555 36.274 121.208 36.3807C120.995 36.4474 120.775 36.434 120.548 36.3407C120.441 36.2874 120.288 36.1874 120.088 36.0407C119.888 35.894 119.775 35.7874 119.748 35.7207C119.735 35.6807 119.761 35.594 119.828 35.4607C119.895 35.3274 119.968 35.2674 120.048 35.2807C120.448 35.3474 120.955 35.3807 121.568 35.3807C121.888 35.3807 122.235 35.374 122.608 35.3607C122.995 35.334 123.355 35.314 123.688 35.3007V31.7807C123.688 31.3674 123.668 31.0474 123.628 30.8207C123.601 30.594 123.515 30.4074 123.368 30.2607C123.235 30.1007 122.995 29.934 122.648 29.7607C122.541 29.694 122.488 29.6274 122.488 29.5607C122.488 29.494 122.535 29.4074 122.628 29.3007C122.721 29.1807 122.821 29.1207 122.928 29.1207C123.088 29.1207 123.288 29.1607 123.528 29.2407C123.768 29.3207 124.001 29.414 124.228 29.5207C124.455 29.614 124.621 29.7007 124.728 29.7807C124.888 29.9007 124.961 30.034 124.948 30.1807C124.908 30.4607 124.875 30.7207 124.848 30.9607C124.835 31.2007 124.828 31.4807 124.828 31.8007V44.0007C124.828 44.214 124.815 44.474 124.788 44.7807C124.775 45.074 124.741 45.3674 124.688 45.6607C124.635 45.9407 124.555 46.174 124.448 46.3607C124.355 46.5607 124.221 46.6607 124.048 46.6607ZM136.117 40.8007C135.89 40.854 135.73 40.874 135.637 40.8607C135.557 40.834 135.45 40.774 135.317 40.6807C135.237 40.6274 135.13 40.5474 134.997 40.4407C134.864 40.334 134.737 40.2274 134.617 40.1207C134.51 40.0007 134.45 39.914 134.437 39.8607C134.424 39.794 134.457 39.7007 134.537 39.5807C134.617 39.4607 134.69 39.414 134.757 39.4407C135.184 39.534 135.697 39.6074 136.297 39.6607C136.897 39.7007 137.55 39.714 138.257 39.7007C138.977 39.6874 139.737 39.6807 140.537 39.6807C141.35 39.6674 142.177 39.654 143.017 39.6407L142.957 36.7207C142.224 36.6807 141.55 36.514 140.937 36.2207C140.324 35.9274 139.837 35.5274 139.477 35.0207C139.117 34.5007 138.937 33.914 138.937 33.2607C138.937 32.594 139.137 31.9874 139.537 31.4407C139.95 30.894 140.497 30.4607 141.177 30.1407C141.87 29.8207 142.624 29.6607 143.437 29.6607C144.25 29.634 144.997 29.754 145.677 30.0207C146.357 30.2874 146.897 30.6807 147.297 31.2007C147.71 31.7207 147.917 32.354 147.917 33.1007C147.917 33.714 147.744 34.274 147.397 34.7807C147.064 35.2874 146.61 35.7074 146.037 36.0407C145.464 36.3607 144.824 36.574 144.117 36.6807L144.017 39.6007C144.524 39.5874 145.024 39.574 145.517 39.5607C146.01 39.534 146.504 39.514 146.997 39.5007C147.864 39.4607 148.657 39.4007 149.377 39.3207C150.11 39.2407 150.63 39.154 150.937 39.0607C151.084 39.0074 151.197 39.0007 151.277 39.0407C151.37 39.0807 151.45 39.1474 151.517 39.2407C151.597 39.3474 151.67 39.474 151.737 39.6207C151.804 39.7674 151.837 39.8874 151.837 39.9807C151.837 40.074 151.79 40.1607 151.697 40.2407C151.604 40.3074 151.537 40.3407 151.497 40.3407C151.004 40.274 150.457 40.2407 149.857 40.2407C149.257 40.2274 148.684 40.2274 148.137 40.2407C147.99 40.2407 147.85 40.2407 147.717 40.2407C147.584 40.2407 147.45 40.2407 147.317 40.2407C146.717 40.254 146.057 40.274 145.337 40.3007C144.617 40.314 143.877 40.334 143.117 40.3607C142.37 40.374 141.65 40.394 140.957 40.4207C140.277 40.434 139.664 40.454 139.117 40.4807C138.517 40.5074 137.964 40.5474 137.457 40.6007C136.964 40.654 136.517 40.7207 136.117 40.8007ZM143.437 35.8807C144.384 35.8407 145.157 35.5807 145.757 35.1007C146.357 34.6074 146.67 33.9407 146.697 33.1007C146.724 32.5007 146.59 32.0074 146.297 31.6207C146.004 31.234 145.604 30.9474 145.097 30.7607C144.604 30.574 144.044 30.4807 143.417 30.4807C142.79 30.4807 142.224 30.6007 141.717 30.8407C141.224 31.0807 140.83 31.4074 140.537 31.8207C140.244 32.234 140.097 32.7074 140.097 33.2407C140.097 33.8274 140.244 34.3207 140.537 34.7207C140.844 35.1207 141.25 35.4207 141.757 35.6207C142.264 35.8074 142.824 35.894 143.437 35.8807ZM140.937 47.3007C139.63 47.3007 138.977 46.694 138.977 45.4807V44.3807C138.977 44.0074 138.924 43.694 138.817 43.4407C138.724 43.174 138.524 42.974 138.217 42.8407C138.137 42.814 138.084 42.7607 138.057 42.6807C138.03 42.6007 138.03 42.5274 138.057 42.4607C138.19 42.234 138.364 42.1274 138.577 42.1407C138.75 42.1674 138.984 42.234 139.277 42.3407C139.57 42.4474 139.817 42.554 140.017 42.6607C140.177 42.754 140.244 42.8674 140.217 43.0007C140.19 43.094 140.164 43.2607 140.137 43.5007C140.124 43.7407 140.117 43.974 140.117 44.2007V45.3807C140.117 45.8474 140.197 46.1407 140.357 46.2607C140.53 46.394 140.757 46.4674 141.037 46.4807C141.17 46.494 141.41 46.5007 141.757 46.5007C142.117 46.5007 142.517 46.494 142.957 46.4807C143.397 46.4674 143.817 46.454 144.217 46.4407C144.63 46.4274 144.964 46.414 145.217 46.4007C145.91 46.3607 146.53 46.294 147.077 46.2007C147.637 46.1074 148.03 46.0274 148.257 45.9607C148.55 45.8674 148.757 45.9074 148.877 46.0807C148.944 46.1874 149.017 46.314 149.097 46.4607C149.177 46.6074 149.224 46.7274 149.237 46.8207C149.25 46.914 149.204 47.0007 149.097 47.0807C149.004 47.174 148.93 47.2207 148.877 47.2207C148.41 47.194 147.99 47.174 147.617 47.1607C147.257 47.1607 146.87 47.1607 146.457 47.1607C146.057 47.174 145.564 47.194 144.977 47.2207C144.297 47.2474 143.617 47.2674 142.937 47.2807C142.257 47.294 141.59 47.3007 140.937 47.3007ZM164.508 38.8007C163.748 38.814 163.048 38.6674 162.408 38.3607C161.781 38.054 161.274 37.6207 160.888 37.0607C160.514 36.4874 160.328 35.8274 160.328 35.0807C160.328 34.374 160.514 33.734 160.888 33.1607C161.274 32.5874 161.781 32.1274 162.408 31.7807C163.048 31.434 163.754 31.254 164.528 31.2407C165.288 31.214 165.981 31.3474 166.608 31.6407C167.248 31.934 167.754 32.3607 168.128 32.9207C168.501 33.4674 168.688 34.134 168.688 34.9207C168.688 35.654 168.494 36.3074 168.108 36.8807C167.734 37.454 167.234 37.914 166.608 38.2607C165.981 38.594 165.281 38.774 164.508 38.8007ZM164.528 37.8807C165.394 37.8407 166.094 37.5674 166.628 37.0607C167.174 36.554 167.448 35.8407 167.448 34.9207C167.448 33.9607 167.174 33.2474 166.628 32.7807C166.081 32.3007 165.374 32.0874 164.508 32.1407C163.641 32.194 162.914 32.4807 162.328 33.0007C161.754 33.5074 161.468 34.194 161.468 35.0607C161.468 35.9807 161.754 36.694 162.328 37.2007C162.914 37.7074 163.648 37.934 164.528 37.8807ZM173.108 42.9607C172.988 42.9607 172.914 42.894 172.888 42.7607C172.861 42.6274 172.834 42.414 172.808 42.1207C172.794 41.8274 172.788 41.5274 172.788 41.2207C172.788 40.914 172.788 40.674 172.788 40.5007V37.4407L171.908 37.4807C171.494 37.494 171.141 37.5274 170.848 37.5807C170.568 37.6207 170.228 37.6874 169.828 37.7807C169.681 37.8074 169.561 37.8207 169.468 37.8207C169.388 37.8074 169.294 37.7674 169.188 37.7007C169.081 37.634 168.941 37.534 168.768 37.4007C168.594 37.2674 168.494 37.1674 168.468 37.1007C168.441 37.0207 168.461 36.934 168.528 36.8407C168.594 36.7474 168.674 36.7074 168.768 36.7207C169.141 36.7874 169.561 36.8274 170.028 36.8407C170.494 36.8407 171.134 36.814 171.948 36.7607L172.788 36.7207V33.0807L171.788 33.1207C171.414 33.134 171.108 33.154 170.868 33.1807C170.628 33.2074 170.334 33.2474 169.988 33.3007C169.854 33.3274 169.741 33.3474 169.648 33.3607C169.554 33.3607 169.454 33.334 169.348 33.2807C169.241 33.2274 169.101 33.1474 168.928 33.0407C168.768 32.934 168.674 32.8474 168.648 32.7807C168.608 32.7007 168.621 32.6074 168.688 32.5007C168.768 32.3807 168.861 32.334 168.968 32.3607C169.274 32.414 169.621 32.454 170.008 32.4807C170.394 32.5074 170.954 32.494 171.688 32.4407L172.788 32.3807V31.7207C172.788 31.3207 172.768 31.0074 172.728 30.7807C172.701 30.554 172.621 30.3607 172.488 30.2007C172.354 30.0407 172.128 29.8674 171.808 29.6807C171.661 29.574 171.628 29.454 171.708 29.3207C171.828 29.1207 171.981 29.0207 172.168 29.0207C172.368 29.0207 172.634 29.094 172.968 29.2407C173.314 29.3874 173.594 29.5274 173.808 29.6607C173.968 29.754 174.041 29.8807 174.028 30.0407C173.988 30.2674 173.961 30.494 173.948 30.7207C173.934 30.9474 173.928 31.2007 173.928 31.4807V40.3607C173.928 40.5474 173.914 40.7874 173.888 41.0807C173.874 41.3607 173.841 41.6474 173.788 41.9407C173.734 42.234 173.654 42.4807 173.548 42.6807C173.441 42.8674 173.294 42.9607 173.108 42.9607ZM167.228 47.2607C166.561 47.2607 166.068 47.0874 165.748 46.7407C165.428 46.394 165.268 45.914 165.268 45.3007V43.9807C165.268 43.554 165.228 43.2274 165.148 43.0007C165.068 42.774 164.854 42.5874 164.508 42.4407C164.428 42.414 164.374 42.3607 164.348 42.2807C164.334 42.2007 164.334 42.1274 164.348 42.0607C164.441 41.794 164.614 41.6807 164.868 41.7207C165.081 41.7474 165.321 41.8207 165.588 41.9407C165.854 42.0474 166.088 42.1607 166.288 42.2807C166.461 42.3874 166.534 42.494 166.508 42.6007C166.494 42.694 166.474 42.8607 166.448 43.1007C166.421 43.3407 166.408 43.574 166.408 43.8007V45.2007C166.408 45.6674 166.488 45.9874 166.648 46.1607C166.821 46.3207 167.048 46.414 167.328 46.4407C167.488 46.454 167.741 46.4607 168.088 46.4607C168.448 46.4607 168.841 46.454 169.268 46.4407C169.694 46.4274 170.108 46.414 170.508 46.4007C170.921 46.3874 171.254 46.374 171.508 46.3607C172.201 46.3207 172.788 46.254 173.268 46.1607C173.761 46.0674 174.121 45.9874 174.348 45.9207C174.641 45.8274 174.848 45.8674 174.968 46.0407C175.034 46.1474 175.108 46.274 175.188 46.4207C175.268 46.5674 175.314 46.6874 175.328 46.7807C175.341 46.874 175.294 46.9607 175.188 47.0407C175.094 47.134 175.021 47.1807 174.968 47.1807C174.501 47.154 174.101 47.134 173.768 47.1207C173.434 47.1207 173.081 47.1207 172.708 47.1207C172.334 47.134 171.854 47.154 171.268 47.1807C170.588 47.2074 169.908 47.2274 169.228 47.2407C168.548 47.254 167.881 47.2607 167.228 47.2607ZM178.725 40.1207C178.592 40.1207 178.445 40.0607 178.285 39.9407C178.219 39.8874 178.119 39.8074 177.985 39.7007C177.865 39.5807 177.752 39.4674 177.645 39.3607C177.539 39.2407 177.472 39.1607 177.445 39.1207C177.419 39.054 177.432 38.9674 177.485 38.8607C177.552 38.754 177.632 38.7007 177.725 38.7007C178.112 38.7674 178.572 38.8274 179.105 38.8807C179.652 38.9207 180.332 38.9407 181.145 38.9407C181.679 38.9407 182.365 38.934 183.205 38.9207C184.045 38.894 184.919 38.8607 185.825 38.8207V37.7607C185.825 37.374 185.792 37.0274 185.725 36.7207C185.659 36.414 185.452 36.1807 185.105 36.0207C185.025 35.9807 184.985 35.9274 184.985 35.8607C184.985 35.7807 185.005 35.7074 185.045 35.6407C185.192 35.4274 185.385 35.354 185.625 35.4207C185.785 35.4607 185.979 35.5274 186.205 35.6207C186.432 35.714 186.612 35.814 186.745 35.9207C186.932 36.054 187.012 36.174 186.985 36.2807C186.959 36.454 186.932 36.654 186.905 36.8807C186.879 37.1074 186.859 37.3607 186.845 37.6407L186.805 38.8007C187.432 38.774 188.025 38.7474 188.585 38.7207C189.159 38.694 189.672 38.6674 190.125 38.6407C190.472 38.614 190.865 38.5874 191.305 38.5607C191.759 38.5207 192.185 38.474 192.585 38.4207C192.985 38.3674 193.285 38.3207 193.485 38.2807C193.712 38.2274 193.865 38.1874 193.945 38.1607C194.039 38.134 194.119 38.1207 194.185 38.1207C194.279 38.1207 194.385 38.2007 194.505 38.3607C194.572 38.4674 194.639 38.594 194.705 38.7407C194.785 38.874 194.825 38.9874 194.825 39.0807C194.825 39.2007 194.772 39.294 194.665 39.3607C194.572 39.4274 194.512 39.4607 194.485 39.4607C194.259 39.434 193.992 39.4207 193.685 39.4207C193.379 39.4074 193.079 39.4007 192.785 39.4007C192.505 39.3874 192.272 39.3807 192.085 39.3807C191.765 39.3807 191.325 39.3874 190.765 39.4007C190.219 39.414 189.605 39.434 188.925 39.4607C188.245 39.474 187.552 39.494 186.845 39.5207C186.139 39.5474 185.459 39.574 184.805 39.6007C184.165 39.6274 183.605 39.654 183.125 39.6807C182.659 39.694 182.319 39.7074 182.105 39.7207C181.705 39.734 181.299 39.7674 180.885 39.8207C180.472 39.8607 180.099 39.9074 179.765 39.9607C179.445 40.0007 179.225 40.034 179.105 40.0607C179.052 40.074 178.992 40.0874 178.925 40.1007C178.859 40.114 178.792 40.1207 178.725 40.1207ZM180.045 36.2207C179.872 36.274 179.712 36.274 179.565 36.2207C179.432 36.154 179.352 36.074 179.325 35.9807C179.312 35.8874 179.385 35.814 179.545 35.7607C180.465 35.4407 181.312 35.0274 182.085 34.5207C182.872 34.014 183.552 33.4874 184.125 32.9407C184.712 32.3807 185.165 31.8807 185.485 31.4407C185.725 31.1207 185.885 30.8007 185.965 30.4807C186.045 30.1607 185.945 29.9074 185.665 29.7207C185.492 29.614 185.465 29.474 185.585 29.3007C185.705 29.1274 185.825 29.0474 185.945 29.0607C186.065 29.0607 186.185 29.0874 186.305 29.1407C186.319 29.154 186.332 29.1607 186.345 29.1607C186.479 29.2007 186.639 29.294 186.825 29.4407C187.025 29.574 187.199 29.7074 187.345 29.8407C187.452 29.934 187.532 30.034 187.585 30.1407C187.639 30.234 187.645 30.314 187.605 30.3807C187.459 30.5674 187.305 30.7807 187.145 31.0207C186.985 31.2474 186.812 31.494 186.625 31.7607C186.599 31.8007 186.565 31.8474 186.525 31.9007C186.499 31.9407 186.465 31.9807 186.425 32.0207C186.852 32.2074 187.372 32.4007 187.985 32.6007C188.599 32.8007 189.212 32.9807 189.825 33.1407C190.439 33.2874 190.959 33.4007 191.385 33.4807C191.572 33.5607 191.765 33.7474 191.965 34.0407C192.179 34.334 192.299 34.6207 192.325 34.9007C192.325 35.034 192.239 35.1674 192.065 35.3007C191.892 35.434 191.779 35.474 191.725 35.4207C191.392 35.154 190.965 34.8807 190.445 34.6007C189.939 34.3074 189.399 34.0274 188.825 33.7607C188.265 33.494 187.732 33.254 187.225 33.0407C186.732 32.8274 186.325 32.654 186.005 32.5207C185.512 33.0674 184.932 33.5874 184.265 34.0807C183.612 34.574 182.919 35.0074 182.185 35.3807C181.465 35.7407 180.752 36.0207 180.045 36.2207ZM190.245 48.1407C190.125 48.1674 190.039 48.1474 189.985 48.0807C189.945 48.0274 189.919 47.9674 189.905 47.9007C189.879 47.674 189.859 47.394 189.845 47.0607C189.845 46.7407 189.845 46.4474 189.845 46.1807V43.0207C189.845 42.8474 189.799 42.7607 189.705 42.7607C189.625 42.7607 189.445 42.7674 189.165 42.7807C188.885 42.7807 188.552 42.7874 188.165 42.8007C187.779 42.814 187.392 42.834 187.005 42.8607C186.632 42.874 186.305 42.8874 186.025 42.9007C185.185 42.9407 184.419 42.9874 183.725 43.0407C183.032 43.0807 182.492 43.134 182.105 43.2007C181.852 43.254 181.639 43.2274 181.465 43.1207C181.359 43.0407 181.219 42.9207 181.045 42.7607C180.872 42.6007 180.772 42.494 180.745 42.4407C180.719 42.3607 180.745 42.2607 180.825 42.1407C180.905 42.0207 180.992 41.974 181.085 42.0007C181.285 42.054 181.645 42.1007 182.165 42.1407C182.685 42.1807 183.279 42.2074 183.945 42.2207C184.612 42.2207 185.272 42.2074 185.925 42.1807C186.859 42.1407 187.652 42.0874 188.305 42.0207C188.959 41.954 189.412 41.8674 189.665 41.7607C189.692 41.7474 189.719 41.734 189.745 41.7207C189.812 41.694 189.879 41.694 189.945 41.7207L191.005 41.9807C191.125 42.0074 191.179 42.1074 191.165 42.2807C191.152 42.3607 191.132 42.5007 191.105 42.7007C191.092 42.8874 191.079 43.0807 191.065 43.2807C191.052 43.4807 191.045 43.6474 191.045 43.7807L191.025 45.8607C191.025 46.1007 190.999 46.3874 190.945 46.7207C190.892 47.0674 190.805 47.3807 190.685 47.6607C190.579 47.9407 190.432 48.1007 190.245 48.1407ZM206.685 47.8607C205.885 47.8607 205.178 47.714 204.565 47.4207C203.965 47.1407 203.491 46.7474 203.145 46.2407C202.798 45.7474 202.625 45.174 202.625 44.5207C202.625 43.8807 202.811 43.3074 203.185 42.8007C203.558 42.2807 204.058 41.874 204.685 41.5807C205.311 41.274 205.998 41.1207 206.745 41.1207C207.505 41.1207 208.191 41.2474 208.805 41.5007C209.431 41.754 209.931 42.1274 210.305 42.6207C210.678 43.114 210.851 43.7207 210.825 44.4407C210.825 45.1074 210.638 45.7007 210.265 46.2207C209.891 46.7407 209.391 47.1407 208.765 47.4207C208.138 47.714 207.445 47.8607 206.685 47.8607ZM206.705 46.9607C207.531 46.9607 208.218 46.7407 208.765 46.3007C209.325 45.8607 209.618 45.234 209.645 44.4207C209.671 43.9007 209.551 43.4607 209.285 43.1007C209.018 42.7274 208.658 42.4474 208.205 42.2607C207.765 42.0607 207.271 41.9607 206.725 41.9607C206.165 41.9607 205.665 42.074 205.225 42.3007C204.785 42.514 204.431 42.814 204.165 43.2007C203.911 43.5874 203.785 44.0207 203.785 44.5007C203.785 45.2607 204.058 45.8607 204.605 46.3007C205.165 46.7407 205.865 46.9607 206.705 46.9607ZM196.725 39.9807C196.591 40.0474 196.451 40.0607 196.305 40.0207C196.171 39.9807 196.078 39.914 196.025 39.8207C195.985 39.714 196.038 39.614 196.185 39.5207C196.691 39.214 197.211 38.8007 197.745 38.2807C198.291 37.7607 198.818 37.1807 199.325 36.5407C199.845 35.9007 200.305 35.2474 200.705 34.5807C201.118 33.914 201.438 33.2807 201.665 32.6807C201.891 32.094 201.971 31.694 201.905 31.4807C201.838 31.2674 201.711 31.1007 201.525 30.9807C201.351 30.874 201.305 30.7407 201.385 30.5807C201.478 30.4074 201.578 30.3074 201.685 30.2807C201.805 30.254 201.945 30.274 202.105 30.3407C202.278 30.394 202.485 30.494 202.725 30.6407C202.965 30.774 203.145 30.8874 203.265 30.9807C203.398 31.074 203.491 31.174 203.545 31.2807C203.598 31.3874 203.611 31.4674 203.585 31.5207C203.505 31.6674 203.425 31.8074 203.345 31.9407C203.265 32.0607 203.178 32.2207 203.085 32.4207C202.991 32.6207 202.858 32.9074 202.685 33.2807C202.578 33.534 202.445 33.794 202.285 34.0607C202.138 34.3274 201.971 34.594 201.785 34.8607C202.558 35.594 203.251 36.154 203.865 36.5407C204.478 36.914 204.998 37.214 205.425 37.4407C205.611 37.5874 205.751 37.8207 205.845 38.1407C205.951 38.4474 205.985 38.7274 205.945 38.9807C205.891 39.1274 205.765 39.2474 205.565 39.3407C205.378 39.434 205.265 39.4474 205.225 39.3807C205.011 39.0607 204.738 38.7207 204.405 38.3607C204.085 37.9874 203.738 37.6207 203.365 37.2607C203.005 36.8874 202.645 36.5474 202.285 36.2407C201.938 35.9207 201.638 35.654 201.385 35.4407C200.945 36.054 200.458 36.6607 199.925 37.2607C199.391 37.8474 198.851 38.3807 198.305 38.8607C197.758 39.3274 197.231 39.7007 196.725 39.9807ZM209.905 40.9007C209.785 40.9007 209.711 40.834 209.685 40.7007C209.658 40.5674 209.631 40.3674 209.605 40.1007C209.591 39.8207 209.585 39.534 209.585 39.2407C209.585 38.9474 209.585 38.714 209.585 38.5407V34.5807L209.245 34.6007C208.738 34.6274 208.331 34.6607 208.025 34.7007C207.731 34.7407 207.478 34.7807 207.265 34.8207C207.051 34.8607 206.811 34.9074 206.545 34.9607C206.398 34.9874 206.278 35.0007 206.185 35.0007C206.105 34.9874 206.011 34.9474 205.905 34.8807C205.811 34.8407 205.665 34.754 205.465 34.6207C205.278 34.474 205.171 34.3674 205.145 34.3007C205.118 34.234 205.145 34.1407 205.225 34.0207C205.305 33.9007 205.391 33.854 205.485 33.8807C205.711 33.9207 206.098 33.954 206.645 33.9807C207.205 34.0074 207.925 33.9874 208.805 33.9207L209.585 33.8607V31.7207C209.585 31.3207 209.565 31.0074 209.525 30.7807C209.498 30.554 209.411 30.3607 209.265 30.2007C209.131 30.0407 208.905 29.8674 208.585 29.6807C208.451 29.5874 208.418 29.4674 208.485 29.3207C208.605 29.1207 208.765 29.0207 208.965 29.0207C209.165 29.0207 209.431 29.094 209.765 29.2407C210.098 29.3874 210.371 29.5274 210.585 29.6607C210.651 29.7007 210.711 29.754 210.765 29.8207C210.818 29.8874 210.838 29.9607 210.825 30.0407C210.785 30.2674 210.758 30.494 210.745 30.7207C210.731 30.9474 210.725 31.2007 210.725 31.4807V38.4007C210.725 38.6007 210.711 38.8407 210.685 39.1207C210.671 39.4007 210.631 39.6807 210.565 39.9607C210.511 40.2274 210.431 40.454 210.325 40.6407C210.218 40.814 210.078 40.9007 209.905 40.9007Z" fill="#014B2E"/>
</svg>
