<svg width="28" height="29" viewBox="0 0 28 29" fill="none" xmlns="http://www.w3.org/2000/svg" xmlns:xlink="http://www.w3.org/1999/xlink">
<rect width="28" height="29" fill="#F5F5F5"/>
<path d="M27.1855 20.9522C27.7081 21.3478 28.0047 21.9661 27.9999 22.6018C27.9951 23.2375 26.9369 24.4442 26.3651 25.0177C25.0306 26.3538 23.612 27.5518 22.024 28.5532C21.7309 28.7386 21.3501 29.0073 21.009 28.9998C18.4985 28.9426 15.1364 27.3192 12.9802 25.8935C8.90936 23.2014 5.45832 19.6074 2.88777 15.3714C1.56886 13.1981 0.0385358 9.74959 9.75403e-05 7.23663C-0.00590843 6.87088 0.266765 6.46782 0.45295 6.15307C1.41631 4.52214 2.56585 3.06661 3.84392 1.69444C4.39647 1.10103 5.54962 0.00503475 6.17784 5.85965e-05C6.80607 -0.00491756 7.39345 0.307336 7.75741 0.8261C8.82648 2.34756 9.78863 3.89763 10.6655 5.54474C11.0163 6.20532 11.3021 6.85347 11.5316 7.55262C11.7129 8.10746 11.6301 8.64613 11.3045 9.11389C11.1412 9.31293 10.9658 9.53437 10.7712 9.70729L9.17723 11.1305C10.4517 15.0778 13.4391 18.1767 17.2625 19.4991L18.6294 17.8446L19.3453 17.1939C19.7766 16.9451 20.2318 16.8891 20.7111 17.0521C21.4727 17.3096 22.1742 17.6542 22.8817 18.0697C24.3759 18.9468 25.7789 19.8835 27.1867 20.9509L27.1855 20.9522Z" fill="#014A2E"/>

</svg>
