<svg width="30" height="31" viewBox="0 0 30 31" fill="none" xmlns="http://www.w3.org/2000/svg" xmlns:xlink="http://www.w3.org/1999/xlink">
<rect width="30" height="31" fill="#F5F5F5"/>
<path d="M27.3698 27.8271C25.7275 29.586 23.4648 30.6158 21.0921 30.6171L8.7591 30.6195C6.3733 30.6195 4.10344 29.5885 2.45991 27.8369C0.876149 26.1455 0 23.8957 0 21.5402V9.08054C0 6.53117 1.02556 4.11558 2.84719 2.39472C4.45247 0.878843 6.55977 0.0012287 8.7603 1.26459e-06H21.0371C23.2819 -0.00122617 25.4299 0.891117 27.0531 2.46591C28.7874 4.14872 29.819 6.49312 29.819 8.96271V21.6568C29.819 23.9558 28.9201 26.1664 27.371 27.8259L27.3698 27.8271ZM28.4611 21.6298V8.98112C28.4611 4.74894 25.0677 1.38332 20.9654 1.387L8.71966 1.39927C4.61024 1.40296 1.35068 4.89377 1.35307 9.09282L1.36024 21.6139C1.36263 25.7933 4.6712 29.2203 8.74596 29.2227L20.9941 29.2301C25.0772 29.2325 28.4599 25.8559 28.4599 21.6286L28.4611 21.6298Z" fill="#014A2E"/>
<path d="M22.365 15.3093C22.365 19.5366 19.0278 22.9623 14.9124 22.9623C10.797 22.9623 7.45972 19.5353 7.45972 15.3093C7.45972 11.0832 10.797 7.65625 14.9124 7.65625C19.0278 7.65625 22.365 11.0832 22.365 15.3093ZM21.0131 15.3093C21.0131 11.8492 18.2819 9.04325 14.9112 9.04325C11.5404 9.04325 8.8092 11.8479 8.8092 15.3093C8.8092 18.7706 11.5404 21.5753 14.9112 21.5753C18.2819 21.5753 21.0131 18.7706 21.0131 15.3093Z" fill="#014A2E"/>
<path d="M23.0453 8.34972C23.7932 8.34972 24.3996 7.72709 24.3996 6.95904C24.3996 6.19099 23.7932 5.56836 23.0453 5.56836C22.2974 5.56836 21.691 6.19099 21.691 6.95904C21.691 7.72709 22.2974 8.34972 23.0453 8.34972Z" fill="#014A2E"/>

</svg>
