<svg width="33" height="31" viewBox="0 0 33 31" fill="none" xmlns="http://www.w3.org/2000/svg">
<path d="M32.1201 10.8004C32.0799 10.6799 31.9473 10.6718 31.875 10.6517C31.8308 10.6276 31.7826 10.5553 31.7022 10.5392C31.5254 10.5071 31.3969 10.3946 31.2522 10.3142L30.6415 9.9727C30.6294 9.87626 30.5049 9.87626 30.4326 9.82403L29.8379 9.42223C29.7776 9.38205 29.7254 9.36999 29.645 9.30972L28.9137 8.7914C28.8414 8.73917 28.8093 8.67086 28.7289 8.66282C28.6244 8.51818 28.4477 8.48603 28.2347 8.25701C28.07 8.24093 27.9334 8.17263 27.8289 8.05611C27.6039 7.9436 27.403 7.81101 27.2302 7.65832L27.2744 7.62216C27.3588 7.59403 27.4552 7.54582 27.5074 7.44939C27.6963 7.10786 27.8168 6.72614 27.8168 6.34042C27.7365 5.78995 27.4632 5.33591 27.0132 5.06671L27.0574 4.79348C26.9771 4.2832 26.7922 3.82113 26.6235 3.33896C26.4427 2.81662 26.4507 2.81261 26.077 2.4992L25.6672 2.15767C25.7074 2.16169 25.7034 2.13356 25.6993 2.11749C25.6993 2.10142 25.6913 2.05722 25.6712 2.03713L25.2574 1.69158L24.3573 1.2496L23.9274 1.08888C23.0354 0.751368 22.1113 0.542431 21.167 0.393765L20.5764 0.301351L19.3027 0.148666L18.5513 0.0763422L17.4142 0H15.0597L14.3605 0.0522341C13.8342 0.0924142 13.3319 0.108486 12.8056 0.168756C11.9738 0.261171 11.1783 0.381711 10.3586 0.530377C9.83624 0.626809 9.35006 0.763421 8.8438 0.896016C8.51432 0.980394 8.221 1.12102 7.89956 1.23353C7.67455 1.31389 7.46964 1.38219 7.26472 1.50675L6.44906 1.99695L6.09548 2.32643C5.91065 2.49518 5.74591 2.76439 5.66957 3.00547L5.45661 3.65237L5.22357 4.40775C5.14723 4.66089 5.09901 4.93411 4.86195 5.09082C4.70123 5.19528 4.64899 5.38815 4.54854 5.54083C4.39586 5.77388 4.39586 6.0471 4.37175 6.32033C4.29541 7.18822 4.91418 7.34492 4.46818 7.66234L3.78111 8.15254C3.62039 8.26906 3.46368 8.36549 3.30296 8.478L2.58776 8.98025C2.28239 9.19722 1.66763 9.49455 1.28994 9.64322C1.14529 9.69947 1.00868 9.80394 0.84796 9.84814C0.442141 9.96064 -0.124398 10.3785 0.0242682 10.7763C0.193025 11.2223 0.598843 11.8451 0.855996 11.8652C0.872068 11.8652 0.88814 11.825 0.884122 11.8089C1.18547 12.046 1.47075 12.3313 1.82032 12.4719C1.80826 12.709 2.04934 12.6607 2.28641 12.8335C2.37882 12.8978 2.4632 12.8938 2.54758 12.8616C2.54758 12.8898 2.55963 12.9661 2.53151 13.0103C2.28641 13.4603 2.16587 13.9224 2.03729 14.4166C1.56317 16.2689 1.76407 18.3663 2.3748 20.1583L2.52749 20.6043L2.96545 21.641C3.13822 22.0508 3.32305 22.4165 3.56815 22.7901L4.37577 24.0076L4.63694 24.3331L5.42045 25.2492L6.39281 26.1773C6.4571 26.2376 6.54951 26.2336 6.57764 26.3622C6.58166 26.3863 6.63791 26.4144 6.66202 26.4264C6.69818 26.4385 6.75443 26.4425 6.76649 26.3822L7.3491 26.8443L7.76295 27.1135C7.71875 27.3385 8.04019 27.7283 8.29333 27.8769C8.40985 28.118 9.32997 28.6564 9.73579 28.8413C9.80812 28.9859 9.93669 29.0663 10.0733 29.1185L10.4269 29.2511C10.664 29.3395 10.8608 29.4399 11.0899 29.5324C11.3028 29.6167 11.5158 29.673 11.7448 29.7413C12.4721 29.9583 13.1832 30.1029 13.9185 30.1993L14.3605 30.2556L14.8628 30.2958L15.5659 30.3199C15.9758 30.3962 16.3776 30.34 16.7874 30.3119C17.0807 30.2918 17.3539 30.3319 17.6513 30.2556C17.7115 30.2395 17.8441 30.3078 17.8723 30.2114L17.8401 30.1551C15.9436 30.2797 13.9949 30.2556 12.1587 29.7333C12.2551 29.7292 12.3716 29.7574 12.4721 29.7775C12.5323 29.7895 12.5805 29.8257 12.6569 29.8176C12.7694 29.902 12.9261 29.89 13.0587 29.9101L14.011 30.0467C14.1877 30.0828 14.4248 30.0989 14.6297 30.123L15.0436 30.1712L17.37 30.1592L18.9571 29.9663C19.0978 29.9502 19.2745 29.9342 19.3951 29.8618C19.5558 29.8699 19.7205 29.8538 19.8572 29.7734C20.8496 29.5846 21.8019 29.2471 22.7099 28.8212L23.3448 28.4515C24.3131 27.881 24.5261 27.218 24.7431 27.0573C25.4221 26.547 26.0208 25.9965 26.6154 25.3777C27.6762 24.2688 28.5441 22.9991 29.187 21.6209C29.1629 21.7053 29.1669 21.7374 29.2071 21.7214C29.2593 21.7053 29.2754 21.6571 29.3035 21.5968L29.5044 21.1347C29.6209 20.966 29.6973 20.7691 29.7455 20.5441L30.2196 18.7119C30.3 18.5753 30.3321 18.4427 30.312 18.3141L30.3683 17.8078V17.7475L30.4084 17.0846C30.4808 15.7787 30.2437 14.509 29.7495 13.3117C29.7173 13.2393 29.6772 13.1951 29.7173 13.1268C29.7455 13.0786 29.8098 13.0625 29.8821 13.0425C30.766 12.8054 31.6098 12.0299 32.0759 11.2343C32.1442 11.1178 32.1523 10.929 32.1121 10.8125L32.1201 10.8004ZM29.9785 9.53473C29.9785 9.53473 29.9705 9.53473 29.9665 9.53071C29.9705 9.53071 29.9785 9.53071 29.9825 9.53071C29.9825 9.53071 29.9785 9.53071 29.9745 9.53473H29.9785ZM27.4472 8.28513C27.7445 8.46996 28.0418 8.67488 28.3432 8.9039L28.4276 8.85569L28.4477 8.98025C28.8695 9.28562 29.2955 9.57893 29.7254 9.86019C29.7696 9.88028 29.8057 9.8843 29.8339 9.87224C29.8258 9.99279 30.0267 10.1053 30.1031 9.95662C30.1915 10.1013 30.3763 10.1374 30.5049 10.2298C30.4366 10.3624 30.5491 10.4468 30.6455 10.3303H30.6937C30.6535 10.4147 30.6937 10.487 30.8223 10.5392L31.3607 10.8366L31.4451 10.7803C31.3687 10.8165 31.3848 10.9169 31.3527 10.9852C31.1196 11.4393 30.762 11.7808 30.3281 12.038L29.9624 12.2549C29.7254 12.3956 29.4522 12.4277 29.2071 12.3433C29.2271 12.2027 29.1066 12.1424 28.9941 12.0902C29.0343 11.9897 28.7972 11.7085 28.6084 11.7165C28.5441 11.7165 28.4195 11.8049 28.4637 11.8893C28.5481 12.058 28.6084 12.2911 28.4035 12.4036C28.2749 12.4759 28.1101 12.5121 28.0057 12.6366C27.8892 12.7773 27.7847 12.9661 27.5999 13.0344C27.4552 13.0867 27.2865 13.1228 27.186 13.2554C26.9409 13.5688 26.6315 13.7657 26.2659 13.9144L25.84 14.2921L25.5426 14.5291C25.3096 14.6376 25.181 14.7742 25.0404 14.9872L24.8475 15.2805C24.7109 15.4894 24.5703 15.6823 24.3533 15.8229C24.068 16.0118 23.8189 16.2127 23.6622 16.5261L23.2765 16.8113C23.2122 17.0886 23.0716 17.3015 22.9189 17.5306C22.8064 17.7033 22.6979 17.8199 22.4849 17.8319C22.3523 17.7315 22.2197 17.4904 22.0188 17.5065C21.8903 17.5145 21.7456 17.5828 21.6492 17.4582C21.5126 17.5346 21.4764 17.189 21.0867 17.0323L20.5121 16.7993C20.3594 16.739 20.267 16.5582 20.1826 16.4176C19.9857 16.0921 19.5397 16.3533 19.379 16.2649L18.5593 15.831C18.4067 15.7506 18.2901 15.6783 18.1495 15.618L17.6914 15.4131C17.6995 15.2644 17.6915 15.1157 17.6673 14.9671L17.6111 14.947L17.2495 13.5648C17.2495 13.4724 17.2254 13.388 17.2937 13.2835L17.7718 13.5166C17.8682 13.5608 17.9124 13.5849 18.0089 13.617C18.5272 13.7898 19.2022 14.0148 19.6723 13.8742C19.9536 13.8822 20.2107 13.7617 20.4759 13.6894C20.8496 13.3639 21.1791 13.1148 21.2394 12.5683C21.2675 12.3152 21.159 12.1022 21.1068 11.8812L20.8255 11.379L21.4764 11.2183C21.5286 11.2745 21.5769 11.2705 21.6412 11.2544C23.2725 10.925 25.0082 10.4468 26.3784 9.46643C26.3985 9.45035 26.4065 9.41821 26.4105 9.37803C26.4708 9.40214 26.5512 9.41419 26.6476 9.41419V9.52268C26.8887 9.73965 27.1418 9.94457 27.399 10.1455L27.4954 10.0852C27.5597 10.1053 27.5597 10.1816 27.624 10.2258L28.4758 10.8165L29.0624 11.2625C29.1066 11.2986 29.1789 11.2183 29.1548 11.1942C29.1428 11.1821 29.1428 11.1419 29.1066 11.1259C28.8977 11.0415 28.753 10.8928 28.5802 10.7602L27.5396 9.94457L27.5557 9.83608L26.8686 9.18115C27.1579 8.9481 27.3186 8.61059 27.4351 8.26906L27.4472 8.28513ZM5.48474 8.45389L5.34411 8.43782C5.42849 8.34942 5.4084 8.31326 5.29589 8.35344C5.38429 8.32129 5.41242 8.23692 5.38429 8.10432C5.39634 8.06816 5.95887 8.48201 5.99503 8.52219C6.02315 8.55434 6.29236 9.0365 6.28031 9.06463C6.26423 9.11284 5.53296 8.53827 5.48474 8.45389ZM26.2739 8.57845C26.3824 8.57443 26.507 8.478 26.5913 8.41371C26.6838 8.3454 26.8284 8.22486 26.8565 8.10432C26.8806 8.4338 26.5913 8.66282 26.2779 8.57845H26.2739ZM15.2806 15.2966C14.7623 15.0153 14.2641 15.0434 13.7377 15.2966C13.6453 15.2805 13.5569 15.2604 13.4725 15.2403L13.5087 15.1841C13.5971 15.1961 13.6855 15.1519 13.7739 15.0595C14.2962 14.3363 14.8306 13.617 15.4574 12.9741C15.6061 13.0143 15.7066 12.9862 15.7588 12.8858H15.8994L16.245 13.9987L16.482 15.1037L16.1244 15.18C15.7628 15.4251 15.6704 15.4091 15.2847 15.2966H15.2806ZM10.4711 10.6316L10.3747 10.6799V10.5714C10.0693 10.3464 9.75588 10.1615 9.42641 10.0089C9.44248 9.97671 9.44248 9.94457 9.43042 9.92448C9.59114 9.93252 9.75588 9.95261 9.92464 9.98877L9.95678 9.93252C10.1858 9.9727 10.2983 9.95261 10.3264 10.0169C10.3586 10.0852 10.443 10.1173 10.4952 10.1535L10.5474 10.2379L10.5555 10.3825L10.9733 10.7321C10.7965 10.7281 10.6278 10.6919 10.4671 10.6276L10.4711 10.6316ZM24.3573 10.0892C24.1926 10.0611 24.0801 10.1897 23.9395 10.266C23.7064 10.3906 23.4211 10.3584 23.18 10.3022L22.8144 10.2138C22.6095 10.1656 22.3885 10.1575 22.2358 9.97671C22.2358 9.97671 22.2358 9.97671 22.2398 9.9727C22.6778 10.0089 23.0957 9.77983 23.3086 9.84412C23.5818 9.92448 23.8269 9.93653 24.0881 9.92448L24.3091 9.91644L24.3975 9.79992C24.1484 9.78385 23.9234 9.7517 23.7225 9.62715C23.8069 9.61107 23.8711 9.61107 23.9113 9.56688C23.9796 9.55884 24.0359 9.54277 24.0841 9.5267L24.1645 9.60304C24.4859 9.51464 25.0364 9.44232 25.3538 9.53875C25.406 9.55482 24.6707 9.92448 24.5502 9.74367L24.4096 9.77581C24.3734 9.89635 24.3533 9.9968 24.3493 10.0772L24.3573 10.0932V10.0892ZM22.2278 10.7361C22.1876 10.6558 22.1072 10.6638 22.1032 10.7763C22.0871 10.7683 22.063 10.7281 22.0229 10.7241C21.5568 10.6397 21.1027 10.5473 20.6567 10.4227C20.6969 10.3343 20.5965 10.2982 20.5282 10.3383L20.484 10.2459L20.5121 10.2901C20.8978 10.254 21.2876 10.2098 21.6773 10.1615L22.3282 10.3142C22.4367 10.3504 22.5211 10.3504 22.5814 10.3182C22.5733 10.3504 22.5934 10.3665 22.6457 10.3745C22.8184 10.4669 22.5492 10.5794 22.4247 10.6316C22.28 10.6357 22.2117 10.6718 22.2238 10.7361H22.2278ZM13.5167 12.2027C13.4926 12.1947 13.4565 12.1947 13.4163 12.1987C13.4444 12.1947 13.4685 12.1866 13.4966 12.1786C13.4966 12.1866 13.5047 12.1947 13.5167 12.2027ZM13.0265 12.3875C12.2551 12.6487 11.5118 12.9782 10.7925 13.3759C10.7082 13.4161 10.6198 13.392 10.5474 13.3478C10.5635 13.1429 11.1059 12.8496 11.2144 12.8416C11.3189 12.8335 11.3551 12.7411 11.4033 12.721L12.3515 12.3514C12.4721 12.3031 12.5605 12.283 12.6649 12.2589L13.0225 12.1746L13.1069 12.2469C13.1431 12.2469 13.1752 12.2348 13.2114 12.2308C13.119 12.2549 13.0426 12.279 13.0386 12.2871C13.0185 12.3152 13.0185 12.3514 13.0265 12.3835V12.3875ZM17.3861 12.0259C17.9968 11.833 18.6116 11.7728 19.2303 11.8451L19.3629 11.7848C19.371 11.8371 19.383 11.8652 19.3991 11.8772V11.8893C20.2188 12.1665 19.8451 12.8054 19.154 12.6326L18.941 12.6728C18.4468 12.5241 17.9727 12.3313 17.5187 12.0821L17.4343 12.1384C17.4464 12.0781 17.4343 12.038 17.3901 12.0179L17.3861 12.0259ZM19.7969 10.6678C19.5036 10.5875 19.2103 10.5151 18.9129 10.4589L18.9652 10.4468C19.2545 10.4428 19.5397 10.4267 19.829 10.4026L19.821 10.3424C19.833 10.3665 19.8451 10.3825 19.8612 10.3906C20.0259 10.4549 20.2228 10.5272 20.3996 10.5875C20.6447 10.6718 21.0545 10.8044 21.3077 10.7522C21.3197 10.7522 21.3318 10.7321 21.3438 10.716L21.4001 10.7442C21.4001 10.7442 21.4282 10.7763 21.4362 10.8004V10.8285C21.2916 10.937 21.155 10.9491 20.9742 10.9531L20.8938 10.8928C20.484 11.0134 20.1505 10.8647 19.7929 10.6678H19.7969ZM17.8522 10.5272L17.8803 10.4348L18.0611 10.4267H18.3303C18.3705 10.479 18.3866 10.5312 18.3866 10.5834C17.8682 10.5834 17.362 10.7 16.8316 10.7924C16.7432 10.7723 16.6146 10.716 16.486 10.7241L15.9436 10.7562C15.6905 10.7723 15.4373 10.7401 15.2204 10.8647C15.0797 10.9451 15.0275 10.8968 14.9512 10.8285C14.8748 10.7562 14.7784 10.72 14.686 10.6758L14.6779 10.6035C15.7427 10.5915 16.7995 10.5633 17.8482 10.5272H17.8522ZM25.8801 9.22936C25.8601 9.24142 25.6029 9.27758 25.5748 9.21731C25.4783 9.17713 25.398 9.16909 25.39 9.28562C25.3096 9.30571 25.2895 9.32178 25.3417 9.32981C25.2774 9.33785 25.2132 9.34187 25.1489 9.34589C25.173 9.33785 25.1931 9.32981 25.2132 9.31776C25.0605 9.26151 25.0042 9.1932 25.0404 9.12088C25.1288 9.22133 25.2091 9.21731 25.181 9.07266C25.2051 9.10882 25.2172 9.11284 25.2132 9.07266C25.2574 9.04855 25.3016 9.02445 25.3498 9.00034L25.2132 9.07266C25.4221 9.06061 25.6069 8.9481 25.8118 8.86372C25.9243 8.81953 26.077 8.87578 26.1654 8.81149C26.2177 8.91194 26.2337 8.91596 26.2578 8.80747L26.3061 8.89185C26.294 8.91596 25.9043 9.22535 25.8801 9.2374V9.22936ZM26.061 3.64032C26.061 3.64032 26.061 3.60817 26.069 3.58808C26.069 3.60415 26.065 3.62023 26.061 3.64032ZM12.8899 10.5151C13.0989 10.487 13.4725 10.5151 13.6935 10.5312C13.7498 10.5352 13.8301 10.5312 13.8824 10.5031L14.6739 11.0294L14.7663 10.9812C14.7904 10.9933 14.8869 10.9812 14.8708 11.0455C14.8427 11.166 14.7101 11.2062 14.5976 11.2022L13.9708 11.1821L13.9226 11.0656C13.8382 11.0857 12.8136 10.5272 12.8859 10.5191L12.8899 10.5151ZM25.2292 2.455H25.3538C25.3819 2.70814 25.7074 2.96127 25.7596 3.347C25.8641 4.13453 25.0283 4.75732 24.3212 5.12296L23.1158 5.62119C22.9309 5.69754 22.73 5.73772 22.5331 5.78995L22.1113 5.90647C21.6331 6.03907 21.171 6.1355 20.6969 6.2038L20.0339 6.30425C19.5679 6.37256 19.1138 6.42078 18.6317 6.44087C18.029 6.46899 16.9602 6.47301 17.2013 6.69802C17.2856 6.77838 17.4102 6.91901 17.5669 6.91499L18.4669 6.8949L19.1861 6.8507L19.7246 6.80249L20.3433 6.75427C21.1952 6.68596 22.4367 6.47301 23.1961 6.18371L22.8104 6.26407C21.7376 6.56944 20.6447 6.70605 19.5357 6.75829L18.6759 6.79847L17.6151 6.82258C17.5669 6.82258 17.5307 6.80249 17.5267 6.77838L18.4267 6.76231C18.933 6.75427 19.596 6.64177 19.9174 6.68998C19.9737 6.69802 20.038 6.67391 20.046 6.63373C20.0581 6.65784 20.0701 6.67793 20.0781 6.67793C20.5282 6.66186 21.0907 6.61364 21.5206 6.50516C21.5246 6.50516 21.5246 6.48105 21.5206 6.45292C21.6934 6.46497 21.8782 6.45694 22.0229 6.36854C22.0711 6.38461 22.1153 6.39265 22.1595 6.38461C23.4332 6.11943 25.1609 5.64932 26.0007 4.58856C26.0489 4.52428 26.0971 4.46401 26.1011 4.38365C26.1172 4.37159 26.1494 4.3515 26.1654 4.33543C26.1654 4.52428 26.2377 4.71312 26.2699 4.89795C26.3302 5.23546 26.5029 5.43636 26.732 5.65735C27.0896 6.0029 27.1097 6.52123 26.8525 6.91901C26.519 7.42528 26.0851 7.81904 25.5346 8.08021L24.4698 8.58648L24.1363 8.703L22.8506 9.08472L21.6693 9.3499C21.0304 9.49455 19.3027 9.71554 18.6839 9.7276L16.3856 9.76376H14.8748L13.8382 9.73965L13.2596 9.6834C12.1828 9.57893 11.13 9.47044 10.0693 9.25347L9.43042 9.12088C8.85183 9.00034 8.31342 8.79944 7.7509 8.60657C7.36919 8.47398 7.03167 8.29719 6.67809 8.1003C6.56559 8.03602 6.4129 8.02798 6.31647 7.91146C6.30441 7.8994 6.24013 7.90744 6.22405 7.91146C6.212 7.91548 6.19593 7.92351 6.18387 7.96771C5.90663 7.77886 5.66555 7.56189 5.42849 7.32483C5.36018 7.25652 5.30795 7.16813 5.24768 7.09982C5.14723 6.54533 5.02669 6.11139 5.47269 5.65334C5.81824 5.30377 6.04726 4.87786 6.07539 4.37561C6.07539 4.32739 6.02315 4.239 6.10351 4.22293C6.37272 4.60062 6.69818 4.94215 7.10802 5.19127L7.66652 5.5328C9.11702 6.34845 10.8327 6.54935 12.4479 6.70606C12.9502 6.76231 12.9181 6.48908 12.4359 6.53328L12.2912 6.42479C10.5193 6.18773 8.69513 5.7779 7.1723 4.80554H7.07989C6.89506 4.65687 6.73836 4.49213 6.58567 4.31132C6.63791 4.239 6.60576 4.11846 6.55755 4.04212C6.26423 3.55996 6.36067 3.04967 6.78256 2.69207C7.03971 2.47509 7.31293 2.28625 7.59821 2.12553C8.58262 1.56301 10.4028 1.12102 11.6042 0.944232C14.3565 0.542431 17.1008 0.526359 19.8612 0.843782C20.9139 0.964322 21.8943 1.19737 22.9108 1.4505C23.0756 1.49068 23.2162 1.51479 23.385 1.56702L23.8229 1.69962L24.2006 1.82418C24.293 1.85632 24.3855 1.97284 24.506 1.91257L24.5381 2.03311C24.7873 2.14963 25.0203 2.29026 25.2332 2.455H25.2292ZM7.16427 9.15704L7.27275 9.10882V9.21329C7.42544 9.36598 7.57009 9.5267 7.7067 9.69947L7.80313 9.65929C7.83929 9.82001 8.02412 9.90439 8.02412 9.94859C8.02412 10.0812 7.47365 9.82403 7.12811 9.65929C7.23257 9.56286 7.16025 9.45035 7.03971 9.52268L7.06784 9.41821C6.46915 8.82355 6.5013 8.73917 7.16427 9.15704ZM8.07636 9.76376C8.14868 9.67536 8.08439 9.595 7.98394 9.6392C7.98394 9.59098 7.98394 9.54277 7.98796 9.49053C8.2652 9.60304 8.53039 9.65527 8.78754 9.64724C8.79558 9.76778 8.89201 9.85617 9.01255 9.83206C9.18131 10.0973 9.39426 10.2982 9.66749 10.5031C9.42239 10.5191 9.2456 10.4388 9.03264 10.3986C8.69513 10.3303 8.60673 10.1173 8.42994 10.0651C8.47414 9.98877 8.45405 9.96064 8.38172 10.0129C8.31342 9.93653 8.18484 9.76778 8.07636 9.76778V9.76376ZM11.5961 10.7602C11.347 10.6156 11.0416 10.491 10.8488 10.2781L10.8729 10.2218C11.3149 10.2861 11.7528 10.3022 12.1828 10.274C12.4841 10.5955 12.8015 10.8767 13.2074 11.0495C13.1672 11.1982 13.0507 11.0937 12.9823 11.0977C12.464 11.1218 12.0301 11.0174 11.5921 10.7642L11.5961 10.7602ZM14.9311 15.5939C14.9311 15.5939 14.915 15.5859 14.911 15.5778C14.919 15.5818 14.923 15.5899 14.9311 15.5939ZM17.0727 18.2659C17.0727 18.29 17.0727 18.3181 17.0727 18.3422C17.0646 18.3181 17.0687 18.294 17.0727 18.2659ZM0.791708 10.937C0.755546 10.929 0.72742 10.937 0.703312 10.9692C0.630987 10.8205 0.663131 10.6437 0.839924 10.5593L2.35873 9.83206L3.08197 9.42223L4.47622 8.44183C4.62087 8.34138 4.7173 8.22084 4.79364 8.08021C4.85391 8.11638 4.86597 8.18468 4.88204 8.25701C4.96642 8.61461 5.21955 8.84765 5.46867 9.06864C5.51688 9.28562 5.3642 9.43026 5.21152 9.57893L4.59676 10.1816C4.34764 10.4267 3.85745 10.9089 3.72887 10.9812C3.61637 11.0455 3.52395 11.1781 3.52797 11.3187C3.52797 11.3629 3.61235 11.3549 3.6244 11.3268C3.67262 11.2866 3.71682 11.2424 3.76102 11.1861C3.74494 11.2424 3.66057 11.2986 3.69271 11.371C4.15478 11.1781 4.52444 10.8968 4.86195 10.5674L5.79815 9.66331C5.8986 9.56688 6.02315 9.50661 6.15173 9.52268C6.13566 9.60304 6.212 9.64322 6.38477 9.64322C6.52942 9.73162 6.69014 9.7959 6.8147 9.91644C6.91515 9.99279 6.97542 10.0089 6.99149 9.96064C7.82322 10.3785 8.70317 10.6638 9.59918 10.9169C10.234 11.0977 10.889 11.1982 11.568 11.2826C11.8412 11.3147 12.0944 11.3911 12.3475 11.3549C12.3917 11.3388 12.4238 11.3549 12.4359 11.3911C12.4198 11.4232 12.3837 11.4513 12.3354 11.4634C11.6604 11.6442 11.0416 11.9094 10.447 12.275C9.82017 12.6607 9.34605 13.1871 9.75187 13.8099C9.79205 13.8702 9.86839 13.9063 9.92464 13.9425C9.94071 13.9545 9.96482 13.9827 9.97286 13.9987C10.3787 14.3242 10.9693 14.0952 11.4033 13.9224C12.1024 13.5969 12.7814 13.2474 13.4404 12.8737L13.79 12.6045C13.79 12.6045 13.8261 12.6165 13.8382 12.6206C13.8543 12.6326 13.8583 12.6527 13.8502 12.6768C13.8382 12.717 13.8141 12.7411 13.7819 12.7813L13.1873 13.5367L12.906 13.9746C12.7573 14.2077 12.5846 14.4126 12.4921 14.6456C12.1948 14.9349 12.0582 15.3126 11.8412 15.6582L11.5359 15.8993C11.4555 15.8631 11.3309 16.0198 11.2626 16.056C10.8689 16.2769 10.5715 16.5502 10.3104 16.9118L9.89651 17.3578C9.86035 17.394 9.87241 17.4984 9.8041 17.5145C9.73981 17.5306 9.66749 17.5145 9.61123 17.4743C9.65141 17.4663 9.65543 17.4502 9.62329 17.4261C9.48668 17.3256 9.52284 17.1489 9.30988 17.0564C9.28176 17.0605 9.25363 17.0645 9.22551 17.0645C9.24961 17.0484 9.27774 17.0444 9.30988 17.0564C9.08889 16.96 8.93621 17.0886 8.71924 16.9279L7.99198 16.3935C8.07234 16.3091 8.10046 16.2086 8.08037 16.1042C8.06028 15.9836 7.98394 15.9394 7.86742 15.9314C7.73884 15.9193 7.6183 15.8551 7.48973 15.7426C7.63437 15.5175 7.71474 15.2765 7.81519 15.0314C7.92769 14.7581 8.07636 14.4488 7.93171 14.4528C7.88349 14.4528 7.87546 14.4648 7.85135 14.505C7.74286 14.6858 7.5741 14.8465 7.50178 15.0394C7.35311 15.1198 7.28883 15.3568 7.15623 15.389C7.08391 15.405 7.01962 15.3649 6.95131 15.3247L6.42094 14.9992C6.11155 14.8104 6.27227 14.4046 5.91869 14.3242L5.47671 14.2237C5.54501 14.1193 5.47671 14.0429 5.39233 14.1394C5.39233 13.9867 5.47671 13.8903 5.3642 13.7376C5.23964 13.5648 4.97847 13.7215 4.66909 13.5608C4.77757 13.4724 4.69721 13.3036 4.57265 13.3759C4.61283 13.2755 4.6048 13.2072 4.56462 13.1469C4.50836 13.0545 4.4039 13.0907 4.3597 13.0545L4.37175 12.946L3.93781 12.5764C3.84539 12.4156 3.76102 12.3594 3.68066 12.4036C3.64449 12.3594 3.63646 12.3031 3.56815 12.283C3.49985 12.263 3.44761 12.263 3.37529 12.3072L3.08197 12.496C2.8208 12.484 2.60785 12.3594 2.3748 12.2871C2.3748 12.1665 2.31855 12.1424 2.25024 12.2429C2.15783 12.1585 2.03327 12.1263 1.9288 12.0621L1.89666 11.9375C1.42253 11.7045 1.08904 11.3469 0.799744 10.9169L0.791708 10.937ZM8.52637 27.3747L8.47816 27.4109C8.4219 27.3425 8.36163 27.2662 8.31342 27.1899C8.30538 27.1738 8.28127 27.1497 8.26118 27.1497C8.38976 27.0131 8.22904 26.7921 8.13261 26.6635C7.51383 26.1934 6.92721 25.6469 6.38076 25.0884L6.28031 25.1166L6.30843 25.0081C6.02717 24.6987 5.766 24.3773 5.5209 24.0397C5.48876 23.9835 5.42849 23.9835 5.3642 23.9996C5.4526 23.8509 5.24768 23.7625 5.21955 23.658C5.17937 23.5134 5.03071 23.4009 4.94633 23.2602C4.74141 22.9227 4.54854 22.6093 4.36372 22.2638C3.74093 21.0945 3.24269 19.8932 2.9534 18.5953C2.78062 17.8118 2.74446 17.0605 2.72839 16.2569C2.71232 15.3086 2.9534 14.3925 3.311 13.5286C3.37529 13.3679 3.45163 13.2434 3.49985 13.0826L3.56413 12.8817L3.5802 13.0264C3.85343 13.2434 4.05433 13.5045 4.25121 13.7938C4.33559 13.9103 4.41997 13.9425 4.50435 13.8903C4.62489 13.9786 4.74945 14.0389 4.94231 14.0228C4.95035 14.0228 4.95436 14.0228 4.9624 14.0269C5.06687 14.722 5.72582 14.6135 5.77404 14.7421C6.05128 15.5417 6.81872 15.6019 7.07185 15.8269C7.2165 15.9555 7.28079 16.1162 7.46562 16.1685C7.55 16.3332 7.57411 16.522 7.71072 16.6627C7.77501 16.731 7.82724 16.8154 7.93171 16.8596C8.49423 17.0926 8.65495 17.5707 9.10497 17.3859C9.24158 17.5466 9.32194 17.7275 9.47864 17.84C9.54293 18.0489 9.9166 18.0529 9.98491 17.8842C10.0613 17.84 10.1296 17.7917 10.1979 17.7074L10.5595 17.2573C10.7242 17.0524 10.889 16.8555 11.0979 16.7229C10.9854 16.8154 10.9372 16.8957 10.9532 16.968C10.9934 17.1649 10.8809 17.3096 10.7765 17.4743C10.5233 17.86 10.2742 18.4185 10.4912 18.752L10.8166 18.961C10.8247 18.9369 10.8287 18.9007 10.8207 18.8766L10.8608 18.8645C10.8769 18.9409 10.9452 18.9409 10.9934 18.969C11.2104 19.0936 11.4917 19.0815 11.6845 18.9168C11.7368 18.8726 11.8372 18.8244 11.8653 18.74L12.1386 17.9404C12.3073 17.8761 12.2832 17.6672 12.3154 17.5225C12.4198 17.0725 12.6408 16.6627 12.8939 16.2649L13.2636 15.6823C13.3641 15.6622 13.4404 15.7144 13.5167 15.7184C13.7136 15.8751 13.9708 15.7988 14.1717 15.6823C14.3485 15.5818 14.5775 15.4774 14.7744 15.5577C14.8949 15.6059 15.0155 15.6501 15.1481 15.6943L15.4293 15.7948C15.6664 15.8792 15.8954 15.8711 16.1084 15.7345L16.4097 15.5376L16.5463 15.5859L16.4981 15.6783C16.5664 16.068 16.6106 16.4618 16.6307 16.8636L16.5664 18.2377C16.5905 18.3824 16.6227 18.5632 16.8035 18.5471C16.8316 18.5712 16.8678 18.5913 16.8878 18.6315C16.9481 18.6918 16.9963 18.7119 17.0285 18.6837C17.2173 18.8163 17.4584 18.8003 17.6794 18.6837C17.8441 18.5953 18.0169 18.3743 17.9928 18.1293L17.7879 15.9877C17.7839 15.9435 17.7959 15.8671 17.816 15.851C17.8401 15.835 17.9044 15.851 17.9245 15.8591C17.8923 15.9073 17.9406 15.9354 18.0691 15.9435L18.8687 16.4176C19.0576 16.6064 19.5156 16.8435 19.7205 16.6145H19.7567C19.9576 16.6346 20.1625 17.0926 20.6808 17.2252C21.0907 17.3297 21.1188 17.5707 21.4001 17.7074C21.4242 17.7194 21.4603 17.7596 21.4764 17.7837C21.5487 17.9042 21.7617 17.9525 21.838 17.9002C21.8581 17.8882 21.8702 17.8641 21.8662 17.8319H21.9345L22.6457 18.4668C22.734 18.5431 22.9912 18.523 23.0796 18.4467C23.4332 18.1333 23.6783 17.7475 23.9113 17.3417C24.1042 17.189 24.2408 17.0122 24.3774 16.8154C24.514 16.6104 24.7189 16.4658 24.9038 16.3051C25.1449 16.0961 25.3257 15.835 25.4944 15.5899L25.7516 15.2202C25.848 15.0796 26.0409 15.0314 26.1614 14.9148L26.5552 14.5452C27.3025 14.3764 27.4954 13.7898 27.8771 13.6652C28.3793 13.5005 28.3552 13.2192 28.7249 12.9782C28.6968 13.167 28.8093 13.3117 28.8736 13.4844L29.1267 14.1715L29.3919 15.3046C29.5526 15.9917 29.4803 16.6506 29.4361 17.3417C29.3517 18.5672 29.0624 19.7164 28.5883 20.8454C28.4195 21.2472 28.2548 21.6209 28.0217 21.9906L27.8932 22.2638L27.3306 23.1518L26.8565 23.7946L26.4346 24.321L25.9886 24.8192C25.7918 25.0402 25.627 25.2532 25.3779 25.426L25.1328 25.6751C24.1765 26.2818 23.8511 27.214 23.0756 27.7564C21.9907 28.5158 19.7567 29.1466 18.4187 29.2953L17.3218 29.4158L16.1807 29.444L15.0396 29.4279L14.5895 29.3797L13.5167 29.2632L13.131 29.1908C12.46 29.0663 11.5359 28.8453 10.9332 28.6002L10.6519 28.4837C10.4992 28.4194 10.3626 28.3953 10.2139 28.327L9.61927 28.0618C9.45855 27.9894 9.30185 27.9573 9.16524 27.8408C9.10898 27.7926 9.0005 27.8086 8.97639 27.8689L9.0005 27.7685C8.81969 27.6479 8.66298 27.5113 8.52235 27.3667L8.52637 27.3747Z" fill="#014B2E"/>
<path d="M9.45052 27.3459L9.77999 27.4745C9.94473 27.5388 10.0733 27.6593 10.238 27.6513L10.3666 27.6794C10.4148 27.8281 10.7202 27.9165 10.9412 27.9848L11.5801 28.1937L12.4841 28.4549C13.2837 28.6196 14.0552 28.7723 14.8748 28.8446C15.0797 28.8647 15.2887 28.8969 15.4976 28.8928L17.37 28.8848C18.0933 28.8848 18.7843 28.7562 19.4634 28.5794C20.1625 28.475 20.8737 28.3022 21.5407 28.0169L22.7702 27.4946L23.6301 27.0526C23.6944 27.0204 23.7426 26.924 23.7104 26.8758C23.6823 26.8356 23.614 26.8195 23.5658 26.8195C23.5899 26.7874 23.614 26.7392 23.5939 26.7151C23.5778 26.691 23.4854 26.6829 23.4573 26.695L22.5693 27.0807C22.3564 27.1731 22.1555 27.2655 21.9345 27.3419C21.7938 27.3861 21.6813 27.4142 21.5447 27.4624L21.2233 27.579L20.6206 27.7678L20.2469 27.8482L19.6884 27.9647L18.5272 28.1696L17.4825 28.27L16.9361 28.3062H15.9436L13.6493 28.0973L12.6207 27.9044L10.8568 27.4624L9.38623 26.9642L9.0447 26.8477C8.89603 26.7995 8.78353 26.6709 8.5987 26.7954C8.55048 26.8276 8.62683 26.9682 8.6871 26.9602C8.70719 26.8919 8.75138 26.8195 8.7996 26.8517L8.89603 26.916C8.87192 26.92 8.83978 26.9079 8.79156 26.9481C8.85987 26.9763 8.92818 27.0124 8.97237 27.0727C9.07684 27.2254 9.30587 27.2133 9.45052 27.3459ZM15.4213 28.6919H15.3771C15.3891 28.6919 15.4052 28.6919 15.4173 28.6919H15.4213Z" fill="#014B2E"/>
</svg>
