<svg width="23" height="31" viewBox="0 0 23 31" fill="none" xmlns="http://www.w3.org/2000/svg" xmlns:xlink="http://www.w3.org/1999/xlink">
<rect width="23" height="31" fill="#F5F5F5"/>
<path d="M13.2246 29.8473L12.7885 30.3792C12.4349 30.8104 11.9535 31.0229 11.4123 30.998C10.9189 30.9744 10.4267 30.7159 10.0875 30.2524C7.78421 27.1082 5.55024 23.9181 3.34494 20.6844L2.2387 19.0067C1.7716 18.2983 1.38095 17.5788 1.01659 16.8095C0.402547 15.5133 0.103885 14.1512 0.0214553 12.7183C-0.401446 5.34756 5.48573 -0.584118 12.5257 0.0459598C14.559 0.227402 16.5015 0.980512 18.1489 2.19344C21.4317 4.61185 23.2297 8.59488 22.9764 12.7618C22.7936 15.7556 21.6767 17.6658 20.0687 20.0605C18.211 22.8269 16.3103 25.5274 14.375 28.2354L13.2234 29.8473H13.2246ZM16.0105 16.7014C16.112 16.7014 16.1562 16.6318 16.1562 16.5361L16.1586 7.23779C16.1586 7.10482 16.0798 7.01658 15.9567 7.01658L13.2843 7.02031C13.2019 7.02776 13.1207 7.09487 13.1207 7.19429L13.1183 12.1206L9.8354 7.19926C9.75058 7.07126 9.62634 7.01782 9.48657 7.01658H7.01008C6.88345 7.01658 6.85478 7.1247 6.85359 7.23406L6.84164 14.3426C6.84164 14.7614 6.8285 15.1405 6.83806 15.5506L6.86553 16.6927L9.74222 16.7014C9.82106 16.6778 9.87005 16.6268 9.87005 16.5348L9.88199 11.6421L13.1386 16.5212C13.2186 16.6852 13.3548 16.7051 13.5161 16.7051L16.0093 16.7001L16.0105 16.7014Z" fill="#014A2E"/>

</svg>
