<svg width="196" height="28" viewBox="0 0 196 28" fill="none" xmlns="http://www.w3.org/2000/svg">
<path d="M6.60769 15.904C5.37569 15.9227 4.25569 15.6893 3.24769 15.204C2.25835 14.7187 1.46502 14.0373 0.867688 13.16C0.289021 12.2827 -0.000312358 11.2653 -0.000312358 10.108C-0.000312358 9.00668 0.289021 8.01735 0.867688 7.14001C1.46502 6.24401 2.25835 5.52535 3.24769 4.98402C4.25569 4.44268 5.37569 4.16268 6.60769 4.14401C7.82102 4.12535 8.92235 4.34001 9.91169 4.78801C10.901 5.21735 11.685 5.86135 12.2637 6.72001C12.861 7.57868 13.1597 8.62401 13.1597 9.85601C13.1597 10.9947 12.861 12.0213 12.2637 12.936C11.685 13.832 10.901 14.5413 9.91169 15.064C8.92235 15.5867 7.82102 15.8667 6.60769 15.904ZM17.6957 25.256C17.3784 25.256 17.173 25.0227 17.0797 24.556C17.0237 24.2387 16.977 23.856 16.9397 23.408C16.921 22.96 16.9117 22.5213 16.9117 22.092C16.9117 21.6627 16.9117 21.3267 16.9117 21.084V4.53601C16.9117 4.49868 16.9117 4.44268 16.9117 4.36802C16.9117 3.71468 16.8557 3.20135 16.7437 2.82801C16.6504 2.45468 16.305 2.09068 15.7077 1.73601C15.5957 1.66135 15.493 1.57735 15.3997 1.48401C15.3064 1.39068 15.2597 1.27868 15.2597 1.14801C15.2597 0.942681 15.3624 0.709347 15.5677 0.448014C15.773 0.18668 16.025 0.0560138 16.3237 0.0560138C16.529 0.0560138 16.809 0.112014 17.1637 0.224015C17.5184 0.317348 17.8824 0.448015 18.2557 0.616015C18.629 0.765347 18.9464 0.924014 19.2077 1.09201C19.5624 1.31601 19.7397 1.54001 19.7397 1.76402C19.721 2.00668 19.6744 2.40801 19.5997 2.96801C19.5437 3.50935 19.5157 4.03201 19.5157 4.53601L19.4877 20.944C19.4877 21.2987 19.4597 21.7187 19.4037 22.204C19.3477 22.6893 19.245 23.1653 19.0957 23.632C18.965 24.0987 18.7784 24.4813 18.5357 24.78C18.3117 25.0973 18.0317 25.256 17.6957 25.256ZM6.57969 13.832C7.68102 13.776 8.58635 13.384 9.29569 12.656C10.005 11.9093 10.3597 10.9853 10.3597 9.88401C10.3597 8.76401 10.005 7.84935 9.29569 7.14001C8.60502 6.43068 7.70902 6.07601 6.60769 6.07601C5.48769 6.07601 4.56369 6.44935 3.83569 7.19602C3.12635 7.94268 2.77169 8.90401 2.77169 10.08C2.77169 11.2187 3.12635 12.1427 3.83569 12.852C4.56369 13.5427 5.47835 13.8693 6.57969 13.832ZM30.663 15.904C29.4496 15.9227 28.339 15.6893 27.331 15.204C26.3416 14.7187 25.5483 14.0373 24.951 13.16C24.3723 12.2827 24.083 11.2653 24.083 10.108C24.083 9.00668 24.3723 8.01735 24.951 7.14001C25.5483 6.24401 26.3416 5.52535 27.331 4.98402C28.339 4.44268 29.4496 4.16268 30.663 4.14401C31.8763 4.12535 32.9683 4.34001 33.939 4.78801C34.9283 5.21735 35.7123 5.86135 36.291 6.72001C36.8883 7.57868 37.187 8.62401 37.187 9.85601C37.187 10.9947 36.8883 12.0213 36.291 12.936C35.7123 13.832 34.9283 14.5413 33.939 15.064C32.9496 15.5867 31.8576 15.8667 30.663 15.904ZM41.639 25.256C41.3216 25.256 41.1163 25.0227 41.023 24.556C40.967 24.2387 40.9203 23.856 40.883 23.408C40.8643 22.96 40.855 22.5213 40.855 22.092C40.855 21.6627 40.855 21.3267 40.855 21.084V4.53601C40.855 4.49868 40.855 4.44268 40.855 4.36802C40.855 3.71468 40.799 3.20135 40.687 2.82801C40.5936 2.45468 40.2483 2.09068 39.651 1.73601C39.539 1.66135 39.4363 1.57735 39.343 1.48401C39.2496 1.39068 39.203 1.27868 39.203 1.14801C39.203 0.942681 39.3056 0.709347 39.511 0.448014C39.7163 0.18668 39.9683 0.0560138 40.267 0.0560138C40.4723 0.0560138 40.7523 0.112014 41.107 0.224015C41.4616 0.317348 41.8256 0.448015 42.199 0.616015C42.5723 0.765347 42.8896 0.924014 43.151 1.09201C43.5056 1.31601 43.683 1.54001 43.683 1.76402C43.6643 2.00668 43.6176 2.40801 43.543 2.96801C43.487 3.50935 43.459 4.03201 43.459 4.53601V7.47602C44.2803 7.42001 45.0176 7.29868 45.671 7.11201C46.3243 6.90668 46.7723 6.74802 47.015 6.63601C47.2203 6.56135 47.379 6.55201 47.491 6.60801C47.6216 6.64535 47.7336 6.72002 47.827 6.83202C47.995 7.01868 48.1443 7.28001 48.275 7.61601C48.4056 7.93335 48.4803 8.15735 48.499 8.28801C48.5176 8.47468 48.415 8.66135 48.191 8.84801C47.967 9.03468 47.7896 9.12802 47.659 9.12802C47.0243 9.07202 46.3336 9.04401 45.587 9.04401C44.859 9.02535 44.1496 9.02535 43.459 9.04401L43.431 14.112C44.271 14.0747 45.027 13.972 45.699 13.804C46.371 13.6173 46.8376 13.4867 47.099 13.412C47.3043 13.3373 47.4723 13.328 47.603 13.384C47.7336 13.4213 47.8363 13.496 47.911 13.608C48.0603 13.7947 48.2096 14.056 48.359 14.392C48.5083 14.728 48.583 14.9707 48.583 15.12C48.583 15.3067 48.4616 15.4933 48.219 15.68C47.995 15.848 47.8176 15.932 47.687 15.932C47.015 15.8387 46.3056 15.7827 45.559 15.764C44.831 15.7267 44.1216 15.708 43.431 15.708V20.944C43.431 21.2987 43.403 21.7187 43.347 22.204C43.291 22.6893 43.1883 23.1653 43.039 23.632C42.9083 24.0987 42.7216 24.4813 42.479 24.78C42.255 25.0973 41.975 25.256 41.639 25.256ZM30.635 13.832C31.7176 13.776 32.6136 13.3933 33.323 12.684C34.0323 11.956 34.387 11.0227 34.387 9.88401C34.387 8.67068 34.0323 7.73735 33.323 7.08402C32.6136 6.41201 31.727 6.07601 30.663 6.07601C29.935 6.07601 29.2816 6.26268 28.703 6.63601C28.143 6.99068 27.695 7.46668 27.359 8.06401C27.023 8.66135 26.855 9.33335 26.855 10.08C26.855 11.2373 27.219 12.1613 27.947 12.852C28.675 13.5427 29.571 13.8693 30.635 13.832ZM51.815 20.076C51.423 20.2627 51.0403 20.3467 50.667 20.328C50.3123 20.2907 50.0977 20.1227 50.023 19.824C49.9857 19.656 50.023 19.5067 50.135 19.376C50.247 19.2267 50.3963 19.0867 50.583 18.956C51.5537 18.34 52.5337 17.5653 53.523 16.632C54.5123 15.68 55.4457 14.6347 56.323 13.496C57.2003 12.3387 57.9657 11.1253 58.619 9.85601C59.291 8.58668 59.795 7.32668 60.131 6.07601C60.1683 5.87068 60.0937 5.76802 59.907 5.76802C59.3843 5.78668 58.8337 5.80535 58.255 5.82401C57.6763 5.84268 57.219 5.87068 56.883 5.90802C56.3603 5.94535 55.7723 6.00135 55.119 6.07601C54.4843 6.13202 53.887 6.21602 53.327 6.32801C53.3083 6.32801 53.2897 6.32801 53.271 6.32801C52.9537 6.40268 52.7297 6.44002 52.599 6.44002C52.487 6.42135 52.3283 6.31868 52.123 6.13201C51.9923 6.02001 51.787 5.81468 51.507 5.51602C51.2457 5.21735 51.0683 4.98401 50.975 4.81601C50.9377 4.64801 51.0123 4.45201 51.199 4.22802C51.3857 3.98535 51.5537 3.86401 51.703 3.86401C52.3937 3.99468 53.187 4.07868 54.083 4.11601C54.9977 4.15335 55.819 4.15335 56.547 4.11601C57.107 4.07868 57.6763 4.03201 58.255 3.97602C58.8337 3.92001 59.347 3.84535 59.795 3.75201C60.2617 3.65868 60.579 3.56535 60.747 3.47201C60.8777 3.41601 60.9897 3.39735 61.083 3.41601C61.1763 3.41601 61.2697 3.43468 61.363 3.47201C61.3817 3.47201 61.391 3.47201 61.391 3.47201C61.6897 3.56535 62.0443 3.69601 62.455 3.86401C62.8843 4.01335 63.2203 4.13468 63.463 4.22802C63.7803 4.34001 63.8643 4.58268 63.715 4.95601C63.6403 5.19868 63.5003 5.55335 63.295 6.02002C63.1083 6.46802 62.9497 6.85068 62.819 7.16801C62.3897 8.26935 61.8017 9.45468 61.055 10.724C60.3083 11.9933 59.4403 13.244 58.451 14.476C57.4803 15.6893 56.4257 16.7907 55.287 17.78C54.167 18.7693 53.0097 19.5347 51.815 20.076ZM68.111 25.256C67.7937 25.256 67.5883 25.0227 67.495 24.556C67.439 24.2387 67.3923 23.856 67.355 23.408C67.3363 22.96 67.327 22.5213 67.327 22.092C67.327 21.6627 67.327 21.3267 67.327 21.084V4.53601C67.327 4.49868 67.327 4.44268 67.327 4.36802C67.327 3.71468 67.271 3.20135 67.159 2.82801C67.0657 2.45468 66.7203 2.09068 66.123 1.73601C66.011 1.66135 65.9083 1.57735 65.815 1.48401C65.7217 1.39068 65.675 1.27868 65.675 1.14801C65.675 0.942681 65.7777 0.709347 65.983 0.448014C66.1883 0.18668 66.4403 0.0560138 66.739 0.0560138C66.9443 0.0560138 67.2243 0.112014 67.579 0.224015C67.9337 0.317348 68.2977 0.448015 68.671 0.616015C69.0443 0.765347 69.3617 0.924014 69.623 1.09201C69.9777 1.31601 70.155 1.54001 70.155 1.76402C70.1363 2.00668 70.0897 2.40801 70.015 2.96801C69.959 3.50935 69.931 4.03201 69.931 4.53601L69.903 20.944C69.903 21.2987 69.875 21.7187 69.819 22.204C69.763 22.6893 69.6603 23.1653 69.511 23.632C69.3803 24.0987 69.1937 24.4813 68.951 24.78C68.727 25.0973 68.447 25.256 68.111 25.256ZM81.2248 10.752C80.7955 10.752 80.4035 10.6027 80.0488 10.304C79.6942 10.0053 79.5168 9.48268 79.5168 8.73602V7.22401C79.4982 7.01868 79.3955 6.85068 79.2088 6.72001C78.9848 6.53335 78.7982 6.37468 78.6488 6.24401C78.5182 6.11335 78.4435 6.00135 78.4248 5.90802C78.4435 5.75868 78.5182 5.57201 78.6488 5.34801C78.7982 5.12401 78.9662 5.00268 79.1528 4.98402C79.5822 5.04001 80.0768 5.08668 80.6368 5.12402C81.2155 5.16135 81.6822 5.18001 82.0368 5.18001C82.4102 5.18001 82.9142 5.18001 83.5488 5.18001C84.2022 5.16135 84.9208 5.14268 85.7048 5.12402C86.4888 5.08668 87.2728 5.04935 88.0568 5.01202C88.8595 4.97468 89.5968 4.92801 90.2688 4.87202C90.3062 4.57335 90.3248 4.28401 90.3248 4.00401C90.3435 3.70535 90.3622 3.42535 90.3808 3.16401C90.3808 2.99601 90.3528 2.90268 90.2968 2.88401C90.2595 2.84668 90.1848 2.82801 90.0728 2.82801C89.8675 2.82801 89.4848 2.83735 88.9248 2.85601C88.3835 2.85601 87.7675 2.87468 87.0768 2.91202C86.4048 2.94935 85.7422 2.98668 85.0888 3.02401C84.4542 3.04268 83.9502 3.07068 83.5768 3.10801C83.2968 3.12668 82.9328 3.16401 82.4848 3.22001C82.0368 3.25735 81.6355 3.30401 81.2808 3.36001C80.9075 3.41602 80.6368 3.44402 80.4688 3.44402C80.3008 3.42535 80.1328 3.35068 79.9648 3.22001C79.7782 3.07068 79.5448 2.86535 79.2648 2.60401C79.0035 2.34268 78.8542 2.17468 78.8168 2.10001C78.7795 1.93201 78.8355 1.73601 78.9848 1.51202C79.1528 1.26935 79.3395 1.12935 79.5448 1.09201C80.0302 1.18535 80.5248 1.26001 81.0288 1.31601C81.5515 1.35335 82.1488 1.37202 82.8208 1.37202C83.4928 1.37202 84.3048 1.36268 85.2568 1.34401C85.5928 1.34401 86.0128 1.33468 86.5168 1.31601C87.0395 1.27868 87.5715 1.24135 88.1128 1.20401C88.6542 1.14801 89.1488 1.09201 89.5968 1.03601C90.0448 0.961348 90.3808 0.886681 90.6048 0.812014C90.7355 0.756015 90.8288 0.728015 90.8848 0.728015C90.9408 0.728015 91.0248 0.737348 91.1368 0.756015C91.1742 0.774681 91.2022 0.784014 91.2208 0.784014L93.2368 1.20401C93.5355 1.31601 93.6288 1.54935 93.5168 1.90402L92.6488 4.70401C92.8542 4.81601 93.0408 4.94668 93.2088 5.09601C93.3768 5.24535 93.4608 5.35735 93.4608 5.43201C93.4608 5.65602 93.3955 5.90802 93.2648 6.18801C93.1528 6.44935 92.9848 6.61735 92.7608 6.69202C92.1635 6.67335 91.4075 6.67335 90.4928 6.69202C89.5782 6.69202 88.6168 6.70135 87.6088 6.72001C86.6008 6.73868 85.6208 6.76668 84.6688 6.80402C83.7168 6.82268 82.8955 6.85068 82.2048 6.88801V8.31601C82.2048 8.61468 82.2422 8.80135 82.3168 8.87602C82.4102 8.95068 82.6062 8.99735 82.9048 9.01602C83.6142 9.03468 84.4448 9.03468 85.3968 9.01602C86.3675 8.99735 87.4128 8.96002 88.5328 8.90402C89.5782 8.84801 90.4835 8.76401 91.2488 8.65201C92.0142 8.52135 92.5368 8.40935 92.8168 8.31601C93.0222 8.24135 93.1808 8.24135 93.2928 8.31601C93.4235 8.37201 93.5262 8.45601 93.6008 8.56801C93.7502 8.75468 93.8902 8.96935 94.0208 9.21201C94.1702 9.43601 94.2448 9.59468 94.2448 9.68801C94.2448 9.83735 94.1328 10.024 93.9088 10.248C93.7035 10.472 93.5355 10.584 93.4048 10.584C93.1435 10.5653 92.6862 10.556 92.0328 10.556C91.3795 10.5373 90.6515 10.5373 89.8488 10.556C89.0648 10.556 88.3182 10.5653 87.6088 10.584C87.3288 10.584 86.9182 10.5933 86.3768 10.612C85.8355 10.6307 85.2382 10.6493 84.5848 10.668C83.9315 10.6867 83.3062 10.7053 82.7088 10.724C82.1115 10.7427 81.6168 10.752 81.2248 10.752ZM81.8968 26.236C81.4675 26.2173 81.0568 26.012 80.6648 25.62C80.2915 25.2467 80.1048 24.6773 80.1048 23.912V22.512C80.1048 22.4187 80.0862 22.3533 80.0488 22.316C80.0302 22.26 79.9648 22.1947 79.8528 22.12C79.6102 21.9707 79.4048 21.8307 79.2368 21.7C79.0875 21.5693 79.0035 21.4573 78.9848 21.364C79.0035 21.2147 79.0782 21.0187 79.2088 20.776C79.3395 20.5333 79.4982 20.4027 79.6848 20.384C80.1142 20.4587 80.6182 20.5147 81.1968 20.552C81.7942 20.5893 82.2702 20.608 82.6248 20.608C82.9795 20.608 83.4742 20.608 84.1088 20.608C84.7435 20.608 85.4435 20.5987 86.2088 20.58C86.9928 20.5427 87.7768 20.5147 88.5608 20.496C89.3448 20.4587 90.0542 20.412 90.6888 20.356C90.7075 20.0573 90.7262 19.768 90.7448 19.488C90.7635 19.208 90.7728 18.9187 90.7728 18.62C90.7728 18.4707 90.7448 18.3867 90.6888 18.368C90.6328 18.3307 90.5488 18.312 90.4368 18.312C90.2315 18.312 89.8675 18.3213 89.3448 18.34C88.8408 18.3587 88.2622 18.3867 87.6088 18.424C86.9555 18.4613 86.3208 18.4987 85.7048 18.536C85.1075 18.5547 84.6222 18.5733 84.2488 18.592C84.0622 18.592 83.8008 18.6107 83.4648 18.648C83.1288 18.6667 82.7835 18.6947 82.4288 18.732C82.0928 18.7693 81.8035 18.816 81.5608 18.872C81.1875 18.9467 80.9168 18.9653 80.7488 18.928C80.5808 18.8907 80.4128 18.8067 80.2448 18.676C80.0768 18.5267 79.8622 18.3307 79.6008 18.088C79.3582 17.8453 79.2182 17.6867 79.1808 17.612C79.1435 17.444 79.2088 17.248 79.3768 17.024C79.5448 16.8 79.7315 16.6693 79.9368 16.632C80.6648 16.7813 81.4768 16.8747 82.3728 16.912C83.2875 16.9307 84.2768 16.9307 85.3408 16.912C85.6768 16.912 86.1062 16.9027 86.6288 16.884C87.1515 16.8467 87.6928 16.8093 88.2528 16.772C88.8315 16.716 89.3542 16.66 89.8208 16.604C90.2875 16.5293 90.6328 16.4547 90.8568 16.38C91.0062 16.324 91.1088 16.296 91.1648 16.296C91.2395 16.2773 91.3422 16.2867 91.4728 16.324L93.4888 16.744C93.7875 16.8 93.8808 17.0147 93.7688 17.388C93.6942 17.612 93.5822 18.0133 93.4328 18.592C93.2835 19.152 93.1435 19.6653 93.0128 20.132C93.2182 20.244 93.4142 20.3747 93.6008 20.524C93.7875 20.6733 93.8808 20.7947 93.8808 20.888C93.8808 21.112 93.7968 21.3547 93.6288 21.616C93.4795 21.8773 93.2928 22.0453 93.0688 22.12C92.4715 22.1013 91.7248 22.092 90.8288 22.092C89.9515 22.092 89.0182 22.1013 88.0288 22.12C87.0582 22.1387 86.1062 22.1667 85.1728 22.204C84.2582 22.2413 83.4648 22.2787 82.7928 22.316V23.464C82.7928 23.7627 82.8208 24.0053 82.8768 24.192C82.9515 24.36 83.1008 24.4533 83.3248 24.472C84.0342 24.5093 84.8742 24.5187 85.8448 24.5C86.8155 24.5 87.7302 24.4907 88.5888 24.472C89.9142 24.4347 91.0248 24.3413 91.9208 24.192C92.8355 24.0427 93.4422 23.912 93.7408 23.8C93.9462 23.7067 94.1142 23.6973 94.2448 23.772C94.3755 23.828 94.4782 23.912 94.5528 24.024C94.7022 24.2107 94.8515 24.4347 95.0008 24.696C95.1502 24.976 95.2248 25.172 95.2248 25.284C95.2248 25.4333 95.1128 25.62 94.8888 25.844C94.6835 26.068 94.5155 26.18 94.3848 26.18C94.1235 26.1613 93.7035 26.1427 93.1248 26.124C92.5462 26.124 91.9022 26.124 91.1928 26.124C90.4835 26.124 89.7742 26.1333 89.0648 26.152C88.8408 26.152 88.4208 26.1613 87.8048 26.18C87.2075 26.1987 86.5168 26.208 85.7328 26.208C84.9675 26.2267 84.2302 26.236 83.5208 26.236C82.8302 26.2547 82.2888 26.2547 81.8968 26.236ZM76.7168 15.232C76.3062 15.3253 76.0075 15.3533 75.8208 15.316C75.6528 15.2787 75.4662 15.1853 75.2608 15.036C75.1488 14.9427 74.9808 14.8027 74.7568 14.616C74.5515 14.4293 74.3462 14.2427 74.1408 14.056C73.9542 13.8693 73.8422 13.7293 73.8048 13.636C73.7675 13.4867 73.8515 13.272 74.0568 12.992C74.2622 12.712 74.4768 12.5813 74.7008 12.6C75.2982 12.7307 76.0075 12.8333 76.8288 12.908C77.6688 12.964 78.5555 13.0013 79.4888 13.02C80.3848 13.02 81.3742 13.02 82.4568 13.02C83.5395 13.0013 84.6315 12.9733 85.7328 12.936C86.8528 12.8987 87.9075 12.8613 88.8968 12.824C89.8862 12.7867 90.7355 12.7493 91.4448 12.712C92.6022 12.6373 93.6755 12.544 94.6648 12.432C95.6728 12.32 96.4662 12.1893 97.0448 12.04C97.4182 11.9467 97.6702 11.9187 97.8008 11.956C97.9502 11.9747 98.0902 12.0867 98.2208 12.292C98.3515 12.4787 98.4915 12.74 98.6408 13.076C98.7902 13.3933 98.8648 13.6173 98.8648 13.748C98.8462 13.9533 98.7062 14.1587 98.4448 14.364C98.2022 14.5507 98.0248 14.644 97.9128 14.644C97.3902 14.588 96.8768 14.5507 96.3728 14.532C95.8875 14.4947 95.3088 14.4667 94.6368 14.448C93.9835 14.4293 93.1342 14.42 92.0888 14.42C91.0248 14.42 89.8208 14.4387 88.4768 14.476C87.1328 14.4947 85.7888 14.532 84.4448 14.588C83.1008 14.644 81.8875 14.7 80.8048 14.756C80.0022 14.7933 79.2648 14.8587 78.5928 14.952C77.9208 15.0267 77.2955 15.12 76.7168 15.232ZM117.108 26.936C116.641 26.936 116.38 26.6093 116.324 25.956L115.932 20.468C115.894 19.8893 115.82 19.4787 115.708 19.236C115.614 18.9747 115.381 18.7507 115.008 18.564C114.634 18.3587 114.504 18.088 114.616 17.752C114.821 17.1733 115.222 16.912 115.82 16.968C116.137 17.0053 116.464 17.0707 116.8 17.164C117.154 17.2387 117.5 17.3227 117.836 17.416C118.321 17.416 118.881 17.416 119.516 17.416C120.15 17.3973 120.776 17.3787 121.392 17.36C122.026 17.3413 122.577 17.3227 123.044 17.304C123.51 17.2667 123.8 17.248 123.912 17.248C124.453 17.2107 124.938 17.164 125.368 17.108C125.797 17.0333 126.189 16.9307 126.544 16.8C126.544 16.8 126.553 16.8 126.572 16.8C126.721 16.744 126.824 16.716 126.88 16.716C126.954 16.6973 127.076 16.7067 127.244 16.744L129.232 17.192C129.474 17.248 129.558 17.4533 129.484 17.808C129.446 17.976 129.4 18.2093 129.344 18.508C129.306 18.8067 129.26 19.1147 129.204 19.432C129.166 19.7307 129.138 19.9733 129.12 20.16C129.045 20.7947 128.961 21.448 128.868 22.12C128.793 22.792 128.718 23.4267 128.644 24.024C128.83 24.1547 129.017 24.3133 129.204 24.5C129.409 24.6867 129.512 24.808 129.512 24.864C129.512 25.1067 129.428 25.3493 129.26 25.592C129.11 25.8347 128.924 25.9747 128.7 26.012C128.326 25.9933 127.813 25.9747 127.16 25.956C126.506 25.956 125.778 25.956 124.976 25.956C124.173 25.956 123.361 25.9653 122.54 25.984C121.718 26.0027 120.953 26.0213 120.244 26.04C119.534 26.0587 118.946 26.0773 118.48 26.096C118.33 26.3387 118.134 26.5347 117.892 26.684C117.649 26.852 117.388 26.936 117.108 26.936ZM112.936 14.476C112.413 14.3827 112.021 14.112 111.76 13.664C111.498 13.1973 111.368 12.656 111.368 12.04V6.55202C111.368 5.95468 111.302 5.52535 111.172 5.26402C111.06 5.00268 110.789 4.75068 110.36 4.50801C109.968 4.28401 109.837 4.01335 109.968 3.69602C110.117 3.32268 110.313 3.09868 110.556 3.02401C110.798 2.93068 111.06 2.90268 111.34 2.94002C111.62 2.97735 111.946 3.04268 112.32 3.13601C112.693 3.22935 113.029 3.32268 113.328 3.41601C114.373 3.43468 115.418 3.41602 116.464 3.36001C117.509 3.28535 118.452 3.18268 119.292 3.05202C120.132 2.92135 120.757 2.78135 121.168 2.63201C121.373 2.53868 121.541 2.52935 121.672 2.60401C121.802 2.66001 121.905 2.74401 121.98 2.85601C122.129 3.04268 122.269 3.28535 122.4 3.58402C122.549 3.86401 122.624 4.05068 122.624 4.14401C122.624 4.29335 122.512 4.48001 122.288 4.70401C122.082 4.92801 121.914 5.04001 121.784 5.04001C121.41 5.00268 120.897 4.98402 120.244 4.98402C119.609 4.96535 118.909 4.96535 118.144 4.98402C117.397 5.00268 116.66 5.02135 115.932 5.04001C115.204 5.05868 114.569 5.08668 114.028 5.12402V10.92C114.028 11.3307 114.074 11.6107 114.168 11.76C114.28 11.9093 114.522 11.984 114.896 11.984C115.717 11.9653 116.613 11.8907 117.584 11.76C118.554 11.6293 119.516 11.4707 120.468 11.284C121.42 11.0787 122.278 10.8733 123.044 10.668C123.809 10.4627 124.378 10.2947 124.752 10.164C125.05 10.0333 125.284 10.0147 125.452 10.108C125.638 10.2013 125.732 10.332 125.732 10.5C125.732 11.0787 125.19 11.6013 124.108 12.068C123.585 12.292 122.866 12.5347 121.952 12.796C121.037 13.0573 120.038 13.3093 118.956 13.552C117.892 13.7947 116.828 14 115.764 14.168C114.7 14.336 113.757 14.4387 112.936 14.476ZM127.524 15.596C127.206 15.596 126.992 15.4 126.88 15.008C126.786 14.5787 126.73 14.112 126.712 13.608C126.693 13.0853 126.684 12.656 126.684 12.32C126.684 12.2453 126.684 12.1893 126.684 12.152V4.11601C126.684 3.59335 126.665 3.20135 126.628 2.94002C126.59 2.66001 126.488 2.43601 126.32 2.26802C126.17 2.10002 125.918 1.89468 125.564 1.65201C125.377 1.54001 125.237 1.40935 125.144 1.26002C125.069 1.11068 125.078 0.942681 125.172 0.756015C125.321 0.438681 125.517 0.233348 125.76 0.140014C126.002 0.0466812 126.273 0.0280147 126.572 0.0840151C127.001 0.158681 127.44 0.308014 127.888 0.532014C128.336 0.737347 128.709 0.942681 129.008 1.14801C129.344 1.37201 129.512 1.60535 129.512 1.84801C129.474 2.09068 129.428 2.42668 129.372 2.85601C129.316 3.28535 129.288 3.71468 129.288 4.14401V8.37202C130.016 8.29735 130.669 8.18535 131.248 8.03601C131.845 7.86801 132.265 7.74668 132.508 7.67201C132.713 7.59735 132.881 7.58801 133.012 7.64401C133.142 7.68135 133.245 7.75602 133.32 7.86802C133.469 8.05468 133.618 8.31601 133.768 8.65201C133.917 8.98802 133.992 9.22135 133.992 9.35201C133.992 9.53868 133.87 9.72535 133.628 9.91202C133.404 10.0987 133.226 10.192 133.096 10.192C132.517 10.0987 131.892 10.0427 131.22 10.024C130.566 9.98668 129.922 9.96801 129.288 9.96801V12.012C129.288 12.4787 129.232 12.992 129.12 13.552C129.026 14.0933 128.849 14.5693 128.588 14.98C128.326 15.372 127.972 15.5773 127.524 15.596ZM118.732 24.276C119.422 24.276 120.225 24.276 121.14 24.276C122.054 24.2573 122.978 24.2293 123.912 24.192C124.864 24.1547 125.704 24.1173 126.432 24.08C126.45 23.576 126.46 23.016 126.46 22.4C126.478 21.784 126.488 21.196 126.488 20.636C126.506 20.0573 126.506 19.6187 126.488 19.32C126.488 19.152 126.45 19.0493 126.376 19.012C126.32 18.956 126.236 18.928 126.124 18.928C125.956 18.928 125.592 18.9373 125.032 18.956C124.472 18.956 123.809 18.9653 123.044 18.984C122.278 19.0027 121.504 19.0213 120.72 19.04C119.936 19.0587 119.236 19.0867 118.62 19.124L118.732 24.276ZM147.99 11.06C146.776 11.0787 145.656 10.8827 144.63 10.472C143.603 10.0427 142.782 9.44535 142.166 8.68001C141.568 7.89601 141.27 6.97201 141.27 5.90802C141.27 4.90001 141.578 4.00401 142.194 3.22001C142.81 2.43601 143.622 1.81068 144.63 1.34401C145.656 0.877348 146.776 0.634681 147.99 0.616015C149.222 0.578681 150.342 0.756014 151.35 1.14801C152.376 1.54001 153.188 2.11868 153.786 2.88401C154.402 3.63068 154.71 4.56401 154.71 5.68401C154.71 6.69202 154.402 7.59735 153.786 8.40001C153.17 9.20268 152.348 9.83735 151.322 10.304C150.314 10.7707 149.203 11.0227 147.99 11.06ZM138.022 16.352C137.611 16.4453 137.312 16.4733 137.126 16.436C136.958 16.3987 136.771 16.3053 136.566 16.156C136.454 16.0627 136.286 15.9227 136.062 15.736C135.856 15.5493 135.651 15.3627 135.446 15.176C135.259 14.9893 135.147 14.8493 135.11 14.756C135.072 14.6067 135.156 14.392 135.362 14.112C135.567 13.832 135.782 13.7013 136.006 13.72C136.603 13.8507 137.312 13.9533 138.134 14.028C138.974 14.084 139.86 14.1213 140.794 14.14C141.69 14.14 142.679 14.14 143.762 14.14C144.844 14.1213 145.936 14.0933 147.038 14.056C148.158 14.0187 149.212 13.9813 150.202 13.944C151.191 13.9067 152.04 13.8693 152.75 13.832C153.907 13.7573 154.98 13.664 155.97 13.552C156.978 13.44 157.771 13.3093 158.35 13.16C158.723 13.0667 158.975 13.0387 159.106 13.076C159.255 13.0947 159.395 13.2067 159.526 13.412C159.656 13.5987 159.796 13.86 159.946 14.196C160.095 14.5133 160.17 14.7373 160.17 14.868C160.151 15.0733 160.011 15.2787 159.75 15.484C159.507 15.6707 159.33 15.764 159.218 15.764C158.695 15.708 158.182 15.6707 157.678 15.652C157.192 15.6147 156.614 15.5867 155.942 15.568C155.288 15.5493 154.439 15.54 153.394 15.54C152.33 15.54 151.126 15.5587 149.782 15.596C148.438 15.6147 147.094 15.652 145.75 15.708C144.406 15.764 143.192 15.82 142.11 15.876C141.307 15.9133 140.57 15.9787 139.898 16.072C139.226 16.1467 138.6 16.24 138.022 16.352ZM143.538 26.096C143.258 26.0773 142.94 25.984 142.586 25.816C142.25 25.6667 141.96 25.4053 141.718 25.032C141.475 24.6773 141.354 24.192 141.354 23.576V22.008C141.354 21.2987 141.316 20.8133 141.242 20.552C141.167 20.272 140.896 20.0107 140.43 19.768C140.075 19.5813 139.991 19.292 140.178 18.9C140.327 18.5827 140.523 18.3867 140.766 18.312C141.027 18.2373 141.288 18.2187 141.55 18.256C141.867 18.312 142.212 18.4147 142.586 18.564C142.959 18.6947 143.286 18.844 143.566 19.012C143.771 19.1427 143.939 19.2733 144.07 19.404C144.219 19.516 144.294 19.6467 144.294 19.796C144.219 20.1133 144.163 20.4493 144.126 20.804C144.088 21.1587 144.07 21.5133 144.07 21.868V23.296C144.07 23.7067 144.107 23.968 144.182 24.08C144.275 24.192 144.462 24.2573 144.742 24.276C145.451 24.2947 146.282 24.304 147.234 24.304C148.204 24.304 149.231 24.2667 150.314 24.192C151.49 24.1173 152.516 23.996 153.394 23.828C154.271 23.66 154.85 23.5387 155.13 23.464C155.335 23.3893 155.503 23.38 155.634 23.436C155.764 23.492 155.867 23.576 155.942 23.688C156.091 23.8747 156.24 24.136 156.39 24.472C156.539 24.808 156.614 25.0227 156.614 25.116C156.614 25.284 156.502 25.48 156.278 25.704C156.072 25.928 155.904 26.04 155.774 26.04C155.531 26.0213 155.139 26.0027 154.598 25.984C154.056 25.9653 153.44 25.956 152.75 25.956C152.078 25.956 151.387 25.9653 150.678 25.984C150.528 25.984 150.342 25.984 150.118 25.984C149.912 26.0027 149.688 26.012 149.446 26.012C148.83 26.0307 148.139 26.0493 147.374 26.068C146.608 26.0867 145.88 26.096 145.19 26.096C144.499 26.1147 143.948 26.1147 143.538 26.096ZM147.99 9.21201C149.11 9.15602 150.024 8.82002 150.734 8.20401C151.443 7.58801 151.816 6.74801 151.854 5.68401C151.891 4.56401 151.536 3.74268 150.79 3.22001C150.043 2.69735 149.11 2.43601 147.99 2.43601C146.851 2.43601 145.908 2.76268 145.162 3.41601C144.415 4.06935 144.042 4.89068 144.042 5.88001C144.042 6.98135 144.415 7.82135 145.162 8.40001C145.927 8.97868 146.87 9.24935 147.99 9.21201ZM173.568 14.812C173.158 14.9053 172.859 14.9333 172.672 14.896C172.504 14.8587 172.318 14.7653 172.112 14.616C172 14.5227 171.832 14.3827 171.608 14.196C171.403 14.0093 171.198 13.8227 170.992 13.636C170.806 13.4493 170.694 13.3093 170.656 13.216C170.619 13.0667 170.703 12.852 170.908 12.572C171.114 12.292 171.328 12.1613 171.552 12.18C172.15 12.3107 172.859 12.4133 173.68 12.488C174.52 12.544 175.407 12.5813 176.34 12.6C176.956 12.6 177.628 12.6 178.356 12.6C179.084 12.6 179.822 12.5907 180.568 12.572L180.54 10.276C180.54 9.67868 180.494 9.23068 180.4 8.93201C180.326 8.61468 180.139 8.34401 179.84 8.12002C179.691 8.00802 179.579 7.89602 179.504 7.78401C179.448 7.67201 179.458 7.53201 179.532 7.36401C179.682 7.04668 179.868 6.84135 180.092 6.74801C180.335 6.65468 180.578 6.63601 180.82 6.69202C181.082 6.74801 181.399 6.86935 181.772 7.05602C182.164 7.22402 182.454 7.38268 182.64 7.53201C183.032 7.81202 183.238 8.02668 183.256 8.17601C183.182 8.47468 183.126 8.80135 183.088 9.15602C183.07 9.51068 183.051 9.86535 183.032 10.22L182.948 12.516C183.975 12.4787 184.955 12.4413 185.888 12.404C186.822 12.3667 187.624 12.3293 188.296 12.292C189.454 12.2173 190.527 12.124 191.516 12.012C192.524 11.9 193.318 11.7693 193.896 11.62C194.27 11.5267 194.522 11.4987 194.652 11.536C194.802 11.5547 194.942 11.6667 195.072 11.872C195.203 12.0587 195.343 12.32 195.492 12.656C195.642 12.9733 195.716 13.1973 195.716 13.328C195.698 13.5333 195.558 13.7387 195.296 13.944C195.054 14.1307 194.876 14.224 194.764 14.224C194.242 14.168 193.728 14.1307 193.224 14.112C192.739 14.0747 192.16 14.0467 191.488 14.028C190.835 14.0093 189.986 14 188.94 14C187.876 14 186.672 14.0187 185.328 14.056C183.984 14.0747 182.64 14.112 181.296 14.168C179.952 14.224 178.739 14.28 177.656 14.336C176.854 14.3733 176.116 14.4387 175.444 14.532C174.772 14.6067 174.147 14.7 173.568 14.812ZM175.724 26.964C175.276 27.0947 174.894 27.1133 174.576 27.02C174.278 26.9453 174.1 26.8147 174.044 26.628C174.007 26.46 174.035 26.3107 174.128 26.18C174.222 26.0493 174.324 25.956 174.436 25.9C175.332 25.4147 176.228 24.8173 177.124 24.108C178.039 23.3987 178.879 22.652 179.644 21.868C180.41 21.0653 180.998 20.3 181.408 19.572C181.651 19.1613 181.856 18.732 182.024 18.284C182.211 17.836 182.146 17.4813 181.828 17.22C181.642 17.052 181.511 16.8933 181.436 16.744C181.362 16.5947 181.39 16.4267 181.52 16.24C181.726 15.8853 181.959 15.68 182.22 15.624C182.482 15.568 182.762 15.5867 183.06 15.68C183.452 15.792 183.863 15.9787 184.292 16.24C184.722 16.5013 185.058 16.744 185.3 16.968C185.412 17.0613 185.506 17.164 185.58 17.276C185.655 17.388 185.674 17.4813 185.636 17.556C185.543 17.724 185.366 18.0227 185.104 18.452C184.862 18.8627 184.582 19.3107 184.264 19.796C185.384 20.5427 186.392 21.1587 187.288 21.644C188.184 22.1107 189.118 22.4187 190.088 22.568C190.368 22.7173 190.639 22.988 190.9 23.38C191.162 23.7533 191.376 24.1453 191.544 24.556C191.712 24.9853 191.796 25.3307 191.796 25.592C191.796 25.7787 191.703 25.9467 191.516 26.096C191.33 26.2453 191.124 26.3573 190.9 26.432C190.695 26.5253 190.527 26.5533 190.396 26.516C189.743 25.9 188.996 25.2653 188.156 24.612C187.335 23.9587 186.504 23.324 185.664 22.708C184.824 22.092 184.059 21.5693 183.368 21.14C182.79 21.924 182.136 22.6427 181.408 23.296C180.699 23.9493 179.98 24.528 179.252 25.032C178.543 25.5547 177.871 25.9747 177.236 26.292C176.62 26.628 176.116 26.852 175.724 26.964ZM187.512 10.696C187.326 10.696 187.186 10.584 187.092 10.36C187.018 10.1173 187.018 9.83735 187.092 9.52002C187.167 9.20268 187.26 8.70801 187.372 8.03601C187.503 7.36401 187.624 6.64535 187.736 5.88001C187.867 5.11468 187.96 4.44268 188.016 3.86401C188.035 3.71468 188.016 3.62135 187.96 3.58402C187.904 3.54668 187.774 3.52801 187.568 3.52801C186.784 3.54668 186.066 3.56535 185.412 3.58402C184.778 3.60268 184.143 3.63068 183.508 3.66801C182.874 3.68668 182.155 3.72401 181.352 3.78001C180.867 3.79868 180.298 3.85468 179.644 3.94802C178.991 4.02268 178.422 4.10668 177.936 4.20001C177.582 4.27468 177.33 4.30268 177.18 4.28401C177.05 4.24668 176.9 4.17201 176.732 4.06001C176.508 3.89201 176.238 3.65868 175.92 3.36001C175.622 3.06135 175.454 2.86535 175.416 2.77201C175.379 2.60401 175.454 2.38935 175.64 2.12801C175.846 1.84801 176.079 1.71735 176.34 1.73601C176.714 1.82935 177.255 1.90401 177.964 1.96001C178.692 1.99735 179.374 2.01602 180.008 2.01602C180.624 2.01602 181.138 2.01602 181.548 2.01602C181.978 1.99735 182.37 1.98801 182.724 1.98801C183.079 1.96935 183.471 1.95068 183.9 1.93201C184.348 1.89468 184.908 1.85735 185.58 1.82001C186.215 1.78268 186.756 1.72668 187.204 1.65201C187.652 1.55868 188.016 1.46535 188.296 1.37202C188.464 1.31601 188.604 1.29735 188.716 1.31601C188.828 1.31601 188.959 1.34401 189.108 1.40001L191.04 2.04401C191.171 2.08135 191.274 2.16535 191.348 2.29602C191.423 2.40801 191.414 2.58535 191.32 2.82801C191.227 3.10801 191.115 3.46268 190.984 3.89201C190.854 4.30268 190.76 4.61068 190.704 4.81601C190.518 5.50668 190.303 6.25335 190.06 7.05602C189.818 7.84002 189.575 8.54935 189.332 9.18401C188.94 10.2293 188.334 10.7333 187.512 10.696Z" fill="#014B2E"/>
</svg>
