<svg width="184" height="122" viewBox="0 0 184 122" fill="none" xmlns="http://www.w3.org/2000/svg">
<path d="M78.7648 18.6875C78.4448 18.6875 78.3594 18.3889 78.5088 17.7915C78.5941 17.4715 78.7008 16.9489 78.8288 16.2235C78.9568 15.4769 79.1061 14.6235 79.2768 13.6635C79.4474 12.7035 79.6074 11.7222 79.7568 10.7195C79.9061 9.69553 80.0448 8.72486 80.1728 7.80753C80.3008 6.8902 80.3861 6.11153 80.4288 5.47153C80.4501 5.30086 80.4074 5.20486 80.3008 5.18353C80.1941 5.1622 80.1194 5.15153 80.0768 5.15153C80.0554 5.15153 80.0448 5.15153 80.0448 5.15153C79.7888 5.15153 79.3301 5.17286 78.6688 5.21553C78.0288 5.23686 77.3248 5.27953 76.5568 5.34353C75.7888 5.3862 75.0741 5.42886 74.4128 5.47153C73.7728 5.49286 73.3248 5.50353 73.0688 5.50353C72.4501 5.52486 71.7781 5.55686 71.0528 5.59953C70.3274 5.6422 69.6341 5.69553 68.9728 5.75953C68.3328 5.82353 67.7994 5.8982 67.3728 5.98353C66.9674 6.0902 66.6688 6.11153 66.4768 6.04753C66.2848 5.98353 66.0928 5.87686 65.9008 5.72753C65.6874 5.55686 65.4741 5.3862 65.2608 5.21553C65.0688 5.02353 64.9514 4.8742 64.9088 4.76753C64.8448 4.66086 64.8661 4.51153 64.9728 4.31953C65.0794 4.12753 65.2074 4.05286 65.3568 4.09553C65.7408 4.2022 66.2421 4.27686 66.8608 4.31953C67.4794 4.3622 68.1408 4.3942 68.8448 4.41553C69.5701 4.41553 70.2741 4.40486 70.9568 4.38353C71.6394 4.3622 72.2368 4.34086 72.7488 4.31953C73.2394 4.2982 73.8474 4.2662 74.5728 4.22353C75.2981 4.18086 76.0448 4.12753 76.8128 4.06353C77.6021 3.99953 78.3168 3.92486 78.9568 3.83953C79.6181 3.73286 80.1088 3.61553 80.4288 3.48753C80.5994 3.42353 80.7594 3.42353 80.9088 3.48753L82.8608 4.19153C82.9461 4.2342 83.0101 4.30886 83.0528 4.41553C83.1168 4.50086 83.1061 4.6182 83.0208 4.76753C82.9568 4.91686 82.8501 5.23686 82.7008 5.72753C82.5728 6.19686 82.4554 6.6662 82.3488 7.13553C82.2421 7.60486 82.1781 7.92486 82.1568 8.09553C82.0714 8.60753 81.9434 9.27953 81.7728 10.1115C81.6021 10.9435 81.4208 11.8075 81.2288 12.7035C81.0368 13.5995 80.8554 14.4209 80.6848 15.1675C80.5141 15.9142 80.3861 16.4582 80.3008 16.7995C79.9381 18.0582 79.4261 18.6875 78.7648 18.6875ZM63.1488 23.9035C62.7648 23.9889 62.5088 24.0209 62.3808 23.9995C62.2528 23.9569 62.0821 23.8609 61.8688 23.7115C61.7408 23.6262 61.5701 23.4875 61.3568 23.2955C61.1434 23.1035 60.9514 22.9222 60.7808 22.7515C60.6101 22.5595 60.5034 22.4209 60.4608 22.3355C60.3968 22.2289 60.4288 22.0795 60.5568 21.8875C60.7061 21.6955 60.8554 21.6209 61.0048 21.6635C61.6874 21.8129 62.4448 21.9195 63.2768 21.9835C64.1301 22.0475 65.1221 22.0795 66.2528 22.0795C67.4688 22.0795 68.7274 22.0795 70.0288 22.0795C71.3301 22.0582 72.5888 22.0369 73.8048 22.0155C75.0421 21.9942 76.1728 21.9729 77.1968 21.9515C78.2208 21.9089 79.0528 21.8769 79.6928 21.8555C81.0794 21.8129 82.3168 21.7169 83.4048 21.5675C84.4928 21.3969 85.2714 21.2369 85.7408 21.0875C85.9754 21.0022 86.1568 20.9915 86.2848 21.0555C86.4341 21.1195 86.5728 21.2369 86.7008 21.4075C86.8288 21.5782 86.9568 21.8022 87.0848 22.0795C87.2341 22.3355 87.3088 22.5489 87.3088 22.7195C87.3088 22.8689 87.2341 22.9969 87.0848 23.1035C86.9354 23.2102 86.8181 23.2635 86.7328 23.2635C85.7514 23.1782 84.6421 23.1355 83.4048 23.1355C82.1888 23.1142 81.0794 23.1035 80.0768 23.1035C78.7968 23.1249 77.4101 23.1569 75.9167 23.1995C74.4234 23.2209 72.9514 23.2422 71.5008 23.2635C70.0714 23.2849 68.7701 23.3275 67.5968 23.3915C66.6581 23.4342 65.8368 23.4982 65.1328 23.5835C64.4288 23.6689 63.7674 23.7755 63.1488 23.9035ZM115.724 30.1435C114.444 30.1435 113.313 29.9089 112.332 29.4395C111.372 28.9915 110.614 28.3622 110.06 27.5515C109.505 26.7622 109.228 25.8449 109.228 24.7995C109.228 23.7755 109.526 22.8582 110.124 22.0475C110.721 21.2155 111.521 20.5649 112.524 20.0955C113.526 19.6049 114.625 19.3595 115.819 19.3595C117.036 19.3595 118.134 19.5622 119.116 19.9675C120.118 20.3729 120.918 20.9702 121.516 21.7595C122.113 22.5489 122.39 23.5195 122.348 24.6715C122.348 25.7382 122.049 26.6875 121.452 27.5195C120.854 28.3515 120.054 28.9915 119.052 29.4395C118.049 29.9089 116.94 30.1435 115.724 30.1435ZM115.756 28.7035C117.078 28.7035 118.177 28.3515 119.052 27.6475C119.948 26.9435 120.417 25.9409 120.46 24.6395C120.502 23.8075 120.31 23.1035 119.884 22.5275C119.457 21.9302 118.881 21.4822 118.156 21.1835C117.452 20.8635 116.662 20.7035 115.788 20.7035C114.892 20.7035 114.092 20.8849 113.388 21.2475C112.684 21.5889 112.118 22.0689 111.692 22.6875C111.286 23.3062 111.084 23.9995 111.084 24.7675C111.084 25.9835 111.521 26.9435 112.396 27.6475C113.292 28.3515 114.412 28.7035 115.756 28.7035ZM100.748 18.2075C100.492 18.3782 100.236 18.4422 99.9795 18.3995C99.7235 18.3569 99.5528 18.2502 99.4675 18.0795C99.4035 17.9089 99.5102 17.7275 99.7875 17.5355C101.004 16.6822 102.102 15.7222 103.084 14.6555C104.086 13.5675 104.94 12.4795 105.644 11.3915C106.369 10.3035 106.934 9.30086 107.34 8.38353C107.766 7.44486 108.022 6.68753 108.108 6.11153C108.129 5.87686 108.076 5.6742 107.948 5.50353C107.82 5.31153 107.542 5.17286 107.116 5.08753C106.86 5.08753 106.476 5.11953 105.964 5.18353C105.473 5.24753 104.961 5.3222 104.428 5.40753C103.916 5.47153 103.489 5.53553 103.148 5.59953C102.742 5.66353 102.465 5.6742 102.316 5.63153C102.188 5.56753 102.049 5.46086 101.9 5.31153C101.793 5.20486 101.644 5.0342 101.452 4.79953C101.26 4.56486 101.132 4.3942 101.068 4.28753C101.004 4.18086 101.025 4.05286 101.132 3.90353C101.238 3.73286 101.366 3.6582 101.516 3.67953C102.156 3.7862 102.86 3.86086 103.628 3.90353C104.396 3.9462 105.164 3.95686 105.932 3.93553C106.7 3.9142 107.382 3.89286 107.98 3.87153C109.132 3.80753 110.209 3.71153 111.212 3.58353C112.236 3.45553 113.164 3.28486 113.996 3.07153C114.401 2.9862 114.668 3.0822 114.796 3.35953C114.881 3.50886 114.966 3.71153 115.052 3.96753C115.158 4.2022 115.212 4.3942 115.212 4.54353C115.212 4.67153 115.137 4.78886 114.988 4.89553C114.86 5.0022 114.774 5.05553 114.732 5.05553C113.985 4.99153 113.153 4.94886 112.236 4.92753C111.34 4.9062 110.23 4.92753 108.908 4.99153C109.27 5.1622 109.59 5.3542 109.868 5.56753C110.166 5.78086 110.294 5.97286 110.252 6.14353C110.188 6.59153 110.006 7.1462 109.708 7.80753C109.43 8.44753 109.068 9.15153 108.62 9.91953C109.622 10.8795 110.636 11.7009 111.66 12.3835C112.684 13.0449 113.569 13.5782 114.316 13.9835C114.572 14.1755 114.774 14.5275 114.924 15.0395C115.094 15.5302 115.148 15.9889 115.083 16.4155C115.041 16.6929 114.849 16.8849 114.508 16.9915C114.188 17.0769 114.006 17.0769 113.964 16.9915C113.537 16.3729 112.972 15.6795 112.268 14.9115C111.564 14.1435 110.828 13.3969 110.06 12.6715C109.313 11.9249 108.641 11.2955 108.044 10.7835C107.169 12.1062 106.102 13.4395 104.844 14.7835C103.606 16.1062 102.241 17.2475 100.748 18.2075ZM120.876 19.0075C120.684 19.0075 120.566 18.9009 120.524 18.6875C120.481 18.4742 120.438 18.1542 120.396 17.7275C120.374 17.2795 120.364 16.8209 120.364 16.3515C120.364 15.8822 120.364 15.5089 120.364 15.2315V9.95153L119.948 9.98353C119.137 10.0262 118.486 10.0795 117.996 10.1435C117.526 10.2075 117.121 10.2715 116.78 10.3355C116.438 10.3995 116.054 10.4742 115.628 10.5595C115.222 10.6449 114.87 10.6022 114.572 10.4315C114.422 10.3462 114.188 10.1862 113.868 9.95153C113.569 9.69553 113.409 9.5142 113.388 9.40753C113.366 9.30086 113.409 9.1622 113.516 8.99153C113.644 8.79953 113.782 8.72486 113.932 8.76753C114.294 8.8102 114.913 8.86353 115.788 8.92753C116.684 8.99153 117.836 8.9702 119.244 8.86353L120.364 8.76753V4.31953C120.364 3.67953 120.332 3.1782 120.268 2.81553C120.225 2.45286 120.086 2.14353 119.852 1.88753C119.638 1.63153 119.276 1.3542 118.764 1.05553C118.55 0.906197 118.497 0.714197 118.604 0.47953C118.796 0.159531 119.052 -0.000469208 119.372 -0.000469208C119.692 -0.000469208 120.118 0.116864 120.652 0.35153C121.185 0.586196 121.622 0.810196 121.964 1.02353C122.07 1.08753 122.166 1.17286 122.252 1.27953C122.337 1.3862 122.369 1.50353 122.348 1.63153C122.284 1.9942 122.241 2.35686 122.22 2.71953C122.198 3.0822 122.188 3.48753 122.188 3.93553V15.0075C122.188 15.3275 122.166 15.7115 122.124 16.1595C122.102 16.6075 122.038 17.0555 121.932 17.5035C121.846 17.9302 121.718 18.2929 121.548 18.5915C121.377 18.8689 121.153 19.0075 120.876 19.0075ZM143.88 30.1435C142.6 30.1435 141.469 29.9089 140.488 29.4395C139.528 28.9915 138.77 28.3622 138.216 27.5515C137.661 26.7622 137.384 25.8449 137.384 24.7995C137.384 23.7755 137.682 22.8582 138.28 22.0475C138.877 21.2155 139.677 20.5649 140.68 20.0955C141.682 19.6049 142.781 19.3595 143.976 19.3595C145.192 19.3595 146.29 19.5622 147.272 19.9675C148.274 20.3729 149.074 20.9702 149.672 21.7595C150.269 22.5489 150.546 23.5195 150.504 24.6715C150.504 25.7382 150.205 26.6875 149.608 27.5195C149.01 28.3515 148.21 28.9915 147.208 29.4395C146.205 29.9089 145.096 30.1435 143.88 30.1435ZM143.912 28.7035C145.234 28.7035 146.333 28.3515 147.208 27.6475C148.104 26.9435 148.573 25.9409 148.616 24.6395C148.658 23.8075 148.466 23.1035 148.04 22.5275C147.613 21.9302 147.037 21.4822 146.312 21.1835C145.608 20.8635 144.818 20.7035 143.944 20.7035C143.048 20.7035 142.248 20.8849 141.544 21.2475C140.84 21.5889 140.274 22.0689 139.848 22.6875C139.442 23.3062 139.24 23.9995 139.24 24.7675C139.24 25.9835 139.677 26.9435 140.552 27.6475C141.448 28.3515 142.568 28.7035 143.912 28.7035ZM127.944 17.5355C127.73 17.6422 127.506 17.6635 127.272 17.5995C127.058 17.5355 126.909 17.4289 126.824 17.2795C126.76 17.1089 126.845 16.9489 127.08 16.7995C127.89 16.3089 128.722 15.6475 129.576 14.8155C130.45 13.9835 131.293 13.0555 132.104 12.0315C132.936 11.0075 133.672 9.9622 134.312 8.89553C134.973 7.82886 135.485 6.81553 135.848 5.85553C136.21 4.91686 136.338 4.27686 136.232 3.93553C136.125 3.5942 135.922 3.32753 135.624 3.13553C135.346 2.96486 135.272 2.75153 135.4 2.49553C135.549 2.2182 135.709 2.0582 135.88 2.01553C136.072 1.97286 136.296 2.00486 136.552 2.11153C136.829 2.19686 137.16 2.35686 137.544 2.59153C137.928 2.80486 138.216 2.9862 138.408 3.13553C138.621 3.28486 138.77 3.44486 138.856 3.61553C138.941 3.7862 138.962 3.9142 138.92 3.99953C138.792 4.2342 138.664 4.4582 138.536 4.67153C138.408 4.86353 138.269 5.11953 138.12 5.43953C137.97 5.75953 137.757 6.2182 137.48 6.81553C137.309 7.22086 137.096 7.63686 136.84 8.06353C136.605 8.4902 136.338 8.91686 136.04 9.34353C137.277 10.5169 138.386 11.4129 139.368 12.0315C140.349 12.6289 141.181 13.1089 141.864 13.4715C142.162 13.7062 142.386 14.0795 142.536 14.5915C142.706 15.0822 142.76 15.5302 142.696 15.9355C142.61 16.1702 142.408 16.3622 142.088 16.5115C141.789 16.6609 141.608 16.6822 141.544 16.5755C141.202 16.0635 140.765 15.5195 140.232 14.9435C139.72 14.3462 139.165 13.7595 138.568 13.1835C137.992 12.5862 137.416 12.0422 136.84 11.5515C136.285 11.0395 135.805 10.6129 135.4 10.2715C134.696 11.2529 133.917 12.2235 133.064 13.1835C132.21 14.1222 131.346 14.9755 130.472 15.7435C129.597 16.4902 128.754 17.0875 127.944 17.5355ZM149.032 19.0075C148.84 19.0075 148.722 18.9009 148.68 18.6875C148.637 18.4742 148.594 18.1542 148.552 17.7275C148.53 17.2795 148.52 16.8209 148.52 16.3515C148.52 15.8822 148.52 15.5089 148.52 15.2315V8.89553L147.976 8.92753C147.165 8.9702 146.514 9.02353 146.024 9.08753C145.554 9.15153 145.149 9.21553 144.808 9.27953C144.466 9.34353 144.082 9.4182 143.656 9.50353C143.421 9.5462 143.229 9.56753 143.08 9.56753C142.952 9.5462 142.802 9.4822 142.632 9.37553C142.482 9.31153 142.248 9.17286 141.928 8.95953C141.629 8.72486 141.458 8.5542 141.416 8.44753C141.373 8.34086 141.416 8.19153 141.544 7.99953C141.672 7.80753 141.81 7.73286 141.96 7.77553C142.322 7.83953 142.941 7.89286 143.816 7.93553C144.712 7.9782 145.864 7.9462 147.272 7.83953L148.52 7.74353V4.31953C148.52 3.67953 148.488 3.1782 148.424 2.81553C148.381 2.45286 148.242 2.14353 148.008 1.88753C147.794 1.63153 147.432 1.3542 146.92 1.05553C146.706 0.906197 146.653 0.714197 146.76 0.47953C146.952 0.159531 147.208 -0.000469208 147.528 -0.000469208C147.848 -0.000469208 148.274 0.116864 148.808 0.35153C149.341 0.586196 149.778 0.810196 150.12 1.02353C150.226 1.08753 150.322 1.17286 150.408 1.27953C150.493 1.3862 150.525 1.50353 150.504 1.63153C150.44 1.9942 150.397 2.35686 150.376 2.71953C150.354 3.0822 150.344 3.48753 150.344 3.93553V15.0075C150.344 15.3275 150.322 15.7115 150.28 16.1595C150.258 16.6075 150.194 17.0555 150.088 17.5035C150.002 17.9302 149.874 18.2929 149.704 18.5915C149.533 18.8689 149.309 19.0075 149.032 19.0075ZM176.74 28.1915C176.569 28.2555 176.441 28.2555 176.356 28.1915C176.292 28.1275 176.249 28.0529 176.228 27.9675C176.185 27.7969 176.143 27.4769 176.1 27.0075C176.057 26.5382 176.025 26.0262 176.004 25.4715C176.004 24.9169 176.004 24.4369 176.004 24.0315V4.44753C176.004 3.7862 175.972 3.2742 175.908 2.91153C175.865 2.54886 175.727 2.2502 175.492 2.01553C175.257 1.75953 174.863 1.49286 174.308 1.21553C174.073 1.08753 174.031 0.895529 174.18 0.63953C174.287 0.426197 174.404 0.298197 174.532 0.255529C174.681 0.19153 174.852 0.170197 175.044 0.19153C175.3 0.212863 175.599 0.298197 175.94 0.447531C176.303 0.57553 176.644 0.714197 176.964 0.863529C177.284 1.01286 177.508 1.14086 177.636 1.24753C177.743 1.33286 177.839 1.42886 177.924 1.53553C178.009 1.6422 178.041 1.75953 178.02 1.88753C177.956 2.33553 177.903 2.75153 177.86 3.13553C177.839 3.51953 177.828 3.96753 177.828 4.47953V13.6315C178.959 13.6315 179.951 13.5462 180.804 13.3755C181.679 13.1835 182.287 13.0342 182.628 12.9275C182.863 12.8422 183.033 12.8315 183.14 12.8955C183.247 12.9595 183.353 13.0662 183.46 13.2155C183.545 13.3435 183.641 13.5675 183.748 13.8875C183.876 14.1862 183.94 14.3995 183.94 14.5275C183.94 14.6555 183.865 14.7729 183.716 14.8795C183.588 14.9862 183.503 15.0395 183.46 15.0395C182.671 14.9329 181.828 14.8795 180.932 14.8795C180.057 14.8582 179.215 14.8475 178.404 14.8475C178.319 14.8475 178.223 14.8475 178.116 14.8475C178.031 14.8475 177.935 14.8475 177.828 14.8475V23.9675C177.828 24.3942 177.796 24.9275 177.732 25.5675C177.668 26.1862 177.561 26.7622 177.412 27.2955C177.263 27.8075 177.039 28.1062 176.74 28.1915ZM158.756 21.5355C158.329 21.6635 158.009 21.7169 157.796 21.6955C157.583 21.6742 157.337 21.5889 157.06 21.4395C156.847 21.3115 156.537 21.1195 156.132 20.8635C155.748 20.5862 155.535 20.3729 155.492 20.2235C155.428 20.0955 155.449 19.9462 155.556 19.7755C155.663 19.5835 155.791 19.4875 155.94 19.4875C156.708 19.5729 157.551 19.6262 158.468 19.6475C159.385 19.6689 160.207 19.6582 160.932 19.6155L162.66 19.5195V15.2635C162.66 14.6449 162.607 14.0902 162.5 13.5995C162.415 13.0875 162.084 12.6715 161.508 12.3515C161.295 12.2235 161.263 12.0209 161.412 11.7435C161.625 11.4022 161.935 11.2635 162.34 11.3275C162.681 11.4342 162.991 11.5729 163.268 11.7435C163.545 11.8929 163.801 12.0635 164.036 12.2555C164.313 12.4689 164.441 12.6395 164.42 12.7675C164.335 13.0662 164.281 13.4182 164.26 13.8235C164.26 14.2289 164.249 14.6449 164.228 15.0715C164.228 15.3275 164.217 15.7222 164.196 16.2555C164.196 16.7889 164.185 17.3435 164.164 17.9195C164.143 18.4955 164.132 18.9862 164.132 19.3915C167.076 19.1355 169.401 18.8262 171.108 18.4635C172.836 18.0795 174.009 17.7915 174.628 17.5995C174.884 17.5142 175.055 17.5462 175.14 17.6955C175.225 17.8235 175.225 17.9942 175.14 18.2075C175.055 18.3995 174.884 18.5595 174.628 18.6875C173.945 18.9435 172.751 19.2635 171.044 19.6475C169.359 20.0102 167.023 20.3729 164.036 20.7355C163.481 20.7782 162.863 20.8422 162.18 20.9275C161.497 21.0129 160.847 21.1089 160.228 21.2155C159.631 21.3009 159.14 21.4075 158.756 21.5355ZM169.06 15.6795C168.911 15.7009 168.804 15.6689 168.74 15.5835C168.697 15.4769 168.708 15.2422 168.772 14.8795C168.857 14.2822 168.975 13.4715 169.124 12.4475C169.273 11.4235 169.423 10.3142 169.572 9.11953C169.721 7.90353 169.839 6.7622 169.924 5.69553C169.945 5.52486 169.903 5.42886 169.796 5.40753C169.711 5.36486 169.647 5.34353 169.604 5.34353C169.583 5.34353 169.572 5.34353 169.572 5.34353C169.231 5.34353 168.761 5.36486 168.164 5.40753C167.567 5.42886 166.969 5.46086 166.372 5.50353C165.775 5.52486 165.305 5.55686 164.964 5.59953C164.047 5.66353 163.204 5.72753 162.436 5.79153C161.689 5.85553 161.007 5.97286 160.388 6.14353C159.983 6.22886 159.705 6.2502 159.556 6.20753C159.407 6.14353 159.236 6.04753 159.044 5.91953C159.023 5.8982 159.012 5.88753 159.012 5.88753C158.543 5.4822 158.212 5.15153 158.02 4.89553C157.956 4.78886 157.988 4.6502 158.116 4.47953C158.265 4.28753 158.404 4.21286 158.532 4.25553C158.959 4.3622 159.524 4.43686 160.228 4.47953C160.932 4.50086 161.679 4.50086 162.468 4.47953C163.279 4.4582 164.015 4.43686 164.676 4.41553C165.316 4.37286 165.967 4.31953 166.628 4.25553C167.311 4.19153 167.94 4.11686 168.516 4.03153C169.113 3.92486 169.583 3.8182 169.924 3.71153C170.052 3.6262 170.212 3.6262 170.404 3.71153L172.1 4.25553C172.335 4.3622 172.388 4.56486 172.26 4.86353C172.175 5.14086 172.089 5.49286 172.004 5.91953C171.919 6.32486 171.844 6.71953 171.78 7.10353C171.716 7.4662 171.663 7.73286 171.62 7.90353C171.471 8.7142 171.311 9.58886 171.14 10.5275C170.991 11.4662 170.767 12.5115 170.468 13.6635C170.297 14.3462 170.095 14.8475 169.86 15.1675C169.647 15.4662 169.38 15.6369 169.06 15.6795ZM78.222 63.3755C76.942 63.3969 75.7793 63.1515 74.734 62.6395C73.6887 62.1275 72.8567 61.4022 72.238 60.4635C71.6193 59.5035 71.31 58.4155 71.31 57.1995C71.31 56.0049 71.6193 54.9382 72.238 53.9995C72.8567 53.0395 73.6887 52.2715 74.734 51.6955C75.8007 51.1195 76.974 50.8209 78.254 50.7995C79.534 50.7569 80.686 50.9702 81.71 51.4395C82.7553 51.9089 83.5873 52.6022 84.206 53.5195C84.8247 54.4369 85.134 55.5675 85.134 56.9115C85.134 58.1275 84.8247 59.2262 84.206 60.2075C83.5873 61.1675 82.7553 61.9249 81.71 62.4795C80.6647 63.0342 79.502 63.3329 78.222 63.3755ZM78.254 61.7755C79.1927 61.7329 80.0353 61.5089 80.782 61.1035C81.5287 60.6769 82.1153 60.1115 82.542 59.4075C82.99 58.6822 83.214 57.8609 83.214 56.9435C83.214 55.9409 82.99 55.0875 82.542 54.3835C82.094 53.6795 81.4967 53.1462 80.75 52.7835C80.0033 52.3995 79.1713 52.2289 78.254 52.2715C77.3367 52.2715 76.494 52.4955 75.726 52.9435C74.958 53.3702 74.3393 53.9569 73.87 54.7035C73.422 55.4289 73.198 56.2502 73.198 57.1675C73.198 58.1275 73.422 58.9702 73.87 59.6955C74.3393 60.3995 74.958 60.9329 75.726 61.2955C76.494 61.6582 77.3367 61.8182 78.254 61.7755ZM91.31 74.2235C91.0753 74.2235 90.9473 74.1169 90.926 73.9035C90.9047 73.7329 90.8727 73.4235 90.83 72.9755C90.8087 72.5062 90.7873 72.0049 90.766 71.4715C90.7447 70.9169 90.734 70.4369 90.734 70.0315V50.4155C90.734 49.7542 90.702 49.2422 90.638 48.8795C90.5953 48.5169 90.4567 48.2182 90.222 47.9835C90.0087 47.7275 89.6247 47.4609 89.07 47.1835C88.8993 47.0769 88.814 46.9702 88.814 46.8635C88.814 46.7569 88.8887 46.6182 89.038 46.4475C89.1873 46.2555 89.3473 46.1595 89.518 46.1595C89.774 46.1595 90.094 46.2235 90.478 46.3515C90.862 46.4795 91.2353 46.6289 91.598 46.7995C91.9607 46.9489 92.2273 47.0875 92.398 47.2155C92.654 47.4075 92.7713 47.6209 92.75 47.8555C92.686 48.3035 92.6327 48.7195 92.59 49.1035C92.5687 49.4875 92.558 49.9355 92.558 50.4475V69.9675C92.558 70.3089 92.5367 70.7249 92.494 71.2155C92.4727 71.6849 92.4193 72.1542 92.334 72.6235C92.2487 73.0715 92.1207 73.4449 91.95 73.7435C91.8007 74.0635 91.5873 74.2235 91.31 74.2235ZM105.746 63.3755C104.487 63.3969 103.324 63.1515 102.258 62.6395C101.212 62.1275 100.38 61.4022 99.7618 60.4635C99.1431 59.5035 98.8338 58.4155 98.8338 57.1995C98.8338 56.0049 99.1431 54.9382 99.7618 53.9995C100.38 53.0395 101.212 52.2715 102.258 51.6955C103.324 51.1195 104.498 50.8209 105.778 50.7995C107.058 50.7569 108.21 50.9702 109.234 51.4395C110.279 51.9089 111.111 52.6022 111.73 53.5195C112.348 54.4369 112.658 55.5675 112.658 56.9115C112.658 58.1275 112.348 59.2262 111.73 60.2075C111.111 61.1675 110.279 61.9249 109.234 62.4795C108.188 63.0342 107.026 63.3329 105.746 63.3755ZM105.778 61.7755C106.716 61.7329 107.559 61.5089 108.306 61.1035C109.052 60.6769 109.639 60.1115 110.066 59.4075C110.514 58.6822 110.738 57.8609 110.738 56.9435C110.738 55.9409 110.514 55.0875 110.066 54.3835C109.618 53.6795 109.02 53.1462 108.274 52.7835C107.527 52.3995 106.695 52.2289 105.778 52.2715C104.86 52.2715 104.018 52.4955 103.25 52.9435C102.482 53.3702 101.863 53.9569 101.394 54.7035C100.946 55.4289 100.722 56.2502 100.722 57.1675C100.722 58.1275 100.946 58.9702 101.394 59.6955C101.863 60.3995 102.482 60.9329 103.25 61.2955C104.018 61.6582 104.86 61.8182 105.778 61.7755ZM118.514 74.2235C118.279 74.2235 118.151 74.1169 118.13 73.9035C118.108 73.7329 118.076 73.4235 118.034 72.9755C118.012 72.5062 117.991 72.0049 117.97 71.4715C117.948 70.9169 117.938 70.4369 117.938 70.0315V50.4155C117.938 49.7542 117.906 49.2422 117.842 48.8795C117.799 48.5169 117.66 48.2182 117.426 47.9835C117.212 47.7275 116.828 47.4609 116.274 47.1835C116.103 47.0769 116.018 46.9702 116.018 46.8635C116.018 46.7569 116.092 46.6182 116.242 46.4475C116.391 46.2555 116.551 46.1595 116.722 46.1595C116.978 46.1595 117.298 46.2235 117.682 46.3515C118.066 46.4795 118.439 46.6289 118.802 46.7995C119.164 46.9489 119.431 47.0875 119.602 47.2155C119.858 47.4075 119.975 47.6209 119.954 47.8555C119.89 48.3035 119.836 48.7195 119.794 49.1035C119.772 49.4875 119.762 49.9355 119.762 50.4475V54.5435C120.871 54.5222 121.852 54.4049 122.706 54.1915C123.559 53.9569 124.156 53.7862 124.498 53.6795C124.562 53.6582 124.615 53.6475 124.658 53.6475C124.722 53.6262 124.775 53.6155 124.818 53.6155C125.031 53.6155 125.202 53.7329 125.33 53.9675C125.415 54.1169 125.5 54.3302 125.586 54.6075C125.692 54.8849 125.746 55.0982 125.746 55.2475C125.746 55.3755 125.671 55.4929 125.522 55.5995C125.394 55.6849 125.308 55.7275 125.266 55.7275C124.924 55.6849 124.583 55.6635 124.242 55.6635C123.922 55.6635 123.591 55.6635 123.25 55.6635C122.674 55.6635 122.098 55.6742 121.522 55.6955C120.946 55.6955 120.359 55.7062 119.762 55.7275V61.9675C120.892 61.9675 121.884 61.8929 122.738 61.7435C123.612 61.5942 124.22 61.4662 124.562 61.3595C124.626 61.3382 124.679 61.3275 124.722 61.3275C124.786 61.3062 124.839 61.2955 124.882 61.2955C125.01 61.2955 125.106 61.3275 125.17 61.3915C125.234 61.4555 125.298 61.5409 125.362 61.6475C125.468 61.7755 125.575 61.9995 125.682 62.3195C125.81 62.6182 125.874 62.8315 125.874 62.9595C125.874 63.0875 125.799 63.2049 125.65 63.3115C125.522 63.4182 125.426 63.4715 125.362 63.4715C124.487 63.3649 123.57 63.2902 122.61 63.2475C121.65 63.2049 120.7 63.1835 119.762 63.1835V69.9675C119.762 70.3089 119.74 70.7249 119.698 71.2155C119.676 71.6849 119.623 72.1542 119.538 72.6235C119.452 73.0715 119.324 73.4449 119.154 73.7435C119.004 74.0635 118.791 74.2235 118.514 74.2235ZM129.12 68.7835C128.842 68.9115 128.576 68.9435 128.32 68.8795C128.064 68.7942 127.904 68.6662 127.84 68.4955C127.776 68.3035 127.904 68.1222 128.224 67.9515C129.525 67.1835 130.826 66.2235 132.128 65.0715C133.45 63.9195 134.688 62.6502 135.84 61.2635C136.992 59.8769 137.973 58.4155 138.784 56.8795C139.616 55.3435 140.192 53.8075 140.512 52.2715C140.554 52.0582 140.512 51.9409 140.384 51.9195C140.256 51.8769 140.17 51.8555 140.128 51.8555C139.786 51.8555 139.296 51.8769 138.656 51.9195C138.016 51.9409 137.365 51.9729 136.704 52.0155C136.064 52.0369 135.573 52.0689 135.232 52.1115C134.293 52.1969 133.546 52.2609 132.992 52.3035C132.437 52.3462 131.84 52.4315 131.2 52.5595C130.858 52.6235 130.613 52.6342 130.464 52.5915C130.336 52.5489 130.186 52.4422 130.016 52.2715C129.568 51.8235 129.258 51.4502 129.088 51.1515C129.024 51.0449 129.045 50.9062 129.152 50.7355C129.258 50.5649 129.376 50.5009 129.504 50.5435C130.122 50.6715 130.944 50.7675 131.968 50.8315C132.992 50.8742 134.005 50.8635 135.008 50.7995C135.626 50.7569 136.288 50.7142 136.992 50.6715C137.696 50.6075 138.357 50.5222 138.976 50.4155C139.616 50.3089 140.117 50.1915 140.48 50.0635C140.48 50.0635 140.49 50.0635 140.512 50.0635C140.597 50.0422 140.661 50.0315 140.704 50.0315C140.768 50.0315 140.853 50.0422 140.96 50.0635L142.976 50.7035C143.061 50.7462 143.125 50.8209 143.168 50.9275C143.21 51.0342 143.2 51.1515 143.135 51.2795L142.496 53.0715C141.962 54.6075 141.216 56.1542 140.256 57.7115C139.296 59.2689 138.197 60.7622 136.96 62.1915C135.744 63.6209 134.464 64.9115 133.12 66.0635C131.776 67.1942 130.442 68.1009 129.12 68.7835ZM148.608 74.2235C148.373 74.2235 148.245 74.1169 148.224 73.9035C148.202 73.7329 148.17 73.4235 148.128 72.9755C148.106 72.5062 148.085 72.0049 148.064 71.4715C148.042 70.9169 148.032 70.4369 148.032 70.0315V50.4155C148.032 49.7542 148 49.2422 147.936 48.8795C147.893 48.5169 147.754 48.2182 147.52 47.9835C147.306 47.7275 146.922 47.4609 146.368 47.1835C146.197 47.0769 146.112 46.9702 146.112 46.8635C146.112 46.7569 146.186 46.6182 146.336 46.4475C146.485 46.2555 146.645 46.1595 146.816 46.1595C147.072 46.1595 147.392 46.2235 147.776 46.3515C148.16 46.4795 148.533 46.6289 148.896 46.7995C149.258 46.9489 149.525 47.0875 149.696 47.2155C149.952 47.4075 150.069 47.6209 150.048 47.8555C149.984 48.3035 149.93 48.7195 149.888 49.1035C149.866 49.4875 149.856 49.9355 149.856 50.4475V69.9675C149.856 70.3089 149.834 70.7249 149.792 71.2155C149.77 71.6849 149.717 72.1542 149.632 72.6235C149.546 73.0715 149.418 73.4449 149.248 73.7435C149.098 74.0635 148.885 74.2235 148.608 74.2235ZM163.411 57.6155C162.963 57.6155 162.6 57.4662 162.323 57.1675C162.067 56.8475 161.939 56.3462 161.939 55.6635V54.0635C161.939 53.9355 161.918 53.8182 161.875 53.7115C161.854 53.6049 161.79 53.5089 161.683 53.4235C161.47 53.3169 161.256 53.1889 161.043 53.0395C160.83 52.8689 160.702 52.7302 160.659 52.6235C160.574 52.5169 160.606 52.3462 160.755 52.1115C160.904 51.8555 161.043 51.7489 161.171 51.7915C161.534 51.8769 161.907 51.9409 162.291 51.9835C162.696 52.0262 163.166 52.0475 163.699 52.0475C163.976 52.0475 164.467 52.0475 165.171 52.0475C165.875 52.0262 166.686 52.0049 167.603 51.9835C168.52 51.9409 169.438 51.8982 170.355 51.8555C171.294 51.8129 172.136 51.7702 172.883 51.7275C173.651 51.6635 174.227 51.5889 174.611 51.5035C174.654 51.3755 174.686 51.1409 174.707 50.7995C174.75 50.4582 174.782 50.0849 174.803 49.6795C174.846 49.2742 174.867 48.9329 174.867 48.6555C174.867 48.4849 174.835 48.3889 174.771 48.3675C174.728 48.3462 174.686 48.3355 174.643 48.3355C174.622 48.3355 174.611 48.3355 174.611 48.3355C174.59 48.3355 174.067 48.3569 173.043 48.3995C172.019 48.4422 170.76 48.5062 169.267 48.5915C167.987 48.6769 166.75 48.7622 165.555 48.8475C164.382 48.9115 163.518 49.0075 162.963 49.1355C162.728 49.1995 162.536 49.2209 162.387 49.1995C162.238 49.1569 162.078 49.0822 161.907 48.9755C161.736 48.8689 161.534 48.6982 161.299 48.4635C161.064 48.2289 160.926 48.0582 160.883 47.9515C160.84 47.8449 160.883 47.7062 161.011 47.5355C161.16 47.3649 161.31 47.3009 161.459 47.3435C161.715 47.4289 162.11 47.4929 162.643 47.5355C163.198 47.5569 163.816 47.5782 164.499 47.5995C165.203 47.5995 165.886 47.5995 166.547 47.5995C167.23 47.5782 167.816 47.5569 168.307 47.5355C169.032 47.4929 169.811 47.4502 170.643 47.4075C171.496 47.3649 172.296 47.3009 173.043 47.2155C173.79 47.1089 174.366 46.9915 174.771 46.8635C174.942 46.7569 175.144 46.7462 175.379 46.8315L176.979 47.2475C177.235 47.3542 177.299 47.5142 177.171 47.7275C177.128 47.8129 177.043 48.0155 176.915 48.3355C176.808 48.6342 176.691 48.9862 176.563 49.3915C176.435 49.7969 176.307 50.1809 176.179 50.5435C176.072 50.9062 175.998 51.1835 175.955 51.3755C176.147 51.4609 176.36 51.5889 176.595 51.7595C176.851 51.9302 176.979 52.0689 176.979 52.1755C176.979 52.3462 176.894 52.5275 176.723 52.7195C176.574 52.9115 176.467 52.9969 176.403 52.9755C176.104 52.9329 175.571 52.9115 174.803 52.9115C174.035 52.8902 173.139 52.8902 172.115 52.9115C171.112 52.9329 170.078 52.9649 169.011 53.0075C167.944 53.0502 166.952 53.1035 166.035 53.1675C165.118 53.2102 164.371 53.2529 163.795 53.2955V55.5035C163.795 55.9302 163.848 56.2075 163.955 56.3355C164.062 56.4422 164.328 56.4955 164.755 56.4955C165.651 56.4955 166.44 56.4955 167.123 56.4955C167.806 56.4742 168.488 56.4422 169.171 56.3995C169.875 56.3569 170.664 56.3142 171.539 56.2715C172.798 56.1862 173.8 56.0902 174.547 55.9835C175.294 55.8769 175.944 55.7382 176.499 55.5675C176.776 55.4822 176.979 55.4502 177.107 55.4715C177.235 55.4715 177.363 55.5569 177.491 55.7275C177.747 56.0049 177.928 56.3142 178.035 56.6555C178.056 56.7835 177.982 56.9222 177.811 57.0715C177.64 57.2209 177.512 57.2955 177.427 57.2955C176.467 57.2742 175.518 57.2849 174.579 57.3275C173.662 57.3489 172.776 57.3702 171.923 57.3915C171.795 57.3915 171.656 57.4022 171.507 57.4235C171.379 57.4235 171.251 57.4235 171.123 57.4235C169.907 57.4662 168.627 57.5089 167.283 57.5515C165.939 57.5942 164.648 57.6155 163.411 57.6155ZM165.555 75.5035C164.616 75.5249 163.912 75.3435 163.443 74.9595C162.995 74.5969 162.771 73.9462 162.771 73.0075V71.5675C162.771 71.4182 162.76 71.3009 162.739 71.2155C162.739 71.1302 162.686 71.0662 162.579 71.0235C162.344 70.9169 162.088 70.7675 161.811 70.5755C161.555 70.3622 161.395 70.2022 161.331 70.0955C161.267 69.9889 161.288 69.8289 161.395 69.6155C161.523 69.3809 161.651 69.2849 161.779 69.3275C162.44 69.4769 163.315 69.5729 164.403 69.6155C164.787 69.6155 165.331 69.6155 166.035 69.6155C166.739 69.6155 167.518 69.6049 168.371 69.5835C169.224 69.5622 170.078 69.5409 170.931 69.5195C171.784 69.4769 172.563 69.4342 173.267 69.3915C173.971 69.3489 174.515 69.3062 174.899 69.2635C174.92 69.1569 174.942 68.9435 174.963 68.6235C175.006 68.3035 175.038 67.9515 175.059 67.5675C175.102 67.1622 175.123 66.8102 175.123 66.5115C175.123 66.3622 175.091 66.2769 175.027 66.2555C174.984 66.2342 174.942 66.2235 174.899 66.2235L167.155 66.5755C166.408 66.5969 165.683 66.6502 164.979 66.7355C164.275 66.7995 163.838 66.8529 163.667 66.8955C163.432 66.9382 163.24 66.9595 163.091 66.9595C162.942 66.9382 162.782 66.8635 162.611 66.7355C162.44 66.6075 162.238 66.4475 162.003 66.2555C161.79 66.0422 161.662 65.8822 161.619 65.7755C161.598 65.6689 161.651 65.5302 161.779 65.3595C161.907 65.1675 162.046 65.0929 162.195 65.1355C162.664 65.2422 163.315 65.3169 164.147 65.3595C164.979 65.4022 165.726 65.4235 166.387 65.4235C166.856 65.4235 167.486 65.4235 168.275 65.4235C169.086 65.4022 169.928 65.3702 170.803 65.3275C171.699 65.2635 172.52 65.1995 173.267 65.1355C174.035 65.0502 174.611 64.9435 174.995 64.8155C175.08 64.7729 175.155 64.7409 175.219 64.7195C175.304 64.6982 175.4 64.7089 175.507 64.7515L176.979 65.1355C177.214 65.2209 177.278 65.3809 177.171 65.6155C177.128 65.7435 177.032 66.0422 176.883 66.5115C176.755 66.9595 176.627 67.4289 176.499 67.9195C176.371 68.4102 176.275 68.7835 176.211 69.0395C176.382 69.1462 176.595 69.2742 176.851 69.4235C177.128 69.5729 177.267 69.7115 177.267 69.8395C177.267 70.0102 177.182 70.1915 177.011 70.3835C176.862 70.5755 176.755 70.6609 176.691 70.6395C176.435 70.6182 175.944 70.6075 175.219 70.6075C174.494 70.5862 173.651 70.5755 172.691 70.5755C171.731 70.5755 170.728 70.5862 169.683 70.6075C168.659 70.6289 167.699 70.6609 166.803 70.7035C165.907 70.7462 165.171 70.7889 164.595 70.8315V72.7835C164.595 73.4235 164.67 73.8182 164.819 73.9675C164.968 74.1169 165.256 74.2022 165.683 74.2235C165.747 74.2235 165.886 74.2235 166.099 74.2235C166.526 74.2235 167.102 74.2235 167.827 74.2235C168.574 74.2235 169.384 74.2129 170.259 74.1915C171.134 74.1702 171.976 74.1382 172.787 74.0955C173.896 74.0529 174.792 73.9782 175.475 73.8715C176.158 73.7862 176.744 73.6582 177.235 73.4875C177.491 73.3809 177.683 73.3489 177.811 73.3915C177.939 73.4342 178.078 73.5195 178.227 73.6475C178.355 73.7969 178.483 73.9782 178.611 74.1915C178.739 74.4049 178.814 74.5649 178.835 74.6715C178.856 74.8209 178.782 74.9809 178.611 75.1515C178.44 75.3222 178.323 75.4075 178.259 75.4075C177.384 75.3649 176.616 75.3435 175.955 75.3435C175.294 75.3435 174.6 75.3435 173.875 75.3435C173.683 75.3435 173.48 75.3435 173.267 75.3435C173.075 75.3435 172.872 75.3435 172.659 75.3435C171.571 75.3435 170.376 75.3649 169.075 75.4075C167.774 75.4715 166.6 75.5035 165.555 75.5035ZM157.395 63.1195C157.182 63.1195 156.947 63.0235 156.691 62.8315C156.584 62.7462 156.424 62.6182 156.211 62.4475C156.019 62.2555 155.838 62.0742 155.667 61.9035C155.496 61.7115 155.39 61.5835 155.347 61.5195C155.304 61.4129 155.326 61.2742 155.411 61.1035C155.518 60.9329 155.646 60.8475 155.795 60.8475C156.414 60.9542 157.15 61.0502 158.003 61.1355C158.878 61.1995 159.966 61.2315 161.267 61.2315C162.056 61.2315 163.048 61.2209 164.243 61.1995C165.459 61.1569 166.75 61.1142 168.115 61.0715C169.502 61.0289 170.846 60.9862 172.147 60.9435C173.47 60.8795 174.632 60.8155 175.635 60.7515C176.19 60.7089 176.819 60.6662 177.523 60.6235C178.248 60.5595 178.931 60.4849 179.571 60.3995C180.211 60.3142 180.691 60.2395 181.011 60.1755C181.374 60.0902 181.619 60.0262 181.747 59.9835C181.896 59.9409 182.024 59.9195 182.131 59.9195C182.28 59.9195 182.451 60.0475 182.643 60.3035C182.75 60.4742 182.856 60.6769 182.963 60.9115C183.091 61.1249 183.155 61.3062 183.155 61.4555C183.155 61.6475 183.07 61.7969 182.899 61.9035C182.75 62.0102 182.654 62.0635 182.611 62.0635C182.248 62.0209 181.822 61.9995 181.331 61.9995C180.84 61.9782 180.36 61.9675 179.891 61.9675C179.443 61.9462 179.07 61.9355 178.771 61.9355C178.259 61.9355 177.555 61.9462 176.659 61.9675C175.784 61.9889 174.803 62.0209 173.715 62.0635C172.627 62.0849 171.518 62.1169 170.387 62.1595C169.256 62.2022 168.168 62.2449 167.123 62.2875C166.099 62.3302 165.203 62.3729 164.435 62.4155C163.688 62.4369 163.144 62.4582 162.803 62.4795C162.163 62.5009 161.512 62.5542 160.851 62.6395C160.19 62.7035 159.592 62.7782 159.059 62.8635C158.547 62.9275 158.195 62.9809 158.003 63.0235C157.918 63.0449 157.822 63.0662 157.715 63.0875C157.608 63.1089 157.502 63.1195 157.395 63.1195ZM1.34425 110.656C1.08825 110.826 0.83225 110.89 0.57625 110.848C0.32025 110.805 0.16025 110.698 0.0962501 110.528C0.0322501 110.357 0.138917 110.176 0.41625 109.984C1.63225 109.13 2.74158 108.16 3.74425 107.072C4.74692 105.962 5.61092 104.842 6.33625 103.712C7.08292 102.56 7.66958 101.504 8.09625 100.544C8.54425 99.5835 8.80025 98.8155 8.86425 98.2395C8.88558 98.0262 8.83225 97.8342 8.70425 97.6635C8.59758 97.4715 8.33092 97.3222 7.90425 97.2155C7.66958 97.2369 7.28558 97.2902 6.75225 97.3755C6.21892 97.4395 5.67492 97.5035 5.12025 97.5675C4.56558 97.6315 4.11758 97.6955 3.77625 97.7595C3.37092 97.8235 3.09358 97.8342 2.94425 97.7915C2.81625 97.7275 2.67758 97.6209 2.52825 97.4715C2.40025 97.3435 2.25092 97.1835 2.08025 96.9915C1.93092 96.7782 1.80292 96.5969 1.69625 96.4475C1.63225 96.3409 1.65358 96.2129 1.76025 96.0635C1.86692 95.8929 1.99492 95.8182 2.14425 95.8395C2.78425 95.9249 3.48825 95.9889 4.25625 96.0315C5.04558 96.0742 5.83492 96.0955 6.62425 96.0955C7.41358 96.0742 8.11758 96.0529 8.73625 96.0315C9.88825 95.9675 10.9976 95.8715 12.0643 95.7435C13.1523 95.6155 14.1123 95.4449 14.9443 95.2315C15.1789 95.1675 15.3496 95.1675 15.4563 95.2315C15.5629 95.2742 15.6589 95.3702 15.7443 95.5195C15.8296 95.6689 15.9149 95.8715 16.0003 96.1275C16.1069 96.3622 16.1603 96.5542 16.1603 96.7035C16.1603 96.8315 16.0856 96.9489 15.9363 97.0555C15.8083 97.1409 15.7123 97.1835 15.6483 97.1835C14.9016 97.1409 14.0483 97.1089 13.0883 97.0875C12.1496 97.0662 11.0083 97.0769 9.66425 97.1195C10.0269 97.2902 10.3469 97.4822 10.6243 97.6955C10.9229 97.9089 11.0509 98.1115 11.0083 98.3035C10.9443 98.7942 10.7416 99.4022 10.4003 100.128C10.0589 100.853 9.61092 101.653 9.05625 102.528C9.99492 103.445 11.0189 104.277 12.1283 105.024C13.2589 105.749 14.2083 106.304 14.9763 106.688C15.2109 106.901 15.3923 107.253 15.5203 107.744C15.6696 108.234 15.7016 108.714 15.6163 109.184C15.5309 109.397 15.3176 109.557 14.9763 109.664C14.6563 109.749 14.4749 109.749 14.4323 109.664C14.0269 109.002 13.4723 108.288 12.7683 107.52C12.0643 106.73 11.3283 105.962 10.5603 105.216C9.79225 104.469 9.09892 103.85 8.48025 103.36C7.56292 104.661 6.49625 105.984 5.28025 107.328C4.08558 108.65 2.77358 109.76 1.34425 110.656ZM21.3443 114.304C21.1523 114.304 21.0349 114.197 20.9923 113.984C20.9496 113.77 20.9069 113.429 20.8643 112.96C20.8429 112.49 20.8323 112.01 20.8323 111.52C20.8323 111.029 20.8323 110.645 20.8323 110.368V102.56H20.6083C19.7976 102.602 19.1469 102.656 18.6562 102.72C18.1869 102.784 17.7816 102.848 17.4403 102.912C17.0989 102.976 16.7149 103.05 16.2882 103.136C15.8829 103.221 15.5309 103.178 15.2323 103.008C15.0829 102.922 14.8483 102.762 14.5283 102.528C14.2296 102.272 14.0696 102.09 14.0483 101.984C14.0269 101.877 14.0696 101.738 14.1763 101.568C14.3043 101.376 14.4429 101.301 14.5923 101.344C14.9549 101.386 15.5736 101.44 16.4483 101.504C17.3443 101.568 18.4963 101.546 19.9043 101.44L20.8323 101.376V96.3195C20.8323 95.6795 20.8003 95.1782 20.7363 94.8155C20.6936 94.4529 20.5656 94.1435 20.3523 93.8875C20.1389 93.6315 19.7763 93.3542 19.2643 93.0555C19.0296 92.8849 18.9763 92.6929 19.1043 92.4795C19.2963 92.1595 19.5416 91.9995 19.8403 91.9995C20.1603 91.9995 20.5869 92.1169 21.1203 92.3515C21.6749 92.5862 22.1229 92.8102 22.4643 93.0235C22.7203 93.1729 22.8376 93.3755 22.8163 93.6315C22.7523 93.9942 22.7096 94.3569 22.6883 94.7195C22.6669 95.0822 22.6563 95.4875 22.6563 95.9355V110.144C22.6563 110.442 22.6349 110.826 22.5923 111.296C22.5709 111.744 22.5176 112.202 22.4323 112.672C22.3469 113.141 22.2189 113.536 22.0483 113.856C21.8776 114.154 21.6429 114.304 21.3443 114.304ZM11.9363 121.184C10.8696 121.184 10.0803 120.906 9.56825 120.352C9.05625 119.797 8.80025 119.029 8.80025 118.048V115.936C8.80025 115.253 8.73625 114.73 8.60825 114.368C8.48025 114.005 8.13892 113.706 7.58425 113.472C7.45625 113.429 7.37092 113.344 7.32825 113.216C7.30692 113.088 7.30692 112.97 7.32825 112.864C7.47758 112.437 7.75492 112.256 8.16025 112.32C8.50158 112.362 8.88558 112.48 9.31225 112.672C9.73892 112.842 10.1123 113.024 10.4323 113.216C10.7096 113.386 10.8269 113.557 10.7843 113.728C10.7629 113.877 10.7309 114.144 10.6883 114.528C10.6456 114.912 10.6243 115.285 10.6243 115.648V117.888C10.6243 118.634 10.7523 119.146 11.0083 119.424C11.2856 119.68 11.6483 119.829 12.0963 119.872C12.3523 119.893 12.7576 119.904 13.3123 119.904C13.8883 119.904 14.5176 119.893 15.2003 119.872C15.8829 119.85 16.5443 119.829 17.1843 119.808C17.8456 119.786 18.3789 119.765 18.7843 119.744C19.8936 119.68 20.8323 119.573 21.6003 119.424C22.3896 119.274 22.9656 119.146 23.3283 119.04C23.7976 118.89 24.1283 118.954 24.3203 119.232C24.4269 119.402 24.5443 119.605 24.6723 119.84C24.8003 120.074 24.8749 120.266 24.8963 120.416C24.9176 120.565 24.8429 120.704 24.6723 120.832C24.5229 120.981 24.4056 121.056 24.3203 121.056C23.5736 121.013 22.9336 120.981 22.4003 120.96C21.8669 120.96 21.3016 120.96 20.7043 120.96C20.1069 120.981 19.3389 121.013 18.4003 121.056C17.3123 121.098 16.2243 121.13 15.1363 121.152C14.0483 121.173 12.9816 121.184 11.9363 121.184ZM38.7165 121.376C37.7778 121.397 37.0738 121.194 36.6045 120.768C36.1565 120.362 35.9325 119.68 35.9325 118.72V117.024C35.9325 116.768 35.8685 116.597 35.7405 116.512C35.5698 116.405 35.3458 116.256 35.0685 116.064C34.8125 115.85 34.6312 115.69 34.5245 115.584C34.4392 115.498 34.4605 115.349 34.5885 115.136C34.7165 114.901 34.8445 114.794 34.9725 114.816C35.7192 114.986 36.5938 115.082 37.5965 115.104C37.9592 115.125 38.4712 115.136 39.1325 115.136C39.8152 115.114 40.5725 115.093 41.4045 115.072C42.2578 115.029 43.1005 114.997 43.9325 114.976C44.7645 114.933 45.5218 114.89 46.2045 114.848C46.9085 114.784 47.4418 114.73 47.8045 114.688C47.8258 114.56 47.8578 114.304 47.9005 113.92C47.9432 113.514 47.9858 113.088 48.0285 112.64C48.0712 112.17 48.0925 111.786 48.0925 111.488C48.0925 111.338 48.0605 111.253 47.9965 111.232C47.9538 111.21 47.9112 111.2 47.8685 111.2L40.1885 111.552C39.3778 111.594 38.7165 111.637 38.2045 111.68C37.6925 111.722 37.2232 111.786 36.7965 111.872C36.5618 111.914 36.3698 111.936 36.2205 111.936C36.0712 111.914 35.9112 111.85 35.7405 111.744C35.5698 111.637 35.3672 111.488 35.1325 111.296C34.8978 111.082 34.7592 110.922 34.7165 110.816C34.6952 110.709 34.7485 110.57 34.8765 110.4C35.0045 110.208 35.1432 110.133 35.2925 110.176C35.5272 110.24 35.8898 110.293 36.3805 110.336C36.8712 110.378 37.4045 110.41 37.9805 110.432C38.5778 110.432 39.1218 110.421 39.6125 110.4C40.2098 110.378 40.9138 110.357 41.7245 110.336C42.5565 110.293 43.3885 110.25 44.2205 110.208C45.0525 110.165 45.7992 110.112 46.4605 110.048C47.1432 109.962 47.6445 109.866 47.9645 109.76C47.9645 109.76 47.9752 109.76 47.9965 109.76C48.0605 109.717 48.1245 109.696 48.1885 109.696C48.2738 109.674 48.3698 109.674 48.4765 109.696L49.9485 110.144C50.1832 110.229 50.2472 110.389 50.1405 110.624C50.0978 110.73 50.0232 110.954 49.9165 111.296C49.8312 111.616 49.7352 111.989 49.6285 112.416C49.5218 112.842 49.4152 113.248 49.3085 113.632C49.2232 114.016 49.1592 114.304 49.1165 114.496C49.2872 114.581 49.5005 114.709 49.7565 114.88C50.0338 115.029 50.1725 115.168 50.1725 115.296C50.1725 115.466 50.0872 115.648 49.9165 115.84C49.7672 116.032 49.6605 116.117 49.5965 116.096C49.3405 116.074 48.8605 116.064 48.1565 116.064C47.4525 116.042 46.6205 116.042 45.6605 116.064C44.7218 116.064 43.7405 116.085 42.7165 116.128C41.7138 116.149 40.7752 116.181 39.9005 116.224C39.0258 116.266 38.3112 116.309 37.7565 116.352V118.528C37.7565 119.232 37.8418 119.669 38.0125 119.84C38.2045 120.01 38.5138 120.096 38.9405 120.096C39.0045 120.096 39.1432 120.096 39.3565 120.096C39.7832 120.096 40.3485 120.096 41.0525 120.096C41.7778 120.096 42.5565 120.085 43.3885 120.064C44.2418 120.042 45.0738 120.01 45.8845 119.968C46.9938 119.904 47.8898 119.818 48.5725 119.712C49.2552 119.605 49.8418 119.466 50.3325 119.296C50.5885 119.189 50.7805 119.157 50.9085 119.2C51.0365 119.242 51.1752 119.338 51.3245 119.488C51.4525 119.616 51.5805 119.776 51.7085 119.968C51.8365 120.181 51.9112 120.352 51.9325 120.48C51.9538 120.608 51.8792 120.757 51.7085 120.928C51.5378 121.098 51.4205 121.184 51.3565 121.184C50.2472 121.141 49.2978 121.12 48.5085 121.12C47.7192 121.141 46.8018 121.173 45.7565 121.216C44.6685 121.258 43.4845 121.29 42.2045 121.312C40.9245 121.333 39.7618 121.354 38.7165 121.376ZM32.1245 107.2C31.6765 107.2 31.3138 106.976 31.0365 106.528C30.7592 106.058 30.6205 105.514 30.6205 104.896V99.1355C30.6205 98.4315 30.5245 97.8769 30.3325 97.4715C30.1405 97.0449 29.7352 96.6822 29.1165 96.3835C28.8818 96.2769 28.8178 96.1062 28.9245 95.8715C29.1592 95.4449 29.4472 95.2529 29.7885 95.2955C30.0232 95.3382 30.3218 95.4129 30.6845 95.5195C31.0685 95.6049 31.4098 95.7009 31.7085 95.8075C32.2632 95.8502 32.9672 95.8609 33.8205 95.8395C34.6952 95.8182 35.6018 95.7755 36.5405 95.7115C37.5005 95.6262 38.3752 95.5302 39.1645 95.4235C39.9752 95.3169 40.5725 95.1889 40.9565 95.0395C41.2125 94.9755 41.3938 94.9649 41.5005 95.0075C41.6285 95.0502 41.7458 95.1355 41.8525 95.2635C41.9378 95.3702 42.0445 95.5409 42.1725 95.7755C42.3005 96.0102 42.3645 96.1915 42.3645 96.3195C42.3645 96.4689 42.3005 96.6075 42.1725 96.7355C42.0658 96.8635 41.9698 96.9275 41.8845 96.9275C41.1592 96.8635 40.2525 96.8422 39.1645 96.8635C38.0765 96.8849 36.9352 96.9169 35.7405 96.9595C34.5458 97.0022 33.4365 97.0555 32.4125 97.1195V104.32C32.4125 104.341 32.4125 104.373 32.4125 104.416C32.4125 104.672 32.4445 104.906 32.5085 105.12C32.5725 105.312 32.8072 105.408 33.2125 105.408C34.5992 105.386 35.9645 105.28 37.3085 105.088C38.6525 104.896 39.9112 104.661 41.0845 104.384C42.2578 104.106 43.2925 103.829 44.1885 103.552C45.0845 103.253 45.7778 102.986 46.2685 102.752C46.6525 102.581 46.8765 102.634 46.9405 102.912C47.0258 103.168 46.8872 103.424 46.5245 103.68C46.2472 103.914 45.7032 104.192 44.8925 104.512C44.1032 104.81 43.1645 105.12 42.0765 105.44C40.9885 105.738 39.8365 106.026 38.6205 106.304C37.4258 106.581 36.2632 106.805 35.1325 106.976C34.0018 107.125 32.9992 107.2 32.1245 107.2ZM48.5405 108.32C48.3485 108.32 48.2312 108.213 48.1885 108C48.1458 107.786 48.1032 107.477 48.0605 107.072C48.0392 106.645 48.0285 106.208 48.0285 105.76C48.0285 105.312 48.0285 104.949 48.0285 104.672V96.3195C48.0285 95.6795 47.9965 95.1782 47.9325 94.8155C47.8898 94.4529 47.7512 94.1435 47.5165 93.8875C47.3032 93.6315 46.9405 93.3542 46.4285 93.0555C46.2152 92.9062 46.1618 92.7142 46.2685 92.4795C46.4605 92.1595 46.7165 91.9995 47.0365 91.9995C47.3565 91.9995 47.7832 92.1169 48.3165 92.3515C48.8498 92.5862 49.2872 92.8102 49.6285 93.0235C49.7352 93.0875 49.8312 93.1729 49.9165 93.2795C50.0018 93.3862 50.0338 93.5035 50.0125 93.6315C49.9485 93.9942 49.9058 94.3569 49.8845 94.7195C49.8632 95.0822 49.8525 95.4875 49.8525 95.9355V101.216C50.9405 101.216 51.8472 101.141 52.5725 100.992C53.2978 100.821 53.8418 100.682 54.2045 100.576C54.4392 100.49 54.6098 100.48 54.7165 100.544C54.8232 100.608 54.9192 100.714 55.0045 100.864C55.0898 100.992 55.1858 101.205 55.2925 101.504C55.3992 101.781 55.4525 101.984 55.4525 102.112C55.4525 102.24 55.3778 102.357 55.2285 102.464C55.1005 102.57 55.0045 102.624 54.9405 102.624C54.0872 102.538 53.2552 102.485 52.4445 102.464C51.6338 102.421 50.7698 102.4 49.8525 102.4V104.448C49.8525 104.874 49.8205 105.397 49.7565 106.016C49.6925 106.613 49.5645 107.146 49.3725 107.616C49.1805 108.085 48.9032 108.32 48.5405 108.32ZM66.778 113.152C65.4127 113.194 64.25 112.97 63.29 112.48C62.3513 111.968 61.6367 111.306 61.146 110.496C60.6553 109.664 60.41 108.81 60.41 107.936C60.41 107.125 60.6447 106.336 61.114 105.568C61.6047 104.8 62.3193 104.16 63.258 103.648C64.218 103.114 65.402 102.826 66.81 102.784C68.026 102.741 69.1033 102.922 70.042 103.328C71.002 103.733 71.7593 104.32 72.314 105.088C72.8687 105.856 73.1247 106.773 73.082 107.84C73.0607 108.693 72.8047 109.525 72.314 110.336C71.8447 111.125 71.1407 111.786 70.202 112.32C69.2847 112.832 68.1433 113.109 66.778 113.152ZM78.49 120.224C78.2553 120.224 78.1273 120.117 78.106 119.904C78.0847 119.733 78.0527 119.424 78.01 118.976C77.9887 118.506 77.9673 118.005 77.946 117.472C77.9247 116.917 77.914 116.437 77.914 116.032V96.4155C77.914 95.7542 77.882 95.2422 77.818 94.8795C77.7753 94.5169 77.6367 94.2182 77.402 93.9835C77.1887 93.7275 76.8047 93.4609 76.25 93.1835C76.0793 93.0769 75.994 92.9702 75.994 92.8635C75.994 92.7569 76.0687 92.6182 76.218 92.4475C76.3673 92.2555 76.5273 92.1595 76.698 92.1595C76.954 92.1595 77.274 92.2235 77.658 92.3515C78.042 92.4795 78.4153 92.6289 78.778 92.7995C79.1407 92.9489 79.4073 93.0875 79.578 93.2155C79.834 93.4075 79.9513 93.6209 79.93 93.8555C79.866 94.3035 79.8127 94.7195 79.77 95.1035C79.7487 95.4875 79.738 95.9355 79.738 96.4475V105.504C80.8687 105.504 81.8607 105.418 82.714 105.248C83.5887 105.056 84.1967 104.906 84.538 104.8C84.7727 104.714 84.9433 104.704 85.05 104.768C85.1567 104.832 85.2527 104.928 85.338 105.056C85.4447 105.205 85.5513 105.429 85.658 105.728C85.786 106.026 85.85 106.25 85.85 106.4C85.85 106.528 85.7753 106.645 85.626 106.752C85.498 106.858 85.402 106.912 85.338 106.912C84.5487 106.805 83.7273 106.752 82.874 106.752C82.042 106.73 81.1993 106.72 80.346 106.72C80.2393 106.72 80.1327 106.72 80.026 106.72C79.9407 106.72 79.8447 106.72 79.738 106.72V115.968C79.738 116.309 79.7167 116.725 79.674 117.216C79.6527 117.685 79.5993 118.154 79.514 118.624C79.4287 119.072 79.3007 119.445 79.13 119.744C78.9807 120.064 78.7673 120.224 78.49 120.224ZM66.778 111.68C67.7593 111.637 68.5593 111.434 69.178 111.072C69.818 110.688 70.298 110.208 70.618 109.632C70.938 109.056 71.1087 108.458 71.13 107.84C71.1727 107.285 71.0553 106.72 70.778 106.144C70.522 105.568 70.074 105.077 69.434 104.672C68.8153 104.266 67.9727 104.053 66.906 104.032C65.882 104.032 65.0287 104.224 64.346 104.608C63.6633 104.97 63.1513 105.45 62.81 106.048C62.49 106.624 62.33 107.232 62.33 107.872C62.33 108.96 62.714 109.877 63.482 110.624C64.25 111.37 65.3487 111.722 66.778 111.68ZM59.898 101.408C59.5353 101.493 59.2687 101.504 59.098 101.44C58.9273 101.354 58.778 101.258 58.65 101.152C58.6287 101.13 58.618 101.12 58.618 101.12C58.4047 100.949 58.1913 100.725 57.978 100.448C57.7647 100.149 57.626 99.9462 57.562 99.8395C57.498 99.7329 57.5193 99.5942 57.626 99.4235C57.7327 99.2529 57.85 99.1889 57.978 99.2315C58.938 99.4235 60.09 99.5409 61.434 99.5835C62.7993 99.6049 64.3673 99.5835 66.138 99.5195C67.7593 99.4769 69.306 99.3702 70.778 99.1995C72.2713 99.0289 73.434 98.8049 74.266 98.5275C74.5007 98.4422 74.6713 98.4315 74.778 98.4955C74.8847 98.5595 74.9807 98.6662 75.066 98.8155C75.1513 98.9649 75.226 99.1889 75.29 99.4875C75.3753 99.7862 75.418 100.01 75.418 100.16C75.418 100.266 75.3433 100.373 75.194 100.48C75.066 100.586 74.97 100.64 74.906 100.64C74.6073 100.597 74.1593 100.576 73.562 100.576C72.986 100.576 72.3993 100.586 71.802 100.608C71.5887 100.608 71.3753 100.608 71.162 100.608C70.9487 100.608 70.7567 100.608 70.586 100.608C69.37 100.629 68.154 100.672 66.938 100.736C65.722 100.8 64.5913 100.885 63.546 100.992C63.3113 101.013 62.9593 101.056 62.49 101.12C62.042 101.162 61.5727 101.205 61.082 101.248C60.6127 101.29 60.218 101.344 59.898 101.408ZM65.466 96.4795C65.1033 96.4369 64.6553 96.3515 64.122 96.2235C63.5887 96.0742 63.0873 95.8929 62.618 95.6795C62.1487 95.4662 61.8073 95.2635 61.594 95.0715C61.4873 94.9435 61.4767 94.7622 61.562 94.5275C61.6473 94.2715 61.8073 94.1649 62.042 94.2075C63.1087 94.4422 64.2073 94.5915 65.338 94.6555C66.4687 94.6982 67.5247 94.6982 68.506 94.6555C69.4873 94.6129 70.2873 94.5702 70.906 94.5275C71.0767 94.5062 71.226 94.5702 71.354 94.7195C71.482 94.8475 71.5567 94.9649 71.578 95.0715C71.5993 95.2209 71.514 95.4129 71.322 95.6475C71.1513 95.8609 70.9593 96.0209 70.746 96.1275C70.4687 96.2342 70.0313 96.3302 69.434 96.4155C68.858 96.4795 68.218 96.5222 67.514 96.5435C66.81 96.5435 66.1273 96.5222 65.466 96.4795ZM95.4958 102.88C94.5358 102.88 94.0558 102.165 94.0558 100.736V97.6955C94.0558 97.0555 93.9704 96.4689 93.7998 95.9355C93.6504 95.3809 93.2451 94.9222 92.5838 94.5595C92.3491 94.4315 92.3171 94.2502 92.4878 94.0155C92.7651 93.6102 93.1278 93.4609 93.5758 93.5675C93.8744 93.6529 94.2264 93.7915 94.6318 93.9835C95.0371 94.1542 95.3784 94.3569 95.6558 94.5915C95.9544 94.8475 96.0824 95.0395 96.0398 95.1675C95.9758 95.4875 95.9331 95.8502 95.9118 96.2555C95.8904 96.6609 95.8798 97.0769 95.8798 97.5035V100.576C95.8798 101.002 95.9331 101.29 96.0398 101.44C96.1464 101.568 96.4131 101.632 96.8398 101.632C98.0344 101.632 99.3251 101.61 100.712 101.568C102.12 101.525 103.41 101.461 104.584 101.376C105.842 101.312 106.824 101.226 107.528 101.12C108.232 100.992 108.84 100.842 109.352 100.672C109.608 100.565 109.8 100.533 109.928 100.576C110.056 100.618 110.194 100.714 110.344 100.864C110.472 100.992 110.589 101.173 110.696 101.408C110.802 101.621 110.877 101.802 110.92 101.952C110.962 102.101 110.898 102.25 110.728 102.4C110.557 102.549 110.429 102.624 110.344 102.624C109.618 102.581 108.978 102.56 108.424 102.56C107.89 102.538 107.314 102.538 106.696 102.56C106.098 102.56 105.33 102.581 104.392 102.624C103.538 102.645 102.568 102.677 101.48 102.72C100.413 102.762 99.3464 102.805 98.2798 102.848C97.2344 102.869 96.3064 102.88 95.4958 102.88ZM90.4718 110.048C90.1091 110.133 89.8531 110.165 89.7038 110.144C89.5758 110.101 89.4051 110.005 89.1918 109.856C89.0638 109.77 88.8931 109.642 88.6798 109.472C88.4664 109.301 88.2638 109.13 88.0718 108.96C87.9011 108.768 87.8051 108.629 87.7838 108.544C87.7624 108.437 87.8158 108.288 87.9438 108.096C88.0718 107.904 88.1891 107.829 88.2958 107.872C88.9784 108.021 89.7998 108.138 90.7598 108.224C91.7198 108.288 92.7651 108.309 93.8958 108.288C95.9651 108.266 98.2158 108.234 100.648 108.192C103.101 108.149 105.512 108.074 107.88 107.968C109.266 107.904 110.536 107.808 111.688 107.68C112.861 107.552 113.693 107.413 114.184 107.264C114.418 107.178 114.6 107.168 114.728 107.232C114.877 107.296 115.005 107.402 115.112 107.552C115.24 107.722 115.357 107.925 115.464 108.16C115.57 108.394 115.624 108.586 115.624 108.736C115.624 108.885 115.549 109.024 115.4 109.152C115.25 109.258 115.144 109.312 115.08 109.312C114.29 109.205 113.416 109.152 112.456 109.152C111.496 109.13 110.578 109.13 109.704 109.152C109.469 109.152 109.245 109.152 109.032 109.152C108.818 109.152 108.605 109.152 108.392 109.152C107.432 109.173 106.376 109.205 105.224 109.248C104.072 109.269 102.888 109.301 101.672 109.344C100.477 109.365 99.3251 109.397 98.2158 109.44C97.1278 109.461 96.1464 109.493 95.2718 109.536C94.3118 109.578 93.4264 109.642 92.6158 109.728C91.8264 109.813 91.1118 109.92 90.4718 110.048ZM98.2478 121.248C96.1571 121.248 95.1118 120.277 95.1118 118.336V116.576C95.1118 115.978 95.0264 115.477 94.8558 115.072C94.7064 114.645 94.3864 114.325 93.8958 114.112C93.7678 114.069 93.6824 113.984 93.6398 113.856C93.5971 113.728 93.5971 113.61 93.6398 113.504C93.8531 113.141 94.1304 112.97 94.4718 112.992C94.7491 113.034 95.1224 113.141 95.5918 113.312C96.0611 113.482 96.4558 113.653 96.7758 113.824C97.0318 113.973 97.1384 114.154 97.0958 114.368C97.0531 114.517 97.0104 114.784 96.9678 115.168C96.9464 115.552 96.9358 115.925 96.9358 116.288V118.176C96.9358 118.922 97.0638 119.392 97.3198 119.584C97.5971 119.797 97.9598 119.914 98.4078 119.936C98.6424 119.957 99.0478 119.968 99.6238 119.968C100.221 119.968 100.882 119.957 101.608 119.936C102.333 119.914 103.026 119.882 103.688 119.84C104.37 119.818 104.914 119.797 105.32 119.776C106.429 119.733 107.378 119.637 108.168 119.488C108.978 119.338 109.565 119.2 109.928 119.072C110.376 118.88 110.706 118.944 110.92 119.264C111.026 119.434 111.144 119.637 111.272 119.872C111.4 120.106 111.474 120.298 111.496 120.448C111.517 120.597 111.442 120.736 111.272 120.864C111.122 121.013 111.005 121.088 110.92 121.088C110.173 121.045 109.469 121.013 108.808 120.992C108.168 120.992 107.485 120.992 106.76 120.992C106.056 121.013 105.234 121.045 104.296 121.088C103.208 121.13 102.184 121.162 101.224 121.184C100.285 121.226 99.2931 121.248 98.2478 121.248ZM145.657 119.104C145.486 119.168 145.358 119.168 145.273 119.104C145.209 119.018 145.166 118.944 145.145 118.88C145.102 118.709 145.059 118.389 145.017 117.92C144.974 117.45 144.942 116.938 144.921 116.384C144.921 115.829 144.921 115.338 144.921 114.912V108.512L143.705 108.544C143.043 108.586 142.425 108.64 141.849 108.704C141.294 108.746 140.697 108.842 140.057 108.992C139.822 109.034 139.63 109.056 139.481 109.056C139.353 109.034 139.203 108.97 139.033 108.864C138.862 108.757 138.638 108.608 138.361 108.416C138.083 108.202 137.923 108.042 137.881 107.936C137.838 107.808 137.87 107.68 137.977 107.552C138.083 107.402 138.211 107.338 138.361 107.36C138.958 107.445 139.651 107.498 140.441 107.52C141.23 107.541 142.275 107.509 143.577 107.424C143.833 107.402 144.067 107.392 144.281 107.392C144.494 107.37 144.707 107.338 144.921 107.296V102.24H144.665C144.067 102.282 143.609 102.325 143.289 102.368C142.969 102.389 142.531 102.464 141.977 102.592C141.742 102.634 141.55 102.666 141.401 102.688C141.273 102.688 141.123 102.645 140.953 102.56C140.782 102.496 140.569 102.389 140.313 102.24C140.057 102.069 139.865 101.92 139.737 101.792C139.139 103.178 138.361 104.597 137.401 106.048C136.462 107.477 135.353 108.853 134.073 110.176C132.814 111.477 131.406 112.64 129.849 113.664C129.593 113.834 129.337 113.909 129.081 113.888C128.825 113.866 128.654 113.781 128.569 113.632C128.505 113.482 128.633 113.29 128.953 113.056C130.403 111.989 131.801 110.688 133.145 109.152C134.489 107.594 135.662 105.898 136.665 104.064C137.667 102.229 138.361 100.352 138.745 98.4315C138.787 98.2182 138.777 98.1009 138.713 98.0795C138.649 98.0369 138.585 98.0155 138.521 98.0155C138.499 98.0155 138.489 98.0155 138.489 98.0155C137.998 98.0155 137.529 98.0369 137.081 98.0795C136.654 98.1009 136.185 98.1329 135.673 98.1755C135.075 98.2182 134.574 98.2715 134.169 98.3355C133.785 98.3782 133.422 98.4315 133.081 98.4955C132.739 98.5382 132.345 98.6022 131.897 98.6875C131.555 98.7729 131.321 98.7942 131.193 98.7515C131.086 98.7089 130.958 98.6235 130.809 98.4955C130.787 98.4742 130.766 98.4635 130.745 98.4635C130.553 98.2715 130.35 98.0689 130.137 97.8555C129.945 97.6422 129.817 97.4822 129.753 97.3755C129.689 97.2689 129.71 97.1409 129.817 96.9915C129.945 96.8209 130.083 96.7569 130.233 96.7995C130.681 96.8849 131.31 96.9489 132.121 96.9915C132.953 97.0342 133.785 97.0342 134.617 96.9915C135.577 96.9489 136.345 96.8955 136.921 96.8315C137.518 96.7462 138.094 96.6075 138.649 96.4155C138.777 96.3302 138.937 96.3302 139.129 96.4155L141.145 97.0875C141.23 97.1302 141.294 97.1942 141.337 97.2795C141.401 97.3649 141.401 97.4822 141.337 97.6315C141.145 98.1009 140.953 98.5809 140.761 99.0715C140.59 99.5622 140.419 100.042 140.249 100.512L140.025 101.088C140.515 101.173 141.081 101.226 141.721 101.248C142.382 101.248 143.299 101.205 144.473 101.12H144.921V98.2075C144.921 98.1222 144.921 98.0475 144.921 97.9835C144.921 97.9195 144.921 97.8449 144.921 97.7595C144.921 96.9275 144.867 96.2662 144.761 95.7755C144.654 95.2635 144.27 94.8049 143.609 94.3995C143.353 94.2289 143.299 94.0369 143.449 93.8235C143.577 93.6102 143.705 93.4715 143.833 93.4075C143.982 93.3435 144.142 93.3222 144.313 93.3435C144.697 93.3862 145.113 93.5569 145.561 93.8555C146.03 94.1329 146.329 94.3355 146.457 94.4635C146.563 94.5702 146.649 94.6769 146.713 94.7835C146.798 94.8689 146.83 94.9649 146.809 95.0715C146.745 95.4769 146.702 95.9249 146.681 96.4155C146.681 96.8849 146.681 97.3435 146.681 97.7915C146.681 97.8769 146.681 97.9622 146.681 98.0475C146.681 98.1115 146.681 98.1755 146.681 98.2395V114.848C146.681 115.296 146.659 115.84 146.617 116.48C146.574 117.12 146.478 117.696 146.329 118.208C146.179 118.72 145.955 119.018 145.657 119.104ZM150.681 120.192C150.51 120.256 150.382 120.245 150.297 120.16C150.233 120.096 150.19 120.032 150.169 119.968C150.126 119.797 150.083 119.477 150.041 119.008C149.998 118.538 149.966 118.026 149.945 117.472C149.945 116.917 149.945 116.426 149.945 116V96.4475C149.945 96.4049 149.945 96.3302 149.945 96.2235C149.945 95.6262 149.923 95.1569 149.881 94.8155C149.838 94.4742 149.71 94.1862 149.497 93.9515C149.305 93.6955 148.963 93.4182 148.473 93.1195C148.259 92.9702 148.206 92.7782 148.313 92.5435C148.547 92.1595 148.846 91.9995 149.209 92.0635C149.593 92.1275 150.009 92.2875 150.457 92.5435C150.926 92.7782 151.278 92.9915 151.513 93.1835C151.534 93.2049 151.555 93.2262 151.577 93.2475C151.683 93.3329 151.769 93.4289 151.833 93.5355C151.897 93.6209 151.918 93.7169 151.897 93.8235C151.833 94.2715 151.779 94.6982 151.737 95.1035C151.715 95.5089 151.705 95.9675 151.705 96.4795V115.936C151.705 116.384 151.683 116.928 151.641 117.568C151.598 118.208 151.502 118.784 151.353 119.296C151.203 119.808 150.979 120.106 150.681 120.192ZM163.397 109.024C163.163 109.045 162.992 108.96 162.885 108.768C162.779 108.576 162.725 108.32 162.725 108L162.565 100.064C162.565 99.3169 162.533 98.7195 162.469 98.2715C162.405 97.8022 162.277 97.4075 162.085 97.0875C161.893 96.7462 161.584 96.4262 161.157 96.1275C160.923 95.9782 160.88 95.7862 161.029 95.5515C161.264 95.1675 161.584 95.0289 161.989 95.1355C162.288 95.2209 162.629 95.3702 163.013 95.5835C163.419 95.7969 163.749 96.0209 164.005 96.2555C164.304 96.5329 164.443 96.7675 164.421 96.9595C164.379 97.2582 164.347 97.6635 164.325 98.1755C164.304 98.6662 164.293 99.1249 164.293 99.5515C164.933 99.5515 165.765 99.5409 166.789 99.5195C167.835 99.4982 168.933 99.4769 170.085 99.4555C171.259 99.4129 172.368 99.3702 173.413 99.3275C174.48 99.2849 175.365 99.2315 176.069 99.1675V98.2715C176.069 97.3115 175.995 96.5542 175.845 95.9995C175.696 95.4449 175.291 94.9435 174.629 94.4955C174.416 94.3462 174.384 94.1649 174.533 93.9515C174.832 93.5889 175.141 93.4502 175.461 93.5355C175.76 93.5995 176.133 93.7595 176.581 94.0155C177.051 94.2502 177.413 94.4849 177.669 94.7195C177.968 95.0182 178.107 95.2209 178.085 95.3275C178.043 95.6475 177.989 96.0849 177.925 96.6395C177.883 97.1729 177.861 97.6635 177.861 98.1115V106.08C177.861 106.698 177.776 107.242 177.605 107.712C177.435 108.181 177.157 108.437 176.773 108.48C176.539 108.522 176.368 108.437 176.261 108.224C176.176 107.989 176.112 107.722 176.069 107.424C175.365 107.424 174.491 107.434 173.445 107.456C172.421 107.456 171.333 107.466 170.181 107.488C169.051 107.488 167.963 107.498 166.917 107.52C165.893 107.541 165.029 107.573 164.325 107.616C164.283 108.021 164.165 108.352 163.973 108.608C163.781 108.864 163.589 109.002 163.397 109.024ZM164.325 106.336C165.029 106.357 165.893 106.368 166.917 106.368C167.963 106.346 169.051 106.325 170.181 106.304C171.333 106.261 172.421 106.218 173.445 106.176C174.491 106.112 175.365 106.048 176.069 105.984V100.576C175.365 100.576 174.491 100.586 173.445 100.608C172.421 100.608 171.333 100.618 170.181 100.64C169.051 100.661 167.963 100.693 166.917 100.736C165.872 100.757 164.997 100.789 164.293 100.832L164.325 106.336ZM159.461 116.544C159.077 116.629 158.821 116.661 158.693 116.64C158.565 116.597 158.395 116.501 158.181 116.352C158.053 116.266 157.883 116.128 157.669 115.936C157.456 115.744 157.264 115.562 157.093 115.392C156.923 115.2 156.816 115.061 156.773 114.976C156.709 114.869 156.741 114.72 156.869 114.528C157.019 114.336 157.168 114.261 157.317 114.304C158 114.453 158.757 114.57 159.589 114.656C160.443 114.72 161.435 114.741 162.565 114.72C162.779 114.72 162.992 114.72 163.205 114.72C163.44 114.72 163.664 114.72 163.877 114.72C164.795 114.72 165.712 114.72 166.629 114.72C167.568 114.72 168.528 114.698 169.509 114.656L169.541 112.512C169.563 111.872 169.52 111.317 169.413 110.848C169.307 110.378 168.987 109.994 168.453 109.696C168.304 109.61 168.229 109.525 168.229 109.44C168.251 109.354 168.293 109.248 168.357 109.12C168.549 108.757 168.848 108.618 169.253 108.704C169.829 108.853 170.427 109.141 171.045 109.568C171.344 109.781 171.472 109.984 171.429 110.176C171.344 110.496 171.28 110.826 171.237 111.168C171.216 111.488 171.195 111.872 171.173 112.32C171.152 112.704 171.131 113.088 171.109 113.472C171.088 113.856 171.077 114.24 171.077 114.624C171.867 114.602 172.656 114.592 173.445 114.592C174.235 114.57 175.035 114.538 175.845 114.496C177.232 114.453 178.501 114.357 179.653 114.208C180.805 114.058 181.616 113.898 182.085 113.728C182.32 113.664 182.501 113.664 182.629 113.728C182.757 113.77 182.885 113.877 183.013 114.048C183.141 114.218 183.269 114.442 183.397 114.72C183.547 114.976 183.621 115.189 183.621 115.36C183.621 115.509 183.547 115.637 183.397 115.744C183.248 115.85 183.131 115.904 183.045 115.904C182.064 115.818 180.955 115.776 179.717 115.776C178.501 115.754 177.392 115.744 176.389 115.744C175.109 115.765 173.723 115.797 172.229 115.84C170.736 115.861 169.264 115.882 167.813 115.904C166.384 115.925 165.083 115.968 163.909 116.032C162.971 116.074 162.149 116.138 161.445 116.224C160.741 116.309 160.08 116.416 159.461 116.544Z" fill="white"/>
</svg>
