<svg width="131" height="109" viewBox="0 0 131 109" fill="none" xmlns="http://www.w3.org/2000/svg">
<path d="M16.0998 16.2124C15.8198 16.2124 15.7452 15.9511 15.8758 15.4284C15.9505 15.1484 16.0438 14.6911 16.1558 14.0564C16.2678 13.4031 16.3985 12.6564 16.5478 11.8164C16.6972 10.9764 16.8372 10.1178 16.9678 9.24043C17.0985 8.34443 17.2198 7.4951 17.3318 6.69243C17.4438 5.88976 17.5185 5.20843 17.5558 4.64843C17.5745 4.4991 17.5372 4.4151 17.4438 4.39643C17.3505 4.37776 17.2852 4.36843 17.2478 4.36843C17.2292 4.36843 17.2198 4.36843 17.2198 4.36843C16.9958 4.36843 16.5945 4.38709 16.0158 4.42443C15.4558 4.4431 14.8398 4.48043 14.1678 4.53643C13.4958 4.57376 12.8705 4.6111 12.2918 4.64843C11.7318 4.6671 11.3398 4.67643 11.1158 4.67643C10.5745 4.6951 9.98649 4.7231 9.35182 4.76043C8.71715 4.79776 8.11049 4.84443 7.53182 4.90043C6.97182 4.95643 6.50515 5.02176 6.13182 5.09643C5.77715 5.18976 5.51582 5.20843 5.34782 5.15243C5.17982 5.09643 5.01182 5.0031 4.84382 4.87243C4.65715 4.7231 4.47049 4.57376 4.28382 4.42443C4.11582 4.25643 4.01315 4.12576 3.97582 4.03243C3.91982 3.9391 3.93849 3.80843 4.03182 3.64043C4.12515 3.47243 4.23715 3.4071 4.36782 3.44443C4.70382 3.53776 5.14249 3.6031 5.68382 3.64043C6.22515 3.67776 6.80382 3.70576 7.41982 3.72443C8.05449 3.72443 8.67049 3.71509 9.26782 3.69643C9.86515 3.67776 10.3878 3.6591 10.8358 3.64043C11.2652 3.62176 11.7972 3.59376 12.4318 3.55643C13.0665 3.5191 13.7198 3.47243 14.3918 3.41643C15.0825 3.36043 15.7078 3.2951 16.2678 3.22043C16.8465 3.1271 17.2758 3.02443 17.5558 2.91243C17.7052 2.85643 17.8452 2.85643 17.9758 2.91243L19.6838 3.52843C19.7585 3.56576 19.8145 3.63109 19.8518 3.72443C19.9078 3.79909 19.8985 3.90176 19.8238 4.03243C19.7678 4.1631 19.6745 4.44309 19.5438 4.87243C19.4318 5.2831 19.3292 5.69376 19.2358 6.10443C19.1425 6.5151 19.0865 6.7951 19.0678 6.94443C18.9932 7.39243 18.8812 7.98043 18.7318 8.70843C18.5825 9.43643 18.4238 10.1924 18.2558 10.9764C18.0878 11.7604 17.9292 12.4791 17.7798 13.1324C17.6305 13.7858 17.5185 14.2618 17.4438 14.5604C17.1265 15.6618 16.6785 16.2124 16.0998 16.2124ZM2.43582 20.7764C2.09982 20.8511 1.87582 20.8791 1.76382 20.8604C1.65182 20.8231 1.50249 20.7391 1.31582 20.6084C1.20382 20.5338 1.05449 20.4124 0.86782 20.2444C0.681154 20.0764 0.513154 19.9178 0.36382 19.7684C0.214487 19.6004 0.121154 19.4791 0.0838204 19.4044C0.0278203 19.3111 0.0558203 19.1804 0.16782 19.0124C0.298487 18.8444 0.429154 18.7791 0.55982 18.8164C1.15715 18.9471 1.81982 19.0404 2.54782 19.0964C3.29449 19.1524 4.16249 19.1804 5.15182 19.1804C6.21582 19.1804 7.31715 19.1804 8.45582 19.1804C9.59449 19.1618 10.6958 19.1431 11.7598 19.1244C12.8425 19.1058 13.8318 19.0871 14.7278 19.0684C15.6238 19.0311 16.3518 19.0031 16.9118 18.9844C18.1252 18.9471 19.2078 18.8631 20.1598 18.7324C21.1118 18.5831 21.7932 18.4431 22.2038 18.3124C22.4092 18.2378 22.5678 18.2284 22.6798 18.2844C22.8105 18.3404 22.9318 18.4431 23.0438 18.5924C23.1558 18.7418 23.2678 18.9378 23.3798 19.1804C23.5105 19.4044 23.5758 19.5911 23.5758 19.7404C23.5758 19.8711 23.5105 19.9831 23.3798 20.0764C23.2492 20.1698 23.1465 20.2164 23.0718 20.2164C22.2132 20.1418 21.2425 20.1044 20.1598 20.1044C19.0958 20.0858 18.1252 20.0764 17.2478 20.0764C16.1278 20.0951 14.9145 20.1231 13.6078 20.1604C12.3012 20.1791 11.0132 20.1978 9.74382 20.2164C8.49315 20.2351 7.35449 20.2724 6.32782 20.3284C5.50649 20.3658 4.78782 20.4218 4.17182 20.4964C3.55582 20.5711 2.97715 20.6644 2.43582 20.7764ZM29.4108 18.2844C29.0001 18.3031 28.6734 18.1164 28.4308 17.7244C28.1881 17.3138 28.0668 16.8378 28.0668 16.2964V11.5364C28.0668 11.3498 28.0388 11.2191 27.9828 11.1444C27.9454 11.0511 27.8521 10.9578 27.7028 10.8644C27.5161 10.7711 27.2921 10.6498 27.0308 10.5004C26.7694 10.3511 26.6108 10.2298 26.5548 10.1364C26.4988 10.0431 26.5174 9.89376 26.6108 9.68843C26.7041 9.4831 26.8068 9.38976 26.9188 9.40843C27.2361 9.44576 27.5721 9.4831 27.9268 9.52043C28.3001 9.55776 28.6734 9.58576 29.0468 9.60443C29.4201 9.6231 29.8868 9.63243 30.4468 9.63243C31.0254 9.61376 31.6321 9.58576 32.2668 9.54843C32.9014 9.5111 33.4988 9.46443 34.0588 9.40843C34.6188 9.35243 35.0668 9.29643 35.4028 9.24043C35.4214 9.10976 35.4588 8.84843 35.5148 8.45643C35.5708 8.04576 35.6268 7.58843 35.6828 7.08443C35.7388 6.58043 35.7948 6.10443 35.8508 5.65643C35.9068 5.20843 35.9441 4.88176 35.9628 4.67643C35.9814 4.5271 35.9628 4.4431 35.9068 4.42443C35.8694 4.38709 35.8321 4.36843 35.7948 4.36843C35.7761 4.36843 35.7388 4.36843 35.6828 4.36843C35.4588 4.36843 35.0388 4.37776 34.4228 4.39643C33.8254 4.39643 33.0321 4.4431 32.0428 4.53643C31.5574 4.57376 31.1561 4.6111 30.8388 4.64843C30.5401 4.6671 30.2508 4.6951 29.9708 4.73243C29.6908 4.75109 29.3641 4.79776 28.9908 4.87243C28.6361 4.94709 28.3934 4.96576 28.2628 4.92843C28.1508 4.8911 28.0108 4.79776 27.8428 4.64843C27.6561 4.4991 27.5068 4.3591 27.3948 4.22843C27.2828 4.0791 27.1894 3.9391 27.1148 3.80843C27.0588 3.7151 27.0774 3.6031 27.1708 3.47243C27.2641 3.3231 27.3761 3.25776 27.5068 3.27643C27.8241 3.31376 28.1694 3.35109 28.5428 3.38843C28.9348 3.4071 29.3174 3.42576 29.6908 3.44443C30.1014 3.4631 30.6054 3.47243 31.2028 3.47243C31.8001 3.45376 32.3974 3.42576 32.9948 3.38843C33.6108 3.35109 34.1428 3.31376 34.5908 3.27643C34.9081 3.2391 35.1974 3.1831 35.4588 3.10843C35.7388 3.0151 35.9254 2.94043 36.0188 2.88443C36.1681 2.7911 36.3361 2.7911 36.5228 2.88443L37.8108 3.41643C37.9974 3.4911 38.0534 3.64043 37.9788 3.86443C37.9414 3.95776 37.8574 4.17243 37.7268 4.50843C37.6148 4.84443 37.5121 5.22709 37.4188 5.65643L36.6628 9.01643C36.8121 9.10976 36.9988 9.2591 37.2228 9.46443C37.4468 9.6511 37.5588 9.7911 37.5588 9.88443C37.5588 10.0338 37.4841 10.1738 37.3348 10.3044C37.2041 10.4351 37.1108 10.5004 37.0548 10.5004C36.8494 10.4818 36.4481 10.4818 35.8508 10.5004C35.2534 10.5004 34.5721 10.5191 33.8068 10.5564C33.0414 10.5938 32.2854 10.6311 31.5388 10.6684C30.7921 10.7058 30.1668 10.7431 29.6628 10.7804V15.9884C29.6628 16.2311 29.7094 16.4178 29.8028 16.5484C29.9148 16.6791 30.1574 16.7351 30.5308 16.7164C31.5574 16.6978 32.6308 16.6044 33.7508 16.4364C34.8708 16.2684 35.9441 16.0724 36.9708 15.8484C38.0161 15.6058 38.9308 15.3631 39.7148 15.1204C40.4988 14.8591 41.0681 14.6351 41.4228 14.4484C41.7961 14.2991 42.0014 14.3458 42.0388 14.5884C42.0948 14.8311 41.9734 15.0644 41.6748 15.2884C41.4134 15.4564 40.9468 15.6711 40.2748 15.9324C39.6028 16.1751 38.8001 16.4364 37.8668 16.7164C36.9521 16.9964 35.9814 17.2578 34.9548 17.5004C33.9468 17.7244 32.9574 17.9111 31.9868 18.0604C31.0161 18.2098 30.1574 18.2844 29.4108 18.2844ZM43.6068 24.5564C43.4014 24.5564 43.2894 24.4631 43.2708 24.2764C43.2521 24.1271 43.2241 23.8564 43.1868 23.4644C43.1681 23.0538 43.1494 22.6151 43.1308 22.1484C43.1121 21.6631 43.1028 21.2431 43.1028 20.8884V3.72443C43.1028 3.14576 43.0748 2.69776 43.0188 2.38043C42.9814 2.06309 42.8601 1.80176 42.6548 1.59643C42.4681 1.37243 42.1321 1.1391 41.6468 0.896429C41.4974 0.803095 41.4228 0.709761 41.4228 0.616428C41.4228 0.523095 41.4881 0.401762 41.6188 0.252429C41.7494 0.0844292 41.8894 0.000429153 42.0388 0.000429153C42.2628 0.000429153 42.5428 0.056429 42.8788 0.168429C43.2148 0.280428 43.5414 0.411095 43.8588 0.560429C44.1761 0.691095 44.4094 0.812428 44.5588 0.924429C44.7828 1.09243 44.8854 1.2791 44.8668 1.48443C44.8108 1.87643 44.7641 2.24043 44.7268 2.57643C44.7081 2.91243 44.6988 3.30443 44.6988 3.75243V20.8324C44.6988 21.1311 44.6801 21.4951 44.6428 21.9244C44.6241 22.3351 44.5774 22.7458 44.5028 23.1564C44.4281 23.5484 44.3161 23.8751 44.1668 24.1364C44.0361 24.4164 43.8494 24.5564 43.6068 24.5564ZM51.4358 21.0564C51.0998 21.1311 50.8758 21.1591 50.7638 21.1404C50.6518 21.1031 50.5025 21.0191 50.3158 20.8884C50.2038 20.8138 50.0545 20.6924 49.8678 20.5244C49.6812 20.3564 49.5132 20.1978 49.3638 20.0484C49.2145 19.8804 49.1212 19.7591 49.0838 19.6844C49.0278 19.5911 49.0558 19.4604 49.1678 19.2924C49.2985 19.1244 49.4292 19.0591 49.5598 19.0964C50.1572 19.2271 50.8198 19.3298 51.5478 19.4044C52.2945 19.4604 53.1625 19.4791 54.1518 19.4604H57.9598L57.9878 14.9244C57.9878 14.5324 57.9692 14.1311 57.9318 13.7204C57.8945 13.3098 57.8012 12.9271 57.6518 12.5724C57.5025 12.1991 57.2505 11.9098 56.8958 11.7044C56.6905 11.5924 56.6625 11.4244 56.8118 11.2004C56.9985 10.9018 57.2692 10.7991 57.6238 10.8924C57.9038 10.9858 58.1838 11.1164 58.4638 11.2844C58.7625 11.4524 59.0332 11.6298 59.2758 11.8164C59.5558 12.0218 59.6772 12.1991 59.6398 12.3484C59.5092 12.8338 59.4345 13.4591 59.4158 14.2244L59.3038 19.4324C61.4132 19.3951 63.5692 19.3391 65.7718 19.2644C66.9852 19.2271 68.0958 19.1431 69.1038 19.0124C70.1118 18.8818 70.8212 18.7418 71.2318 18.5924C71.4372 18.5364 71.5958 18.5364 71.7078 18.5924C71.8198 18.6298 71.9318 18.7231 72.0438 18.8724C72.1558 19.0218 72.2678 19.2178 72.3798 19.4604C72.5105 19.6844 72.5758 19.8711 72.5758 20.0204C72.5758 20.1511 72.5105 20.2631 72.3798 20.3564C72.2492 20.4498 72.1465 20.4964 72.0718 20.4964C71.2132 20.4218 70.2425 20.3844 69.1598 20.3844C68.0958 20.3658 67.1252 20.3564 66.2478 20.3564C65.1278 20.3751 63.9145 20.4031 62.6078 20.4404C61.3012 20.4591 60.0132 20.4778 58.7438 20.4964C57.4932 20.5151 56.3545 20.5524 55.3278 20.6084C54.5065 20.6458 53.7878 20.7018 53.1718 20.7764C52.5558 20.8511 51.9772 20.9444 51.4358 21.0564ZM65.2678 15.2324C64.9878 15.2324 64.9132 14.9711 65.0438 14.4484C65.0998 14.1684 65.1745 13.7391 65.2678 13.1604C65.3798 12.5631 65.4918 11.8818 65.6038 11.1164C65.7345 10.3324 65.8558 9.52976 65.9678 8.70843C66.0985 7.8871 66.2105 7.1031 66.3038 6.35643C66.3972 5.5911 66.4532 4.92843 66.4718 4.36843C66.4905 4.2191 66.4532 4.1351 66.3598 4.11643C66.2665 4.09776 66.2012 4.08843 66.1638 4.08843C66.1452 4.08843 66.1358 4.08843 66.1358 4.08843C65.9118 4.08843 65.5198 4.1071 64.9598 4.14443C64.4185 4.1631 63.8118 4.20043 63.1398 4.25643C62.4865 4.29376 61.8798 4.3311 61.3198 4.36843C60.7785 4.3871 60.3958 4.39643 60.1718 4.39643C59.6305 4.4151 59.0425 4.4431 58.4078 4.48043C57.7732 4.51776 57.1665 4.56443 56.5878 4.62043C56.0278 4.67643 55.5612 4.74176 55.1878 4.81643C54.8332 4.90976 54.5718 4.92843 54.4038 4.87243C54.2358 4.81643 54.0678 4.7231 53.8998 4.59243C53.7132 4.44309 53.5265 4.29376 53.3398 4.14443C53.1718 3.97643 53.0692 3.84576 53.0318 3.75243C52.9758 3.6591 52.9945 3.52843 53.0878 3.36043C53.1812 3.19243 53.2932 3.1271 53.4238 3.16443C53.7598 3.25776 54.1985 3.3231 54.7398 3.36043C55.2812 3.39776 55.8598 3.42576 56.4758 3.44443C57.1105 3.44443 57.7265 3.43509 58.3238 3.41643C58.9212 3.39776 59.4438 3.3791 59.8918 3.36043C60.3025 3.34176 60.8158 3.31376 61.4318 3.27643C62.0665 3.2391 62.7198 3.19243 63.3918 3.13643C64.0638 3.08043 64.6705 3.01509 65.2118 2.94043C65.7718 2.84709 66.1918 2.74443 66.4718 2.63243C66.6212 2.57643 66.7612 2.57643 66.8918 2.63243L68.5998 3.24843C68.6745 3.28576 68.7305 3.35109 68.7678 3.44443C68.8238 3.5191 68.8145 3.62176 68.7398 3.75243C68.6838 3.8831 68.5905 4.1631 68.4598 4.59243C68.3478 5.0031 68.2452 5.41376 68.1518 5.82443C68.0585 6.2351 68.0025 6.5151 67.9838 6.66443C67.9092 7.11243 67.8065 7.6631 67.6758 8.31643C67.5638 8.96976 67.4332 9.6511 67.2838 10.3604C67.1532 11.0511 67.0225 11.6858 66.8918 12.2644C66.7798 12.8431 66.6865 13.2818 66.6118 13.5804C66.2945 14.6818 65.8465 15.2324 65.2678 15.2324ZM14.5598 67.2364C13.4398 67.2364 12.4505 67.0311 11.5918 66.6204C10.7518 66.2284 10.0892 65.6778 9.60382 64.9684C9.11849 64.2778 8.87582 63.4751 8.87582 62.5604C8.87582 61.6644 9.13715 60.8618 9.65982 60.1524C10.1825 59.4244 10.8825 58.8551 11.7598 58.4444C12.6372 58.0151 13.5985 57.8004 14.6438 57.8004C15.7078 57.8004 16.6692 57.9778 17.5278 58.3324C18.4052 58.6871 19.1052 59.2098 19.6278 59.9004C20.1505 60.5911 20.3932 61.4404 20.3558 62.4484C20.3558 63.3818 20.0945 64.2124 19.5718 64.9404C19.0492 65.6684 18.3492 66.2284 17.4718 66.6204C16.5945 67.0311 15.6238 67.2364 14.5598 67.2364ZM14.5878 65.9764C15.7452 65.9764 16.7065 65.6684 17.4718 65.0524C18.2558 64.4364 18.6665 63.5591 18.7038 62.4204C18.7412 61.6924 18.5732 61.0764 18.1998 60.5724C17.8265 60.0498 17.3225 59.6578 16.6878 59.3964C16.0718 59.1164 15.3812 58.9764 14.6158 58.9764C13.8318 58.9764 13.1318 59.1351 12.5158 59.4524C11.8998 59.7511 11.4052 60.1711 11.0318 60.7124C10.6772 61.2538 10.4998 61.8604 10.4998 62.5324C10.4998 63.5964 10.8825 64.4364 11.6478 65.0524C12.4318 65.6684 13.4118 65.9764 14.5878 65.9764ZM1.45582 56.7924C1.23182 56.9418 1.00782 56.9978 0.78382 56.9604C0.55982 56.9231 0.410487 56.8298 0.33582 56.6804C0.27982 56.5311 0.373154 56.3724 0.61582 56.2044C1.67982 55.4578 2.64115 54.6178 3.49982 53.6844C4.37715 52.7324 5.12382 51.7804 5.73982 50.8284C6.37449 49.8764 6.86915 48.9991 7.22382 48.1964C7.59715 47.3751 7.82115 46.7124 7.89582 46.2084C7.91449 46.0031 7.86782 45.8258 7.75582 45.6764C7.64382 45.5084 7.40115 45.3871 7.02782 45.3124C6.80382 45.3124 6.46782 45.3404 6.01982 45.3964C5.59049 45.4524 5.14249 45.5178 4.67582 45.5924C4.22782 45.6484 3.85449 45.7044 3.55582 45.7604C3.20115 45.8164 2.95849 45.8258 2.82782 45.7884C2.71582 45.7324 2.59449 45.6391 2.46382 45.5084C2.37049 45.4151 2.23982 45.2658 2.07182 45.0604C1.90382 44.8551 1.79182 44.7058 1.73582 44.6124C1.67982 44.5191 1.69849 44.4071 1.79182 44.2764C1.88515 44.1271 1.99715 44.0618 2.12782 44.0804C2.68782 44.1738 3.30382 44.2391 3.97582 44.2764C4.64782 44.3138 5.31982 44.3231 5.99182 44.3044C6.66382 44.2858 7.26115 44.2671 7.78382 44.2484C8.79182 44.1924 9.73449 44.1084 10.6118 43.9964C11.5078 43.8844 12.3198 43.7351 13.0478 43.5484C13.4025 43.4738 13.6358 43.5578 13.7478 43.8004C13.8225 43.9311 13.8972 44.1084 13.9718 44.3324C14.0652 44.5378 14.1118 44.7058 14.1118 44.8364C14.1118 44.9484 14.0465 45.0511 13.9158 45.1444C13.8038 45.2378 13.7292 45.2844 13.6918 45.2844C13.0385 45.2284 12.3105 45.1911 11.5078 45.1724C10.7238 45.1538 9.75315 45.1724 8.59582 45.2284C8.91315 45.3778 9.19315 45.5458 9.43582 45.7324C9.69715 45.9191 9.80915 46.0871 9.77182 46.2364C9.71582 46.6284 9.55715 47.1138 9.29582 47.6924C9.05315 48.2524 8.73582 48.8684 8.34382 49.5404C9.22115 50.3804 10.1078 51.0991 11.0038 51.6964C11.8998 52.2751 12.6745 52.7418 13.3278 53.0964C13.5518 53.2644 13.7292 53.5724 13.8598 54.0204C14.0092 54.4498 14.0558 54.8511 13.9998 55.2244C13.9625 55.4671 13.7945 55.6351 13.4958 55.7284C13.2158 55.8031 13.0572 55.8031 13.0198 55.7284C12.6465 55.1871 12.1518 54.5804 11.5358 53.9084C10.9198 53.2364 10.2758 52.5831 9.60382 51.9484C8.95049 51.2951 8.36249 50.7444 7.83982 50.2964C7.07449 51.4538 6.14115 52.6204 5.03982 53.7964C3.95715 54.9538 2.76249 55.9524 1.45582 56.7924ZM19.0678 57.4924C18.8998 57.4924 18.7972 57.3991 18.7598 57.2124C18.7225 57.0258 18.6852 56.7458 18.6478 56.3724C18.6292 55.9804 18.6198 55.5791 18.6198 55.1684C18.6198 54.7578 18.6198 54.4311 18.6198 54.1884V49.5684L18.2558 49.5964C17.5465 49.6338 16.9772 49.6804 16.5478 49.7364C16.1372 49.7924 15.7825 49.8484 15.4838 49.9044C15.1852 49.9604 14.8492 50.0258 14.4758 50.1004C14.1212 50.1751 13.8132 50.1378 13.5518 49.9884C13.4212 49.9138 13.2158 49.7738 12.9358 49.5684C12.6745 49.3444 12.5345 49.1858 12.5158 49.0924C12.4972 48.9991 12.5345 48.8778 12.6278 48.7284C12.7398 48.5604 12.8612 48.4951 12.9918 48.5324C13.3092 48.5698 13.8505 48.6164 14.6158 48.6724C15.3998 48.7284 16.4078 48.7098 17.6398 48.6164L18.6198 48.5324V44.6404C18.6198 44.0804 18.5918 43.6418 18.5358 43.3244C18.4985 43.0071 18.3772 42.7364 18.1718 42.5124C17.9852 42.2884 17.6678 42.0458 17.2198 41.7844C17.0332 41.6538 16.9865 41.4858 17.0798 41.2804C17.2478 41.0004 17.4718 40.8604 17.7518 40.8604C18.0318 40.8604 18.4052 40.9631 18.8718 41.1684C19.3385 41.3738 19.7212 41.5698 20.0198 41.7564C20.1132 41.8124 20.1972 41.8871 20.2718 41.9804C20.3465 42.0738 20.3745 42.1764 20.3558 42.2884C20.2998 42.6058 20.2625 42.9231 20.2438 43.2404C20.2252 43.5578 20.2158 43.9124 20.2158 44.3044V53.9924C20.2158 54.2724 20.1972 54.6084 20.1598 55.0004C20.1412 55.3924 20.0852 55.7844 19.9918 56.1764C19.9172 56.5498 19.8052 56.8671 19.6558 57.1284C19.5065 57.3711 19.3105 57.4924 19.0678 57.4924ZM39.1965 67.2364C38.0765 67.2364 37.0872 67.0311 36.2285 66.6204C35.3885 66.2284 34.7259 65.6778 34.2405 64.9684C33.7552 64.2778 33.5125 63.4751 33.5125 62.5604C33.5125 61.6644 33.7739 60.8618 34.2965 60.1524C34.8192 59.4244 35.5192 58.8551 36.3965 58.4444C37.2739 58.0151 38.2352 57.8004 39.2805 57.8004C40.3445 57.8004 41.3059 57.9778 42.1645 58.3324C43.0419 58.6871 43.7419 59.2098 44.2645 59.9004C44.7872 60.5911 45.0299 61.4404 44.9925 62.4484C44.9925 63.3818 44.7312 64.2124 44.2085 64.9404C43.6859 65.6684 42.9859 66.2284 42.1085 66.6204C41.2312 67.0311 40.2605 67.2364 39.1965 67.2364ZM39.2245 65.9764C40.3819 65.9764 41.3432 65.6684 42.1085 65.0524C42.8925 64.4364 43.3032 63.5591 43.3405 62.4204C43.3779 61.6924 43.2099 61.0764 42.8365 60.5724C42.4632 60.0498 41.9592 59.6578 41.3245 59.3964C40.7085 59.1164 40.0179 58.9764 39.2525 58.9764C38.4685 58.9764 37.7685 59.1351 37.1525 59.4524C36.5365 59.7511 36.0419 60.1711 35.6685 60.7124C35.3139 61.2538 35.1365 61.8604 35.1365 62.5324C35.1365 63.5964 35.5192 64.4364 36.2845 65.0524C37.0685 65.6684 38.0485 65.9764 39.2245 65.9764ZM25.2525 56.2044C25.0659 56.2978 24.8699 56.3164 24.6645 56.2604C24.4779 56.2044 24.3472 56.1111 24.2725 55.9804C24.2165 55.8311 24.2912 55.6911 24.4965 55.5604C25.2059 55.1311 25.9339 54.5524 26.6805 53.8244C27.4459 53.0964 28.1832 52.2844 28.8925 51.3884C29.6205 50.4924 30.2645 49.5778 30.8245 48.6444C31.4032 47.7111 31.8512 46.8244 32.1685 45.9844C32.4859 45.1631 32.5979 44.6031 32.5045 44.3044C32.4112 44.0058 32.2339 43.7724 31.9725 43.6044C31.7299 43.4551 31.6645 43.2684 31.7765 43.0444C31.9072 42.8018 32.0472 42.6618 32.1965 42.6244C32.3645 42.5871 32.5605 42.6151 32.7845 42.7084C33.0272 42.7831 33.3165 42.9231 33.6525 43.1284C33.9885 43.3151 34.2405 43.4738 34.4085 43.6044C34.5952 43.7351 34.7259 43.8751 34.8005 44.0244C34.8752 44.1738 34.8939 44.2858 34.8565 44.3604C34.7445 44.5658 34.6325 44.7618 34.5205 44.9484C34.4085 45.1164 34.2872 45.3404 34.1565 45.6204C34.0259 45.9004 33.8392 46.3018 33.5965 46.8244C33.4472 47.1791 33.2605 47.5431 33.0365 47.9164C32.8312 48.2898 32.5979 48.6631 32.3365 49.0364C33.4192 50.0631 34.3899 50.8471 35.2485 51.3884C36.1072 51.9111 36.8352 52.3311 37.4325 52.6484C37.6939 52.8538 37.8899 53.1804 38.0205 53.6284C38.1699 54.0578 38.2165 54.4498 38.1605 54.8044C38.0859 55.0098 37.9085 55.1778 37.6285 55.3084C37.3672 55.4391 37.2085 55.4578 37.1525 55.3644C36.8539 54.9164 36.4712 54.4404 36.0045 53.9364C35.5565 53.4138 35.0712 52.9004 34.5485 52.3964C34.0445 51.8738 33.5405 51.3978 33.0365 50.9684C32.5512 50.5204 32.1312 50.1471 31.7765 49.8484C31.1605 50.7071 30.4792 51.5564 29.7325 52.3964C28.9859 53.2178 28.2299 53.9644 27.4645 54.6364C26.6992 55.2898 25.9619 55.8124 25.2525 56.2044ZM43.7045 57.4924C43.5365 57.4924 43.4339 57.3991 43.3965 57.2124C43.3592 57.0258 43.3219 56.7458 43.2845 56.3724C43.2659 55.9804 43.2565 55.5791 43.2565 55.1684C43.2565 54.7578 43.2565 54.4311 43.2565 54.1884V48.6444L42.7805 48.6724C42.0712 48.7098 41.5019 48.7564 41.0725 48.8124C40.6619 48.8684 40.3072 48.9244 40.0085 48.9804C39.7099 49.0364 39.3739 49.1018 39.0005 49.1764C38.7952 49.2138 38.6272 49.2324 38.4965 49.2324C38.3845 49.2138 38.2539 49.1578 38.1045 49.0644C37.9739 49.0084 37.7685 48.8871 37.4885 48.7004C37.2272 48.4951 37.0779 48.3458 37.0405 48.2524C37.0032 48.1591 37.0405 48.0284 37.1525 47.8604C37.2645 47.6924 37.3859 47.6271 37.5165 47.6644C37.8339 47.7204 38.3752 47.7671 39.1405 47.8044C39.9245 47.8418 40.9325 47.8138 42.1645 47.7204L43.2565 47.6364V44.6404C43.2565 44.0804 43.2285 43.6418 43.1725 43.3244C43.1352 43.0071 43.0139 42.7364 42.8085 42.5124C42.6219 42.2884 42.3045 42.0458 41.8565 41.7844C41.6699 41.6538 41.6232 41.4858 41.7165 41.2804C41.8845 41.0004 42.1085 40.8604 42.3885 40.8604C42.6685 40.8604 43.0419 40.9631 43.5085 41.1684C43.9752 41.3738 44.3579 41.5698 44.6565 41.7564C44.7499 41.8124 44.8339 41.8871 44.9085 41.9804C44.9832 42.0738 45.0112 42.1764 44.9925 42.2884C44.9365 42.6058 44.8992 42.9231 44.8805 43.2404C44.8619 43.5578 44.8525 43.9124 44.8525 44.3044V53.9924C44.8525 54.2724 44.8339 54.6084 44.7965 55.0004C44.7779 55.3924 44.7219 55.7844 44.6285 56.1764C44.5539 56.5498 44.4419 56.8671 44.2925 57.1284C44.1432 57.3711 43.9472 57.4924 43.7045 57.4924ZM66.2852 67.3204C65.9306 67.3764 65.7252 67.1151 65.6692 66.5364L65.2492 60.9924C65.2119 60.3578 65.1092 59.9004 64.9412 59.6204C64.7732 59.3404 64.4466 59.0791 63.9612 58.8364C63.7746 58.7804 63.7279 58.6218 63.8212 58.3604C63.8959 58.1551 63.9986 58.0338 64.1292 57.9964C64.2599 57.9404 64.3999 57.9218 64.5492 57.9404C64.7546 57.9778 65.0252 58.0338 65.3612 58.1084C65.6972 58.1831 65.9959 58.2578 66.2572 58.3324C66.4439 58.3324 66.8172 58.3324 67.3772 58.3324C67.9559 58.3138 68.6092 58.3044 69.3372 58.3044C70.0652 58.2858 70.7746 58.2671 71.4652 58.2484C72.1746 58.2111 72.7532 58.1738 73.2012 58.1364C73.6866 58.0991 74.1439 58.0524 74.5732 57.9964C75.0026 57.9404 75.3199 57.8658 75.5252 57.7724C75.5439 57.7538 75.5719 57.7351 75.6092 57.7164C75.7212 57.6791 75.8332 57.6791 75.9452 57.7164L77.4292 58.0804C77.5972 58.1178 77.6532 58.2484 77.5972 58.4724C77.5412 58.6964 77.4759 59.0511 77.4012 59.5364C77.3266 60.0031 77.2612 60.4324 77.2052 60.8244C77.1679 61.1231 77.1119 61.5151 77.0372 62.0004C76.9812 62.4671 76.9252 62.9524 76.8692 63.4564C76.8132 63.9418 76.7666 64.3618 76.7292 64.7164C76.8599 64.8098 77.0372 64.9498 77.2612 65.1364C77.5039 65.3231 77.6252 65.4818 77.6252 65.6124C77.6252 65.7431 77.5599 65.8831 77.4292 66.0324C77.2986 66.2004 77.2146 66.2844 77.1772 66.2844C76.5239 66.2284 75.7306 66.1911 74.7972 66.1724C73.8826 66.1724 72.9306 66.1818 71.9412 66.2004C70.9706 66.2191 70.0466 66.2378 69.1692 66.2564C68.3106 66.2938 67.6012 66.3218 67.0412 66.3404C67.0039 66.6391 66.9106 66.8631 66.7612 67.0124C66.6119 67.1804 66.4532 67.2831 66.2852 67.3204ZM67.0132 65.1924C67.0692 65.1924 67.3212 65.1924 67.7692 65.1924C68.2172 65.1924 68.7772 65.1831 69.4492 65.1644C70.1399 65.1644 70.8586 65.1551 71.6052 65.1364C72.3706 65.1178 73.0892 65.0898 73.7612 65.0524C74.4519 65.0151 75.0119 64.9778 75.4412 64.9404L75.6932 59.3684C75.6932 59.2378 75.6652 59.1631 75.6092 59.1444C75.5532 59.1258 75.4972 59.1164 75.4412 59.1164C75.4226 59.1164 75.4132 59.1164 75.4132 59.1164C75.0212 59.1351 74.4612 59.1538 73.7332 59.1724C73.0052 59.1911 72.2119 59.2191 71.3532 59.2564C70.4946 59.2751 69.6546 59.2938 68.8332 59.3124C68.0119 59.3311 67.3212 59.3498 66.7612 59.3684L67.0132 65.1924ZM61.8052 54.6644C61.4132 54.6644 61.0959 54.4684 60.8532 54.0764C60.6106 53.6658 60.4892 53.1898 60.4892 52.6484V47.2164C60.4892 46.6191 60.4052 46.1431 60.2372 45.7884C60.0692 45.4151 59.7146 45.0978 59.1732 44.8364C58.9679 44.7431 58.9119 44.5938 59.0052 44.3884C59.2106 44.0151 59.4626 43.8471 59.7612 43.8844C59.9666 43.9218 60.2372 43.9871 60.5732 44.0804C60.9092 44.1551 61.2079 44.2391 61.4692 44.3324C61.9546 44.3511 62.5799 44.3511 63.3452 44.3324C64.1106 44.3138 64.9039 44.2764 65.7252 44.2204C66.5466 44.1644 67.3026 44.0898 67.9932 43.9964C68.6839 43.9031 69.1972 43.7911 69.5332 43.6604C69.7572 43.5858 69.9159 43.5671 70.0092 43.6044C70.1212 43.6418 70.2239 43.7258 70.3172 43.8564C70.3919 43.9498 70.4852 44.0991 70.5972 44.3044C70.7092 44.5098 70.7652 44.6684 70.7652 44.7804C70.7652 44.9111 70.7092 45.0324 70.5972 45.1444C70.5039 45.2564 70.4199 45.3124 70.3452 45.3124C69.7106 45.2564 68.9172 45.2378 67.9652 45.2564C67.0132 45.2751 66.0146 45.3031 64.9692 45.3404C63.9239 45.3778 62.9532 45.4244 62.0572 45.4804V52.1444C62.0572 52.1631 62.0572 52.1911 62.0572 52.2284C62.0572 52.4524 62.0852 52.6578 62.1412 52.8444C62.1972 53.0311 62.4026 53.1244 62.7572 53.1244C63.9706 53.1058 65.1652 53.0124 66.3412 52.8444C67.5172 52.6764 68.6186 52.4711 69.6452 52.2284C70.6719 51.9858 71.5772 51.7338 72.3612 51.4724C73.1452 51.2111 73.7519 50.9778 74.1812 50.7724C74.5359 50.6418 74.7319 50.6884 74.7692 50.9124C74.8252 51.1364 74.7039 51.3698 74.4052 51.6124C74.1626 51.8178 73.6959 52.0511 73.0052 52.3124C72.3146 52.5738 71.4839 52.8444 70.5132 53.1244C69.5612 53.4044 68.5532 53.6658 67.4892 53.9084C66.4439 54.1324 65.4266 54.3191 64.4372 54.4684C63.4479 54.5991 62.5706 54.6644 61.8052 54.6644ZM76.1692 56.2884C76.0012 56.2884 75.8986 56.1951 75.8612 56.0084C75.8239 55.8218 75.7866 55.5418 75.7492 55.1684C75.7306 54.7951 75.7212 54.4124 75.7212 54.0204C75.7212 53.6098 75.7212 53.2831 75.7212 53.0404V44.6404C75.7212 44.0804 75.6932 43.6418 75.6372 43.3244C75.5999 43.0071 75.4786 42.7364 75.2732 42.5124C75.0866 42.2884 74.7692 42.0458 74.3212 41.7844C74.1346 41.6538 74.0879 41.4858 74.1812 41.2804C74.3492 41.0004 74.5732 40.8604 74.8532 40.8604C75.1332 40.8604 75.5066 40.9631 75.9732 41.1684C76.4399 41.3738 76.8226 41.5698 77.1212 41.7564C77.2146 41.8124 77.2986 41.8871 77.3732 41.9804C77.4479 42.0738 77.4759 42.1764 77.4572 42.2884C77.4012 42.6058 77.3639 42.9231 77.3452 43.2404C77.3266 43.5578 77.3172 43.9124 77.3172 44.3044V49.2044C78.2692 49.2044 79.0626 49.1391 79.6972 49.0084C80.3319 48.8591 80.8079 48.7378 81.1252 48.6444C81.3306 48.5698 81.4799 48.5604 81.5732 48.6164C81.6666 48.6724 81.7506 48.7658 81.8252 48.8964C81.8999 49.0084 81.9839 49.1951 82.0772 49.4564C82.1706 49.6991 82.2172 49.8764 82.2172 49.9884C82.2172 50.1004 82.1519 50.2031 82.0212 50.2964C81.9092 50.3898 81.8252 50.4364 81.7692 50.4364C81.0226 50.3618 80.2852 50.3151 79.5572 50.2964C78.8479 50.2591 78.1012 50.2404 77.3172 50.2404V52.8444C77.3172 53.1244 77.2986 53.4604 77.2612 53.8524C77.2426 54.2258 77.1866 54.5991 77.0932 54.9724C77.0186 55.3458 76.9066 55.6631 76.7572 55.9244C76.6079 56.1671 76.4119 56.2884 76.1692 56.2884ZM85.323 58.3604C85.099 58.4724 84.8564 58.5098 84.595 58.4724C84.3337 58.4351 84.1564 58.3511 84.063 58.2204C83.9697 58.0711 84.0537 57.9031 84.315 57.7164C84.9684 57.3804 85.6964 56.9044 86.499 56.2884C87.3017 55.6724 88.123 54.9538 88.963 54.1324C89.803 53.3111 90.5964 52.4338 91.343 51.5004C92.0897 50.5671 92.7337 49.6244 93.275 48.6724C93.835 47.7018 94.2364 46.7591 94.479 45.8444C94.535 45.6578 94.5257 45.5551 94.451 45.5364C94.395 45.4991 94.339 45.4804 94.283 45.4804C94.2644 45.4804 94.255 45.4804 94.255 45.4804C93.8257 45.4804 93.2844 45.5084 92.631 45.5644C91.9777 45.6204 91.4364 45.6671 91.007 45.7044C90.2044 45.7791 89.523 45.8444 88.963 45.9004C88.4217 45.9564 87.8524 46.0311 87.255 46.1244C86.6764 46.2178 86.247 46.1524 85.967 45.9284C85.5377 45.5738 85.2577 45.2751 85.127 45.0324C85.0897 44.9391 85.1084 44.8178 85.183 44.6684C85.2764 44.5004 85.3884 44.4258 85.519 44.4444C86.0604 44.5378 86.7417 44.6031 87.563 44.6404C88.3844 44.6778 89.2337 44.6778 90.111 44.6404C90.9324 44.6031 91.7537 44.5471 92.575 44.4724C93.3964 44.3791 94.0497 44.2298 94.535 44.0244C94.6844 43.9684 94.8337 43.9684 94.983 44.0244L96.579 44.6684C96.6537 44.7058 96.7097 44.7618 96.747 44.8364C96.803 44.9111 96.803 45.0138 96.747 45.1444C96.691 45.2191 96.5977 45.3871 96.467 45.6484C96.355 45.8911 96.243 46.1524 96.131 46.4324C96.019 46.6938 95.9257 46.8991 95.851 47.0484C95.2537 48.3364 94.5164 49.5778 93.639 50.7724C92.7804 51.9484 91.8564 53.0404 90.867 54.0484C89.8964 55.0378 88.9257 55.9058 87.955 56.6524C86.9844 57.3804 86.107 57.9498 85.323 58.3604ZM102.207 60.3764C102.039 60.3764 101.936 60.2831 101.899 60.0964C101.862 59.9098 101.824 59.6111 101.787 59.2004C101.768 58.7898 101.759 58.3698 101.759 57.9404C101.759 57.5111 101.759 57.1751 101.759 56.9324V44.6404C101.759 44.0804 101.731 43.6418 101.675 43.3244C101.638 43.0071 101.526 42.7364 101.339 42.5124C101.152 42.2884 100.835 42.0458 100.387 41.7844C100.182 41.6351 100.135 41.4671 100.247 41.2804C100.415 41.0004 100.63 40.8604 100.891 40.8604C101.171 40.8604 101.544 40.9631 102.011 41.1684C102.496 41.3738 102.888 41.5698 103.187 41.7564C103.411 41.8871 103.514 42.0644 103.495 42.2884C103.439 42.6058 103.402 42.9231 103.383 43.2404C103.364 43.5578 103.355 43.9124 103.355 44.3044V56.7364C103.355 56.9978 103.336 57.3338 103.299 57.7444C103.28 58.1364 103.234 58.5378 103.159 58.9484C103.084 59.3591 102.972 59.7044 102.823 59.9844C102.674 60.2458 102.468 60.3764 102.207 60.3764ZM93.975 66.3964C93.0417 66.3964 92.351 66.1538 91.903 65.6684C91.455 65.1831 91.231 64.5111 91.231 63.6524V61.8044C91.231 61.2071 91.175 60.7498 91.063 60.4324C90.951 60.1151 90.6524 59.8538 90.167 59.6484C90.055 59.6111 89.9804 59.5364 89.943 59.4244C89.9244 59.3124 89.9244 59.2098 89.943 59.1164C90.0737 58.7431 90.3164 58.5844 90.671 58.6404C90.9697 58.6778 91.3057 58.7804 91.679 58.9484C92.0524 59.0978 92.379 59.2564 92.659 59.4244C92.9017 59.5738 93.0044 59.7231 92.967 59.8724C92.9484 60.0031 92.9204 60.2364 92.883 60.5724C92.8457 60.9084 92.827 61.2351 92.827 61.5524V63.5124C92.827 64.1658 92.939 64.6138 93.163 64.8564C93.4057 65.0804 93.723 65.2111 94.115 65.2484C94.339 65.2671 94.6937 65.2764 95.179 65.2764C95.683 65.2764 96.2337 65.2671 96.831 65.2484C97.4284 65.2298 98.007 65.2111 98.567 65.1924C99.1457 65.1738 99.6124 65.1551 99.967 65.1364C100.938 65.0804 101.759 64.9871 102.431 64.8564C103.122 64.7258 103.626 64.6138 103.943 64.5204C104.354 64.3898 104.643 64.4458 104.811 64.6884C104.904 64.8378 105.007 65.0151 105.119 65.2204C105.231 65.4258 105.296 65.5938 105.315 65.7244C105.334 65.8551 105.268 65.9764 105.119 66.0884C104.988 66.2191 104.886 66.2844 104.811 66.2844C104.158 66.2471 103.598 66.2191 103.131 66.2004C102.664 66.2004 102.17 66.2004 101.647 66.2004C101.124 66.2191 100.452 66.2471 99.631 66.2844C98.679 66.3218 97.727 66.3498 96.775 66.3684C95.823 66.3871 94.8897 66.3964 93.975 66.3964ZM12.5438 93.0324C11.4238 93.0698 10.3878 92.8831 9.43582 92.4724C8.50249 92.0618 7.75582 91.4738 7.19582 90.7084C6.63582 89.9431 6.33715 89.0658 6.29982 88.0764C6.29982 87.1244 6.58915 86.2658 7.16782 85.5004C7.74649 84.7351 8.51182 84.1191 9.46382 83.6524C10.4158 83.1858 11.4518 82.9338 12.5718 82.8964C14.4572 82.8218 15.9692 83.2324 17.1078 84.1284C18.2652 85.0058 18.8438 86.2471 18.8438 87.8524C18.8438 88.8418 18.5545 89.7284 17.9758 90.5124C17.3972 91.2778 16.6318 91.8844 15.6798 92.3324C14.7278 92.7618 13.6825 92.9951 12.5438 93.0324ZM12.5998 91.8844C13.9065 91.8284 14.9612 91.4364 15.7638 90.7084C16.5852 89.9804 17.0145 89.0284 17.0518 87.8524C17.0518 86.5831 16.6318 85.6311 15.7918 84.9964C14.9705 84.3618 13.8972 84.0444 12.5718 84.0444C11.7132 84.0444 10.9385 84.2218 10.2478 84.5764C9.57582 84.9311 9.04382 85.4164 8.65182 86.0324C8.25982 86.6298 8.06382 87.3018 8.06382 88.0484C8.06382 89.2804 8.49315 90.2418 9.35182 90.9324C10.2292 91.6044 11.3118 91.9218 12.5998 91.8844ZM12.7118 106.724C12.5812 106.78 12.4785 106.771 12.4038 106.696C12.3292 106.64 12.2825 106.575 12.2638 106.5C12.2265 106.351 12.1892 106.08 12.1518 105.688C12.1145 105.278 12.0865 104.83 12.0678 104.344C12.0678 103.859 12.0678 103.43 12.0678 103.056V97.0644L6.60782 97.2324C5.78649 97.2698 5.06782 97.3351 4.45182 97.4284C3.83582 97.5031 3.24782 97.5964 2.68782 97.7084C2.37049 97.7831 2.14649 97.8111 2.01582 97.7924C1.90382 97.7551 1.75449 97.6711 1.56782 97.5404C1.45582 97.4658 1.30649 97.3538 1.11982 97.2044C0.933154 97.0364 0.765154 96.8684 0.61582 96.7004C0.466487 96.5324 0.382487 96.4204 0.36382 96.3644C0.30782 96.2711 0.33582 96.1404 0.44782 95.9724C0.578487 95.8044 0.69982 95.7391 0.81182 95.7764C1.40915 95.9071 2.07182 96.0004 2.79982 96.0564C3.54649 96.1124 4.41449 96.1311 5.40382 96.1124C7.21449 96.0938 9.13715 96.0658 11.1718 96.0284C13.2252 95.9911 15.2785 95.9351 17.3318 95.8604C18.1532 95.8231 18.9465 95.7764 19.7118 95.7204C20.4958 95.6458 21.1772 95.5618 21.7558 95.4684C22.3532 95.3751 22.7918 95.2911 23.0718 95.2164C23.2772 95.1418 23.4358 95.1324 23.5478 95.1884C23.6785 95.2444 23.7905 95.3378 23.8838 95.4684C23.9958 95.6178 24.1078 95.8044 24.2198 96.0284C24.3505 96.2338 24.4158 96.4111 24.4158 96.5604C24.4158 96.6911 24.3505 96.8124 24.2198 96.9244C24.0892 97.0178 23.9865 97.0644 23.9118 97.0644C23.2212 96.9711 22.4278 96.9244 21.5318 96.9244C20.6358 96.9058 19.7772 96.9058 18.9558 96.9244C18.7505 96.9244 18.5452 96.9244 18.3398 96.9244C18.1532 96.9244 17.9758 96.9244 17.8078 96.9244L13.6638 97.0084V103C13.6638 103.392 13.6358 103.859 13.5798 104.4C13.5238 104.942 13.4212 105.436 13.2718 105.884C13.1412 106.332 12.9545 106.612 12.7118 106.724ZM30.5319 100.284C30.1212 100.303 29.7945 100.116 29.5519 99.7244C29.3092 99.3138 29.1879 98.8378 29.1879 98.2964V93.5364C29.1879 93.3498 29.1599 93.2191 29.1039 93.1444C29.0665 93.0511 28.9732 92.9578 28.8239 92.8644C28.6372 92.7711 28.4132 92.6498 28.1519 92.5004C27.8905 92.3511 27.7319 92.2298 27.6759 92.1364C27.6199 92.0431 27.6385 91.8938 27.7319 91.6884C27.8252 91.4831 27.9279 91.3898 28.0399 91.4084C28.3572 91.4458 28.6932 91.4831 29.0479 91.5204C29.4212 91.5578 29.7945 91.5858 30.1679 91.6044C30.5412 91.6231 31.0079 91.6324 31.5679 91.6324C32.1465 91.6138 32.7532 91.5858 33.3879 91.5484C34.0225 91.5111 34.6199 91.4644 35.1799 91.4084C35.7399 91.3524 36.1879 91.2964 36.5239 91.2404C36.5425 91.1098 36.5799 90.8484 36.6359 90.4564C36.6919 90.0458 36.7479 89.5884 36.8039 89.0844C36.8599 88.5804 36.9159 88.1044 36.9719 87.6564C37.0279 87.2084 37.0652 86.8818 37.0839 86.6764C37.1025 86.5271 37.0839 86.4431 37.0279 86.4244C36.9905 86.3871 36.9532 86.3684 36.9159 86.3684C36.8972 86.3684 36.8599 86.3684 36.8039 86.3684C36.5799 86.3684 36.1599 86.3778 35.5439 86.3964C34.9465 86.3964 34.1532 86.4431 33.1639 86.5364C32.6785 86.5738 32.2772 86.6111 31.9599 86.6484C31.6612 86.6671 31.3719 86.6951 31.0919 86.7324C30.8119 86.7511 30.4852 86.7978 30.1119 86.8724C29.7572 86.9471 29.5145 86.9658 29.3839 86.9284C29.2719 86.8911 29.1319 86.7978 28.9639 86.6484C28.7772 86.4991 28.6279 86.3591 28.5159 86.2284C28.4039 86.0791 28.3105 85.9391 28.2359 85.8084C28.1799 85.7151 28.1985 85.6031 28.2919 85.4724C28.3852 85.3231 28.4972 85.2578 28.6279 85.2764C28.9452 85.3138 29.2905 85.3511 29.6639 85.3884C30.0559 85.4071 30.4385 85.4258 30.8119 85.4444C31.2225 85.4631 31.7265 85.4724 32.3239 85.4724C32.9212 85.4538 33.5185 85.4258 34.1159 85.3884C34.7319 85.3511 35.2639 85.3138 35.7119 85.2764C36.0292 85.2391 36.3185 85.1831 36.5799 85.1084C36.8599 85.0151 37.0465 84.9404 37.1399 84.8844C37.2892 84.7911 37.4572 84.7911 37.6439 84.8844L38.9319 85.4164C39.1185 85.4911 39.1745 85.6404 39.0999 85.8644C39.0625 85.9578 38.9785 86.1724 38.8479 86.5084C38.7359 86.8444 38.6332 87.2271 38.5399 87.6564L37.7839 91.0164C37.9332 91.1098 38.1199 91.2591 38.3439 91.4644C38.5679 91.6511 38.6799 91.7911 38.6799 91.8844C38.6799 92.0338 38.6052 92.1738 38.4559 92.3044C38.3252 92.4351 38.2319 92.5004 38.1759 92.5004C37.9705 92.4818 37.5692 92.4818 36.9719 92.5004C36.3745 92.5004 35.6932 92.5191 34.9279 92.5564C34.1625 92.5938 33.4065 92.6311 32.6599 92.6684C31.9132 92.7058 31.2879 92.7431 30.7839 92.7804V97.9884C30.7839 98.2311 30.8305 98.4178 30.9239 98.5484C31.0359 98.6791 31.2785 98.7351 31.6519 98.7164C32.6785 98.6978 33.7519 98.6044 34.8719 98.4364C35.9919 98.2684 37.0652 98.0724 38.0919 97.8484C39.1372 97.6058 40.0519 97.3631 40.8359 97.1204C41.6199 96.8591 42.1892 96.6351 42.5439 96.4484C42.9172 96.2991 43.1225 96.3458 43.1599 96.5884C43.2159 96.8311 43.0945 97.0644 42.7959 97.2884C42.5345 97.4564 42.0679 97.6711 41.3959 97.9324C40.7239 98.1751 39.9212 98.4364 38.9879 98.7164C38.0732 98.9964 37.1025 99.2578 36.0759 99.5004C35.0679 99.7244 34.0785 99.9111 33.1079 100.06C32.1372 100.21 31.2785 100.284 30.5319 100.284ZM44.7279 106.556C44.5225 106.556 44.4105 106.463 44.3919 106.276C44.3732 106.127 44.3452 105.856 44.3079 105.464C44.2892 105.054 44.2705 104.615 44.2519 104.148C44.2332 103.663 44.2239 103.243 44.2239 102.888V85.7244C44.2239 85.1458 44.1959 84.6978 44.1399 84.3804C44.1025 84.0631 43.9812 83.8018 43.7759 83.5964C43.5892 83.3724 43.2532 83.1391 42.7679 82.8964C42.6185 82.8031 42.5439 82.7098 42.5439 82.6164C42.5439 82.5231 42.6092 82.4018 42.7399 82.2524C42.8705 82.0844 43.0105 82.0004 43.1599 82.0004C43.3839 82.0004 43.6639 82.0564 43.9999 82.1684C44.3359 82.2804 44.6625 82.4111 44.9799 82.5604C45.2972 82.6911 45.5305 82.8124 45.6799 82.9244C45.9039 83.0924 46.0065 83.2791 45.9879 83.4844C45.9319 83.8764 45.8852 84.2404 45.8479 84.5764C45.8292 84.9124 45.8199 85.3044 45.8199 85.7524V102.832C45.8199 103.131 45.8012 103.495 45.7639 103.924C45.7452 104.335 45.6985 104.746 45.6239 105.156C45.5492 105.548 45.4372 105.875 45.2879 106.136C45.1572 106.416 44.9705 106.556 44.7279 106.556ZM58.4649 94.6004C57.4009 94.6191 56.4209 94.4324 55.5249 94.0404C54.6289 93.6298 53.9102 93.0511 53.3689 92.3044C52.8276 91.5391 52.5569 90.6524 52.5569 89.6444C52.5569 88.6738 52.8276 87.8058 53.3689 87.0404C53.9102 86.2751 54.6289 85.6591 55.5249 85.1924C56.4209 84.7258 57.4102 84.4831 58.4929 84.4644C59.5756 84.4271 60.5649 84.6044 61.4609 84.9964C62.3569 85.3884 63.0756 85.9578 63.6169 86.7044C64.1582 87.4511 64.4289 88.3564 64.4289 89.4204C64.4289 90.3911 64.1489 91.2684 63.5889 92.0524C63.0476 92.8178 62.3289 93.4244 61.4329 93.8724C60.5369 94.3204 59.5476 94.5631 58.4649 94.6004ZM58.4929 93.3964C59.6876 93.3591 60.6862 92.9858 61.4889 92.2764C62.3102 91.5671 62.7209 90.6151 62.7209 89.4204C62.7209 88.1138 62.3102 87.1524 61.4889 86.5364C60.6862 85.9204 59.6782 85.6311 58.4649 85.6684C57.2516 85.7431 56.2249 86.1258 55.3849 86.8164C54.5636 87.5071 54.1529 88.4404 54.1529 89.6164C54.1529 90.8484 54.5729 91.8004 55.4129 92.4724C56.2529 93.1258 57.2796 93.4338 58.4929 93.3964ZM69.3569 106.556C69.1516 106.556 69.0396 106.463 69.0209 106.276C69.0022 106.127 68.9742 105.856 68.9369 105.464C68.9182 105.054 68.8996 104.615 68.8809 104.148C68.8622 103.663 68.8529 103.243 68.8529 102.888V85.7244C68.8529 85.1458 68.8249 84.6978 68.7689 84.3804C68.7316 84.0631 68.6102 83.8018 68.4049 83.5964C68.2182 83.3724 67.8822 83.1391 67.3969 82.8964C67.2476 82.8031 67.1729 82.7098 67.1729 82.6164C67.1729 82.5231 67.2382 82.4018 67.3689 82.2524C67.4996 82.0844 67.6396 82.0004 67.7889 82.0004C68.0129 82.0004 68.2929 82.0564 68.6289 82.1684C68.9649 82.2804 69.2916 82.4111 69.6089 82.5604C69.9262 82.6911 70.1596 82.8124 70.3089 82.9244C70.5329 83.0924 70.6356 83.2791 70.6169 83.4844C70.5609 83.8764 70.5142 84.2404 70.4769 84.5764C70.4582 84.9124 70.4489 85.3044 70.4489 85.7524V102.832C70.4489 103.131 70.4302 103.495 70.3929 103.924C70.3742 104.335 70.3276 104.746 70.2529 105.156C70.1782 105.548 70.0662 105.875 69.9169 106.136C69.7862 106.416 69.5996 106.556 69.3569 106.556ZM52.3889 100.984C52.2396 100.984 52.0996 100.956 51.9689 100.9C51.8569 100.844 51.7169 100.76 51.5489 100.648C51.3249 100.499 51.0729 100.322 50.7929 100.116C50.5129 99.9111 50.3542 99.7431 50.3169 99.6124C50.2982 99.5191 50.3262 99.3978 50.4009 99.2484C50.4942 99.0991 50.6062 99.0244 50.7369 99.0244C51.2222 99.0991 51.6982 99.1551 52.1649 99.1924C52.6316 99.2111 53.0982 99.2204 53.5649 99.2204C54.2182 99.2204 55.0116 99.1924 55.9449 99.1364C56.8969 99.0618 57.9142 98.9591 58.9969 98.8284C60.0796 98.6978 61.1529 98.5578 62.2169 98.4084C63.2996 98.2404 64.3076 98.0724 65.2409 97.9044C66.1742 97.7178 66.9582 97.5311 67.5929 97.3444C67.7049 97.3071 67.8169 97.3071 67.9289 97.3444C68.0409 97.3631 68.0969 97.4471 68.0969 97.5964C68.0969 97.7084 68.0409 97.8391 67.9289 97.9884C67.8169 98.1191 67.6676 98.2311 67.4809 98.3244C67.2569 98.4178 66.8089 98.5484 66.1369 98.7164C65.4836 98.8658 64.6902 99.0338 63.7569 99.2204C62.8236 99.4071 61.8249 99.5844 60.7609 99.7524C59.6969 99.9204 58.6516 100.06 57.6249 100.172C56.7662 100.266 55.9356 100.359 55.1329 100.452C54.3489 100.546 53.7049 100.667 53.2009 100.816C52.8462 100.928 52.5756 100.984 52.3889 100.984ZM96.1376 92.2764C95.0176 92.2951 93.9816 92.1084 93.0296 91.7164C92.0963 91.3244 91.3403 90.7644 90.7616 90.0364C90.2016 89.3084 89.9216 88.4498 89.9216 87.4604C89.9216 86.5084 90.2109 85.6684 90.7896 84.9404C91.3683 84.1938 92.1243 83.6058 93.0576 83.1764C94.0096 82.7284 95.0456 82.4951 96.1656 82.4764C97.3043 82.4391 98.3403 82.6071 99.2736 82.9804C100.207 83.3538 100.954 83.8951 101.514 84.6044C102.092 85.3138 102.382 86.1911 102.382 87.2364C102.382 88.1698 102.092 89.0191 101.514 89.7844C100.954 90.5311 100.198 91.1284 99.2456 91.5764C98.2936 92.0058 97.2576 92.2391 96.1376 92.2764ZM91.5456 108.404C91.3589 108.46 91.2096 108.414 91.0976 108.264C91.0043 108.115 90.9389 107.9 90.9016 107.62L90.6216 102.804C90.5843 102.188 90.4816 101.74 90.3136 101.46C90.1456 101.162 89.8189 100.9 89.3336 100.676C89.1656 100.583 89.1189 100.415 89.1936 100.172C89.2683 99.9858 89.3709 99.8738 89.5016 99.8364C89.6323 99.7804 89.7723 99.7618 89.9216 99.7804C90.1269 99.8178 90.3976 99.8644 90.7336 99.9204C91.0696 99.9764 91.3683 100.042 91.6296 100.116C92.2083 100.116 92.9269 100.116 93.7856 100.116C94.6629 100.116 95.5683 100.107 96.5016 100.088C97.4349 100.051 98.2843 100.004 99.0496 99.9484C99.5909 99.9111 100.058 99.8644 100.45 99.8084C100.842 99.7524 101.112 99.6871 101.262 99.6124C101.355 99.5564 101.486 99.5471 101.654 99.5844C101.915 99.6404 102.148 99.6964 102.354 99.7524C102.559 99.7898 102.792 99.8551 103.054 99.9484C103.24 100.004 103.287 100.144 103.194 100.368C103.156 100.518 103.1 100.77 103.026 101.124C102.97 101.46 102.914 101.815 102.858 102.188C102.802 102.562 102.755 102.851 102.718 103.056L102.326 105.912C102.438 106.006 102.587 106.136 102.774 106.304C102.979 106.472 103.082 106.612 103.082 106.724C103.082 106.855 103.016 106.986 102.886 107.116C102.755 107.266 102.662 107.34 102.606 107.34C101.952 107.303 101.159 107.275 100.226 107.256C99.2923 107.256 98.3216 107.256 97.3136 107.256C96.3243 107.256 95.3816 107.266 94.4856 107.284C93.5896 107.303 92.8616 107.322 92.3016 107.34C92.2643 107.639 92.1616 107.872 91.9936 108.04C91.8443 108.208 91.6949 108.33 91.5456 108.404ZM96.1656 91.0724C97.4536 91.0164 98.5083 90.6618 99.3296 90.0084C100.151 89.3364 100.58 88.4124 100.618 87.2364C100.655 86.3964 100.478 85.7151 100.086 85.1924C99.6936 84.6698 99.1523 84.2871 98.4616 84.0444C97.7709 83.7831 96.9963 83.6524 96.1376 83.6524C95.2789 83.6524 94.5043 83.8204 93.8136 84.1564C93.1416 84.4738 92.6003 84.9124 92.1896 85.4724C91.7976 86.0324 91.6016 86.6858 91.6016 87.4324C91.6016 88.6458 92.0403 89.5698 92.9176 90.2044C93.7949 90.8204 94.8776 91.1098 96.1656 91.0724ZM92.3016 106.276C92.3389 106.276 92.4509 106.276 92.6376 106.276C92.9923 106.276 93.5336 106.276 94.2616 106.276C94.9896 106.276 95.7829 106.267 96.6416 106.248C97.5189 106.248 98.3496 106.239 99.1336 106.22C99.9176 106.202 100.552 106.164 101.038 106.108C101.056 105.847 101.075 105.483 101.094 105.016C101.131 104.531 101.159 104.027 101.178 103.504C101.196 102.963 101.215 102.478 101.234 102.048C101.252 101.619 101.262 101.339 101.262 101.208C101.262 101.078 101.234 101.003 101.178 100.984C101.122 100.966 101.066 100.956 101.01 100.956C100.991 100.956 100.982 100.956 100.982 100.956C100.59 100.975 100.02 100.994 99.2736 101.012C98.5456 101.031 97.7336 101.05 96.8376 101.068C95.9603 101.087 95.1016 101.106 94.2616 101.124C93.4216 101.143 92.7123 101.162 92.1336 101.18L92.3016 106.276ZM85.7216 97.2604C85.5349 97.2604 85.3296 97.1764 85.1056 97.0084C85.0123 96.9338 84.8723 96.8218 84.6856 96.6724C84.5176 96.5044 84.3589 96.3458 84.2096 96.1964C84.0603 96.0284 83.9669 95.9164 83.9296 95.8604C83.8923 95.7671 83.9109 95.6458 83.9856 95.4964C84.0789 95.3471 84.1909 95.2724 84.3216 95.2724C84.8629 95.3658 85.5069 95.4498 86.2536 95.5244C87.0189 95.5804 87.9709 95.6084 89.1096 95.6084C89.8003 95.6084 90.6683 95.5991 91.7136 95.5804C92.7776 95.5431 93.9069 95.5058 95.1016 95.4684C96.3149 95.4311 97.4909 95.3938 98.6296 95.3564C99.7869 95.3004 100.804 95.2444 101.682 95.1884C102.167 95.1511 102.718 95.1138 103.334 95.0764C103.968 95.0204 104.566 94.9551 105.126 94.8804C105.686 94.8058 106.106 94.7404 106.386 94.6844C106.703 94.6098 106.918 94.5538 107.03 94.5164C107.16 94.4791 107.272 94.4604 107.366 94.4604C107.496 94.4604 107.646 94.5724 107.814 94.7964C107.907 94.9458 108 95.1231 108.094 95.3284C108.206 95.5151 108.262 95.6738 108.262 95.8044C108.262 95.9724 108.187 96.1031 108.038 96.1964C107.907 96.2898 107.823 96.3364 107.786 96.3364C107.468 96.2991 107.095 96.2804 106.666 96.2804C106.236 96.2618 105.816 96.2524 105.406 96.2524C105.014 96.2338 104.687 96.2244 104.426 96.2244C103.978 96.2244 103.362 96.2338 102.578 96.2524C101.812 96.2711 100.954 96.2991 100.002 96.3364C99.0496 96.3551 98.0789 96.3831 97.0896 96.4204C96.1003 96.4578 95.1483 96.4951 94.2336 96.5324C93.3376 96.5698 92.5536 96.6071 91.8816 96.6444C91.2283 96.6631 90.7523 96.6818 90.4536 96.7004C89.8936 96.7191 89.3243 96.7658 88.7456 96.8404C88.1669 96.8964 87.6443 96.9618 87.1776 97.0364C86.7296 97.0924 86.4216 97.1391 86.2536 97.1764C86.1789 97.1951 86.0949 97.2138 86.0016 97.2324C85.9083 97.2511 85.8149 97.2604 85.7216 97.2604ZM110.921 96.8684C110.715 96.9804 110.501 96.9898 110.277 96.8964C110.053 96.8031 109.941 96.6818 109.941 96.5324C109.941 96.4204 110.015 96.3178 110.165 96.2244C110.855 95.7951 111.574 95.2258 112.321 94.5164C113.086 93.8071 113.823 93.0231 114.533 92.1644C115.242 91.3058 115.877 90.4284 116.437 89.5324C117.015 88.6364 117.463 87.7684 117.781 86.9284C117.799 86.8911 117.818 86.8444 117.837 86.7884C117.986 86.3404 118.079 85.9111 118.117 85.5004C118.173 85.0898 118.005 84.7724 117.613 84.5484C117.351 84.3991 117.286 84.2124 117.417 83.9884C117.641 83.5778 117.977 83.4658 118.425 83.6524C118.686 83.7458 118.985 83.8951 119.321 84.1004C119.657 84.3058 119.899 84.4738 120.049 84.6044C120.198 84.7164 120.319 84.8471 120.413 84.9964C120.506 85.1458 120.534 85.2578 120.497 85.3324C120.291 85.6684 120.095 86.0418 119.909 86.4524C119.722 86.8444 119.526 87.2364 119.321 87.6284C119.19 87.9084 119.041 88.1884 118.873 88.4684C118.723 88.7484 118.565 89.0191 118.397 89.2804C119.554 90.2698 120.59 91.0631 121.505 91.6604C122.419 92.2391 123.194 92.6778 123.829 92.9764C124.09 93.1631 124.295 93.4804 124.445 93.9284C124.613 94.3578 124.669 94.7591 124.613 95.1324C124.594 95.2818 124.501 95.4124 124.333 95.5244C124.183 95.6178 124.034 95.6831 123.885 95.7204C123.735 95.7391 123.651 95.7298 123.633 95.6924C123.315 95.2631 122.905 94.7871 122.401 94.2644C121.897 93.7418 121.365 93.2191 120.805 92.6964C120.245 92.1738 119.703 91.6884 119.181 91.2404C118.677 90.7738 118.247 90.3911 117.893 90.0924C117.277 90.9884 116.577 91.8844 115.793 92.7804C115.009 93.6578 114.197 94.4511 113.357 95.1604C112.535 95.8698 111.723 96.4391 110.921 96.8684ZM129.037 108.348C128.887 108.386 128.785 108.358 128.729 108.264C128.673 108.19 128.635 108.115 128.617 108.04C128.542 107.704 128.495 107.331 128.477 106.92C128.477 106.528 128.477 106.146 128.477 105.772V100.564C128.477 100.303 128.411 100.172 128.281 100.172C128.169 100.172 127.898 100.182 127.469 100.2C127.058 100.219 126.573 100.247 126.013 100.284C125.453 100.303 124.883 100.331 124.305 100.368C123.745 100.406 123.269 100.443 122.877 100.48C121.645 100.574 120.59 100.658 119.713 100.732C118.854 100.807 118.145 100.891 117.585 100.984C117.249 101.059 116.95 101.012 116.689 100.844C116.539 100.751 116.343 100.602 116.101 100.396C115.877 100.172 115.746 100.014 115.709 99.9204C115.671 99.8084 115.709 99.6684 115.821 99.5004C115.933 99.3324 116.054 99.2671 116.185 99.3044C116.614 99.4164 117.351 99.4911 118.397 99.5284C119.461 99.5658 120.73 99.5471 122.205 99.4724C123.101 99.4351 123.969 99.3884 124.809 99.3324C125.649 99.2578 126.377 99.1738 126.993 99.0804C127.609 98.9871 128.019 98.8938 128.225 98.8004C128.355 98.7444 128.495 98.7258 128.645 98.7444C128.906 98.8004 129.167 98.8471 129.429 98.8844C129.709 98.9218 129.951 98.9591 130.157 98.9964C130.343 99.0151 130.409 99.1551 130.353 99.4164C130.334 99.5284 130.306 99.7244 130.269 100.004C130.25 100.266 130.231 100.536 130.213 100.816C130.194 101.096 130.185 101.33 130.185 101.516L130.129 105.352C130.129 105.707 130.091 106.099 130.017 106.528C129.942 106.976 129.83 107.368 129.681 107.704C129.531 108.059 129.317 108.274 129.037 108.348ZM129.093 97.2884C128.925 97.2884 128.822 97.1951 128.785 97.0084C128.747 96.8218 128.71 96.5418 128.673 96.1684C128.654 95.7951 128.645 95.4124 128.645 95.0204C128.645 94.6098 128.645 94.2831 128.645 94.0404V85.6404C128.645 85.0804 128.617 84.6418 128.561 84.3244C128.523 84.0071 128.402 83.7364 128.197 83.5124C128.01 83.2884 127.693 83.0458 127.245 82.7844C127.058 82.6538 127.011 82.4858 127.105 82.2804C127.273 82.0004 127.497 81.8604 127.777 81.8604C128.057 81.8604 128.43 81.9631 128.897 82.1684C129.363 82.3738 129.746 82.5698 130.045 82.7564C130.138 82.8124 130.222 82.8871 130.297 82.9804C130.371 83.0738 130.399 83.1764 130.381 83.2884C130.325 83.6058 130.287 83.9231 130.269 84.2404C130.25 84.5578 130.241 84.9124 130.241 85.3044V93.8444C130.241 94.1244 130.222 94.4604 130.185 94.8524C130.166 95.2258 130.11 95.5991 130.017 95.9724C129.942 96.3458 129.83 96.6631 129.681 96.9244C129.531 97.1671 129.335 97.2884 129.093 97.2884Z" fill="white"/>
</svg>
