<svg width="275" height="69" viewBox="0 0 275 69" fill="none" xmlns="http://www.w3.org/2000/svg">
<path d="M12.6858 22.648C12.4138 22.712 12.2218 22.736 12.1098 22.72C12.0138 22.688 11.8858 22.616 11.7258 22.504C11.6298 22.44 11.5018 22.344 11.3418 22.216C11.1818 22.088 11.0378 21.952 10.9098 21.808C10.7818 21.664 10.7098 21.568 10.6938 21.52C10.6298 21.456 10.6538 21.352 10.7658 21.208C10.8938 21.048 10.9978 20.984 11.0778 21.016C11.5898 21.128 12.1978 21.216 12.9018 21.28C13.6218 21.328 14.4058 21.344 15.2538 21.328C16.1178 21.328 17.0298 21.328 17.9898 21.328C18.9498 21.312 19.9338 21.288 20.9418 21.256L20.8698 19.096C19.6538 19 18.7258 18.632 18.0858 17.992C17.4618 17.336 17.1498 16.616 17.1498 15.832C17.1498 14.904 17.5018 14.128 18.2058 13.504C18.9258 12.864 20.0538 12.512 21.5898 12.448C22.9178 12.416 23.9978 12.688 24.8298 13.264C25.6618 13.824 26.0618 14.648 26.0298 15.736C25.9978 16.52 25.6618 17.232 25.0218 17.872C24.3978 18.496 23.4858 18.888 22.2858 19.048L22.1898 21.208C22.7978 21.192 23.3978 21.176 23.9898 21.16C24.5818 21.144 25.1658 21.12 25.7418 21.088C26.7818 21.04 27.7338 20.968 28.5978 20.872C29.4778 20.776 30.1018 20.672 30.4698 20.56C30.6458 20.496 30.7818 20.488 30.8778 20.536C30.9738 20.584 31.0698 20.664 31.1658 20.776C31.2458 20.904 31.3258 21.056 31.4058 21.232C31.5018 21.408 31.5498 21.552 31.5498 21.664C31.5498 21.776 31.4938 21.88 31.3818 21.976C31.2698 22.056 31.1898 22.096 31.1418 22.096C30.5498 22.016 29.8938 21.976 29.1738 21.976C28.4538 21.96 27.7658 21.96 27.1098 21.976C26.9338 21.976 26.7658 21.976 26.6058 21.976C26.4458 21.976 26.2858 21.976 26.1258 21.976C25.4058 21.992 24.6138 22.016 23.7498 22.048C22.8858 22.064 21.9978 22.088 21.0858 22.12C20.1898 22.136 19.3258 22.16 18.4938 22.192C17.6778 22.208 16.9418 22.232 16.2858 22.264C15.5658 22.296 14.9018 22.344 14.2938 22.408C13.7018 22.472 13.1658 22.552 12.6858 22.648ZM21.4938 18.112C22.4698 18.08 23.2138 17.832 23.7258 17.368C24.2378 16.888 24.5098 16.336 24.5418 15.712C24.5418 15.36 24.4618 15 24.3018 14.632C24.1578 14.248 23.8698 13.928 23.4378 13.672C23.0218 13.416 22.4058 13.288 21.5898 13.288C20.8538 13.288 20.2618 13.416 19.8138 13.672C19.3818 13.928 19.0698 14.248 18.8778 14.632C18.6858 15.016 18.5898 15.4 18.5898 15.784C18.5898 16.424 18.8378 16.976 19.3338 17.44C19.8458 17.888 20.5658 18.112 21.4938 18.112ZM18.5418 29.416C17.7418 29.416 17.1418 29.256 16.7418 28.936C16.3578 28.616 16.1738 28.088 16.1898 27.352V26.512C16.1898 26.064 16.1258 25.688 15.9978 25.384C15.8858 25.064 15.6458 24.824 15.2778 24.664C15.1818 24.632 15.1178 24.568 15.0858 24.472C15.0538 24.376 15.0538 24.288 15.0858 24.208C15.2458 23.936 15.4538 23.808 15.7098 23.824C15.9178 23.856 16.1978 23.936 16.5498 24.064C16.9018 24.192 17.1978 24.32 17.4378 24.448C17.6298 24.56 17.7098 24.696 17.6778 24.856C17.6458 24.968 17.6138 25.168 17.5818 25.456C17.5658 25.744 17.5578 26.024 17.5578 26.296V27.232C17.5578 27.776 17.6538 28.112 17.8458 28.24C18.0378 28.368 18.3098 28.432 18.6618 28.432C18.8378 28.448 19.1258 28.448 19.5258 28.432C19.9258 28.432 20.3738 28.424 20.8698 28.408C21.3818 28.392 21.8698 28.368 22.3338 28.336C22.8138 28.32 23.1978 28.304 23.4858 28.288C24.3178 28.24 25.0618 28.16 25.7178 28.048C26.3898 27.936 26.8618 27.84 27.1338 27.76C27.4858 27.648 27.7338 27.696 27.8778 27.904C27.9578 28.032 28.0458 28.184 28.1418 28.36C28.2378 28.536 28.2938 28.68 28.3098 28.792C28.3258 28.904 28.2698 29.008 28.1418 29.104C28.0298 29.216 27.9418 29.272 27.8778 29.272C27.3178 29.24 26.8138 29.216 26.3658 29.2C25.9338 29.2 25.4698 29.2 24.9738 29.2C24.4938 29.216 23.9018 29.24 23.1978 29.272C22.3818 29.304 21.5978 29.336 20.8458 29.368C20.0938 29.4 19.3258 29.416 18.5418 29.416ZM15.2538 11.968C14.9818 12.016 14.7898 12.016 14.6778 11.968C14.5658 11.92 14.4538 11.848 14.3418 11.752C14.1658 11.592 14.0138 11.44 13.8858 11.296C13.7738 11.136 13.6938 11.016 13.6458 10.936C13.5978 10.856 13.6218 10.752 13.7178 10.624C13.8138 10.48 13.9098 10.416 14.0058 10.432C14.2458 10.464 14.5578 10.504 14.9418 10.552C15.3418 10.6 15.7658 10.64 16.2138 10.672C16.6618 10.688 17.0778 10.696 17.4618 10.696C17.9258 10.696 18.4538 10.688 19.0458 10.672C19.6538 10.656 20.2698 10.64 20.8938 10.624C21.5338 10.592 22.1258 10.568 22.6698 10.552C23.2138 10.52 23.6618 10.488 24.0138 10.456C25.1018 10.392 25.9418 10.304 26.5338 10.192C27.1418 10.08 27.6218 9.984 27.9738 9.904C28.1498 9.856 28.2778 9.856 28.3578 9.904C28.4378 9.936 28.5098 10.008 28.5738 10.12C28.6378 10.232 28.6938 10.376 28.7418 10.552C28.7898 10.712 28.8138 10.848 28.8138 10.96C28.8138 11.056 28.7578 11.144 28.6458 11.224C28.5498 11.304 28.4778 11.344 28.4298 11.344C27.4698 11.264 26.4058 11.24 25.2378 11.272C24.0698 11.288 22.8778 11.32 21.6618 11.368C20.7978 11.4 20.0138 11.44 19.3098 11.488C18.6218 11.52 17.9578 11.568 17.3178 11.632C16.6778 11.696 15.9898 11.808 15.2538 11.968ZM20.3658 8.992C20.0938 8.96 19.7578 8.904 19.3578 8.824C18.9738 8.728 18.6138 8.616 18.2778 8.488C17.9418 8.344 17.7018 8.2 17.5578 8.056C17.4778 7.96 17.4618 7.824 17.5098 7.648C17.5738 7.472 17.6938 7.392 17.8698 7.408C18.6378 7.552 19.4378 7.64 20.2698 7.672C21.1178 7.704 21.9018 7.704 22.6218 7.672C23.3578 7.624 23.9498 7.584 24.3978 7.552C24.5258 7.536 24.6378 7.592 24.7338 7.72C24.8298 7.832 24.8858 7.92 24.9018 7.984C24.9178 8.112 24.8538 8.256 24.7098 8.416C24.5818 8.576 24.4378 8.688 24.2778 8.752C24.0858 8.816 23.7658 8.872 23.3178 8.92C22.8698 8.968 22.3818 9 21.8538 9.016C21.3258 9.032 20.8298 9.024 20.3658 8.992ZM34.2849 22.84C34.1249 22.936 33.9329 22.96 33.7089 22.912C33.5009 22.848 33.3809 22.752 33.3489 22.624C33.3489 22.512 33.4129 22.416 33.5409 22.336C34.6609 21.52 35.7089 20.568 36.6849 19.48C37.6769 18.392 38.5169 17.256 39.2049 16.072C39.9089 14.872 40.3649 13.72 40.5729 12.616C40.5889 12.44 40.5249 12.28 40.3809 12.136C40.2529 11.976 40.0209 11.856 39.6849 11.776L38.9409 11.824C38.6529 11.856 38.2609 11.904 37.7649 11.968C37.2849 12.032 36.8609 12.096 36.4929 12.16C36.2209 12.224 36.0289 12.232 35.9169 12.184C35.8049 12.136 35.7009 12.064 35.6049 11.968C35.4609 11.824 35.3249 11.672 35.1969 11.512C35.0689 11.336 34.9809 11.208 34.9329 11.128C34.9009 11.048 34.9169 10.944 34.9809 10.816C35.0449 10.688 35.1329 10.632 35.2449 10.648C35.9809 10.776 36.7889 10.84 37.6689 10.84C38.5489 10.84 39.3409 10.824 40.0449 10.792C40.9249 10.744 41.8289 10.672 42.7569 10.576C43.7009 10.48 44.4929 10.36 45.1329 10.216C45.3089 10.168 45.4369 10.168 45.5169 10.216C45.5969 10.248 45.6689 10.312 45.7329 10.408C45.7969 10.52 45.8529 10.688 45.9009 10.912C45.9649 11.12 45.9969 11.272 45.9969 11.368C45.9969 11.464 45.9409 11.552 45.8289 11.632C45.7329 11.712 45.6609 11.752 45.6129 11.752C45.1169 11.72 44.4849 11.696 43.7169 11.68C42.9649 11.664 42.1169 11.672 41.1729 11.704C41.4449 11.832 41.7009 12 41.9409 12.208C42.1809 12.4 42.2929 12.6 42.2769 12.808C42.1009 13.672 41.5889 14.784 40.7409 16.144C41.4769 16.736 42.1009 17.232 42.6129 17.632C43.1409 18.032 43.6209 18.376 44.0529 18.664C44.5009 18.936 44.9729 19.2 45.4689 19.456C45.7889 19.712 45.9969 20.04 46.0929 20.44C46.2049 20.824 46.2529 21.176 46.2369 21.496C46.2369 21.608 46.1729 21.712 46.0449 21.808C45.9169 21.904 45.7809 21.968 45.6369 22C45.4929 22.032 45.3969 22.024 45.3489 21.976C44.8529 21.288 44.3009 20.624 43.6929 19.984C43.1009 19.344 42.5089 18.752 41.9169 18.208C41.3249 17.664 40.7889 17.2 40.3089 16.816C39.5569 17.904 38.6609 18.992 37.6209 20.08C36.5969 21.168 35.4849 22.088 34.2849 22.84ZM49.0689 28.528C48.8929 28.528 48.7969 28.448 48.7809 28.288C48.7649 28.16 48.7409 27.928 48.7089 27.592C48.6929 27.24 48.6769 26.864 48.6609 26.464C48.6449 26.048 48.6369 25.688 48.6369 25.384V10.672C48.6369 10.176 48.6129 9.792 48.5649 9.52C48.5329 9.248 48.4289 9.024 48.2529 8.848C48.0929 8.656 47.8049 8.456 47.3889 8.248C47.2609 8.168 47.1969 8.088 47.1969 8.008C47.1969 7.928 47.2529 7.824 47.3649 7.696C47.4769 7.552 47.5969 7.48 47.7249 7.48C47.9169 7.48 48.1569 7.528 48.4449 7.624C48.7329 7.72 49.0129 7.832 49.2849 7.96C49.5569 8.072 49.7569 8.176 49.8849 8.272C50.0769 8.416 50.1649 8.576 50.1489 8.752C50.1009 9.088 50.0609 9.4 50.0289 9.688C50.0129 9.976 50.0049 10.312 50.0049 10.696V17.248C50.8529 17.248 51.5969 17.184 52.2369 17.056C52.8929 16.912 53.3489 16.8 53.6049 16.72C53.7809 16.656 53.9089 16.648 53.9889 16.696C54.0689 16.744 54.1409 16.816 54.2049 16.912C54.2849 17.024 54.3649 17.192 54.4449 17.416C54.5409 17.64 54.5889 17.808 54.5889 17.92C54.5889 18.016 54.5329 18.104 54.4209 18.184C54.3249 18.264 54.2529 18.304 54.2049 18.304C53.6129 18.224 52.9969 18.184 52.3569 18.184C51.7329 18.168 51.1009 18.16 50.4609 18.16C50.3809 18.16 50.3009 18.16 50.2209 18.16C50.1569 18.16 50.0849 18.16 50.0049 18.16V25.336C50.0049 25.592 49.9889 25.904 49.9569 26.272C49.9409 26.624 49.9009 26.976 49.8369 27.328C49.7729 27.664 49.6769 27.944 49.5489 28.168C49.4369 28.408 49.2769 28.528 49.0689 28.528ZM66.0911 21.952C65.9311 22 65.8031 21.952 65.7071 21.808C65.6111 21.648 65.5471 21.448 65.5151 21.208L65.0111 13.984C64.9791 13.456 64.8831 13.048 64.7231 12.76C64.5631 12.472 64.2671 12.224 63.8351 12.016C63.6751 11.936 63.6351 11.8 63.7151 11.608C63.8271 11.32 64.0431 11.192 64.3631 11.224C64.4911 11.256 64.6751 11.304 64.9151 11.368C65.1551 11.416 65.3871 11.48 65.6111 11.56C65.9631 11.576 66.4511 11.584 67.0751 11.584C67.7151 11.584 68.3791 11.576 69.0671 11.56C69.7551 11.528 70.3631 11.496 70.8911 11.464C71.4031 11.432 71.8031 11.384 72.0911 11.32C72.3951 11.24 72.6351 11.16 72.8111 11.08C72.9391 11.032 73.0671 11.032 73.1951 11.08C73.3711 11.144 73.5631 11.216 73.7711 11.296C73.9791 11.36 74.1951 11.424 74.4191 11.488C74.4831 11.52 74.5391 11.568 74.5871 11.632C74.6511 11.696 74.6591 11.784 74.6111 11.896C74.5311 12.072 74.4431 12.384 74.3471 12.832C74.2671 13.264 74.1871 13.792 74.1071 14.416L73.4591 19.48C73.5871 19.576 73.7551 19.72 73.9631 19.912C74.1711 20.088 74.2751 20.232 74.2751 20.344C74.2751 20.472 74.2191 20.592 74.1071 20.704C73.9951 20.8 73.9151 20.848 73.8671 20.848C73.4511 20.848 72.9391 20.848 72.3311 20.848C71.7231 20.848 71.0751 20.856 70.3871 20.872C69.6991 20.872 69.0351 20.88 68.3951 20.896C67.7551 20.912 67.1951 20.928 66.7151 20.944C66.6991 21.232 66.6271 21.464 66.4991 21.64C66.3711 21.8 66.2351 21.904 66.0911 21.952ZM66.6671 19.96C66.8431 19.96 67.1711 19.96 67.6511 19.96C68.1471 19.944 68.6991 19.928 69.3071 19.912C69.9311 19.88 70.5311 19.848 71.1071 19.816C71.6831 19.784 72.1391 19.744 72.4751 19.696C72.5391 18.192 72.6031 16.824 72.6671 15.592C72.7311 14.344 72.7631 13.36 72.7631 12.64C72.7631 12.512 72.7391 12.44 72.6911 12.424C72.6591 12.392 72.6271 12.376 72.5951 12.376C72.2751 12.376 71.8511 12.384 71.3231 12.4C70.8111 12.4 70.2591 12.408 69.6671 12.424C69.0751 12.44 68.4831 12.464 67.8911 12.496C67.3151 12.512 66.8111 12.528 66.3791 12.544L66.6671 19.96ZM78.5711 28.528C78.3951 28.528 78.2991 28.448 78.2831 28.288C78.2671 28.16 78.2431 27.928 78.2111 27.592C78.1951 27.24 78.1791 26.864 78.1631 26.464C78.1471 26.048 78.1391 25.688 78.1391 25.384V10.672C78.1391 10.176 78.1151 9.792 78.0671 9.52C78.0351 9.248 77.9311 9.024 77.7551 8.848C77.5951 8.656 77.3071 8.456 76.8911 8.248C76.7631 8.168 76.6991 8.088 76.6991 8.008C76.6991 7.928 76.7551 7.824 76.8671 7.696C76.9791 7.552 77.0991 7.48 77.2271 7.48C77.4191 7.48 77.6591 7.528 77.9471 7.624C78.2351 7.72 78.5151 7.832 78.7871 7.96C79.0591 8.072 79.2591 8.176 79.3871 8.272C79.5791 8.416 79.6671 8.576 79.6511 8.752C79.6031 9.088 79.5631 9.4 79.5311 9.688C79.5151 9.976 79.5071 10.312 79.5071 10.696V17.248C80.3551 17.248 81.0991 17.184 81.7391 17.056C82.3951 16.912 82.8511 16.8 83.1071 16.72C83.2831 16.656 83.4111 16.648 83.4911 16.696C83.5711 16.744 83.6431 16.816 83.7071 16.912C83.7871 17.024 83.8671 17.192 83.9471 17.416C84.0431 17.64 84.0911 17.808 84.0911 17.92C84.0911 18.016 84.0351 18.104 83.9231 18.184C83.8271 18.264 83.7551 18.304 83.7071 18.304C83.1151 18.224 82.4991 18.184 81.8591 18.184C81.2351 18.168 80.6031 18.16 79.9631 18.16C79.8831 18.16 79.8031 18.16 79.7231 18.16C79.6591 18.16 79.5871 18.16 79.5071 18.16V25.336C79.5071 25.592 79.4911 25.904 79.4591 26.272C79.4431 26.624 79.4031 26.976 79.3391 27.328C79.2751 27.664 79.1791 27.944 79.0511 28.168C78.9391 28.408 78.7791 28.528 78.5711 28.528ZM85.5532 22.576C85.3772 22.688 85.1932 22.736 85.0012 22.72C84.8092 22.704 84.6732 22.648 84.5932 22.552C84.5292 22.44 84.5932 22.312 84.7852 22.168C85.5692 21.608 86.3212 20.944 87.0412 20.176C87.7772 19.392 88.4572 18.568 89.0812 17.704C89.7052 16.824 90.2412 15.96 90.6892 15.112C91.1532 14.248 91.5052 13.456 91.7452 12.736C91.9212 12.192 92.0252 11.72 92.0572 11.32C92.0892 10.904 91.8892 10.56 91.4572 10.288C91.2492 10.144 91.2012 9.992 91.3132 9.832C91.4572 9.608 91.6092 9.488 91.7692 9.472C91.9452 9.44 92.1212 9.464 92.2972 9.544C92.5372 9.64 92.8172 9.792 93.1372 10C93.4572 10.208 93.6812 10.36 93.8092 10.456C93.9852 10.616 94.0972 10.744 94.1452 10.84C94.1932 10.936 94.2012 11.024 94.1692 11.104C94.0092 11.376 93.8172 11.752 93.5932 12.232C93.3852 12.712 93.1612 13.208 92.9212 13.72C92.7932 13.976 92.6572 14.232 92.5132 14.488C92.3852 14.744 92.2492 15 92.1052 15.256C93.1612 16.264 94.1532 17.088 95.0812 17.728C96.0092 18.368 96.7532 18.84 97.3132 19.144C97.4572 19.24 97.5852 19.416 97.6972 19.672C97.8252 19.912 97.9212 20.176 97.9852 20.464C98.0492 20.736 98.0572 20.984 98.0092 21.208C97.9452 21.4 97.7852 21.544 97.5292 21.64C97.2892 21.72 97.1532 21.72 97.1212 21.64C96.8332 21.208 96.4412 20.72 95.9452 20.176C95.4652 19.616 94.9452 19.064 94.3852 18.52C93.8412 17.976 93.3212 17.48 92.8252 17.032C92.3452 16.584 91.9612 16.24 91.6732 16C90.8412 17.36 89.8892 18.624 88.8172 19.792C87.7612 20.944 86.6732 21.872 85.5532 22.576ZM101.129 28.528C100.953 28.528 100.857 28.448 100.841 28.288C100.825 28.16 100.801 27.928 100.769 27.592C100.753 27.24 100.737 26.864 100.721 26.464C100.705 26.048 100.697 25.688 100.697 25.384V10.672C100.697 10.176 100.673 9.792 100.625 9.52C100.593 9.248 100.489 9.024 100.313 8.848C100.153 8.656 99.8652 8.456 99.4492 8.248C99.3212 8.168 99.2572 8.088 99.2572 8.008C99.2572 7.928 99.3132 7.824 99.4252 7.696C99.5372 7.552 99.6572 7.48 99.7852 7.48C99.9772 7.48 100.217 7.528 100.505 7.624C100.793 7.72 101.073 7.832 101.345 7.96C101.617 8.072 101.817 8.176 101.945 8.272C102.137 8.416 102.225 8.576 102.209 8.752C102.161 9.088 102.121 9.4 102.089 9.688C102.073 9.976 102.065 10.312 102.065 10.696V25.336C102.065 25.592 102.049 25.904 102.017 26.272C102.001 26.624 101.961 26.976 101.897 27.328C101.833 27.664 101.737 27.944 101.609 28.168C101.497 28.408 101.337 28.528 101.129 28.528ZM111.962 15.52C111.242 15.52 110.882 14.984 110.882 13.912V11.632C110.882 11.152 110.818 10.712 110.69 10.312C110.578 9.896 110.274 9.552 109.778 9.28C109.602 9.184 109.578 9.048 109.706 8.872C109.914 8.568 110.186 8.456 110.522 8.536C110.746 8.6 111.01 8.704 111.314 8.848C111.618 8.976 111.874 9.128 112.082 9.304C112.306 9.496 112.402 9.64 112.37 9.736C112.322 9.976 112.29 10.248 112.274 10.552C112.258 10.856 112.25 11.168 112.25 11.488V13.792C112.25 14.112 112.29 14.328 112.37 14.44C112.45 14.536 112.65 14.584 112.97 14.584C113.866 14.584 114.834 14.568 115.874 14.536C116.93 14.504 117.898 14.456 118.778 14.392C119.722 14.344 120.458 14.28 120.986 14.2C121.514 14.104 121.97 13.992 122.354 13.864C122.546 13.784 122.69 13.76 122.786 13.792C122.882 13.824 122.986 13.896 123.098 14.008C123.194 14.104 123.282 14.24 123.362 14.416C123.442 14.576 123.498 14.712 123.53 14.824C123.562 14.936 123.514 15.048 123.386 15.16C123.258 15.272 123.162 15.328 123.098 15.328C122.554 15.296 122.074 15.28 121.658 15.28C121.258 15.264 120.826 15.264 120.362 15.28C119.914 15.28 119.338 15.296 118.634 15.328C117.994 15.344 117.266 15.368 116.45 15.4C115.65 15.432 114.85 15.464 114.05 15.496C113.266 15.512 112.57 15.52 111.962 15.52ZM108.194 20.896C107.922 20.96 107.73 20.984 107.618 20.968C107.522 20.936 107.394 20.864 107.234 20.752C107.138 20.688 107.01 20.592 106.85 20.464C106.69 20.336 106.538 20.208 106.394 20.08C106.266 19.936 106.194 19.832 106.178 19.768C106.162 19.688 106.202 19.576 106.298 19.432C106.394 19.288 106.482 19.232 106.562 19.264C107.074 19.376 107.69 19.464 108.41 19.528C109.13 19.576 109.914 19.592 110.762 19.576C112.314 19.56 114.002 19.536 115.826 19.504C117.666 19.472 119.474 19.416 121.25 19.336C122.29 19.288 123.242 19.216 124.106 19.12C124.986 19.024 125.61 18.92 125.978 18.808C126.154 18.744 126.29 18.736 126.386 18.784C126.498 18.832 126.594 18.912 126.674 19.024C126.77 19.152 126.858 19.304 126.938 19.48C127.018 19.656 127.058 19.8 127.058 19.912C127.058 20.024 127.002 20.128 126.89 20.224C126.778 20.304 126.698 20.344 126.65 20.344C126.058 20.264 125.402 20.224 124.682 20.224C123.962 20.208 123.274 20.208 122.618 20.224C122.442 20.224 122.274 20.224 122.114 20.224C121.954 20.224 121.794 20.224 121.634 20.224C120.914 20.24 120.122 20.264 119.258 20.296C118.394 20.312 117.506 20.336 116.594 20.368C115.698 20.384 114.834 20.408 114.002 20.44C113.186 20.456 112.45 20.48 111.794 20.512C111.074 20.544 110.41 20.592 109.802 20.656C109.21 20.72 108.674 20.8 108.194 20.896ZM114.026 29.296C112.458 29.296 111.674 28.568 111.674 27.112V25.792C111.674 25.344 111.61 24.968 111.482 24.664C111.37 24.344 111.13 24.104 110.762 23.944C110.666 23.912 110.602 23.848 110.57 23.752C110.538 23.656 110.538 23.568 110.57 23.488C110.73 23.216 110.938 23.088 111.194 23.104C111.402 23.136 111.682 23.216 112.034 23.344C112.386 23.472 112.682 23.6 112.922 23.728C113.114 23.84 113.194 23.976 113.162 24.136C113.13 24.248 113.098 24.448 113.066 24.736C113.05 25.024 113.042 25.304 113.042 25.576V26.992C113.042 27.552 113.138 27.904 113.33 28.048C113.538 28.208 113.81 28.296 114.146 28.312C114.322 28.328 114.626 28.336 115.058 28.336C115.506 28.336 116.002 28.328 116.546 28.312C117.09 28.296 117.61 28.272 118.106 28.24C118.618 28.224 119.026 28.208 119.33 28.192C120.162 28.16 120.874 28.088 121.466 27.976C122.074 27.864 122.514 27.76 122.786 27.664C123.122 27.52 123.37 27.568 123.53 27.808C123.61 27.936 123.698 28.088 123.794 28.264C123.89 28.44 123.946 28.584 123.962 28.696C123.978 28.808 123.922 28.912 123.794 29.008C123.682 29.12 123.594 29.176 123.53 29.176C122.97 29.144 122.442 29.12 121.946 29.104C121.466 29.104 120.954 29.104 120.41 29.104C119.882 29.12 119.266 29.144 118.562 29.176C117.746 29.208 116.978 29.232 116.258 29.248C115.554 29.28 114.81 29.296 114.026 29.296ZM144.398 29.416C143.694 29.432 143.166 29.296 142.814 29.008C142.462 28.736 142.286 28.248 142.286 27.544V26.464C142.286 26.384 142.278 26.304 142.262 26.224C142.262 26.144 142.23 26.088 142.166 26.056C142.006 25.976 141.822 25.864 141.614 25.72C141.406 25.56 141.278 25.44 141.23 25.36C141.182 25.28 141.198 25.16 141.278 25C141.374 24.824 141.47 24.752 141.566 24.784C141.838 24.848 142.134 24.896 142.454 24.928C142.774 24.944 143.134 24.96 143.534 24.976C143.806 24.976 144.198 24.976 144.71 24.976C145.238 24.976 145.822 24.976 146.462 24.976C147.102 24.96 147.742 24.944 148.382 24.928C149.038 24.896 149.63 24.864 150.158 24.832C150.686 24.8 151.094 24.768 151.382 24.736C151.414 24.608 151.446 24.312 151.478 23.848C151.526 23.384 151.55 22.976 151.55 22.624C151.55 22.528 151.534 22.472 151.502 22.456C151.47 22.44 151.414 22.432 151.334 22.432L145.526 22.72C144.966 22.736 144.438 22.768 143.942 22.816C143.462 22.864 143.118 22.904 142.91 22.936C142.59 22.984 142.334 22.944 142.142 22.816C141.998 22.72 141.838 22.6 141.662 22.456C141.502 22.312 141.406 22.2 141.374 22.12C141.342 22.024 141.374 21.912 141.47 21.784C141.582 21.64 141.694 21.584 141.806 21.616C142.014 21.664 142.302 21.712 142.67 21.76C143.038 21.792 143.43 21.816 143.846 21.832C144.262 21.848 144.63 21.856 144.95 21.856C145.158 21.856 145.414 21.856 145.718 21.856C146.038 21.84 146.374 21.824 146.726 21.808C146.678 21.568 146.646 21.32 146.63 21.064C146.63 20.792 146.63 20.568 146.63 20.392L146.582 18.592L142.262 18.76C141.782 18.776 141.294 18.816 140.798 18.88C140.302 18.928 139.854 18.984 139.454 19.048C139.07 19.096 138.806 19.136 138.662 19.168C138.598 19.184 138.526 19.2 138.446 19.216C138.366 19.232 138.286 19.24 138.206 19.24C138.046 19.24 137.87 19.168 137.678 19.024C137.598 18.96 137.478 18.864 137.318 18.736C137.174 18.592 137.038 18.456 136.91 18.328C136.782 18.184 136.702 18.088 136.67 18.04C136.638 17.96 136.654 17.856 136.718 17.728C136.798 17.6 136.894 17.536 137.006 17.536C137.47 17.616 138.022 17.688 138.662 17.752C139.318 17.8 140.134 17.824 141.11 17.824C141.702 17.824 142.446 17.816 143.342 17.8C144.254 17.768 145.222 17.736 146.246 17.704C147.286 17.672 148.294 17.64 149.27 17.608C150.262 17.56 151.134 17.512 151.886 17.464C152.302 17.432 152.774 17.4 153.302 17.368C153.846 17.32 154.358 17.264 154.838 17.2C155.318 17.136 155.678 17.08 155.918 17.032C156.19 16.968 156.374 16.92 156.47 16.888C156.582 16.856 156.678 16.84 156.758 16.84C156.87 16.84 156.998 16.936 157.142 17.128C157.222 17.256 157.302 17.408 157.382 17.584C157.478 17.744 157.526 17.88 157.526 17.992C157.526 18.136 157.462 18.248 157.334 18.328C157.222 18.408 157.15 18.448 157.118 18.448C156.846 18.416 156.526 18.4 156.158 18.4C155.79 18.384 155.43 18.376 155.078 18.376C154.742 18.36 154.462 18.352 154.238 18.352C153.854 18.352 153.326 18.36 152.654 18.376C151.998 18.392 151.262 18.416 150.446 18.448C149.63 18.464 148.806 18.488 147.974 18.52V19.888C147.974 20.208 147.966 20.536 147.95 20.872C147.934 21.192 147.91 21.48 147.878 21.736C148.598 21.704 149.294 21.656 149.966 21.592C150.654 21.512 151.158 21.424 151.478 21.328C151.59 21.312 151.71 21.32 151.838 21.352L152.942 21.616C153.118 21.664 153.166 21.792 153.086 22C153.054 22.08 152.982 22.288 152.87 22.624C152.774 22.96 152.678 23.32 152.582 23.704C152.486 24.072 152.414 24.36 152.366 24.568C152.494 24.648 152.654 24.752 152.846 24.88C153.054 24.992 153.158 25.088 153.158 25.168C153.158 25.296 153.094 25.44 152.966 25.6C152.854 25.744 152.774 25.808 152.726 25.792C152.534 25.776 152.166 25.768 151.622 25.768C151.094 25.752 150.462 25.744 149.726 25.744C149.006 25.744 148.262 25.752 147.494 25.768C146.726 25.768 146.006 25.784 145.334 25.816C144.662 25.848 144.11 25.88 143.678 25.912V27.4C143.678 27.864 143.734 28.152 143.846 28.264C143.958 28.376 144.174 28.44 144.494 28.456C144.542 28.456 144.646 28.456 144.806 28.456C145.126 28.456 145.566 28.456 146.126 28.456C146.702 28.456 147.318 28.448 147.974 28.432C148.63 28.416 149.262 28.392 149.87 28.36C150.702 28.328 151.366 28.272 151.862 28.192C152.374 28.128 152.814 28.032 153.182 27.904C153.39 27.824 153.542 27.8 153.638 27.832C153.734 27.864 153.83 27.936 153.926 28.048C154.038 28.144 154.142 28.272 154.238 28.432C154.334 28.592 154.39 28.72 154.406 28.816C154.422 28.912 154.366 29.024 154.238 29.152C154.11 29.28 154.014 29.344 153.95 29.344C153.182 29.312 152.526 29.296 151.982 29.296C151.438 29.296 150.822 29.304 150.134 29.32C150.086 29.32 150.03 29.32 149.966 29.32C149.902 29.32 149.838 29.32 149.774 29.32L144.398 29.416ZM139.79 15.76C139.582 15.824 139.39 15.824 139.214 15.76C139.054 15.696 138.958 15.608 138.926 15.496C138.91 15.384 138.998 15.296 139.19 15.232C140.294 14.832 141.31 14.352 142.238 13.792C143.182 13.216 143.998 12.616 144.686 11.992C145.39 11.368 145.934 10.792 146.318 10.264C146.606 9.88 146.798 9.496 146.894 9.112C146.99 8.728 146.87 8.424 146.534 8.2C146.326 8.072 146.294 7.904 146.438 7.696C146.582 7.488 146.726 7.392 146.87 7.408C147.014 7.408 147.158 7.44 147.302 7.504C147.318 7.52 147.334 7.528 147.35 7.528C147.51 7.576 147.702 7.688 147.926 7.864C148.166 8.024 148.374 8.184 148.55 8.344C148.678 8.456 148.774 8.576 148.838 8.704C148.902 8.816 148.91 8.912 148.862 8.992C148.686 9.216 148.502 9.472 148.31 9.76C148.118 10.032 147.91 10.328 147.686 10.648L147.422 11.008C147.934 11.232 148.566 11.464 149.318 11.704C150.07 11.928 150.83 12.136 151.598 12.328C152.382 12.504 153.046 12.64 153.59 12.736C153.734 12.8 153.894 12.928 154.07 13.12C154.246 13.312 154.398 13.528 154.526 13.768C154.654 13.992 154.718 14.216 154.718 14.44C154.718 14.6 154.622 14.76 154.43 14.92C154.238 15.08 154.102 15.128 154.022 15.064C153.59 14.744 153.038 14.416 152.366 14.08C151.71 13.728 151.022 13.392 150.302 13.072C149.582 12.736 148.91 12.448 148.286 12.208C147.678 11.952 147.206 11.76 146.87 11.632C145.958 12.576 144.87 13.408 143.606 14.128C142.342 14.848 141.07 15.392 139.79 15.76ZM165.709 20.392C164.749 20.408 163.877 20.224 163.093 19.84C162.309 19.456 161.685 18.912 161.221 18.208C160.757 17.488 160.525 16.672 160.525 15.76C160.525 14.864 160.757 14.064 161.221 13.36C161.685 12.64 162.309 12.064 163.093 11.632C163.893 11.2 164.773 10.976 165.733 10.96C166.693 10.928 167.557 11.088 168.325 11.44C169.109 11.792 169.733 12.312 170.197 13C170.661 13.688 170.893 14.536 170.893 15.544C170.893 16.456 170.661 17.28 170.197 18.016C169.733 18.736 169.109 19.304 168.325 19.72C167.541 20.136 166.669 20.36 165.709 20.392ZM165.733 19.192C166.437 19.16 167.069 18.992 167.629 18.688C168.189 18.368 168.629 17.944 168.949 17.416C169.285 16.872 169.453 16.256 169.453 15.568C169.453 14.816 169.285 14.176 168.949 13.648C168.613 13.12 168.165 12.72 167.605 12.448C167.045 12.16 166.421 12.032 165.733 12.064C165.045 12.064 164.413 12.232 163.837 12.568C163.261 12.888 162.797 13.328 162.445 13.888C162.109 14.432 161.941 15.048 161.941 15.736C161.941 16.456 162.109 17.088 162.445 17.632C162.797 18.16 163.261 18.56 163.837 18.832C164.413 19.104 165.045 19.224 165.733 19.192ZM175.525 28.528C175.349 28.528 175.253 28.448 175.237 28.288C175.221 28.16 175.197 27.928 175.165 27.592C175.149 27.24 175.133 26.864 175.117 26.464C175.101 26.048 175.093 25.688 175.093 25.384V10.672C175.093 10.176 175.069 9.792 175.021 9.52C174.989 9.248 174.885 9.024 174.709 8.848C174.549 8.656 174.261 8.456 173.845 8.248C173.717 8.168 173.653 8.088 173.653 8.008C173.653 7.928 173.709 7.824 173.821 7.696C173.933 7.552 174.053 7.48 174.181 7.48C174.373 7.48 174.613 7.528 174.901 7.624C175.189 7.72 175.469 7.832 175.741 7.96C176.013 8.072 176.213 8.176 176.341 8.272C176.533 8.416 176.621 8.576 176.605 8.752C176.557 9.088 176.517 9.4 176.485 9.688C176.469 9.976 176.461 10.312 176.461 10.696V25.336C176.461 25.592 176.445 25.904 176.413 26.272C176.397 26.624 176.357 26.976 176.293 27.328C176.229 27.664 176.133 27.944 176.005 28.168C175.893 28.408 175.733 28.528 175.525 28.528ZM183.76 23.152C183.408 23.168 183.128 23.008 182.92 22.672C182.712 22.32 182.608 21.912 182.608 21.448V17.368C182.608 17.208 182.584 17.096 182.536 17.032C182.504 16.952 182.424 16.872 182.296 16.792C182.136 16.712 181.944 16.608 181.72 16.48C181.496 16.352 181.36 16.248 181.312 16.168C181.264 16.088 181.28 15.96 181.36 15.784C181.44 15.608 181.528 15.528 181.624 15.544C181.896 15.576 182.184 15.608 182.488 15.64C182.808 15.672 183.128 15.696 183.448 15.712C183.768 15.728 184.16 15.736 184.624 15.736C185.088 15.72 185.576 15.696 186.088 15.664C186.616 15.632 187.104 15.592 187.552 15.544C188.016 15.496 188.392 15.448 188.68 15.4C188.696 15.288 188.728 15.064 188.776 14.728C188.824 14.376 188.872 13.984 188.92 13.552C188.984 13.12 189.04 12.712 189.088 12.328C189.136 11.944 189.168 11.664 189.184 11.488C189.2 11.36 189.184 11.288 189.136 11.272C189.088 11.24 189.048 11.224 189.016 11.224C189 11.224 188.968 11.224 188.92 11.224C188.744 11.224 188.424 11.232 187.96 11.248C187.496 11.248 186.848 11.288 186.016 11.368C185.6 11.4 185.256 11.432 184.984 11.464C184.728 11.48 184.48 11.504 184.24 11.536C184 11.552 183.72 11.592 183.4 11.656C183.096 11.72 182.888 11.736 182.776 11.704C182.68 11.672 182.56 11.592 182.416 11.464C182.256 11.336 182.128 11.216 182.032 11.104C181.936 10.976 181.856 10.856 181.792 10.744C181.744 10.664 181.76 10.568 181.84 10.456C181.92 10.328 182.016 10.272 182.128 10.288C182.4 10.32 182.696 10.352 183.016 10.384C183.352 10.4 183.68 10.416 184 10.432C184.352 10.448 184.76 10.456 185.224 10.456C185.704 10.44 186.184 10.416 186.664 10.384C187.16 10.352 187.6 10.32 187.984 10.288C188.256 10.256 188.512 10.208 188.752 10.144C188.992 10.064 189.152 10 189.232 9.952C189.328 9.872 189.464 9.872 189.64 9.952L190.768 10.408C190.816 10.44 190.856 10.488 190.888 10.552C190.92 10.616 190.92 10.696 190.888 10.792C190.856 10.872 190.784 11.056 190.672 11.344C190.576 11.632 190.488 11.96 190.408 12.328L189.76 15.208C189.904 15.288 190.064 15.416 190.24 15.592C190.432 15.752 190.528 15.872 190.528 15.952C190.528 16.08 190.464 16.2 190.336 16.312C190.224 16.424 190.144 16.48 190.096 16.48C189.92 16.464 189.584 16.456 189.088 16.456C188.608 16.456 188.048 16.472 187.408 16.504C186.784 16.52 186.16 16.552 185.536 16.6C184.928 16.632 184.408 16.672 183.976 16.72V21.184C183.976 21.392 184.016 21.552 184.096 21.664C184.192 21.776 184.4 21.824 184.72 21.808C185.616 21.792 186.512 21.712 187.408 21.568C188.32 21.424 189.184 21.256 190 21.064C190.832 20.856 191.56 20.648 192.184 20.44C192.808 20.216 193.28 20.024 193.6 19.864C193.888 19.736 194.056 19.784 194.104 20.008C194.168 20.216 194.072 20.408 193.816 20.584C193.576 20.744 193.184 20.928 192.64 21.136C192.096 21.344 191.448 21.568 190.696 21.808C189.96 22.032 189.184 22.248 188.368 22.456C187.552 22.648 186.744 22.808 185.944 22.936C185.144 23.064 184.416 23.136 183.76 23.152ZM195.448 28.528C195.272 28.528 195.176 28.448 195.16 28.288C195.144 28.16 195.12 27.928 195.088 27.592C195.072 27.24 195.056 26.864 195.04 26.464C195.024 26.048 195.016 25.688 195.016 25.384V10.672C195.016 10.176 194.992 9.792 194.944 9.52C194.912 9.248 194.808 9.024 194.632 8.848C194.472 8.656 194.184 8.456 193.768 8.248C193.64 8.168 193.576 8.088 193.576 8.008C193.576 7.928 193.632 7.824 193.744 7.696C193.856 7.552 193.976 7.48 194.104 7.48C194.296 7.48 194.536 7.528 194.824 7.624C195.112 7.72 195.392 7.832 195.664 7.96C195.936 8.072 196.136 8.176 196.264 8.272C196.456 8.416 196.544 8.576 196.528 8.752C196.48 9.088 196.44 9.4 196.408 9.688C196.392 9.976 196.384 10.312 196.384 10.696V17.248C197.232 17.248 197.976 17.184 198.616 17.056C199.272 16.912 199.728 16.8 199.984 16.72C200.16 16.656 200.288 16.648 200.368 16.696C200.448 16.744 200.52 16.816 200.584 16.912C200.664 17.024 200.744 17.192 200.824 17.416C200.92 17.64 200.968 17.808 200.968 17.92C200.968 18.016 200.912 18.104 200.8 18.184C200.704 18.264 200.632 18.304 200.584 18.304C199.992 18.224 199.376 18.184 198.736 18.184C198.112 18.168 197.48 18.16 196.84 18.16C196.76 18.16 196.68 18.16 196.6 18.16C196.536 18.16 196.464 18.16 196.384 18.16V25.336C196.384 25.592 196.368 25.904 196.336 26.272C196.32 26.624 196.28 26.976 196.216 27.328C196.152 27.664 196.056 27.944 195.928 28.168C195.816 28.408 195.656 28.528 195.448 28.528ZM203.156 24.448C202.948 24.544 202.748 24.568 202.556 24.52C202.364 24.456 202.244 24.36 202.196 24.232C202.148 24.088 202.244 23.952 202.484 23.824C203.46 23.248 204.436 22.528 205.412 21.664C206.404 20.8 207.332 19.848 208.196 18.808C209.06 17.768 209.796 16.672 210.404 15.52C211.028 14.368 211.46 13.216 211.7 12.064C211.732 11.904 211.7 11.816 211.604 11.8C211.508 11.768 211.444 11.752 211.412 11.752C211.156 11.752 210.788 11.768 210.308 11.8C209.828 11.816 209.34 11.84 208.844 11.872C208.364 11.888 207.996 11.912 207.74 11.944C207.036 12.008 206.476 12.056 206.06 12.088C205.644 12.12 205.196 12.184 204.716 12.28C204.46 12.328 204.276 12.336 204.164 12.304C204.068 12.272 203.956 12.192 203.828 12.064C203.492 11.728 203.26 11.448 203.132 11.224C203.084 11.144 203.1 11.04 203.18 10.912C203.26 10.784 203.348 10.736 203.444 10.768C203.908 10.864 204.524 10.936 205.292 10.984C206.06 11.016 206.82 11.008 207.572 10.96C208.036 10.928 208.532 10.896 209.06 10.864C209.588 10.816 210.084 10.752 210.548 10.672C211.028 10.592 211.404 10.504 211.676 10.408C211.676 10.408 211.684 10.408 211.7 10.408C211.764 10.392 211.812 10.384 211.844 10.384C211.892 10.384 211.956 10.392 212.036 10.408L213.548 10.888C213.612 10.92 213.66 10.976 213.692 11.056C213.724 11.136 213.716 11.224 213.668 11.32L213.188 12.664C212.788 13.816 212.228 14.976 211.508 16.144C210.788 17.312 209.964 18.432 209.036 19.504C208.124 20.576 207.164 21.544 206.156 22.408C205.148 23.256 204.148 23.936 203.156 24.448ZM217.772 28.528C217.596 28.528 217.5 28.448 217.484 28.288C217.468 28.16 217.444 27.928 217.412 27.592C217.396 27.24 217.38 26.864 217.364 26.464C217.348 26.048 217.34 25.688 217.34 25.384V10.672C217.34 10.176 217.316 9.792 217.268 9.52C217.236 9.248 217.132 9.024 216.956 8.848C216.796 8.656 216.508 8.456 216.092 8.248C215.964 8.168 215.9 8.088 215.9 8.008C215.9 7.928 215.956 7.824 216.068 7.696C216.18 7.552 216.3 7.48 216.428 7.48C216.62 7.48 216.86 7.528 217.148 7.624C217.436 7.72 217.716 7.832 217.988 7.96C218.26 8.072 218.46 8.176 218.588 8.272C218.78 8.416 218.868 8.576 218.852 8.752C218.804 9.088 218.764 9.4 218.732 9.688C218.716 9.976 218.708 10.312 218.708 10.696V25.336C218.708 25.592 218.692 25.904 218.66 26.272C218.644 26.624 218.604 26.976 218.54 27.328C218.476 27.664 218.38 27.944 218.252 28.168C218.14 28.408 217.98 28.528 217.772 28.528ZM227.435 20.128C227.259 20.144 227.131 20.08 227.051 19.936C226.971 19.792 226.931 19.6 226.931 19.36L226.811 13.408C226.811 12.848 226.787 12.4 226.739 12.064C226.691 11.712 226.595 11.416 226.451 11.176C226.307 10.92 226.075 10.68 225.755 10.456C225.579 10.344 225.547 10.2 225.659 10.024C225.835 9.736 226.075 9.632 226.379 9.712C226.603 9.776 226.859 9.888 227.147 10.048C227.451 10.208 227.699 10.376 227.891 10.552C228.115 10.76 228.219 10.936 228.203 11.08C228.171 11.304 228.147 11.608 228.131 11.992C228.115 12.36 228.107 12.704 228.107 13.024C228.587 13.024 229.211 13.016 229.979 13C230.763 12.984 231.587 12.968 232.451 12.952C233.331 12.92 234.163 12.888 234.947 12.856C235.747 12.824 236.411 12.784 236.939 12.736V12.064C236.939 11.344 236.883 10.776 236.771 10.36C236.659 9.944 236.355 9.568 235.859 9.232C235.699 9.12 235.675 8.984 235.787 8.824C236.011 8.552 236.243 8.448 236.483 8.512C236.707 8.56 236.987 8.68 237.323 8.872C237.675 9.048 237.947 9.224 238.139 9.4C238.363 9.624 238.467 9.776 238.451 9.856C238.419 10.096 238.379 10.424 238.331 10.84C238.299 11.24 238.283 11.608 238.283 11.944V17.92C238.283 18.384 238.219 18.792 238.091 19.144C237.963 19.496 237.755 19.688 237.467 19.72C237.291 19.752 237.163 19.688 237.083 19.528C237.019 19.352 236.971 19.152 236.939 18.928C236.411 18.928 235.755 18.936 234.971 18.952C234.203 18.952 233.387 18.96 232.523 18.976C231.675 18.976 230.859 18.984 230.075 19C229.307 19.016 228.659 19.04 228.131 19.072C228.099 19.376 228.011 19.624 227.867 19.816C227.723 20.008 227.579 20.112 227.435 20.128ZM228.131 18.112C228.659 18.128 229.307 18.136 230.075 18.136C230.859 18.12 231.675 18.104 232.523 18.088C233.387 18.056 234.203 18.024 234.971 17.992C235.755 17.944 236.411 17.896 236.939 17.848V13.792C236.411 13.792 235.755 13.8 234.971 13.816C234.203 13.816 233.387 13.824 232.523 13.84C231.675 13.856 230.859 13.88 230.075 13.912C229.291 13.928 228.635 13.952 228.107 13.984L228.131 18.112ZM224.483 25.768C224.195 25.832 224.003 25.856 223.907 25.84C223.811 25.808 223.683 25.736 223.523 25.624C223.427 25.56 223.299 25.456 223.139 25.312C222.979 25.168 222.835 25.032 222.707 24.904C222.579 24.76 222.499 24.656 222.467 24.592C222.419 24.512 222.443 24.4 222.539 24.256C222.651 24.112 222.763 24.056 222.875 24.088C223.387 24.2 223.955 24.288 224.579 24.352C225.219 24.4 225.963 24.416 226.811 24.4C226.971 24.4 227.131 24.4 227.291 24.4C227.467 24.4 227.635 24.4 227.795 24.4C228.483 24.4 229.171 24.4 229.859 24.4C230.563 24.4 231.283 24.384 232.019 24.352L232.043 22.744C232.059 22.264 232.027 21.848 231.947 21.496C231.867 21.144 231.627 20.856 231.227 20.632C231.115 20.568 231.059 20.504 231.059 20.44C231.075 20.376 231.107 20.296 231.155 20.2C231.299 19.928 231.523 19.824 231.827 19.888C232.259 20 232.707 20.216 233.171 20.536C233.395 20.696 233.491 20.848 233.459 20.992C233.395 21.232 233.347 21.48 233.315 21.736C233.299 21.976 233.283 22.264 233.267 22.6C233.251 22.888 233.235 23.176 233.219 23.464C233.203 23.752 233.195 24.04 233.195 24.328C233.787 24.312 234.379 24.304 234.971 24.304C235.563 24.288 236.163 24.264 236.771 24.232C237.811 24.2 238.763 24.128 239.627 24.016C240.491 23.904 241.099 23.784 241.451 23.656C241.627 23.608 241.763 23.608 241.859 23.656C241.955 23.688 242.051 23.768 242.147 23.896C242.243 24.024 242.339 24.192 242.435 24.4C242.547 24.592 242.603 24.752 242.603 24.88C242.603 24.992 242.547 25.088 242.435 25.168C242.323 25.248 242.235 25.288 242.171 25.288C241.435 25.224 240.603 25.192 239.675 25.192C238.763 25.176 237.931 25.168 237.179 25.168C236.219 25.184 235.179 25.208 234.059 25.24C232.939 25.256 231.835 25.272 230.747 25.288C229.675 25.304 228.699 25.336 227.819 25.384C227.115 25.416 226.499 25.464 225.971 25.528C225.443 25.592 224.947 25.672 224.483 25.768ZM247.484 22.648C247.148 22.664 246.868 22.504 246.644 22.168C246.436 21.816 246.332 21.408 246.332 20.944V13.528C246.332 12.952 246.268 12.528 246.14 12.256C246.028 11.984 245.716 11.744 245.204 11.536C245.028 11.456 244.98 11.328 245.06 11.152C245.124 10.976 245.212 10.856 245.324 10.792C245.452 10.712 245.58 10.68 245.708 10.696C245.9 10.712 246.164 10.76 246.5 10.84C246.836 10.92 247.116 11.016 247.34 11.128C247.804 11.128 248.292 11.128 248.804 11.128C249.332 11.112 249.828 11.088 250.292 11.056C251.092 11.024 251.86 10.952 252.596 10.84C253.332 10.712 253.828 10.6 254.084 10.504C254.276 10.456 254.412 10.448 254.492 10.48C254.588 10.496 254.676 10.56 254.756 10.672C254.82 10.752 254.9 10.888 254.996 11.08C255.092 11.256 255.14 11.392 255.14 11.488C255.14 11.6 255.092 11.704 254.996 11.8C254.916 11.896 254.844 11.944 254.78 11.944C254.3 11.912 253.836 11.904 253.388 11.92C252.956 11.92 252.38 11.936 251.66 11.968C251.532 11.968 251.396 11.976 251.252 11.992C251.124 11.992 250.988 11.992 250.844 11.992C250.236 12.024 249.692 12.048 249.212 12.064C248.732 12.08 248.236 12.104 247.724 12.136V20.608C247.724 20.832 247.764 21 247.844 21.112C247.94 21.208 248.148 21.248 248.468 21.232C249.332 21.216 250.228 21.128 251.156 20.968C252.1 20.808 252.996 20.616 253.844 20.392C254.708 20.168 255.452 19.952 256.076 19.744C256.716 19.52 257.172 19.344 257.444 19.216C257.732 19.088 257.9 19.136 257.948 19.36C258.012 19.568 257.916 19.76 257.66 19.936C257.452 20.064 257.068 20.24 256.508 20.464C255.964 20.688 255.308 20.928 254.54 21.184C253.788 21.424 252.988 21.656 252.14 21.88C251.292 22.104 250.46 22.288 249.644 22.432C248.844 22.576 248.124 22.648 247.484 22.648ZM259.532 28.528C259.356 28.528 259.26 28.448 259.244 28.288C259.228 28.16 259.204 27.928 259.172 27.592C259.156 27.24 259.14 26.864 259.124 26.464C259.108 26.048 259.1 25.688 259.1 25.384V10.672C259.1 10.176 259.076 9.792 259.028 9.52C258.996 9.248 258.892 9.024 258.716 8.848C258.556 8.656 258.268 8.456 257.852 8.248C257.724 8.168 257.66 8.088 257.66 8.008C257.66 7.928 257.716 7.824 257.828 7.696C257.94 7.552 258.06 7.48 258.188 7.48C258.38 7.48 258.62 7.528 258.908 7.624C259.196 7.72 259.476 7.832 259.748 7.96C260.02 8.072 260.22 8.176 260.348 8.272C260.54 8.416 260.628 8.576 260.612 8.752C260.564 9.088 260.524 9.4 260.492 9.688C260.476 9.976 260.468 10.312 260.468 10.696V17.248C261.316 17.248 262.06 17.184 262.7 17.056C263.356 16.912 263.812 16.8 264.068 16.72C264.244 16.656 264.372 16.648 264.452 16.696C264.532 16.744 264.604 16.816 264.668 16.912C264.748 17.024 264.828 17.192 264.908 17.416C265.004 17.64 265.052 17.808 265.052 17.92C265.052 18.016 264.996 18.104 264.884 18.184C264.788 18.264 264.716 18.304 264.668 18.304C264.076 18.224 263.46 18.184 262.82 18.184C262.196 18.168 261.564 18.16 260.924 18.16C260.844 18.16 260.764 18.16 260.684 18.16C260.62 18.16 260.548 18.16 260.468 18.16V25.336C260.468 25.592 260.452 25.904 260.42 26.272C260.404 26.624 260.364 26.976 260.3 27.328C260.236 27.664 260.14 27.944 260.012 28.168C259.9 28.408 259.74 28.528 259.532 28.528ZM67.1884 65.04C66.8524 65.088 66.6764 64.864 66.6604 64.368L66.4444 60.144C66.4284 59.664 66.3484 59.312 66.2044 59.088C66.0604 58.848 65.7964 58.624 65.4124 58.416C65.2524 58.368 65.2124 58.232 65.2924 58.008C65.3564 57.832 65.4444 57.728 65.5564 57.696C65.6684 57.648 65.7884 57.632 65.9164 57.648C66.0924 57.68 66.3084 57.728 66.5644 57.792C66.8364 57.856 67.0844 57.92 67.3084 57.984C67.4684 57.984 67.7804 57.984 68.2444 57.984C68.7244 57.968 69.2604 57.96 69.8524 57.96C70.4604 57.944 71.0524 57.928 71.6284 57.912C72.2204 57.88 72.7084 57.848 73.0924 57.816C73.5084 57.784 73.8924 57.744 74.2444 57.696C74.6124 57.648 74.8844 57.584 75.0604 57.504C75.0764 57.488 75.1004 57.472 75.1324 57.456C75.2284 57.424 75.3244 57.424 75.4204 57.456L76.6684 57.768C76.8124 57.8 76.8604 57.912 76.8124 58.104C76.7644 58.296 76.7084 58.592 76.6444 58.992C76.5804 59.392 76.5324 59.728 76.5004 60C76.4684 60.256 76.4284 60.56 76.3804 60.912C76.3324 61.264 76.2844 61.616 76.2364 61.968C76.2044 62.304 76.1724 62.584 76.1404 62.808C76.2524 62.888 76.4044 63.008 76.5964 63.168C76.8044 63.328 76.9084 63.464 76.9084 63.576C76.9084 63.688 76.8524 63.808 76.7404 63.936C76.6284 64.08 76.5564 64.152 76.5244 64.152C75.9644 64.104 75.2844 64.072 74.4844 64.056C73.7004 64.056 72.8844 64.064 72.0364 64.08C71.2044 64.096 70.4124 64.112 69.6604 64.128C68.9244 64.16 68.3164 64.184 67.8364 64.2C67.8044 64.456 67.7244 64.648 67.5964 64.776C67.4684 64.92 67.3324 65.008 67.1884 65.04ZM66.6364 55.992C65.6764 56.008 64.8684 55.848 64.2124 55.512C63.5724 55.16 63.0844 54.712 62.7484 54.168C62.4124 53.624 62.2444 53.088 62.2444 52.56C62.2444 52 62.3884 51.456 62.6764 50.928C62.9644 50.384 63.4284 49.928 64.0684 49.56C64.7084 49.192 65.5564 48.992 66.6124 48.96C68.0204 48.928 69.1164 49.248 69.9004 49.92C70.6844 50.576 71.0604 51.416 71.0284 52.44C71.0124 53.016 70.8364 53.576 70.5004 54.12C70.1644 54.648 69.6764 55.088 69.0364 55.44C68.3964 55.776 67.5964 55.96 66.6364 55.992ZM67.8124 63.216C67.8604 63.216 68.0764 63.216 68.4604 63.216C68.8444 63.216 69.3244 63.208 69.9004 63.192C70.4924 63.192 71.1084 63.184 71.7484 63.168C72.4044 63.152 73.0204 63.128 73.5964 63.096C74.1884 63.064 74.6684 63.032 75.0364 63L75.2044 58.872C75.2044 58.76 75.1804 58.696 75.1324 58.68C75.0844 58.664 75.0364 58.656 74.9884 58.656C74.9724 58.656 74.9644 58.656 74.9644 58.656C74.6284 58.672 74.1564 58.688 73.5484 58.704C72.9404 58.72 72.2764 58.744 71.5564 58.776C70.8524 58.792 70.1564 58.808 69.4684 58.824C68.7964 58.84 68.2204 58.856 67.7404 58.872L67.8124 63.216ZM66.6364 54.96C67.5484 54.928 68.2604 54.68 68.7724 54.216C69.2844 53.736 69.5564 53.144 69.5884 52.44C69.6204 52.088 69.5324 51.712 69.3244 51.312C69.1324 50.912 68.8124 50.568 68.3644 50.28C67.9164 49.992 67.3244 49.864 66.5884 49.896C65.5644 49.928 64.8124 50.208 64.3324 50.736C63.8524 51.264 63.6124 51.864 63.6124 52.536C63.6124 52.952 63.7324 53.352 63.9724 53.736C64.2284 54.12 64.5804 54.424 65.0284 54.648C65.4924 54.872 66.0284 54.976 66.6364 54.96ZM75.6844 56.4C75.5404 56.4 75.4524 56.32 75.4204 56.16C75.3884 56 75.3564 55.76 75.3244 55.44C75.3084 55.104 75.3004 54.76 75.3004 54.408C75.3004 54.056 75.3004 53.776 75.3004 53.568V45.6C75.3004 45.12 75.2764 44.744 75.2284 44.472C75.1964 44.2 75.0924 43.968 74.9164 43.776C74.7564 43.584 74.4844 43.376 74.1004 43.152C73.9404 43.04 73.9004 42.896 73.9804 42.72C74.1244 42.48 74.3164 42.36 74.5564 42.36C74.7964 42.36 75.1164 42.448 75.5164 42.624C75.9164 42.8 76.2444 42.968 76.5004 43.128C76.5804 43.176 76.6524 43.24 76.7164 43.32C76.7804 43.4 76.8044 43.488 76.7884 43.584C76.7404 43.856 76.7084 44.128 76.6924 44.4C76.6764 44.672 76.6684 44.976 76.6684 45.312V49.992C77.5004 49.992 78.1884 49.928 78.7324 49.8C79.2764 49.672 79.6764 49.568 79.9324 49.488C80.1084 49.424 80.2364 49.416 80.3164 49.464C80.4124 49.512 80.4924 49.592 80.5564 49.704C80.6204 49.816 80.6844 49.976 80.7484 50.184C80.8284 50.392 80.8684 50.552 80.8684 50.664C80.8684 50.76 80.8204 50.848 80.7244 50.928C80.6284 50.992 80.5564 51.024 80.5084 51.024C79.8364 50.96 79.1884 50.92 78.5644 50.904C77.9564 50.872 77.3244 50.856 76.6684 50.856V53.4C76.6684 53.64 76.6524 53.928 76.6204 54.264C76.6044 54.6 76.5564 54.936 76.4764 55.272C76.4124 55.592 76.3164 55.864 76.1884 56.088C76.0604 56.296 75.8924 56.4 75.6844 56.4ZM61.8364 48.144C61.5644 48.192 61.3644 48.192 61.2364 48.144C61.1084 48.096 60.9884 48.016 60.8764 47.904C60.7324 47.76 60.6044 47.616 60.4924 47.472C60.3804 47.328 60.3004 47.216 60.2524 47.136C60.2044 47.056 60.2204 46.952 60.3004 46.824C60.3804 46.696 60.4764 46.648 60.5884 46.68C61.1004 46.776 61.7244 46.84 62.4604 46.872C63.2124 46.904 63.9564 46.912 64.6924 46.896C65.4284 46.88 66.0284 46.864 66.4924 46.848C67.6924 46.8 68.7804 46.728 69.7564 46.632C70.7324 46.536 71.5324 46.4 72.1564 46.224C72.3324 46.176 72.4604 46.176 72.5404 46.224C72.6204 46.256 72.6924 46.328 72.7564 46.44C72.8204 46.552 72.8764 46.704 72.9244 46.896C72.9884 47.072 73.0204 47.216 73.0204 47.328C73.0204 47.424 72.9644 47.512 72.8524 47.592C72.7564 47.656 72.6844 47.688 72.6364 47.688C72.0604 47.656 71.3404 47.64 70.4764 47.64C69.6284 47.624 68.7004 47.632 67.6924 47.664C66.7004 47.68 65.6924 47.728 64.6684 47.808C63.6604 47.888 62.7164 48 61.8364 48.144ZM65.7484 44.952C65.4924 44.92 65.1644 44.856 64.7644 44.76C64.3644 44.648 63.9884 44.52 63.6364 44.376C63.3004 44.232 63.0684 44.088 62.9404 43.944C62.8604 43.848 62.8524 43.704 62.9164 43.512C62.9804 43.32 63.0844 43.24 63.2284 43.272C63.9964 43.432 64.8044 43.536 65.6524 43.584C66.5164 43.632 67.3164 43.64 68.0524 43.608C68.8044 43.576 69.3964 43.544 69.8284 43.512C69.9404 43.496 70.0364 43.544 70.1164 43.656C70.2124 43.752 70.2684 43.832 70.2844 43.896C70.3004 44.024 70.2444 44.176 70.1164 44.352C69.9884 44.512 69.8524 44.616 69.7084 44.664C69.5324 44.728 69.2044 44.792 68.7244 44.856C68.2604 44.904 67.7564 44.944 67.2124 44.976C66.6684 44.992 66.1804 44.984 65.7484 44.952ZM96.2689 62.688C96.1569 62.736 96.0689 62.736 96.0049 62.688C95.9409 62.624 95.9009 62.568 95.8849 62.52C95.8529 62.392 95.8209 62.152 95.7889 61.8C95.7569 61.448 95.7329 61.064 95.7169 60.648C95.7169 60.232 95.7169 59.864 95.7169 59.544V52.416L95.3809 52.44C94.8849 52.472 94.4849 52.512 94.1809 52.56C93.8929 52.608 93.5169 52.68 93.0529 52.776C92.8769 52.808 92.7329 52.824 92.6209 52.824C92.5089 52.808 92.3889 52.76 92.2609 52.68L91.8769 52.44C91.2849 53.784 90.6049 55.056 89.8369 56.256C89.0849 57.44 88.3089 58.432 87.5089 59.232C87.3489 59.392 87.1649 59.48 86.9569 59.496C86.7649 59.496 86.6289 59.44 86.5489 59.328C86.4689 59.216 86.5089 59.08 86.6689 58.92C87.2929 58.232 87.9009 57.424 88.4929 56.496C89.1009 55.568 89.6529 54.576 90.1489 53.52C90.6609 52.464 91.0849 51.408 91.4209 50.352C91.7569 49.296 91.9729 48.288 92.0689 47.328C92.0849 47.2 92.0689 47.128 92.0209 47.112C91.9729 47.096 91.9329 47.088 91.9009 47.088C91.8849 47.088 91.8769 47.088 91.8769 47.088C91.6529 47.088 91.2929 47.104 90.7969 47.136C90.3169 47.152 89.8689 47.224 89.4529 47.352C89.1489 47.448 88.9329 47.464 88.8049 47.4L88.5889 48.048C88.3969 48.608 88.1329 49.248 87.7969 49.968C87.4769 50.688 87.0929 51.432 86.6449 52.2C86.1969 52.968 85.6929 53.704 85.1329 54.408C84.5889 55.112 83.9969 55.728 83.3569 56.256C83.1969 56.4 83.0209 56.472 82.8289 56.472C82.6369 56.456 82.5089 56.392 82.4449 56.28C82.3809 56.168 82.4449 56.04 82.6369 55.896C83.0689 55.528 83.5409 55.016 84.0529 54.36C84.5809 53.704 85.0769 52.976 85.5409 52.176C86.0209 51.36 86.4289 50.536 86.7649 49.704C87.1169 48.856 87.3409 48.056 87.4369 47.304C87.4529 47.176 87.4449 47.104 87.4129 47.088C87.3809 47.056 87.3489 47.04 87.3169 47.04C86.8849 47.04 86.5489 47.056 86.3089 47.088C86.0849 47.104 85.8769 47.136 85.6849 47.184C85.4929 47.232 85.2209 47.304 84.8689 47.4C84.6449 47.464 84.4849 47.48 84.3889 47.448C84.2929 47.4 84.1809 47.312 84.0529 47.184C83.9249 47.056 83.8209 46.952 83.7409 46.872C83.6609 46.776 83.5889 46.688 83.5249 46.608C83.4609 46.528 83.4689 46.424 83.5489 46.296C83.6449 46.168 83.7409 46.12 83.8369 46.152C84.1889 46.232 84.5969 46.272 85.0609 46.272C85.5249 46.272 85.9809 46.24 86.4289 46.176C86.8929 46.096 87.2609 46.008 87.5329 45.912C87.6449 45.848 87.7729 45.848 87.9169 45.912L88.7089 46.296C89.0609 46.312 89.4529 46.312 89.8849 46.296C90.3169 46.264 90.7169 46.216 91.0849 46.152C91.4689 46.072 91.7649 45.984 91.9729 45.888C92.1329 45.808 92.2689 45.8 92.3809 45.864L93.6769 46.2C93.8369 46.232 93.8849 46.376 93.8209 46.632C93.7889 46.728 93.7329 46.904 93.6529 47.16C93.5889 47.416 93.5169 47.68 93.4369 47.952C93.3729 48.224 93.3169 48.432 93.2689 48.576C93.1409 49.088 92.9889 49.6 92.8129 50.112C92.6369 50.608 92.4449 51.112 92.2369 51.624C92.5569 51.672 92.9649 51.696 93.4609 51.696C93.9729 51.68 94.5809 51.64 95.2849 51.576L95.7169 51.552V47.016C95.7169 46.952 95.7169 46.896 95.7169 46.848C95.7169 46.8 95.7169 46.744 95.7169 46.68C95.7169 46.056 95.6769 45.56 95.5969 45.192C95.5169 44.808 95.2289 44.464 94.7329 44.16C94.5729 44.048 94.5329 43.904 94.6129 43.728C94.7089 43.568 94.8049 43.464 94.9009 43.416C95.0129 43.368 95.1409 43.352 95.2849 43.368C95.5569 43.4 95.8609 43.528 96.1969 43.752C96.5329 43.96 96.7489 44.112 96.8449 44.208C97.0209 44.384 97.1009 44.536 97.0849 44.664C97.0369 44.968 97.0049 45.304 96.9889 45.672C96.9889 46.024 96.9889 46.368 96.9889 46.704C96.9889 46.768 96.9889 46.832 96.9889 46.896C96.9889 46.944 96.9889 46.992 96.9889 47.04V59.496C96.9889 59.832 96.9729 60.24 96.9409 60.72C96.9089 61.2 96.8449 61.632 96.7489 62.016C96.6529 62.4 96.4929 62.624 96.2689 62.688ZM99.7729 63.504C99.6449 63.552 99.5489 63.544 99.4849 63.48C99.4209 63.432 99.3809 63.384 99.3649 63.336C99.3329 63.208 99.3009 62.968 99.2689 62.616C99.2529 62.264 99.2369 61.88 99.2209 61.464C99.2209 61.048 99.2209 60.68 99.2209 60.36V45.696C99.2209 45.68 99.2209 45.648 99.2209 45.6C99.2209 45.136 99.2049 44.776 99.1729 44.52C99.1409 44.248 99.0449 44.016 98.8849 43.824C98.7409 43.632 98.4849 43.424 98.1169 43.2C97.9409 43.072 97.9009 42.928 97.9969 42.768C98.1729 42.48 98.3889 42.36 98.6449 42.408C98.9489 42.456 99.2609 42.576 99.5809 42.768C99.9169 42.944 100.173 43.104 100.349 43.248C100.365 43.264 100.381 43.28 100.397 43.296C100.477 43.36 100.541 43.432 100.589 43.512C100.637 43.576 100.653 43.648 100.637 43.728C100.589 44.064 100.549 44.384 100.517 44.688C100.501 44.992 100.493 45.336 100.493 45.72V60.312C100.493 60.648 100.477 61.056 100.445 61.536C100.413 62.016 100.349 62.448 100.253 62.832C100.157 63.216 99.9969 63.44 99.7729 63.504ZM126.934 63.528C126.758 63.528 126.662 63.448 126.646 63.288C126.63 63.16 126.606 62.928 126.574 62.592C126.558 62.24 126.542 61.864 126.526 61.464C126.51 61.048 126.502 60.688 126.502 60.384V45.672C126.502 45.176 126.478 44.792 126.43 44.52C126.398 44.248 126.294 44.024 126.118 43.848C125.958 43.656 125.67 43.456 125.254 43.248C125.126 43.168 125.062 43.088 125.062 43.008C125.062 42.928 125.118 42.824 125.23 42.696C125.342 42.552 125.462 42.48 125.59 42.48C125.782 42.48 126.022 42.528 126.31 42.624C126.598 42.72 126.878 42.832 127.15 42.96C127.422 43.072 127.622 43.176 127.75 43.272C127.942 43.416 128.03 43.576 128.014 43.752C127.966 44.088 127.926 44.4 127.894 44.688C127.878 44.976 127.87 45.312 127.87 45.696V52.248C128.718 52.248 129.462 52.184 130.102 52.056C130.758 51.912 131.214 51.8 131.47 51.72C131.646 51.656 131.774 51.648 131.854 51.696C131.934 51.744 132.006 51.816 132.07 51.912C132.15 52.024 132.23 52.192 132.31 52.416C132.406 52.64 132.454 52.808 132.454 52.92C132.454 53.016 132.398 53.104 132.286 53.184C132.19 53.264 132.118 53.304 132.07 53.304C131.478 53.224 130.862 53.184 130.222 53.184C129.598 53.168 128.966 53.16 128.326 53.16C128.246 53.16 128.166 53.16 128.086 53.16C128.022 53.16 127.95 53.16 127.87 53.16V60.336C127.87 60.592 127.854 60.904 127.822 61.272C127.806 61.624 127.766 61.976 127.702 62.328C127.638 62.664 127.542 62.944 127.414 63.168C127.302 63.408 127.142 63.528 126.934 63.528ZM114.91 57.408C114.574 57.424 114.294 57.264 114.07 56.928C113.862 56.576 113.758 56.168 113.758 55.704V48.984C113.758 48.712 113.75 48.44 113.734 48.168C113.734 47.88 113.702 47.6 113.638 47.328C113.574 47.104 113.446 46.872 113.254 46.632C113.062 46.392 112.87 46.208 112.678 46.08C112.534 45.952 112.51 45.808 112.606 45.648C112.814 45.376 113.046 45.272 113.302 45.336C113.526 45.384 113.814 45.504 114.166 45.696C114.518 45.888 114.798 46.064 115.006 46.224C115.23 46.416 115.326 46.584 115.294 46.728C115.262 46.952 115.23 47.28 115.198 47.712C115.166 48.128 115.15 48.496 115.15 48.816V55.392C115.15 55.6 115.19 55.76 115.27 55.872C115.366 55.968 115.574 56.008 115.894 55.992C116.774 55.976 117.678 55.888 118.606 55.728C119.534 55.568 120.422 55.376 121.27 55.152C122.134 54.928 122.878 54.712 123.502 54.504C124.142 54.28 124.598 54.104 124.87 53.976C125.158 53.848 125.326 53.896 125.374 54.12C125.438 54.328 125.342 54.528 125.086 54.72C124.878 54.848 124.494 55.024 123.934 55.248C123.39 55.472 122.734 55.712 121.966 55.968C121.214 56.208 120.414 56.44 119.566 56.664C118.718 56.872 117.886 57.048 117.07 57.192C116.27 57.336 115.55 57.408 114.91 57.408ZM144.381 63.672C144.269 63.72 144.181 63.712 144.117 63.648C144.053 63.6 144.013 63.544 143.997 63.48C143.965 63.352 143.933 63.12 143.901 62.784C143.869 62.432 143.845 62.048 143.829 61.632C143.829 61.216 143.829 60.848 143.829 60.528V55.056C142.965 55.088 142.133 55.12 141.333 55.152C140.533 55.168 139.805 55.192 139.148 55.224C138.445 55.256 137.829 55.312 137.301 55.392C136.773 55.456 136.269 55.528 135.789 55.608C135.533 55.672 135.357 55.696 135.261 55.68C135.165 55.648 135.037 55.592 134.877 55.512C134.861 55.496 134.845 55.488 134.829 55.488C134.733 55.424 134.605 55.328 134.445 55.2C134.285 55.056 134.141 54.912 134.013 54.768C133.885 54.624 133.813 54.528 133.797 54.48C133.749 54.4 133.773 54.288 133.869 54.144C133.981 54 134.085 53.936 134.181 53.952C134.693 54.064 135.261 54.144 135.885 54.192C136.525 54.24 137.269 54.256 138.117 54.24C139.669 54.224 141.317 54.2 143.061 54.168C144.821 54.136 146.581 54.088 148.341 54.024C149.045 53.992 149.725 53.952 150.381 53.904C151.053 53.84 151.645 53.776 152.157 53.712C152.669 53.632 153.037 53.552 153.261 53.472C153.437 53.408 153.573 53.4 153.669 53.448C153.781 53.496 153.877 53.584 153.957 53.712C154.053 53.84 154.149 54 154.245 54.192C154.357 54.368 154.413 54.52 154.413 54.648C154.413 54.744 154.357 54.84 154.245 54.936C154.133 55.016 154.045 55.056 153.981 55.056C153.389 54.976 152.709 54.936 151.941 54.936C151.173 54.92 150.437 54.92 149.733 54.936C149.557 54.936 149.381 54.936 149.205 54.936C149.045 54.936 148.893 54.936 148.749 54.936L145.197 55.008V60.48C145.197 60.816 145.173 61.216 145.125 61.68C145.077 62.144 144.989 62.568 144.861 62.952C144.749 63.336 144.589 63.576 144.381 63.672ZM139.317 50.64C138.981 50.64 138.709 50.504 138.501 50.232C138.309 49.96 138.213 49.56 138.213 49.032V46.824C138.229 46.344 138.173 45.904 138.045 45.504C137.933 45.088 137.629 44.744 137.133 44.472C136.957 44.376 136.933 44.24 137.061 44.064C137.237 43.792 137.477 43.68 137.781 43.728C138.021 43.76 138.301 43.864 138.621 44.04C138.957 44.2 139.229 44.368 139.437 44.544C139.629 44.736 139.717 44.88 139.701 44.976C139.653 45.216 139.621 45.488 139.605 45.792C139.589 46.096 139.581 46.408 139.581 46.728V48.888C139.581 49.208 139.621 49.424 139.701 49.536C139.797 49.648 140.005 49.704 140.325 49.704C141.205 49.704 142.165 49.696 143.205 49.68C144.245 49.648 145.213 49.6 146.109 49.536C147.053 49.472 147.781 49.4 148.293 49.32C148.821 49.24 149.277 49.136 149.661 49.008C149.869 48.928 150.021 48.904 150.117 48.936C150.213 48.968 150.309 49.04 150.405 49.152C150.501 49.248 150.589 49.384 150.669 49.56C150.765 49.736 150.829 49.88 150.861 49.992C150.877 50.088 150.821 50.2 150.693 50.328C150.565 50.44 150.469 50.496 150.405 50.496C149.861 50.464 149.381 50.448 148.965 50.448C148.565 50.432 148.133 50.432 147.669 50.448C147.221 50.448 146.645 50.464 145.941 50.496C145.301 50.512 144.581 50.536 143.781 50.568C142.997 50.584 142.205 50.6 141.405 50.616C140.621 50.632 139.925 50.64 139.317 50.64ZM162.247 50.52C161.527 50.52 161.167 49.984 161.167 48.912V46.632C161.167 46.152 161.103 45.712 160.975 45.312C160.863 44.896 160.559 44.552 160.063 44.28C159.887 44.184 159.863 44.048 159.991 43.872C160.199 43.568 160.471 43.456 160.807 43.536C161.031 43.6 161.295 43.704 161.599 43.848C161.903 43.976 162.159 44.128 162.367 44.304C162.591 44.496 162.687 44.64 162.655 44.736C162.607 44.976 162.575 45.248 162.559 45.552C162.543 45.856 162.535 46.168 162.535 46.488V48.792C162.535 49.112 162.575 49.328 162.655 49.44C162.735 49.536 162.935 49.584 163.255 49.584C164.151 49.584 165.119 49.568 166.159 49.536C167.215 49.504 168.183 49.456 169.063 49.392C170.007 49.344 170.743 49.28 171.271 49.2C171.799 49.104 172.255 48.992 172.639 48.864C172.831 48.784 172.975 48.76 173.071 48.792C173.167 48.824 173.271 48.896 173.383 49.008C173.479 49.104 173.567 49.24 173.647 49.416C173.727 49.576 173.783 49.712 173.815 49.824C173.847 49.936 173.799 50.048 173.671 50.16C173.543 50.272 173.447 50.328 173.383 50.328C172.839 50.296 172.359 50.28 171.943 50.28C171.543 50.264 171.111 50.264 170.647 50.28C170.199 50.28 169.623 50.296 168.919 50.328C168.279 50.344 167.551 50.368 166.735 50.4C165.935 50.432 165.135 50.464 164.335 50.496C163.551 50.512 162.855 50.52 162.247 50.52ZM158.479 55.896C158.207 55.96 158.015 55.984 157.903 55.968C157.807 55.936 157.679 55.864 157.519 55.752C157.423 55.688 157.295 55.592 157.135 55.464C156.975 55.336 156.823 55.208 156.679 55.08C156.551 54.936 156.479 54.832 156.463 54.768C156.447 54.688 156.487 54.576 156.583 54.432C156.679 54.288 156.767 54.232 156.847 54.264C157.359 54.376 157.975 54.464 158.695 54.528C159.415 54.576 160.199 54.592 161.047 54.576C162.599 54.56 164.287 54.536 166.111 54.504C167.951 54.472 169.759 54.416 171.535 54.336C172.575 54.288 173.527 54.216 174.391 54.12C175.271 54.024 175.895 53.92 176.263 53.808C176.439 53.744 176.575 53.736 176.671 53.784C176.783 53.832 176.879 53.912 176.959 54.024C177.055 54.152 177.143 54.304 177.223 54.48C177.303 54.656 177.343 54.8 177.343 54.912C177.343 55.024 177.287 55.128 177.175 55.224C177.063 55.304 176.983 55.344 176.935 55.344C176.343 55.264 175.687 55.224 174.967 55.224C174.247 55.208 173.559 55.208 172.903 55.224C172.727 55.224 172.559 55.224 172.399 55.224C172.239 55.224 172.079 55.224 171.919 55.224C171.199 55.24 170.407 55.264 169.543 55.296C168.679 55.312 167.791 55.336 166.879 55.368C165.983 55.384 165.119 55.408 164.287 55.44C163.471 55.456 162.735 55.48 162.079 55.512C161.359 55.544 160.695 55.592 160.087 55.656C159.495 55.72 158.959 55.8 158.479 55.896ZM164.311 64.296C162.743 64.296 161.959 63.568 161.959 62.112V60.792C161.959 60.344 161.895 59.968 161.767 59.664C161.655 59.344 161.415 59.104 161.047 58.944C160.951 58.912 160.887 58.848 160.855 58.752C160.823 58.656 160.823 58.568 160.855 58.488C161.015 58.216 161.223 58.088 161.479 58.104C161.687 58.136 161.967 58.216 162.319 58.344C162.671 58.472 162.967 58.6 163.207 58.728C163.399 58.84 163.479 58.976 163.447 59.136C163.415 59.248 163.383 59.448 163.351 59.736C163.335 60.024 163.327 60.304 163.327 60.576V61.992C163.327 62.552 163.423 62.904 163.615 63.048C163.823 63.208 164.095 63.296 164.431 63.312C164.607 63.328 164.911 63.336 165.343 63.336C165.791 63.336 166.287 63.328 166.831 63.312C167.375 63.296 167.895 63.272 168.391 63.24C168.903 63.224 169.311 63.208 169.615 63.192C170.447 63.16 171.159 63.088 171.751 62.976C172.359 62.864 172.799 62.76 173.071 62.664C173.407 62.52 173.655 62.568 173.815 62.808C173.895 62.936 173.983 63.088 174.079 63.264C174.175 63.44 174.231 63.584 174.247 63.696C174.263 63.808 174.207 63.912 174.079 64.008C173.967 64.12 173.879 64.176 173.815 64.176C173.255 64.144 172.727 64.12 172.231 64.104C171.751 64.104 171.239 64.104 170.695 64.104C170.167 64.12 169.551 64.144 168.847 64.176C168.031 64.208 167.263 64.232 166.543 64.248C165.839 64.28 165.095 64.296 164.311 64.296ZM194.684 64.416C193.98 64.432 193.452 64.296 193.1 64.008C192.748 63.736 192.572 63.248 192.572 62.544V61.464C192.572 61.384 192.564 61.304 192.548 61.224C192.548 61.144 192.516 61.088 192.452 61.056C192.292 60.976 192.108 60.864 191.9 60.72C191.692 60.56 191.564 60.44 191.516 60.36C191.468 60.28 191.484 60.16 191.564 60C191.66 59.824 191.756 59.752 191.852 59.784C192.124 59.848 192.42 59.896 192.74 59.928C193.06 59.944 193.42 59.96 193.82 59.976C194.092 59.976 194.484 59.976 194.996 59.976C195.524 59.976 196.108 59.976 196.748 59.976C197.388 59.96 198.028 59.944 198.668 59.928C199.324 59.896 199.916 59.864 200.444 59.832C200.972 59.8 201.38 59.768 201.668 59.736C201.7 59.608 201.732 59.312 201.764 58.848C201.812 58.384 201.836 57.976 201.836 57.624C201.836 57.528 201.82 57.472 201.788 57.456C201.756 57.44 201.7 57.432 201.62 57.432L195.812 57.72C195.252 57.736 194.724 57.768 194.228 57.816C193.748 57.864 193.404 57.904 193.196 57.936C192.876 57.984 192.62 57.944 192.428 57.816C192.284 57.72 192.124 57.6 191.948 57.456C191.788 57.312 191.692 57.2 191.66 57.12C191.628 57.024 191.66 56.912 191.756 56.784C191.868 56.64 191.98 56.584 192.092 56.616C192.3 56.664 192.588 56.712 192.956 56.76C193.324 56.792 193.716 56.816 194.132 56.832C194.548 56.848 194.916 56.856 195.236 56.856C195.444 56.856 195.7 56.856 196.004 56.856C196.324 56.84 196.66 56.824 197.012 56.808C196.964 56.568 196.932 56.32 196.916 56.064C196.916 55.792 196.916 55.568 196.916 55.392L196.868 53.592L192.548 53.76C192.068 53.776 191.58 53.816 191.084 53.88C190.588 53.928 190.14 53.984 189.74 54.048C189.356 54.096 189.092 54.136 188.948 54.168C188.884 54.184 188.812 54.2 188.732 54.216C188.652 54.232 188.572 54.24 188.492 54.24C188.332 54.24 188.156 54.168 187.964 54.024C187.884 53.96 187.764 53.864 187.604 53.736C187.46 53.592 187.324 53.456 187.196 53.328C187.068 53.184 186.988 53.088 186.956 53.04C186.924 52.96 186.94 52.856 187.004 52.728C187.084 52.6 187.18 52.536 187.292 52.536C187.756 52.616 188.308 52.688 188.948 52.752C189.604 52.8 190.42 52.824 191.396 52.824C191.988 52.824 192.732 52.816 193.628 52.8C194.54 52.768 195.508 52.736 196.532 52.704C197.572 52.672 198.58 52.64 199.556 52.608C200.548 52.56 201.42 52.512 202.172 52.464C202.588 52.432 203.06 52.4 203.588 52.368C204.132 52.32 204.644 52.264 205.124 52.2C205.604 52.136 205.964 52.08 206.204 52.032C206.476 51.968 206.66 51.92 206.756 51.888C206.868 51.856 206.964 51.84 207.044 51.84C207.156 51.84 207.284 51.936 207.428 52.128C207.508 52.256 207.588 52.408 207.668 52.584C207.764 52.744 207.812 52.88 207.812 52.992C207.812 53.136 207.748 53.248 207.62 53.328C207.508 53.408 207.436 53.448 207.404 53.448C207.132 53.416 206.812 53.4 206.444 53.4C206.076 53.384 205.716 53.376 205.364 53.376C205.028 53.36 204.748 53.352 204.524 53.352C204.14 53.352 203.612 53.36 202.94 53.376C202.284 53.392 201.548 53.416 200.732 53.448C199.916 53.464 199.092 53.488 198.26 53.52V54.888C198.26 55.208 198.252 55.536 198.236 55.872C198.22 56.192 198.196 56.48 198.164 56.736C198.884 56.704 199.58 56.656 200.252 56.592C200.94 56.512 201.444 56.424 201.764 56.328C201.876 56.312 201.996 56.32 202.124 56.352L203.228 56.616C203.404 56.664 203.452 56.792 203.372 57C203.34 57.08 203.268 57.288 203.156 57.624C203.06 57.96 202.964 58.32 202.868 58.704C202.772 59.072 202.7 59.36 202.652 59.568C202.78 59.648 202.94 59.752 203.132 59.88C203.34 59.992 203.444 60.088 203.444 60.168C203.444 60.296 203.38 60.44 203.252 60.6C203.14 60.744 203.06 60.808 203.012 60.792C202.82 60.776 202.452 60.768 201.908 60.768C201.38 60.752 200.748 60.744 200.012 60.744C199.292 60.744 198.548 60.752 197.78 60.768C197.012 60.768 196.292 60.784 195.62 60.816C194.948 60.848 194.396 60.88 193.964 60.912V62.4C193.964 62.864 194.02 63.152 194.132 63.264C194.244 63.376 194.46 63.44 194.78 63.456C194.828 63.456 194.932 63.456 195.092 63.456C195.412 63.456 195.852 63.456 196.412 63.456C196.988 63.456 197.604 63.448 198.26 63.432C198.916 63.416 199.548 63.392 200.156 63.36C200.988 63.328 201.652 63.272 202.148 63.192C202.66 63.128 203.1 63.032 203.468 62.904C203.676 62.824 203.828 62.8 203.924 62.832C204.02 62.864 204.116 62.936 204.212 63.048C204.324 63.144 204.428 63.272 204.524 63.432C204.62 63.592 204.676 63.72 204.692 63.816C204.708 63.912 204.652 64.024 204.524 64.152C204.396 64.28 204.3 64.344 204.236 64.344C203.468 64.312 202.812 64.296 202.268 64.296C201.724 64.296 201.108 64.304 200.42 64.32C200.372 64.32 200.316 64.32 200.252 64.32C200.188 64.32 200.124 64.32 200.06 64.32L194.684 64.416ZM190.076 50.76C189.868 50.824 189.676 50.824 189.5 50.76C189.34 50.696 189.244 50.608 189.212 50.496C189.196 50.384 189.284 50.296 189.476 50.232C190.58 49.832 191.596 49.352 192.524 48.792C193.468 48.216 194.284 47.616 194.972 46.992C195.676 46.368 196.22 45.792 196.604 45.264C196.892 44.88 197.084 44.496 197.18 44.112C197.276 43.728 197.156 43.424 196.82 43.2C196.612 43.072 196.58 42.904 196.724 42.696C196.868 42.488 197.012 42.392 197.156 42.408C197.3 42.408 197.444 42.44 197.588 42.504C197.604 42.52 197.62 42.528 197.636 42.528C197.796 42.576 197.988 42.688 198.212 42.864C198.452 43.024 198.66 43.184 198.836 43.344C198.964 43.456 199.06 43.576 199.124 43.704C199.188 43.816 199.196 43.912 199.148 43.992C198.972 44.216 198.788 44.472 198.596 44.76C198.404 45.032 198.196 45.328 197.972 45.648L197.708 46.008C198.22 46.232 198.852 46.464 199.604 46.704C200.356 46.928 201.116 47.136 201.884 47.328C202.668 47.504 203.332 47.64 203.876 47.736C204.02 47.8 204.18 47.928 204.356 48.12C204.532 48.312 204.684 48.528 204.812 48.768C204.94 48.992 205.004 49.216 205.004 49.44C205.004 49.6 204.908 49.76 204.716 49.92C204.524 50.08 204.388 50.128 204.308 50.064C203.876 49.744 203.324 49.416 202.652 49.08C201.996 48.728 201.308 48.392 200.588 48.072C199.868 47.736 199.196 47.448 198.572 47.208C197.964 46.952 197.492 46.76 197.156 46.632C196.244 47.576 195.156 48.408 193.892 49.128C192.628 49.848 191.356 50.392 190.076 50.76ZM212.395 62.04C212.011 62.04 211.691 61.912 211.435 61.656C211.179 61.4 211.051 61.08 211.051 60.696C211.051 60.328 211.179 60.024 211.435 59.784C211.691 59.528 212.011 59.4 212.395 59.4C212.763 59.4 213.067 59.528 213.307 59.784C213.563 60.024 213.691 60.328 213.691 60.696C213.691 61.08 213.563 61.4 213.307 61.656C213.067 61.912 212.763 62.04 212.395 62.04Z" fill="#014B2E"/>
</svg>
