<svg width="247" height="58" viewBox="0 0 247 58" fill="none" xmlns="http://www.w3.org/2000/svg">
<path d="M13.7999 13.8955C13.5599 13.8955 13.4959 13.6715 13.6079 13.2235C13.6719 12.9835 13.7519 12.5915 13.8479 12.0475C13.9439 11.4875 14.0559 10.8475 14.1839 10.1275C14.3119 9.40753 14.4319 8.67153 14.5439 7.91953C14.6559 7.15153 14.7599 6.42353 14.8559 5.73553C14.9519 5.04753 15.0159 4.46353 15.0479 3.98353C15.0639 3.85553 15.0319 3.78353 14.9519 3.76753C14.8719 3.75153 14.8159 3.74353 14.7839 3.74353C14.7679 3.74353 14.7599 3.74353 14.7599 3.74353C14.5679 3.74353 14.2239 3.75953 13.7279 3.79153C13.2479 3.80753 12.7199 3.83953 12.1439 3.88753C11.5679 3.91953 11.0319 3.95153 10.5359 3.98353C10.0559 3.99953 9.71988 4.00753 9.52788 4.00753C9.06388 4.02353 8.55988 4.04753 8.01588 4.07953C7.47188 4.11153 6.95188 4.15153 6.45588 4.19953C5.97588 4.24753 5.57588 4.30353 5.25588 4.36753C4.95188 4.44753 4.72788 4.46353 4.58388 4.41553C4.43988 4.36753 4.29588 4.28753 4.15188 4.17553C3.99188 4.04753 3.83188 3.91953 3.67188 3.79153C3.52788 3.64753 3.43988 3.53553 3.40788 3.45553C3.35988 3.37553 3.37588 3.26353 3.45588 3.11953C3.53588 2.97553 3.63188 2.91953 3.74388 2.95153C4.03188 3.03153 4.40788 3.08753 4.87188 3.11953C5.33588 3.15153 5.83188 3.17553 6.35988 3.19153C6.90388 3.19153 7.43188 3.18353 7.94388 3.16753C8.45588 3.15153 8.90388 3.13553 9.28788 3.11953C9.65588 3.10353 10.1119 3.07953 10.6559 3.04753C11.1999 3.01553 11.7599 2.97553 12.3359 2.92753C12.9279 2.87953 13.4639 2.82353 13.9439 2.75953C14.4399 2.67953 14.8079 2.59153 15.0479 2.49553C15.1759 2.44753 15.2959 2.44753 15.4079 2.49553L16.8719 3.02353C16.9359 3.05553 16.9839 3.11153 17.0159 3.19153C17.0639 3.25553 17.0559 3.34353 16.9919 3.45553C16.9439 3.56753 16.8639 3.80753 16.7519 4.17553C16.6559 4.52753 16.5679 4.87953 16.4879 5.23153C16.4079 5.58353 16.3599 5.82353 16.3439 5.95153C16.2799 6.33553 16.1839 6.83953 16.0559 7.46353C15.9279 8.08753 15.7919 8.73553 15.6479 9.40753C15.5039 10.0795 15.3679 10.6955 15.2399 11.2555C15.1119 11.8155 15.0159 12.2235 14.9519 12.4795C14.6799 13.4235 14.2959 13.8955 13.7999 13.8955ZM2.08788 17.8075C1.79988 17.8715 1.60788 17.8955 1.51188 17.8795C1.41588 17.8475 1.28788 17.7755 1.12788 17.6635C1.03188 17.5995 0.903881 17.4955 0.743881 17.3515C0.583881 17.2075 0.439881 17.0715 0.311881 16.9435C0.183881 16.7995 0.103881 16.6955 0.0718809 16.6315C0.0238809 16.5515 0.0478809 16.4395 0.143881 16.2955C0.255881 16.1515 0.367881 16.0955 0.479881 16.1275C0.991881 16.2395 1.55988 16.3195 2.18388 16.3675C2.82388 16.4155 3.56788 16.4395 4.41588 16.4395C5.32788 16.4395 6.27188 16.4395 7.24788 16.4395C8.22388 16.4235 9.16788 16.4075 10.0799 16.3915C11.0079 16.3755 11.8559 16.3595 12.6239 16.3435C13.3919 16.3115 14.0159 16.2875 14.4959 16.2715C15.5359 16.2395 16.4639 16.1675 17.2799 16.0555C18.0959 15.9275 18.6799 15.8075 19.0319 15.6955C19.2079 15.6315 19.3439 15.6235 19.4399 15.6715C19.5519 15.7195 19.6559 15.8075 19.7519 15.9355C19.8479 16.0635 19.9439 16.2315 20.0399 16.4395C20.1519 16.6315 20.2079 16.7915 20.2079 16.9195C20.2079 17.0315 20.1519 17.1275 20.0399 17.2075C19.9279 17.2875 19.8399 17.3275 19.7759 17.3275C19.0399 17.2635 18.2079 17.2315 17.2799 17.2315C16.3679 17.2155 15.5359 17.2075 14.7839 17.2075C13.8239 17.2235 12.7839 17.2475 11.6639 17.2795C10.5439 17.2955 9.43988 17.3115 8.35188 17.3275C7.27988 17.3435 6.30388 17.3755 5.42388 17.4235C4.71988 17.4555 4.10388 17.5035 3.57588 17.5675C3.04788 17.6315 2.55188 17.7115 2.08788 17.8075ZM35.4709 12.9115C34.5109 12.9275 33.6389 12.7435 32.8549 12.3595C32.0709 11.9755 31.4469 11.4315 30.9829 10.7275C30.5189 10.0075 30.2869 9.19153 30.2869 8.27953C30.2869 7.38353 30.5189 6.58353 30.9829 5.87953C31.4469 5.15953 32.0709 4.58353 32.8549 4.15153C33.6549 3.71953 34.5349 3.49553 35.4949 3.47953C36.4549 3.44753 37.3189 3.60753 38.0869 3.95953C38.8709 4.31153 39.4949 4.83153 39.9589 5.51953C40.4229 6.20753 40.6549 7.05553 40.6549 8.06353C40.6549 8.97553 40.4229 9.79953 39.9589 10.5355C39.4949 11.2555 38.8709 11.8235 38.0869 12.2395C37.3029 12.6555 36.4309 12.8795 35.4709 12.9115ZM35.4949 11.7115C36.1989 11.6795 36.8309 11.5115 37.3909 11.2075C37.9509 10.8875 38.3909 10.4635 38.7109 9.93553C39.0469 9.39153 39.2149 8.77553 39.2149 8.08753C39.2149 7.33553 39.0469 6.69553 38.7109 6.16753C38.3749 5.63953 37.9269 5.23953 37.3669 4.96753C36.8069 4.67953 36.1829 4.55153 35.4949 4.58353C34.8069 4.58353 34.1749 4.75153 33.5989 5.08753C33.0229 5.40753 32.5589 5.84753 32.2069 6.40753C31.8709 6.95153 31.7029 7.56753 31.7029 8.25553C31.7029 8.97553 31.8709 9.60753 32.2069 10.1515C32.5589 10.6795 33.0229 11.0795 33.5989 11.3515C34.1749 11.6235 34.8069 11.7435 35.4949 11.7115ZM45.2869 21.0475C45.1109 21.0475 45.0149 20.9675 44.9989 20.8075C44.9829 20.6795 44.9589 20.4475 44.9269 20.1115C44.9109 19.7595 44.8949 19.3835 44.8789 18.9835C44.8629 18.5675 44.8549 18.2075 44.8549 17.9035V3.19153C44.8549 2.69553 44.8309 2.31153 44.7829 2.03953C44.7509 1.76753 44.6469 1.54353 44.4709 1.36753C44.3109 1.17553 44.0229 0.97553 43.6069 0.767531C43.4789 0.68753 43.4149 0.60753 43.4149 0.52753C43.4149 0.44753 43.4709 0.34353 43.5829 0.215531C43.6949 0.0715308 43.8149 -0.000469208 43.9429 -0.000469208C44.1349 -0.000469208 44.3749 0.0475307 44.6629 0.14353C44.9509 0.23953 45.2309 0.35153 45.5029 0.47953C45.7749 0.59153 45.9749 0.69553 46.1029 0.791531C46.2949 0.935531 46.3829 1.09553 46.3669 1.27153C46.3189 1.60753 46.2789 1.91953 46.2469 2.20753C46.2309 2.49553 46.2229 2.83153 46.2229 3.21553V17.8555C46.2229 18.1115 46.2069 18.4235 46.1749 18.7915C46.1589 19.1435 46.1189 19.4955 46.0549 19.8475C45.9909 20.1835 45.8949 20.4635 45.7669 20.6875C45.6549 20.9275 45.4949 21.0475 45.2869 21.0475ZM56.1138 12.9115C55.1698 12.9275 54.2978 12.7435 53.4978 12.3595C52.7138 11.9755 52.0898 11.4315 51.6258 10.7275C51.1618 10.0075 50.9298 9.19153 50.9298 8.27953C50.9298 7.38353 51.1618 6.58353 51.6258 5.87953C52.0898 5.15953 52.7138 4.58353 53.4978 4.15153C54.2978 3.71953 55.1778 3.49553 56.1378 3.47953C57.0978 3.44753 57.9618 3.60753 58.7298 3.95953C59.5138 4.31153 60.1378 4.83153 60.6018 5.51953C61.0658 6.20753 61.2978 7.05553 61.2978 8.06353C61.2978 8.97553 61.0658 9.79953 60.6018 10.5355C60.1378 11.2555 59.5138 11.8235 58.7298 12.2395C57.9458 12.6555 57.0738 12.8795 56.1138 12.9115ZM56.1378 11.7115C56.8418 11.6795 57.4738 11.5115 58.0338 11.2075C58.5938 10.8875 59.0338 10.4635 59.3538 9.93553C59.6898 9.39153 59.8578 8.77553 59.8578 8.08753C59.8578 7.33553 59.6898 6.69553 59.3538 6.16753C59.0178 5.63953 58.5698 5.23953 58.0098 4.96753C57.4498 4.67953 56.8258 4.55153 56.1378 4.58353C55.4498 4.58353 54.8178 4.75153 54.2418 5.08753C53.6658 5.40753 53.2018 5.84753 52.8498 6.40753C52.5138 6.95153 52.3458 7.56753 52.3458 8.25553C52.3458 8.97553 52.5138 9.60753 52.8498 10.1515C53.2018 10.6795 53.6658 11.0795 54.2418 11.3515C54.8178 11.6235 55.4498 11.7435 56.1378 11.7115ZM65.6898 21.0475C65.5138 21.0475 65.4178 20.9675 65.4018 20.8075C65.3858 20.6795 65.3618 20.4475 65.3298 20.1115C65.3138 19.7595 65.2978 19.3835 65.2818 18.9835C65.2658 18.5675 65.2578 18.2075 65.2578 17.9035V3.19153C65.2578 2.69553 65.2338 2.31153 65.1858 2.03953C65.1538 1.76753 65.0498 1.54353 64.8738 1.36753C64.7138 1.17553 64.4258 0.97553 64.0098 0.767531C63.8818 0.68753 63.8178 0.60753 63.8178 0.52753C63.8178 0.44753 63.8738 0.34353 63.9858 0.215531C64.0978 0.0715308 64.2178 -0.000469208 64.3458 -0.000469208C64.5378 -0.000469208 64.7778 0.0475307 65.0658 0.14353C65.3538 0.23953 65.6338 0.35153 65.9058 0.47953C66.1778 0.59153 66.3778 0.69553 66.5058 0.791531C66.6978 0.935531 66.7858 1.09553 66.7698 1.27153C66.7218 1.60753 66.6818 1.91953 66.6498 2.20753C66.6338 2.49553 66.6258 2.83153 66.6258 3.21553V6.28753C67.4578 6.27153 68.1938 6.18353 68.8338 6.02353C69.4738 5.84753 69.9218 5.71953 70.1778 5.63953C70.2258 5.62353 70.2658 5.61553 70.2978 5.61553C70.3458 5.59953 70.3858 5.59153 70.4178 5.59153C70.5778 5.59153 70.7058 5.67953 70.8018 5.85553C70.8658 5.96753 70.9298 6.12753 70.9938 6.33553C71.0738 6.54353 71.1138 6.70353 71.1138 6.81553C71.1138 6.91153 71.0578 6.99953 70.9458 7.07953C70.8498 7.14353 70.7858 7.17553 70.7538 7.17553C70.4978 7.14353 70.2418 7.12753 69.9858 7.12753C69.7458 7.12753 69.4978 7.12753 69.2418 7.12753C68.8098 7.12753 68.3778 7.13553 67.9458 7.15153C67.5138 7.15153 67.0738 7.15953 66.6258 7.17553V11.8555C67.4738 11.8555 68.2178 11.7995 68.8578 11.6875C69.5138 11.5755 69.9698 11.4795 70.2258 11.3995C70.2738 11.3835 70.3138 11.3755 70.3458 11.3755C70.3938 11.3595 70.4338 11.3515 70.4658 11.3515C70.5618 11.3515 70.6338 11.3755 70.6818 11.4235C70.7298 11.4715 70.7778 11.5355 70.8258 11.6155C70.9058 11.7115 70.9858 11.8795 71.0658 12.1195C71.1618 12.3435 71.2098 12.5035 71.2098 12.5995C71.2098 12.6955 71.1538 12.7835 71.0418 12.8635C70.9458 12.9435 70.8738 12.9835 70.8258 12.9835C70.1698 12.9035 69.4818 12.8475 68.7618 12.8155C68.0418 12.7835 67.3298 12.7675 66.6258 12.7675V17.8555C66.6258 18.1115 66.6098 18.4235 66.5778 18.7915C66.5618 19.1435 66.5218 19.4955 66.4578 19.8475C66.3938 20.1835 66.2978 20.4635 66.1698 20.6875C66.0578 20.9275 65.8978 21.0475 65.6898 21.0475ZM73.6441 16.9675C73.4361 17.0635 73.2361 17.0875 73.0441 17.0395C72.8521 16.9755 72.7321 16.8795 72.6841 16.7515C72.6361 16.6075 72.7321 16.4715 72.9721 16.3435C73.9481 15.7675 74.9241 15.0475 75.9001 14.1835C76.8921 13.3195 77.8201 12.3675 78.6841 11.3275C79.5481 10.2875 80.2841 9.19153 80.8921 8.03953C81.5161 6.88753 81.9481 5.73553 82.1881 4.58353C82.2201 4.42353 82.1881 4.33553 82.0921 4.31953C81.9961 4.28753 81.9321 4.27153 81.9001 4.27153C81.6441 4.27153 81.2761 4.28753 80.7961 4.31953C80.3161 4.33553 79.8281 4.35953 79.3321 4.39153C78.8521 4.40753 78.4841 4.43153 78.2281 4.46353C77.5241 4.52753 76.9641 4.57553 76.5481 4.60753C76.1321 4.63953 75.6841 4.70353 75.2041 4.79953C74.9481 4.84753 74.7641 4.85553 74.6521 4.82353C74.5561 4.79153 74.4441 4.71153 74.3161 4.58353C73.9801 4.24753 73.7481 3.96753 73.6201 3.74353C73.5721 3.66353 73.5881 3.55953 73.6681 3.43153C73.7481 3.30353 73.8361 3.25553 73.9321 3.28753C74.3961 3.38353 75.0121 3.45553 75.7801 3.50353C76.5481 3.53553 77.3081 3.52753 78.0601 3.47953C78.5241 3.44753 79.0201 3.41553 79.5481 3.38353C80.0761 3.33553 80.5721 3.27153 81.0361 3.19153C81.5161 3.11153 81.8921 3.02353 82.1641 2.92753C82.1641 2.92753 82.1721 2.92753 82.1881 2.92753C82.2521 2.91153 82.3001 2.90353 82.3321 2.90353C82.3801 2.90353 82.4441 2.91153 82.5241 2.92753L84.0361 3.40753C84.1001 3.43953 84.1481 3.49553 84.1801 3.57553C84.2121 3.65553 84.2041 3.74353 84.1561 3.83953L83.6761 5.18353C83.2761 6.33553 82.7161 7.49553 81.9961 8.66353C81.2761 9.83153 80.4521 10.9515 79.5241 12.0235C78.6121 13.0955 77.6521 14.0635 76.6441 14.9275C75.6361 15.7755 74.6361 16.4555 73.6441 16.9675ZM88.2601 21.0475C88.0841 21.0475 87.9881 20.9675 87.9721 20.8075C87.9561 20.6795 87.9321 20.4475 87.9001 20.1115C87.8841 19.7595 87.8681 19.3835 87.8521 18.9835C87.8361 18.5675 87.8281 18.2075 87.8281 17.9035V3.19153C87.8281 2.69553 87.8041 2.31153 87.7561 2.03953C87.7241 1.76753 87.6201 1.54353 87.4441 1.36753C87.2841 1.17553 86.9961 0.97553 86.5801 0.767531C86.4521 0.68753 86.3881 0.60753 86.3881 0.52753C86.3881 0.44753 86.4441 0.34353 86.5561 0.215531C86.6681 0.0715308 86.7881 -0.000469208 86.9161 -0.000469208C87.1081 -0.000469208 87.3481 0.0475307 87.6361 0.14353C87.9241 0.23953 88.2041 0.35153 88.4761 0.47953C88.7481 0.59153 88.9481 0.69553 89.0761 0.791531C89.2681 0.935531 89.3561 1.09553 89.3401 1.27153C89.2921 1.60753 89.2521 1.91953 89.2201 2.20753C89.2041 2.49553 89.1961 2.83153 89.1961 3.21553V17.8555C89.1961 18.1115 89.1801 18.4235 89.1481 18.7915C89.1321 19.1435 89.0921 19.4955 89.0281 19.8475C88.9641 20.1835 88.8681 20.4635 88.7401 20.6875C88.6281 20.9275 88.4681 21.0475 88.2601 21.0475ZM99.3627 8.59153C99.0267 8.59153 98.7547 8.47953 98.5467 8.25553C98.3547 8.01553 98.2587 7.63953 98.2587 7.12753V5.92753C98.2587 5.83153 98.2427 5.74353 98.2107 5.66353C98.1947 5.58353 98.1467 5.51153 98.0667 5.44753C97.9067 5.36753 97.7467 5.27153 97.5867 5.15953C97.4267 5.03153 97.3307 4.92753 97.2987 4.84753C97.2347 4.76753 97.2587 4.63953 97.3707 4.46353C97.4827 4.27153 97.5867 4.19153 97.6827 4.22353C97.9547 4.28753 98.2347 4.33553 98.5227 4.36753C98.8267 4.39953 99.1787 4.41553 99.5787 4.41553C99.7867 4.41553 100.155 4.41553 100.683 4.41553C101.211 4.39953 101.819 4.38353 102.507 4.36753C103.195 4.33553 103.883 4.30353 104.571 4.27153C105.275 4.23953 105.907 4.20753 106.467 4.17553C107.043 4.12753 107.475 4.07153 107.763 4.00753C107.795 3.91153 107.819 3.73553 107.835 3.47953C107.867 3.22353 107.891 2.94353 107.907 2.63953C107.939 2.33553 107.955 2.07953 107.955 1.87153C107.955 1.74353 107.931 1.67153 107.883 1.65553C107.851 1.63953 107.819 1.63153 107.787 1.63153C107.771 1.63153 107.763 1.63153 107.763 1.63153C107.747 1.63153 107.355 1.64753 106.587 1.67953C105.819 1.71153 104.875 1.75953 103.755 1.82353C102.795 1.88753 101.867 1.95153 100.971 2.01553C100.091 2.06353 99.4427 2.13553 99.0267 2.23153C98.8507 2.27953 98.7067 2.29553 98.5947 2.27953C98.4827 2.24753 98.3627 2.19153 98.2347 2.11153C98.1067 2.03153 97.9547 1.90353 97.7787 1.72753C97.6027 1.55153 97.4987 1.42353 97.4667 1.34353C97.4347 1.26353 97.4667 1.15953 97.5627 1.03153C97.6747 0.90353 97.7867 0.85553 97.8987 0.887531C98.0907 0.951531 98.3867 0.999531 98.7867 1.03153C99.2027 1.04753 99.6667 1.06353 100.179 1.07953C100.707 1.07953 101.219 1.07953 101.715 1.07953C102.227 1.06353 102.667 1.04753 103.035 1.03153C103.579 0.999531 104.163 0.967531 104.787 0.93553C105.427 0.903531 106.027 0.855531 106.587 0.791531C107.147 0.711531 107.579 0.62353 107.883 0.52753C108.011 0.44753 108.163 0.43953 108.339 0.50353L109.539 0.81553C109.731 0.89553 109.779 1.01553 109.683 1.17553C109.651 1.23953 109.587 1.39153 109.491 1.63153C109.411 1.85553 109.323 2.11953 109.227 2.42353C109.131 2.72753 109.035 3.01553 108.939 3.28753C108.859 3.55953 108.803 3.76753 108.771 3.91153C108.915 3.97553 109.075 4.07153 109.251 4.19953C109.443 4.32753 109.539 4.43153 109.539 4.51153C109.539 4.63953 109.475 4.77553 109.347 4.91953C109.235 5.06353 109.155 5.12753 109.107 5.11153C108.883 5.07953 108.483 5.06353 107.907 5.06353C107.331 5.04753 106.659 5.04753 105.891 5.06353C105.139 5.07953 104.363 5.10353 103.563 5.13553C102.763 5.16753 102.019 5.20753 101.331 5.25553C100.643 5.28753 100.083 5.31953 99.6507 5.35153V7.00753C99.6507 7.32753 99.6907 7.53553 99.7707 7.63153C99.8507 7.71153 100.051 7.75153 100.371 7.75153C101.043 7.75153 101.635 7.75153 102.147 7.75153C102.659 7.73553 103.171 7.71153 103.683 7.67953C104.211 7.64753 104.803 7.61553 105.459 7.58353C106.403 7.51953 107.155 7.44753 107.715 7.36753C108.275 7.28753 108.763 7.18353 109.179 7.05553C109.387 6.99153 109.539 6.96753 109.635 6.98353C109.731 6.98353 109.827 7.04753 109.923 7.17553C110.115 7.38353 110.251 7.61553 110.331 7.87153C110.347 7.96753 110.291 8.07153 110.163 8.18353C110.035 8.29553 109.939 8.35153 109.875 8.35153C109.155 8.33553 108.443 8.34353 107.739 8.37553C107.051 8.39153 106.387 8.40753 105.747 8.42353C105.651 8.42353 105.547 8.43153 105.435 8.44753C105.339 8.44753 105.243 8.44753 105.147 8.44753C104.235 8.47953 103.275 8.51153 102.267 8.54353C101.259 8.57553 100.291 8.59153 99.3627 8.59153ZM100.971 22.0075C100.267 22.0235 99.7387 21.8875 99.3867 21.5995C99.0507 21.3275 98.8827 20.8395 98.8827 20.1355V19.0555C98.8827 18.9435 98.8747 18.8555 98.8587 18.7915C98.8587 18.7275 98.8187 18.6795 98.7387 18.6475C98.5627 18.5675 98.3707 18.4555 98.1627 18.3115C97.9707 18.1515 97.8507 18.0315 97.8027 17.9515C97.7547 17.8715 97.7707 17.7515 97.8507 17.5915C97.9467 17.4155 98.0427 17.3435 98.1387 17.3755C98.6347 17.4875 99.2907 17.5595 100.107 17.5915C100.395 17.5915 100.803 17.5915 101.331 17.5915C101.859 17.5915 102.443 17.5835 103.083 17.5675C103.723 17.5515 104.363 17.5355 105.003 17.5195C105.643 17.4875 106.227 17.4555 106.755 17.4235C107.283 17.3915 107.691 17.3595 107.979 17.3275C107.995 17.2475 108.011 17.0875 108.027 16.8475C108.059 16.6075 108.083 16.3435 108.099 16.0555C108.131 15.7515 108.147 15.4875 108.147 15.2635C108.147 15.1515 108.123 15.0875 108.075 15.0715C108.043 15.0555 108.011 15.0475 107.979 15.0475L102.171 15.3115C101.611 15.3275 101.067 15.3675 100.539 15.4315C100.011 15.4795 99.6827 15.5195 99.5547 15.5515C99.3787 15.5835 99.2347 15.5995 99.1227 15.5995C99.0107 15.5835 98.8907 15.5275 98.7627 15.4315C98.6347 15.3355 98.4827 15.2155 98.3067 15.0715C98.1467 14.9115 98.0507 14.7915 98.0187 14.7115C98.0027 14.6315 98.0427 14.5275 98.1387 14.3995C98.2347 14.2555 98.3387 14.1995 98.4507 14.2315C98.8027 14.3115 99.2907 14.3675 99.9147 14.3995C100.539 14.4315 101.099 14.4475 101.595 14.4475C101.947 14.4475 102.419 14.4475 103.011 14.4475C103.619 14.4315 104.251 14.4075 104.907 14.3755C105.579 14.3275 106.195 14.2795 106.755 14.2315C107.331 14.1675 107.763 14.0875 108.051 13.9915C108.115 13.9595 108.171 13.9355 108.219 13.9195C108.283 13.9035 108.355 13.9115 108.435 13.9435L109.539 14.2315C109.715 14.2955 109.763 14.4155 109.683 14.5915C109.651 14.6875 109.579 14.9115 109.467 15.2635C109.371 15.5995 109.275 15.9515 109.179 16.3195C109.083 16.6875 109.011 16.9675 108.963 17.1595C109.091 17.2395 109.251 17.3355 109.443 17.4475C109.651 17.5595 109.755 17.6635 109.755 17.7595C109.755 17.8875 109.691 18.0235 109.563 18.1675C109.451 18.3115 109.371 18.3755 109.323 18.3595C109.131 18.3435 108.763 18.3355 108.219 18.3355C107.675 18.3195 107.043 18.3115 106.323 18.3115C105.603 18.3115 104.851 18.3195 104.067 18.3355C103.299 18.3515 102.579 18.3755 101.907 18.4075C101.235 18.4395 100.683 18.4715 100.251 18.5035V19.9675C100.251 20.4475 100.307 20.7435 100.419 20.8555C100.531 20.9675 100.747 21.0315 101.067 21.0475C101.115 21.0475 101.219 21.0475 101.379 21.0475C101.699 21.0475 102.131 21.0475 102.675 21.0475C103.235 21.0475 103.843 21.0395 104.499 21.0235C105.155 21.0075 105.787 20.9835 106.395 20.9515C107.227 20.9195 107.899 20.8635 108.411 20.7835C108.923 20.7195 109.363 20.6235 109.731 20.4955C109.923 20.4155 110.067 20.3915 110.163 20.4235C110.259 20.4555 110.363 20.5195 110.475 20.6155C110.571 20.7275 110.667 20.8635 110.763 21.0235C110.859 21.1835 110.915 21.3035 110.931 21.3835C110.947 21.4955 110.891 21.6155 110.763 21.7435C110.635 21.8715 110.547 21.9355 110.499 21.9355C109.843 21.9035 109.267 21.8875 108.771 21.8875C108.275 21.8875 107.755 21.8875 107.211 21.8875C107.067 21.8875 106.915 21.8875 106.755 21.8875C106.611 21.8875 106.459 21.8875 106.299 21.8875C105.483 21.8875 104.587 21.9035 103.611 21.9355C102.635 21.9835 101.755 22.0075 100.971 22.0075ZM94.8507 12.7195C94.6907 12.7195 94.5147 12.6475 94.3227 12.5035C94.2427 12.4395 94.1227 12.3435 93.9627 12.2155C93.8187 12.0715 93.6827 11.9355 93.5547 11.8075C93.4267 11.6635 93.3467 11.5675 93.3147 11.5195C93.2827 11.4395 93.2987 11.3355 93.3627 11.2075C93.4427 11.0795 93.5387 11.0155 93.6507 11.0155C94.1147 11.0955 94.6667 11.1675 95.3067 11.2315C95.9627 11.2795 96.7787 11.3035 97.7547 11.3035C98.3467 11.3035 99.0907 11.2955 99.9867 11.2795C100.899 11.2475 101.867 11.2155 102.891 11.1835C103.931 11.1515 104.939 11.1195 105.915 11.0875C106.907 11.0395 107.779 10.9915 108.531 10.9435C108.947 10.9115 109.419 10.8795 109.947 10.8475C110.491 10.7995 111.003 10.7435 111.483 10.6795C111.963 10.6155 112.323 10.5595 112.563 10.5115C112.835 10.4475 113.019 10.3995 113.115 10.3675C113.227 10.3355 113.323 10.3195 113.403 10.3195C113.515 10.3195 113.643 10.4155 113.787 10.6075C113.867 10.7355 113.947 10.8875 114.027 11.0635C114.123 11.2235 114.171 11.3595 114.171 11.4715C114.171 11.6155 114.107 11.7275 113.979 11.8075C113.867 11.8875 113.795 11.9275 113.763 11.9275C113.491 11.8955 113.171 11.8795 112.803 11.8795C112.435 11.8635 112.075 11.8555 111.723 11.8555C111.387 11.8395 111.107 11.8315 110.883 11.8315C110.499 11.8315 109.971 11.8395 109.299 11.8555C108.643 11.8715 107.907 11.8955 107.091 11.9275C106.275 11.9435 105.443 11.9675 104.595 11.9995C103.747 12.0315 102.931 12.0635 102.147 12.0955C101.379 12.1275 100.707 12.1595 100.131 12.1915C99.5707 12.2075 99.1627 12.2235 98.9067 12.2395C98.4267 12.2555 97.9387 12.2955 97.4427 12.3595C96.9467 12.4075 96.4987 12.4635 96.0987 12.5275C95.7147 12.5755 95.4507 12.6155 95.3067 12.6475C95.2427 12.6635 95.1707 12.6795 95.0907 12.6955C95.0107 12.7115 94.9307 12.7195 94.8507 12.7195ZM126.423 14.5915C126.103 14.6715 125.847 14.5595 125.655 14.2555C125.463 13.9355 125.367 13.5435 125.367 13.0795V6.40753C125.367 5.89553 125.319 5.46353 125.223 5.11153C125.127 4.74353 124.815 4.46353 124.287 4.27153C124.111 4.22353 124.063 4.08753 124.143 3.86353C124.255 3.57553 124.463 3.43953 124.767 3.45553C124.927 3.48753 125.143 3.52753 125.415 3.57553C125.703 3.62353 125.959 3.67953 126.183 3.74353C126.695 3.74353 127.175 3.71153 127.623 3.64753C128.087 3.56753 128.455 3.47953 128.727 3.38353C128.903 3.31953 129.039 3.30353 129.135 3.33553C129.247 3.36753 129.343 3.43953 129.423 3.55153C129.455 3.58353 129.511 3.67153 129.591 3.81553C129.671 3.95953 129.711 4.07953 129.711 4.17553C129.711 4.27153 129.663 4.36753 129.567 4.46353C129.487 4.54353 129.415 4.58353 129.351 4.58353C128.951 4.55153 128.607 4.54353 128.319 4.55953C128.031 4.57553 127.727 4.59953 127.407 4.63153C127.295 4.63153 127.175 4.63953 127.047 4.65553C126.935 4.65553 126.815 4.66353 126.687 4.67953V12.5035C126.687 12.5355 126.687 12.5755 126.687 12.6235C126.687 12.8155 126.711 12.9675 126.759 13.0795C126.807 13.1755 126.975 13.1995 127.263 13.1515C127.983 13.0235 128.695 12.8155 129.399 12.5275C130.103 12.2395 130.679 11.9515 131.127 11.6635V5.95153C131.127 5.91953 131.127 5.86353 131.127 5.78353C131.127 5.31953 131.095 4.95953 131.031 4.70353C130.983 4.43153 130.775 4.19953 130.407 4.00753C130.231 3.92753 130.183 3.79953 130.263 3.62353C130.375 3.31953 130.583 3.19153 130.887 3.23953C131.095 3.27153 131.303 3.31153 131.511 3.35953C131.735 3.40753 131.943 3.46353 132.135 3.52753C132.727 3.52753 133.335 3.47153 133.959 3.35953C134.583 3.23153 135.039 3.11953 135.327 3.02353C135.519 2.97553 135.655 2.96753 135.735 2.99953C135.831 3.01553 135.919 3.07953 135.999 3.19153C136.063 3.27153 136.135 3.39153 136.215 3.55153C136.295 3.71153 136.335 3.83953 136.335 3.93553C136.335 4.03153 136.287 4.12753 136.191 4.22353C136.111 4.31953 136.039 4.36753 135.975 4.36753C135.495 4.35153 135.055 4.35153 134.655 4.36753C134.271 4.38353 133.839 4.40753 133.359 4.43953C133.215 4.43953 133.063 4.44753 132.903 4.46353C132.759 4.46353 132.607 4.47153 132.447 4.48753V12.5275C132.447 12.7515 132.471 12.9115 132.519 13.0075C132.583 13.1035 132.767 13.1355 133.071 13.1035C133.567 13.0555 134.103 12.9595 134.679 12.8155C135.271 12.6715 135.839 12.5035 136.383 12.3115C136.927 12.1195 137.367 11.9435 137.703 11.7835C137.991 11.6555 138.151 11.7035 138.183 11.9275C138.231 12.1515 138.111 12.3435 137.823 12.5035C137.567 12.6635 137.215 12.8475 136.767 13.0555C136.319 13.2635 135.823 13.4795 135.279 13.7035C134.735 13.9115 134.183 14.0955 133.623 14.2555C133.079 14.4155 132.567 14.5195 132.087 14.5675C131.767 14.5995 131.527 14.4395 131.367 14.0875C131.207 13.7355 131.127 13.3275 131.127 12.8635V12.5035C130.647 12.8235 129.991 13.1995 129.159 13.6315C128.327 14.0475 127.415 14.3675 126.423 14.5915ZM139.407 21.0475C139.231 21.0475 139.135 20.9675 139.119 20.8075C139.103 20.6795 139.079 20.4475 139.047 20.1115C139.031 19.7595 139.015 19.3835 138.999 18.9835C138.983 18.5675 138.975 18.2075 138.975 17.9035V3.21553C138.975 2.71953 138.951 2.33553 138.903 2.06353C138.871 1.79153 138.767 1.56753 138.591 1.39153C138.415 1.19953 138.119 0.999531 137.703 0.791531C137.575 0.711531 137.511 0.631531 137.511 0.551531C137.511 0.471531 137.567 0.367531 137.679 0.239531C137.791 0.0955305 137.911 0.0235305 138.039 0.0235305C138.231 0.0235305 138.463 0.0715303 138.735 0.16753C139.023 0.26353 139.303 0.37553 139.575 0.50353C139.847 0.61553 140.047 0.719531 140.175 0.81553C140.367 0.95953 140.455 1.11953 140.439 1.29553C140.391 1.63153 140.351 1.94353 140.319 2.23153C140.303 2.51953 140.295 2.85553 140.295 3.23953V9.76753C141.095 9.75153 141.791 9.67953 142.383 9.55153C142.991 9.40753 143.423 9.30353 143.679 9.23953C143.855 9.17553 143.975 9.16753 144.039 9.21553C144.103 9.24753 144.175 9.31153 144.255 9.40753C144.271 9.40753 144.279 9.41553 144.279 9.43153C144.359 9.54353 144.439 9.71153 144.519 9.93553C144.599 10.1595 144.639 10.3275 144.639 10.4395C144.639 10.5355 144.591 10.6235 144.495 10.7035C144.399 10.7835 144.327 10.8235 144.279 10.8235C143.655 10.7435 142.999 10.7035 142.311 10.7035C141.639 10.6875 140.967 10.6795 140.295 10.6795V17.8555C140.295 18.1115 140.287 18.4235 140.271 18.7915C140.255 19.1435 140.215 19.4955 140.151 19.8475C140.103 20.1835 140.015 20.4635 139.887 20.6875C139.775 20.9275 139.615 21.0475 139.407 21.0475ZM149.264 15.6715C148.912 15.6875 148.632 15.5275 148.424 15.1915C148.216 14.8395 148.112 14.4315 148.112 13.9675V9.88753C148.112 9.72753 148.088 9.61553 148.04 9.55153C148.008 9.47153 147.928 9.39153 147.8 9.31153C147.64 9.23153 147.448 9.12753 147.224 8.99953C147 8.87153 146.864 8.76753 146.816 8.68753C146.768 8.60753 146.784 8.47953 146.864 8.30353C146.944 8.12753 147.032 8.04753 147.128 8.06353C147.4 8.09553 147.688 8.12753 147.992 8.15953C148.312 8.19153 148.632 8.21553 148.952 8.23153C149.272 8.24753 149.664 8.25553 150.128 8.25553C150.592 8.23953 151.08 8.21553 151.592 8.18353C152.12 8.15153 152.608 8.11153 153.056 8.06353C153.52 8.01553 153.896 7.96753 154.184 7.91953C154.2 7.80753 154.232 7.58353 154.28 7.24753C154.328 6.89553 154.376 6.50353 154.424 6.07153C154.488 5.63953 154.544 5.23153 154.592 4.84753C154.64 4.46353 154.672 4.18353 154.688 4.00753C154.704 3.87953 154.688 3.80753 154.64 3.79153C154.592 3.75953 154.552 3.74353 154.52 3.74353C154.504 3.74353 154.472 3.74353 154.424 3.74353C154.248 3.74353 153.928 3.75153 153.464 3.76753C153 3.76753 152.352 3.80753 151.52 3.88753C151.104 3.91953 150.76 3.95153 150.488 3.98353C150.232 3.99953 149.984 4.02353 149.744 4.05553C149.504 4.07153 149.224 4.11153 148.904 4.17553C148.6 4.23953 148.392 4.25553 148.28 4.22353C148.184 4.19153 148.064 4.11153 147.92 3.98353C147.76 3.85553 147.632 3.73553 147.536 3.62353C147.44 3.49553 147.36 3.37553 147.296 3.26353C147.248 3.18353 147.264 3.08753 147.344 2.97553C147.424 2.84753 147.52 2.79153 147.632 2.80753C147.904 2.83953 148.2 2.87153 148.52 2.90353C148.856 2.91953 149.184 2.93553 149.504 2.95153C149.856 2.96753 150.264 2.97553 150.728 2.97553C151.208 2.95953 151.688 2.93553 152.168 2.90353C152.664 2.87153 153.104 2.83953 153.488 2.80753C153.76 2.77553 154.016 2.72753 154.256 2.66353C154.496 2.58353 154.656 2.51953 154.736 2.47153C154.832 2.39153 154.968 2.39153 155.144 2.47153L156.272 2.92753C156.32 2.95953 156.36 3.00753 156.392 3.07153C156.424 3.13553 156.424 3.21553 156.392 3.31153C156.36 3.39153 156.288 3.57553 156.176 3.86353C156.08 4.15153 155.992 4.47953 155.912 4.84753L155.264 7.72753C155.408 7.80753 155.568 7.93553 155.744 8.11153C155.936 8.27153 156.032 8.39153 156.032 8.47153C156.032 8.59953 155.968 8.71953 155.84 8.83153C155.728 8.94353 155.648 8.99953 155.6 8.99953C155.424 8.98353 155.088 8.97553 154.592 8.97553C154.112 8.97553 153.552 8.99153 152.912 9.02353C152.288 9.03953 151.664 9.07153 151.04 9.11953C150.432 9.15153 149.912 9.19153 149.48 9.23953V13.7035C149.48 13.9115 149.52 14.0715 149.6 14.1835C149.696 14.2955 149.904 14.3435 150.224 14.3275C151.12 14.3115 152.016 14.2315 152.912 14.0875C153.824 13.9435 154.688 13.7755 155.504 13.5835C156.336 13.3755 157.064 13.1675 157.688 12.9595C158.312 12.7355 158.784 12.5435 159.104 12.3835C159.392 12.2555 159.56 12.3035 159.608 12.5275C159.672 12.7355 159.576 12.9275 159.32 13.1035C159.08 13.2635 158.688 13.4475 158.144 13.6555C157.6 13.8635 156.952 14.0875 156.2 14.3275C155.464 14.5515 154.688 14.7675 153.872 14.9755C153.056 15.1675 152.248 15.3275 151.448 15.4555C150.648 15.5835 149.92 15.6555 149.264 15.6715ZM160.952 21.0475C160.776 21.0475 160.68 20.9675 160.664 20.8075C160.648 20.6795 160.624 20.4475 160.592 20.1115C160.576 19.7595 160.56 19.3835 160.544 18.9835C160.528 18.5675 160.52 18.2075 160.52 17.9035V3.19153C160.52 2.69553 160.496 2.31153 160.448 2.03953C160.416 1.76753 160.312 1.54353 160.136 1.36753C159.976 1.17553 159.688 0.97553 159.272 0.767531C159.144 0.68753 159.08 0.60753 159.08 0.52753C159.08 0.44753 159.136 0.34353 159.248 0.215531C159.36 0.0715308 159.48 -0.000469208 159.608 -0.000469208C159.8 -0.000469208 160.04 0.0475307 160.328 0.14353C160.616 0.23953 160.896 0.35153 161.168 0.47953C161.44 0.59153 161.64 0.69553 161.768 0.791531C161.96 0.935531 162.048 1.09553 162.032 1.27153C161.984 1.60753 161.944 1.91953 161.912 2.20753C161.896 2.49553 161.888 2.83153 161.888 3.21553V9.76753C162.736 9.76753 163.48 9.70353 164.12 9.57553C164.776 9.43153 165.232 9.31953 165.488 9.23953C165.664 9.17553 165.792 9.16753 165.872 9.21553C165.952 9.26353 166.024 9.33553 166.088 9.43153C166.168 9.54353 166.248 9.71153 166.328 9.93553C166.424 10.1595 166.472 10.3275 166.472 10.4395C166.472 10.5355 166.416 10.6235 166.304 10.7035C166.208 10.7835 166.136 10.8235 166.088 10.8235C165.496 10.7435 164.88 10.7035 164.24 10.7035C163.616 10.6875 162.984 10.6795 162.344 10.6795C162.264 10.6795 162.184 10.6795 162.104 10.6795C162.04 10.6795 161.968 10.6795 161.888 10.6795V17.8555C161.888 18.1115 161.872 18.4235 161.84 18.7915C161.824 19.1435 161.784 19.4955 161.72 19.8475C161.656 20.1835 161.56 20.4635 161.432 20.6875C161.32 20.9275 161.16 21.0475 160.952 21.0475ZM182.796 21.0475C182.62 21.0475 182.524 20.9675 182.508 20.8075C182.492 20.6795 182.468 20.4475 182.436 20.1115C182.42 19.7595 182.404 19.3835 182.388 18.9835C182.372 18.5675 182.364 18.2075 182.364 17.9035V3.19153C182.364 2.69553 182.34 2.31153 182.292 2.03953C182.26 1.76753 182.156 1.54353 181.98 1.36753C181.82 1.17553 181.532 0.97553 181.116 0.767531C180.988 0.68753 180.924 0.60753 180.924 0.52753C180.924 0.44753 180.98 0.34353 181.092 0.215531C181.204 0.0715308 181.324 -0.000469208 181.452 -0.000469208C181.644 -0.000469208 181.884 0.0475307 182.172 0.14353C182.46 0.23953 182.74 0.35153 183.012 0.47953C183.284 0.59153 183.484 0.69553 183.612 0.791531C183.804 0.935531 183.892 1.09553 183.876 1.27153C183.828 1.60753 183.788 1.91953 183.756 2.20753C183.74 2.49553 183.732 2.83153 183.732 3.21553V9.76753C184.58 9.76753 185.324 9.70353 185.964 9.57553C186.62 9.43153 187.076 9.31953 187.332 9.23953C187.508 9.17553 187.636 9.16753 187.716 9.21553C187.796 9.26353 187.868 9.33553 187.932 9.43153C188.012 9.54353 188.092 9.71153 188.172 9.93553C188.268 10.1595 188.316 10.3275 188.316 10.4395C188.316 10.5355 188.26 10.6235 188.148 10.7035C188.052 10.7835 187.98 10.8235 187.932 10.8235C187.34 10.7435 186.724 10.7035 186.084 10.7035C185.46 10.6875 184.828 10.6795 184.188 10.6795C184.108 10.6795 184.028 10.6795 183.948 10.6795C183.884 10.6795 183.812 10.6795 183.732 10.6795V17.8555C183.732 18.1115 183.716 18.4235 183.684 18.7915C183.668 19.1435 183.628 19.4955 183.564 19.8475C183.5 20.1835 183.404 20.4635 183.276 20.6875C183.164 20.9275 183.004 21.0475 182.796 21.0475ZM168.66 16.7275C168.452 16.8235 168.252 16.8475 168.06 16.7995C167.868 16.7355 167.748 16.6395 167.7 16.5115C167.652 16.3675 167.748 16.2315 167.988 16.1035C168.964 15.5275 169.932 14.8235 170.892 13.9915C171.852 13.1435 172.748 12.2155 173.58 11.2075C174.412 10.1835 175.124 9.11153 175.716 7.99153C176.308 6.87153 176.724 5.73553 176.964 4.58353C176.996 4.42353 176.964 4.33553 176.868 4.31953C176.772 4.28753 176.708 4.27153 176.676 4.27153C176.42 4.27153 176.068 4.28753 175.62 4.31953C175.172 4.33553 174.724 4.35953 174.276 4.39153C173.844 4.40753 173.5 4.43153 173.244 4.46353C172.54 4.52753 171.98 4.57553 171.564 4.60753C171.148 4.63953 170.7 4.70353 170.22 4.79953C169.964 4.84753 169.78 4.85553 169.668 4.82353C169.572 4.79153 169.46 4.71153 169.332 4.58353C168.996 4.24753 168.764 3.96753 168.636 3.74353C168.588 3.66353 168.604 3.55953 168.684 3.43153C168.764 3.30353 168.852 3.25553 168.948 3.28753C169.412 3.38353 170.028 3.45553 170.796 3.50353C171.564 3.53553 172.324 3.52753 173.076 3.47953C173.78 3.44753 174.492 3.39153 175.212 3.31153C175.948 3.21553 176.524 3.08753 176.94 2.92753C176.956 2.92753 176.98 2.91953 177.012 2.90353C177.044 2.90353 177.084 2.90353 177.132 2.90353C177.18 2.88753 177.236 2.89553 177.3 2.92753L178.812 3.40753C178.876 3.43953 178.924 3.49553 178.956 3.57553C178.988 3.65553 178.98 3.74353 178.932 3.83953L178.452 5.18353C178.068 6.33553 177.532 7.48753 176.844 8.63953C176.156 9.79153 175.364 10.8875 174.468 11.9275C173.588 12.9675 172.644 13.9035 171.636 14.7355C170.644 15.5515 169.652 16.2155 168.66 16.7275ZM195.543 8.03953C194.823 8.03953 194.463 7.50353 194.463 6.43153V4.15153C194.463 3.67153 194.399 3.23153 194.271 2.83153C194.159 2.41553 193.855 2.07153 193.359 1.79953C193.183 1.70353 193.159 1.56753 193.287 1.39153C193.495 1.08753 193.767 0.97553 194.103 1.05553C194.327 1.11953 194.591 1.22353 194.895 1.36753C195.199 1.49553 195.455 1.64753 195.663 1.82353C195.887 2.01553 195.983 2.15953 195.951 2.25553C195.903 2.49553 195.871 2.76753 195.855 3.07153C195.839 3.37553 195.831 3.68753 195.831 4.00753V6.31153C195.831 6.63153 195.871 6.84753 195.951 6.95953C196.031 7.05553 196.231 7.10353 196.551 7.10353C197.447 7.10353 198.415 7.08753 199.455 7.05553C200.511 7.02353 201.479 6.97553 202.359 6.91153C203.303 6.86353 204.039 6.79953 204.567 6.71953C205.095 6.62353 205.551 6.51153 205.935 6.38353C206.127 6.30353 206.271 6.27953 206.367 6.31153C206.463 6.34353 206.567 6.41553 206.679 6.52753C206.775 6.62353 206.863 6.75953 206.943 6.93553C207.023 7.09553 207.079 7.23153 207.111 7.34353C207.143 7.45553 207.095 7.56753 206.967 7.67953C206.839 7.79153 206.743 7.84753 206.679 7.84753C206.135 7.81553 205.655 7.79953 205.239 7.79953C204.839 7.78353 204.407 7.78353 203.943 7.79953C203.495 7.79953 202.919 7.81553 202.215 7.84753C201.575 7.86353 200.847 7.88753 200.031 7.91953C199.231 7.95153 198.431 7.98353 197.631 8.01553C196.847 8.03153 196.151 8.03953 195.543 8.03953ZM191.775 13.4155C191.503 13.4795 191.311 13.5035 191.199 13.4875C191.103 13.4555 190.975 13.3835 190.815 13.2715C190.719 13.2075 190.591 13.1115 190.431 12.9835C190.271 12.8555 190.119 12.7275 189.975 12.5995C189.847 12.4555 189.775 12.3515 189.759 12.2875C189.743 12.2075 189.783 12.0955 189.879 11.9515C189.975 11.8075 190.063 11.7515 190.143 11.7835C190.655 11.8955 191.271 11.9835 191.991 12.0475C192.711 12.0955 193.495 12.1115 194.343 12.0955C195.895 12.0795 197.583 12.0555 199.407 12.0235C201.247 11.9915 203.055 11.9355 204.831 11.8555C205.871 11.8075 206.823 11.7355 207.687 11.6395C208.567 11.5435 209.191 11.4395 209.559 11.3275C209.735 11.2635 209.871 11.2555 209.967 11.3035C210.079 11.3515 210.175 11.4315 210.255 11.5435C210.351 11.6715 210.439 11.8235 210.519 11.9995C210.599 12.1755 210.639 12.3195 210.639 12.4315C210.639 12.5435 210.583 12.6475 210.471 12.7435C210.359 12.8235 210.279 12.8635 210.231 12.8635C209.639 12.7835 208.983 12.7435 208.263 12.7435C207.543 12.7275 206.855 12.7275 206.199 12.7435C206.023 12.7435 205.855 12.7435 205.695 12.7435C205.535 12.7435 205.375 12.7435 205.215 12.7435C204.495 12.7595 203.703 12.7835 202.839 12.8155C201.975 12.8315 201.087 12.8555 200.175 12.8875C199.279 12.9035 198.415 12.9275 197.583 12.9595C196.767 12.9755 196.031 12.9995 195.375 13.0315C194.655 13.0635 193.991 13.1115 193.383 13.1755C192.791 13.2395 192.255 13.3195 191.775 13.4155ZM197.607 21.8155C196.039 21.8155 195.255 21.0875 195.255 19.6315V18.3115C195.255 17.8635 195.191 17.4875 195.063 17.1835C194.951 16.8635 194.711 16.6235 194.343 16.4635C194.247 16.4315 194.183 16.3675 194.151 16.2715C194.119 16.1755 194.119 16.0875 194.151 16.0075C194.311 15.7355 194.519 15.6075 194.775 15.6235C194.983 15.6555 195.263 15.7355 195.615 15.8635C195.967 15.9915 196.263 16.1195 196.503 16.2475C196.695 16.3595 196.775 16.4955 196.743 16.6555C196.711 16.7675 196.679 16.9675 196.647 17.2555C196.631 17.5435 196.623 17.8235 196.623 18.0955V19.5115C196.623 20.0715 196.719 20.4235 196.911 20.5675C197.119 20.7275 197.391 20.8155 197.727 20.8315C197.903 20.8475 198.207 20.8555 198.639 20.8555C199.087 20.8555 199.583 20.8475 200.127 20.8315C200.671 20.8155 201.191 20.7915 201.687 20.7595C202.199 20.7435 202.607 20.7275 202.911 20.7115C203.743 20.6795 204.455 20.6075 205.047 20.4955C205.655 20.3835 206.095 20.2795 206.367 20.1835C206.703 20.0395 206.951 20.0875 207.111 20.3275C207.191 20.4555 207.279 20.6075 207.375 20.7835C207.471 20.9595 207.527 21.1035 207.543 21.2155C207.559 21.3275 207.503 21.4315 207.375 21.5275C207.263 21.6395 207.175 21.6955 207.111 21.6955C206.551 21.6635 206.023 21.6395 205.527 21.6235C205.047 21.6235 204.535 21.6235 203.991 21.6235C203.463 21.6395 202.847 21.6635 202.143 21.6955C201.327 21.7275 200.559 21.7515 199.839 21.7675C199.135 21.7995 198.391 21.8155 197.607 21.8155ZM222.244 12.3115C221.988 12.3755 221.812 12.3995 221.716 12.3835C221.62 12.3515 221.492 12.2955 221.332 12.2155C221.316 12.1995 221.3 12.1915 221.284 12.1915C221.188 12.1275 221.06 12.0315 220.9 11.9035C220.74 11.7595 220.596 11.6235 220.468 11.4955C220.34 11.3515 220.268 11.2555 220.252 11.2075C220.204 11.1275 220.228 11.0155 220.324 10.8715C220.436 10.7275 220.54 10.6715 220.636 10.7035C221.148 10.7995 221.756 10.8795 222.46 10.9435C223.18 10.9915 223.964 11.0075 224.812 10.9915C226.124 10.9915 227.508 10.9675 228.964 10.9195V8.87953C228.964 8.41553 228.924 7.99953 228.844 7.63153C228.78 7.24753 228.532 6.93553 228.1 6.69553C227.94 6.59953 227.916 6.44753 228.028 6.23953C228.22 5.96753 228.452 5.87153 228.724 5.95153C228.98 6.01553 229.212 6.11153 229.42 6.23953C229.628 6.35153 229.82 6.47953 229.996 6.62353C230.22 6.79953 230.316 6.92753 230.284 7.00753C230.22 7.24753 230.18 7.51953 230.164 7.82353C230.164 8.11153 230.156 8.41553 230.14 8.73553C230.124 9.02353 230.108 9.36753 230.092 9.76753C230.076 10.1675 230.068 10.5435 230.068 10.8955L235.3 10.7035C236.34 10.6715 237.292 10.6075 238.156 10.5115C239.036 10.3995 239.66 10.2795 240.028 10.1515C240.204 10.0875 240.34 10.0795 240.436 10.1275C240.532 10.1755 240.628 10.2635 240.724 10.3915C240.804 10.5195 240.884 10.6715 240.964 10.8475C241.06 11.0075 241.108 11.1515 241.108 11.2795C241.108 11.3755 241.052 11.4715 240.94 11.5675C240.828 11.6475 240.748 11.6875 240.7 11.6875C240.14 11.6075 239.516 11.5675 238.828 11.5675C238.14 11.5675 237.476 11.5755 236.836 11.5915C236.628 11.5915 236.428 11.5915 236.236 11.5915C236.044 11.5915 235.86 11.5915 235.684 11.5915C234.964 11.6075 234.164 11.6315 233.284 11.6635C232.42 11.6795 231.54 11.7035 230.644 11.7355C229.748 11.7675 228.884 11.7995 228.052 11.8315C227.22 11.8635 226.484 11.8955 225.844 11.9275C225.124 11.9595 224.46 12.0155 223.852 12.0955C223.26 12.1595 222.724 12.2315 222.244 12.3115ZM223.948 22.6075C223.772 22.6715 223.596 22.6715 223.42 22.6075C223.26 22.5595 223.156 22.4795 223.108 22.3675C223.06 22.2555 223.132 22.1515 223.324 22.0555C224.508 21.4155 225.54 20.7035 226.42 19.9195C227.316 19.1355 228.036 18.4075 228.58 17.7355C229.14 17.0475 229.5 16.5435 229.66 16.2235C229.932 15.7275 230.108 15.3115 230.188 14.9755C230.284 14.6395 230.148 14.3195 229.78 14.0155C229.604 13.8715 229.564 13.7115 229.66 13.5355C229.82 13.1995 230.108 13.1195 230.524 13.2955C230.716 13.3915 230.916 13.5035 231.124 13.6315C231.332 13.7595 231.548 13.9115 231.772 14.0875C232.076 14.3435 232.188 14.5435 232.108 14.6875C231.98 14.9115 231.804 15.1995 231.58 15.5515C231.356 15.9035 231.132 16.2635 230.908 16.6315C231.356 16.9515 231.86 17.2715 232.42 17.5915C232.98 17.9115 233.54 18.2155 234.1 18.5035C234.66 18.7755 235.172 19.0155 235.636 19.2235C236.116 19.4155 236.492 19.5595 236.764 19.6555C236.908 19.7195 237.06 19.8635 237.22 20.0875C237.396 20.3115 237.54 20.5595 237.652 20.8315C237.764 21.1195 237.82 21.3675 237.82 21.5755C237.788 21.7675 237.66 21.9275 237.436 22.0555C237.212 22.1995 237.068 22.2395 237.004 22.1755C236.62 21.7595 236.14 21.3195 235.564 20.8555C234.988 20.4075 234.38 19.9595 233.74 19.5115C233.116 19.0635 232.508 18.6475 231.916 18.2635C231.34 17.8795 230.852 17.5595 230.452 17.3035C229.684 18.3595 228.724 19.3675 227.572 20.3275C226.436 21.2715 225.228 22.0315 223.948 22.6075ZM234.676 8.42353C234.58 8.39153 234.532 8.30353 234.532 8.15953C234.532 7.99953 234.548 7.83953 234.58 7.67953C234.692 7.23153 234.804 6.70353 234.916 6.09553C235.028 5.47153 235.132 4.84753 235.228 4.22353C235.34 3.59953 235.412 3.05553 235.444 2.59153C235.46 2.46353 235.428 2.39153 235.348 2.37553C235.284 2.34353 235.236 2.32753 235.204 2.32753C235.188 2.32753 235.18 2.32753 235.18 2.32753C234.988 2.32753 234.668 2.33553 234.22 2.35153C233.772 2.36753 233.284 2.39153 232.756 2.42353C232.228 2.43953 231.74 2.46353 231.292 2.49553C230.86 2.51153 230.548 2.52753 230.356 2.54353C229.892 2.57553 229.388 2.61553 228.844 2.66353C228.316 2.69553 227.812 2.73553 227.332 2.78353C226.852 2.81553 226.444 2.86353 226.108 2.92753C225.804 2.99153 225.596 3.00753 225.484 2.97553C225.388 2.92753 225.268 2.83953 225.124 2.71153C224.98 2.55153 224.844 2.39953 224.716 2.25553C224.588 2.09553 224.5 1.97553 224.452 1.89553C224.404 1.81553 224.42 1.71153 224.5 1.58353C224.58 1.43953 224.676 1.38353 224.788 1.41553C225.028 1.49553 225.364 1.55953 225.796 1.60753C226.228 1.63953 226.708 1.65553 227.236 1.65553C227.764 1.65553 228.276 1.65553 228.772 1.65553C229.284 1.63953 229.732 1.62353 230.116 1.60753C230.468 1.59153 230.9 1.57553 231.412 1.55953C231.924 1.52753 232.444 1.49553 232.972 1.46353C233.5 1.43153 233.988 1.39153 234.436 1.34353C234.884 1.27953 235.228 1.19953 235.468 1.10353C235.596 1.05553 235.724 1.05553 235.852 1.10353L237.292 1.60753C237.356 1.63953 237.404 1.69553 237.436 1.77553C237.468 1.85553 237.46 1.95153 237.412 2.06353C237.38 2.11153 237.308 2.26353 237.196 2.51953C237.1 2.75953 237.028 2.96753 236.98 3.14353C236.932 3.31953 236.86 3.59153 236.764 3.95953C236.668 4.31153 236.564 4.69553 236.452 5.11153C236.34 5.52753 236.228 5.92753 236.116 6.31153C236.004 6.67953 235.908 6.98353 235.828 7.22353C235.492 8.15153 235.108 8.55153 234.676 8.42353ZM243.867 21.8635C244.411 21.6395 244.827 21.2955 245.115 20.8315C245.403 20.3835 245.595 19.9035 245.691 19.3915C245.643 19.4075 245.563 19.4155 245.451 19.4155C245.099 19.4155 244.803 19.2955 244.563 19.0555C244.339 18.7995 244.227 18.4955 244.227 18.1435C244.227 17.7595 244.355 17.4635 244.611 17.2555C244.883 17.0315 245.187 16.9195 245.523 16.9195C245.939 16.9195 246.283 17.0875 246.555 17.4235C246.843 17.7435 246.987 18.1835 246.987 18.7435C246.987 19.2555 246.867 19.7995 246.627 20.3755C246.403 20.9515 246.099 21.4475 245.715 21.8635C245.347 22.2795 244.947 22.5115 244.515 22.5595C244.387 22.5595 244.283 22.4955 244.203 22.3675L243.867 21.8635ZM39.2437 46.6875C39.0677 46.7195 38.9397 46.6795 38.8597 46.5675C38.7797 46.4555 38.7317 46.2955 38.7157 46.0875C38.6517 45.3675 38.5877 44.6155 38.5237 43.8315C38.4597 43.0475 38.4037 42.3275 38.3557 41.6715C38.3077 41.0155 38.2597 40.5435 38.2117 40.2555C38.1157 39.6955 37.9877 39.2955 37.8277 39.0555C37.6837 38.7995 37.4037 38.5435 36.9877 38.2875C36.8757 38.1915 36.8437 38.0715 36.8917 37.9275C37.0677 37.5595 37.2997 37.4155 37.5877 37.4955C37.7637 37.5275 38.0037 37.5915 38.3077 37.6875C38.6117 37.7675 38.8757 37.8475 39.0997 37.9275C39.4197 37.9275 39.8357 37.9275 40.3477 37.9275C40.8757 37.9275 41.4197 37.9195 41.9797 37.9035C42.5557 37.8715 43.0757 37.8395 43.5397 37.8075C44.5477 37.7435 45.2357 37.6235 45.6037 37.4475C45.7317 37.3995 45.8597 37.3915 45.9877 37.4235C46.3557 37.5355 46.7637 37.6715 47.2117 37.8315C47.2757 37.8475 47.3317 37.8875 47.3797 37.9515C47.4277 37.9995 47.4357 38.0795 47.4037 38.1915C47.3397 38.3675 47.2597 38.6795 47.1637 39.1275C47.0837 39.5755 47.0037 40.1115 46.9237 40.7355C46.8437 41.2155 46.7637 41.8235 46.6837 42.5595C46.6197 43.2795 46.5477 43.9515 46.4677 44.5755C46.5477 44.6395 46.6837 44.7595 46.8757 44.9355C47.0677 45.0955 47.1637 45.2235 47.1637 45.3195C47.1637 45.4475 47.1077 45.5595 46.9957 45.6555C46.8837 45.7515 46.8037 45.7915 46.7557 45.7755C46.5797 45.7595 46.2677 45.7515 45.8197 45.7515C45.3877 45.7355 44.8837 45.7355 44.3077 45.7515C43.7477 45.7515 43.1717 45.7595 42.5797 45.7755C42.0037 45.7915 41.4677 45.8075 40.9717 45.8235C40.4917 45.8395 40.1157 45.8555 39.8437 45.8715C39.8117 46.1275 39.7317 46.3195 39.6037 46.4475C39.4917 46.5755 39.3717 46.6555 39.2437 46.6875ZM39.8197 44.9115C40.0437 44.9275 40.4037 44.9355 40.8997 44.9355C41.3957 44.9195 41.9397 44.9035 42.5317 44.8875C43.1237 44.8555 43.6837 44.8235 44.2117 44.7915C44.7397 44.7595 45.1317 44.7195 45.3877 44.6715C45.4517 43.2795 45.4997 42.1435 45.5317 41.2635C45.5797 40.3835 45.6117 39.5995 45.6277 38.9115C45.6277 38.7995 45.6117 38.7355 45.5797 38.7195C45.5477 38.6875 45.5157 38.6715 45.4837 38.6715C45.0517 38.6715 44.4757 38.6875 43.7557 38.7195C43.0357 38.7355 42.2917 38.7595 41.5237 38.7915C40.7717 38.8075 40.1077 38.8315 39.5317 38.8635L39.8197 44.9115ZM51.9637 48.1035C51.8197 48.1035 51.7317 48.0235 51.6997 47.8635C51.6677 47.7035 51.6357 47.4635 51.6037 47.1435C51.5877 46.8235 51.5797 46.4955 51.5797 46.1595C51.5797 45.8075 51.5797 45.5275 51.5797 45.3195V38.1195C51.5797 37.6395 51.5557 37.2635 51.5077 36.9915C51.4757 36.7195 51.3717 36.4875 51.1957 36.2955C51.0357 36.1035 50.7637 35.8955 50.3797 35.6715C50.2197 35.5595 50.1797 35.4155 50.2597 35.2395C50.4037 34.9995 50.5957 34.8795 50.8357 34.8795C51.0757 34.8795 51.3957 34.9675 51.7957 35.1435C52.1957 35.3195 52.5237 35.4875 52.7797 35.6475C52.8597 35.6955 52.9317 35.7595 52.9957 35.8395C53.0597 35.9195 53.0837 36.0075 53.0677 36.1035C53.0197 36.3755 52.9877 36.6475 52.9717 36.9195C52.9557 37.1915 52.9477 37.4955 52.9477 37.8315V42.0315C53.7637 42.0315 54.4437 41.9755 54.9877 41.8635C55.5317 41.7355 55.9397 41.6315 56.2117 41.5515C56.3877 41.4875 56.5157 41.4795 56.5957 41.5275C56.6757 41.5755 56.7477 41.6555 56.8117 41.7675C56.8757 41.8635 56.9477 42.0235 57.0277 42.2475C57.1077 42.4555 57.1477 42.6075 57.1477 42.7035C57.1477 42.7995 57.0917 42.8875 56.9797 42.9675C56.8837 43.0475 56.8117 43.0875 56.7637 43.0875C56.1237 43.0235 55.4917 42.9835 54.8677 42.9675C54.2597 42.9355 53.6197 42.9195 52.9477 42.9195V45.1515C52.9477 45.3915 52.9317 45.6795 52.8997 46.0155C52.8837 46.3355 52.8357 46.6555 52.7557 46.9755C52.6917 47.2955 52.5957 47.5675 52.4677 47.7915C52.3397 47.9995 52.1717 48.1035 51.9637 48.1035ZM51.9157 57.5835C51.7877 57.6155 51.6997 57.5915 51.6517 57.5115C51.6037 57.4475 51.5717 57.3835 51.5557 57.3195C51.4917 57.0315 51.4517 56.7115 51.4357 56.3595C51.4357 56.0235 51.4357 55.6955 51.4357 55.3755V50.9115C51.4357 50.6875 51.3797 50.5755 51.2677 50.5755C51.1717 50.5755 50.9477 50.5835 50.5957 50.5995C50.2597 50.6155 49.8597 50.6395 49.3957 50.6715C48.9477 50.6875 48.4837 50.7115 48.0037 50.7435C47.5397 50.7755 47.1397 50.8075 46.8037 50.8395C45.7477 50.9195 44.8597 50.9915 44.1397 51.0555C43.4197 51.1195 42.8197 51.1915 42.3397 51.2715C42.0517 51.3355 41.7957 51.2955 41.5717 51.1515C41.4437 51.0715 41.2757 50.9435 41.0677 50.7675C40.8757 50.5755 40.7637 50.4395 40.7317 50.3595C40.6997 50.2635 40.7317 50.1435 40.8277 49.9995C40.9237 49.8555 41.0277 49.7995 41.1397 49.8315C41.5077 49.9275 42.1317 49.9915 43.0117 50.0235C43.8917 50.0555 44.9637 50.0395 46.2277 49.9755C46.9957 49.9435 47.7237 49.9035 48.4117 49.8555C49.0997 49.7915 49.6917 49.7195 50.1877 49.6395C50.6997 49.5595 51.0437 49.4795 51.2197 49.3995C51.3317 49.3515 51.4517 49.3355 51.5797 49.3515C51.8037 49.3995 52.0277 49.4395 52.2517 49.4715C52.4917 49.5035 52.6997 49.5355 52.8757 49.5675C53.0357 49.5835 53.0917 49.7035 53.0437 49.9275C53.0277 50.0235 53.0037 50.1915 52.9717 50.4315C52.9557 50.6555 52.9397 50.8875 52.9237 51.1275C52.9077 51.3675 52.8997 51.5675 52.8997 51.7275L52.8517 55.0155C52.8517 55.3195 52.8197 55.6555 52.7557 56.0235C52.6917 56.4075 52.5957 56.7435 52.4677 57.0315C52.3397 57.3355 52.1557 57.5195 51.9157 57.5835ZM67.0339 56.9115C66.3299 56.9275 65.8019 56.7755 65.4498 56.4555C65.1138 56.1515 64.9458 55.6395 64.9458 54.9195V53.6475C64.9458 53.4555 64.8978 53.3275 64.8018 53.2635C64.6738 53.1835 64.5058 53.0715 64.2978 52.9275C64.1058 52.7675 63.9698 52.6475 63.8898 52.5675C63.8258 52.5035 63.8418 52.3915 63.9378 52.2315C64.0338 52.0555 64.1298 51.9755 64.2258 51.9915C64.7858 52.1195 65.4418 52.1915 66.1939 52.2075C66.4659 52.2235 66.8498 52.2315 67.3458 52.2315C67.8578 52.2155 68.4258 52.1995 69.0498 52.1835C69.6899 52.1515 70.3219 52.1275 70.9458 52.1115C71.5699 52.0795 72.1379 52.0475 72.6499 52.0155C73.1779 51.9675 73.5779 51.9275 73.8498 51.8955C73.8659 51.7995 73.8899 51.6075 73.9219 51.3195C73.9539 51.0155 73.9859 50.6955 74.0179 50.3595C74.0498 50.0075 74.0658 49.7195 74.0658 49.4955C74.0658 49.3835 74.0419 49.3195 73.9939 49.3035C73.9619 49.2875 73.9299 49.2795 73.8979 49.2795L68.1379 49.5435C67.5299 49.5755 67.0338 49.6075 66.6499 49.6395C66.2658 49.6715 65.9138 49.7195 65.5939 49.7835C65.4179 49.8155 65.2738 49.8315 65.1618 49.8315C65.0498 49.8155 64.9298 49.7675 64.8018 49.6875C64.6738 49.6075 64.5218 49.4955 64.3458 49.3515C64.1698 49.1915 64.0658 49.0715 64.0339 48.9915C64.0178 48.9115 64.0578 48.8075 64.1539 48.6795C64.2498 48.5355 64.3538 48.4795 64.4658 48.5115C64.6418 48.5595 64.9138 48.5995 65.2818 48.6315C65.6498 48.6635 66.0498 48.6875 66.4819 48.7035C66.9299 48.7035 67.3379 48.6955 67.7059 48.6795C68.1539 48.6635 68.6819 48.6475 69.2899 48.6315C69.9139 48.5995 70.5379 48.5675 71.1618 48.5355C71.7859 48.5035 72.3459 48.4635 72.8418 48.4155C73.3538 48.3515 73.7299 48.2795 73.9699 48.1995C73.9699 48.1995 73.9779 48.1995 73.9939 48.1995C74.0419 48.1675 74.0898 48.1515 74.1379 48.1515C74.2019 48.1355 74.2739 48.1355 74.3539 48.1515L75.4579 48.4875C75.6339 48.5515 75.6818 48.6715 75.6019 48.8475C75.5699 48.9275 75.5139 49.0955 75.4339 49.3515C75.3699 49.5915 75.2979 49.8715 75.2179 50.1915C75.1379 50.5115 75.0579 50.8155 74.9779 51.1035C74.9139 51.3915 74.8659 51.6075 74.8338 51.7515C74.9619 51.8155 75.1219 51.9115 75.3139 52.0395C75.5219 52.1515 75.6259 52.2555 75.6259 52.3515C75.6259 52.4795 75.5619 52.6155 75.4339 52.7595C75.3219 52.9035 75.2419 52.9675 75.1939 52.9515C75.0019 52.9355 74.6419 52.9275 74.1139 52.9275C73.5859 52.9115 72.9619 52.9115 72.2419 52.9275C71.5378 52.9275 70.8018 52.9435 70.0339 52.9755C69.2819 52.9915 68.5779 53.0155 67.9219 53.0475C67.2659 53.0795 66.7299 53.1115 66.3139 53.1435V54.7755C66.3139 55.3035 66.3779 55.6315 66.5058 55.7595C66.6498 55.8875 66.8819 55.9515 67.2019 55.9515C67.2499 55.9515 67.3538 55.9515 67.5138 55.9515C67.8338 55.9515 68.2578 55.9515 68.7858 55.9515C69.3298 55.9515 69.9139 55.9435 70.5379 55.9275C71.1779 55.9115 71.8018 55.8875 72.4098 55.8555C73.2419 55.8075 73.9139 55.7435 74.4259 55.6635C74.9379 55.5835 75.3779 55.4795 75.7459 55.3515C75.9379 55.2715 76.0819 55.2475 76.1778 55.2795C76.2739 55.3115 76.3779 55.3835 76.4899 55.4955C76.5859 55.5915 76.6819 55.7115 76.7779 55.8555C76.8739 56.0155 76.9299 56.1435 76.9458 56.2395C76.9619 56.3355 76.9059 56.4475 76.7779 56.5755C76.6499 56.7035 76.5619 56.7675 76.5139 56.7675C75.6819 56.7355 74.9699 56.7195 74.3779 56.7195C73.7859 56.7355 73.0979 56.7595 72.3139 56.7915C71.4979 56.8235 70.6099 56.8475 69.6499 56.8635C68.6899 56.8795 67.8179 56.8955 67.0339 56.9115ZM59.7618 48.7035C59.5698 48.7995 59.3618 48.8235 59.1378 48.7755C58.9138 48.7275 58.7698 48.6395 58.7058 48.5115C58.6418 48.3675 58.7218 48.2315 58.9458 48.1035C59.4898 47.8155 60.0978 47.4315 60.7698 46.9515C61.4418 46.4715 62.1298 45.9195 62.8338 45.2955C63.5378 44.6555 64.2018 43.9755 64.8259 43.2555C65.4499 42.5355 65.9938 41.7995 66.4578 41.0475C66.9218 40.2795 67.2579 39.5275 67.4659 38.7915C67.5139 38.6475 67.5059 38.5675 67.4418 38.5515C67.3778 38.5195 67.3298 38.5035 67.2979 38.5035C67.2819 38.5035 67.2738 38.5035 67.2738 38.5035C66.9058 38.5035 66.4339 38.5275 65.8579 38.5755C65.2978 38.6075 64.8338 38.6395 64.4658 38.6715C63.7778 38.7355 63.2258 38.7915 62.8098 38.8395C62.4098 38.8875 61.9698 38.9515 61.4898 39.0315C60.9938 39.1115 60.6258 39.0555 60.3858 38.8635C60.0178 38.5595 59.7778 38.3035 59.6658 38.0955C59.6338 38.0155 59.6498 37.9115 59.7138 37.7835C59.7938 37.6395 59.8898 37.5835 60.0018 37.6155C60.4658 37.6955 61.0338 37.7595 61.7058 37.8075C62.3938 37.8395 63.1138 37.8315 63.8659 37.7835C64.4898 37.7515 65.1458 37.6955 65.8338 37.6155C66.5378 37.5355 67.0978 37.4075 67.5138 37.2315C67.6418 37.1835 67.7699 37.1835 67.8978 37.2315L69.2419 37.7355C69.3059 37.7675 69.3538 37.8155 69.3858 37.8795C69.4339 37.9275 69.4339 38.0075 69.3858 38.1195L68.5939 39.7995C68.0819 40.8715 67.4499 41.8795 66.6979 42.8235C65.9458 43.7675 65.1538 44.6235 64.3219 45.3915C63.4899 46.1595 62.6738 46.8235 61.8738 47.3835C61.0738 47.9435 60.3698 48.3835 59.7618 48.7035ZM74.5459 47.1195C74.4019 47.1195 74.3139 47.0395 74.2818 46.8795C74.2499 46.7195 74.2179 46.4875 74.1859 46.1835C74.1699 45.8635 74.1618 45.5355 74.1618 45.1995C74.1618 44.8635 74.1618 44.5915 74.1618 44.3835V42.5355L73.4179 42.5595C72.5539 42.5915 71.8979 42.6475 71.4499 42.7275C71.0179 42.8075 70.5939 42.8955 70.1778 42.9915C70.0019 43.0235 69.8579 43.0395 69.7458 43.0395C69.6498 43.0235 69.5379 42.9755 69.4099 42.8955C69.2979 42.8155 69.1299 42.6875 68.9059 42.5115C68.6819 42.3195 68.5539 42.1835 68.5219 42.1035C68.4899 42.0235 68.5139 41.9275 68.5939 41.8155C68.6899 41.6875 68.7939 41.6395 68.9059 41.6715C69.1779 41.7195 69.6659 41.7595 70.3699 41.7915C71.0739 41.8075 71.9539 41.7835 73.0099 41.7195L74.1618 41.6475V38.1195C74.1618 37.6395 74.1379 37.2635 74.0899 36.9915C74.0579 36.7195 73.9539 36.4875 73.7779 36.2955C73.6179 36.1035 73.3459 35.8955 72.9618 35.6715C72.8018 35.5595 72.7618 35.4155 72.8418 35.2395C72.9858 34.9995 73.1779 34.8795 73.4179 34.8795C73.6579 34.8795 73.9779 34.9675 74.3779 35.1435C74.7779 35.3195 75.1059 35.4875 75.3619 35.6475C75.4419 35.6955 75.5139 35.7595 75.5779 35.8395C75.6419 35.9195 75.6659 36.0075 75.6499 36.1035C75.6019 36.3755 75.5699 36.6475 75.5539 36.9195C75.5379 37.1915 75.5299 37.4955 75.5299 37.8315V44.2155C75.5299 44.5355 75.5059 44.9275 75.4579 45.3915C75.4099 45.8395 75.3138 46.2395 75.1698 46.5915C75.0258 46.9435 74.8179 47.1195 74.5459 47.1195ZM82.9007 50.6715C82.5487 50.6875 82.2687 50.5275 82.0607 50.1915C81.8527 49.8395 81.7487 49.4315 81.7487 48.9675V44.8875C81.7487 44.7275 81.7247 44.6155 81.6767 44.5515C81.6447 44.4715 81.5647 44.3915 81.4367 44.3115C81.2767 44.2315 81.0847 44.1275 80.8607 43.9995C80.6367 43.8715 80.5007 43.7675 80.4527 43.6875C80.4047 43.6075 80.4207 43.4795 80.5007 43.3035C80.5807 43.1275 80.6687 43.0475 80.7647 43.0635C81.0367 43.0955 81.3247 43.1275 81.6287 43.1595C81.9487 43.1915 82.2687 43.2155 82.5887 43.2315C82.9087 43.2475 83.3087 43.2555 83.7887 43.2555C84.2847 43.2395 84.8047 43.2155 85.3487 43.1835C85.8927 43.1515 86.4047 43.1115 86.8847 43.0635C87.3647 43.0155 87.7487 42.9675 88.0367 42.9195C88.0527 42.8075 88.0847 42.5835 88.1327 42.2475C88.1807 41.8955 88.2287 41.5035 88.2767 41.0715C88.3247 40.6395 88.3727 40.2315 88.4207 39.8475C88.4687 39.4635 88.5007 39.1835 88.5167 39.0075C88.5327 38.8795 88.5167 38.8075 88.4687 38.7915C88.4367 38.7595 88.4047 38.7435 88.3727 38.7435C88.3567 38.7435 88.3247 38.7435 88.2767 38.7435C88.0847 38.7435 87.7247 38.7515 87.1967 38.7675C86.6847 38.7675 86.0047 38.8075 85.1567 38.8875C84.7407 38.9195 84.3967 38.9515 84.1247 38.9835C83.8687 38.9995 83.6207 39.0235 83.3807 39.0555C83.1407 39.0715 82.8607 39.1115 82.5407 39.1755C82.2367 39.2395 82.0287 39.2555 81.9167 39.2235C81.8207 39.1915 81.7007 39.1115 81.5567 38.9835C81.3967 38.8555 81.2687 38.7355 81.1727 38.6235C81.0767 38.4955 80.9967 38.3755 80.9327 38.2635C80.8847 38.1835 80.9007 38.0875 80.9807 37.9755C81.0607 37.8475 81.1567 37.7915 81.2687 37.8075C81.5407 37.8395 81.8367 37.8715 82.1567 37.9035C82.4927 37.9195 82.8207 37.9355 83.1407 37.9515C83.4927 37.9675 83.9247 37.9755 84.4367 37.9755C84.9487 37.9595 85.4607 37.9355 85.9727 37.9035C86.5007 37.8715 86.9567 37.8395 87.3407 37.8075C87.6127 37.7755 87.8607 37.7275 88.0847 37.6635C88.3247 37.5835 88.4847 37.5195 88.5647 37.4715C88.6927 37.3915 88.8367 37.3915 88.9967 37.4715L90.1007 37.9275C90.2607 37.9915 90.3087 38.1195 90.2447 38.3115C90.2127 38.3915 90.1407 38.5755 90.0287 38.8635C89.9327 39.1515 89.8447 39.4795 89.7647 39.8475L89.1167 42.7275C89.2447 42.8075 89.4047 42.9355 89.5967 43.1115C89.7887 43.2715 89.8847 43.3915 89.8847 43.4715C89.8847 43.5995 89.8207 43.7195 89.6927 43.8315C89.5807 43.9435 89.5007 43.9995 89.4527 43.9995C89.2767 43.9835 88.9327 43.9835 88.4207 43.9995C87.9087 43.9995 87.3247 44.0155 86.6687 44.0475C86.0127 44.0795 85.3647 44.1115 84.7247 44.1435C84.0847 44.1755 83.5487 44.2075 83.1167 44.2395V48.7035C83.1167 48.9115 83.1567 49.0715 83.2367 49.1835C83.3327 49.2955 83.5407 49.3435 83.8607 49.3275C84.7407 49.3115 85.6607 49.2315 86.6207 49.0875C87.5807 48.9435 88.5007 48.7755 89.3807 48.5835C90.2767 48.3755 91.0607 48.1675 91.7327 47.9595C92.4047 47.7355 92.8927 47.5435 93.1967 47.3835C93.5167 47.2555 93.6927 47.2955 93.7247 47.5035C93.7727 47.7115 93.6687 47.9115 93.4127 48.1035C93.1887 48.2475 92.7887 48.4315 92.2127 48.6555C91.6367 48.8635 90.9487 49.0875 90.1487 49.3275C89.3647 49.5675 88.5327 49.7915 87.6527 49.9995C86.7887 50.1915 85.9407 50.3515 85.1087 50.4795C84.2767 50.6075 83.5407 50.6715 82.9007 50.6715ZM95.0687 56.0475C94.8927 56.0475 94.7967 55.9675 94.7807 55.8075C94.7647 55.6795 94.7407 55.4475 94.7087 55.1115C94.6927 54.7595 94.6767 54.3835 94.6607 53.9835C94.6447 53.5675 94.6367 53.2075 94.6367 52.9035V38.1915C94.6367 37.6955 94.6127 37.3115 94.5647 37.0395C94.5327 36.7675 94.4287 36.5435 94.2527 36.3675C94.0927 36.1755 93.8047 35.9755 93.3887 35.7675C93.2607 35.6875 93.1967 35.6075 93.1967 35.5275C93.1967 35.4475 93.2527 35.3435 93.3647 35.2155C93.4767 35.0715 93.5967 34.9995 93.7247 34.9995C93.9167 34.9995 94.1567 35.0475 94.4447 35.1435C94.7327 35.2395 95.0127 35.3515 95.2847 35.4795C95.5567 35.5915 95.7567 35.6955 95.8847 35.7915C96.0767 35.9355 96.1647 36.0955 96.1487 36.2715C96.1007 36.6075 96.0607 36.9195 96.0287 37.2075C96.0127 37.4955 96.0047 37.8315 96.0047 38.2155V52.8555C96.0047 53.1115 95.9887 53.4235 95.9567 53.7915C95.9407 54.1435 95.9007 54.4955 95.8367 54.8475C95.7727 55.1835 95.6767 55.4635 95.5487 55.6875C95.4367 55.9275 95.2767 56.0475 95.0687 56.0475ZM113.035 55.2075C112.907 55.2555 112.811 55.2555 112.747 55.2075C112.699 55.1435 112.667 55.0875 112.651 55.0395C112.619 54.9115 112.587 54.6715 112.555 54.3195C112.523 53.9675 112.499 53.5835 112.483 53.1675C112.483 52.7515 112.483 52.3835 112.483 52.0635V47.2635L111.571 47.2875C111.075 47.3195 110.611 47.3595 110.179 47.4075C109.763 47.4395 109.315 47.5115 108.835 47.6235C108.659 47.6555 108.515 47.6715 108.403 47.6715C108.307 47.6555 108.195 47.6075 108.067 47.5275C107.939 47.4475 107.771 47.3355 107.563 47.1915C107.355 47.0315 107.235 46.9115 107.203 46.8315C107.171 46.7355 107.195 46.6395 107.275 46.5435C107.355 46.4315 107.451 46.3835 107.563 46.3995C108.011 46.4635 108.531 46.5035 109.123 46.5195C109.715 46.5355 110.499 46.5115 111.475 46.4475C111.667 46.4315 111.843 46.4235 112.003 46.4235C112.163 46.4075 112.323 46.3835 112.483 46.3515V42.5595H112.291C111.843 42.5915 111.499 42.6235 111.259 42.6555C111.019 42.6715 110.691 42.7275 110.275 42.8235C110.099 42.8555 109.955 42.8795 109.843 42.8955C109.747 42.8955 109.635 42.8635 109.507 42.7995C109.379 42.7515 109.219 42.6715 109.027 42.5595C108.835 42.4315 108.691 42.3195 108.595 42.2235C108.147 43.2635 107.563 44.3275 106.843 45.4155C106.139 46.4875 105.307 47.5195 104.347 48.5115C103.403 49.4875 102.347 50.3595 101.179 51.1275C100.987 51.2555 100.795 51.3115 100.603 51.2955C100.411 51.2795 100.283 51.2155 100.219 51.1035C100.171 50.9915 100.267 50.8475 100.507 50.6715C101.595 49.8715 102.643 48.8955 103.651 47.7435C104.659 46.5755 105.539 45.3035 106.291 43.9275C107.043 42.5515 107.563 41.1435 107.851 39.7035C107.883 39.5435 107.875 39.4555 107.827 39.4395C107.779 39.4075 107.731 39.3915 107.683 39.3915C107.667 39.3915 107.659 39.3915 107.659 39.3915C107.291 39.3915 106.939 39.4075 106.603 39.4395C106.283 39.4555 105.931 39.4795 105.547 39.5115C105.099 39.5435 104.723 39.5835 104.419 39.6315C104.131 39.6635 103.859 39.7035 103.603 39.7515C103.347 39.7835 103.051 39.8315 102.715 39.8955C102.459 39.9595 102.283 39.9755 102.187 39.9435C102.107 39.9115 102.011 39.8475 101.899 39.7515C101.883 39.7355 101.867 39.7275 101.851 39.7275C101.707 39.5835 101.555 39.4315 101.395 39.2715C101.251 39.1115 101.155 38.9915 101.107 38.9115C101.059 38.8315 101.075 38.7355 101.155 38.6235C101.251 38.4955 101.355 38.4475 101.467 38.4795C101.803 38.5435 102.275 38.5915 102.883 38.6235C103.507 38.6555 104.131 38.6555 104.755 38.6235C105.475 38.5915 106.051 38.5515 106.483 38.5035C106.931 38.4395 107.363 38.3355 107.779 38.1915C107.875 38.1275 107.995 38.1275 108.139 38.1915L109.651 38.6955C109.715 38.7275 109.763 38.7755 109.795 38.8395C109.843 38.9035 109.843 38.9915 109.795 39.1035C109.651 39.4555 109.507 39.8155 109.363 40.1835C109.235 40.5515 109.107 40.9115 108.979 41.2635L108.811 41.6955C109.179 41.7595 109.603 41.7995 110.083 41.8155C110.579 41.8155 111.267 41.7835 112.147 41.7195H112.483V39.5355C112.483 39.4715 112.483 39.4155 112.483 39.3675C112.483 39.3195 112.483 39.2635 112.483 39.1995C112.483 38.5755 112.443 38.0795 112.363 37.7115C112.283 37.3275 111.995 36.9835 111.499 36.6795C111.307 36.5515 111.267 36.4075 111.379 36.2475C111.475 36.0875 111.571 35.9835 111.667 35.9355C111.779 35.8875 111.899 35.8715 112.027 35.8875C112.315 35.9195 112.627 36.0475 112.963 36.2715C113.315 36.4795 113.539 36.6315 113.635 36.7275C113.715 36.8075 113.779 36.8875 113.827 36.9675C113.891 37.0315 113.915 37.1035 113.899 37.1835C113.851 37.4875 113.819 37.8235 113.803 38.1915C113.803 38.5435 113.803 38.8875 113.803 39.2235C113.803 39.2875 113.803 39.3515 113.803 39.4155C113.803 39.4635 113.803 39.5115 113.803 39.5595V52.0155C113.803 52.3515 113.787 52.7595 113.755 53.2395C113.723 53.7195 113.651 54.1515 113.539 54.5355C113.427 54.9195 113.259 55.1435 113.035 55.2075ZM116.803 56.0235C116.675 56.0715 116.579 56.0635 116.515 55.9995C116.467 55.9515 116.435 55.9035 116.419 55.8555C116.387 55.7275 116.355 55.4875 116.323 55.1355C116.291 54.7835 116.267 54.3995 116.251 53.9835C116.251 53.5675 116.251 53.1995 116.251 52.8795V38.2155C116.251 38.1835 116.251 38.1275 116.251 38.0475C116.251 37.5995 116.235 37.2475 116.203 36.9915C116.171 36.7355 116.075 36.5195 115.915 36.3435C115.771 36.1515 115.515 35.9435 115.147 35.7195C114.987 35.6075 114.947 35.4635 115.027 35.2875C115.203 34.9995 115.427 34.8795 115.699 34.9275C115.987 34.9755 116.299 35.0955 116.635 35.2875C116.987 35.4635 117.251 35.6235 117.427 35.7675C117.443 35.7835 117.459 35.7995 117.475 35.8155C117.555 35.8795 117.619 35.9515 117.667 36.0315C117.715 36.0955 117.731 36.1675 117.715 36.2475C117.667 36.5835 117.627 36.9035 117.595 37.2075C117.579 37.5115 117.571 37.8555 117.571 38.2395V52.8315C117.571 53.1675 117.555 53.5755 117.523 54.0555C117.491 54.5355 117.419 54.9675 117.307 55.3515C117.195 55.7355 117.027 55.9595 116.803 56.0235ZM126.341 47.6475C126.165 47.6635 126.037 47.5995 125.957 47.4555C125.877 47.3115 125.837 47.1195 125.837 46.8795L125.717 40.9275C125.717 40.3675 125.693 39.9195 125.645 39.5835C125.597 39.2315 125.501 38.9355 125.357 38.6955C125.213 38.4395 124.981 38.1995 124.661 37.9755C124.485 37.8635 124.453 37.7195 124.565 37.5435C124.741 37.2555 124.981 37.1515 125.285 37.2315C125.509 37.2955 125.765 37.4075 126.053 37.5675C126.357 37.7275 126.605 37.8955 126.797 38.0715C127.021 38.2795 127.125 38.4555 127.109 38.5995C127.077 38.8235 127.053 39.1275 127.037 39.5115C127.021 39.8795 127.013 40.2235 127.013 40.5435C127.493 40.5435 128.117 40.5355 128.885 40.5195C129.669 40.5035 130.493 40.4875 131.357 40.4715C132.237 40.4395 133.069 40.4075 133.853 40.3755C134.653 40.3435 135.317 40.3035 135.845 40.2555V39.5835C135.845 38.8635 135.789 38.2955 135.677 37.8795C135.565 37.4635 135.261 37.0875 134.765 36.7515C134.605 36.6395 134.581 36.5035 134.693 36.3435C134.917 36.0715 135.149 35.9675 135.389 36.0315C135.613 36.0795 135.893 36.1995 136.229 36.3915C136.581 36.5675 136.853 36.7435 137.045 36.9195C137.269 37.1435 137.373 37.2955 137.357 37.3755C137.325 37.6155 137.285 37.9435 137.237 38.3595C137.205 38.7595 137.189 39.1275 137.189 39.4635V45.4395C137.189 45.9035 137.125 46.3115 136.997 46.6635C136.869 47.0155 136.661 47.2075 136.373 47.2395C136.197 47.2715 136.069 47.2075 135.989 47.0475C135.925 46.8715 135.877 46.6715 135.845 46.4475C135.317 46.4475 134.661 46.4555 133.877 46.4715C133.109 46.4715 132.293 46.4795 131.429 46.4955C130.581 46.4955 129.765 46.5035 128.981 46.5195C128.213 46.5355 127.565 46.5595 127.037 46.5915C127.005 46.8955 126.917 47.1435 126.773 47.3355C126.629 47.5275 126.485 47.6315 126.341 47.6475ZM127.037 45.6315C127.565 45.6475 128.213 45.6555 128.981 45.6555C129.765 45.6395 130.581 45.6235 131.429 45.6075C132.293 45.5755 133.109 45.5435 133.877 45.5115C134.661 45.4635 135.317 45.4155 135.845 45.3675V41.3115C135.317 41.3115 134.661 41.3195 133.877 41.3355C133.109 41.3355 132.293 41.3435 131.429 41.3595C130.581 41.3755 129.765 41.3995 128.981 41.4315C128.197 41.4475 127.541 41.4715 127.013 41.5035L127.037 45.6315ZM123.389 53.2875C123.101 53.3515 122.909 53.3755 122.813 53.3595C122.717 53.3275 122.589 53.2555 122.429 53.1435C122.333 53.0795 122.205 52.9755 122.045 52.8315C121.885 52.6875 121.741 52.5515 121.613 52.4235C121.485 52.2795 121.405 52.1755 121.373 52.1115C121.325 52.0315 121.349 51.9195 121.445 51.7755C121.557 51.6315 121.669 51.5755 121.781 51.6075C122.293 51.7195 122.861 51.8075 123.485 51.8715C124.125 51.9195 124.869 51.9355 125.717 51.9195C125.877 51.9195 126.037 51.9195 126.197 51.9195C126.373 51.9195 126.541 51.9195 126.701 51.9195C127.389 51.9195 128.077 51.9195 128.765 51.9195C129.469 51.9195 130.189 51.9035 130.925 51.8715L130.949 50.2635C130.965 49.7835 130.933 49.3675 130.853 49.0155C130.773 48.6635 130.533 48.3755 130.133 48.1515C130.021 48.0875 129.965 48.0235 129.965 47.9595C129.981 47.8955 130.013 47.8155 130.061 47.7195C130.205 47.4475 130.429 47.3435 130.733 47.4075C131.165 47.5195 131.613 47.7355 132.077 48.0555C132.301 48.2155 132.397 48.3675 132.365 48.5115C132.301 48.7515 132.253 48.9995 132.221 49.2555C132.205 49.4955 132.189 49.7835 132.173 50.1195C132.157 50.4075 132.141 50.6955 132.125 50.9835C132.109 51.2715 132.101 51.5595 132.101 51.8475C132.693 51.8315 133.285 51.8235 133.877 51.8235C134.469 51.8075 135.069 51.7835 135.677 51.7515C136.717 51.7195 137.669 51.6475 138.533 51.5355C139.397 51.4235 140.005 51.3035 140.357 51.1755C140.533 51.1275 140.669 51.1275 140.765 51.1755C140.861 51.2075 140.957 51.2875 141.053 51.4155C141.149 51.5435 141.245 51.7115 141.341 51.9195C141.453 52.1115 141.509 52.2715 141.509 52.3995C141.509 52.5115 141.453 52.6075 141.341 52.6875C141.229 52.7675 141.141 52.8075 141.077 52.8075C140.341 52.7435 139.509 52.7115 138.581 52.7115C137.669 52.6955 136.837 52.6875 136.085 52.6875C135.125 52.7035 134.085 52.7275 132.965 52.7595C131.845 52.7755 130.741 52.7915 129.653 52.8075C128.581 52.8235 127.605 52.8555 126.725 52.9035C126.021 52.9355 125.405 52.9835 124.877 53.0475C124.349 53.1115 123.853 53.1915 123.389 53.2875ZM148.79 45.8715C147.894 45.8875 147.078 45.7195 146.342 45.3675C145.606 45.0155 145.014 44.5115 144.566 43.8555C144.134 43.1995 143.918 42.4395 143.918 41.5755C143.918 40.7435 144.134 39.9995 144.566 39.3435C145.014 38.6715 145.606 38.1355 146.342 37.7355C147.094 37.3195 147.918 37.1035 148.814 37.0875C149.71 37.0555 150.526 37.2075 151.262 37.5435C151.998 37.8795 152.59 38.3755 153.038 39.0315C153.486 39.6715 153.71 40.4555 153.71 41.3835C153.71 42.2315 153.486 42.9915 153.038 43.6635C152.59 44.3195 151.99 44.8475 151.238 45.2475C150.502 45.6315 149.686 45.8395 148.79 45.8715ZM149.99 57.5355C149.686 57.5995 149.51 57.4795 149.462 57.1755C149.414 56.8715 149.39 56.5035 149.39 56.0715C149.39 56.0235 149.39 55.9915 149.39 55.9755V52.1355C149.39 52.1035 149.39 52.0475 149.39 51.9675C149.39 51.5355 149.35 51.1115 149.27 50.6955C149.206 50.2795 148.958 49.9355 148.526 49.6635C148.35 49.5675 148.318 49.4235 148.43 49.2315C148.574 48.9595 148.798 48.8555 149.102 48.9195C149.326 48.9835 149.574 49.0875 149.846 49.2315C150.118 49.3595 150.334 49.4875 150.494 49.6155C150.734 49.8075 150.838 49.9675 150.806 50.0955C150.774 50.2555 150.75 50.4555 150.734 50.6955C150.734 50.9355 150.734 51.1755 150.734 51.4155C150.734 51.4795 150.734 51.5355 150.734 51.5835C150.734 51.6315 150.734 51.6795 150.734 51.7275C150.798 51.7275 150.862 51.7275 150.926 51.7275C150.99 51.7275 151.07 51.7275 151.166 51.7275C151.598 51.7275 152.166 51.7275 152.87 51.7275C153.574 51.7275 154.302 51.7275 155.054 51.7275C155.822 51.7115 156.526 51.6955 157.166 51.6795C157.822 51.6475 158.31 51.6075 158.63 51.5595V51.1035C158.63 51.0875 158.63 51.0635 158.63 51.0315C158.63 50.5035 158.59 50.0715 158.51 49.7355C158.446 49.3995 158.198 49.1115 157.766 48.8715C157.59 48.7595 157.558 48.5995 157.67 48.3915C157.846 48.1195 158.102 48.0315 158.438 48.1275C158.662 48.1915 158.886 48.2795 159.11 48.3915C159.35 48.5035 159.582 48.6315 159.806 48.7755C160.03 48.9515 160.134 49.1115 160.118 49.2555C160.07 49.5595 160.038 49.8955 160.022 50.2635C160.006 50.6155 159.998 50.9755 159.998 51.3435V55.6635C159.966 56.1275 159.894 56.5275 159.782 56.8635C159.67 57.2155 159.43 57.3995 159.062 57.4155C158.918 57.4155 158.814 57.3275 158.75 57.1515C158.702 56.9915 158.662 56.8075 158.63 56.5995C158.55 56.5995 158.446 56.5995 158.318 56.5995C158.206 56.5995 158.078 56.5995 157.934 56.5995C157.502 56.5995 156.966 56.5995 156.326 56.5995C155.702 56.5995 155.038 56.5995 154.334 56.5995C153.646 56.5995 152.974 56.5995 152.318 56.5995C151.678 56.6155 151.134 56.6315 150.686 56.6475C150.638 56.9355 150.542 57.1435 150.398 57.2715C150.27 57.4155 150.134 57.5035 149.99 57.5355ZM148.814 44.7915C149.79 44.7595 150.606 44.4395 151.262 43.8315C151.934 43.2235 152.27 42.4075 152.27 41.3835C152.27 40.2635 151.926 39.4395 151.238 38.9115C150.566 38.3835 149.75 38.1355 148.79 38.1675C147.798 38.2315 146.966 38.5595 146.294 39.1515C145.638 39.7435 145.31 40.5435 145.31 41.5515C145.31 42.6075 145.646 43.4235 146.318 43.9995C147.006 44.5595 147.838 44.8235 148.814 44.7915ZM150.734 55.6155C151.054 55.6315 151.494 55.6395 152.054 55.6395C152.614 55.6395 153.222 55.6395 153.878 55.6395C154.534 55.6395 155.182 55.6315 155.822 55.6155C156.462 55.5995 157.03 55.5835 157.526 55.5675C158.038 55.5515 158.406 55.5275 158.63 55.4955V52.5435C158.374 52.5435 157.918 52.5435 157.262 52.5435C156.622 52.5435 155.894 52.5515 155.078 52.5675C154.262 52.5675 153.462 52.5755 152.678 52.5915C151.894 52.6075 151.246 52.6235 150.734 52.6395V55.6155ZM159.014 47.4795C158.87 47.4795 158.782 47.3995 158.75 47.2395C158.718 47.0795 158.686 46.8395 158.654 46.5195C158.638 46.1995 158.63 45.8715 158.63 45.5355C158.63 45.1995 158.63 44.9275 158.63 44.7195V38.1195C158.63 37.6395 158.606 37.2635 158.558 36.9915C158.526 36.7195 158.422 36.4875 158.246 36.2955C158.086 36.1035 157.814 35.8955 157.43 35.6715C157.27 35.5595 157.23 35.4155 157.31 35.2395C157.454 34.9995 157.646 34.8795 157.886 34.8795C158.126 34.8795 158.446 34.9675 158.846 35.1435C159.246 35.3195 159.574 35.4875 159.83 35.6475C159.91 35.6955 159.982 35.7595 160.046 35.8395C160.11 35.9195 160.134 36.0075 160.118 36.1035C160.07 36.3755 160.038 36.6475 160.022 36.9195C160.006 37.1915 159.998 37.4955 159.998 37.8315V44.5515C159.998 44.8715 159.974 45.2635 159.926 45.7275C159.878 46.1915 159.782 46.5995 159.638 46.9515C159.494 47.3035 159.286 47.4795 159.014 47.4795ZM179.801 56.0475C179.625 56.0475 179.529 55.9675 179.513 55.8075C179.497 55.6795 179.473 55.4475 179.441 55.1115C179.425 54.7595 179.409 54.3835 179.393 53.9835C179.377 53.5675 179.369 53.2075 179.369 52.9035V38.1915C179.369 37.6955 179.345 37.3115 179.297 37.0395C179.265 36.7675 179.161 36.5435 178.985 36.3675C178.825 36.1755 178.537 35.9755 178.121 35.7675C177.993 35.6875 177.929 35.6075 177.929 35.5275C177.929 35.4475 177.985 35.3435 178.097 35.2155C178.209 35.0715 178.329 34.9995 178.457 34.9995C178.649 34.9995 178.889 35.0475 179.177 35.1435C179.465 35.2395 179.745 35.3515 180.017 35.4795C180.289 35.5915 180.489 35.6955 180.617 35.7915C180.809 35.9355 180.897 36.0955 180.881 36.2715C180.833 36.6075 180.793 36.9195 180.761 37.2075C180.745 37.4955 180.737 37.8315 180.737 38.2155V52.8555C180.737 53.1115 180.721 53.4235 180.689 53.7915C180.673 54.1435 180.633 54.4955 180.569 54.8475C180.505 55.1835 180.409 55.4635 180.281 55.6875C180.169 55.9275 180.009 56.0475 179.801 56.0475ZM167.297 49.9275C166.961 49.9435 166.681 49.7835 166.457 49.4475C166.249 49.0955 166.145 48.6875 166.145 48.2235V41.5035C166.145 41.2315 166.137 40.9595 166.121 40.6875C166.121 40.3995 166.089 40.1195 166.025 39.8475C165.961 39.6235 165.833 39.3915 165.641 39.1515C165.449 38.9115 165.257 38.7275 165.065 38.5995C164.921 38.4715 164.897 38.3275 164.993 38.1675C165.201 37.8955 165.433 37.7915 165.689 37.8555C165.913 37.9035 166.201 38.0235 166.553 38.2155C166.905 38.4075 167.185 38.5835 167.393 38.7435C167.617 38.9355 167.713 39.1035 167.681 39.2475C167.649 39.4715 167.617 39.7995 167.585 40.2315C167.553 40.6475 167.537 41.0155 167.537 41.3355V47.9115C167.537 48.1195 167.577 48.2795 167.657 48.3915C167.753 48.4875 167.961 48.5275 168.281 48.5115C169.161 48.4955 170.097 48.4075 171.089 48.2475C172.081 48.0875 173.033 47.8955 173.945 47.6715C174.873 47.4475 175.681 47.2315 176.369 47.0235C177.057 46.7995 177.545 46.6235 177.833 46.4955C178.137 46.3675 178.313 46.4155 178.361 46.6395C178.425 46.8475 178.321 47.0475 178.049 47.2395C177.841 47.3675 177.441 47.5435 176.849 47.7675C176.257 47.9915 175.545 48.2315 174.713 48.4875C173.897 48.7275 173.033 48.9595 172.121 49.1835C171.225 49.3915 170.353 49.5675 169.505 49.7115C168.657 49.8555 167.921 49.9275 167.297 49.9275ZM187.921 50.1675C187.585 50.1835 187.305 50.0235 187.081 49.6875C186.873 49.3355 186.769 48.9275 186.769 48.4635V41.0475C186.769 40.4715 186.705 40.0475 186.577 39.7755C186.465 39.5035 186.153 39.2635 185.641 39.0555C185.465 38.9755 185.417 38.8475 185.497 38.6715C185.561 38.4955 185.649 38.3755 185.761 38.3115C185.889 38.2315 186.017 38.1995 186.145 38.2155C186.337 38.2315 186.601 38.2795 186.937 38.3595C187.273 38.4395 187.553 38.5355 187.777 38.6475C188.241 38.6475 188.729 38.6475 189.241 38.6475C189.769 38.6315 190.265 38.6075 190.729 38.5755C191.529 38.5435 192.297 38.4715 193.033 38.3595C193.769 38.2315 194.265 38.1195 194.521 38.0235C194.713 37.9755 194.849 37.9675 194.929 37.9995C195.025 38.0155 195.113 38.0795 195.193 38.1915C195.257 38.2715 195.337 38.4075 195.433 38.5995C195.529 38.7755 195.577 38.9115 195.577 39.0075C195.577 39.1195 195.529 39.2235 195.433 39.3195C195.353 39.4155 195.281 39.4635 195.217 39.4635C194.737 39.4315 194.273 39.4235 193.825 39.4395C193.393 39.4395 192.817 39.4555 192.097 39.4875C191.969 39.4875 191.833 39.4955 191.689 39.5115C191.561 39.5115 191.425 39.5115 191.281 39.5115C190.673 39.5435 190.129 39.5675 189.649 39.5835C189.169 39.5995 188.673 39.6235 188.161 39.6555V48.1275C188.161 48.3515 188.201 48.5195 188.281 48.6315C188.377 48.7275 188.585 48.7675 188.905 48.7515C189.769 48.7355 190.665 48.6475 191.593 48.4875C192.537 48.3275 193.433 48.1355 194.281 47.9115C195.145 47.6875 195.889 47.4715 196.513 47.2635C197.153 47.0395 197.609 46.8635 197.881 46.7355C198.169 46.6075 198.337 46.6555 198.385 46.8795C198.449 47.0875 198.353 47.2795 198.097 47.4555C197.889 47.5835 197.505 47.7595 196.945 47.9835C196.401 48.2075 195.745 48.4475 194.977 48.7035C194.225 48.9435 193.425 49.1755 192.577 49.3995C191.729 49.6235 190.897 49.8075 190.081 49.9515C189.281 50.0955 188.561 50.1675 187.921 50.1675ZM199.969 56.0475C199.793 56.0475 199.697 55.9675 199.681 55.8075C199.665 55.6795 199.641 55.4475 199.609 55.1115C199.593 54.7595 199.577 54.3835 199.561 53.9835C199.545 53.5675 199.537 53.2075 199.537 52.9035V38.1915C199.537 37.6955 199.513 37.3115 199.465 37.0395C199.433 36.7675 199.329 36.5435 199.153 36.3675C198.993 36.1755 198.705 35.9755 198.289 35.7675C198.161 35.6875 198.097 35.6075 198.097 35.5275C198.097 35.4475 198.153 35.3435 198.265 35.2155C198.377 35.0715 198.497 34.9995 198.625 34.9995C198.817 34.9995 199.057 35.0475 199.345 35.1435C199.633 35.2395 199.913 35.3515 200.185 35.4795C200.457 35.5915 200.657 35.6955 200.785 35.7915C200.977 35.9355 201.065 36.0955 201.049 36.2715C201.001 36.6075 200.961 36.9195 200.929 37.2075C200.913 37.4955 200.905 37.8315 200.905 38.2155V44.7675C201.753 44.7675 202.497 44.7035 203.137 44.5755C203.793 44.4315 204.249 44.3195 204.505 44.2395C204.681 44.1755 204.809 44.1675 204.889 44.2155C204.969 44.2635 205.041 44.3355 205.105 44.4315C205.185 44.5435 205.265 44.7115 205.345 44.9355C205.441 45.1595 205.489 45.3275 205.489 45.4395C205.489 45.5355 205.433 45.6235 205.321 45.7035C205.225 45.7835 205.153 45.8235 205.105 45.8235C204.513 45.7435 203.897 45.7035 203.257 45.7035C202.633 45.6875 202.001 45.6795 201.361 45.6795C201.281 45.6795 201.201 45.6795 201.121 45.6795C201.057 45.6795 200.985 45.6795 200.905 45.6795V52.8555C200.905 53.1115 200.889 53.4235 200.857 53.7915C200.841 54.1435 200.801 54.4955 200.737 54.8475C200.673 55.1835 200.577 55.4635 200.449 55.6875C200.337 55.9275 200.177 56.0475 199.969 56.0475ZM209.351 54.5595C208.967 54.5595 208.647 54.4315 208.391 54.1755C208.135 53.9195 208.007 53.5995 208.007 53.2155C208.007 52.8475 208.135 52.5435 208.391 52.3035C208.647 52.0475 208.967 51.9195 209.351 51.9195C209.719 51.9195 210.023 52.0475 210.263 52.3035C210.519 52.5435 210.647 52.8475 210.647 53.2155C210.647 53.5995 210.519 53.9195 210.263 54.1755C210.023 54.4315 209.719 54.5595 209.351 54.5595Z" fill="#014B2E"/>
</svg>
