<svg width="180" height="109" viewBox="0 0 180 109" fill="none" xmlns="http://www.w3.org/2000/svg">
<path d="M75.4653 16.3241C75.2413 16.4734 75.0173 16.5294 74.7933 16.4921C74.5693 16.4547 74.4293 16.3614 74.3733 16.2121C74.3173 16.0627 74.4106 15.9041 74.6533 15.7361C75.7173 14.9894 76.6879 14.1401 77.5653 13.1881C78.4426 12.2174 79.1986 11.2374 79.8333 10.2481C80.4866 9.24008 80.9999 8.31608 81.3733 7.47608C81.7653 6.63608 81.9893 5.96408 82.0453 5.46008C82.0639 5.27341 82.0173 5.10541 81.9053 4.95608C81.8119 4.78808 81.5786 4.65741 81.2053 4.56408C80.9999 4.58274 80.6639 4.62941 80.1973 4.70408C79.7306 4.76008 79.2546 4.81608 78.7693 4.87208C78.2839 4.92808 77.8919 4.98408 77.5933 5.04008C77.2386 5.09608 76.9959 5.10541 76.8653 5.06808C76.7533 5.01208 76.6319 4.91874 76.5013 4.78808C76.3893 4.67608 76.2586 4.53608 76.1093 4.36808C75.9786 4.18141 75.8666 4.02274 75.7733 3.89208C75.7173 3.79874 75.7359 3.68674 75.8293 3.55608C75.9226 3.40674 76.0346 3.34141 76.1653 3.36008C76.7253 3.43474 77.3413 3.49074 78.0133 3.52808C78.7039 3.56541 79.3946 3.58408 80.0853 3.58408C80.7759 3.56541 81.3919 3.54674 81.9333 3.52808C82.9413 3.47208 83.9119 3.38808 84.8453 3.27608C85.7973 3.16408 86.6373 3.01474 87.3653 2.82808C87.5706 2.77208 87.7199 2.77208 87.8133 2.82808C87.9066 2.86541 87.9906 2.94941 88.0653 3.08008C88.1399 3.21074 88.2146 3.38808 88.2893 3.61208C88.3826 3.81741 88.4293 3.98541 88.4293 4.11608C88.4293 4.22808 88.3639 4.33074 88.2333 4.42408C88.1213 4.49874 88.0373 4.53608 87.9813 4.53608C87.3279 4.49874 86.5813 4.47074 85.7413 4.45208C84.9199 4.43341 83.9213 4.44274 82.7453 4.48008C83.0626 4.62941 83.3426 4.79741 83.5853 4.98408C83.8466 5.17074 83.9586 5.34808 83.9213 5.51608C83.8653 5.94541 83.6879 6.47741 83.3893 7.11208C83.0906 7.74674 82.6986 8.44674 82.2133 9.21208C83.0346 10.0147 83.9306 10.7427 84.9013 11.3961C85.8906 12.0307 86.7213 12.5161 87.3933 12.8521C87.5986 13.0387 87.7573 13.3467 87.8693 13.7761C87.9999 14.2054 88.0279 14.6254 87.9533 15.0361C87.8786 15.2227 87.6919 15.3627 87.3933 15.4561C87.1133 15.5307 86.9546 15.5307 86.9173 15.4561C86.5626 14.8774 86.0773 14.2521 85.4613 13.5801C84.8453 12.8894 84.2013 12.2174 83.5293 11.5641C82.8573 10.9107 82.2506 10.3694 81.7093 9.94008C80.9066 11.0787 79.9733 12.2361 78.9093 13.4121C77.8639 14.5694 76.7159 15.5401 75.4653 16.3241ZM92.9653 19.5161C92.7973 19.5161 92.6946 19.4227 92.6573 19.2361C92.6199 19.0494 92.5826 18.7507 92.5453 18.3401C92.5266 17.9294 92.5173 17.5094 92.5173 17.0801C92.5173 16.6507 92.5173 16.3147 92.5173 16.0721V9.24008H92.3213C91.6119 9.27741 91.0426 9.32408 90.6133 9.38008C90.2026 9.43608 89.8479 9.49208 89.5493 9.54808C89.2506 9.60408 88.9146 9.66941 88.5413 9.74408C88.1866 9.81874 87.8786 9.78141 87.6173 9.63208C87.4866 9.55741 87.2813 9.41741 87.0013 9.21208C86.7399 8.98808 86.5999 8.82941 86.5813 8.73608C86.5626 8.64274 86.5999 8.52141 86.6933 8.37208C86.8053 8.20408 86.9266 8.13874 87.0573 8.17608C87.3746 8.21341 87.9159 8.26008 88.6813 8.31608C89.4653 8.37208 90.4733 8.35341 91.7053 8.26008L92.5173 8.20408V3.78008C92.5173 3.22008 92.4893 2.78141 92.4333 2.46408C92.3959 2.14674 92.2839 1.87608 92.0973 1.65208C91.9106 1.42808 91.5933 1.18541 91.1453 0.924078C90.9399 0.774744 90.8933 0.606744 91.0053 0.420077C91.1733 0.140078 91.3879 7.77245e-05 91.6493 7.77245e-05C91.9293 7.77245e-05 92.3026 0.102744 92.7693 0.308077C93.2546 0.51341 93.6466 0.70941 93.9453 0.896076C94.1693 1.02674 94.2719 1.20408 94.2533 1.42808C94.1973 1.74541 94.1599 2.06274 94.1413 2.38008C94.1226 2.69741 94.1133 3.05208 94.1133 3.44408V15.8761C94.1133 16.1374 94.0946 16.4734 94.0573 16.8841C94.0386 17.2761 93.9919 17.6774 93.9173 18.0881C93.8426 18.4987 93.7306 18.8441 93.5813 19.1241C93.4319 19.3854 93.2266 19.5161 92.9653 19.5161ZM84.7333 25.5361C83.7999 25.5361 83.1093 25.2934 82.6613 24.8081C82.2133 24.3227 81.9893 23.6507 81.9893 22.7921V20.9441C81.9893 20.3467 81.9333 19.8894 81.8213 19.5721C81.7093 19.2547 81.4106 18.9934 80.9253 18.7881C80.8133 18.7507 80.7386 18.6761 80.7013 18.5641C80.6826 18.4521 80.6826 18.3494 80.7013 18.2561C80.8319 17.8827 81.0746 17.7241 81.4293 17.7801C81.7279 17.8174 82.0639 17.9201 82.4373 18.0881C82.8106 18.2374 83.1373 18.3961 83.4173 18.5641C83.6599 18.7134 83.7626 18.8627 83.7253 19.0121C83.7066 19.1427 83.6786 19.3761 83.6413 19.7121C83.6039 20.0481 83.5853 20.3747 83.5853 20.6921V22.6521C83.5853 23.3054 83.6973 23.7534 83.9213 23.9961C84.1639 24.2201 84.4813 24.3507 84.8733 24.3881C85.0973 24.4067 85.4519 24.4161 85.9373 24.4161C86.4413 24.4161 86.9919 24.4067 87.5893 24.3881C88.1866 24.3694 88.7653 24.3507 89.3253 24.3321C89.9039 24.3134 90.3706 24.2947 90.7253 24.2761C91.6959 24.2201 92.5173 24.1267 93.1893 23.9961C93.8799 23.8654 94.3839 23.7534 94.7013 23.6601C95.1119 23.5294 95.4013 23.5854 95.5693 23.8281C95.6626 23.9774 95.7653 24.1547 95.8773 24.3601C95.9893 24.5654 96.0546 24.7334 96.0733 24.8641C96.0919 24.9947 96.0266 25.1161 95.8773 25.2281C95.7466 25.3587 95.6439 25.4241 95.5693 25.4241C94.9159 25.3867 94.3559 25.3587 93.8893 25.3401C93.4226 25.3401 92.9279 25.3401 92.4053 25.3401C91.8826 25.3587 91.2106 25.3867 90.3893 25.4241C89.4373 25.4614 88.4853 25.4894 87.5333 25.5081C86.5813 25.5267 85.6479 25.5361 84.7333 25.5361ZM117.322 26.7681C117.154 26.8054 117.033 26.7774 116.958 26.6841C116.902 26.6094 116.865 26.5254 116.846 26.4321C116.79 26.1147 116.753 25.7227 116.734 25.2561C116.734 24.8081 116.734 24.3974 116.734 24.0241V18.9841C116.734 18.7414 116.678 18.6201 116.566 18.6201C116.454 18.6201 116.193 18.6294 115.782 18.6481C115.371 18.6481 114.877 18.6574 114.298 18.6761C113.738 18.6947 113.178 18.7227 112.618 18.7601C112.077 18.7787 111.61 18.7974 111.218 18.8161C110.098 18.8721 109.053 18.9374 108.082 19.0121C107.13 19.0681 106.383 19.1521 105.842 19.2641C105.487 19.3201 105.189 19.2734 104.946 19.1241C104.797 19.0121 104.601 18.8534 104.358 18.6481C104.115 18.4241 103.975 18.2654 103.938 18.1721C103.901 18.0601 103.938 17.9201 104.05 17.7521C104.162 17.5841 104.283 17.5187 104.414 17.5561C104.694 17.6307 105.17 17.6961 105.842 17.7521C106.514 17.8081 107.279 17.8454 108.138 17.8641C109.015 17.8641 109.874 17.8547 110.714 17.8361C110.658 17.3881 110.63 16.8187 110.63 16.1281L110.574 12.2641L105.562 12.4601C105.002 12.4787 104.433 12.5254 103.854 12.6001C103.275 12.6561 102.753 12.7214 102.286 12.7961C101.838 12.8521 101.53 12.8987 101.362 12.9361C101.287 12.9547 101.203 12.9734 101.11 12.9921C101.017 13.0107 100.923 13.0201 100.83 13.0201C100.643 13.0201 100.438 12.9361 100.214 12.7681C100.121 12.6934 99.9807 12.5814 99.794 12.4321C99.626 12.2641 99.4673 12.1054 99.318 11.9561C99.1687 11.7881 99.0753 11.6761 99.038 11.6201C99.0007 11.5267 99.0193 11.4054 99.094 11.2561C99.1873 11.1067 99.2993 11.0321 99.43 11.0321C99.9713 11.1254 100.615 11.2094 101.362 11.2841C102.127 11.3401 103.079 11.3681 104.218 11.3681C104.909 11.3681 105.777 11.3587 106.822 11.3401C107.886 11.3027 109.015 11.2654 110.21 11.2281C111.423 11.1907 112.599 11.1534 113.738 11.1161C114.895 11.0601 115.913 11.0041 116.79 10.9481C117.275 10.9107 117.826 10.8734 118.442 10.8361C119.077 10.7801 119.674 10.7147 120.234 10.6401C120.794 10.5654 121.214 10.5001 121.494 10.4441C121.811 10.3694 122.026 10.3134 122.138 10.2761C122.269 10.2387 122.381 10.2201 122.474 10.2201C122.605 10.2201 122.754 10.3321 122.922 10.5561C123.015 10.7054 123.109 10.8827 123.202 11.0881C123.314 11.2747 123.37 11.4334 123.37 11.5641C123.37 11.7321 123.295 11.8627 123.146 11.9561C123.015 12.0494 122.931 12.0961 122.894 12.0961C122.577 12.0587 122.203 12.0401 121.774 12.0401C121.345 12.0214 120.925 12.0121 120.514 12.0121C120.122 11.9934 119.795 11.9841 119.534 11.9841C119.086 11.9841 118.47 11.9934 117.686 12.0121C116.921 12.0307 116.062 12.0587 115.11 12.0961C114.158 12.1147 113.187 12.1427 112.198 12.1801V15.5681C112.198 15.9414 112.189 16.3241 112.17 16.7161C112.151 17.1081 112.123 17.4534 112.086 17.7521C113.169 17.6961 114.093 17.6307 114.858 17.5561C115.642 17.4627 116.193 17.3507 116.51 17.2201C116.641 17.1454 116.771 17.1267 116.902 17.1641L118.358 17.4721C118.563 17.5281 118.638 17.6681 118.582 17.8921C118.563 18.0041 118.535 18.2001 118.498 18.4801C118.479 18.7414 118.461 19.0121 118.442 19.2921C118.423 19.5721 118.414 19.8054 118.414 19.9921L118.386 23.6041C118.386 23.9401 118.349 24.3414 118.274 24.8081C118.218 25.2934 118.106 25.7227 117.938 26.0961C117.789 26.4881 117.583 26.7121 117.322 26.7681ZM115.866 9.96808C115.754 9.93074 115.698 9.82808 115.698 9.66008C115.698 9.47341 115.717 9.28674 115.754 9.10008C115.885 8.57741 116.015 7.96141 116.146 7.25208C116.277 6.52408 116.398 5.79608 116.51 5.06808C116.641 4.34008 116.725 3.70541 116.762 3.16408C116.781 3.01474 116.743 2.93074 116.65 2.91208C116.575 2.87474 116.519 2.85608 116.482 2.85608C116.463 2.85608 116.454 2.85608 116.454 2.85608C116.23 2.85608 115.857 2.86541 115.334 2.88408C114.811 2.90274 114.242 2.93074 113.626 2.96808C113.01 2.98674 112.441 3.01474 111.918 3.05208C111.414 3.07074 111.05 3.08941 110.826 3.10808C110.285 3.14541 109.697 3.19208 109.062 3.24808C108.446 3.28541 107.858 3.33208 107.298 3.38808C106.738 3.42541 106.262 3.48141 105.87 3.55608C105.515 3.63074 105.273 3.64941 105.142 3.61208C105.03 3.55608 104.89 3.45341 104.722 3.30408C104.554 3.11741 104.395 2.94008 104.246 2.77208C104.097 2.58541 103.994 2.44541 103.938 2.35208C103.882 2.25874 103.901 2.13741 103.994 1.98808C104.087 1.82008 104.199 1.75474 104.33 1.79208C104.61 1.88541 105.002 1.96008 105.506 2.01608C106.01 2.05341 106.57 2.07208 107.186 2.07208C107.802 2.07208 108.399 2.07208 108.978 2.07208C109.575 2.05341 110.098 2.03474 110.546 2.01608C110.957 1.99741 111.461 1.97874 112.058 1.96008C112.655 1.92274 113.262 1.88541 113.878 1.84808C114.494 1.81074 115.063 1.76408 115.586 1.70808C116.109 1.63341 116.51 1.54008 116.79 1.42808C116.939 1.37208 117.089 1.37208 117.238 1.42808L118.918 2.01608C118.993 2.05341 119.049 2.11874 119.086 2.21208C119.123 2.30541 119.114 2.41741 119.058 2.54808C119.021 2.60408 118.937 2.78141 118.806 3.08008C118.694 3.36008 118.61 3.60274 118.554 3.80808C118.498 4.01341 118.414 4.33074 118.302 4.76008C118.19 5.17074 118.069 5.61874 117.938 6.10408C117.807 6.58941 117.677 7.05608 117.546 7.50408C117.415 7.93341 117.303 8.28808 117.21 8.56808C116.818 9.65074 116.37 10.1174 115.866 9.96808ZM135.705 16.5201C135.481 16.6321 135.238 16.6601 134.977 16.6041C134.716 16.5481 134.538 16.4454 134.445 16.2961C134.352 16.1281 134.436 15.9694 134.697 15.8201C135.35 15.4841 136.069 15.0361 136.853 14.4761C137.656 13.8974 138.477 13.2441 139.317 12.5161C140.157 11.7694 140.95 10.9667 141.697 10.1081C142.462 9.24941 143.116 8.36274 143.657 7.44808C144.217 6.53341 144.618 5.61874 144.861 4.70408C144.917 4.53608 144.908 4.44274 144.833 4.42408C144.758 4.38674 144.702 4.36808 144.665 4.36808C144.646 4.36808 144.637 4.36808 144.637 4.36808C144.208 4.36808 143.657 4.39608 142.985 4.45208C142.313 4.48941 141.762 4.52674 141.333 4.56408C140.53 4.63874 139.858 4.70408 139.317 4.76008C138.776 4.81608 138.225 4.89074 137.665 4.98408C137.086 5.07741 136.657 5.01208 136.377 4.78808C135.948 4.43341 135.668 4.13474 135.537 3.89208C135.5 3.79874 135.518 3.67741 135.593 3.52808C135.686 3.36008 135.798 3.29474 135.929 3.33208C136.47 3.42541 137.133 3.49074 137.917 3.52808C138.72 3.56541 139.56 3.56541 140.437 3.52808C141.258 3.49074 142.089 3.42541 142.929 3.33208C143.769 3.23874 144.432 3.08941 144.917 2.88408C145.066 2.82808 145.216 2.82808 145.365 2.88408L146.961 3.55608C147.036 3.59341 147.092 3.64941 147.129 3.72408C147.185 3.78008 147.185 3.87341 147.129 4.00408L146.205 5.96408C145.608 7.25208 144.861 8.45608 143.965 9.57608C143.069 10.6961 142.117 11.7134 141.109 12.6281C140.12 13.5427 139.149 14.3267 138.197 14.9801C137.264 15.6334 136.433 16.1467 135.705 16.5201ZM152.029 15.4281C151.861 15.4281 151.758 15.3347 151.721 15.1481C151.684 14.9614 151.646 14.6814 151.609 14.3081C151.59 13.9347 151.581 13.5521 151.581 13.1601C151.581 12.7494 151.581 12.4227 151.581 12.1801V3.78008C151.581 3.22008 151.553 2.78141 151.497 2.46408C151.46 2.14674 151.338 1.87608 151.133 1.65208C150.946 1.42808 150.629 1.18541 150.181 0.924078C149.994 0.79341 149.948 0.62541 150.041 0.420077C150.209 0.140078 150.433 7.77245e-05 150.713 7.77245e-05C150.993 7.77245e-05 151.366 0.102744 151.833 0.308077C152.3 0.51341 152.682 0.70941 152.981 0.896076C153.074 0.952077 153.158 1.02674 153.233 1.12008C153.308 1.21341 153.336 1.31608 153.317 1.42808C153.261 1.74541 153.224 2.06274 153.205 2.38008C153.186 2.69741 153.177 3.05208 153.177 3.44408V8.34408C154.129 8.34408 154.922 8.27874 155.557 8.14808C156.192 7.99874 156.668 7.87741 156.985 7.78408C157.19 7.70941 157.34 7.70008 157.433 7.75608C157.526 7.81208 157.61 7.90541 157.685 8.03608C157.76 8.14808 157.844 8.33474 157.937 8.59608C158.03 8.83874 158.077 9.01608 158.077 9.12808C158.077 9.24008 158.012 9.34274 157.881 9.43608C157.769 9.52941 157.685 9.57608 157.629 9.57608C156.882 9.50141 156.145 9.45474 155.417 9.43608C154.708 9.39874 153.961 9.38008 153.177 9.38008V11.9841C153.177 12.2641 153.158 12.6001 153.121 12.9921C153.102 13.3654 153.046 13.7387 152.953 14.1121C152.878 14.4854 152.766 14.8027 152.617 15.0641C152.468 15.3067 152.272 15.4281 152.029 15.4281ZM151.973 26.4881C151.824 26.5254 151.721 26.4974 151.665 26.4041C151.609 26.3294 151.572 26.2547 151.553 26.1801C151.478 25.8441 151.432 25.4707 151.413 25.0601C151.413 24.6681 151.413 24.2854 151.413 23.9121V18.7041C151.413 18.4427 151.348 18.3121 151.217 18.3121C151.105 18.3121 150.844 18.3214 150.433 18.3401C150.041 18.3587 149.574 18.3867 149.033 18.4241C148.51 18.4427 147.969 18.4707 147.409 18.5081C146.868 18.5454 146.401 18.5827 146.009 18.6201C144.777 18.7134 143.741 18.7974 142.901 18.8721C142.061 18.9467 141.361 19.0307 140.801 19.1241C140.465 19.1987 140.166 19.1521 139.905 18.9841C139.756 18.8907 139.56 18.7414 139.317 18.5361C139.093 18.3121 138.962 18.1534 138.925 18.0601C138.888 17.9481 138.925 17.8081 139.037 17.6401C139.149 17.4721 139.27 17.4067 139.401 17.4441C139.83 17.5561 140.558 17.6307 141.585 17.6681C142.612 17.7054 143.862 17.6867 145.337 17.6121C146.233 17.5747 147.082 17.5281 147.885 17.4721C148.688 17.3974 149.378 17.3134 149.957 17.2201C150.554 17.1267 150.956 17.0334 151.161 16.9401C151.292 16.8841 151.432 16.8654 151.581 16.8841C151.842 16.9401 152.104 16.9867 152.365 17.0241C152.645 17.0614 152.888 17.0987 153.093 17.1361C153.28 17.1547 153.345 17.2947 153.289 17.5561C153.27 17.6681 153.242 17.8641 153.205 18.1441C153.186 18.4054 153.168 18.6761 153.149 18.9561C153.13 19.2361 153.121 19.4694 153.121 19.6561L153.065 23.4921C153.065 23.8467 153.028 24.2387 152.953 24.6681C152.878 25.1161 152.766 25.5081 152.617 25.8441C152.468 26.1987 152.253 26.4134 151.973 26.4881ZM160.573 18.1161C160.405 18.2281 160.209 18.2747 159.985 18.2561C159.78 18.2187 159.631 18.1347 159.537 18.0041C159.444 17.8734 159.491 17.7241 159.677 17.5561C161.04 16.5107 162.3 15.3534 163.457 14.0841C164.615 12.7961 165.576 11.4707 166.341 10.1081C167.125 8.72674 167.629 7.39208 167.853 6.10408C167.872 5.89874 167.807 5.71208 167.657 5.54408C167.508 5.37608 167.247 5.25474 166.873 5.18008C166.724 5.18008 166.584 5.18941 166.453 5.20808C166.341 5.20808 166.22 5.20808 166.089 5.20808C165.753 5.24541 165.277 5.30141 164.661 5.37608C164.045 5.45074 163.532 5.52541 163.121 5.60008C162.804 5.67474 162.58 5.68408 162.449 5.62808C162.319 5.57208 162.207 5.49741 162.113 5.40408C162.095 5.38541 162.085 5.37608 162.085 5.37608C161.88 5.20808 161.703 5.03074 161.553 4.84408C161.423 4.63874 161.339 4.48941 161.301 4.39608C161.245 4.30274 161.255 4.18141 161.329 4.03208C161.423 3.88274 161.535 3.81741 161.665 3.83608C162.524 3.98541 163.467 4.06008 164.493 4.06008C165.52 4.06008 166.444 4.04141 167.265 4.00408C167.956 3.96674 168.684 3.92008 169.449 3.86408C170.215 3.80808 170.952 3.73341 171.661 3.64008C172.389 3.54674 172.996 3.44408 173.481 3.33208C173.687 3.27608 173.836 3.27608 173.929 3.33208C174.023 3.36941 174.107 3.44408 174.181 3.55608C174.256 3.68674 174.321 3.88274 174.377 4.14408C174.433 4.38674 174.461 4.56408 174.461 4.67608C174.461 4.78808 174.405 4.89074 174.293 4.98408C174.181 5.07741 174.097 5.12408 174.041 5.12408C173.444 5.08674 172.669 5.05874 171.717 5.04008C170.784 5.02141 169.739 5.03074 168.581 5.06808C168.899 5.21741 169.188 5.40408 169.449 5.62808C169.711 5.85208 169.841 6.07608 169.841 6.30008C169.748 6.80408 169.552 7.38274 169.253 8.03608C168.973 8.68941 168.619 9.38941 168.189 10.1361C169.067 10.8454 169.823 11.4427 170.457 11.9281C171.092 12.4134 171.671 12.8241 172.193 13.1601C172.735 13.4961 173.295 13.8134 173.873 14.1121C174.247 14.4107 174.489 14.7934 174.601 15.2601C174.732 15.7081 174.788 16.1187 174.769 16.4921C174.769 16.6227 174.695 16.7441 174.545 16.8561C174.396 16.9681 174.237 17.0427 174.069 17.0801C173.901 17.1174 173.789 17.1081 173.733 17.0521C173.136 16.2121 172.473 15.4187 171.745 14.6721C171.017 13.9067 170.299 13.2067 169.589 12.5721C168.88 11.9187 168.245 11.3681 167.685 10.9201C167.125 11.7601 166.472 12.6281 165.725 13.5241C164.997 14.4014 164.195 15.2414 163.317 16.0441C162.459 16.8281 161.544 17.5187 160.573 18.1161ZM178.241 24.6961C178.036 24.6961 177.924 24.6027 177.905 24.4161C177.887 24.2667 177.859 23.9961 177.821 23.6041C177.803 23.1934 177.784 22.7547 177.765 22.2881C177.747 21.8027 177.737 21.3827 177.737 21.0281V3.86408C177.737 3.28541 177.709 2.83741 177.653 2.52008C177.616 2.20274 177.495 1.94141 177.289 1.73608C177.103 1.51208 176.767 1.27874 176.281 1.03608C176.132 0.942743 176.057 0.84941 176.057 0.756076C176.057 0.662743 176.123 0.54141 176.253 0.392078C176.384 0.224078 176.524 0.140078 176.673 0.140078C176.897 0.140078 177.177 0.196077 177.513 0.308077C177.849 0.420077 178.176 0.550743 178.493 0.700077C178.811 0.830743 179.044 0.952077 179.193 1.06408C179.417 1.23208 179.52 1.41874 179.501 1.62408C179.445 2.01608 179.399 2.38008 179.361 2.71608C179.343 3.05208 179.333 3.44408 179.333 3.89208V20.9721C179.333 21.2707 179.315 21.6347 179.277 22.0641C179.259 22.4747 179.212 22.8854 179.137 23.2961C179.063 23.6881 178.951 24.0147 178.801 24.2761C178.671 24.5561 178.484 24.6961 178.241 24.6961ZM2.82825 54.7761C2.62292 54.8134 2.47358 54.7667 2.38025 54.6361C2.28692 54.5054 2.23092 54.3187 2.21225 54.0761C2.13758 53.2361 2.06292 52.3587 1.98825 51.4441C1.91358 50.5294 1.84825 49.6894 1.79225 48.9241C1.73625 48.1587 1.68025 47.6081 1.62425 47.2721C1.51225 46.6187 1.36292 46.1521 1.17625 45.8721C1.00825 45.5734 0.681583 45.2747 0.19625 44.9761C0.0655834 44.8641 0.02825 44.7241 0.0842501 44.5561C0.289583 44.1267 0.56025 43.9587 0.89625 44.0521C1.10158 44.0894 1.38158 44.1641 1.73625 44.2761C2.09092 44.3694 2.39892 44.4627 2.66025 44.5561C3.03358 44.5561 3.51892 44.5561 4.11625 44.5561C4.73225 44.5561 5.36692 44.5467 6.02025 44.5281C6.69225 44.4907 7.29892 44.4534 7.84025 44.4161C9.01625 44.3414 9.81892 44.2014 10.2483 43.9961C10.3976 43.9401 10.5469 43.9307 10.6963 43.9681C11.1256 44.0987 11.6016 44.2574 12.1243 44.4441C12.1989 44.4627 12.2643 44.5094 12.3203 44.5841C12.3763 44.6401 12.3856 44.7334 12.3483 44.8641C12.2736 45.0694 12.1803 45.4334 12.0683 45.9561C11.9749 46.4787 11.8816 47.1041 11.7883 47.8321C11.6949 48.3921 11.6016 49.1014 11.5083 49.9601C11.4336 50.8001 11.3496 51.5841 11.2563 52.3121C11.3496 52.3867 11.5083 52.5267 11.7323 52.7321C11.9563 52.9187 12.0683 53.0681 12.0683 53.1801C12.0683 53.3294 12.0029 53.4601 11.8723 53.5721C11.7416 53.6841 11.6483 53.7307 11.5923 53.7121C11.3869 53.6934 11.0229 53.6841 10.5003 53.6841C9.99625 53.6654 9.40825 53.6654 8.73625 53.6841C8.08292 53.6841 7.41092 53.6934 6.72025 53.7121C6.04825 53.7307 5.42292 53.7494 4.84425 53.7681C4.28425 53.7867 3.84558 53.8054 3.52825 53.8241C3.49092 54.1227 3.39758 54.3467 3.24825 54.4961C3.11758 54.6454 2.97758 54.7387 2.82825 54.7761ZM3.50025 52.7041C3.76158 52.7227 4.18158 52.7321 4.76025 52.7321C5.33892 52.7134 5.97358 52.6947 6.66425 52.6761C7.35492 52.6387 8.00825 52.6014 8.62425 52.5641C9.24025 52.5267 9.69758 52.4801 9.99625 52.4241C10.0709 50.8001 10.1269 49.4747 10.1643 48.4481C10.2203 47.4214 10.2576 46.5067 10.2763 45.7041C10.2763 45.5734 10.2576 45.4987 10.2203 45.4801C10.1829 45.4427 10.1456 45.4241 10.1083 45.4241C9.60425 45.4241 8.93225 45.4427 8.09225 45.4801C7.25225 45.4987 6.38425 45.5267 5.48825 45.5641C4.61092 45.5827 3.83625 45.6107 3.16425 45.6481L3.50025 52.7041ZM17.6683 56.4281C17.5003 56.4281 17.3976 56.3347 17.3603 56.1481C17.3229 55.9614 17.2856 55.6814 17.2483 55.3081C17.2296 54.9347 17.2203 54.5521 17.2203 54.1601C17.2203 53.7494 17.2203 53.4227 17.2203 53.1801V44.7801C17.2203 44.2201 17.1923 43.7814 17.1363 43.4641C17.0989 43.1467 16.9776 42.8761 16.7723 42.6521C16.5856 42.4281 16.2683 42.1854 15.8203 41.9241C15.6336 41.7934 15.5869 41.6254 15.6803 41.4201C15.8483 41.1401 16.0723 41.0001 16.3523 41.0001C16.6323 41.0001 17.0056 41.1027 17.4723 41.3081C17.9389 41.5134 18.3216 41.7094 18.6203 41.8961C18.7136 41.9521 18.7976 42.0267 18.8723 42.1201C18.9469 42.2134 18.9749 42.3161 18.9563 42.4281C18.9003 42.7454 18.8629 43.0627 18.8443 43.3801C18.8256 43.6974 18.8163 44.0521 18.8163 44.4441V49.3441C19.7683 49.3441 20.5616 49.2787 21.1963 49.1481C21.8309 48.9987 22.3069 48.8774 22.6243 48.7841C22.8296 48.7094 22.9789 48.7001 23.0723 48.7561C23.1656 48.8121 23.2496 48.9054 23.3243 49.0361C23.3989 49.1481 23.4829 49.3347 23.5763 49.5961C23.6696 49.8387 23.7163 50.0161 23.7163 50.1281C23.7163 50.2401 23.6509 50.3427 23.5203 50.4361C23.4083 50.5294 23.3243 50.5761 23.2683 50.5761C22.5216 50.5014 21.7843 50.4547 21.0563 50.4361C20.3469 50.3987 19.6003 50.3801 18.8163 50.3801V52.9841C18.8163 53.2641 18.7976 53.6001 18.7603 53.9921C18.7416 54.3654 18.6856 54.7387 18.5923 55.1121C18.5176 55.4854 18.4056 55.8027 18.2563 56.0641C18.1069 56.3067 17.9109 56.4281 17.6683 56.4281ZM17.6123 67.4881C17.4629 67.5254 17.3603 67.4974 17.3043 67.4041C17.2483 67.3294 17.2109 67.2547 17.1923 67.1801C17.1176 66.8441 17.0709 66.4707 17.0523 66.0601C17.0523 65.6681 17.0523 65.2854 17.0523 64.9121V59.7041C17.0523 59.4427 16.9869 59.3121 16.8563 59.3121C16.7443 59.3121 16.4829 59.3214 16.0723 59.3401C15.6803 59.3587 15.2136 59.3867 14.6723 59.4241C14.1496 59.4427 13.6083 59.4707 13.0482 59.5081C12.5069 59.5454 12.0403 59.5827 11.6483 59.6201C10.4163 59.7134 9.38025 59.7974 8.54025 59.8721C7.70025 59.9467 7.00025 60.0307 6.44025 60.1241C6.10425 60.1987 5.80558 60.1521 5.54425 59.9841C5.39492 59.8907 5.19892 59.7414 4.95625 59.5361C4.73225 59.3121 4.60158 59.1534 4.56425 59.0601C4.52692 58.9481 4.56425 58.8081 4.67625 58.6401C4.78825 58.4721 4.90958 58.4067 5.04025 58.4441C5.46958 58.5561 6.19758 58.6307 7.22425 58.6681C8.25092 58.7054 9.50158 58.6867 10.9763 58.6121C11.8723 58.5747 12.7216 58.5281 13.5243 58.4721C14.3269 58.3974 15.0176 58.3134 15.5963 58.2201C16.1936 58.1267 16.5949 58.0334 16.8003 57.9401C16.9309 57.8841 17.0709 57.8654 17.2203 57.8841C17.4816 57.9401 17.7429 57.9867 18.0043 58.0241C18.2843 58.0614 18.5269 58.0987 18.7323 58.1361C18.9189 58.1547 18.9843 58.2947 18.9283 58.5561C18.9096 58.6681 18.8816 58.8641 18.8443 59.1441C18.8256 59.4054 18.8069 59.6761 18.7883 59.9561C18.7696 60.2361 18.7603 60.4694 18.7603 60.6561L18.7043 64.4921C18.7043 64.8467 18.6669 65.2387 18.5923 65.6681C18.5176 66.1161 18.4056 66.5081 18.2563 66.8441C18.1069 67.1987 17.8923 67.4134 17.6123 67.4881ZM35.2501 66.7041C34.4287 66.7227 33.8127 66.5454 33.4021 66.1721C33.0101 65.8174 32.8141 65.2201 32.8141 64.3801V62.8961C32.8141 62.6721 32.7581 62.5227 32.6461 62.4481C32.4967 62.3547 32.3007 62.2241 32.0581 62.0561C31.8341 61.8694 31.6754 61.7294 31.5821 61.6361C31.5074 61.5614 31.5261 61.4307 31.6381 61.2441C31.7501 61.0387 31.8621 60.9454 31.9741 60.9641C32.6274 61.1134 33.3927 61.1974 34.2701 61.2161C34.5874 61.2347 35.0354 61.2441 35.6141 61.2441C36.2114 61.2254 36.8741 61.2067 37.6021 61.1881C38.3487 61.1507 39.0861 61.1227 39.8141 61.1041C40.5421 61.0667 41.2047 61.0294 41.8021 60.9921C42.4181 60.9361 42.8847 60.8894 43.2021 60.8521C43.2207 60.7401 43.2487 60.5161 43.2861 60.1801C43.3234 59.8254 43.3607 59.4521 43.3981 59.0601C43.4354 58.6494 43.4541 58.3134 43.4541 58.0521C43.4541 57.9214 43.4261 57.8467 43.3701 57.8281C43.3327 57.8094 43.2954 57.8001 43.2581 57.8001L36.5381 58.1081C35.8287 58.1454 35.2501 58.1827 34.8021 58.2201C34.3541 58.2574 33.9434 58.3134 33.5701 58.3881C33.3647 58.4254 33.1967 58.4441 33.0661 58.4441C32.9354 58.4254 32.7954 58.3694 32.6461 58.2761C32.4967 58.1827 32.3194 58.0521 32.1141 57.8841C31.9087 57.6974 31.7874 57.5574 31.7501 57.4641C31.7314 57.3707 31.7781 57.2494 31.8901 57.1001C32.0021 56.9321 32.1234 56.8667 32.2541 56.9041C32.4594 56.9601 32.7767 57.0067 33.2061 57.0441C33.6354 57.0814 34.1021 57.1094 34.6061 57.1281C35.1287 57.1281 35.6047 57.1187 36.0341 57.1001C36.5567 57.0814 37.1727 57.0627 37.8821 57.0441C38.6101 57.0067 39.3381 56.9694 40.0661 56.9321C40.7941 56.8947 41.4474 56.8481 42.0261 56.7921C42.6234 56.7174 43.0621 56.6334 43.3421 56.5401C43.3421 56.5401 43.3514 56.5401 43.3701 56.5401C43.4261 56.5027 43.4821 56.4841 43.5381 56.4841C43.6127 56.4654 43.6967 56.4654 43.7901 56.4841L45.0781 56.8761C45.2834 56.9507 45.3394 57.0907 45.2461 57.2961C45.2087 57.3894 45.1434 57.5854 45.0501 57.8841C44.9754 58.1641 44.8914 58.4907 44.7981 58.8641C44.7047 59.2374 44.6114 59.5921 44.5181 59.9281C44.4434 60.2641 44.3874 60.5161 44.3501 60.6841C44.4994 60.7587 44.6861 60.8707 44.9101 61.0201C45.1527 61.1507 45.2741 61.2721 45.2741 61.3841C45.2741 61.5334 45.1994 61.6921 45.0501 61.8601C44.9194 62.0281 44.8261 62.1027 44.7701 62.0841C44.5461 62.0654 44.1261 62.0561 43.5101 62.0561C42.8941 62.0374 42.1661 62.0374 41.3261 62.0561C40.5047 62.0561 39.6461 62.0747 38.7501 62.1121C37.8727 62.1307 37.0514 62.1587 36.2861 62.1961C35.5207 62.2334 34.8954 62.2707 34.4101 62.3081V64.2121C34.4101 64.8281 34.4847 65.2107 34.6341 65.3601C34.8021 65.5094 35.0727 65.5841 35.4461 65.5841C35.5021 65.5841 35.6234 65.5841 35.8101 65.5841C36.1834 65.5841 36.6781 65.5841 37.2941 65.5841C37.9287 65.5841 38.6101 65.5747 39.3381 65.5561C40.0847 65.5374 40.8127 65.5094 41.5221 65.4721C42.4927 65.4161 43.2767 65.3414 43.8741 65.2481C44.4714 65.1547 44.9847 65.0334 45.4141 64.8841C45.6381 64.7907 45.8061 64.7627 45.9181 64.8001C46.0301 64.8374 46.1514 64.9214 46.2821 65.0521C46.3941 65.1641 46.5061 65.3041 46.6181 65.4721C46.7301 65.6587 46.7954 65.8081 46.8141 65.9201C46.8327 66.0321 46.7674 66.1627 46.6181 66.3121C46.4687 66.4614 46.3661 66.5361 46.3101 66.5361C45.3394 66.4987 44.5087 66.4801 43.8181 66.4801C43.1274 66.4987 42.3247 66.5267 41.4101 66.5641C40.4581 66.6014 39.4221 66.6294 38.3021 66.6481C37.1821 66.6667 36.1647 66.6854 35.2501 66.7041ZM26.7661 57.1281C26.5421 57.2401 26.2994 57.2681 26.0381 57.2121C25.7767 57.1561 25.6087 57.0534 25.5341 56.9041C25.4594 56.7361 25.5527 56.5774 25.8141 56.4281C26.4487 56.0921 27.1581 55.6441 27.9421 55.0841C28.7261 54.5241 29.5287 53.8801 30.3501 53.1521C31.1714 52.4054 31.9461 51.6121 32.6741 50.7721C33.4021 49.9321 34.0367 49.0734 34.5781 48.1961C35.1194 47.3001 35.5114 46.4227 35.7541 45.5641C35.8101 45.3961 35.8007 45.3027 35.7261 45.2841C35.6514 45.2467 35.5954 45.2281 35.5581 45.2281C35.5394 45.2281 35.5301 45.2281 35.5301 45.2281C35.1007 45.2281 34.5501 45.2561 33.8781 45.3121C33.2247 45.3494 32.6834 45.3867 32.2541 45.4241C31.4514 45.4987 30.8074 45.5641 30.3221 45.6201C29.8554 45.6761 29.3421 45.7507 28.7821 45.8441C28.2034 45.9374 27.7741 45.8721 27.4941 45.6481C27.0647 45.2934 26.7847 44.9947 26.6541 44.7521C26.6167 44.6587 26.6354 44.5374 26.7101 44.3881C26.8034 44.2201 26.9154 44.1547 27.0461 44.1921C27.5874 44.2854 28.2501 44.3601 29.0341 44.4161C29.8367 44.4534 30.6767 44.4441 31.5541 44.3881C32.2821 44.3507 33.0474 44.2854 33.8501 44.1921C34.6714 44.0987 35.3247 43.9494 35.8101 43.7441C35.9594 43.6881 36.1087 43.6881 36.2581 43.7441L37.8261 44.3321C37.9007 44.3694 37.9567 44.4254 37.9941 44.5001C38.0501 44.5561 38.0501 44.6494 37.9941 44.7801L37.0701 46.7401C36.4727 47.9907 35.7354 49.1667 34.8581 50.2681C33.9807 51.3694 33.0567 52.3681 32.0861 53.2641C31.1154 54.1601 30.1634 54.9347 29.2301 55.5881C28.2967 56.2414 27.4754 56.7547 26.7661 57.1281ZM44.0141 55.2801C43.8461 55.2801 43.7434 55.1867 43.7061 55.0001C43.6687 54.8134 43.6314 54.5427 43.5941 54.1881C43.5754 53.8147 43.5661 53.4321 43.5661 53.0401C43.5661 52.6481 43.5661 52.3307 43.5661 52.0881V49.9321L42.6981 49.9601C41.6901 49.9974 40.9247 50.0627 40.4021 50.1561C39.8981 50.2494 39.4034 50.3521 38.9181 50.4641C38.7127 50.5014 38.5447 50.5201 38.4141 50.5201C38.3021 50.5014 38.1714 50.4454 38.0221 50.3521C37.8914 50.2587 37.6954 50.1094 37.4341 49.9041C37.1727 49.6801 37.0234 49.5214 36.9861 49.4281C36.9487 49.3347 36.9767 49.2227 37.0701 49.0921C37.1821 48.9427 37.3034 48.8867 37.4341 48.9241C37.7514 48.9801 38.3207 49.0267 39.1421 49.0641C39.9634 49.0827 40.9901 49.0547 42.2221 48.9801L43.5661 48.8961V44.7801C43.5661 44.2201 43.5381 43.7814 43.4821 43.4641C43.4447 43.1467 43.3234 42.8761 43.1181 42.6521C42.9314 42.4281 42.6141 42.1854 42.1661 41.9241C41.9794 41.7934 41.9327 41.6254 42.0261 41.4201C42.1941 41.1401 42.4181 41.0001 42.6981 41.0001C42.9781 41.0001 43.3514 41.1027 43.8181 41.3081C44.2847 41.5134 44.6674 41.7094 44.9661 41.8961C45.0594 41.9521 45.1434 42.0267 45.2181 42.1201C45.2927 42.2134 45.3207 42.3161 45.3021 42.4281C45.2461 42.7454 45.2087 43.0627 45.1901 43.3801C45.1714 43.6974 45.1621 44.0521 45.1621 44.4441V51.8921C45.1621 52.2654 45.1341 52.7227 45.0781 53.2641C45.0221 53.7867 44.9101 54.2534 44.7421 54.6641C44.5741 55.0747 44.3314 55.2801 44.0141 55.2801ZM53.7613 59.4241C53.3507 59.4427 53.024 59.2561 52.7813 58.8641C52.5387 58.4534 52.4173 57.9774 52.4173 57.4361V52.6761C52.4173 52.4894 52.3893 52.3587 52.3333 52.2841C52.296 52.1907 52.2027 52.0974 52.0533 52.0041C51.8667 51.9107 51.6427 51.7894 51.3813 51.6401C51.12 51.4907 50.9613 51.3694 50.9053 51.2761C50.8493 51.1827 50.868 51.0334 50.9613 50.8281C51.0547 50.6227 51.1573 50.5294 51.2693 50.5481C51.5867 50.5854 51.9227 50.6227 52.2773 50.6601C52.6507 50.6974 53.024 50.7254 53.3973 50.7441C53.7707 50.7627 54.2373 50.7721 54.7973 50.7721C55.376 50.7534 55.9827 50.7254 56.6173 50.6881C57.252 50.6507 57.8493 50.6041 58.4093 50.5481C58.9693 50.4921 59.4173 50.4361 59.7533 50.3801C59.772 50.2494 59.8093 49.9881 59.8653 49.5961C59.9213 49.1854 59.9773 48.7281 60.0333 48.2241C60.0893 47.7201 60.1453 47.2441 60.2013 46.7961C60.2573 46.3481 60.2947 46.0214 60.3133 45.8161C60.332 45.6667 60.3133 45.5827 60.2573 45.5641C60.22 45.5267 60.1827 45.5081 60.1453 45.5081C60.1267 45.5081 60.0893 45.5081 60.0333 45.5081C59.8093 45.5081 59.3893 45.5174 58.7733 45.5361C58.176 45.5361 57.3827 45.5827 56.3933 45.6761C55.908 45.7134 55.5067 45.7507 55.1893 45.7881C54.8907 45.8067 54.6013 45.8347 54.3213 45.8721C54.0413 45.8907 53.7147 45.9374 53.3413 46.0121C52.9867 46.0867 52.744 46.1054 52.6133 46.0681C52.5013 46.0307 52.3613 45.9374 52.1933 45.7881C52.0067 45.6387 51.8573 45.4987 51.7453 45.3681C51.6333 45.2187 51.54 45.0787 51.4653 44.9481C51.4093 44.8547 51.428 44.7427 51.5213 44.6121C51.6147 44.4627 51.7267 44.3974 51.8573 44.4161C52.1747 44.4534 52.52 44.4907 52.8933 44.5281C53.2853 44.5467 53.668 44.5654 54.0413 44.5841C54.452 44.6027 54.956 44.6121 55.5533 44.6121C56.1507 44.5934 56.748 44.5654 57.3453 44.5281C57.9613 44.4907 58.4933 44.4534 58.9413 44.4161C59.2587 44.3787 59.548 44.3227 59.8093 44.2481C60.0893 44.1547 60.276 44.0801 60.3693 44.0241C60.5187 43.9307 60.6867 43.9307 60.8733 44.0241L62.1613 44.5561C62.348 44.6307 62.404 44.7801 62.3293 45.0041C62.292 45.0974 62.208 45.3121 62.0773 45.6481C61.9653 45.9841 61.8627 46.3667 61.7693 46.7961L61.0133 50.1561C61.1627 50.2494 61.3493 50.3987 61.5733 50.6041C61.7973 50.7907 61.9093 50.9307 61.9093 51.0241C61.9093 51.1734 61.8347 51.3134 61.6853 51.4441C61.5547 51.5747 61.4613 51.6401 61.4053 51.6401C61.2 51.6214 60.7987 51.6214 60.2013 51.6401C59.604 51.6401 58.9227 51.6587 58.1573 51.6961C57.392 51.7334 56.636 51.7707 55.8893 51.8081C55.1427 51.8454 54.5173 51.8827 54.0133 51.9201V57.1281C54.0133 57.3707 54.06 57.5574 54.1533 57.6881C54.2653 57.8187 54.508 57.8747 54.8813 57.8561C55.908 57.8374 56.9813 57.7441 58.1013 57.5761C59.2213 57.4081 60.2947 57.2121 61.3213 56.9881C62.3667 56.7454 63.2813 56.5027 64.0653 56.2601C64.8493 55.9987 65.4187 55.7747 65.7733 55.5881C66.1467 55.4387 66.352 55.4854 66.3893 55.7281C66.4453 55.9707 66.324 56.2041 66.0253 56.4281C65.764 56.5961 65.2973 56.8107 64.6253 57.0721C63.9533 57.3147 63.1507 57.5761 62.2173 57.8561C61.3027 58.1361 60.332 58.3974 59.3053 58.6401C58.2973 58.8641 57.308 59.0507 56.3373 59.2001C55.3667 59.3494 54.508 59.4241 53.7613 59.4241ZM67.9573 65.6961C67.752 65.6961 67.64 65.6027 67.6213 65.4161C67.6027 65.2667 67.5747 64.9961 67.5373 64.6041C67.5187 64.1934 67.5 63.7547 67.4813 63.2881C67.4627 62.8027 67.4533 62.3827 67.4533 62.0281V44.8641C67.4533 44.2854 67.4253 43.8374 67.3693 43.5201C67.332 43.2027 67.2107 42.9414 67.0053 42.7361C66.8187 42.5121 66.4827 42.2787 65.9973 42.0361C65.848 41.9427 65.7733 41.8494 65.7733 41.7561C65.7733 41.6627 65.8387 41.5414 65.9693 41.3921C66.1 41.2241 66.24 41.1401 66.3893 41.1401C66.6133 41.1401 66.8933 41.1961 67.2293 41.3081C67.5653 41.4201 67.892 41.5507 68.2093 41.7001C68.5267 41.8307 68.76 41.9521 68.9093 42.0641C69.1333 42.2321 69.236 42.4187 69.2173 42.6241C69.1613 43.0161 69.1147 43.3801 69.0773 43.7161C69.0587 44.0521 69.0493 44.4441 69.0493 44.8921V61.9721C69.0493 62.2707 69.0307 62.6347 68.9933 63.0641C68.9747 63.4747 68.928 63.8854 68.8533 64.2961C68.7787 64.6881 68.6667 65.0147 68.5173 65.2761C68.3867 65.5561 68.2 65.6961 67.9573 65.6961ZM95.7384 67.3761C94.6184 67.3761 93.629 67.1707 92.7704 66.7601C91.9304 66.3681 91.2677 65.8174 90.7824 65.1081C90.297 64.4174 90.0544 63.6147 90.0544 62.7001C90.0544 61.8041 90.3157 61.0014 90.8384 60.2921C91.361 59.5641 92.061 58.9947 92.9384 58.5841C93.8157 58.1547 94.777 57.9401 95.8224 57.9401C96.8864 57.9401 97.8477 58.1174 98.7064 58.4721C99.5837 58.8267 100.284 59.3494 100.806 60.0401C101.329 60.7307 101.572 61.5801 101.534 62.5881C101.534 63.5214 101.273 64.3521 100.75 65.0801C100.228 65.8081 99.5277 66.3681 98.6504 66.7601C97.773 67.1707 96.8024 67.3761 95.7384 67.3761ZM95.7664 66.1161C96.9237 66.1161 97.885 65.8081 98.6504 65.1921C99.4344 64.5761 99.845 63.6987 99.8824 62.5601C99.9197 61.8321 99.7517 61.2161 99.3784 60.7121C99.005 60.1894 98.501 59.7974 97.8664 59.5361C97.2504 59.2561 96.5597 59.1161 95.7944 59.1161C95.0104 59.1161 94.3104 59.2747 93.6944 59.5921C93.0784 59.8907 92.5837 60.3107 92.2104 60.8521C91.8557 61.3934 91.6784 62.0001 91.6784 62.6721C91.6784 63.7361 92.061 64.5761 92.8264 65.1921C93.6104 65.8081 94.5904 66.1161 95.7664 66.1161ZM83.5024 56.9321C83.2784 57.0814 83.0544 57.1374 82.8304 57.1001C82.6064 57.0627 82.457 56.9694 82.3824 56.8201C82.3264 56.6707 82.4197 56.5121 82.6624 56.3441C83.7264 55.5974 84.6877 54.7574 85.5464 53.8241C86.4237 52.8721 87.1704 51.9201 87.7864 50.9681C88.421 50.0161 88.925 49.1387 89.2984 48.3361C89.6717 47.5147 89.8957 46.8521 89.9704 46.3481C89.989 46.1427 89.9424 45.9654 89.8304 45.8161C89.7184 45.6481 89.4757 45.5267 89.1024 45.4521C88.8784 45.4521 88.5424 45.4801 88.0944 45.5361C87.6464 45.5921 87.189 45.6574 86.7224 45.7321C86.2744 45.7881 85.901 45.8441 85.6024 45.9001C85.2477 45.9561 85.005 45.9654 84.8744 45.9281C84.7624 45.8721 84.641 45.7787 84.5104 45.6481C84.417 45.5547 84.2677 45.3867 84.0624 45.1441C83.8757 44.9014 83.7824 44.7707 83.7824 44.7521C83.7264 44.6587 83.745 44.5467 83.8384 44.4161C83.9317 44.2667 84.0437 44.2014 84.1744 44.2201C84.7344 44.3134 85.3504 44.3787 86.0224 44.4161C86.6944 44.4534 87.3664 44.4627 88.0384 44.4441C88.7104 44.4254 89.3077 44.4067 89.8304 44.3881C90.8384 44.3321 91.781 44.2481 92.6584 44.1361C93.5544 44.0241 94.3664 43.8747 95.0944 43.6881C95.449 43.6134 95.6824 43.6974 95.7944 43.9401C95.869 44.0707 95.9437 44.2481 96.0184 44.4721C96.1117 44.6774 96.1584 44.8454 96.1584 44.9761C96.1584 45.0881 96.093 45.1907 95.9624 45.2841C95.8504 45.3774 95.7757 45.4241 95.7384 45.4241C95.085 45.3681 94.3664 45.3307 93.5824 45.3121C92.7984 45.2934 91.8277 45.3121 90.6704 45.3681C90.9877 45.5174 91.2677 45.6854 91.5104 45.8721C91.7717 46.0587 91.8837 46.2267 91.8464 46.3761C91.697 47.2721 91.1464 48.4761 90.1944 49.9881C91.2957 50.8094 92.2944 51.4627 93.1904 51.9481C94.0864 52.4334 94.861 52.8347 95.5144 53.1521C95.7197 53.3014 95.9064 53.5814 96.0744 53.9921C96.261 54.3841 96.345 54.7667 96.3264 55.1401C96.3077 55.2521 96.2237 55.3641 96.0744 55.4761C95.925 55.5694 95.7757 55.6441 95.6264 55.7001C95.477 55.7374 95.3837 55.7281 95.3464 55.6721C94.973 55.1307 94.441 54.5521 93.7504 53.9361C93.0597 53.3201 92.341 52.7321 91.5944 52.1721C90.8664 51.6121 90.2317 51.1454 89.6904 50.7721C88.925 51.8734 88.0104 52.9841 86.9464 54.1041C85.8824 55.2054 84.7344 56.1481 83.5024 56.9321ZM100.414 57.6881C100.246 57.7441 100.125 57.7441 100.05 57.6881C99.9757 57.6134 99.929 57.5294 99.9104 57.4361C99.873 57.2494 99.8357 56.9507 99.7984 56.5401C99.7797 56.1294 99.7704 55.7094 99.7704 55.2801C99.7704 54.8507 99.7704 54.5147 99.7704 54.2721V44.8361C99.7704 44.2761 99.7424 43.8374 99.6864 43.5201C99.649 43.2027 99.5277 42.9321 99.3224 42.7081C99.1357 42.4841 98.8184 42.2414 98.3704 41.9801C98.1837 41.8494 98.137 41.6814 98.2304 41.4761C98.4357 41.1401 98.7064 41.0001 99.0424 41.0561C99.341 41.0934 99.705 41.2147 100.134 41.4201C100.564 41.6067 100.909 41.7841 101.17 41.9521C101.264 42.0081 101.348 42.0827 101.422 42.1761C101.497 42.2694 101.525 42.3721 101.506 42.4841C101.45 42.8014 101.413 43.1187 101.394 43.4361C101.376 43.7534 101.366 44.1081 101.366 44.5001V49.3441C102.337 49.3441 103.14 49.2787 103.774 49.1481C104.409 48.9987 104.885 48.8774 105.202 48.7841C105.408 48.7094 105.557 48.7001 105.65 48.7561C105.744 48.8121 105.828 48.9054 105.902 49.0361C105.977 49.1481 106.061 49.3347 106.154 49.5961C106.248 49.8387 106.294 50.0161 106.294 50.1281C106.294 50.2401 106.229 50.3427 106.098 50.4361C105.986 50.5294 105.902 50.5761 105.846 50.5761C105.062 50.5014 104.306 50.4547 103.578 50.4361C102.869 50.3987 102.132 50.3801 101.366 50.3801V54.0761C101.366 54.4494 101.338 54.9067 101.282 55.4481C101.245 55.9707 101.152 56.4467 101.002 56.8761C100.872 57.3054 100.676 57.5761 100.414 57.6881ZM114.804 54.6921C113.74 54.7107 112.76 54.5054 111.864 54.0761C110.987 53.6467 110.278 53.0401 109.736 52.2561C109.214 51.4534 108.952 50.5294 108.952 49.4841C108.952 48.4947 109.214 47.5987 109.736 46.7961C110.278 45.9934 110.987 45.3494 111.864 44.8641C112.76 44.3787 113.75 44.1267 114.832 44.1081C115.896 44.0707 116.867 44.2574 117.744 44.6681C118.64 45.0787 119.35 45.6761 119.872 46.4601C120.395 47.2254 120.656 48.1587 120.656 49.2601C120.656 50.2867 120.386 51.2014 119.844 52.0041C119.322 52.8067 118.622 53.4507 117.744 53.9361C116.867 54.4027 115.887 54.6547 114.804 54.6921ZM114.832 53.4041C116.046 53.3481 117.026 52.9654 117.772 52.2561C118.538 51.5467 118.92 50.5481 118.92 49.2601C118.92 47.9161 118.538 46.9174 117.772 46.2641C117.007 45.5921 116.018 45.2934 114.804 45.3681C113.591 45.4427 112.574 45.8441 111.752 46.5721C110.95 47.2814 110.548 48.2427 110.548 49.4561C110.548 50.7441 110.95 51.7427 111.752 52.4521C112.574 53.1614 113.6 53.4787 114.832 53.4041ZM126.564 60.5161C126.396 60.5161 126.294 60.4227 126.256 60.2361C126.219 60.0494 126.182 59.7507 126.144 59.3401C126.126 58.9294 126.116 58.5094 126.116 58.0801C126.116 57.6507 126.116 57.3147 126.116 57.0721V44.7801C126.116 44.2201 126.088 43.7814 126.032 43.4641C125.995 43.1467 125.883 42.8761 125.696 42.6521C125.51 42.4281 125.192 42.1854 124.744 41.9241C124.539 41.7747 124.492 41.6067 124.604 41.4201C124.772 41.1401 124.987 41.0001 125.248 41.0001C125.528 41.0001 125.902 41.1027 126.368 41.3081C126.854 41.5134 127.246 41.7094 127.544 41.8961C127.768 42.0267 127.871 42.2041 127.852 42.4281C127.796 42.7454 127.759 43.0627 127.74 43.3801C127.722 43.6974 127.712 44.0521 127.712 44.4441V56.8761C127.712 57.1374 127.694 57.4734 127.656 57.8841C127.638 58.2761 127.591 58.6774 127.516 59.0881C127.442 59.4987 127.33 59.8441 127.18 60.1241C127.031 60.3854 126.826 60.5161 126.564 60.5161ZM118.332 66.5361C117.399 66.5361 116.708 66.2934 116.26 65.8081C115.812 65.3227 115.588 64.6507 115.588 63.7921V61.9441C115.588 61.3467 115.532 60.8894 115.42 60.5721C115.308 60.2547 115.01 59.9934 114.524 59.7881C114.412 59.7507 114.338 59.6761 114.3 59.5641C114.282 59.4521 114.282 59.3494 114.3 59.2561C114.431 58.8827 114.674 58.7241 115.028 58.7801C115.327 58.8174 115.663 58.9201 116.036 59.0881C116.41 59.2374 116.736 59.3961 117.016 59.5641C117.259 59.7134 117.362 59.8627 117.324 60.0121C117.306 60.1427 117.278 60.3761 117.24 60.7121C117.203 61.0481 117.184 61.3747 117.184 61.6921V63.6521C117.184 64.3054 117.296 64.7534 117.52 64.9961C117.763 65.2201 118.08 65.3507 118.472 65.3881C118.696 65.4067 119.051 65.4161 119.536 65.4161C120.04 65.4161 120.591 65.4067 121.188 65.3881C121.786 65.3694 122.364 65.3507 122.924 65.3321C123.503 65.3134 123.97 65.2947 124.324 65.2761C125.295 65.2201 126.116 65.1267 126.788 64.9961C127.479 64.8654 127.983 64.7534 128.3 64.6601C128.711 64.5294 129 64.5854 129.168 64.8281C129.262 64.9774 129.364 65.1547 129.476 65.3601C129.588 65.5654 129.654 65.7334 129.672 65.8641C129.691 65.9947 129.626 66.1161 129.476 66.2281C129.346 66.3587 129.243 66.4241 129.168 66.4241C128.515 66.3867 127.955 66.3587 127.488 66.3401C127.022 66.3401 126.527 66.3401 126.004 66.3401C125.482 66.3587 124.81 66.3867 123.988 66.4241C123.036 66.4614 122.084 66.4894 121.132 66.5081C120.18 66.5267 119.247 66.5361 118.332 66.5361ZM141.659 66.7321C140.838 66.7507 140.222 66.5921 139.811 66.2561C139.401 65.9387 139.195 65.3694 139.195 64.5481V63.1761C139.195 63.0827 139.186 62.9894 139.167 62.8961C139.167 62.8027 139.13 62.7374 139.055 62.7001C138.869 62.6067 138.654 62.4761 138.411 62.3081C138.169 62.1214 138.019 61.9814 137.963 61.8881C137.907 61.7947 137.926 61.6547 138.019 61.4681C138.131 61.2627 138.243 61.1787 138.355 61.2161C138.673 61.2907 139.018 61.3467 139.391 61.3841C139.765 61.4027 140.185 61.4214 140.651 61.4401C140.969 61.4401 141.426 61.4401 142.023 61.4401C142.621 61.4214 143.283 61.4121 144.011 61.4121C144.739 61.3934 145.477 61.3747 146.223 61.3561C146.97 61.3187 147.642 61.2907 148.239 61.2721C148.855 61.2347 149.331 61.1974 149.667 61.1601C149.686 61.0481 149.705 60.8427 149.723 60.5441C149.761 60.2267 149.789 59.8814 149.807 59.5081C149.845 59.1347 149.863 58.8081 149.863 58.5281C149.863 58.4161 149.845 58.3507 149.807 58.3321C149.77 58.3134 149.705 58.3041 149.611 58.3041L142.975 58.6401C142.322 58.6587 141.706 58.6961 141.127 58.7521C140.567 58.8081 140.166 58.8547 139.923 58.8921C139.55 58.9481 139.251 58.9014 139.027 58.7521C138.859 58.6401 138.673 58.5001 138.467 58.3321C138.281 58.1641 138.169 58.0334 138.131 57.9401C138.094 57.8281 138.131 57.6974 138.243 57.5481C138.374 57.3801 138.505 57.3147 138.635 57.3521C138.878 57.4081 139.214 57.4547 139.643 57.4921C140.073 57.5294 140.53 57.5667 141.015 57.6041C141.501 57.6227 141.93 57.6321 142.303 57.6321C142.714 57.6321 143.265 57.6227 143.955 57.6041C144.646 57.5854 145.374 57.5574 146.139 57.5201C146.905 57.4827 147.614 57.4267 148.267 57.3521C148.921 57.2774 149.415 57.1841 149.751 57.0721C149.77 57.0721 149.798 57.0627 149.835 57.0441C149.891 57.0441 149.947 57.0441 150.003 57.0441C150.059 57.0254 150.125 57.0254 150.199 57.0441L151.487 57.3521C151.693 57.4081 151.749 57.5574 151.655 57.8001C151.618 57.8747 151.562 58.0521 151.487 58.3321C151.413 58.5934 151.329 58.9014 151.235 59.2561C151.161 59.5921 151.077 59.9187 150.983 60.2361C150.909 60.5534 150.853 60.7961 150.815 60.9641C150.965 61.0574 151.151 61.1787 151.375 61.3281C151.618 61.4587 151.739 61.5707 151.739 61.6641C151.739 61.8134 151.665 61.9814 151.515 62.1681C151.385 62.3361 151.291 62.4107 151.235 62.3921C151.011 62.3734 150.591 62.3641 149.975 62.3641C149.359 62.3454 148.631 62.3361 147.791 62.3361C146.97 62.3361 146.111 62.3454 145.215 62.3641C144.338 62.3641 143.507 62.3827 142.723 62.4201C141.958 62.4574 141.323 62.4947 140.819 62.5321V64.3801C140.819 64.9214 140.885 65.2574 141.015 65.3881C141.146 65.5187 141.398 65.5934 141.771 65.6121C141.827 65.6121 141.949 65.6121 142.135 65.6121C142.509 65.6121 143.022 65.6121 143.675 65.6121C144.347 65.6121 145.066 65.6027 145.831 65.5841C146.597 65.5654 147.334 65.5374 148.043 65.5001C149.014 65.4627 149.789 65.3974 150.367 65.3041C150.965 65.2294 151.478 65.1174 151.907 64.9681C152.15 64.8747 152.327 64.8467 152.439 64.8841C152.551 64.9214 152.663 65.0054 152.775 65.1361C152.906 65.2481 153.027 65.3974 153.139 65.5841C153.251 65.7707 153.317 65.9201 153.335 66.0321C153.354 66.1441 153.289 66.2747 153.139 66.4241C152.99 66.5734 152.878 66.6481 152.803 66.6481C151.907 66.6107 151.142 66.5921 150.507 66.5921C149.873 66.5921 149.154 66.6014 148.351 66.6201C148.295 66.6201 148.23 66.6201 148.155 66.6201C148.081 66.6201 148.006 66.6201 147.931 66.6201L141.659 66.7321ZM139.335 50.0161C138.495 50.0161 138.075 49.4001 138.075 48.1681V45.6201C138.075 44.9854 137.991 44.5094 137.823 44.1921C137.674 43.8561 137.31 43.5667 136.731 43.3241C136.526 43.2307 136.47 43.0721 136.563 42.8481C136.713 42.4747 136.965 42.3067 137.319 42.3441C137.543 42.3627 137.851 42.4187 138.243 42.5121C138.635 42.5867 138.962 42.6707 139.223 42.7641C139.578 42.7641 140.073 42.7547 140.707 42.7361C141.342 42.7174 142.014 42.6987 142.723 42.6801C143.451 42.6614 144.114 42.6427 144.711 42.6241C145.327 42.6054 145.775 42.5867 146.055 42.5681C147.007 42.5121 147.903 42.4281 148.743 42.3161C149.583 42.2041 150.143 42.1014 150.423 42.0081C150.666 41.9147 150.834 41.8961 150.927 41.9521C151.039 42.0081 151.151 42.0921 151.263 42.2041C151.357 42.2974 151.459 42.4374 151.571 42.6241C151.683 42.7921 151.739 42.9321 151.739 43.0441C151.739 43.1747 151.683 43.2961 151.571 43.4081C151.459 43.5201 151.366 43.5761 151.291 43.5761C150.881 43.5387 150.47 43.5201 150.059 43.5201C149.667 43.5014 149.21 43.5014 148.687 43.5201C148.165 43.5201 147.502 43.5387 146.699 43.5761C146.326 43.5947 145.831 43.6134 145.215 43.6321C144.618 43.6507 143.974 43.6694 143.283 43.6881C142.593 43.7067 141.93 43.7254 141.295 43.7441C140.661 43.7627 140.119 43.7814 139.671 43.8001V47.9721C139.671 48.3454 139.718 48.5974 139.811 48.7281C139.905 48.8587 140.138 48.9241 140.511 48.9241C141.557 48.9241 142.509 48.9241 143.367 48.9241C144.245 48.9054 145.197 48.8681 146.223 48.8121C147.306 48.7561 148.221 48.6907 148.967 48.6161C149.733 48.5227 150.33 48.4107 150.759 48.2801C150.983 48.2054 151.161 48.1774 151.291 48.1961C151.422 48.1961 151.534 48.2707 151.627 48.4201C151.721 48.5507 151.814 48.6907 151.907 48.8401C152.001 48.9894 152.057 49.1201 152.075 49.2321C152.113 49.3441 152.057 49.4747 151.907 49.6241C151.758 49.7547 151.646 49.8201 151.571 49.8201C150.937 49.7827 150.367 49.7641 149.863 49.7641C149.378 49.7641 148.865 49.7734 148.323 49.7921C147.782 49.7921 147.101 49.8107 146.279 49.8481C145.159 49.8854 143.993 49.9227 142.779 49.9601C141.566 49.9787 140.418 49.9974 139.335 50.0161ZM134.435 55.1401C134.249 55.1401 134.043 55.0561 133.819 54.8881C133.726 54.8134 133.586 54.7014 133.399 54.5521C133.231 54.3841 133.073 54.2254 132.923 54.0761C132.774 53.9081 132.681 53.7961 132.643 53.7401C132.606 53.6467 132.625 53.5254 132.699 53.3761C132.793 53.2267 132.905 53.1521 133.035 53.1521C133.577 53.2454 134.221 53.3294 134.967 53.4041C135.733 53.4601 136.685 53.4881 137.823 53.4881C138.514 53.4881 139.382 53.4787 140.427 53.4601C141.491 53.4227 142.621 53.3854 143.815 53.3481C145.029 53.3107 146.205 53.2734 147.343 53.2361C148.501 53.1801 149.518 53.1241 150.395 53.0681C150.881 53.0307 151.431 52.9934 152.047 52.9561C152.682 52.9001 153.279 52.8347 153.839 52.7601C154.399 52.6854 154.819 52.6201 155.099 52.5641C155.417 52.4894 155.631 52.4334 155.743 52.3961C155.874 52.3587 155.986 52.3401 156.079 52.3401C156.21 52.3401 156.359 52.4521 156.527 52.6761C156.621 52.8254 156.714 53.0027 156.807 53.2081C156.919 53.3947 156.975 53.5534 156.975 53.6841C156.975 53.8521 156.901 53.9827 156.751 54.0761C156.621 54.1694 156.537 54.2161 156.499 54.2161C156.182 54.1787 155.809 54.1601 155.379 54.1601C154.95 54.1414 154.53 54.1321 154.119 54.1321C153.727 54.1134 153.401 54.1041 153.139 54.1041C152.691 54.1041 152.075 54.1134 151.291 54.1321C150.526 54.1507 149.667 54.1787 148.715 54.2161C147.763 54.2347 146.793 54.2627 145.803 54.3001C144.814 54.3374 143.862 54.3747 142.947 54.4121C142.051 54.4494 141.267 54.4867 140.595 54.5241C139.942 54.5427 139.466 54.5614 139.167 54.5801C138.607 54.5987 138.038 54.6454 137.459 54.7201C136.881 54.7761 136.358 54.8414 135.891 54.9161C135.443 54.9721 135.135 55.0187 134.967 55.0561C134.893 55.0747 134.809 55.0934 134.715 55.1121C134.622 55.1307 134.529 55.1401 134.435 55.1401ZM167.362 53.7401C166.298 53.7587 165.318 53.5721 164.422 53.1801C163.526 52.7694 162.808 52.1907 162.266 51.4441C161.725 50.6787 161.454 49.7921 161.454 48.7841C161.454 47.8134 161.725 46.9454 162.266 46.1801C162.808 45.4147 163.526 44.7987 164.422 44.3321C165.318 43.8654 166.308 43.6227 167.39 43.6041C168.473 43.5667 169.462 43.7441 170.358 44.1361C171.254 44.5281 171.973 45.0974 172.514 45.8441C173.056 46.5907 173.326 47.4961 173.326 48.5601C173.326 49.5307 173.046 50.4081 172.486 51.1921C171.945 51.9574 171.226 52.5641 170.33 53.0121C169.434 53.4601 168.445 53.7027 167.362 53.7401ZM167.39 52.5361C168.585 52.4987 169.584 52.1254 170.386 51.4161C171.208 50.7067 171.618 49.7547 171.618 48.5601C171.618 47.2534 171.208 46.2921 170.386 45.6761C169.584 45.0601 168.576 44.7707 167.362 44.8081C166.149 44.8827 165.122 45.2654 164.282 45.9561C163.461 46.6467 163.05 47.5801 163.05 48.7561C163.05 49.9881 163.47 50.9401 164.31 51.6121C165.15 52.2654 166.177 52.5734 167.39 52.5361ZM178.254 65.6961C178.049 65.6961 177.937 65.6027 177.918 65.4161C177.9 65.2667 177.872 64.9961 177.834 64.6041C177.816 64.1934 177.797 63.7547 177.778 63.2881C177.76 62.8027 177.75 62.3827 177.75 62.0281V44.8641C177.75 44.2854 177.722 43.8374 177.666 43.5201C177.629 43.2027 177.508 42.9414 177.302 42.7361C177.116 42.5121 176.78 42.2787 176.294 42.0361C176.145 41.9427 176.07 41.8494 176.07 41.7561C176.07 41.6627 176.136 41.5414 176.266 41.3921C176.397 41.2241 176.537 41.1401 176.686 41.1401C176.91 41.1401 177.19 41.1961 177.526 41.3081C177.862 41.4201 178.189 41.5507 178.506 41.7001C178.824 41.8307 179.057 41.9521 179.206 42.0641C179.43 42.2321 179.533 42.4187 179.514 42.6241C179.458 43.0161 179.412 43.3801 179.374 43.7161C179.356 44.0521 179.346 44.4441 179.346 44.8921V61.9721C179.346 62.2707 179.328 62.6347 179.29 63.0641C179.272 63.4747 179.225 63.8854 179.15 64.2961C179.076 64.6881 178.964 65.0147 178.814 65.2761C178.684 65.5561 178.497 65.6961 178.254 65.6961ZM161.286 60.1241C161.137 60.1241 160.997 60.0961 160.866 60.0401C160.754 59.9841 160.614 59.9001 160.446 59.7881C160.222 59.6387 159.97 59.4614 159.69 59.2561C159.41 59.0507 159.252 58.8827 159.214 58.7521C159.196 58.6587 159.224 58.5374 159.298 58.3881C159.392 58.2387 159.504 58.1641 159.634 58.1641C160.12 58.2387 160.596 58.2947 161.062 58.3321C161.529 58.3507 161.996 58.3601 162.462 58.3601C163.116 58.3601 163.909 58.3321 164.842 58.2761C165.794 58.2014 166.812 58.0987 167.894 57.9681C168.977 57.8374 170.05 57.6974 171.114 57.5481C172.197 57.3801 173.205 57.2121 174.138 57.0441C175.072 56.8574 175.856 56.6707 176.49 56.4841C176.602 56.4467 176.714 56.4467 176.826 56.4841C176.938 56.5027 176.994 56.5867 176.994 56.7361C176.994 56.8481 176.938 56.9787 176.826 57.1281C176.714 57.2587 176.565 57.3707 176.378 57.4641C176.154 57.5574 175.706 57.6881 175.034 57.8561C174.381 58.0054 173.588 58.1734 172.654 58.3601C171.721 58.5467 170.722 58.7241 169.658 58.8921C168.594 59.0601 167.549 59.2001 166.522 59.3121C165.664 59.4054 164.833 59.4987 164.03 59.5921C163.246 59.6854 162.602 59.8067 162.098 59.9561C161.744 60.0681 161.473 60.1241 161.286 60.1241ZM39.4573 108.376C38.3373 108.376 37.3479 108.171 36.4893 107.76C35.6493 107.368 34.9866 106.817 34.5013 106.108C34.0159 105.417 33.7733 104.615 33.7733 103.7C33.7733 102.804 34.0346 102.001 34.5573 101.292C35.0799 100.564 35.7799 99.9947 36.6573 99.5841C37.5346 99.1547 38.4959 98.9401 39.5413 98.9401C40.6053 98.9401 41.5666 99.1174 42.4253 99.4721C43.3026 99.8267 44.0026 100.349 44.5253 101.04C45.0479 101.731 45.2906 102.58 45.2533 103.588C45.2533 104.521 44.9919 105.352 44.4693 106.08C43.9466 106.808 43.2466 107.368 42.3693 107.76C41.4919 108.171 40.5213 108.376 39.4573 108.376ZM39.4853 107.116C40.6426 107.116 41.6039 106.808 42.3693 106.192C43.1533 105.576 43.5639 104.699 43.6013 103.56C43.6386 102.832 43.4706 102.216 43.0973 101.712C42.7239 101.189 42.2199 100.797 41.5853 100.536C40.9693 100.256 40.2786 100.116 39.5133 100.116C38.7293 100.116 38.0293 100.275 37.4133 100.592C36.7973 100.891 36.3026 101.311 35.9293 101.852C35.5746 102.393 35.3973 103 35.3973 103.672C35.3973 104.736 35.7799 105.576 36.5453 106.192C37.3293 106.808 38.3093 107.116 39.4853 107.116ZM26.3533 97.9321C26.1293 98.0814 25.9053 98.1374 25.6813 98.1001C25.4573 98.0627 25.3079 97.9694 25.2333 97.8201C25.1773 97.6707 25.2706 97.5121 25.5133 97.3441C26.5773 96.5974 27.5386 95.7574 28.3973 94.8241C29.2746 93.8721 30.0213 92.9201 30.6373 91.9681C31.2719 91.0161 31.7666 90.1387 32.1213 89.3361C32.4946 88.5147 32.7186 87.8521 32.7933 87.3481C32.8119 87.1427 32.7653 86.9654 32.6533 86.8161C32.5413 86.6481 32.2986 86.5267 31.9253 86.4521C31.7013 86.4521 31.3653 86.4801 30.9173 86.5361C30.4879 86.5921 30.0399 86.6574 29.5733 86.7321C29.1253 86.7881 28.7519 86.8441 28.4533 86.9001C28.0986 86.9561 27.8559 86.9654 27.7253 86.9281C27.6133 86.8721 27.4919 86.7787 27.3613 86.6481C27.2679 86.5547 27.1373 86.4054 26.9693 86.2001C26.8013 85.9947 26.6893 85.8454 26.6333 85.7521C26.5773 85.6587 26.5959 85.5467 26.6893 85.4161C26.7826 85.2667 26.8946 85.2014 27.0253 85.2201C27.5853 85.3134 28.2013 85.3787 28.8733 85.4161C29.5453 85.4534 30.2173 85.4627 30.8893 85.4441C31.5613 85.4254 32.1586 85.4067 32.6813 85.3881C33.6893 85.3321 34.6319 85.2481 35.5093 85.1361C36.4053 85.0241 37.2173 84.8747 37.9453 84.6881C38.2999 84.6134 38.5333 84.6974 38.6453 84.9401C38.7199 85.0707 38.7946 85.2481 38.8693 85.4721C38.9626 85.6774 39.0093 85.8454 39.0093 85.9761C39.0093 86.0881 38.9439 86.1907 38.8133 86.2841C38.7013 86.3774 38.6266 86.4241 38.5893 86.4241C37.9359 86.3681 37.2079 86.3307 36.4053 86.3121C35.6213 86.2934 34.6506 86.3121 33.4933 86.3681C33.8106 86.5174 34.0906 86.6854 34.3333 86.8721C34.5946 87.0587 34.7066 87.2267 34.6693 87.3761C34.6133 87.7681 34.4546 88.2534 34.1933 88.8321C33.9506 89.3921 33.6333 90.0081 33.2413 90.6801C34.1186 91.5201 35.0053 92.2387 35.9013 92.8361C36.7973 93.4147 37.5719 93.8814 38.2253 94.2361C38.4493 94.4041 38.6266 94.7121 38.7573 95.1601C38.9066 95.5894 38.9533 95.9907 38.8973 96.3641C38.8599 96.6067 38.6919 96.7747 38.3933 96.8681C38.1133 96.9427 37.9546 96.9427 37.9173 96.8681C37.5439 96.3267 37.0493 95.7201 36.4333 95.0481C35.8173 94.3761 35.1733 93.7227 34.5013 93.0881C33.8479 92.4347 33.2599 91.8841 32.7373 91.4361C31.9719 92.5934 31.0386 93.7601 29.9373 94.9361C28.8546 96.0934 27.6599 97.0921 26.3533 97.9321ZM43.9653 98.6321C43.7973 98.6321 43.6946 98.5387 43.6573 98.3521C43.6199 98.1654 43.5826 97.8854 43.5453 97.5121C43.5266 97.1201 43.5173 96.7187 43.5173 96.3081C43.5173 95.8974 43.5173 95.5707 43.5173 95.3281V90.7081L43.1533 90.7361C42.4439 90.7734 41.8746 90.8201 41.4453 90.8761C41.0346 90.9321 40.6799 90.9881 40.3813 91.0441C40.0826 91.1001 39.7466 91.1654 39.3733 91.2401C39.0186 91.3147 38.7106 91.2774 38.4493 91.1281C38.3186 91.0534 38.1133 90.9134 37.8333 90.7081C37.5719 90.4841 37.4319 90.3254 37.4133 90.2321C37.3946 90.1387 37.4319 90.0174 37.5253 89.8681C37.6373 89.7001 37.7586 89.6347 37.8893 89.6721C38.2066 89.7094 38.7479 89.7561 39.5133 89.8121C40.2973 89.8681 41.3053 89.8494 42.5373 89.7561L43.5173 89.6721V85.7801C43.5173 85.2201 43.4893 84.7814 43.4333 84.4641C43.3959 84.1467 43.2746 83.8761 43.0693 83.6521C42.8826 83.4281 42.5653 83.1854 42.1173 82.9241C41.9306 82.7934 41.8839 82.6254 41.9773 82.4201C42.1453 82.1401 42.3693 82.0001 42.6493 82.0001C42.9293 82.0001 43.3026 82.1027 43.7693 82.3081C44.2359 82.5134 44.6186 82.7094 44.9173 82.8961C45.0106 82.9521 45.0946 83.0267 45.1693 83.1201C45.2439 83.2134 45.2719 83.3161 45.2533 83.4281C45.1973 83.7454 45.1599 84.0627 45.1413 84.3801C45.1226 84.6974 45.1133 85.0521 45.1133 85.4441V95.1321C45.1133 95.4121 45.0946 95.7481 45.0573 96.1401C45.0386 96.5321 44.9826 96.9241 44.8893 97.3161C44.8146 97.6894 44.7026 98.0067 44.5533 98.2681C44.4039 98.5107 44.2079 98.6321 43.9653 98.6321ZM64.094 108.376C62.974 108.376 61.9847 108.171 61.126 107.76C60.286 107.368 59.6233 106.817 59.138 106.108C58.6527 105.417 58.41 104.615 58.41 103.7C58.41 102.804 58.6713 102.001 59.194 101.292C59.7167 100.564 60.4167 99.9947 61.294 99.5841C62.1713 99.1547 63.1327 98.9401 64.178 98.9401C65.242 98.9401 66.2033 99.1174 67.062 99.4721C67.9393 99.8267 68.6393 100.349 69.162 101.04C69.6847 101.731 69.9273 102.58 69.89 103.588C69.89 104.521 69.6287 105.352 69.106 106.08C68.5833 106.808 67.8833 107.368 67.006 107.76C66.1287 108.171 65.158 108.376 64.094 108.376ZM64.122 107.116C65.2793 107.116 66.2407 106.808 67.006 106.192C67.79 105.576 68.2007 104.699 68.238 103.56C68.2753 102.832 68.1073 102.216 67.734 101.712C67.3607 101.189 66.8567 100.797 66.222 100.536C65.606 100.256 64.9153 100.116 64.15 100.116C63.366 100.116 62.666 100.275 62.05 100.592C61.434 100.891 60.9393 101.311 60.566 101.852C60.2113 102.393 60.034 103 60.034 103.672C60.034 104.736 60.4167 105.576 61.182 106.192C61.966 106.808 62.946 107.116 64.122 107.116ZM50.15 97.3441C49.9633 97.4374 49.7673 97.4561 49.562 97.4001C49.3753 97.3441 49.2447 97.2507 49.17 97.1201C49.114 96.9707 49.1887 96.8307 49.394 96.7001C50.1033 96.2707 50.8313 95.6921 51.578 94.9641C52.3433 94.2361 53.0807 93.4241 53.79 92.5281C54.518 91.6321 55.162 90.7174 55.722 89.7841C56.3007 88.8507 56.7487 87.9641 57.066 87.1241C57.3833 86.3027 57.4953 85.7427 57.402 85.4441C57.3087 85.1454 57.1313 84.9121 56.87 84.7441C56.6273 84.5947 56.562 84.4081 56.674 84.1841C56.8047 83.9414 56.9447 83.8014 57.094 83.7641C57.262 83.7267 57.458 83.7547 57.682 83.8481C57.9247 83.9227 58.214 84.0627 58.55 84.2681C58.886 84.4547 59.138 84.6134 59.306 84.7441C59.4927 84.8747 59.6233 85.0147 59.698 85.1641C59.7727 85.3134 59.7913 85.4254 59.754 85.5001C59.642 85.7054 59.53 85.9014 59.418 86.0881C59.306 86.2561 59.1847 86.4801 59.054 86.7601C58.9233 87.0401 58.7367 87.4414 58.494 87.9641C58.3447 88.3187 58.158 88.6827 57.934 89.0561C57.7287 89.4294 57.4953 89.8027 57.234 90.1761C58.3167 91.2027 59.2873 91.9867 60.146 92.5281C61.0047 93.0507 61.7327 93.4707 62.33 93.7881C62.5913 93.9934 62.7873 94.3201 62.918 94.7681C63.0673 95.1974 63.114 95.5894 63.058 95.9441C62.9833 96.1494 62.806 96.3174 62.526 96.4481C62.2647 96.5787 62.106 96.5974 62.05 96.5041C61.7513 96.0561 61.3687 95.5801 60.902 95.0761C60.454 94.5534 59.9687 94.0401 59.446 93.5361C58.942 93.0134 58.438 92.5374 57.934 92.1081C57.4487 91.6601 57.0287 91.2867 56.674 90.9881C56.058 91.8467 55.3767 92.6961 54.63 93.5361C53.8833 94.3574 53.1273 95.1041 52.362 95.7761C51.5967 96.4294 50.8593 96.9521 50.15 97.3441ZM68.602 98.6321C68.434 98.6321 68.3313 98.5387 68.294 98.3521C68.2567 98.1654 68.2193 97.8854 68.182 97.5121C68.1633 97.1201 68.154 96.7187 68.154 96.3081C68.154 95.8974 68.154 95.5707 68.154 95.3281V89.7841L67.678 89.8121C66.9687 89.8494 66.3993 89.8961 65.97 89.9521C65.5593 90.0081 65.2047 90.0641 64.906 90.1201C64.6073 90.1761 64.2713 90.2414 63.898 90.3161C63.6927 90.3534 63.5247 90.3721 63.394 90.3721C63.282 90.3534 63.1513 90.2974 63.002 90.2041C62.8713 90.1481 62.666 90.0267 62.386 89.8401C62.1247 89.6347 61.9753 89.4854 61.938 89.3921C61.9007 89.2987 61.938 89.1681 62.05 89.0001C62.162 88.8321 62.2833 88.7667 62.414 88.8041C62.7313 88.8601 63.2727 88.9067 64.038 88.9441C64.822 88.9814 65.83 88.9534 67.062 88.8601L68.154 88.7761V85.7801C68.154 85.2201 68.126 84.7814 68.07 84.4641C68.0327 84.1467 67.9113 83.8761 67.706 83.6521C67.5193 83.4281 67.202 83.1854 66.754 82.9241C66.5673 82.7934 66.5207 82.6254 66.614 82.4201C66.782 82.1401 67.006 82.0001 67.286 82.0001C67.566 82.0001 67.9393 82.1027 68.406 82.3081C68.8727 82.5134 69.2553 82.7094 69.554 82.8961C69.6473 82.9521 69.7313 83.0267 69.806 83.1201C69.8807 83.2134 69.9087 83.3161 69.89 83.4281C69.834 83.7454 69.7967 84.0627 69.778 84.3801C69.7593 84.6974 69.75 85.0521 69.75 85.4441V95.1321C69.75 95.4121 69.7313 95.7481 69.694 96.1401C69.6753 96.5321 69.6193 96.9241 69.526 97.3161C69.4513 97.6894 69.3393 98.0067 69.19 98.2681C69.0407 98.5107 68.8447 98.6321 68.602 98.6321ZM92.8467 106.668C92.6974 106.724 92.5854 106.724 92.5107 106.668C92.4547 106.612 92.4174 106.547 92.3987 106.472C92.3614 106.323 92.3241 106.043 92.2867 105.632C92.2494 105.221 92.2214 104.773 92.2027 104.288C92.2027 103.803 92.2027 103.383 92.2027 103.028V85.8921C92.2027 85.3134 92.1747 84.8654 92.1187 84.5481C92.0814 84.2307 91.9601 83.9694 91.7547 83.7641C91.5494 83.5401 91.2041 83.3067 90.7187 83.0641C90.5134 82.9521 90.4761 82.7841 90.6067 82.5601C90.7001 82.3734 90.8027 82.2614 90.9147 82.2241C91.0454 82.1681 91.1947 82.1494 91.3627 82.1681C91.5867 82.1867 91.8481 82.2614 92.1467 82.3921C92.4641 82.5041 92.7627 82.6254 93.0427 82.7561C93.3227 82.8867 93.5187 82.9987 93.6307 83.0921C93.7241 83.1667 93.8081 83.2507 93.8827 83.3441C93.9574 83.4374 93.9854 83.5401 93.9667 83.6521C93.9107 84.0441 93.8641 84.4081 93.8267 84.7441C93.8081 85.0801 93.7987 85.4721 93.7987 85.9201V93.9281C94.7881 93.9281 95.6561 93.8534 96.4027 93.7041C97.1681 93.5361 97.7001 93.4054 97.9987 93.3121C98.2041 93.2374 98.3534 93.2281 98.4467 93.2841C98.5401 93.3401 98.6334 93.4334 98.7267 93.5641C98.8014 93.6761 98.8854 93.8721 98.9787 94.1521C99.0907 94.4134 99.1467 94.6001 99.1467 94.7121C99.1467 94.8241 99.0814 94.9267 98.9507 95.0201C98.8387 95.1134 98.7641 95.1601 98.7267 95.1601C98.0361 95.0667 97.2987 95.0201 96.5147 95.0201C95.7494 95.0014 95.0121 94.9921 94.3027 94.9921C94.2281 94.9921 94.1441 94.9921 94.0507 94.9921C93.9761 94.9921 93.8921 94.9921 93.7987 94.9921V102.972C93.7987 103.345 93.7707 103.812 93.7147 104.372C93.6587 104.913 93.5654 105.417 93.4347 105.884C93.3041 106.332 93.1081 106.593 92.8467 106.668ZM77.1107 100.844C76.7374 100.956 76.4574 101.003 76.2707 100.984C76.0841 100.965 75.8694 100.891 75.6267 100.76C75.4401 100.648 75.1694 100.48 74.8147 100.256C74.4787 100.013 74.2921 99.8267 74.2547 99.6961C74.1987 99.5841 74.2174 99.4534 74.3107 99.3041C74.4041 99.1361 74.5161 99.0521 74.6467 99.0521C75.3187 99.1267 76.0561 99.1734 76.8587 99.1921C77.6614 99.2107 78.3801 99.2014 79.0147 99.1641L80.5267 99.0801V95.3561C80.5267 94.8147 80.4801 94.3294 80.3867 93.9001C80.3121 93.4521 80.0227 93.0881 79.5187 92.8081C79.3321 92.6961 79.3041 92.5187 79.4347 92.2761C79.6214 91.9774 79.8921 91.8561 80.2467 91.9121C80.5454 92.0054 80.8161 92.1267 81.0587 92.2761C81.3014 92.4067 81.5254 92.5561 81.7307 92.7241C81.9734 92.9107 82.0854 93.0601 82.0667 93.1721C81.9921 93.4334 81.9454 93.7414 81.9267 94.0961C81.9267 94.4507 81.9174 94.8147 81.8987 95.1881C81.8987 95.4121 81.8894 95.7574 81.8707 96.2241C81.8707 96.6907 81.8614 97.1761 81.8427 97.6801C81.8241 98.1841 81.8147 98.6134 81.8147 98.9681C84.3907 98.7441 86.4254 98.4734 87.9187 98.1561C89.4307 97.8201 90.4574 97.5681 90.9987 97.4001C91.2227 97.3254 91.3721 97.3534 91.4467 97.4841C91.5214 97.5961 91.5214 97.7454 91.4467 97.9321C91.3721 98.1001 91.2227 98.2401 90.9987 98.3521C90.4014 98.5761 89.3561 98.8561 87.8627 99.1921C86.3881 99.5094 84.3441 99.8267 81.7307 100.144C81.2454 100.181 80.7041 100.237 80.1067 100.312C79.5094 100.387 78.9401 100.471 78.3987 100.564C77.8761 100.639 77.4467 100.732 77.1107 100.844ZM86.1267 95.7201C85.9961 95.7387 85.9027 95.7107 85.8467 95.6361C85.8094 95.5427 85.8187 95.3374 85.8747 95.0201C85.9494 94.4974 86.0521 93.7881 86.1827 92.8921C86.3134 91.9961 86.4441 91.0254 86.5747 89.9801C86.7054 88.9161 86.8081 87.9174 86.8827 86.9841C86.9014 86.8347 86.8641 86.7507 86.7707 86.7321C86.6961 86.6947 86.6401 86.6761 86.6027 86.6761C86.5841 86.6761 86.5747 86.6761 86.5747 86.6761C86.2761 86.6761 85.8654 86.6947 85.3427 86.7321C84.8201 86.7507 84.2974 86.7787 83.7747 86.8161C83.2521 86.8347 82.8414 86.8627 82.5427 86.9001C81.7401 86.9561 81.0027 87.0121 80.3307 87.0681C79.6774 87.1241 79.0801 87.2267 78.5387 87.3761C78.1841 87.4507 77.9414 87.4694 77.8107 87.4321C77.6801 87.3761 77.5307 87.2921 77.3627 87.1801C77.3441 87.1614 77.3347 87.1521 77.3347 87.1521C76.9241 86.7974 76.6347 86.5081 76.4667 86.2841C76.4107 86.1907 76.4387 86.0694 76.5507 85.9201C76.6814 85.7521 76.8027 85.6867 76.9147 85.7241C77.2881 85.8174 77.7827 85.8827 78.3987 85.9201C79.0147 85.9387 79.6681 85.9387 80.3587 85.9201C81.0681 85.9014 81.7121 85.8827 82.2907 85.8641C82.8507 85.8267 83.4201 85.7801 83.9987 85.7241C84.5961 85.6681 85.1467 85.6027 85.6507 85.5281C86.1734 85.4347 86.5841 85.3414 86.8827 85.2481C86.9947 85.1734 87.1347 85.1734 87.3027 85.2481L88.7867 85.7241C88.9921 85.8174 89.0387 85.9947 88.9267 86.2561C88.8521 86.4987 88.7774 86.8067 88.7027 87.1801C88.6281 87.5347 88.5627 87.8801 88.5067 88.2161C88.4507 88.5334 88.4041 88.7667 88.3667 88.9161C88.2361 89.6254 88.0961 90.3907 87.9467 91.2121C87.8161 92.0334 87.6201 92.9481 87.3587 93.9561C87.2094 94.5534 87.0321 94.9921 86.8267 95.2721C86.6401 95.5334 86.4067 95.6827 86.1267 95.7201ZM116.675 97.2041C115.555 97.2227 114.537 97.0081 113.623 96.5601C112.708 96.1121 111.98 95.4774 111.439 94.6561C110.897 93.8161 110.627 92.8641 110.627 91.8001C110.627 90.7547 110.897 89.8214 111.439 89.0001C111.98 88.1601 112.708 87.4881 113.623 86.9841C114.556 86.4801 115.583 86.2187 116.703 86.2001C117.823 86.1627 118.831 86.3494 119.727 86.7601C120.641 87.1707 121.369 87.7774 121.911 88.5801C122.452 89.3827 122.723 90.3721 122.723 91.5481C122.723 92.6121 122.452 93.5734 121.911 94.4321C121.369 95.2721 120.641 95.9347 119.727 96.4201C118.812 96.9054 117.795 97.1667 116.675 97.2041ZM116.703 95.8041C117.524 95.7667 118.261 95.5707 118.915 95.2161C119.568 94.8427 120.081 94.3481 120.455 93.7321C120.847 93.0974 121.043 92.3787 121.043 91.5761C121.043 90.6987 120.847 89.9521 120.455 89.3361C120.063 88.7201 119.54 88.2534 118.887 87.9361C118.233 87.6001 117.505 87.4507 116.703 87.4881C115.9 87.4881 115.163 87.6841 114.491 88.0761C113.819 88.4494 113.277 88.9627 112.867 89.6161C112.475 90.2507 112.279 90.9694 112.279 91.7721C112.279 92.6121 112.475 93.3494 112.867 93.9841C113.277 94.6001 113.819 95.0667 114.491 95.3841C115.163 95.7014 115.9 95.8414 116.703 95.8041ZM128.127 106.696C127.921 106.696 127.809 106.603 127.791 106.416C127.772 106.267 127.744 105.996 127.707 105.604C127.688 105.193 127.669 104.755 127.651 104.288C127.632 103.803 127.623 103.383 127.623 103.028V85.8641C127.623 85.2854 127.595 84.8374 127.539 84.5201C127.501 84.2027 127.38 83.9414 127.175 83.7361C126.988 83.5121 126.652 83.2787 126.167 83.0361C126.017 82.9427 125.943 82.8494 125.943 82.7561C125.943 82.6627 126.008 82.5414 126.139 82.3921C126.269 82.2241 126.409 82.1401 126.559 82.1401C126.783 82.1401 127.063 82.1961 127.399 82.3081C127.735 82.4201 128.061 82.5507 128.379 82.7001C128.696 82.8307 128.929 82.9521 129.079 83.0641C129.303 83.2321 129.405 83.4187 129.387 83.6241C129.331 84.0161 129.284 84.3801 129.247 84.7161C129.228 85.0521 129.219 85.4441 129.219 85.8921V102.972C129.219 103.271 129.2 103.635 129.163 104.064C129.144 104.475 129.097 104.885 129.023 105.296C128.948 105.688 128.836 106.015 128.687 106.276C128.556 106.556 128.369 106.696 128.127 106.696ZM140.758 97.2041C139.657 97.2227 138.639 97.0081 137.706 96.5601C136.791 96.1121 136.063 95.4774 135.522 94.6561C134.981 93.8161 134.71 92.8641 134.71 91.8001C134.71 90.7547 134.981 89.8214 135.522 89.0001C136.063 88.1601 136.791 87.4881 137.706 86.9841C138.639 86.4801 139.666 86.2187 140.786 86.2001C141.906 86.1627 142.914 86.3494 143.81 86.7601C144.725 87.1707 145.453 87.7774 145.994 88.5801C146.535 89.3827 146.806 90.3721 146.806 91.5481C146.806 92.6121 146.535 93.5734 145.994 94.4321C145.453 95.2721 144.725 95.9347 143.81 96.4201C142.895 96.9054 141.878 97.1667 140.758 97.2041ZM140.786 95.8041C141.607 95.7667 142.345 95.5707 142.998 95.2161C143.651 94.8427 144.165 94.3481 144.538 93.7321C144.93 93.0974 145.126 92.3787 145.126 91.5761C145.126 90.6987 144.93 89.9521 144.538 89.3361C144.146 88.7201 143.623 88.2534 142.97 87.9361C142.317 87.6001 141.589 87.4507 140.786 87.4881C139.983 87.4881 139.246 87.6841 138.574 88.0761C137.902 88.4494 137.361 88.9627 136.95 89.6161C136.558 90.2507 136.362 90.9694 136.362 91.7721C136.362 92.6121 136.558 93.3494 136.95 93.9841C137.361 94.6001 137.902 95.0667 138.574 95.3841C139.246 95.7014 139.983 95.8414 140.786 95.8041ZM151.93 106.696C151.725 106.696 151.613 106.603 151.594 106.416C151.575 106.267 151.547 105.996 151.51 105.604C151.491 105.193 151.473 104.755 151.454 104.288C151.435 103.803 151.426 103.383 151.426 103.028V85.8641C151.426 85.2854 151.398 84.8374 151.342 84.5201C151.305 84.2027 151.183 83.9414 150.978 83.7361C150.791 83.5121 150.455 83.2787 149.97 83.0361C149.821 82.9427 149.746 82.8494 149.746 82.7561C149.746 82.6627 149.811 82.5414 149.942 82.3921C150.073 82.2241 150.213 82.1401 150.362 82.1401C150.586 82.1401 150.866 82.1961 151.202 82.3081C151.538 82.4201 151.865 82.5507 152.182 82.7001C152.499 82.8307 152.733 82.9521 152.882 83.0641C153.106 83.2321 153.209 83.4187 153.19 83.6241C153.134 84.0161 153.087 84.3801 153.05 84.7161C153.031 85.0521 153.022 85.4441 153.022 85.8921V89.4761C153.993 89.4574 154.851 89.3547 155.598 89.1681C156.345 88.9627 156.867 88.8134 157.166 88.7201C157.222 88.7014 157.269 88.6921 157.306 88.6921C157.362 88.6734 157.409 88.6641 157.446 88.6641C157.633 88.6641 157.782 88.7667 157.894 88.9721C157.969 89.1027 158.043 89.2894 158.118 89.5321C158.211 89.7747 158.258 89.9614 158.258 90.0921C158.258 90.2041 158.193 90.3067 158.062 90.4001C157.95 90.4747 157.875 90.5121 157.838 90.5121C157.539 90.4747 157.241 90.4561 156.942 90.4561C156.662 90.4561 156.373 90.4561 156.074 90.4561C155.57 90.4561 155.066 90.4654 154.562 90.4841C154.058 90.4841 153.545 90.4934 153.022 90.5121V95.9721C154.011 95.9721 154.879 95.9067 155.626 95.7761C156.391 95.6454 156.923 95.5334 157.222 95.4401C157.278 95.4214 157.325 95.4121 157.362 95.4121C157.418 95.3934 157.465 95.3841 157.502 95.3841C157.614 95.3841 157.698 95.4121 157.754 95.4681C157.81 95.5241 157.866 95.5987 157.922 95.6921C158.015 95.8041 158.109 96.0001 158.202 96.2801C158.314 96.5414 158.37 96.7281 158.37 96.8401C158.37 96.9521 158.305 97.0547 158.174 97.1481C158.062 97.2414 157.978 97.2881 157.922 97.2881C157.157 97.1947 156.354 97.1294 155.514 97.0921C154.674 97.0547 153.843 97.0361 153.022 97.0361V102.972C153.022 103.271 153.003 103.635 152.966 104.064C152.947 104.475 152.901 104.885 152.826 105.296C152.751 105.688 152.639 106.015 152.49 106.276C152.359 106.556 152.173 106.696 151.93 106.696ZM161.21 101.936C160.967 102.048 160.734 102.076 160.51 102.02C160.286 101.945 160.146 101.833 160.09 101.684C160.034 101.516 160.146 101.357 160.426 101.208C161.565 100.536 162.703 99.6961 163.842 98.6881C164.999 97.6801 166.082 96.5694 167.09 95.3561C168.098 94.1427 168.957 92.8641 169.666 91.5201C170.394 90.1761 170.898 88.8321 171.178 87.4881C171.215 87.3014 171.178 87.1987 171.066 87.1801C170.954 87.1427 170.879 87.1241 170.842 87.1241C170.543 87.1241 170.114 87.1427 169.554 87.1801C168.994 87.1987 168.425 87.2267 167.846 87.2641C167.286 87.2827 166.857 87.3107 166.558 87.3481C165.737 87.4227 165.083 87.4787 164.598 87.5161C164.113 87.5534 163.59 87.6281 163.03 87.7401C162.731 87.7961 162.517 87.8054 162.386 87.7681C162.274 87.7307 162.143 87.6374 161.994 87.4881C161.602 87.0961 161.331 86.7694 161.182 86.5081C161.126 86.4147 161.145 86.2934 161.238 86.1441C161.331 85.9947 161.434 85.9387 161.546 85.9761C162.087 86.0881 162.806 86.1721 163.702 86.2281C164.598 86.2654 165.485 86.2561 166.362 86.2001C166.903 86.1627 167.482 86.1254 168.098 86.0881C168.714 86.0321 169.293 85.9574 169.834 85.8641C170.394 85.7707 170.833 85.6681 171.15 85.5561C171.15 85.5561 171.159 85.5561 171.178 85.5561C171.253 85.5374 171.309 85.5281 171.346 85.5281C171.402 85.5281 171.477 85.5374 171.57 85.5561L173.334 86.1161C173.409 86.1534 173.465 86.2187 173.502 86.3121C173.539 86.4054 173.53 86.5081 173.474 86.6201L172.914 88.1881C172.447 89.5321 171.794 90.8854 170.954 92.2481C170.114 93.6107 169.153 94.9174 168.07 96.1681C167.006 97.4187 165.886 98.5481 164.71 99.5561C163.534 100.545 162.367 101.339 161.21 101.936ZM178.262 106.696C178.057 106.696 177.945 106.603 177.926 106.416C177.907 106.267 177.879 105.996 177.842 105.604C177.823 105.193 177.805 104.755 177.786 104.288C177.767 103.803 177.758 103.383 177.758 103.028V85.8641C177.758 85.2854 177.73 84.8374 177.674 84.5201C177.637 84.2027 177.515 83.9414 177.31 83.7361C177.123 83.5121 176.787 83.2787 176.302 83.0361C176.153 82.9427 176.078 82.8494 176.078 82.7561C176.078 82.6627 176.143 82.5414 176.274 82.3921C176.405 82.2241 176.545 82.1401 176.694 82.1401C176.918 82.1401 177.198 82.1961 177.534 82.3081C177.87 82.4201 178.197 82.5507 178.514 82.7001C178.831 82.8307 179.065 82.9521 179.214 83.0641C179.438 83.2321 179.541 83.4187 179.522 83.6241C179.466 84.0161 179.419 84.3801 179.382 84.7161C179.363 85.0521 179.354 85.4441 179.354 85.8921V102.972C179.354 103.271 179.335 103.635 179.298 104.064C179.279 104.475 179.233 104.885 179.158 105.296C179.083 105.688 178.971 106.015 178.822 106.276C178.691 106.556 178.505 106.696 178.262 106.696Z" fill="white"/>
</svg>
