<svg width="215" height="103" viewBox="0 0 215 103" fill="none" xmlns="http://www.w3.org/2000/svg">
<path d="M32.1462 88C31.9115 88 31.6929 87.9147 31.4902 87.744C31.2982 87.5627 31.2022 87.2907 31.2022 86.928C31.2022 86.512 31.2822 86.128 31.4422 85.776C31.6022 85.424 31.7995 85.1253 32.0342 84.88C32.2795 84.6347 32.5195 84.464 32.7542 84.368C32.8395 84.336 32.9142 84.32 32.9782 84.32C33.0635 84.32 33.1329 84.3627 33.1862 84.448L33.3622 84.736C33.0209 84.8853 32.7382 85.104 32.5142 85.392C32.2902 85.68 32.1355 85.9947 32.0502 86.336C32.3062 86.3467 32.5195 86.4267 32.6902 86.576C32.8609 86.7253 32.9462 86.9173 32.9462 87.152C32.9462 87.4293 32.8662 87.6427 32.7062 87.792C32.5462 87.9307 32.3595 88 32.1462 88ZM34.6262 88C34.3915 88 34.1729 87.9147 33.9702 87.744C33.7782 87.5627 33.6822 87.2907 33.6822 86.928C33.6822 86.512 33.7622 86.128 33.9222 85.776C34.0822 85.424 34.2795 85.1253 34.5142 84.88C34.7595 84.6347 34.9995 84.464 35.2342 84.368C35.3195 84.336 35.3942 84.32 35.4582 84.32C35.5435 84.32 35.6129 84.3627 35.6662 84.448L35.8422 84.736C35.5009 84.8853 35.2182 85.104 34.9942 85.392C34.7702 85.68 34.6155 85.9947 34.5302 86.336C34.7862 86.3467 34.9995 86.4267 35.1702 86.576C35.3409 86.7253 35.4262 86.9173 35.4262 87.152C35.4262 87.4293 35.3462 87.6427 35.1862 87.792C35.0262 87.9307 34.8395 88 34.6262 88ZM41.3844 92.928C40.7444 92.9387 40.1631 92.816 39.6404 92.56C39.1178 92.304 38.7018 91.9413 38.3924 91.472C38.0831 90.992 37.9284 90.448 37.9284 89.84C37.9284 89.2427 38.0831 88.7093 38.3924 88.24C38.7018 87.76 39.1178 87.376 39.6404 87.088C40.1738 86.8 40.7604 86.6507 41.4004 86.64C42.0404 86.6187 42.6164 86.7253 43.1284 86.96C43.6511 87.1947 44.0671 87.5413 44.3764 88C44.6858 88.4587 44.8404 89.024 44.8404 89.696C44.8404 90.304 44.6858 90.8533 44.3764 91.344C44.0671 91.824 43.6511 92.2027 43.1284 92.48C42.6058 92.7573 42.0244 92.9067 41.3844 92.928ZM41.4004 92.128C41.8698 92.1067 42.2911 91.9947 42.6644 91.792C43.0378 91.5787 43.3311 91.296 43.5444 90.944C43.7684 90.5813 43.8804 90.1707 43.8804 89.712C43.8804 89.2107 43.7684 88.784 43.5444 88.432C43.3204 88.08 43.0218 87.8133 42.6484 87.632C42.2751 87.44 41.8591 87.3547 41.4004 87.376C40.9418 87.376 40.5204 87.488 40.1364 87.712C39.7524 87.9253 39.4431 88.2187 39.2084 88.592C38.9844 88.9547 38.8724 89.3653 38.8724 89.824C38.8724 90.304 38.9844 90.7253 39.2084 91.088C39.4431 91.44 39.7524 91.7067 40.1364 91.888C40.5204 92.0693 40.9418 92.1493 41.4004 92.128ZM47.9284 98.352C47.8111 98.352 47.7471 98.2987 47.7364 98.192C47.7258 98.1067 47.7098 97.952 47.6884 97.728C47.6778 97.4933 47.6671 97.2427 47.6564 96.976C47.6458 96.6987 47.6404 96.4587 47.6404 96.256V86.448C47.6404 86.1173 47.6244 85.8613 47.5924 85.68C47.5711 85.4987 47.5018 85.3493 47.3844 85.232C47.2778 85.104 47.0858 84.9707 46.8084 84.832C46.7231 84.7787 46.6804 84.7253 46.6804 84.672C46.6804 84.6187 46.7178 84.5493 46.7924 84.464C46.8671 84.368 46.9471 84.32 47.0324 84.32C47.1604 84.32 47.3204 84.352 47.5124 84.416C47.7044 84.48 47.8911 84.5547 48.0724 84.64C48.2538 84.7147 48.3871 84.784 48.4724 84.848C48.6004 84.944 48.6591 85.0507 48.6484 85.168C48.6164 85.392 48.5898 85.6 48.5684 85.792C48.5578 85.984 48.5524 86.208 48.5524 86.464V96.224C48.5524 96.3947 48.5418 96.6027 48.5204 96.848C48.5098 97.0827 48.4831 97.3173 48.4404 97.552C48.3978 97.776 48.3338 97.9627 48.2484 98.112C48.1738 98.272 48.0671 98.352 47.9284 98.352ZM55.1463 92.928C54.517 92.9387 53.9356 92.816 53.4023 92.56C52.8796 92.304 52.4636 91.9413 52.1543 91.472C51.845 90.992 51.6903 90.448 51.6903 89.84C51.6903 89.2427 51.845 88.7093 52.1543 88.24C52.4636 87.76 52.8796 87.376 53.4023 87.088C53.9356 86.8 54.5223 86.6507 55.1623 86.64C55.8023 86.6187 56.3783 86.7253 56.8903 86.96C57.413 87.1947 57.829 87.5413 58.1383 88C58.4476 88.4587 58.6023 89.024 58.6023 89.696C58.6023 90.304 58.4476 90.8533 58.1383 91.344C57.829 91.824 57.413 92.2027 56.8903 92.48C56.3676 92.7573 55.7863 92.9067 55.1463 92.928ZM55.1623 92.128C55.6316 92.1067 56.053 91.9947 56.4263 91.792C56.7996 91.5787 57.093 91.296 57.3063 90.944C57.5303 90.5813 57.6423 90.1707 57.6423 89.712C57.6423 89.2107 57.5303 88.784 57.3063 88.432C57.0823 88.08 56.7836 87.8133 56.4103 87.632C56.037 87.44 55.621 87.3547 55.1623 87.376C54.7036 87.376 54.2823 87.488 53.8983 87.712C53.5143 87.9253 53.205 88.2187 52.9703 88.592C52.7463 88.9547 52.6343 89.3653 52.6343 89.824C52.6343 90.304 52.7463 90.7253 52.9703 91.088C53.205 91.44 53.5143 91.7067 53.8983 91.888C54.2823 92.0693 54.7036 92.1493 55.1623 92.128ZM61.5303 98.352C61.413 98.352 61.349 98.2987 61.3383 98.192C61.3276 98.1067 61.3116 97.952 61.2903 97.728C61.2796 97.4933 61.269 97.2427 61.2583 96.976C61.2476 96.6987 61.2423 96.4587 61.2423 96.256V86.448C61.2423 86.1173 61.2263 85.8613 61.1943 85.68C61.173 85.4987 61.1036 85.3493 60.9863 85.232C60.8796 85.104 60.6876 84.9707 60.4103 84.832C60.325 84.7787 60.2823 84.7253 60.2823 84.672C60.2823 84.6187 60.3196 84.5493 60.3943 84.464C60.469 84.368 60.549 84.32 60.6343 84.32C60.7623 84.32 60.9223 84.352 61.1143 84.416C61.3063 84.48 61.493 84.5547 61.6743 84.64C61.8556 84.7147 61.989 84.784 62.0743 84.848C62.2023 84.944 62.261 85.0507 62.2503 85.168C62.2183 85.392 62.1916 85.6 62.1703 85.792C62.1596 85.984 62.1543 86.208 62.1543 86.464V88.512C62.709 88.5013 63.1996 88.4427 63.6263 88.336C64.053 88.2187 64.3516 88.1333 64.5223 88.08C64.5543 88.0693 64.581 88.064 64.6023 88.064C64.6343 88.0533 64.661 88.048 64.6823 88.048C64.789 88.048 64.8743 88.1067 64.9383 88.224C64.981 88.2987 65.0236 88.4053 65.0663 88.544C65.1196 88.6827 65.1463 88.7893 65.1463 88.864C65.1463 88.928 65.109 88.9867 65.0343 89.04C64.9703 89.0827 64.9276 89.104 64.9063 89.104C64.7356 89.0827 64.565 89.072 64.3943 89.072C64.2343 89.072 64.069 89.072 63.8983 89.072C63.6103 89.072 63.3223 89.0773 63.0343 89.088C62.7463 89.088 62.453 89.0933 62.1543 89.104V92.224C62.7196 92.224 63.2156 92.1867 63.6423 92.112C64.0796 92.0373 64.3836 91.9733 64.5543 91.92C64.5863 91.9093 64.613 91.904 64.6343 91.904C64.6663 91.8933 64.693 91.888 64.7143 91.888C64.7783 91.888 64.8263 91.904 64.8583 91.936C64.8903 91.968 64.9223 92.0107 64.9543 92.064C65.0076 92.128 65.061 92.24 65.1143 92.4C65.1783 92.5493 65.2103 92.656 65.2103 92.72C65.2103 92.784 65.173 92.8427 65.0983 92.896C65.0343 92.9493 64.9863 92.976 64.9543 92.976C64.517 92.9227 64.0583 92.8853 63.5783 92.864C63.0983 92.8427 62.6236 92.832 62.1543 92.832V96.224C62.1543 96.3947 62.1436 96.6027 62.1223 96.848C62.1116 97.0827 62.085 97.3173 62.0423 97.552C61.9996 97.776 61.9356 97.9627 61.8503 98.112C61.7756 98.272 61.669 98.352 61.5303 98.352ZM66.8332 95.632C66.6945 95.696 66.5612 95.712 66.4332 95.68C66.3052 95.6373 66.2252 95.5733 66.1932 95.488C66.1612 95.392 66.2252 95.3013 66.3852 95.216C67.0359 94.832 67.6865 94.352 68.3372 93.776C68.9985 93.2 69.6172 92.5653 70.1932 91.872C70.7692 91.1787 71.2599 90.448 71.6652 89.68C72.0812 88.912 72.3692 88.144 72.5292 87.376C72.5505 87.2693 72.5292 87.2107 72.4652 87.2C72.4012 87.1787 72.3585 87.168 72.3372 87.168C72.1665 87.168 71.9212 87.1787 71.6012 87.2C71.2812 87.2107 70.9559 87.2267 70.6252 87.248C70.3052 87.2587 70.0599 87.2747 69.8892 87.296C69.4199 87.3387 69.0465 87.3707 68.7692 87.392C68.4919 87.4133 68.1932 87.456 67.8732 87.52C67.7025 87.552 67.5799 87.5573 67.5052 87.536C67.4412 87.5147 67.3665 87.4613 67.2812 87.376C67.0572 87.152 66.9025 86.9653 66.8172 86.816C66.7852 86.7627 66.7959 86.6933 66.8492 86.608C66.9025 86.5227 66.9612 86.4907 67.0252 86.512C67.3345 86.576 67.7452 86.624 68.2572 86.656C68.7692 86.6773 69.2759 86.672 69.7772 86.64C70.0865 86.6187 70.4172 86.5973 70.7692 86.576C71.1212 86.544 71.4519 86.5013 71.7612 86.448C72.0812 86.3947 72.3319 86.336 72.5132 86.272C72.5132 86.272 72.5185 86.272 72.5292 86.272C72.5719 86.2613 72.6039 86.256 72.6252 86.256C72.6572 86.256 72.6999 86.2613 72.7532 86.272L73.7612 86.592C73.8039 86.6133 73.8359 86.6507 73.8572 86.704C73.8785 86.7573 73.8732 86.816 73.8412 86.88L73.5212 87.776C73.2545 88.544 72.8812 89.3173 72.4012 90.096C71.9212 90.8747 71.3719 91.6213 70.7532 92.336C70.1452 93.0507 69.5052 93.696 68.8332 94.272C68.1612 94.8373 67.4945 95.2907 66.8332 95.632ZM76.5772 98.352C76.4599 98.352 76.3959 98.2987 76.3852 98.192C76.3745 98.1067 76.3585 97.952 76.3372 97.728C76.3265 97.4933 76.3159 97.2427 76.3052 96.976C76.2945 96.6987 76.2892 96.4587 76.2892 96.256V86.448C76.2892 86.1173 76.2732 85.8613 76.2412 85.68C76.2199 85.4987 76.1505 85.3493 76.0332 85.232C75.9265 85.104 75.7345 84.9707 75.4572 84.832C75.3719 84.7787 75.3292 84.7253 75.3292 84.672C75.3292 84.6187 75.3665 84.5493 75.4412 84.464C75.5159 84.368 75.5959 84.32 75.6812 84.32C75.8092 84.32 75.9692 84.352 76.1612 84.416C76.3532 84.48 76.5399 84.5547 76.7212 84.64C76.9025 84.7147 77.0359 84.784 77.1212 84.848C77.2492 84.944 77.3079 85.0507 77.2972 85.168C77.2652 85.392 77.2385 85.6 77.2172 85.792C77.2065 85.984 77.2012 86.208 77.2012 86.464V96.224C77.2012 96.3947 77.1905 96.6027 77.1692 96.848C77.1585 97.0827 77.1319 97.3173 77.0892 97.552C77.0465 97.776 76.9825 97.9627 76.8972 98.112C76.8225 98.272 76.7159 98.352 76.5772 98.352ZM83.9789 90.048C83.7549 90.048 83.5736 89.9733 83.4349 89.824C83.3069 89.664 83.2429 89.4133 83.2429 89.072V88.272C83.2429 88.208 83.2323 88.1493 83.2109 88.096C83.2003 88.0427 83.1683 87.9947 83.1149 87.952C83.0083 87.8987 82.9016 87.8347 82.7949 87.76C82.6883 87.6747 82.6243 87.6053 82.6029 87.552C82.5603 87.4987 82.5763 87.4133 82.6509 87.296C82.7256 87.168 82.7949 87.1147 82.8589 87.136C83.0403 87.1787 83.2269 87.2107 83.4189 87.232C83.6216 87.2533 83.8563 87.264 84.1229 87.264C84.2616 87.264 84.5069 87.264 84.8589 87.264C85.2109 87.2533 85.6163 87.2427 86.0749 87.232C86.5336 87.2107 86.9923 87.1893 87.4509 87.168C87.9203 87.1467 88.3416 87.1253 88.7149 87.104C89.0989 87.072 89.3869 87.0347 89.5789 86.992C89.6003 86.928 89.6163 86.8107 89.6269 86.64C89.6483 86.4693 89.6643 86.2827 89.6749 86.08C89.6963 85.8773 89.7069 85.7067 89.7069 85.568C89.7069 85.4827 89.6909 85.4347 89.6589 85.424C89.6376 85.4133 89.6163 85.408 89.5949 85.408C89.5843 85.408 89.5789 85.408 89.5789 85.408C89.5683 85.408 89.3069 85.4187 88.7949 85.44C88.2829 85.4613 87.6536 85.4933 86.9069 85.536C86.2669 85.5787 85.6483 85.6213 85.0509 85.664C84.4643 85.696 84.0323 85.744 83.7549 85.808C83.6376 85.84 83.5416 85.8507 83.4669 85.84C83.3923 85.8187 83.3123 85.7813 83.2269 85.728C83.1416 85.6747 83.0403 85.5893 82.9229 85.472C82.8056 85.3547 82.7363 85.2693 82.7149 85.216C82.6936 85.1627 82.7149 85.0933 82.7789 85.008C82.8536 84.9227 82.9283 84.8907 83.0029 84.912C83.1309 84.9547 83.3283 84.9867 83.5949 85.008C83.8723 85.0187 84.1816 85.0293 84.5229 85.04C84.8749 85.04 85.2163 85.04 85.5469 85.04C85.8883 85.0293 86.1816 85.0187 86.4269 85.008C86.7896 84.9867 87.1789 84.9653 87.5949 84.944C88.0216 84.9227 88.4216 84.8907 88.7949 84.848C89.1683 84.7947 89.4563 84.736 89.6589 84.672C89.7443 84.6187 89.8456 84.6133 89.9629 84.656L90.7629 84.864C90.8909 84.9173 90.9229 84.9973 90.8589 85.104C90.8376 85.1467 90.7949 85.248 90.7309 85.408C90.6776 85.5573 90.6189 85.7333 90.5549 85.936C90.4909 86.1387 90.4269 86.3307 90.3629 86.512C90.3096 86.6933 90.2723 86.832 90.2509 86.928C90.3469 86.9707 90.4536 87.0347 90.5709 87.12C90.6989 87.2053 90.7629 87.2747 90.7629 87.328C90.7629 87.4133 90.7203 87.504 90.6349 87.6C90.5603 87.696 90.5069 87.7387 90.4749 87.728C90.3256 87.7067 90.0589 87.696 89.6749 87.696C89.2909 87.6853 88.8429 87.6853 88.3309 87.696C87.8296 87.7067 87.3123 87.7227 86.7789 87.744C86.2456 87.7653 85.7496 87.792 85.2909 87.824C84.8323 87.8453 84.4589 87.8667 84.1709 87.888V88.992C84.1709 89.2053 84.1976 89.344 84.2509 89.408C84.3043 89.4613 84.4376 89.488 84.6509 89.488C85.0989 89.488 85.4936 89.488 85.8349 89.488C86.1763 89.4773 86.5176 89.4613 86.8589 89.44C87.2109 89.4187 87.6056 89.3973 88.0429 89.376C88.6723 89.3333 89.1736 89.2853 89.5469 89.232C89.9203 89.1787 90.2456 89.1093 90.5229 89.024C90.6616 88.9813 90.7629 88.9653 90.8269 88.976C90.8909 88.976 90.9549 89.0187 91.0189 89.104C91.1469 89.2427 91.2376 89.3973 91.2909 89.568C91.3016 89.632 91.2643 89.7013 91.1789 89.776C91.0936 89.8507 91.0296 89.888 90.9869 89.888C90.5069 89.8773 90.0323 89.8827 89.5629 89.904C89.1043 89.9147 88.6616 89.9253 88.2349 89.936C88.1709 89.936 88.1016 89.9413 88.0269 89.952C87.9629 89.952 87.8989 89.952 87.8349 89.952C87.2269 89.9733 86.5869 89.9947 85.9149 90.016C85.2429 90.0373 84.5976 90.048 83.9789 90.048ZM85.0509 98.992C84.5816 99.0027 84.2296 98.912 83.9949 98.72C83.7709 98.5387 83.6589 98.2133 83.6589 97.744V97.024C83.6589 96.9493 83.6536 96.8907 83.6429 96.848C83.6429 96.8053 83.6163 96.7733 83.5629 96.752C83.4456 96.6987 83.3176 96.624 83.1789 96.528C83.0509 96.4213 82.9709 96.3413 82.9389 96.288C82.9069 96.2347 82.9176 96.1547 82.9709 96.048C83.0349 95.9307 83.0989 95.8827 83.1629 95.904C83.4936 95.9787 83.9309 96.0267 84.4749 96.048C84.6669 96.048 84.9389 96.048 85.2909 96.048C85.6429 96.048 86.0323 96.0427 86.4589 96.032C86.8856 96.0213 87.3123 96.0107 87.7389 96C88.1656 95.9787 88.5549 95.9573 88.9069 95.936C89.2589 95.9147 89.5309 95.8933 89.7229 95.872C89.7336 95.8187 89.7443 95.712 89.7549 95.552C89.7763 95.392 89.7923 95.216 89.8029 95.024C89.8243 94.8213 89.8349 94.6453 89.8349 94.496C89.8349 94.4213 89.8189 94.3787 89.7869 94.368C89.7656 94.3573 89.7443 94.352 89.7229 94.352L85.8509 94.528C85.4776 94.5387 85.1149 94.5653 84.7629 94.608C84.4109 94.64 84.1923 94.6667 84.1069 94.688C83.9896 94.7093 83.8936 94.72 83.8189 94.72C83.7443 94.7093 83.6643 94.672 83.5789 94.608C83.4936 94.544 83.3923 94.464 83.2749 94.368C83.1683 94.2613 83.1043 94.1813 83.0829 94.128C83.0723 94.0747 83.0989 94.0053 83.1629 93.92C83.2269 93.824 83.2963 93.7867 83.3709 93.808C83.6056 93.8613 83.9309 93.8987 84.3469 93.92C84.7629 93.9413 85.1363 93.952 85.4669 93.952C85.7016 93.952 86.0163 93.952 86.4109 93.952C86.8163 93.9413 87.2376 93.9253 87.6749 93.904C88.1229 93.872 88.5336 93.84 88.9069 93.808C89.2909 93.7653 89.5789 93.712 89.7709 93.648C89.8136 93.6267 89.8509 93.6107 89.8829 93.6C89.9256 93.5893 89.9736 93.5947 90.0269 93.616L90.7629 93.808C90.8803 93.8507 90.9123 93.9307 90.8589 94.048C90.8376 94.112 90.7896 94.2613 90.7149 94.496C90.6509 94.72 90.5869 94.9547 90.5229 95.2C90.4589 95.4453 90.4109 95.632 90.3789 95.76C90.4643 95.8133 90.5709 95.8773 90.6989 95.952C90.8376 96.0267 90.9069 96.096 90.9069 96.16C90.9069 96.2453 90.8643 96.336 90.7789 96.432C90.7043 96.528 90.6509 96.5707 90.6189 96.56C90.4909 96.5493 90.2456 96.544 89.8829 96.544C89.5203 96.5333 89.0989 96.528 88.6189 96.528C88.1389 96.528 87.6376 96.5333 87.1149 96.544C86.6029 96.5547 86.1229 96.5707 85.6749 96.592C85.2269 96.6133 84.8589 96.6347 84.5709 96.656V97.632C84.5709 97.952 84.6083 98.1493 84.6829 98.224C84.7576 98.2987 84.9016 98.3413 85.1149 98.352C85.1469 98.352 85.2163 98.352 85.3229 98.352C85.5363 98.352 85.8243 98.352 86.1869 98.352C86.5603 98.352 86.9656 98.3467 87.4029 98.336C87.8403 98.3253 88.2616 98.3093 88.6669 98.288C89.2216 98.2667 89.6696 98.2293 90.0109 98.176C90.3523 98.1333 90.6456 98.0693 90.8909 97.984C91.0189 97.9307 91.1149 97.9147 91.1789 97.936C91.2429 97.9573 91.3123 98 91.3869 98.064C91.4509 98.1387 91.5149 98.2293 91.5789 98.336C91.6429 98.4427 91.6803 98.5227 91.6909 98.576C91.7016 98.6507 91.6643 98.7307 91.5789 98.816C91.4936 98.9013 91.4349 98.944 91.4029 98.944C90.9656 98.9227 90.5816 98.912 90.2509 98.912C89.9203 98.912 89.5736 98.912 89.2109 98.912C89.1149 98.912 89.0136 98.912 88.9069 98.912C88.8109 98.912 88.7096 98.912 88.6029 98.912C88.0589 98.912 87.4616 98.9227 86.8109 98.944C86.1603 98.976 85.5736 98.992 85.0509 98.992ZM80.9709 92.8C80.8643 92.8 80.7469 92.752 80.6189 92.656C80.5656 92.6133 80.4856 92.5493 80.3789 92.464C80.2829 92.368 80.1923 92.2773 80.1069 92.192C80.0216 92.096 79.9683 92.032 79.9469 92C79.9256 91.9467 79.9363 91.8773 79.9789 91.792C80.0323 91.7067 80.0963 91.664 80.1709 91.664C80.4803 91.7173 80.8483 91.7653 81.2749 91.808C81.7123 91.84 82.2563 91.856 82.9069 91.856C83.3016 91.856 83.7976 91.8507 84.3949 91.84C85.0029 91.8187 85.6483 91.7973 86.3309 91.776C87.0243 91.7547 87.6963 91.7333 88.3469 91.712C89.0083 91.68 89.5896 91.648 90.0909 91.616C90.3683 91.5947 90.6829 91.5733 91.0349 91.552C91.3976 91.52 91.7389 91.4827 92.0589 91.44C92.3789 91.3973 92.6189 91.36 92.7789 91.328C92.9603 91.2853 93.0829 91.2533 93.1469 91.232C93.2216 91.2107 93.2856 91.2 93.3389 91.2C93.4136 91.2 93.4989 91.264 93.5949 91.392C93.6483 91.4773 93.7016 91.5787 93.7549 91.696C93.8189 91.8027 93.8509 91.8933 93.8509 91.968C93.8509 92.064 93.8083 92.1387 93.7229 92.192C93.6483 92.2453 93.6003 92.272 93.5789 92.272C93.3976 92.2507 93.1843 92.24 92.9389 92.24C92.6936 92.2293 92.4536 92.224 92.2189 92.224C91.9949 92.2133 91.8083 92.208 91.6589 92.208C91.4029 92.208 91.0509 92.2133 90.6029 92.224C90.1656 92.2347 89.6749 92.2507 89.1309 92.272C88.5869 92.2827 88.0323 92.2987 87.4669 92.32C86.9016 92.3413 86.3576 92.3627 85.8349 92.384C85.3229 92.4053 84.8749 92.4267 84.4909 92.448C84.1176 92.4587 83.8456 92.4693 83.6749 92.48C83.3549 92.4907 83.0296 92.5173 82.6989 92.56C82.3683 92.592 82.0696 92.6293 81.8029 92.672C81.5469 92.704 81.3709 92.7307 81.2749 92.752C81.2323 92.7627 81.1843 92.7733 81.1309 92.784C81.0776 92.7947 81.0243 92.8 80.9709 92.8ZM103.859 91.36C103.273 91.3707 102.734 91.264 102.243 91.04C101.753 90.8053 101.363 90.4747 101.075 90.048C100.787 89.6213 100.643 89.12 100.643 88.544C100.643 88 100.787 87.5147 101.075 87.088C101.374 86.6507 101.769 86.304 102.259 86.048C102.75 85.7813 103.289 85.6427 103.875 85.632C104.462 85.6107 105.001 85.712 105.491 85.936C105.982 86.1493 106.377 86.464 106.675 86.88C106.974 87.296 107.123 87.808 107.123 88.416C107.123 88.96 106.969 89.456 106.659 89.904C106.361 90.3413 105.966 90.688 105.475 90.944C104.985 91.2 104.446 91.3387 103.859 91.36ZM105.475 98.928C105.006 98.9387 104.654 98.8373 104.419 98.624C104.195 98.4213 104.083 98.08 104.083 97.6V96.752C104.083 96.624 104.051 96.5387 103.987 96.496C103.902 96.4427 103.79 96.368 103.651 96.272C103.523 96.1653 103.433 96.0853 103.379 96.032C103.337 95.9893 103.347 95.9147 103.411 95.808C103.475 95.6907 103.539 95.6373 103.603 95.648C103.977 95.7333 104.414 95.7813 104.915 95.792C105.097 95.8027 105.353 95.808 105.683 95.808C106.025 95.7973 106.403 95.7867 106.819 95.776C107.246 95.7547 107.667 95.7387 108.083 95.728C108.499 95.7067 108.878 95.6853 109.219 95.664C109.571 95.632 109.838 95.6053 110.019 95.584C110.03 95.52 110.046 95.392 110.067 95.2C110.089 94.9973 110.11 94.784 110.131 94.56C110.153 94.3253 110.163 94.1333 110.163 93.984C110.163 93.9093 110.147 93.8667 110.115 93.856C110.094 93.8453 110.073 93.84 110.051 93.84L106.211 94.016C105.806 94.0373 105.475 94.0587 105.219 94.08C104.963 94.1013 104.729 94.1333 104.515 94.176C104.398 94.1973 104.302 94.208 104.227 94.208C104.153 94.1973 104.073 94.1653 103.987 94.112C103.902 94.0587 103.801 93.984 103.683 93.888C103.566 93.7813 103.497 93.7013 103.475 93.648C103.465 93.5947 103.491 93.5253 103.555 93.44C103.619 93.344 103.689 93.3067 103.763 93.328C103.881 93.36 104.062 93.3867 104.307 93.408C104.553 93.4293 104.819 93.4453 105.107 93.456C105.406 93.456 105.678 93.4507 105.923 93.44C106.222 93.4293 106.574 93.4187 106.979 93.408C107.395 93.3867 107.811 93.3653 108.227 93.344C108.643 93.3227 109.017 93.296 109.347 93.264C109.689 93.2213 109.939 93.1733 110.099 93.12C110.099 93.12 110.105 93.12 110.115 93.12C110.147 93.0987 110.179 93.088 110.211 93.088C110.254 93.0773 110.302 93.0773 110.355 93.088L111.091 93.312C111.209 93.3547 111.241 93.4347 111.187 93.552C111.166 93.6053 111.129 93.7173 111.075 93.888C111.033 94.048 110.985 94.2347 110.931 94.448C110.878 94.6613 110.825 94.864 110.771 95.056C110.729 95.248 110.697 95.392 110.675 95.488C110.761 95.5307 110.867 95.5947 110.995 95.68C111.134 95.7547 111.203 95.824 111.203 95.888C111.203 95.9733 111.161 96.064 111.075 96.16C111.001 96.256 110.947 96.2987 110.915 96.288C110.787 96.2773 110.547 96.272 110.195 96.272C109.843 96.2613 109.427 96.2613 108.947 96.272C108.478 96.272 107.987 96.2827 107.475 96.304C106.974 96.3147 106.505 96.3307 106.067 96.352C105.63 96.3733 105.273 96.3947 104.995 96.416V97.504C104.995 97.856 105.038 98.0747 105.123 98.16C105.219 98.2453 105.374 98.288 105.587 98.288C105.619 98.288 105.689 98.288 105.795 98.288C106.009 98.288 106.291 98.288 106.643 98.288C107.006 98.288 107.395 98.2827 107.811 98.272C108.238 98.2613 108.654 98.2453 109.059 98.224C109.614 98.192 110.062 98.1493 110.403 98.096C110.745 98.0427 111.038 97.9733 111.283 97.888C111.411 97.8347 111.507 97.8187 111.571 97.84C111.635 97.8613 111.705 97.9093 111.779 97.984C111.843 98.048 111.907 98.128 111.971 98.224C112.035 98.3307 112.073 98.416 112.083 98.48C112.094 98.544 112.057 98.6187 111.971 98.704C111.886 98.7893 111.827 98.832 111.795 98.832C111.241 98.8107 110.766 98.8 110.371 98.8C109.977 98.8107 109.518 98.8267 108.995 98.848C108.451 98.8693 107.859 98.8853 107.219 98.896C106.579 98.9067 105.998 98.9173 105.475 98.928ZM103.875 90.64C104.515 90.6187 105.054 90.4107 105.491 90.016C105.939 89.6213 106.163 89.088 106.163 88.416C106.163 87.712 105.934 87.184 105.475 86.832C105.027 86.4693 104.489 86.2987 103.859 86.32C103.209 86.3627 102.665 86.5813 102.227 86.976C101.79 87.3707 101.571 87.888 101.571 88.528C101.571 89.232 101.79 89.7653 102.227 90.128C102.675 90.4907 103.225 90.6613 103.875 90.64ZM110.387 92.4C110.291 92.4 110.233 92.3467 110.211 92.24C110.19 92.1333 110.169 91.9787 110.147 91.776C110.137 91.5627 110.131 91.344 110.131 91.12C110.131 90.896 110.131 90.7147 110.131 90.576V86.4C110.131 86.08 110.115 85.8293 110.083 85.648C110.062 85.4667 109.993 85.312 109.875 85.184C109.769 85.056 109.587 84.9173 109.331 84.768C109.225 84.6933 109.198 84.5973 109.251 84.48C109.347 84.32 109.475 84.24 109.635 84.24C109.795 84.24 110.009 84.2987 110.275 84.416C110.542 84.5333 110.761 84.6453 110.931 84.752C110.985 84.784 111.033 84.8267 111.075 84.88C111.118 84.9333 111.134 84.992 111.123 85.056C111.091 85.2373 111.07 85.4187 111.059 85.6C111.049 85.7813 111.043 85.984 111.043 86.208V88.848C111.587 88.848 112.041 88.8107 112.403 88.736C112.766 88.6507 113.038 88.5813 113.219 88.528C113.337 88.4853 113.422 88.48 113.475 88.512C113.529 88.544 113.577 88.5973 113.619 88.672C113.662 88.736 113.71 88.8427 113.763 88.992C113.817 89.1307 113.843 89.232 113.843 89.296C113.843 89.36 113.806 89.4187 113.731 89.472C113.667 89.5253 113.619 89.552 113.587 89.552C113.161 89.5093 112.745 89.4827 112.339 89.472C111.934 89.4507 111.502 89.44 111.043 89.44V90.464C111.043 90.6773 111.027 90.9387 110.995 91.248C110.963 91.5467 110.899 91.8133 110.803 92.048C110.707 92.2827 110.569 92.4 110.387 92.4ZM118.818 92.928C118.189 92.9387 117.608 92.816 117.074 92.56C116.552 92.304 116.136 91.9413 115.826 91.472C115.517 90.992 115.362 90.448 115.362 89.84C115.362 89.2427 115.517 88.7093 115.826 88.24C116.136 87.76 116.552 87.376 117.074 87.088C117.608 86.8 118.194 86.6507 118.834 86.64C119.474 86.6187 120.05 86.7253 120.562 86.96C121.085 87.1947 121.501 87.5413 121.81 88C122.12 88.4587 122.274 89.024 122.274 89.696C122.274 90.304 122.12 90.8533 121.81 91.344C121.501 91.824 121.085 92.2027 120.562 92.48C120.04 92.7573 119.458 92.9067 118.818 92.928ZM118.834 92.128C119.304 92.1067 119.725 91.9947 120.098 91.792C120.472 91.5787 120.765 91.296 120.978 90.944C121.202 90.5813 121.314 90.1707 121.314 89.712C121.314 89.2107 121.202 88.784 120.978 88.432C120.754 88.08 120.456 87.8133 120.082 87.632C119.709 87.44 119.293 87.3547 118.834 87.376C118.376 87.376 117.954 87.488 117.57 87.712C117.186 87.9253 116.877 88.2187 116.642 88.592C116.418 88.9547 116.306 89.3653 116.306 89.824C116.306 90.304 116.418 90.7253 116.642 91.088C116.877 91.44 117.186 91.7067 117.57 91.888C117.954 92.0693 118.376 92.1493 118.834 92.128ZM125.202 98.352C125.085 98.352 125.021 98.2987 125.01 98.192C125 98.1067 124.984 97.952 124.962 97.728C124.952 97.4933 124.941 97.2427 124.93 96.976C124.92 96.6987 124.914 96.4587 124.914 96.256V86.448C124.914 86.1173 124.898 85.8613 124.866 85.68C124.845 85.4987 124.776 85.3493 124.658 85.232C124.552 85.104 124.36 84.9707 124.082 84.832C123.997 84.7787 123.954 84.7253 123.954 84.672C123.954 84.6187 123.992 84.5493 124.066 84.464C124.141 84.368 124.221 84.32 124.306 84.32C124.434 84.32 124.594 84.352 124.786 84.416C124.978 84.48 125.165 84.5547 125.346 84.64C125.528 84.7147 125.661 84.784 125.746 84.848C125.874 84.944 125.933 85.0507 125.922 85.168C125.89 85.392 125.864 85.6 125.842 85.792C125.832 85.984 125.826 86.208 125.826 86.464V90.832C126.392 90.832 126.888 90.7893 127.314 90.704C127.752 90.608 128.056 90.5333 128.226 90.48C128.344 90.4373 128.429 90.432 128.482 90.464C128.536 90.496 128.584 90.544 128.626 90.608C128.68 90.6827 128.733 90.7947 128.786 90.944C128.85 91.0933 128.882 91.2053 128.882 91.28C128.882 91.344 128.845 91.4027 128.77 91.456C128.706 91.5093 128.658 91.536 128.626 91.536C128.232 91.4827 127.821 91.456 127.394 91.456C126.978 91.4453 126.557 91.44 126.13 91.44C126.077 91.44 126.024 91.44 125.97 91.44C125.928 91.44 125.88 91.44 125.826 91.44V96.224C125.826 96.3947 125.816 96.6027 125.794 96.848C125.784 97.0827 125.757 97.3173 125.714 97.552C125.672 97.776 125.608 97.9627 125.522 98.112C125.448 98.272 125.341 98.352 125.202 98.352ZM139.757 98.352C139.64 98.352 139.576 98.2987 139.565 98.192C139.555 98.1067 139.539 97.952 139.517 97.728C139.507 97.4933 139.496 97.2427 139.485 96.976C139.475 96.6987 139.469 96.4587 139.469 96.256V86.448C139.469 86.1173 139.453 85.8613 139.421 85.68C139.4 85.4987 139.331 85.3493 139.213 85.232C139.107 85.104 138.915 84.9707 138.637 84.832C138.552 84.7787 138.509 84.7253 138.509 84.672C138.509 84.6187 138.547 84.5493 138.621 84.464C138.696 84.368 138.776 84.32 138.861 84.32C138.989 84.32 139.149 84.352 139.341 84.416C139.533 84.48 139.72 84.5547 139.901 84.64C140.083 84.7147 140.216 84.784 140.301 84.848C140.429 84.944 140.488 85.0507 140.477 85.168C140.445 85.392 140.419 85.6 140.397 85.792C140.387 85.984 140.381 86.208 140.381 86.464V90.832C140.947 90.832 141.443 90.7893 141.869 90.704C142.307 90.608 142.611 90.5333 142.781 90.48C142.899 90.4373 142.984 90.432 143.037 90.464C143.091 90.496 143.139 90.544 143.181 90.608C143.235 90.6827 143.288 90.7947 143.341 90.944C143.405 91.0933 143.437 91.2053 143.437 91.28C143.437 91.344 143.4 91.4027 143.325 91.456C143.261 91.5093 143.213 91.536 143.181 91.536C142.787 91.4827 142.376 91.456 141.949 91.456C141.533 91.4453 141.112 91.44 140.685 91.44C140.632 91.44 140.579 91.44 140.525 91.44C140.483 91.44 140.435 91.44 140.381 91.44V96.224C140.381 96.3947 140.371 96.6027 140.349 96.848C140.339 97.0827 140.312 97.3173 140.269 97.552C140.227 97.776 140.163 97.9627 140.077 98.112C140.003 98.272 139.896 98.352 139.757 98.352ZM130.333 95.472C130.195 95.536 130.061 95.552 129.933 95.52C129.805 95.4773 129.725 95.4133 129.693 95.328C129.661 95.232 129.725 95.1413 129.885 95.056C130.536 94.672 131.181 94.2027 131.821 93.648C132.461 93.0827 133.059 92.464 133.613 91.792C134.168 91.1093 134.643 90.3947 135.037 89.648C135.432 88.9013 135.709 88.144 135.869 87.376C135.891 87.2693 135.869 87.2107 135.805 87.2C135.741 87.1787 135.699 87.168 135.677 87.168C135.507 87.168 135.272 87.1787 134.973 87.2C134.675 87.2107 134.376 87.2267 134.077 87.248C133.789 87.2587 133.56 87.2747 133.389 87.296C132.92 87.3387 132.547 87.3707 132.269 87.392C131.992 87.4133 131.693 87.456 131.373 87.52C131.203 87.552 131.08 87.5573 131.005 87.536C130.941 87.5147 130.867 87.4613 130.781 87.376C130.557 87.152 130.403 86.9653 130.317 86.816C130.285 86.7627 130.296 86.6933 130.349 86.608C130.403 86.5227 130.461 86.4907 130.525 86.512C130.835 86.576 131.245 86.624 131.757 86.656C132.269 86.6773 132.776 86.672 133.277 86.64C133.747 86.6187 134.221 86.5813 134.701 86.528C135.192 86.464 135.576 86.3787 135.853 86.272C135.864 86.272 135.88 86.2667 135.901 86.256C135.923 86.256 135.949 86.256 135.981 86.256C136.013 86.2453 136.051 86.2507 136.093 86.272L137.101 86.592C137.144 86.6133 137.176 86.6507 137.197 86.704C137.219 86.7573 137.213 86.816 137.181 86.88L136.861 87.776C136.605 88.544 136.248 89.312 135.789 90.08C135.331 90.848 134.803 91.5787 134.205 92.272C133.619 92.9653 132.989 93.5893 132.317 94.144C131.656 94.688 130.995 95.1307 130.333 95.472ZM148.256 89.68C147.776 89.68 147.536 89.3227 147.536 88.608V87.088C147.536 86.768 147.493 86.4747 147.408 86.208C147.333 85.9307 147.13 85.7013 146.8 85.52C146.682 85.456 146.666 85.3653 146.752 85.248C146.89 85.0453 147.072 84.9707 147.296 85.024C147.445 85.0667 147.621 85.136 147.824 85.232C148.026 85.3173 148.197 85.4187 148.336 85.536C148.485 85.664 148.549 85.76 148.528 85.824C148.496 85.984 148.474 86.1653 148.464 86.368C148.453 86.5707 148.448 86.7787 148.448 86.992V88.528C148.448 88.7413 148.474 88.8853 148.528 88.96C148.581 89.024 148.714 89.056 148.928 89.056C149.525 89.056 150.17 89.0453 150.864 89.024C151.568 89.0027 152.213 88.9707 152.8 88.928C153.429 88.896 153.92 88.8533 154.272 88.8C154.624 88.736 154.928 88.6613 155.184 88.576C155.312 88.5227 155.408 88.5067 155.472 88.528C155.536 88.5493 155.605 88.5973 155.68 88.672C155.744 88.736 155.802 88.8267 155.856 88.944C155.909 89.0507 155.946 89.1413 155.968 89.216C155.989 89.2907 155.957 89.3653 155.872 89.44C155.786 89.5147 155.722 89.552 155.68 89.552C155.317 89.5307 154.997 89.52 154.72 89.52C154.453 89.5093 154.165 89.5093 153.856 89.52C153.557 89.52 153.173 89.5307 152.704 89.552C152.277 89.5627 151.792 89.5787 151.248 89.6C150.714 89.6213 150.181 89.6427 149.648 89.664C149.125 89.6747 148.661 89.68 148.256 89.68ZM145.744 93.264C145.562 93.3067 145.434 93.3227 145.36 93.312C145.296 93.2907 145.21 93.2427 145.104 93.168C145.04 93.1253 144.954 93.0613 144.848 92.976C144.741 92.8907 144.64 92.8053 144.544 92.72C144.458 92.624 144.41 92.5547 144.4 92.512C144.389 92.4587 144.416 92.384 144.48 92.288C144.544 92.192 144.602 92.1547 144.656 92.176C144.997 92.2507 145.408 92.3093 145.888 92.352C146.368 92.384 146.89 92.3947 147.456 92.384C148.49 92.3733 149.616 92.3573 150.832 92.336C152.058 92.3147 153.264 92.2773 154.448 92.224C155.141 92.192 155.776 92.144 156.352 92.08C156.938 92.016 157.354 91.9467 157.6 91.872C157.717 91.8293 157.808 91.824 157.872 91.856C157.946 91.888 158.01 91.9413 158.064 92.016C158.128 92.1013 158.186 92.2027 158.24 92.32C158.293 92.4373 158.32 92.5333 158.32 92.608C158.32 92.6827 158.282 92.752 158.208 92.816C158.133 92.8693 158.08 92.896 158.048 92.896C157.653 92.8427 157.216 92.816 156.736 92.816C156.256 92.8053 155.797 92.8053 155.36 92.816C155.242 92.816 155.13 92.816 155.024 92.816C154.917 92.816 154.81 92.816 154.704 92.816C154.224 92.8267 153.696 92.8427 153.12 92.864C152.544 92.8747 151.952 92.8907 151.344 92.912C150.746 92.9227 150.17 92.9387 149.616 92.96C149.072 92.9707 148.581 92.9867 148.144 93.008C147.664 93.0293 147.221 93.0613 146.816 93.104C146.421 93.1467 146.064 93.2 145.744 93.264ZM149.632 98.864C148.586 98.864 148.064 98.3787 148.064 97.408V96.528C148.064 96.2293 148.021 95.9787 147.936 95.776C147.861 95.5627 147.701 95.4027 147.456 95.296C147.392 95.2747 147.349 95.232 147.328 95.168C147.306 95.104 147.306 95.0453 147.328 94.992C147.434 94.8107 147.573 94.7253 147.744 94.736C147.882 94.7573 148.069 94.8107 148.304 94.896C148.538 94.9813 148.736 95.0667 148.896 95.152C149.024 95.2267 149.077 95.3173 149.056 95.424C149.034 95.4987 149.013 95.632 148.992 95.824C148.981 96.016 148.976 96.2027 148.976 96.384V97.328C148.976 97.7013 149.04 97.936 149.168 98.032C149.306 98.1387 149.488 98.1973 149.712 98.208C149.829 98.2187 150.032 98.224 150.32 98.224C150.618 98.224 150.949 98.2187 151.312 98.208C151.674 98.1973 152.021 98.1813 152.352 98.16C152.693 98.1493 152.965 98.1387 153.168 98.128C153.722 98.1067 154.197 98.0587 154.592 97.984C154.997 97.9093 155.29 97.84 155.472 97.776C155.696 97.68 155.861 97.712 155.968 97.872C156.021 97.9573 156.08 98.0587 156.144 98.176C156.208 98.2933 156.245 98.3893 156.256 98.464C156.266 98.5387 156.229 98.608 156.144 98.672C156.069 98.7467 156.01 98.784 155.968 98.784C155.594 98.7627 155.242 98.7467 154.912 98.736C154.592 98.736 154.25 98.736 153.888 98.736C153.536 98.7467 153.125 98.7627 152.656 98.784C152.112 98.8053 151.6 98.8213 151.12 98.832C150.65 98.8533 150.154 98.864 149.632 98.864ZM166.056 92.528C165.886 92.5707 165.768 92.5867 165.704 92.576C165.64 92.5547 165.555 92.5173 165.448 92.464C165.438 92.4533 165.427 92.448 165.416 92.448C165.352 92.4053 165.267 92.3413 165.16 92.256C165.054 92.16 164.958 92.0693 164.872 91.984C164.787 91.888 164.739 91.824 164.728 91.792C164.696 91.7387 164.712 91.664 164.776 91.568C164.851 91.472 164.92 91.4347 164.984 91.456C165.326 91.52 165.731 91.5733 166.2 91.616C166.68 91.648 167.203 91.6587 167.768 91.648C168.643 91.648 169.566 91.632 170.536 91.6V90.24C170.536 89.9307 170.51 89.6533 170.456 89.408C170.414 89.152 170.248 88.944 169.96 88.784C169.854 88.72 169.838 88.6187 169.912 88.48C170.04 88.2987 170.195 88.2347 170.376 88.288C170.547 88.3307 170.702 88.3947 170.84 88.48C170.979 88.5547 171.107 88.64 171.224 88.736C171.374 88.8533 171.438 88.9387 171.416 88.992C171.374 89.152 171.347 89.3333 171.336 89.536C171.336 89.728 171.331 89.9307 171.32 90.144C171.31 90.336 171.299 90.5653 171.288 90.832C171.278 91.0987 171.272 91.3493 171.272 91.584L174.76 91.456C175.454 91.4347 176.088 91.392 176.664 91.328C177.251 91.2533 177.667 91.1733 177.912 91.088C178.03 91.0453 178.12 91.04 178.184 91.072C178.248 91.104 178.312 91.1627 178.376 91.248C178.43 91.3333 178.483 91.4347 178.536 91.552C178.6 91.6587 178.632 91.7547 178.632 91.84C178.632 91.904 178.595 91.968 178.52 92.032C178.446 92.0853 178.392 92.112 178.36 92.112C177.987 92.0587 177.571 92.032 177.112 92.032C176.654 92.032 176.211 92.0373 175.784 92.048C175.646 92.048 175.512 92.048 175.384 92.048C175.256 92.048 175.134 92.048 175.016 92.048C174.536 92.0587 174.003 92.0747 173.416 92.096C172.84 92.1067 172.254 92.1227 171.656 92.144C171.059 92.1653 170.483 92.1867 169.928 92.208C169.374 92.2293 168.883 92.2507 168.456 92.272C167.976 92.2933 167.534 92.3307 167.128 92.384C166.734 92.4267 166.376 92.4747 166.056 92.528ZM167.192 99.392C167.075 99.4347 166.958 99.4347 166.84 99.392C166.734 99.36 166.664 99.3067 166.632 99.232C166.6 99.1573 166.648 99.088 166.776 99.024C167.566 98.5973 168.254 98.1227 168.84 97.6C169.438 97.0773 169.918 96.592 170.28 96.144C170.654 95.6853 170.894 95.3493 171 95.136C171.182 94.8053 171.299 94.528 171.352 94.304C171.416 94.08 171.326 93.8667 171.08 93.664C170.963 93.568 170.936 93.4613 171 93.344C171.107 93.12 171.299 93.0667 171.576 93.184C171.704 93.248 171.838 93.3227 171.976 93.408C172.115 93.4933 172.259 93.5947 172.408 93.712C172.611 93.8827 172.686 94.016 172.632 94.112C172.547 94.2613 172.43 94.4533 172.28 94.688C172.131 94.9227 171.982 95.1627 171.832 95.408C172.131 95.6213 172.467 95.8347 172.84 96.048C173.214 96.2613 173.587 96.464 173.96 96.656C174.334 96.8373 174.675 96.9973 174.984 97.136C175.304 97.264 175.555 97.36 175.736 97.424C175.832 97.4667 175.934 97.5627 176.04 97.712C176.158 97.8613 176.254 98.0267 176.328 98.208C176.403 98.4 176.44 98.5653 176.44 98.704C176.419 98.832 176.334 98.9387 176.184 99.024C176.035 99.12 175.939 99.1467 175.896 99.104C175.64 98.8267 175.32 98.5333 174.936 98.224C174.552 97.9253 174.147 97.6267 173.72 97.328C173.304 97.0293 172.899 96.752 172.504 96.496C172.12 96.24 171.795 96.0267 171.528 95.856C171.016 96.56 170.376 97.232 169.608 97.872C168.851 98.5013 168.046 99.008 167.192 99.392ZM174.344 89.936C174.28 89.9147 174.248 89.856 174.248 89.76C174.248 89.6533 174.259 89.5467 174.28 89.44C174.355 89.1413 174.43 88.7893 174.504 88.384C174.579 87.968 174.648 87.552 174.712 87.136C174.787 86.72 174.835 86.3573 174.856 86.048C174.867 85.9627 174.846 85.9147 174.792 85.904C174.75 85.8827 174.718 85.872 174.696 85.872C174.686 85.872 174.68 85.872 174.68 85.872C174.552 85.872 174.339 85.8773 174.04 85.888C173.742 85.8987 173.416 85.9147 173.064 85.936C172.712 85.9467 172.387 85.9627 172.088 85.984C171.8 85.9947 171.592 86.0053 171.464 86.016C171.155 86.0373 170.819 86.064 170.456 86.096C170.104 86.1173 169.768 86.144 169.448 86.176C169.128 86.1973 168.856 86.2293 168.632 86.272C168.43 86.3147 168.291 86.3253 168.216 86.304C168.152 86.272 168.072 86.2133 167.976 86.128C167.88 86.0213 167.79 85.92 167.704 85.824C167.619 85.7173 167.56 85.6373 167.528 85.584C167.496 85.5307 167.507 85.4613 167.56 85.376C167.614 85.28 167.678 85.2427 167.752 85.264C167.912 85.3173 168.136 85.36 168.424 85.392C168.712 85.4133 169.032 85.424 169.384 85.424C169.736 85.424 170.078 85.424 170.408 85.424C170.75 85.4133 171.048 85.4027 171.304 85.392C171.539 85.3813 171.827 85.3707 172.168 85.36C172.51 85.3387 172.856 85.3173 173.208 85.296C173.56 85.2747 173.886 85.248 174.184 85.216C174.483 85.1733 174.712 85.12 174.872 85.056C174.958 85.024 175.043 85.024 175.128 85.056L176.088 85.392C176.131 85.4133 176.163 85.4507 176.184 85.504C176.206 85.5573 176.2 85.6213 176.168 85.696C176.147 85.728 176.099 85.8293 176.024 86C175.96 86.16 175.912 86.2987 175.88 86.416C175.848 86.5333 175.8 86.7147 175.736 86.96C175.672 87.1947 175.603 87.4507 175.528 87.728C175.454 88.0053 175.379 88.272 175.304 88.528C175.23 88.7733 175.166 88.976 175.112 89.136C174.888 89.7547 174.632 90.0213 174.344 89.936ZM181.368 84.32C181.602 84.32 181.816 84.4107 182.008 84.592C182.21 84.7627 182.312 85.0293 182.312 85.392C182.312 85.7973 182.232 86.1813 182.072 86.544C181.912 86.896 181.709 87.1947 181.464 87.44C181.229 87.6853 180.994 87.856 180.76 87.952C180.685 87.984 180.61 88 180.536 88C180.45 88 180.381 87.9573 180.328 87.872L180.152 87.584C180.493 87.4347 180.776 87.216 181 86.928C181.224 86.64 181.378 86.3253 181.464 85.984C181.208 85.9733 180.994 85.8933 180.824 85.744C180.653 85.5947 180.568 85.4027 180.568 85.168C180.568 84.8907 180.648 84.6827 180.808 84.544C180.978 84.3947 181.165 84.32 181.368 84.32ZM183.848 84.32C184.082 84.32 184.296 84.4107 184.488 84.592C184.69 84.7627 184.792 85.0293 184.792 85.392C184.792 85.7973 184.712 86.1813 184.552 86.544C184.392 86.896 184.189 87.1947 183.944 87.44C183.709 87.6853 183.474 87.856 183.24 87.952C183.165 87.984 183.09 88 183.016 88C182.93 88 182.861 87.9573 182.808 87.872L182.632 87.584C182.973 87.4347 183.256 87.216 183.48 86.928C183.704 86.64 183.858 86.3253 183.944 85.984C183.688 85.9733 183.474 85.8933 183.304 85.744C183.133 85.5947 183.048 85.4027 183.048 85.168C183.048 84.8907 183.128 84.6827 183.288 84.544C183.458 84.3947 183.645 84.32 183.848 84.32Z" fill="white"/>
<path d="M6.9655 38.96C6.5495 38.96 6.2135 38.8 5.9575 38.48C5.7015 38.128 5.5415 37.696 5.4775 37.184L4.5175 25.52C4.4535 24.528 4.3095 23.776 4.0855 23.264C3.8615 22.752 3.4615 22.336 2.8855 22.016C2.2455 21.664 2.0215 21.2 2.2135 20.624C2.3735 20.176 2.6135 19.824 2.9335 19.568C3.2855 19.312 3.7175 19.232 4.2295 19.328C4.7095 19.456 5.2055 19.6 5.7175 19.76C6.2295 19.888 6.7415 20.048 7.2535 20.24C7.7655 20.24 8.4375 20.24 9.2695 20.24C10.1015 20.208 10.9495 20.176 11.8135 20.144C12.7095 20.112 13.4935 20.08 14.1655 20.048C14.8695 20.016 15.3175 19.984 15.5095 19.952C16.3735 19.888 17.1735 19.792 17.9095 19.664C18.6775 19.536 19.3015 19.376 19.7815 19.184C20.1655 19.056 20.5815 19.04 21.0295 19.136L24.3415 19.952C24.8535 20.08 25.0135 20.464 24.8215 21.104C24.7575 21.392 24.6615 21.856 24.5335 22.496C24.4375 23.136 24.3415 23.776 24.2455 24.416C24.1495 25.056 24.0695 25.552 24.0055 25.904C23.9095 26.512 23.7815 27.312 23.6215 28.304C23.4935 29.264 23.3655 30.24 23.2375 31.232C23.1095 32.224 22.9975 33.056 22.9015 33.728C23.2215 33.952 23.5255 34.256 23.8135 34.64C24.1335 34.992 24.2935 35.2 24.2935 35.264C24.2935 35.648 24.1495 36.032 23.8615 36.416C23.5735 36.768 23.2375 36.976 22.8535 37.04C22.0855 36.976 21.0455 36.944 19.7335 36.944C18.4535 36.944 17.1095 36.96 15.7015 36.992C14.3255 37.024 13.0295 37.056 11.8135 37.088C10.6295 37.12 9.7495 37.168 9.1735 37.232C8.9495 37.712 8.6295 38.128 8.2135 38.48C7.8295 38.8 7.4135 38.96 6.9655 38.96ZM32.5975 60.32C32.1495 60.352 31.8295 60.256 31.6375 60.032C31.4455 59.808 31.3175 59.568 31.2535 59.312C31.1255 58.768 31.0455 58.128 31.0135 57.392C30.9815 56.656 30.9655 55.968 30.9655 55.328L30.8695 47.264C30.8695 46.976 30.8055 46.8 30.6775 46.736C30.5495 46.64 30.3895 46.592 30.1975 46.592C29.3335 46.624 27.9735 46.704 26.1175 46.832C24.2935 46.928 22.2455 47.056 19.9735 47.216C19.1415 47.28 18.1495 47.392 16.9975 47.552C15.8455 47.712 14.8535 47.888 14.0215 48.08C13.4135 48.24 12.9815 48.304 12.7255 48.272C12.5015 48.208 12.2455 48.08 11.9575 47.888C11.5415 47.6 11.0775 47.2 10.5655 46.688C10.0535 46.176 9.7175 45.76 9.5575 45.44C9.5255 45.12 9.6695 44.752 9.9895 44.336C10.3095 43.92 10.6935 43.696 11.1415 43.664C11.5895 43.76 12.1815 43.856 12.9175 43.952C13.6535 44.016 14.4375 44.064 15.2695 44.096C16.1335 44.128 16.9175 44.144 17.6215 44.144C19.0935 44.112 20.5335 44.08 21.9415 44.048C23.3495 43.984 24.7895 43.888 26.2615 43.76C27.1895 43.696 28.0375 43.6 28.8055 43.472C29.6055 43.344 30.3095 43.168 30.9175 42.944C31.1735 42.848 31.3655 42.8 31.4935 42.8C31.6215 42.768 31.8295 42.784 32.1175 42.848L35.2855 43.424C35.7975 43.52 36.0055 43.84 35.9095 44.384C35.8775 44.672 35.8295 45.088 35.7655 45.632C35.7015 46.144 35.6375 46.688 35.5735 47.264C35.5415 47.84 35.5255 48.32 35.5255 48.704L35.4775 54.608C35.4775 55.44 35.3655 56.288 35.1415 57.152C34.9495 58.048 34.6295 58.784 34.1815 59.36C33.7655 59.968 33.2375 60.288 32.5975 60.32ZM33.0295 40.88C32.4855 40.88 32.1175 40.544 31.9255 39.872C31.7655 39.136 31.6695 38.336 31.6375 37.472C31.6055 36.576 31.5895 35.84 31.5895 35.264C31.5895 35.136 31.5895 35.04 31.5895 34.976V21.2C31.5895 20.304 31.5575 19.632 31.4935 19.184C31.4295 18.704 31.2535 18.32 30.9655 18.032C30.7095 17.744 30.2775 17.392 29.6695 16.976C29.3495 16.784 29.1095 16.56 28.9495 16.304C28.8215 16.048 28.8375 15.76 28.9975 15.44C29.2535 14.896 29.5895 14.544 30.0055 14.384C30.4215 14.224 30.8855 14.192 31.3975 14.288C32.1335 14.416 32.8855 14.672 33.6535 15.056C34.4215 15.408 35.0615 15.76 35.5735 16.112C36.1495 16.496 36.4375 16.896 36.4375 17.312C36.3735 17.728 36.2935 18.304 36.1975 19.04C36.1015 19.776 36.0535 20.512 36.0535 21.248V28.496C37.3015 28.368 38.4215 28.176 39.4135 27.92C40.4375 27.632 41.1575 27.424 41.5735 27.296C41.9255 27.168 42.2135 27.152 42.4375 27.248C42.6615 27.312 42.8375 27.44 42.9655 27.632C43.2215 27.952 43.4775 28.4 43.7335 28.976C43.9895 29.552 44.1175 29.952 44.1175 30.176C44.1175 30.496 43.9095 30.816 43.4935 31.136C43.1095 31.456 42.8055 31.616 42.5815 31.616C41.5895 31.456 40.5175 31.36 39.3655 31.328C38.2455 31.264 37.1415 31.232 36.0535 31.232V34.736C36.0535 35.536 35.9575 36.416 35.7655 37.376C35.6055 38.304 35.3015 39.12 34.8535 39.824C34.4055 40.496 33.7975 40.848 33.0295 40.88ZM9.4615 34.256C10.2935 34.256 11.2855 34.256 12.4375 34.256C13.6215 34.224 14.8055 34.176 15.9895 34.112C17.2055 34.048 18.2615 33.968 19.1575 33.872C19.1895 33.296 19.2055 32.512 19.2055 31.52C19.2375 30.496 19.2695 29.424 19.3015 28.304C19.3335 27.184 19.3495 26.176 19.3495 25.28C19.3815 24.384 19.3975 23.792 19.3975 23.504C19.3975 23.216 19.3335 23.04 19.2055 22.976C19.1095 22.88 18.9655 22.832 18.7735 22.832C18.4215 22.832 17.6855 22.848 16.5655 22.88C15.4455 22.912 14.1975 22.944 12.8215 22.976C11.4775 23.008 10.2295 23.056 9.0775 23.12L9.4615 34.256ZM61.0578 59.12C60.3218 59.088 59.6178 58.736 58.9458 58.064C58.3058 57.424 57.9858 56.448 57.9858 55.136V51.92C57.9538 51.728 57.7778 51.52 57.4578 51.296C57.0738 51.04 56.7538 50.816 56.4978 50.624C56.2738 50.4 56.1458 50.208 56.1138 50.048C56.1458 49.792 56.2898 49.456 56.5458 49.04C56.8018 48.592 57.0898 48.352 57.4098 48.32C58.1458 48.416 58.9938 48.496 59.9538 48.56C60.9138 48.592 61.6978 48.624 62.3058 48.656C62.9458 48.688 63.7938 48.704 64.8498 48.704C65.9378 48.672 67.1218 48.64 68.4018 48.608C69.6818 48.576 70.9778 48.528 72.2898 48.464C73.6018 48.368 74.8018 48.272 75.8898 48.176C75.9538 47.6 76.0018 46.976 76.0338 46.304C76.0658 45.632 76.0818 44.992 76.0818 44.384C76.0818 44.128 76.0338 43.984 75.9378 43.952C75.8418 43.888 75.6978 43.856 75.5058 43.856C75.1538 43.856 74.5458 43.888 73.6818 43.952C72.8178 43.984 71.8418 44.032 70.7538 44.096C69.6978 44.128 68.6578 44.176 67.6338 44.24C66.6418 44.304 65.8258 44.352 65.1858 44.384C64.8658 44.384 64.4178 44.416 63.8418 44.48C63.2978 44.512 62.7218 44.56 62.1138 44.624C61.5378 44.688 61.0418 44.768 60.6258 44.864C59.9858 44.992 59.5218 45.04 59.2338 45.008C58.9458 44.976 58.6578 44.848 58.3698 44.624C58.0498 44.368 57.6498 44.016 57.1698 43.568C56.7218 43.12 56.4658 42.832 56.4018 42.704C56.3378 42.416 56.4498 42.08 56.7378 41.696C57.0258 41.312 57.3458 41.088 57.6978 41.024C58.9458 41.28 60.3698 41.424 61.9698 41.456C63.6018 41.456 65.3298 41.44 67.1538 41.408C68.2418 41.376 69.3778 41.328 70.5618 41.264C71.7778 41.2 72.8978 41.104 73.9218 40.976C74.9458 40.848 75.6978 40.704 76.1778 40.544C76.4018 40.448 76.5618 40.4 76.6578 40.4C76.7538 40.4 76.8658 40.416 76.9938 40.448C77.0898 40.48 77.1698 40.496 77.2338 40.496L80.6898 41.216C81.2018 41.312 81.3618 41.68 81.1698 42.32C81.1058 42.576 80.9778 43.024 80.7858 43.664C80.5938 44.304 80.4018 45.008 80.2098 45.776C80.0498 46.512 79.9058 47.168 79.7778 47.744C80.1298 47.936 80.4818 48.192 80.8338 48.512C81.2178 48.8 81.4098 49.024 81.4098 49.184C81.4098 49.568 81.2658 49.984 80.9778 50.432C80.7218 50.88 80.4018 51.168 80.0178 51.296C78.9938 51.264 77.7298 51.248 76.2258 51.248C74.7218 51.248 73.1378 51.264 71.4738 51.296C69.8098 51.328 68.1938 51.376 66.6258 51.44C65.0898 51.504 63.7458 51.568 62.5938 51.632V54.368C62.5938 54.88 62.6418 55.296 62.7378 55.616C62.8658 55.904 63.1218 56.064 63.5058 56.096C64.7218 56.16 66.1618 56.176 67.8258 56.144C69.5218 56.112 71.1058 56.08 72.5778 56.048C74.8498 55.984 76.7218 55.824 78.1938 55.568C79.6658 55.312 80.6578 55.088 81.1698 54.896C81.5218 54.736 81.8098 54.72 82.0338 54.848C82.2578 54.944 82.4338 55.088 82.5618 55.28C82.8178 55.6 83.0738 56.016 83.3298 56.528C83.5858 57.04 83.7138 57.376 83.7138 57.536C83.7138 57.792 83.5218 58.112 83.1378 58.496C82.7858 58.88 82.4978 59.072 82.2738 59.072C81.8258 59.04 81.1218 59.008 80.1618 58.976C79.2338 58.976 78.1778 58.96 76.9938 58.928C75.8098 58.928 74.6098 58.944 73.3938 58.976C73.1698 58.976 72.7858 58.976 72.2418 58.976C71.7298 59.008 71.1218 59.024 70.4178 59.024C69.3938 59.056 68.2738 59.072 67.0578 59.072C65.8418 59.104 64.6898 59.12 63.6018 59.12C62.5138 59.152 61.6658 59.152 61.0578 59.12ZM49.8258 41.792C49.0898 42.112 48.3698 42.176 47.6658 41.984C46.9938 41.76 46.6258 41.456 46.5618 41.072C46.5298 40.912 46.5458 40.704 46.6098 40.448C46.7058 40.16 46.9458 39.92 47.3298 39.728C48.5458 39.152 49.9218 38.288 51.4578 37.136C52.9938 35.984 54.5298 34.64 56.0658 33.104C57.6018 31.568 58.9778 29.936 60.1938 28.208C61.4418 26.448 62.3538 24.656 62.9298 22.832C63.0258 22.544 62.8978 22.4 62.5458 22.4C61.8418 22.432 60.9778 22.48 59.9538 22.544C58.9618 22.576 58.1778 22.624 57.6018 22.688C56.7058 22.752 55.7618 22.832 54.7698 22.928C53.8098 23.024 52.9138 23.152 52.0818 23.312C51.4738 23.44 51.0418 23.488 50.7858 23.456C50.5298 23.424 50.2258 23.248 49.8738 22.928C49.6498 22.736 49.3138 22.432 48.8658 22.016C48.4178 21.568 48.1138 21.2 47.9538 20.912C47.8898 20.624 48.0178 20.288 48.3378 19.904C48.6578 19.488 48.9458 19.28 49.2018 19.28C50.3858 19.568 51.6658 19.728 53.0418 19.76C54.4498 19.792 55.7778 19.776 57.0258 19.712C58.4978 19.648 59.9058 19.536 61.2498 19.376C62.5938 19.184 63.4898 18.96 63.9378 18.704C64.3218 18.544 64.6738 18.512 64.9938 18.608C65.5058 18.768 66.1138 19.008 66.8178 19.328C67.5218 19.616 68.0818 19.84 68.4978 20C68.7538 20.096 68.9298 20.24 69.0258 20.432C69.1218 20.592 69.0898 20.848 68.9298 21.2C68.8018 21.616 68.5138 22.24 68.0658 23.072C67.6498 23.904 67.2658 24.624 66.9138 25.232C66.1138 26.672 65.1218 28.192 63.9378 29.792C62.7538 31.36 61.4098 32.912 59.9058 34.448C58.4338 35.984 56.8338 37.392 55.1058 38.672C53.4098 39.952 51.6498 40.992 49.8258 41.792ZM78.1458 39.2C77.5378 39.2 77.1698 38.88 77.0418 38.24C76.9138 37.408 76.8178 36.512 76.7538 35.552C76.7218 34.56 76.7058 33.776 76.7058 33.2V30.656C76.2898 30.688 75.9058 30.72 75.5538 30.752C75.2018 30.784 74.9138 30.816 74.6898 30.848C73.9858 30.944 73.2658 31.056 72.5298 31.184C71.8258 31.28 71.1538 31.424 70.5138 31.616C70.0978 31.744 69.7618 31.808 69.5058 31.808C69.2818 31.808 69.0258 31.76 68.7378 31.664C68.5458 31.568 68.2258 31.392 67.7778 31.136C67.3618 30.848 66.9618 30.576 66.5778 30.32C66.2258 30.032 66.0338 29.856 66.0018 29.792C65.8738 29.44 65.9698 29.04 66.2898 28.592C66.6418 28.112 66.9778 27.872 67.2978 27.872C68.5138 28.096 69.9538 28.176 71.6178 28.112C72.0978 28.112 72.8178 28.096 73.7778 28.064C74.7698 28 75.7458 27.936 76.7058 27.872V21.2C76.7058 20.304 76.6738 19.632 76.6098 19.184C76.5458 18.704 76.3698 18.32 76.0818 18.032C75.8258 17.744 75.3938 17.392 74.7858 16.976C74.4658 16.784 74.2258 16.56 74.0658 16.304C73.9378 16.048 73.9538 15.76 74.1138 15.44C74.3698 14.896 74.7058 14.544 75.1218 14.384C75.5378 14.224 76.0018 14.192 76.5138 14.288C77.2498 14.416 78.0018 14.672 78.7698 15.056C79.5378 15.408 80.1778 15.76 80.6898 16.112C81.2658 16.496 81.5538 16.896 81.5538 17.312C81.4898 17.728 81.4098 18.304 81.3138 19.04C81.2178 19.776 81.1698 20.512 81.1698 21.248V32.912C81.1698 33.712 81.0738 34.608 80.8818 35.6C80.7218 36.592 80.4178 37.44 79.9698 38.144C79.5218 38.848 78.9138 39.2 78.1458 39.2ZM94.8074 46.4C93.8794 46.336 93.1594 45.904 92.6474 45.104C92.1674 44.304 91.9274 43.36 91.9274 42.272V34.4C91.8954 34.112 91.6714 33.84 91.2554 33.584C90.9034 33.392 90.5194 33.152 90.1034 32.864C89.7194 32.576 89.5114 32.352 89.4794 32.192C89.4474 31.84 89.5434 31.44 89.7674 30.992C90.0234 30.544 90.3274 30.304 90.6794 30.272C91.2234 30.304 91.7994 30.352 92.4074 30.416C93.0474 30.48 93.6714 30.528 94.2794 30.56C96.0074 30.592 97.7354 30.576 99.4634 30.512C101.223 30.416 102.983 30.272 104.743 30.08C104.807 29.536 104.871 28.832 104.935 27.968C105.031 27.072 105.111 26.208 105.175 25.376C105.271 24.544 105.319 23.936 105.319 23.552C105.319 23.264 105.255 23.088 105.127 23.024C105.031 22.928 104.887 22.88 104.695 22.88C103.991 22.88 102.999 22.912 101.719 22.976C100.439 23.04 99.1434 23.136 97.8314 23.264C97.3514 23.296 96.8234 23.36 96.2474 23.456C95.6714 23.52 95.0794 23.632 94.4714 23.792C93.8314 23.92 93.3834 23.968 93.1274 23.936C92.9034 23.904 92.6474 23.776 92.3594 23.552C92.1354 23.392 91.8634 23.152 91.5434 22.832C91.2234 22.512 90.9354 22.208 90.6794 21.92C90.4554 21.6 90.3274 21.392 90.2954 21.296C90.2634 21.072 90.3754 20.8 90.6314 20.48C90.8874 20.128 91.1914 19.92 91.5434 19.856C92.7914 20.08 94.0394 20.208 95.2874 20.24C96.5674 20.272 97.8474 20.272 99.1274 20.24C100.279 20.176 101.447 20.112 102.631 20.048C103.815 19.952 104.855 19.744 105.751 19.424C106.007 19.328 106.215 19.28 106.375 19.28C106.535 19.248 106.759 19.28 107.047 19.376L110.263 20.336C110.743 20.56 110.903 20.944 110.743 21.488C110.615 21.904 110.471 22.384 110.311 22.928C110.151 23.44 110.007 23.952 109.879 24.464L108.535 29.744C108.855 29.968 109.207 30.288 109.591 30.704C110.007 31.12 110.215 31.36 110.215 31.424C110.215 31.84 110.071 32.256 109.783 32.672C109.495 33.088 109.159 33.328 108.775 33.392C107.783 33.328 106.567 33.312 105.127 33.344C103.687 33.376 102.199 33.424 100.663 33.488C99.1274 33.52 97.7354 33.584 96.4874 33.68V40.832C96.4874 41.408 96.5834 41.792 96.7754 41.984C96.9994 42.144 97.2874 42.224 97.6394 42.224C99.3034 42.224 100.983 42.112 102.679 41.888C104.375 41.664 105.991 41.376 107.527 41.024C109.063 40.672 110.407 40.32 111.559 39.968C112.711 39.584 113.543 39.28 114.055 39.056C114.599 38.8 115.015 38.752 115.303 38.912C115.591 39.072 115.735 39.312 115.735 39.632C115.767 40.592 114.855 41.488 112.999 42.32C112.103 42.704 110.919 43.136 109.447 43.616C108.007 44.064 106.423 44.496 104.695 44.912C102.967 45.328 101.239 45.68 99.5114 45.968C97.7834 46.224 96.2154 46.368 94.8074 46.4ZM119.335 57.44C118.791 57.44 118.439 57.04 118.279 56.24C118.183 55.696 118.103 55.04 118.039 54.272C118.007 53.504 117.991 52.752 117.991 52.016C117.991 51.28 117.991 50.704 117.991 50.288V21.92C117.991 21.856 117.991 21.76 117.991 21.632C117.991 20.512 117.895 19.632 117.703 18.992C117.543 18.352 116.951 17.728 115.927 17.12C115.735 16.992 115.559 16.848 115.399 16.688C115.239 16.528 115.159 16.336 115.159 16.112C115.159 15.76 115.335 15.36 115.687 14.912C116.039 14.464 116.471 14.24 116.983 14.24C117.335 14.24 117.815 14.336 118.423 14.528C119.031 14.688 119.655 14.912 120.295 15.2C120.935 15.456 121.479 15.728 121.927 16.016C122.535 16.4 122.839 16.784 122.839 17.168C122.807 17.584 122.727 18.272 122.599 19.232C122.503 20.16 122.455 21.056 122.455 21.92L122.407 50.048C122.407 50.656 122.359 51.376 122.263 52.208C122.167 53.04 121.991 53.856 121.735 54.656C121.511 55.456 121.191 56.112 120.775 56.624C120.391 57.168 119.911 57.44 119.335 57.44ZM155.064 55.52C154.456 55.52 154.104 55.12 154.008 54.32C153.944 53.776 153.88 53.152 153.816 52.448C153.784 51.712 153.752 51.008 153.72 50.336C153.72 49.664 153.72 49.136 153.72 48.752V40.016C152.888 40.08 152.056 40.176 151.224 40.304C150.424 40.432 149.624 40.592 148.824 40.784C148.184 40.944 147.608 40.928 147.096 40.736C146.904 40.64 146.6 40.464 146.184 40.208C145.8 39.952 145.432 39.696 145.08 39.44C144.76 39.152 144.584 38.976 144.552 38.912C144.424 38.528 144.504 38.144 144.792 37.76C145.08 37.344 145.368 37.12 145.656 37.088C146.872 37.28 148.168 37.376 149.544 37.376C150.952 37.376 152.344 37.312 153.72 37.184V30.176C153.144 30.208 152.552 30.272 151.944 30.368C151.368 30.464 150.712 30.608 149.976 30.8C149.624 30.864 149.352 30.896 149.16 30.896C148.968 30.896 148.712 30.832 148.392 30.704C148.232 30.64 148.024 30.544 147.768 30.416C147.512 30.256 147.256 30.096 147 29.936C146.104 31.952 144.952 34.048 143.544 36.224C142.136 38.4 140.552 40.448 138.792 42.368C137.032 44.288 135.144 45.888 133.128 47.168C132.488 47.584 131.816 47.808 131.112 47.84C130.44 47.84 130.024 47.584 129.864 47.072C129.8 46.784 129.848 46.496 130.008 46.208C130.168 45.92 130.408 45.664 130.728 45.44C132.168 44.288 133.592 42.896 135 41.264C136.44 39.632 137.752 37.888 138.936 36.032C140.152 34.144 141.176 32.24 142.008 30.32C142.872 28.4 143.464 26.576 143.784 24.848C143.88 24.464 143.768 24.272 143.448 24.272C142.264 24.272 140.952 24.352 139.512 24.512C138.072 24.672 136.648 24.912 135.24 25.232C135.208 25.232 135.176 25.232 135.144 25.232C134.6 25.36 134.216 25.424 133.992 25.424C133.8 25.392 133.528 25.216 133.176 24.896C132.952 24.704 132.6 24.384 132.12 23.936C131.672 23.456 131.368 23.072 131.208 22.784C131.144 22.496 131.272 22.16 131.592 21.776C131.912 21.36 132.2 21.152 132.456 21.152C133.16 21.312 134.04 21.424 135.096 21.488C136.152 21.552 137.256 21.568 138.408 21.536C139.592 21.504 140.712 21.424 141.768 21.296C142.856 21.136 143.768 20.928 144.504 20.672C144.728 20.576 144.92 20.544 145.08 20.576C145.24 20.576 145.4 20.608 145.56 20.672C145.592 20.672 145.608 20.672 145.608 20.672C146.12 20.832 146.728 21.008 147.432 21.2C148.136 21.392 148.696 21.568 149.112 21.728C149.656 21.92 149.8 22.336 149.544 22.976C149.48 23.264 149.336 23.696 149.112 24.272C148.92 24.848 148.712 25.44 148.488 26.048C148.296 26.624 148.12 27.104 147.96 27.488C148.888 27.616 149.832 27.68 150.792 27.68C151.752 27.648 152.728 27.6 153.72 27.536V23.024C153.72 22.128 153.688 21.456 153.624 21.008C153.56 20.528 153.416 20.144 153.192 19.856C152.968 19.536 152.632 19.2 152.184 18.848C151.864 18.592 151.624 18.352 151.464 18.128C151.336 17.904 151.352 17.632 151.512 17.312C152.056 16.224 152.856 15.84 153.912 16.16C154.552 16.352 155.16 16.608 155.736 16.928C156.344 17.248 156.872 17.568 157.32 17.888C157.928 18.304 158.232 18.704 158.232 19.088C158.136 19.504 158.072 20.08 158.04 20.816C158.008 21.552 157.992 22.288 157.992 23.024V48.512C157.992 49.12 157.944 49.824 157.848 50.624C157.752 51.392 157.592 52.16 157.368 52.928C157.144 53.664 156.84 54.288 156.456 54.8C156.104 55.28 155.64 55.52 155.064 55.52ZM162.648 57.248C162.072 57.248 161.704 56.848 161.544 56.048C161.448 55.472 161.368 54.8 161.304 54.032C161.272 53.232 161.24 52.48 161.208 51.776C161.208 51.04 161.208 50.48 161.208 50.096V21.2C161.208 20.304 161.176 19.632 161.112 19.184C161.048 18.736 160.904 18.368 160.68 18.08C160.456 17.76 160.072 17.408 159.528 17.024C159.208 16.768 158.968 16.528 158.808 16.304C158.68 16.08 158.696 15.792 158.856 15.44C159.368 14.416 160.168 14.032 161.256 14.288C161.992 14.48 162.696 14.752 163.368 15.104C164.072 15.456 164.68 15.808 165.192 16.16C165.768 16.544 166.056 16.928 166.056 17.312C165.992 17.728 165.912 18.304 165.816 19.04C165.72 19.776 165.672 20.512 165.672 21.248L165.624 49.856C165.624 50.464 165.576 51.184 165.48 52.016C165.416 52.848 165.272 53.664 165.048 54.464C164.824 55.264 164.52 55.92 164.136 56.432C163.752 56.976 163.256 57.248 162.648 57.248ZM182.203 40.4C181.787 40.4 181.451 40.224 181.195 39.872C180.971 39.488 180.843 38.88 180.811 38.048L180.475 26.432C180.443 25.504 180.395 24.736 180.331 24.128C180.267 23.52 180.123 22.992 179.899 22.544C179.675 22.064 179.291 21.6 178.747 21.152C178.523 20.928 178.363 20.704 178.267 20.48C178.171 20.256 178.219 19.984 178.411 19.664C178.731 19.152 179.099 18.832 179.515 18.704C179.931 18.576 180.347 18.576 180.763 18.704C181.307 18.832 181.963 19.12 182.731 19.568C183.499 19.984 184.059 20.368 184.411 20.72C184.763 21.04 184.987 21.296 185.083 21.488C185.179 21.68 185.243 21.904 185.275 22.16C185.211 22.544 185.147 23.008 185.083 23.552C185.051 24.064 185.019 24.592 184.987 25.136C185.755 25.168 186.827 25.184 188.203 25.184C189.579 25.152 191.035 25.104 192.571 25.04C194.139 24.976 195.611 24.912 196.987 24.848C198.395 24.784 199.515 24.72 200.347 24.656V23.696C200.347 23.504 200.347 23.328 200.347 23.168C200.347 22.976 200.347 22.8 200.347 22.64C200.379 21.648 200.331 20.912 200.203 20.432C200.075 19.92 199.643 19.392 198.907 18.848C198.619 18.688 198.411 18.48 198.283 18.224C198.187 17.968 198.235 17.68 198.427 17.36C198.715 16.848 199.067 16.528 199.483 16.4C199.931 16.272 200.363 16.272 200.779 16.4C201.323 16.528 201.899 16.752 202.507 17.072C203.115 17.36 203.675 17.68 204.187 18.032C204.923 18.544 205.323 18.976 205.387 19.328C205.259 20 205.163 20.864 205.099 21.92C205.035 22.976 205.003 23.808 205.003 24.416L204.955 35.264C204.955 36.448 204.635 37.472 203.995 38.336C203.355 39.168 202.651 39.584 201.883 39.584C201.371 39.584 201.003 39.44 200.779 39.152C200.587 38.832 200.459 38.368 200.395 37.76C199.595 37.76 198.491 37.776 197.083 37.808C195.707 37.808 194.235 37.824 192.667 37.856C191.131 37.888 189.659 37.92 188.251 37.952C186.875 37.984 185.755 38.032 184.891 38.096C184.667 38.8 184.283 39.36 183.739 39.776C183.227 40.192 182.715 40.4 182.203 40.4ZM175.867 52.4C175.419 52.4 174.971 52.24 174.523 51.92C174.011 51.6 173.451 51.168 172.843 50.624C172.267 50.048 171.947 49.648 171.883 49.424C171.787 49.136 171.915 48.752 172.267 48.272C172.619 47.76 173.003 47.536 173.419 47.6C174.443 47.824 175.739 48.016 177.307 48.176C178.907 48.304 180.779 48.368 182.923 48.368C183.787 48.368 184.923 48.368 186.331 48.368C187.771 48.336 189.275 48.304 190.843 48.272L190.795 45.056C190.763 43.872 190.667 43.104 190.507 42.752C190.347 42.368 190.027 41.984 189.547 41.6C189.515 41.568 189.483 41.536 189.451 41.504C189.163 41.28 188.971 41.088 188.875 40.928C188.779 40.768 188.795 40.528 188.923 40.208C189.179 39.664 189.515 39.328 189.931 39.2C190.347 39.04 190.763 38.992 191.179 39.056C191.723 39.152 192.299 39.328 192.907 39.584C193.547 39.84 194.091 40.096 194.539 40.352C195.179 40.736 195.531 41.088 195.595 41.408C195.339 42.432 195.195 43.52 195.163 44.672L194.971 48.176C196.251 48.144 197.435 48.112 198.523 48.08C199.611 48.016 200.491 47.968 201.163 47.936C203.147 47.808 204.939 47.648 206.539 47.456C208.171 47.232 209.483 46.992 210.475 46.736C210.891 46.608 211.243 46.544 211.531 46.544C211.883 46.544 212.203 46.752 212.491 47.168C212.715 47.52 212.955 47.984 213.211 48.56C213.467 49.136 213.595 49.536 213.595 49.76C213.595 50.112 213.371 50.464 212.923 50.816C212.475 51.136 212.155 51.296 211.963 51.296C211.195 51.2 210.235 51.136 209.083 51.104C207.931 51.04 206.731 51.008 205.483 51.008C204.267 50.976 203.099 50.96 201.979 50.96C199.227 50.992 196.219 51.056 192.955 51.152C189.691 51.216 186.347 51.312 182.923 51.44C182.411 51.472 181.723 51.536 180.859 51.632C180.027 51.728 179.211 51.84 178.411 51.968C177.643 52.064 177.067 52.16 176.683 52.256C176.363 52.352 176.091 52.4 175.867 52.4ZM185.083 35.12C185.979 35.12 187.115 35.12 188.491 35.12C189.867 35.088 191.307 35.056 192.811 35.024C194.315 34.96 195.739 34.896 197.083 34.832C198.427 34.768 199.515 34.704 200.347 34.64V27.776C199.579 27.776 198.507 27.792 197.131 27.824C195.787 27.824 194.331 27.84 192.763 27.872C191.227 27.904 189.755 27.952 188.347 28.016C186.971 28.048 185.851 28.08 184.987 28.112L185.083 35.12Z" fill="white"/>
</svg>
