<svg width="112" height="19" viewBox="0 0 112 19" fill="none" xmlns="http://www.w3.org/2000/svg">
<path d="M2.02004 9.85973C1.87337 9.88639 1.76671 9.85306 1.70004 9.75973C1.63337 9.66639 1.59337 9.53306 1.58004 9.35973C1.52671 8.75973 1.47337 8.13306 1.42004 7.47973C1.36671 6.82639 1.32004 6.22639 1.28004 5.67973C1.24004 5.13306 1.20004 4.73973 1.16004 4.49973C1.08004 4.03306 0.973372 3.69973 0.840039 3.49973C0.720039 3.28639 0.486706 3.07306 0.140039 2.85973C0.0467058 2.77973 0.0200391 2.67973 0.0600391 2.55973C0.206706 2.25306 0.400039 2.13306 0.640039 2.19973C0.786706 2.22639 0.986706 2.27973 1.24004 2.35973C1.49337 2.42639 1.71337 2.49306 1.90004 2.55973C2.16671 2.55973 2.51337 2.55973 2.94004 2.55973C3.38004 2.55973 3.83337 2.55306 4.30004 2.53973C4.78004 2.51306 5.21337 2.48639 5.60004 2.45973C6.44004 2.40639 7.01337 2.30639 7.32004 2.15973C7.42671 2.11973 7.53337 2.11306 7.64004 2.13973C7.94671 2.23306 8.28671 2.34639 8.66004 2.47973C8.71337 2.49306 8.76004 2.52639 8.80004 2.57973C8.84004 2.61973 8.84671 2.68639 8.82004 2.77973C8.76671 2.92639 8.70004 3.18639 8.62004 3.55973C8.55337 3.93306 8.48671 4.37973 8.42004 4.89973C8.35337 5.29973 8.28671 5.80639 8.22004 6.41973C8.16671 7.01973 8.10671 7.57973 8.04004 8.09973C8.10671 8.15306 8.22004 8.25306 8.38004 8.39973C8.54004 8.53306 8.62004 8.63973 8.62004 8.71973C8.62004 8.82639 8.57337 8.91973 8.48004 8.99973C8.38671 9.07973 8.32004 9.11306 8.28004 9.09973C8.13337 9.08639 7.87337 9.07973 7.50004 9.07973C7.14004 9.06639 6.72004 9.06639 6.24004 9.07973C5.77337 9.07973 5.29337 9.08639 4.80004 9.09973C4.32004 9.11306 3.87337 9.12639 3.46004 9.13973C3.06004 9.15306 2.74671 9.16639 2.52004 9.17973C2.49337 9.39306 2.42671 9.55306 2.32004 9.65973C2.22671 9.76639 2.12671 9.83306 2.02004 9.85973ZM2.50004 8.37973C2.68671 8.39306 2.98671 8.39973 3.40004 8.39973C3.81337 8.38639 4.26671 8.37306 4.76004 8.35973C5.25337 8.33306 5.72004 8.30639 6.16004 8.27973C6.60004 8.25306 6.92671 8.21973 7.14004 8.17973C7.19337 7.01973 7.23337 6.07306 7.26004 5.33973C7.30004 4.60639 7.32671 3.95306 7.34004 3.37973C7.34004 3.28639 7.32671 3.23306 7.30004 3.21973C7.27337 3.19306 7.24671 3.17973 7.22004 3.17973C6.86004 3.17973 6.38004 3.19306 5.78004 3.21973C5.18004 3.23306 4.56004 3.25306 3.92004 3.27973C3.29337 3.29306 2.74004 3.31306 2.26004 3.33973L2.50004 8.37973ZM12.62 11.0397C12.5 11.0397 12.4267 10.9731 12.4 10.8397C12.3734 10.7064 12.3467 10.5064 12.32 10.2397C12.3067 9.97306 12.3 9.69973 12.3 9.41973C12.3 9.12639 12.3 8.89306 12.3 8.71973V2.71973C12.3 2.31973 12.28 2.00639 12.24 1.77973C12.2134 1.55306 12.1267 1.35973 11.98 1.19973C11.8467 1.03973 11.62 0.866393 11.3 0.679726C11.1667 0.586392 11.1334 0.466392 11.2 0.319726C11.32 0.119726 11.48 0.0197263 11.68 0.0197263C11.88 0.0197263 12.1467 0.0930595 12.48 0.239726C12.8134 0.386392 13.0867 0.526392 13.3 0.659725C13.3667 0.699725 13.4267 0.753059 13.48 0.819726C13.5334 0.886392 13.5534 0.959726 13.54 1.03973C13.5 1.26639 13.4734 1.49306 13.46 1.71973C13.4467 1.94639 13.44 2.19973 13.44 2.47973V5.97973C14.12 5.97973 14.6867 5.93306 15.14 5.83973C15.5934 5.73306 15.9334 5.64639 16.16 5.57973C16.3067 5.52639 16.4134 5.51973 16.48 5.55973C16.5467 5.59973 16.6067 5.66639 16.66 5.75973C16.7134 5.83973 16.7734 5.97306 16.84 6.15973C16.9067 6.33306 16.94 6.45973 16.94 6.53973C16.94 6.61973 16.8934 6.69306 16.8 6.75973C16.72 6.82639 16.66 6.85973 16.62 6.85973C16.0867 6.80639 15.56 6.77306 15.04 6.75973C14.5334 6.73306 14 6.71973 13.44 6.71973V8.57973C13.44 8.77973 13.4267 9.01973 13.4 9.29973C13.3867 9.56639 13.3467 9.83306 13.28 10.0997C13.2267 10.3664 13.1467 10.5931 13.04 10.7797C12.9334 10.9531 12.7934 11.0397 12.62 11.0397ZM12.58 18.9397C12.4734 18.9664 12.4 18.9464 12.36 18.8797C12.32 18.8264 12.2934 18.7731 12.28 18.7197C12.2267 18.4797 12.1934 18.2131 12.18 17.9197C12.18 17.6397 12.18 17.3664 12.18 17.0997V13.3797C12.18 13.1931 12.1334 13.0997 12.04 13.0997C11.96 13.0997 11.7734 13.1064 11.48 13.1197C11.2 13.1331 10.8667 13.1531 10.48 13.1797C10.1067 13.1931 9.72004 13.2131 9.32004 13.2397C8.93337 13.2664 8.60004 13.2931 8.32004 13.3197C7.44004 13.3864 6.70004 13.4464 6.10004 13.4997C5.50004 13.5531 5.00004 13.6131 4.60004 13.6797C4.36004 13.7331 4.14671 13.6997 3.96004 13.5797C3.85337 13.5131 3.71337 13.4064 3.54004 13.2597C3.38004 13.0997 3.28671 12.9864 3.26004 12.9197C3.23337 12.8397 3.26004 12.7397 3.34004 12.6197C3.42004 12.4997 3.50671 12.4531 3.60004 12.4797C3.90671 12.5597 4.42671 12.6131 5.16004 12.6397C5.89337 12.6664 6.78671 12.6531 7.84004 12.5997C8.48004 12.5731 9.08671 12.5397 9.66004 12.4997C10.2334 12.4464 10.7267 12.3864 11.14 12.3197C11.5667 12.2531 11.8534 12.1864 12 12.1197C12.0934 12.0797 12.1934 12.0664 12.3 12.0797C12.4867 12.1197 12.6734 12.1531 12.86 12.1797C13.06 12.2064 13.2334 12.2331 13.38 12.2597C13.5134 12.2731 13.56 12.3731 13.52 12.5597C13.5067 12.6397 13.4867 12.7797 13.46 12.9797C13.4467 13.1664 13.4334 13.3597 13.42 13.5597C13.4067 13.7597 13.4 13.9264 13.4 14.0597L13.36 16.7997C13.36 17.0531 13.3334 17.3331 13.28 17.6397C13.2267 17.9597 13.1467 18.2397 13.04 18.4797C12.9334 18.7331 12.78 18.8864 12.58 18.9397ZM25.1785 18.3797C24.5918 18.3931 24.1518 18.2664 23.8585 17.9997C23.5785 17.7464 23.4385 17.3197 23.4385 16.7197V15.6597C23.4385 15.4997 23.3985 15.3931 23.3185 15.3397C23.2118 15.2731 23.0718 15.1797 22.8985 15.0597C22.7385 14.9264 22.6251 14.8264 22.5585 14.7597C22.5051 14.7064 22.5185 14.6131 22.5985 14.4797C22.6785 14.3331 22.7585 14.2664 22.8385 14.2797C23.3051 14.3864 23.8518 14.4464 24.4785 14.4597C24.7051 14.4731 25.0251 14.4797 25.4385 14.4797C25.8651 14.4664 26.3385 14.4531 26.8585 14.4397C27.3918 14.4131 27.9185 14.3931 28.4385 14.3797C28.9585 14.3531 29.4318 14.3264 29.8585 14.2997C30.2985 14.2597 30.6318 14.2264 30.8585 14.1997C30.8718 14.1197 30.8918 13.9597 30.9185 13.7197C30.9451 13.4664 30.9718 13.1997 30.9985 12.9197C31.0251 12.6264 31.0385 12.3864 31.0385 12.1997C31.0385 12.1064 31.0185 12.0531 30.9785 12.0397C30.9518 12.0264 30.9251 12.0197 30.8985 12.0197L26.0985 12.2397C25.5918 12.2664 25.1785 12.2931 24.8585 12.3197C24.5385 12.3464 24.2451 12.3864 23.9785 12.4397C23.8318 12.4664 23.7118 12.4797 23.6185 12.4797C23.5251 12.4664 23.4251 12.4264 23.3185 12.3597C23.2118 12.2931 23.0851 12.1997 22.9385 12.0797C22.7918 11.9464 22.7051 11.8464 22.6785 11.7797C22.6651 11.7131 22.6985 11.6264 22.7785 11.5197C22.8585 11.3997 22.9451 11.3531 23.0385 11.3797C23.1851 11.4197 23.4118 11.4531 23.7185 11.4797C24.0251 11.5064 24.3585 11.5264 24.7185 11.5397C25.0918 11.5397 25.4318 11.5331 25.7385 11.5197C26.1118 11.5064 26.5518 11.4931 27.0585 11.4797C27.5785 11.4531 28.0985 11.4264 28.6185 11.3997C29.1385 11.3731 29.6051 11.3397 30.0185 11.2997C30.4451 11.2464 30.7585 11.1864 30.9585 11.1197C30.9585 11.1197 30.9651 11.1197 30.9785 11.1197C31.0185 11.0931 31.0585 11.0797 31.0985 11.0797C31.1518 11.0664 31.2118 11.0664 31.2785 11.0797L32.1985 11.3597C32.3451 11.4131 32.3851 11.5131 32.3185 11.6597C32.2918 11.7264 32.2451 11.8664 32.1785 12.0797C32.1251 12.2797 32.0651 12.5131 31.9985 12.7797C31.9318 13.0464 31.8651 13.2997 31.7985 13.5397C31.7451 13.7797 31.7051 13.9597 31.6785 14.0797C31.7851 14.1331 31.9185 14.2131 32.0785 14.3197C32.2518 14.4131 32.3385 14.4997 32.3385 14.5797C32.3385 14.6864 32.2851 14.7997 32.1785 14.9197C32.0851 15.0397 32.0185 15.0931 31.9785 15.0797C31.8185 15.0664 31.5185 15.0597 31.0785 15.0597C30.6385 15.0464 30.1185 15.0464 29.5185 15.0597C28.9318 15.0597 28.3185 15.0731 27.6785 15.0997C27.0518 15.1131 26.4651 15.1331 25.9185 15.1597C25.3718 15.1864 24.9251 15.2131 24.5785 15.2397V16.5997C24.5785 17.0397 24.6318 17.3131 24.7385 17.4197C24.8585 17.5264 25.0518 17.5797 25.3185 17.5797C25.3585 17.5797 25.4451 17.5797 25.5785 17.5797C25.8451 17.5797 26.1985 17.5797 26.6385 17.5797C27.0918 17.5797 27.5785 17.5731 28.0985 17.5597C28.6318 17.5464 29.1518 17.5264 29.6585 17.4997C30.3518 17.4597 30.9118 17.4064 31.3385 17.3397C31.7651 17.2731 32.1318 17.1864 32.4385 17.0797C32.5985 17.0131 32.7185 16.9931 32.7985 17.0197C32.8785 17.0464 32.9651 17.1064 33.0585 17.1997C33.1385 17.2797 33.2185 17.3797 33.2985 17.4997C33.3785 17.6331 33.4251 17.7397 33.4385 17.8197C33.4518 17.8997 33.4051 17.9931 33.2985 18.0997C33.1918 18.2064 33.1185 18.2597 33.0785 18.2597C32.3851 18.2331 31.7918 18.2197 31.2985 18.2197C30.8051 18.2331 30.2318 18.2531 29.5785 18.2797C28.8985 18.3064 28.1585 18.3264 27.3585 18.3397C26.5585 18.3531 25.8318 18.3664 25.1785 18.3797ZM19.1185 11.5397C18.9585 11.6197 18.7851 11.6397 18.5985 11.5997C18.4118 11.5597 18.2918 11.4864 18.2385 11.3797C18.1851 11.2597 18.2518 11.1464 18.4385 11.0397C18.8918 10.7997 19.3985 10.4797 19.9585 10.0797C20.5185 9.67973 21.0918 9.21973 21.6785 8.69973C22.2651 8.16639 22.8185 7.59973 23.3385 6.99973C23.8585 6.39973 24.3118 5.78639 24.6985 5.15973C25.0851 4.51973 25.3651 3.89306 25.5385 3.27973C25.5785 3.15973 25.5718 3.09306 25.5185 3.07973C25.4651 3.05306 25.4251 3.03973 25.3985 3.03973C25.3851 3.03973 25.3785 3.03973 25.3785 3.03973C25.0718 3.03973 24.6785 3.05973 24.1985 3.09973C23.7318 3.12639 23.3451 3.15306 23.0385 3.17973C22.4651 3.23306 22.0051 3.27973 21.6585 3.31973C21.3251 3.35973 20.9585 3.41306 20.5585 3.47973C20.1451 3.54639 19.8385 3.49973 19.6385 3.33973C19.3318 3.08639 19.1318 2.87306 19.0385 2.69973C19.0118 2.63306 19.0251 2.54639 19.0785 2.43973C19.1451 2.31973 19.2251 2.27306 19.3185 2.29973C19.7051 2.36639 20.1785 2.41973 20.7385 2.45973C21.3118 2.48639 21.9118 2.47973 22.5385 2.43973C23.0585 2.41306 23.6051 2.36639 24.1785 2.29973C24.7651 2.23306 25.2318 2.12639 25.5785 1.97973C25.6851 1.93973 25.7918 1.93973 25.8985 1.97973L27.0185 2.39973C27.0718 2.42639 27.1118 2.46639 27.1385 2.51973C27.1785 2.55973 27.1785 2.62639 27.1385 2.71973L26.4785 4.11973C26.0518 5.01306 25.5251 5.85306 24.8985 6.63973C24.2718 7.42639 23.6118 8.13973 22.9185 8.77973C22.2251 9.41973 21.5451 9.97306 20.8785 10.4397C20.2118 10.9064 19.6251 11.2731 19.1185 11.5397ZM31.4385 10.2197C31.3185 10.2197 31.2451 10.1531 31.2185 10.0197C31.1918 9.88639 31.1651 9.69306 31.1385 9.43973C31.1251 9.17306 31.1185 8.89973 31.1185 8.61973C31.1185 8.33973 31.1185 8.11306 31.1185 7.93973V6.39973L30.4985 6.41973C29.7785 6.44639 29.2318 6.49306 28.8585 6.55973C28.4985 6.62639 28.1451 6.69973 27.7985 6.77973C27.6518 6.80639 27.5318 6.81973 27.4385 6.81973C27.3585 6.80639 27.2651 6.76639 27.1585 6.69973C27.0651 6.63306 26.9251 6.52639 26.7385 6.37973C26.5518 6.21973 26.4451 6.10639 26.4185 6.03973C26.3918 5.97306 26.4118 5.89306 26.4785 5.79973C26.5585 5.69306 26.6451 5.65306 26.7385 5.67973C26.9651 5.71973 27.3718 5.75306 27.9585 5.77973C28.5451 5.79306 29.2785 5.77306 30.1585 5.71973L31.1185 5.65973V2.71973C31.1185 2.31973 31.0985 2.00639 31.0585 1.77973C31.0318 1.55306 30.9451 1.35973 30.7985 1.19973C30.6651 1.03973 30.4385 0.866393 30.1185 0.679726C29.9851 0.586392 29.9518 0.466392 30.0185 0.319726C30.1385 0.119726 30.2985 0.0197263 30.4985 0.0197263C30.6985 0.0197263 30.9651 0.0930595 31.2985 0.239726C31.6318 0.386392 31.9051 0.526392 32.1185 0.659725C32.1851 0.699725 32.2451 0.753059 32.2985 0.819726C32.3518 0.886392 32.3718 0.959726 32.3585 1.03973C32.3185 1.26639 32.2918 1.49306 32.2785 1.71973C32.2651 1.94639 32.2585 2.19973 32.2585 2.47973V7.79973C32.2585 8.06639 32.2385 8.39306 32.1985 8.77973C32.1585 9.15306 32.0785 9.48639 31.9585 9.77973C31.8385 10.0731 31.6651 10.2197 31.4385 10.2197ZM38.4008 13.1797C38.1075 13.1931 37.8742 13.0597 37.7008 12.7797C37.5275 12.4864 37.4408 12.1464 37.4408 11.7597V8.35973C37.4408 8.22639 37.4208 8.13306 37.3808 8.07973C37.3542 8.01306 37.2875 7.94639 37.1808 7.87973C37.0475 7.81306 36.8875 7.72639 36.7008 7.61973C36.5142 7.51306 36.4008 7.42639 36.3608 7.35973C36.3208 7.29306 36.3342 7.18639 36.4008 7.03973C36.4675 6.89306 36.5408 6.82639 36.6208 6.83973C36.8475 6.86639 37.0875 6.89306 37.3408 6.91973C37.6075 6.94639 37.8742 6.96639 38.1408 6.97973C38.4075 6.99306 38.7408 6.99973 39.1408 6.99973C39.5542 6.98639 39.9875 6.96639 40.4408 6.93973C40.8942 6.91306 41.3208 6.87973 41.7208 6.83973C42.1208 6.79973 42.4408 6.75973 42.6808 6.71973C42.6942 6.62639 42.7208 6.43973 42.7608 6.15973C42.8008 5.86639 42.8408 5.53973 42.8808 5.17973C42.9208 4.81973 42.9608 4.47973 43.0008 4.15973C43.0408 3.83973 43.0675 3.60639 43.0808 3.45973C43.0942 3.35306 43.0808 3.29306 43.0408 3.27973C43.0142 3.25306 42.9875 3.23973 42.9608 3.23973C42.9475 3.23973 42.9208 3.23973 42.8808 3.23973C42.7208 3.23973 42.4208 3.24639 41.9808 3.25973C41.5542 3.25973 40.9875 3.29306 40.2808 3.35973C39.9342 3.38639 39.6475 3.41306 39.4208 3.43973C39.2075 3.45306 39.0008 3.47306 38.8008 3.49973C38.6008 3.51306 38.3675 3.54639 38.1008 3.59973C37.8475 3.65306 37.6742 3.66639 37.5808 3.63973C37.5008 3.61306 37.4008 3.54639 37.2808 3.43973C37.1475 3.33306 37.0408 3.23306 36.9608 3.13973C36.8808 3.03306 36.8142 2.93306 36.7608 2.83973C36.7208 2.77306 36.7342 2.69306 36.8008 2.59973C36.8675 2.49306 36.9475 2.44639 37.0408 2.45973C37.2675 2.48639 37.5142 2.51306 37.7808 2.53973C38.0608 2.55306 38.3342 2.56639 38.6008 2.57973C38.8942 2.59306 39.2542 2.59973 39.6808 2.59973C40.1075 2.58639 40.5342 2.56639 40.9608 2.53973C41.4008 2.51306 41.7808 2.48639 42.1008 2.45973C42.3275 2.43306 42.5342 2.39306 42.7208 2.33973C42.9208 2.27306 43.0542 2.21973 43.1208 2.17973C43.2275 2.11306 43.3475 2.11306 43.4808 2.17973L44.4008 2.55973C44.5342 2.61306 44.5742 2.71973 44.5208 2.87973C44.4942 2.94639 44.4342 3.09973 44.3408 3.33973C44.2608 3.57973 44.1875 3.85306 44.1208 4.15973L43.5808 6.55973C43.6875 6.62639 43.8208 6.73306 43.9808 6.87973C44.1408 7.01306 44.2208 7.11306 44.2208 7.17973C44.2208 7.28639 44.1675 7.38639 44.0608 7.47973C43.9675 7.57306 43.9008 7.61973 43.8608 7.61973C43.7142 7.60639 43.4275 7.60639 43.0008 7.61973C42.5742 7.61973 42.0875 7.63306 41.5408 7.65973C40.9942 7.68639 40.4542 7.71306 39.9208 7.73973C39.3875 7.76639 38.9408 7.79306 38.5808 7.81973V11.5397C38.5808 11.7131 38.6142 11.8464 38.6808 11.9397C38.7608 12.0331 38.9342 12.0731 39.2008 12.0597C39.9342 12.0464 40.7008 11.9797 41.5008 11.8597C42.3008 11.7397 43.0675 11.5997 43.8008 11.4397C44.5475 11.2664 45.2008 11.0931 45.7608 10.9197C46.3208 10.7331 46.7275 10.5731 46.9808 10.4397C47.2475 10.3331 47.3942 10.3664 47.4208 10.5397C47.4608 10.7131 47.3742 10.8797 47.1608 11.0397C46.9742 11.1597 46.6408 11.3131 46.1608 11.4997C45.6808 11.6731 45.1075 11.8597 44.4408 12.0597C43.7875 12.2597 43.0942 12.4464 42.3608 12.6197C41.6408 12.7797 40.9342 12.9131 40.2408 13.0197C39.5475 13.1264 38.9342 13.1797 38.4008 13.1797ZM48.5408 17.6597C48.3942 17.6597 48.3142 17.5931 48.3008 17.4597C48.2875 17.3531 48.2675 17.1597 48.2408 16.8797C48.2275 16.5864 48.2142 16.2731 48.2008 15.9397C48.1875 15.5931 48.1808 15.2931 48.1808 15.0397V2.77973C48.1808 2.36639 48.1608 2.04639 48.1208 1.81973C48.0942 1.59306 48.0075 1.40639 47.8608 1.25973C47.7275 1.09973 47.4875 0.933059 47.1408 0.759726C47.0342 0.693059 46.9808 0.626392 46.9808 0.559725C46.9808 0.493059 47.0275 0.406392 47.1208 0.299726C47.2142 0.179726 47.3142 0.119726 47.4208 0.119726C47.5808 0.119726 47.7808 0.159726 48.0208 0.239726C48.2608 0.319726 48.4942 0.413059 48.7208 0.519726C48.9475 0.613059 49.1142 0.699725 49.2208 0.779726C49.3808 0.899726 49.4542 1.03306 49.4408 1.17973C49.4008 1.45973 49.3675 1.71973 49.3408 1.95973C49.3275 2.19973 49.3208 2.47973 49.3208 2.79973V14.9997C49.3208 15.2131 49.3075 15.4731 49.2808 15.7797C49.2675 16.0731 49.2342 16.3664 49.1808 16.6597C49.1275 16.9397 49.0475 17.1731 48.9408 17.3597C48.8475 17.5597 48.7142 17.6597 48.5408 17.6597ZM69.7044 16.9597C69.5977 16.9997 69.5177 16.9997 69.4644 16.9597C69.4244 16.9064 69.3977 16.8597 69.3844 16.8197C69.3577 16.7131 69.3311 16.5131 69.3044 16.2197C69.2777 15.9264 69.2577 15.6064 69.2444 15.2597C69.2444 14.9131 69.2444 14.6064 69.2444 14.3397V10.3397L68.4844 10.3597C68.0711 10.3864 67.6844 10.4197 67.3244 10.4597C66.9777 10.4864 66.6044 10.5464 66.2044 10.6397C66.0577 10.6664 65.9377 10.6797 65.8444 10.6797C65.7644 10.6664 65.6711 10.6264 65.5644 10.5597C65.4577 10.4931 65.3177 10.3997 65.1444 10.2797C64.9711 10.1464 64.8711 10.0464 64.8444 9.97973C64.8177 9.89973 64.8377 9.81973 64.9044 9.73973C64.9711 9.64639 65.0511 9.60639 65.1444 9.61973C65.5177 9.67306 65.9511 9.70639 66.4444 9.71973C66.9377 9.73306 67.5911 9.71306 68.4044 9.65973C68.5644 9.64639 68.7111 9.63973 68.8444 9.63973C68.9777 9.62639 69.1111 9.60639 69.2444 9.57973V6.41973H69.0844C68.7111 6.44639 68.4244 6.47306 68.2244 6.49973C68.0244 6.51306 67.7511 6.55973 67.4044 6.63973C67.2577 6.66639 67.1377 6.68639 67.0444 6.69973C66.9644 6.69973 66.8711 6.67306 66.7644 6.61973C66.6577 6.57973 66.5244 6.51306 66.3644 6.41973C66.2044 6.31306 66.0844 6.21973 66.0044 6.13973C65.6311 7.00639 65.1444 7.89306 64.5444 8.79973C63.9577 9.69306 63.2644 10.5531 62.4644 11.3797C61.6777 12.1931 60.7977 12.9197 59.8244 13.5597C59.6644 13.6664 59.5044 13.7131 59.3444 13.6997C59.1844 13.6864 59.0777 13.6331 59.0244 13.5397C58.9844 13.4464 59.0644 13.3264 59.2644 13.1797C60.1711 12.5131 61.0444 11.6997 61.8844 10.7397C62.7244 9.76639 63.4577 8.70639 64.0844 7.55973C64.7111 6.41306 65.1444 5.23973 65.3844 4.03973C65.4111 3.90639 65.4044 3.83306 65.3644 3.81973C65.3244 3.79306 65.2844 3.77973 65.2444 3.77973C65.2311 3.77973 65.2244 3.77973 65.2244 3.77973C64.9177 3.77973 64.6244 3.79306 64.3444 3.81973C64.0777 3.83306 63.7844 3.85306 63.4644 3.87973C63.0911 3.90639 62.7777 3.93973 62.5244 3.97973C62.2844 4.00639 62.0577 4.03973 61.8444 4.07973C61.6311 4.10639 61.3844 4.14639 61.1044 4.19973C60.8911 4.25306 60.7444 4.26639 60.6644 4.23973C60.5977 4.21306 60.5177 4.15973 60.4244 4.07973C60.4111 4.06639 60.3977 4.05973 60.3844 4.05973C60.2644 3.93973 60.1377 3.81306 60.0044 3.67973C59.8844 3.54639 59.8044 3.44639 59.7644 3.37973C59.7244 3.31306 59.7377 3.23306 59.8044 3.13973C59.8844 3.03306 59.9711 2.99306 60.0644 3.01973C60.3444 3.07306 60.7377 3.11306 61.2444 3.13973C61.7644 3.16639 62.2844 3.16639 62.8044 3.13973C63.4044 3.11306 63.8844 3.07973 64.2444 3.03973C64.6177 2.98639 64.9777 2.89973 65.3244 2.77973C65.4044 2.72639 65.5044 2.72639 65.6244 2.77973L66.8844 3.19973C66.9377 3.22639 66.9777 3.26639 67.0044 3.31973C67.0444 3.37306 67.0444 3.44639 67.0044 3.53973C66.8844 3.83306 66.7644 4.13306 66.6444 4.43973C66.5377 4.74639 66.4311 5.04639 66.3244 5.33973L66.1844 5.69973C66.4911 5.75306 66.8444 5.78639 67.2444 5.79973C67.6577 5.79973 68.2311 5.77306 68.9644 5.71973H69.2444V3.89973C69.2444 3.84639 69.2444 3.79973 69.2444 3.75973C69.2444 3.71973 69.2444 3.67306 69.2444 3.61973C69.2444 3.09973 69.2111 2.68639 69.1444 2.37973C69.0777 2.05973 68.8377 1.77306 68.4244 1.51973C68.2644 1.41306 68.2311 1.29306 68.3244 1.15973C68.4044 1.02639 68.4844 0.939726 68.5644 0.899726C68.6577 0.859725 68.7577 0.846392 68.8644 0.859726C69.1044 0.886393 69.3644 0.993059 69.6444 1.17973C69.9377 1.35306 70.1244 1.47973 70.2044 1.55973C70.2711 1.62639 70.3244 1.69306 70.3644 1.75973C70.4177 1.81306 70.4377 1.87306 70.4244 1.93973C70.3844 2.19306 70.3577 2.47306 70.3444 2.77973C70.3444 3.07306 70.3444 3.35973 70.3444 3.63973C70.3444 3.69306 70.3444 3.74639 70.3444 3.79973C70.3444 3.83973 70.3444 3.87973 70.3444 3.91973V14.2997C70.3444 14.5797 70.3311 14.9197 70.3044 15.3197C70.2777 15.7197 70.2177 16.0797 70.1244 16.3997C70.0311 16.7197 69.8911 16.9064 69.7044 16.9597ZM72.8444 17.6397C72.7377 17.6797 72.6577 17.6731 72.6044 17.6197C72.5644 17.5797 72.5377 17.5397 72.5244 17.4997C72.4977 17.3931 72.4711 17.1931 72.4444 16.8997C72.4177 16.6064 72.3977 16.2864 72.3844 15.9397C72.3844 15.5931 72.3844 15.2864 72.3844 15.0197V2.79973C72.3844 2.77306 72.3844 2.72639 72.3844 2.65973C72.3844 2.28639 72.3711 1.99306 72.3444 1.77973C72.3177 1.56639 72.2377 1.38639 72.1044 1.23973C71.9844 1.07973 71.7711 0.906392 71.4644 0.719726C71.3311 0.626393 71.2977 0.506393 71.3644 0.359725C71.5111 0.119725 71.6977 0.0197255 71.9244 0.0597258C72.1644 0.099726 72.4244 0.199726 72.7044 0.359725C72.9977 0.506393 73.2177 0.639726 73.3644 0.759726C73.3777 0.773059 73.3911 0.786393 73.4044 0.799726C73.4711 0.853059 73.5244 0.913059 73.5644 0.979726C73.6044 1.03306 73.6177 1.09306 73.6044 1.15973C73.5644 1.43973 73.5311 1.70639 73.5044 1.95973C73.4911 2.21306 73.4844 2.49973 73.4844 2.81973V14.9797C73.4844 15.2597 73.4711 15.5997 73.4444 15.9997C73.4177 16.3997 73.3577 16.7597 73.2644 17.0797C73.1711 17.3997 73.0311 17.5864 72.8444 17.6397ZM80.7922 10.6597C80.6456 10.6731 80.5389 10.6197 80.4722 10.4997C80.4056 10.3797 80.3722 10.2197 80.3722 10.0197L80.2722 5.05973C80.2722 4.59306 80.2522 4.21973 80.2122 3.93973C80.1722 3.64639 80.0922 3.39973 79.9722 3.19973C79.8522 2.98639 79.6589 2.78639 79.3922 2.59973C79.2456 2.50639 79.2189 2.38639 79.3122 2.23973C79.4589 1.99973 79.6589 1.91306 79.9122 1.97973C80.0989 2.03306 80.3122 2.12639 80.5522 2.25973C80.8056 2.39306 81.0122 2.53306 81.1722 2.67973C81.3589 2.85306 81.4456 2.99973 81.4322 3.11973C81.4056 3.30639 81.3856 3.55973 81.3722 3.87973C81.3589 4.18639 81.3522 4.47306 81.3522 4.73973C81.7522 4.73973 82.2722 4.73306 82.9122 4.71973C83.5656 4.70639 84.2522 4.69306 84.9722 4.67973C85.7056 4.65306 86.3989 4.62639 87.0522 4.59973C87.7189 4.57306 88.2722 4.53973 88.7122 4.49973V3.93973C88.7122 3.33973 88.6656 2.86639 88.5722 2.51973C88.4789 2.17306 88.2256 1.85973 87.8122 1.57973C87.6789 1.48639 87.6589 1.37306 87.7522 1.23973C87.9389 1.01306 88.1322 0.926392 88.3322 0.979726C88.5189 1.01973 88.7522 1.11973 89.0322 1.27973C89.3256 1.42639 89.5522 1.57306 89.7122 1.71973C89.8989 1.90639 89.9856 2.03306 89.9722 2.09973C89.9456 2.29973 89.9122 2.57306 89.8722 2.91973C89.8456 3.25306 89.8322 3.55973 89.8322 3.83973V8.81973C89.8322 9.20639 89.7789 9.54639 89.6722 9.83973C89.5656 10.1331 89.3922 10.2931 89.1522 10.3197C89.0056 10.3464 88.8989 10.2931 88.8322 10.1597C88.7789 10.0131 88.7389 9.84639 88.7122 9.65973C88.2722 9.65973 87.7256 9.66639 87.0722 9.67973C86.4322 9.67973 85.7522 9.68639 85.0322 9.69973C84.3256 9.69973 83.6456 9.70639 82.9922 9.71973C82.3522 9.73306 81.8122 9.75306 81.3722 9.77973C81.3456 10.0331 81.2722 10.2397 81.1522 10.3997C81.0322 10.5597 80.9122 10.6464 80.7922 10.6597ZM81.3722 8.97973C81.8122 8.99306 82.3522 8.99973 82.9922 8.99973C83.6456 8.98639 84.3256 8.97306 85.0322 8.95973C85.7522 8.93306 86.4322 8.90639 87.0722 8.87973C87.7256 8.83973 88.2722 8.79973 88.7122 8.75973V5.37973C88.2722 5.37973 87.7256 5.38639 87.0722 5.39973C86.4322 5.39973 85.7522 5.40639 85.0322 5.41973C84.3256 5.43306 83.6456 5.45306 82.9922 5.47973C82.3389 5.49306 81.7922 5.51306 81.3522 5.53973L81.3722 8.97973ZM78.3322 15.3597C78.0922 15.4131 77.9322 15.4331 77.8522 15.4197C77.7722 15.3931 77.6656 15.3331 77.5322 15.2397C77.4522 15.1864 77.3456 15.0997 77.2122 14.9797C77.0789 14.8597 76.9589 14.7464 76.8522 14.6397C76.7456 14.5197 76.6789 14.4331 76.6522 14.3797C76.6122 14.3131 76.6322 14.2197 76.7122 14.0997C76.8056 13.9797 76.8989 13.9331 76.9922 13.9597C77.4189 14.0531 77.8922 14.1264 78.4122 14.1797C78.9456 14.2197 79.5656 14.2331 80.2722 14.2197C80.4056 14.2197 80.5389 14.2197 80.6722 14.2197C80.8189 14.2197 80.9589 14.2197 81.0922 14.2197C81.6656 14.2197 82.2389 14.2197 82.8122 14.2197C83.3989 14.2197 83.9989 14.2064 84.6122 14.1797L84.6322 12.8397C84.6456 12.4397 84.6189 12.0931 84.5522 11.7997C84.4856 11.5064 84.2856 11.2664 83.9522 11.0797C83.8589 11.0264 83.8122 10.9731 83.8122 10.9197C83.8256 10.8664 83.8522 10.7997 83.8922 10.7197C84.0122 10.4931 84.1989 10.4064 84.4522 10.4597C84.8122 10.5531 85.1856 10.7331 85.5722 10.9997C85.7589 11.1331 85.8389 11.2597 85.8122 11.3797C85.7589 11.5797 85.7189 11.7864 85.6922 11.9997C85.6789 12.1997 85.6656 12.4397 85.6522 12.7197C85.6389 12.9597 85.6256 13.1997 85.6122 13.4397C85.5989 13.6797 85.5922 13.9197 85.5922 14.1597C86.0856 14.1464 86.5789 14.1397 87.0722 14.1397C87.5656 14.1264 88.0656 14.1064 88.5722 14.0797C89.4389 14.0531 90.2322 13.9931 90.9522 13.8997C91.6722 13.8064 92.1789 13.7064 92.4722 13.5997C92.6189 13.5597 92.7322 13.5597 92.8122 13.5997C92.8922 13.6264 92.9722 13.6931 93.0522 13.7997C93.1322 13.9064 93.2122 14.0464 93.2922 14.2197C93.3856 14.3797 93.4322 14.5131 93.4322 14.6197C93.4322 14.7131 93.3856 14.7931 93.2922 14.8597C93.1989 14.9264 93.1256 14.9597 93.0722 14.9597C92.4589 14.9064 91.7656 14.8797 90.9922 14.8797C90.2322 14.8664 89.5389 14.8597 88.9122 14.8597C88.1122 14.8731 87.2456 14.8931 86.3122 14.9197C85.3789 14.9331 84.4589 14.9464 83.5522 14.9597C82.6589 14.9731 81.8456 14.9997 81.1122 15.0397C80.5256 15.0664 80.0122 15.1064 79.5722 15.1597C79.1322 15.2131 78.7189 15.2797 78.3322 15.3597ZM98.92 9.09973C98.3067 9.08639 98 8.63306 98 7.73973V4.49973C98 4.01973 97.94 3.65306 97.82 3.39973C97.7134 3.13306 97.4534 2.90639 97.04 2.71973C96.8934 2.65306 96.8534 2.54639 96.92 2.39973C97.0134 2.11973 97.1934 1.99306 97.46 2.01973C97.6067 2.03306 97.8 2.07973 98.04 2.15973C98.2934 2.23973 98.52 2.31973 98.72 2.39973C98.9467 2.39973 99.3067 2.39973 99.8 2.39973C100.293 2.38639 100.82 2.37306 101.38 2.35973C101.953 2.34639 102.48 2.33306 102.96 2.31973C103.453 2.29306 103.8 2.27306 104 2.25973C104.453 2.23306 104.913 2.19973 105.38 2.15973C105.847 2.10639 106.26 2.05306 106.62 1.99973C106.98 1.94639 107.233 1.90639 107.38 1.87973C107.54 1.81306 107.653 1.79973 107.72 1.83973C107.8 1.86639 107.88 1.91306 107.96 1.97973C107.973 1.99306 107.98 1.99973 107.98 1.99973C108.047 2.06639 108.12 2.16639 108.2 2.29973C108.28 2.43306 108.32 2.53306 108.32 2.59973C108.32 2.69306 108.28 2.78639 108.2 2.87973C108.12 2.97306 108.053 3.01973 108 3.01973C107.547 2.99306 107.06 2.97973 106.54 2.97973C106.02 2.97973 105.327 2.99306 104.46 3.01973C104.193 3.03306 103.833 3.04639 103.38 3.05973C102.927 3.07306 102.433 3.09306 101.9 3.11973C101.367 3.13306 100.853 3.14639 100.36 3.15973C99.88 3.17306 99.4734 3.18639 99.14 3.19973V7.59973C99.14 7.86639 99.1734 8.05306 99.24 8.15973C99.3067 8.25306 99.4734 8.29973 99.74 8.29973C100.487 8.29973 101.18 8.29973 101.82 8.29973C102.46 8.28639 103.153 8.25973 103.9 8.21973C104.7 8.17973 105.413 8.12639 106.04 8.05973C106.68 7.99306 107.16 7.91306 107.48 7.81973C107.64 7.76639 107.76 7.74639 107.84 7.75973C107.933 7.77306 108.02 7.83306 108.1 7.93973C108.167 8.03306 108.227 8.13973 108.28 8.25973C108.347 8.36639 108.393 8.46639 108.42 8.55973C108.447 8.65306 108.407 8.75306 108.3 8.85973C108.193 8.95306 108.113 8.99973 108.06 8.99973C107.62 8.97306 107.207 8.95973 106.82 8.95973C106.433 8.95973 106.027 8.96639 105.6 8.97973C105.36 8.97973 105.1 8.98639 104.82 8.99973C104.553 8.99973 104.26 8.99973 103.94 8.99973C103.82 8.99973 103.693 9.00639 103.56 9.01973C103.44 9.01973 103.313 9.01973 103.18 9.01973C102.473 9.05973 101.747 9.09306 101 9.11973C100.253 9.13306 99.56 9.12639 98.92 9.09973ZM96.34 15.2597C96.1 15.3131 95.94 15.3331 95.86 15.3197C95.78 15.2931 95.6734 15.2331 95.54 15.1397C95.46 15.0864 95.3534 14.9997 95.22 14.8797C95.0867 14.7597 94.9667 14.6464 94.86 14.5397C94.7534 14.4197 94.6867 14.3331 94.66 14.2797C94.62 14.2131 94.64 14.1197 94.72 13.9997C94.8134 13.8797 94.9067 13.8331 95 13.8597C95.4267 13.9531 95.9 14.0264 96.42 14.0797C96.9534 14.1197 97.5734 14.1331 98.28 14.1197C98.96 14.1197 99.66 14.1197 100.38 14.1197C101.1 14.1197 101.84 14.1131 102.6 14.0997L102.62 12.2997C102.633 11.9131 102.607 11.5731 102.54 11.2797C102.487 10.9864 102.287 10.7464 101.94 10.5597C101.793 10.4797 101.773 10.3597 101.88 10.1997C102.027 9.97306 102.22 9.89306 102.46 9.95973C102.673 10.0264 102.86 10.0997 103.02 10.1797C103.193 10.2464 103.373 10.3464 103.56 10.4797C103.733 10.6397 103.813 10.7664 103.8 10.8597C103.707 11.2064 103.653 11.6531 103.64 12.1997C103.627 12.4664 103.613 12.7731 103.6 13.1197C103.587 13.4664 103.58 13.7797 103.58 14.0597C104.073 14.0464 104.567 14.0397 105.06 14.0397C105.567 14.0264 106.073 14.0064 106.58 13.9797C107.447 13.9531 108.24 13.8931 108.96 13.7997C109.68 13.7064 110.187 13.6064 110.48 13.4997C110.627 13.4597 110.74 13.4597 110.82 13.4997C110.9 13.5264 110.98 13.5931 111.06 13.6997C111.14 13.8064 111.22 13.9464 111.3 14.1197C111.393 14.2797 111.44 14.4131 111.44 14.5197C111.44 14.6131 111.393 14.6931 111.3 14.7597C111.207 14.8264 111.133 14.8597 111.08 14.8597C110.467 14.8064 109.773 14.7797 109 14.7797C108.24 14.7664 107.547 14.7597 106.92 14.7597C106.12 14.7731 105.253 14.7931 104.32 14.8197C103.387 14.8331 102.467 14.8464 101.56 14.8597C100.667 14.8731 99.8534 14.8997 99.12 14.9397C98.5334 14.9664 98.02 15.0064 97.58 15.0597C97.14 15.1131 96.7267 15.1797 96.34 15.2597Z" fill="#014A2E"/>
</svg>
