<svg width="148" height="19" viewBox="0 0 148 19" fill="none" xmlns="http://www.w3.org/2000/svg">
<path d="M2.02004 9.85973C1.87337 9.88639 1.76671 9.85306 1.70004 9.75973C1.63337 9.66639 1.59337 9.53306 1.58004 9.35973C1.52671 8.75973 1.47337 8.13306 1.42004 7.47973C1.36671 6.82639 1.32004 6.22639 1.28004 5.67973C1.24004 5.13306 1.20004 4.73973 1.16004 4.49973C1.08004 4.03306 0.973372 3.69973 0.840039 3.49973C0.720039 3.28639 0.486706 3.07306 0.140039 2.85973C0.0467058 2.77973 0.0200391 2.67973 0.0600391 2.55973C0.206706 2.25306 0.400039 2.13306 0.640039 2.19973C0.786706 2.22639 0.986706 2.27973 1.24004 2.35973C1.49337 2.42639 1.71337 2.49306 1.90004 2.55973C2.16671 2.55973 2.51337 2.55973 2.94004 2.55973C3.38004 2.55973 3.83337 2.55306 4.30004 2.53973C4.78004 2.51306 5.21337 2.48639 5.60004 2.45973C6.44004 2.40639 7.01337 2.30639 7.32004 2.15973C7.42671 2.11973 7.53337 2.11306 7.64004 2.13973C7.94671 2.23306 8.28671 2.34639 8.66004 2.47973C8.71337 2.49306 8.76004 2.52639 8.80004 2.57973C8.84004 2.61973 8.84671 2.68639 8.82004 2.77973C8.76671 2.92639 8.70004 3.18639 8.62004 3.55973C8.55337 3.93306 8.48671 4.37973 8.42004 4.89973C8.35337 5.29973 8.28671 5.80639 8.22004 6.41973C8.16671 7.01973 8.10671 7.57973 8.04004 8.09973C8.10671 8.15306 8.22004 8.25306 8.38004 8.39973C8.54004 8.53306 8.62004 8.63973 8.62004 8.71973C8.62004 8.82639 8.57337 8.91973 8.48004 8.99973C8.38671 9.07973 8.32004 9.11306 8.28004 9.09973C8.13337 9.08639 7.87337 9.07973 7.50004 9.07973C7.14004 9.06639 6.72004 9.06639 6.24004 9.07973C5.77337 9.07973 5.29337 9.08639 4.80004 9.09973C4.32004 9.11306 3.87337 9.12639 3.46004 9.13973C3.06004 9.15306 2.74671 9.16639 2.52004 9.17973C2.49337 9.39306 2.42671 9.55306 2.32004 9.65973C2.22671 9.76639 2.12671 9.83306 2.02004 9.85973ZM2.50004 8.37973C2.68671 8.39306 2.98671 8.39973 3.40004 8.39973C3.81337 8.38639 4.26671 8.37306 4.76004 8.35973C5.25337 8.33306 5.72004 8.30639 6.16004 8.27973C6.60004 8.25306 6.92671 8.21973 7.14004 8.17973C7.19337 7.01973 7.23337 6.07306 7.26004 5.33973C7.30004 4.60639 7.32671 3.95306 7.34004 3.37973C7.34004 3.28639 7.32671 3.23306 7.30004 3.21973C7.27337 3.19306 7.24671 3.17973 7.22004 3.17973C6.86004 3.17973 6.38004 3.19306 5.78004 3.21973C5.18004 3.23306 4.56004 3.25306 3.92004 3.27973C3.29337 3.29306 2.74004 3.31306 2.26004 3.33973L2.50004 8.37973ZM12.62 11.0397C12.5 11.0397 12.4267 10.9731 12.4 10.8397C12.3734 10.7064 12.3467 10.5064 12.32 10.2397C12.3067 9.97306 12.3 9.69973 12.3 9.41973C12.3 9.12639 12.3 8.89306 12.3 8.71973V2.71973C12.3 2.31973 12.28 2.00639 12.24 1.77973C12.2134 1.55306 12.1267 1.35973 11.98 1.19973C11.8467 1.03973 11.62 0.866393 11.3 0.679726C11.1667 0.586392 11.1334 0.466392 11.2 0.319726C11.32 0.119726 11.48 0.0197263 11.68 0.0197263C11.88 0.0197263 12.1467 0.0930595 12.48 0.239726C12.8134 0.386392 13.0867 0.526392 13.3 0.659725C13.3667 0.699725 13.4267 0.753059 13.48 0.819726C13.5334 0.886392 13.5534 0.959726 13.54 1.03973C13.5 1.26639 13.4734 1.49306 13.46 1.71973C13.4467 1.94639 13.44 2.19973 13.44 2.47973V5.97973C14.12 5.97973 14.6867 5.93306 15.14 5.83973C15.5934 5.73306 15.9334 5.64639 16.16 5.57973C16.3067 5.52639 16.4134 5.51973 16.48 5.55973C16.5467 5.59973 16.6067 5.66639 16.66 5.75973C16.7134 5.83973 16.7734 5.97306 16.84 6.15973C16.9067 6.33306 16.94 6.45973 16.94 6.53973C16.94 6.61973 16.8934 6.69306 16.8 6.75973C16.72 6.82639 16.66 6.85973 16.62 6.85973C16.0867 6.80639 15.56 6.77306 15.04 6.75973C14.5334 6.73306 14 6.71973 13.44 6.71973V8.57973C13.44 8.77973 13.4267 9.01973 13.4 9.29973C13.3867 9.56639 13.3467 9.83306 13.28 10.0997C13.2267 10.3664 13.1467 10.5931 13.04 10.7797C12.9334 10.9531 12.7934 11.0397 12.62 11.0397ZM12.58 18.9397C12.4734 18.9664 12.4 18.9464 12.36 18.8797C12.32 18.8264 12.2934 18.7731 12.28 18.7197C12.2267 18.4797 12.1934 18.2131 12.18 17.9197C12.18 17.6397 12.18 17.3664 12.18 17.0997V13.3797C12.18 13.1931 12.1334 13.0997 12.04 13.0997C11.96 13.0997 11.7734 13.1064 11.48 13.1197C11.2 13.1331 10.8667 13.1531 10.48 13.1797C10.1067 13.1931 9.72004 13.2131 9.32004 13.2397C8.93337 13.2664 8.60004 13.2931 8.32004 13.3197C7.44004 13.3864 6.70004 13.4464 6.10004 13.4997C5.50004 13.5531 5.00004 13.6131 4.60004 13.6797C4.36004 13.7331 4.14671 13.6997 3.96004 13.5797C3.85337 13.5131 3.71337 13.4064 3.54004 13.2597C3.38004 13.0997 3.28671 12.9864 3.26004 12.9197C3.23337 12.8397 3.26004 12.7397 3.34004 12.6197C3.42004 12.4997 3.50671 12.4531 3.60004 12.4797C3.90671 12.5597 4.42671 12.6131 5.16004 12.6397C5.89337 12.6664 6.78671 12.6531 7.84004 12.5997C8.48004 12.5731 9.08671 12.5397 9.66004 12.4997C10.2334 12.4464 10.7267 12.3864 11.14 12.3197C11.5667 12.2531 11.8534 12.1864 12 12.1197C12.0934 12.0797 12.1934 12.0664 12.3 12.0797C12.4867 12.1197 12.6734 12.1531 12.86 12.1797C13.06 12.2064 13.2334 12.2331 13.38 12.2597C13.5134 12.2731 13.56 12.3731 13.52 12.5597C13.5067 12.6397 13.4867 12.7797 13.46 12.9797C13.4467 13.1664 13.4334 13.3597 13.42 13.5597C13.4067 13.7597 13.4 13.9264 13.4 14.0597L13.36 16.7997C13.36 17.0531 13.3334 17.3331 13.28 17.6397C13.2267 17.9597 13.1467 18.2397 13.04 18.4797C12.9334 18.7331 12.78 18.8864 12.58 18.9397ZM25.1785 18.3797C24.5918 18.3931 24.1518 18.2664 23.8585 17.9997C23.5785 17.7464 23.4385 17.3197 23.4385 16.7197V15.6597C23.4385 15.4997 23.3985 15.3931 23.3185 15.3397C23.2118 15.2731 23.0718 15.1797 22.8985 15.0597C22.7385 14.9264 22.6251 14.8264 22.5585 14.7597C22.5051 14.7064 22.5185 14.6131 22.5985 14.4797C22.6785 14.3331 22.7585 14.2664 22.8385 14.2797C23.3051 14.3864 23.8518 14.4464 24.4785 14.4597C24.7051 14.4731 25.0251 14.4797 25.4385 14.4797C25.8651 14.4664 26.3385 14.4531 26.8585 14.4397C27.3918 14.4131 27.9185 14.3931 28.4385 14.3797C28.9585 14.3531 29.4318 14.3264 29.8585 14.2997C30.2985 14.2597 30.6318 14.2264 30.8585 14.1997C30.8718 14.1197 30.8918 13.9597 30.9185 13.7197C30.9451 13.4664 30.9718 13.1997 30.9985 12.9197C31.0251 12.6264 31.0385 12.3864 31.0385 12.1997C31.0385 12.1064 31.0185 12.0531 30.9785 12.0397C30.9518 12.0264 30.9251 12.0197 30.8985 12.0197L26.0985 12.2397C25.5918 12.2664 25.1785 12.2931 24.8585 12.3197C24.5385 12.3464 24.2451 12.3864 23.9785 12.4397C23.8318 12.4664 23.7118 12.4797 23.6185 12.4797C23.5251 12.4664 23.4251 12.4264 23.3185 12.3597C23.2118 12.2931 23.0851 12.1997 22.9385 12.0797C22.7918 11.9464 22.7051 11.8464 22.6785 11.7797C22.6651 11.7131 22.6985 11.6264 22.7785 11.5197C22.8585 11.3997 22.9451 11.3531 23.0385 11.3797C23.1851 11.4197 23.4118 11.4531 23.7185 11.4797C24.0251 11.5064 24.3585 11.5264 24.7185 11.5397C25.0918 11.5397 25.4318 11.5331 25.7385 11.5197C26.1118 11.5064 26.5518 11.4931 27.0585 11.4797C27.5785 11.4531 28.0985 11.4264 28.6185 11.3997C29.1385 11.3731 29.6051 11.3397 30.0185 11.2997C30.4451 11.2464 30.7585 11.1864 30.9585 11.1197C30.9585 11.1197 30.9651 11.1197 30.9785 11.1197C31.0185 11.0931 31.0585 11.0797 31.0985 11.0797C31.1518 11.0664 31.2118 11.0664 31.2785 11.0797L32.1985 11.3597C32.3451 11.4131 32.3851 11.5131 32.3185 11.6597C32.2918 11.7264 32.2451 11.8664 32.1785 12.0797C32.1251 12.2797 32.0651 12.5131 31.9985 12.7797C31.9318 13.0464 31.8651 13.2997 31.7985 13.5397C31.7451 13.7797 31.7051 13.9597 31.6785 14.0797C31.7851 14.1331 31.9185 14.2131 32.0785 14.3197C32.2518 14.4131 32.3385 14.4997 32.3385 14.5797C32.3385 14.6864 32.2851 14.7997 32.1785 14.9197C32.0851 15.0397 32.0185 15.0931 31.9785 15.0797C31.8185 15.0664 31.5185 15.0597 31.0785 15.0597C30.6385 15.0464 30.1185 15.0464 29.5185 15.0597C28.9318 15.0597 28.3185 15.0731 27.6785 15.0997C27.0518 15.1131 26.4651 15.1331 25.9185 15.1597C25.3718 15.1864 24.9251 15.2131 24.5785 15.2397V16.5997C24.5785 17.0397 24.6318 17.3131 24.7385 17.4197C24.8585 17.5264 25.0518 17.5797 25.3185 17.5797C25.3585 17.5797 25.4451 17.5797 25.5785 17.5797C25.8451 17.5797 26.1985 17.5797 26.6385 17.5797C27.0918 17.5797 27.5785 17.5731 28.0985 17.5597C28.6318 17.5464 29.1518 17.5264 29.6585 17.4997C30.3518 17.4597 30.9118 17.4064 31.3385 17.3397C31.7651 17.2731 32.1318 17.1864 32.4385 17.0797C32.5985 17.0131 32.7185 16.9931 32.7985 17.0197C32.8785 17.0464 32.9651 17.1064 33.0585 17.1997C33.1385 17.2797 33.2185 17.3797 33.2985 17.4997C33.3785 17.6331 33.4251 17.7397 33.4385 17.8197C33.4518 17.8997 33.4051 17.9931 33.2985 18.0997C33.1918 18.2064 33.1185 18.2597 33.0785 18.2597C32.3851 18.2331 31.7918 18.2197 31.2985 18.2197C30.8051 18.2331 30.2318 18.2531 29.5785 18.2797C28.8985 18.3064 28.1585 18.3264 27.3585 18.3397C26.5585 18.3531 25.8318 18.3664 25.1785 18.3797ZM19.1185 11.5397C18.9585 11.6197 18.7851 11.6397 18.5985 11.5997C18.4118 11.5597 18.2918 11.4864 18.2385 11.3797C18.1851 11.2597 18.2518 11.1464 18.4385 11.0397C18.8918 10.7997 19.3985 10.4797 19.9585 10.0797C20.5185 9.67973 21.0918 9.21973 21.6785 8.69973C22.2651 8.16639 22.8185 7.59973 23.3385 6.99973C23.8585 6.39973 24.3118 5.78639 24.6985 5.15973C25.0851 4.51973 25.3651 3.89306 25.5385 3.27973C25.5785 3.15973 25.5718 3.09306 25.5185 3.07973C25.4651 3.05306 25.4251 3.03973 25.3985 3.03973C25.3851 3.03973 25.3785 3.03973 25.3785 3.03973C25.0718 3.03973 24.6785 3.05973 24.1985 3.09973C23.7318 3.12639 23.3451 3.15306 23.0385 3.17973C22.4651 3.23306 22.0051 3.27973 21.6585 3.31973C21.3251 3.35973 20.9585 3.41306 20.5585 3.47973C20.1451 3.54639 19.8385 3.49973 19.6385 3.33973C19.3318 3.08639 19.1318 2.87306 19.0385 2.69973C19.0118 2.63306 19.0251 2.54639 19.0785 2.43973C19.1451 2.31973 19.2251 2.27306 19.3185 2.29973C19.7051 2.36639 20.1785 2.41973 20.7385 2.45973C21.3118 2.48639 21.9118 2.47973 22.5385 2.43973C23.0585 2.41306 23.6051 2.36639 24.1785 2.29973C24.7651 2.23306 25.2318 2.12639 25.5785 1.97973C25.6851 1.93973 25.7918 1.93973 25.8985 1.97973L27.0185 2.39973C27.0718 2.42639 27.1118 2.46639 27.1385 2.51973C27.1785 2.55973 27.1785 2.62639 27.1385 2.71973L26.4785 4.11973C26.0518 5.01306 25.5251 5.85306 24.8985 6.63973C24.2718 7.42639 23.6118 8.13973 22.9185 8.77973C22.2251 9.41973 21.5451 9.97306 20.8785 10.4397C20.2118 10.9064 19.6251 11.2731 19.1185 11.5397ZM31.4385 10.2197C31.3185 10.2197 31.2451 10.1531 31.2185 10.0197C31.1918 9.88639 31.1651 9.69306 31.1385 9.43973C31.1251 9.17306 31.1185 8.89973 31.1185 8.61973C31.1185 8.33973 31.1185 8.11306 31.1185 7.93973V6.39973L30.4985 6.41973C29.7785 6.44639 29.2318 6.49306 28.8585 6.55973C28.4985 6.62639 28.1451 6.69973 27.7985 6.77973C27.6518 6.80639 27.5318 6.81973 27.4385 6.81973C27.3585 6.80639 27.2651 6.76639 27.1585 6.69973C27.0651 6.63306 26.9251 6.52639 26.7385 6.37973C26.5518 6.21973 26.4451 6.10639 26.4185 6.03973C26.3918 5.97306 26.4118 5.89306 26.4785 5.79973C26.5585 5.69306 26.6451 5.65306 26.7385 5.67973C26.9651 5.71973 27.3718 5.75306 27.9585 5.77973C28.5451 5.79306 29.2785 5.77306 30.1585 5.71973L31.1185 5.65973V2.71973C31.1185 2.31973 31.0985 2.00639 31.0585 1.77973C31.0318 1.55306 30.9451 1.35973 30.7985 1.19973C30.6651 1.03973 30.4385 0.866393 30.1185 0.679726C29.9851 0.586392 29.9518 0.466392 30.0185 0.319726C30.1385 0.119726 30.2985 0.0197263 30.4985 0.0197263C30.6985 0.0197263 30.9651 0.0930595 31.2985 0.239726C31.6318 0.386392 31.9051 0.526392 32.1185 0.659725C32.1851 0.699725 32.2451 0.753059 32.2985 0.819726C32.3518 0.886392 32.3718 0.959726 32.3585 1.03973C32.3185 1.26639 32.2918 1.49306 32.2785 1.71973C32.2651 1.94639 32.2585 2.19973 32.2585 2.47973V7.79973C32.2585 8.06639 32.2385 8.39306 32.1985 8.77973C32.1585 9.15306 32.0785 9.48639 31.9585 9.77973C31.8385 10.0731 31.6651 10.2197 31.4385 10.2197ZM38.4008 13.1797C38.1075 13.1931 37.8742 13.0597 37.7008 12.7797C37.5275 12.4864 37.4408 12.1464 37.4408 11.7597V8.35973C37.4408 8.22639 37.4208 8.13306 37.3808 8.07973C37.3542 8.01306 37.2875 7.94639 37.1808 7.87973C37.0475 7.81306 36.8875 7.72639 36.7008 7.61973C36.5142 7.51306 36.4008 7.42639 36.3608 7.35973C36.3208 7.29306 36.3342 7.18639 36.4008 7.03973C36.4675 6.89306 36.5408 6.82639 36.6208 6.83973C36.8475 6.86639 37.0875 6.89306 37.3408 6.91973C37.6075 6.94639 37.8742 6.96639 38.1408 6.97973C38.4075 6.99306 38.7408 6.99973 39.1408 6.99973C39.5542 6.98639 39.9875 6.96639 40.4408 6.93973C40.8942 6.91306 41.3208 6.87973 41.7208 6.83973C42.1208 6.79973 42.4408 6.75973 42.6808 6.71973C42.6942 6.62639 42.7208 6.43973 42.7608 6.15973C42.8008 5.86639 42.8408 5.53973 42.8808 5.17973C42.9208 4.81973 42.9608 4.47973 43.0008 4.15973C43.0408 3.83973 43.0675 3.60639 43.0808 3.45973C43.0942 3.35306 43.0808 3.29306 43.0408 3.27973C43.0142 3.25306 42.9875 3.23973 42.9608 3.23973C42.9475 3.23973 42.9208 3.23973 42.8808 3.23973C42.7208 3.23973 42.4208 3.24639 41.9808 3.25973C41.5542 3.25973 40.9875 3.29306 40.2808 3.35973C39.9342 3.38639 39.6475 3.41306 39.4208 3.43973C39.2075 3.45306 39.0008 3.47306 38.8008 3.49973C38.6008 3.51306 38.3675 3.54639 38.1008 3.59973C37.8475 3.65306 37.6742 3.66639 37.5808 3.63973C37.5008 3.61306 37.4008 3.54639 37.2808 3.43973C37.1475 3.33306 37.0408 3.23306 36.9608 3.13973C36.8808 3.03306 36.8142 2.93306 36.7608 2.83973C36.7208 2.77306 36.7342 2.69306 36.8008 2.59973C36.8675 2.49306 36.9475 2.44639 37.0408 2.45973C37.2675 2.48639 37.5142 2.51306 37.7808 2.53973C38.0608 2.55306 38.3342 2.56639 38.6008 2.57973C38.8942 2.59306 39.2542 2.59973 39.6808 2.59973C40.1075 2.58639 40.5342 2.56639 40.9608 2.53973C41.4008 2.51306 41.7808 2.48639 42.1008 2.45973C42.3275 2.43306 42.5342 2.39306 42.7208 2.33973C42.9208 2.27306 43.0542 2.21973 43.1208 2.17973C43.2275 2.11306 43.3475 2.11306 43.4808 2.17973L44.4008 2.55973C44.5342 2.61306 44.5742 2.71973 44.5208 2.87973C44.4942 2.94639 44.4342 3.09973 44.3408 3.33973C44.2608 3.57973 44.1875 3.85306 44.1208 4.15973L43.5808 6.55973C43.6875 6.62639 43.8208 6.73306 43.9808 6.87973C44.1408 7.01306 44.2208 7.11306 44.2208 7.17973C44.2208 7.28639 44.1675 7.38639 44.0608 7.47973C43.9675 7.57306 43.9008 7.61973 43.8608 7.61973C43.7142 7.60639 43.4275 7.60639 43.0008 7.61973C42.5742 7.61973 42.0875 7.63306 41.5408 7.65973C40.9942 7.68639 40.4542 7.71306 39.9208 7.73973C39.3875 7.76639 38.9408 7.79306 38.5808 7.81973V11.5397C38.5808 11.7131 38.6142 11.8464 38.6808 11.9397C38.7608 12.0331 38.9342 12.0731 39.2008 12.0597C39.9342 12.0464 40.7008 11.9797 41.5008 11.8597C42.3008 11.7397 43.0675 11.5997 43.8008 11.4397C44.5475 11.2664 45.2008 11.0931 45.7608 10.9197C46.3208 10.7331 46.7275 10.5731 46.9808 10.4397C47.2475 10.3331 47.3942 10.3664 47.4208 10.5397C47.4608 10.7131 47.3742 10.8797 47.1608 11.0397C46.9742 11.1597 46.6408 11.3131 46.1608 11.4997C45.6808 11.6731 45.1075 11.8597 44.4408 12.0597C43.7875 12.2597 43.0942 12.4464 42.3608 12.6197C41.6408 12.7797 40.9342 12.9131 40.2408 13.0197C39.5475 13.1264 38.9342 13.1797 38.4008 13.1797ZM48.5408 17.6597C48.3942 17.6597 48.3142 17.5931 48.3008 17.4597C48.2875 17.3531 48.2675 17.1597 48.2408 16.8797C48.2275 16.5864 48.2142 16.2731 48.2008 15.9397C48.1875 15.5931 48.1808 15.2931 48.1808 15.0397V2.77973C48.1808 2.36639 48.1608 2.04639 48.1208 1.81973C48.0942 1.59306 48.0075 1.40639 47.8608 1.25973C47.7275 1.09973 47.4875 0.933059 47.1408 0.759726C47.0342 0.693059 46.9808 0.626392 46.9808 0.559725C46.9808 0.493059 47.0275 0.406392 47.1208 0.299726C47.2142 0.179726 47.3142 0.119726 47.4208 0.119726C47.5808 0.119726 47.7808 0.159726 48.0208 0.239726C48.2608 0.319726 48.4942 0.413059 48.7208 0.519726C48.9475 0.613059 49.1142 0.699725 49.2208 0.779726C49.3808 0.899726 49.4542 1.03306 49.4408 1.17973C49.4008 1.45973 49.3675 1.71973 49.3408 1.95973C49.3275 2.19973 49.3208 2.47973 49.3208 2.79973V14.9997C49.3208 15.2131 49.3075 15.4731 49.2808 15.7797C49.2675 16.0731 49.2342 16.3664 49.1808 16.6597C49.1275 16.9397 49.0475 17.1731 48.9408 17.3597C48.8475 17.5597 48.7142 17.6597 48.5408 17.6597ZM67.5444 7.99973C66.7444 8.02639 66.0044 7.89306 65.3244 7.59973C64.6577 7.30639 64.1244 6.88639 63.7244 6.33973C63.3244 5.79306 63.1111 5.16639 63.0844 4.45973C63.0844 3.77973 63.2911 3.16639 63.7044 2.61973C64.1177 2.07306 64.6644 1.63306 65.3444 1.29973C66.0244 0.966392 66.7644 0.786393 67.5644 0.759726C68.9111 0.706393 69.9911 0.999726 70.8044 1.63973C71.6311 2.26639 72.0444 3.15306 72.0444 4.29973C72.0444 5.00639 71.8377 5.63973 71.4244 6.19973C71.0111 6.74639 70.4644 7.17973 69.7844 7.49973C69.1044 7.80639 68.3577 7.97306 67.5444 7.99973ZM70.7444 17.7797C70.6511 17.8197 70.5777 17.8131 70.5244 17.7597C70.4711 17.7197 70.4377 17.6731 70.4244 17.6197C70.3977 17.5131 70.3711 17.3197 70.3444 17.0397C70.3177 16.7464 70.2977 16.4264 70.2844 16.0797C70.2844 15.7331 70.2844 15.4264 70.2844 15.1597V10.7997C69.4844 10.8131 68.6444 10.8331 67.7644 10.8597C66.8977 10.8731 66.0577 10.8931 65.2444 10.9197C65.2444 11.2931 65.2177 11.7731 65.1644 12.3597C65.1111 12.9464 65.0244 13.5597 64.9044 14.1997C64.7844 14.8397 64.6244 15.4464 64.4244 16.0197C64.2377 16.5931 64.0111 17.0597 63.7444 17.4197C63.6111 17.5797 63.4444 17.6464 63.2444 17.6197C63.0444 17.6064 62.9711 17.5131 63.0244 17.3397C63.1844 16.8597 63.3377 16.2664 63.4844 15.5597C63.6444 14.8397 63.7711 14.0797 63.8644 13.2797C63.9711 12.4797 64.0111 11.7131 63.9844 10.9797C63.8644 10.9797 63.7444 10.9864 63.6244 10.9997C63.5177 10.9997 63.4111 10.9997 63.3044 10.9997C62.7177 11.0264 62.2044 11.0731 61.7644 11.1397C61.3244 11.1931 60.9044 11.2597 60.5044 11.3397C60.2777 11.3931 60.1177 11.4131 60.0244 11.3997C59.9444 11.3731 59.8377 11.3131 59.7044 11.2197C59.6244 11.1664 59.5177 11.0864 59.3844 10.9797C59.2511 10.8597 59.1311 10.7397 59.0244 10.6197C58.9177 10.4997 58.8577 10.4197 58.8444 10.3797C58.8044 10.3131 58.8244 10.2197 58.9044 10.0997C58.9977 9.97973 59.0844 9.93306 59.1644 9.95973C59.5911 10.0531 60.0644 10.1197 60.5844 10.1597C61.1177 10.1997 61.7377 10.2131 62.4444 10.1997C63.7377 10.1864 65.1111 10.1664 66.5644 10.1397C68.0311 10.1131 69.4977 10.0731 70.9644 10.0197C71.5511 9.99306 72.1177 9.95973 72.6644 9.91973C73.2244 9.86639 73.7111 9.80639 74.1244 9.73973C74.5511 9.67306 74.8644 9.61306 75.0644 9.55973C75.2111 9.50639 75.3244 9.49973 75.4044 9.53973C75.4977 9.57973 75.5777 9.64639 75.6444 9.73973C75.7244 9.84639 75.8044 9.97973 75.8844 10.1397C75.9777 10.2864 76.0244 10.4131 76.0244 10.5197C76.0244 10.6131 75.9777 10.6997 75.8844 10.7797C75.7911 10.8464 75.7177 10.8797 75.6644 10.8797C75.1977 10.8131 74.6511 10.7797 74.0244 10.7797C73.4111 10.7664 72.8177 10.7664 72.2444 10.7797C72.0977 10.7797 71.9511 10.7797 71.8044 10.7797C71.6711 10.7797 71.5444 10.7797 71.4244 10.7797V15.1197C71.4244 15.3997 71.4044 15.7397 71.3644 16.1397C71.3377 16.5264 71.2711 16.8797 71.1644 17.1997C71.0711 17.5064 70.9311 17.6997 70.7444 17.7797ZM67.5844 7.17973C68.5177 7.13973 69.2711 6.85973 69.8444 6.33973C70.4311 5.81973 70.7377 5.13973 70.7644 4.29973C70.7644 3.39306 70.4644 2.71306 69.8644 2.25973C69.2777 1.80639 68.5111 1.57973 67.5644 1.57973C66.9511 1.57973 66.3977 1.70639 65.9044 1.95973C65.4244 2.21306 65.0444 2.55973 64.7644 2.99973C64.4844 3.42639 64.3444 3.90639 64.3444 4.43973C64.3444 5.31973 64.6511 6.00639 65.2644 6.49973C65.8911 6.97973 66.6644 7.20639 67.5844 7.17973ZM87.913 18.8197C87.0997 18.8197 86.3863 18.6797 85.773 18.3997C85.173 18.1331 84.6997 17.7531 84.353 17.2597C84.0197 16.7797 83.853 16.2197 83.853 15.5797C83.853 14.9531 84.0397 14.3931 84.413 13.8997C84.7997 13.4064 85.3063 13.0197 85.933 12.7397C86.5597 12.4464 87.2463 12.2997 87.993 12.2997C88.7397 12.2997 89.4197 12.4197 90.033 12.6597C90.6597 12.8864 91.1597 13.2397 91.533 13.7197C91.9063 14.1864 92.0797 14.7797 92.053 15.4997C92.053 16.1531 91.8663 16.7264 91.493 17.2197C91.1197 17.7264 90.6197 18.1197 89.993 18.3997C89.3663 18.6797 88.673 18.8197 87.913 18.8197ZM83.053 11.3797C82.253 11.3931 81.5797 11.2597 81.033 10.9797C80.4997 10.6864 80.093 10.3197 79.813 9.87973C79.5463 9.42639 79.413 8.97973 79.413 8.53973C79.413 8.07306 79.533 7.61973 79.773 7.17973C80.013 6.72639 80.393 6.34639 80.913 6.03973C81.4463 5.73306 82.153 5.56639 83.033 5.53973C84.2063 5.51306 85.1197 5.77973 85.773 6.33973C86.4263 6.89973 86.7397 7.59973 86.713 8.43973C86.6997 8.89306 86.553 9.34639 86.273 9.79973C85.993 10.2397 85.5863 10.6064 85.053 10.8997C84.5197 11.1931 83.853 11.3531 83.053 11.3797ZM87.953 17.9197C88.753 17.9064 89.4263 17.6931 89.973 17.2797C90.5197 16.8664 90.8063 16.2664 90.833 15.4797C90.833 14.7197 90.553 14.1397 89.993 13.7397C89.4463 13.3397 88.773 13.1397 87.973 13.1397C87.1597 13.1664 86.4663 13.3997 85.893 13.8397C85.333 14.2664 85.053 14.8397 85.053 15.5597C85.053 16.2931 85.3263 16.8664 85.873 17.2797C86.433 17.7064 87.1263 17.9197 87.953 17.9197ZM91.213 12.2797C91.093 12.2797 91.0197 12.2131 90.993 12.0797C90.9663 11.9464 90.9397 11.7397 90.913 11.4597C90.8997 11.1797 90.893 10.8931 90.893 10.5997C90.893 10.3064 90.893 10.0731 90.893 9.89973V9.61973L90.733 9.63973C90.3197 9.66639 89.953 9.69973 89.633 9.73973C89.313 9.76639 88.953 9.82639 88.553 9.91973C88.4063 9.94639 88.2863 9.95973 88.193 9.95973C88.113 9.94639 88.0197 9.90639 87.913 9.83973C87.8063 9.77306 87.6663 9.67306 87.493 9.53973C87.3197 9.40639 87.2197 9.30639 87.193 9.23973C87.1663 9.15973 87.1863 9.07306 87.253 8.97973C87.3197 8.88639 87.3997 8.84639 87.493 8.85973C87.8663 8.92639 88.2863 8.97306 88.753 8.99973C89.2197 9.01306 89.8597 8.98639 90.673 8.91973L90.893 8.89973V6.67973L90.353 6.71973C89.9797 6.74639 89.653 6.77306 89.373 6.79973C89.1063 6.82639 88.7997 6.86639 88.453 6.91973C88.3197 6.94639 88.2063 6.96639 88.113 6.97973C88.0197 6.97973 87.9197 6.95306 87.813 6.89973C87.7063 6.84639 87.5663 6.76639 87.393 6.65973C87.233 6.53973 87.1397 6.44639 87.113 6.37973C87.073 6.29973 87.0863 6.20639 87.153 6.09973C87.233 5.97973 87.3263 5.93306 87.433 5.95973C87.7397 6.01306 88.0997 6.05973 88.513 6.09973C88.9397 6.12639 89.5197 6.11306 90.253 6.05973L90.893 6.01973V2.71973C90.893 2.31973 90.873 2.00639 90.833 1.77973C90.8063 1.55306 90.7263 1.35973 90.593 1.19973C90.4597 1.03973 90.233 0.866393 89.913 0.679726C89.7663 0.573059 89.733 0.453059 89.813 0.319726C89.933 0.119726 90.0863 0.0197263 90.273 0.0197263C90.473 0.0197263 90.7397 0.0930595 91.073 0.239726C91.4197 0.386392 91.6997 0.526392 91.913 0.659725C92.073 0.753059 92.1463 0.879726 92.133 1.03973C92.093 1.26639 92.0663 1.49306 92.053 1.71973C92.0397 1.94639 92.033 2.19973 92.033 2.47973V9.75973C92.033 9.94639 92.0197 10.1797 91.993 10.4597C91.9797 10.7397 91.9397 11.0197 91.873 11.2997C91.8197 11.5797 91.7397 11.8131 91.633 11.9997C91.5263 12.1864 91.3863 12.2797 91.213 12.2797ZM83.053 10.4997C83.8263 10.4731 84.4197 10.2664 84.833 9.87973C85.2463 9.47973 85.4663 8.99973 85.493 8.43973C85.5197 8.14639 85.453 7.83306 85.293 7.49973C85.133 7.16639 84.8663 6.88639 84.493 6.65973C84.133 6.41973 83.6397 6.31306 83.013 6.33973C82.1463 6.36639 81.5197 6.59973 81.133 7.03973C80.7597 7.47973 80.573 7.97306 80.573 8.51973C80.573 8.85306 80.673 9.17973 80.873 9.49973C81.073 9.80639 81.3597 10.0531 81.733 10.2397C82.1063 10.4264 82.5463 10.5131 83.053 10.4997ZM78.973 4.91973C78.7463 4.95973 78.5797 4.95973 78.473 4.91973C78.3663 4.87973 78.2663 4.81306 78.173 4.71973C78.053 4.59973 77.9463 4.47973 77.853 4.35973C77.7597 4.23973 77.693 4.14639 77.653 4.07973C77.613 4.01306 77.6263 3.92639 77.693 3.81973C77.7597 3.71306 77.8397 3.67306 77.933 3.69973C78.3597 3.77973 78.873 3.83306 79.473 3.85973C80.0863 3.88639 80.693 3.89306 81.293 3.87973C81.9063 3.86639 82.4063 3.85306 82.793 3.83973C83.753 3.79973 84.633 3.73973 85.433 3.65973C86.2463 3.57973 86.913 3.46639 87.433 3.31973C87.5797 3.27973 87.6863 3.27973 87.753 3.31973C87.8197 3.34639 87.8797 3.40639 87.933 3.49973C87.9863 3.59306 88.033 3.71973 88.073 3.87973C88.1263 4.02639 88.153 4.14639 88.153 4.23973C88.153 4.31973 88.1063 4.39306 88.013 4.45973C87.933 4.51306 87.873 4.53973 87.833 4.53973C87.353 4.51306 86.7597 4.49973 86.053 4.49973C85.3463 4.48639 84.5797 4.49306 83.753 4.51973C82.9397 4.53306 82.1197 4.57306 81.293 4.63973C80.4663 4.70639 79.693 4.79973 78.973 4.91973ZM82.233 2.25973C82.0197 2.23306 81.7463 2.17973 81.413 2.09973C81.0797 2.00639 80.7663 1.89973 80.473 1.77973C80.193 1.65973 79.9997 1.53973 79.893 1.41973C79.8263 1.33973 79.8197 1.22639 79.873 1.07973C79.9263 0.919725 80.013 0.853059 80.133 0.879726C80.773 1.01306 81.4463 1.09973 82.153 1.13973C82.873 1.16639 83.5397 1.16639 84.153 1.13973C84.7797 1.11306 85.273 1.08639 85.633 1.05973C85.7263 1.04639 85.8063 1.08639 85.873 1.17973C85.953 1.25973 85.9997 1.32639 86.013 1.37973C86.0263 1.48639 85.9797 1.61306 85.873 1.75973C85.7663 1.89306 85.653 1.97973 85.533 2.01973C85.3597 2.08639 85.0863 2.14639 84.713 2.19973C84.3397 2.23973 83.9263 2.26639 83.473 2.27973C83.033 2.29306 82.6197 2.28639 82.233 2.25973ZM97.846 13.1797C97.5793 13.1931 97.3593 13.0597 97.186 12.7797C97.0126 12.4864 96.926 12.1464 96.926 11.7597V5.13973C96.926 4.65973 96.8726 4.30639 96.766 4.07973C96.6726 3.85306 96.4126 3.65306 95.986 3.47973C95.8393 3.41306 95.7993 3.30639 95.866 3.15973C95.9193 3.01306 95.9926 2.91306 96.086 2.85973C96.1926 2.79306 96.2993 2.76639 96.406 2.77973C96.566 2.79306 96.786 2.83973 97.066 2.91973C97.3593 2.98639 97.586 3.05973 97.746 3.13973C98.146 3.13973 98.6126 3.11973 99.146 3.07973C99.6926 3.03973 100.213 2.97973 100.706 2.89973C101.213 2.81973 101.613 2.72639 101.906 2.61973C102.053 2.56639 102.166 2.55306 102.246 2.57973C102.326 2.60639 102.399 2.66639 102.466 2.75973C102.519 2.82639 102.586 2.93306 102.666 3.07973C102.746 3.22639 102.786 3.33973 102.786 3.41973C102.786 3.51306 102.746 3.59973 102.666 3.67973C102.599 3.75973 102.539 3.79973 102.486 3.79973C102.193 3.77306 101.779 3.77306 101.246 3.79973C100.713 3.81306 100.153 3.83306 99.566 3.85973C98.9926 3.88639 98.486 3.91973 98.046 3.95973V7.09973L99.006 7.03973C99.606 6.99973 100.126 6.95306 100.566 6.89973C101.006 6.83306 101.293 6.77973 101.426 6.73973C101.533 6.69973 101.613 6.69306 101.666 6.71973C101.719 6.73306 101.779 6.75973 101.846 6.79973C101.859 6.81306 101.866 6.81973 101.866 6.81973C101.906 6.84639 101.979 6.93306 102.086 7.07973C102.193 7.21306 102.246 7.31973 102.246 7.39973C102.246 7.49306 102.206 7.57973 102.126 7.65973C102.059 7.73973 101.999 7.77973 101.946 7.77973C101.493 7.75306 101.073 7.74639 100.686 7.75973C100.299 7.75973 99.7926 7.77306 99.166 7.79973C98.8193 7.81306 98.5726 7.82639 98.426 7.83973C98.2926 7.83973 98.166 7.84639 98.046 7.85973V11.4997C98.046 11.6731 98.0793 11.8131 98.146 11.9197C98.226 12.0131 98.3993 12.0531 98.666 12.0397C99.8793 11.9731 100.913 11.8264 101.766 11.5997C102.633 11.3731 103.333 11.1531 103.866 10.9397C104.013 10.8864 104.113 10.9064 104.166 10.9997C104.233 11.0797 104.253 11.1864 104.226 11.3197C104.199 11.4397 104.119 11.5397 103.986 11.6197C103.586 11.8464 103.046 12.0797 102.366 12.3197C101.686 12.5464 100.946 12.7397 100.146 12.8997C99.3593 13.0464 98.5926 13.1397 97.846 13.1797ZM106.306 16.9597C106.199 16.9997 106.119 16.9997 106.066 16.9597C106.026 16.9064 105.999 16.8597 105.986 16.8197C105.946 16.6997 105.913 16.4931 105.886 16.1997C105.873 15.9064 105.859 15.5864 105.846 15.2397C105.846 14.8797 105.846 14.5664 105.846 14.2997V7.57973C105.526 7.60639 105.273 7.63973 105.086 7.67973C104.899 7.70639 104.719 7.73973 104.546 7.77973C104.386 7.80639 104.179 7.84639 103.926 7.89973C103.779 7.92639 103.666 7.93973 103.586 7.93973C103.506 7.92639 103.413 7.88639 103.306 7.81973C103.213 7.76639 103.086 7.67973 102.926 7.55973C102.766 7.43973 102.673 7.33973 102.646 7.25973C102.619 7.19306 102.633 7.11306 102.686 7.01973C102.753 6.92639 102.826 6.88639 102.906 6.89973C103.186 6.95306 103.586 6.97973 104.106 6.97973C104.626 6.96639 105.206 6.91973 105.846 6.83973V3.89973C105.846 3.84639 105.846 3.79973 105.846 3.75973C105.846 3.71973 105.846 3.67306 105.846 3.61973C105.846 3.09973 105.813 2.68639 105.746 2.37973C105.679 2.05973 105.439 1.77306 105.026 1.51973C104.866 1.41306 104.833 1.29306 104.926 1.15973C105.006 1.02639 105.086 0.939726 105.166 0.899726C105.259 0.859725 105.359 0.846392 105.466 0.859726C105.706 0.886393 105.966 0.993059 106.246 1.17973C106.539 1.35306 106.726 1.47973 106.806 1.55973C106.873 1.62639 106.926 1.69306 106.966 1.75973C107.019 1.81306 107.039 1.87306 107.026 1.93973C106.986 2.19306 106.959 2.47306 106.946 2.77973C106.946 3.07306 106.946 3.35973 106.946 3.63973C106.946 3.69306 106.946 3.74639 106.946 3.79973C106.946 3.83973 106.946 3.87973 106.946 3.91973V14.2997C106.946 14.5797 106.933 14.9197 106.906 15.3197C106.879 15.7197 106.819 16.0797 106.726 16.3997C106.633 16.7197 106.493 16.9064 106.306 16.9597ZM109.246 17.6397C109.153 17.6797 109.079 17.6731 109.026 17.6197C108.973 17.5797 108.939 17.5397 108.926 17.4997C108.899 17.3931 108.873 17.1931 108.846 16.8997C108.819 16.6064 108.799 16.2864 108.786 15.9397C108.786 15.5931 108.786 15.2864 108.786 15.0197V2.79973C108.786 2.77306 108.786 2.72639 108.786 2.65973C108.786 2.28639 108.773 1.99306 108.746 1.77973C108.719 1.56639 108.646 1.38639 108.526 1.23973C108.406 1.07973 108.193 0.906392 107.886 0.719726C107.739 0.613059 107.706 0.493059 107.786 0.359725C107.933 0.119725 108.113 0.0197255 108.326 0.0597258C108.566 0.099726 108.833 0.199726 109.126 0.359725C109.419 0.506393 109.639 0.639726 109.786 0.759726C109.853 0.826393 109.906 0.893059 109.946 0.959726C109.999 1.01306 110.019 1.07973 110.006 1.15973C109.966 1.43973 109.939 1.70639 109.926 1.95973C109.913 2.21306 109.906 2.49973 109.906 2.81973V14.9797C109.906 15.2597 109.886 15.5997 109.846 15.9997C109.819 16.3997 109.759 16.7597 109.666 17.0797C109.573 17.3997 109.433 17.5864 109.246 17.6397ZM115.239 10.2597C115.039 10.3397 114.852 10.3531 114.679 10.2997C114.519 10.2464 114.426 10.1597 114.399 10.0397C114.372 9.91973 114.452 9.81973 114.639 9.73973C115.146 9.53973 115.699 9.23973 116.299 8.83973C116.899 8.43973 117.486 7.98639 118.059 7.47973C118.646 6.95973 119.172 6.43306 119.639 5.89973C120.119 5.36639 120.486 4.85973 120.739 4.37973C121.019 3.89973 121.186 3.47973 121.239 3.11973C121.306 2.74639 121.199 2.42639 120.919 2.15973C120.759 2.06639 120.712 1.93973 120.779 1.77973C120.859 1.60639 120.966 1.49973 121.099 1.45973C121.246 1.41973 121.392 1.42639 121.539 1.47973C121.766 1.58639 121.986 1.70639 122.199 1.83973C122.412 1.97306 122.599 2.11306 122.759 2.25973C122.866 2.36639 122.946 2.47306 122.999 2.57973C123.052 2.68639 123.059 2.75973 123.019 2.79973C122.886 2.98639 122.739 3.23306 122.579 3.53973C122.419 3.83306 122.279 4.07973 122.159 4.27973C122.079 4.42639 121.992 4.57973 121.899 4.73973C121.806 4.88639 121.706 5.03306 121.599 5.17973C122.826 5.87306 123.879 6.39973 124.759 6.75973C125.652 7.10639 126.419 7.35306 127.059 7.49973C127.352 7.64639 127.592 7.88639 127.779 8.21973C127.979 8.53973 128.092 8.83306 128.119 9.09973C128.146 9.19306 128.106 9.28639 127.999 9.37973C127.906 9.47306 127.799 9.54639 127.679 9.59973C127.559 9.63973 127.472 9.64639 127.419 9.61973C127.152 9.36639 126.759 9.06639 126.239 8.71973C125.719 8.35973 125.152 7.99306 124.539 7.61973C123.926 7.24639 123.319 6.89306 122.719 6.55973C122.132 6.22639 121.626 5.94639 121.199 5.71973C120.706 6.33306 120.132 6.93306 119.479 7.51973C118.826 8.10639 118.139 8.63973 117.419 9.11973C116.699 9.58639 115.972 9.96639 115.239 10.2597ZM114.719 14.9597C114.479 15.0131 114.319 15.0331 114.239 15.0197C114.159 14.9931 114.052 14.9331 113.919 14.8397C113.839 14.7864 113.732 14.6997 113.599 14.5797C113.466 14.4597 113.346 14.3464 113.239 14.2397C113.132 14.1197 113.066 14.0331 113.039 13.9797C112.999 13.9131 113.019 13.8197 113.099 13.6997C113.192 13.5797 113.286 13.5331 113.379 13.5597C113.806 13.6531 114.279 13.7197 114.799 13.7597C115.332 13.7997 115.952 13.8197 116.659 13.8197C117.419 13.8197 118.206 13.8197 119.019 13.8197C119.832 13.8064 120.619 13.7931 121.379 13.7797C122.152 13.7664 122.859 13.7531 123.499 13.7397C124.139 13.7131 124.659 13.6931 125.059 13.6797C125.926 13.6531 126.699 13.5931 127.379 13.4997C128.059 13.3931 128.546 13.2931 128.839 13.1997C128.986 13.1464 129.099 13.1397 129.179 13.1797C129.272 13.2197 129.359 13.2931 129.439 13.3997C129.519 13.5064 129.599 13.6464 129.679 13.8197C129.772 13.9797 129.819 14.1131 129.819 14.2197C129.819 14.3131 129.772 14.3931 129.679 14.4597C129.586 14.5264 129.512 14.5597 129.459 14.5597C128.846 14.5064 128.152 14.4797 127.379 14.4797C126.619 14.4664 125.926 14.4597 125.299 14.4597C124.499 14.4731 123.632 14.4931 122.699 14.5197C121.766 14.5331 120.846 14.5464 119.939 14.5597C119.046 14.5731 118.232 14.5997 117.499 14.6397C116.912 14.6664 116.399 14.7064 115.959 14.7597C115.519 14.8131 115.106 14.8797 114.719 14.9597ZM135.187 10.0197C134.907 10.0197 134.68 9.90639 134.507 9.67973C134.347 9.43973 134.267 9.09973 134.267 8.65973V4.51973C134.267 4.06639 134.207 3.70639 134.087 3.43973C133.98 3.17306 133.72 2.94639 133.307 2.75973C133.16 2.69306 133.12 2.58639 133.187 2.43973C133.24 2.29306 133.313 2.19306 133.407 2.13973C133.513 2.07306 133.62 2.04639 133.727 2.05973C133.873 2.07306 134.073 2.11973 134.327 2.19973C134.58 2.27973 134.8 2.35973 134.987 2.43973C135.173 2.43973 135.46 2.43973 135.847 2.43973C136.233 2.42639 136.66 2.41973 137.127 2.41973C137.593 2.40639 138.053 2.39306 138.507 2.37973C138.973 2.36639 139.387 2.35306 139.747 2.33973C140.12 2.32639 140.387 2.31306 140.547 2.29973C141.213 2.27306 141.847 2.21306 142.447 2.11973C143.047 2.02639 143.453 1.95306 143.667 1.89973C143.827 1.83306 143.94 1.81973 144.007 1.85973C144.087 1.88639 144.167 1.93306 144.247 1.99973C144.26 2.01306 144.267 2.01973 144.267 2.01973C144.333 2.08639 144.4 2.19306 144.467 2.33973C144.547 2.47306 144.587 2.57306 144.587 2.63973C144.587 2.73306 144.547 2.82639 144.467 2.91973C144.4 3.01306 144.34 3.05973 144.287 3.05973C143.98 3.03306 143.68 3.01973 143.387 3.01973C143.107 3.00639 142.78 3.00639 142.407 3.01973C142.047 3.01973 141.58 3.03306 141.007 3.05973C140.753 3.07306 140.393 3.08639 139.927 3.09973C139.46 3.11306 138.947 3.12639 138.387 3.13973C137.84 3.15306 137.3 3.16639 136.767 3.17973C136.247 3.19306 135.8 3.20639 135.427 3.21973V5.73973C135.707 5.73973 136.06 5.73973 136.487 5.73973C136.927 5.72639 137.38 5.71306 137.847 5.69973C138.327 5.68639 138.76 5.67306 139.147 5.65973C139.547 5.64639 139.847 5.63306 140.047 5.61973C140.5 5.59306 140.96 5.56639 141.427 5.53973C141.907 5.49973 142.333 5.45306 142.707 5.39973C143.08 5.34639 143.333 5.29306 143.467 5.23973C143.64 5.18639 143.76 5.17973 143.827 5.21973C143.893 5.24639 143.967 5.29973 144.047 5.37973C144.113 5.44639 144.18 5.53973 144.247 5.65973C144.327 5.77973 144.367 5.87306 144.367 5.93973C144.367 6.03306 144.327 6.11973 144.247 6.19973C144.167 6.27973 144.1 6.31973 144.047 6.31973C143.593 6.29306 143.107 6.27973 142.587 6.27973C142.067 6.27973 141.38 6.29306 140.527 6.31973C140.26 6.33306 139.907 6.34639 139.467 6.35973C139.027 6.37306 138.553 6.38639 138.047 6.39973C137.54 6.39973 137.053 6.40639 136.587 6.41973C136.133 6.43306 135.747 6.44639 135.427 6.45973V8.49973C135.427 8.76639 135.46 8.95973 135.527 9.07973C135.593 9.19973 135.76 9.25973 136.027 9.25973C136.76 9.25973 137.507 9.25306 138.267 9.23973C139.027 9.22639 139.78 9.20639 140.527 9.17973C141.313 9.15306 141.993 9.11306 142.567 9.05973C143.153 8.99306 143.607 8.91306 143.927 8.81973C144.1 8.76639 144.227 8.74639 144.307 8.75973C144.4 8.77306 144.48 8.83306 144.547 8.93973C144.627 9.01973 144.693 9.11973 144.747 9.23973C144.813 9.35973 144.86 9.46639 144.887 9.55973C144.9 9.63973 144.853 9.73306 144.747 9.83973C144.64 9.93306 144.56 9.97973 144.507 9.97973C144.053 9.93973 143.633 9.91973 143.247 9.91973C142.873 9.90639 142.48 9.90639 142.067 9.91973C141.653 9.91973 141.153 9.93306 140.567 9.95973C140.033 9.97306 139.447 9.98639 138.807 9.99973C138.18 10.0131 137.547 10.0197 136.907 10.0197C136.28 10.0197 135.707 10.0197 135.187 10.0197ZM132.727 15.1597C132.487 15.2131 132.327 15.2331 132.247 15.2197C132.167 15.1931 132.06 15.1331 131.927 15.0397C131.847 14.9864 131.74 14.8997 131.607 14.7797C131.473 14.6597 131.353 14.5464 131.247 14.4397C131.14 14.3197 131.073 14.2331 131.047 14.1797C131.007 14.1131 131.027 14.0197 131.107 13.8997C131.2 13.7797 131.293 13.7331 131.387 13.7597C131.813 13.8531 132.287 13.9197 132.807 13.9597C133.34 13.9997 133.96 14.0197 134.667 14.0197C135.427 14.0197 136.213 14.0197 137.027 14.0197C137.84 14.0064 138.627 13.9931 139.387 13.9797C140.16 13.9664 140.867 13.9531 141.507 13.9397C142.147 13.9131 142.667 13.8931 143.067 13.8797C143.933 13.8531 144.707 13.7931 145.387 13.6997C146.067 13.5931 146.553 13.4931 146.847 13.3997C146.993 13.3464 147.107 13.3397 147.187 13.3797C147.28 13.4197 147.367 13.4931 147.447 13.5997C147.527 13.7064 147.607 13.8464 147.687 14.0197C147.78 14.1797 147.827 14.3131 147.827 14.4197C147.827 14.5131 147.78 14.5931 147.687 14.6597C147.593 14.7264 147.52 14.7597 147.467 14.7597C146.853 14.7064 146.16 14.6797 145.387 14.6797C144.627 14.6664 143.933 14.6597 143.307 14.6597C142.507 14.6731 141.64 14.6931 140.707 14.7197C139.773 14.7331 138.853 14.7464 137.947 14.7597C137.053 14.7731 136.24 14.7997 135.507 14.8397C134.92 14.8664 134.407 14.9064 133.967 14.9597C133.527 15.0131 133.113 15.0797 132.727 15.1597Z" fill="#014A2E"/>
</svg>
