<svg width="51" height="19" viewBox="0 0 51 19" fill="none" xmlns="http://www.w3.org/2000/svg">
<path d="M4.32039 10.8797C3.52039 10.8931 2.79372 10.7397 2.14039 10.4197C1.48706 10.0997 0.967057 9.64639 0.580391 9.05973C0.193724 8.45973 0.000390738 7.77973 0.000390738 7.01973C0.000390738 6.27306 0.193724 5.60639 0.580391 5.01973C0.967057 4.41973 1.48706 3.93973 2.14039 3.57973C2.80706 3.21973 3.54039 3.03306 4.34039 3.01973C5.14039 2.99306 5.86039 3.12639 6.50039 3.41973C7.15372 3.71306 7.67372 4.14639 8.06039 4.71973C8.44706 5.29306 8.64039 5.99973 8.64039 6.83973C8.64039 7.59973 8.44706 8.28639 8.06039 8.89973C7.67372 9.49973 7.15372 9.97306 6.50039 10.3197C5.84706 10.6664 5.12039 10.8531 4.32039 10.8797ZM4.34039 9.87973C4.92706 9.85306 5.45372 9.71306 5.92039 9.45973C6.38706 9.19306 6.75372 8.83973 7.02039 8.39973C7.30039 7.94639 7.44039 7.43306 7.44039 6.85973C7.44039 6.23306 7.30039 5.69973 7.02039 5.25973C6.74039 4.81973 6.36706 4.48639 5.90039 4.25973C5.43372 4.01973 4.91372 3.91306 4.34039 3.93973C3.76706 3.93973 3.24039 4.07973 2.76039 4.35973C2.28039 4.62639 1.89372 4.99306 1.60039 5.45973C1.32039 5.91306 1.18039 6.42639 1.18039 6.99973C1.18039 7.59973 1.32039 8.12639 1.60039 8.57973C1.89372 9.01973 2.28039 9.35306 2.76039 9.57973C3.24039 9.80639 3.76706 9.90639 4.34039 9.87973ZM12.5004 17.6597C12.3537 17.6597 12.2737 17.5931 12.2604 17.4597C12.2471 17.3531 12.2271 17.1597 12.2004 16.8797C12.1871 16.5864 12.1737 16.2731 12.1604 15.9397C12.1471 15.5931 12.1404 15.2931 12.1404 15.0397V2.77973C12.1404 2.36639 12.1204 2.04639 12.0804 1.81973C12.0537 1.59306 11.9671 1.40639 11.8204 1.25973C11.6871 1.09973 11.4471 0.933059 11.1004 0.759726C10.9937 0.693059 10.9404 0.626392 10.9404 0.559725C10.9404 0.493059 10.9871 0.406392 11.0804 0.299726C11.1737 0.179726 11.2737 0.119726 11.3804 0.119726C11.5404 0.119726 11.7404 0.159726 11.9804 0.239726C12.2204 0.319726 12.4537 0.413059 12.6804 0.519726C12.9071 0.613059 13.0737 0.699725 13.1804 0.779726C13.3404 0.899726 13.4137 1.03306 13.4004 1.17973C13.3604 1.45973 13.3271 1.71973 13.3004 1.95973C13.2871 2.19973 13.2804 2.47973 13.2804 2.79973V14.9997C13.2804 15.2131 13.2671 15.4731 13.2404 15.7797C13.2271 16.0731 13.1937 16.3664 13.1404 16.6597C13.0871 16.9397 13.0071 17.1731 12.9004 17.3597C12.8071 17.5597 12.6737 17.6597 12.5004 17.6597ZM27.3827 13.4397C27.2761 13.4797 27.1961 13.4797 27.1427 13.4397C27.0894 13.3864 27.0561 13.3331 27.0427 13.2797C27.0027 13.1197 26.9694 12.8664 26.9427 12.5197C26.9294 12.1731 26.9227 11.7997 26.9227 11.3997V6.89973C26.5494 6.91306 26.1894 6.94639 25.8427 6.99973C25.4961 7.03973 25.1761 7.09306 24.8827 7.15973C24.6027 7.21306 24.3761 7.17973 24.2027 7.05973L23.9827 6.89973L23.9627 9.45973C23.9627 9.84639 23.9294 10.1864 23.8627 10.4797C23.7961 10.7597 23.6094 10.9264 23.3027 10.9797C23.1561 11.0064 23.0561 10.9464 23.0027 10.7997C22.9627 10.6531 22.9361 10.4864 22.9227 10.2997C22.6294 10.2997 22.2227 10.3131 21.7027 10.3397C21.1827 10.3531 20.6494 10.3731 20.1027 10.3997C19.5694 10.4131 19.1027 10.4331 18.7027 10.4597C18.6761 10.7131 18.6094 10.9064 18.5027 11.0397C18.4094 11.1731 18.3027 11.2531 18.1827 11.2797C18.0494 11.3064 17.9494 11.2731 17.8827 11.1797C17.8161 11.0864 17.7761 10.8864 17.7627 10.5797L17.6827 5.63973C17.6827 5.25306 17.6427 4.87306 17.5627 4.49973C17.4827 4.11306 17.2627 3.80639 16.9027 3.57973C16.7827 3.49973 16.7627 3.37973 16.8427 3.21973C16.9627 2.97973 17.1494 2.89973 17.4027 2.97973C17.5761 3.03306 17.7694 3.11306 17.9827 3.21973C18.1961 3.31306 18.3894 3.42639 18.5627 3.55973C18.7094 3.66639 18.7827 3.75306 18.7827 3.81973C18.7561 4.00639 18.7361 4.27306 18.7227 4.61973C18.7227 4.95306 18.7227 5.30639 18.7227 5.67973C19.1094 5.67973 19.5761 5.67306 20.1227 5.65973C20.6694 5.64639 21.1961 5.62639 21.7027 5.59973C22.2227 5.55973 22.6361 5.52639 22.9427 5.49973V4.81973C22.9427 4.79306 22.9427 4.74639 22.9427 4.67973C22.9427 4.21306 22.9094 3.82639 22.8427 3.51973C22.7894 3.19973 22.5694 2.91306 22.1827 2.65973C22.0361 2.57973 22.0161 2.46639 22.1227 2.31973C22.2827 2.09306 22.4761 2.01306 22.7027 2.07973C22.9561 2.14639 23.1627 2.22639 23.3227 2.31973C23.4961 2.41306 23.6694 2.51306 23.8427 2.61973C24.0294 2.75306 24.1094 2.89306 24.0827 3.03973C24.0427 3.30639 24.0161 3.57973 24.0027 3.85973C23.9894 4.12639 23.9827 4.41306 23.9827 4.71973V6.25973C24.3161 6.28639 24.7561 6.29306 25.3027 6.27973C25.8627 6.25306 26.4027 6.21306 26.9227 6.15973V3.81973C26.9227 3.76639 26.9227 3.71973 26.9227 3.67973C26.9227 3.62639 26.9227 3.57973 26.9227 3.53973C26.9227 3.00639 26.8894 2.58639 26.8227 2.27973C26.7561 1.95973 26.5161 1.67306 26.1027 1.41973C25.9561 1.31306 25.9227 1.19306 26.0027 1.05973C26.0827 0.926393 26.1627 0.839726 26.2427 0.799726C26.3361 0.759725 26.4361 0.746392 26.5427 0.759726C26.6894 0.773059 26.8561 0.826392 27.0427 0.919725C27.2294 1.01306 27.4027 1.11306 27.5627 1.21973C27.7227 1.32639 27.8294 1.40639 27.8827 1.45973C27.9494 1.52639 28.0027 1.59306 28.0427 1.65973C28.0961 1.71306 28.1161 1.77973 28.1027 1.85973C28.0627 2.09973 28.0361 2.37306 28.0227 2.67973C28.0227 2.98639 28.0227 3.27973 28.0227 3.55973C28.0227 3.61306 28.0227 3.66639 28.0227 3.71973C28.0227 3.75973 28.0227 3.79973 28.0227 3.83973V11.3597C28.0227 11.6131 28.0094 11.8864 27.9827 12.1797C27.9561 12.4731 27.8961 12.7397 27.8027 12.9797C27.7094 13.2064 27.5694 13.3597 27.3827 13.4397ZM30.4427 14.0997C30.3494 14.1397 30.2761 14.1397 30.2227 14.0997C30.1694 14.0464 30.1361 13.9931 30.1227 13.9397C30.0694 13.7797 30.0294 13.4931 30.0027 13.0797C29.9894 12.6664 29.9827 12.2597 29.9827 11.8597V2.79973C29.9827 2.77306 29.9827 2.72639 29.9827 2.65973C29.9827 2.28639 29.9694 1.99306 29.9427 1.77973C29.9161 1.56639 29.8427 1.38639 29.7227 1.23973C29.6027 1.07973 29.3894 0.906392 29.0827 0.719726C28.9361 0.613059 28.9027 0.493059 28.9827 0.359725C29.1294 0.119725 29.3094 0.0197255 29.5227 0.0597258C29.7627 0.099726 30.0294 0.199726 30.3227 0.359725C30.6161 0.506393 30.8361 0.639726 30.9827 0.759726C31.0494 0.826393 31.1027 0.893059 31.1427 0.959726C31.1961 1.01306 31.2161 1.07973 31.2027 1.15973C31.1627 1.43973 31.1361 1.70639 31.1227 1.95973C31.1094 2.21306 31.1027 2.49973 31.1027 2.81973V11.8197C31.1027 12.1131 31.0827 12.4264 31.0427 12.7597C31.0161 13.0797 30.9561 13.3664 30.8627 13.6197C30.7694 13.8597 30.6294 14.0197 30.4427 14.0997ZM24.0227 18.2597C23.3561 18.2597 22.8627 18.0864 22.5427 17.7397C22.2227 17.3931 22.0627 16.9131 22.0627 16.2997V15.1797C22.0627 14.8064 22.0094 14.4931 21.9027 14.2397C21.8094 13.9731 21.6094 13.7731 21.3027 13.6397C21.2227 13.6131 21.1694 13.5597 21.1427 13.4797C21.1161 13.3997 21.1161 13.3264 21.1427 13.2597C21.2761 13.0331 21.4494 12.9264 21.6627 12.9397C21.8361 12.9664 22.0694 13.0331 22.3627 13.1397C22.6561 13.2464 22.9027 13.3531 23.1027 13.4597C23.2627 13.5531 23.3294 13.6664 23.3027 13.7997C23.2761 13.8931 23.2494 14.0597 23.2227 14.2997C23.2094 14.5397 23.2027 14.7731 23.2027 14.9997V16.1997C23.2027 16.6664 23.2827 16.9864 23.4427 17.1597C23.6161 17.3331 23.8427 17.4264 24.1227 17.4397C24.2694 17.4531 24.5294 17.4597 24.9027 17.4597C25.2894 17.4597 25.7161 17.4531 26.1827 17.4397C26.6627 17.4264 27.1161 17.4131 27.5427 17.3997C27.9827 17.3864 28.3294 17.3731 28.5827 17.3597C29.2761 17.3197 29.8627 17.2531 30.3427 17.1597C30.8361 17.0664 31.1961 16.9864 31.4227 16.9197C31.7161 16.8264 31.9227 16.8664 32.0427 17.0397C32.1094 17.1464 32.1827 17.2731 32.2627 17.4197C32.3427 17.5664 32.3894 17.6864 32.4027 17.7797C32.4161 17.8731 32.3694 17.9597 32.2627 18.0397C32.1694 18.1331 32.0961 18.1797 32.0427 18.1797C31.5761 18.1531 31.1761 18.1331 30.8427 18.1197C30.5094 18.1197 30.1561 18.1197 29.7827 18.1197C29.4094 18.1331 28.9294 18.1531 28.3427 18.1797C27.6627 18.2064 26.9361 18.2264 26.1627 18.2397C25.3894 18.2531 24.6761 18.2597 24.0227 18.2597ZM18.7227 9.69973C19.1094 9.69973 19.5694 9.69306 20.1027 9.67973C20.6494 9.66639 21.1827 9.64639 21.7027 9.61973C22.2227 9.57973 22.6294 9.53306 22.9227 9.47973V6.31973C22.6294 6.31973 22.2227 6.32639 21.7027 6.33973C21.1827 6.33973 20.6494 6.34639 20.1027 6.35973C19.5694 6.37306 19.1094 6.39306 18.7227 6.41973V9.69973ZM38.3557 10.0197C38.0757 10.0197 37.849 9.90639 37.6757 9.67973C37.5157 9.43973 37.4357 9.09973 37.4357 8.65973V4.51973C37.4357 4.06639 37.3757 3.70639 37.2557 3.43973C37.149 3.17306 36.889 2.94639 36.4757 2.75973C36.329 2.69306 36.289 2.58639 36.3557 2.43973C36.409 2.29306 36.4824 2.19306 36.5757 2.13973C36.6824 2.07306 36.789 2.04639 36.8957 2.05973C37.0424 2.07306 37.2424 2.11973 37.4957 2.19973C37.749 2.27973 37.969 2.35973 38.1557 2.43973C38.3424 2.43973 38.629 2.43973 39.0157 2.43973C39.4024 2.42639 39.829 2.41973 40.2957 2.41973C40.7624 2.40639 41.2224 2.39306 41.6757 2.37973C42.1424 2.36639 42.5557 2.35306 42.9157 2.33973C43.289 2.32639 43.5557 2.31306 43.7157 2.29973C44.3824 2.27306 45.0157 2.21306 45.6157 2.11973C46.2157 2.02639 46.6224 1.95306 46.8357 1.89973C46.9957 1.83306 47.109 1.81973 47.1757 1.85973C47.2557 1.88639 47.3357 1.93306 47.4157 1.99973C47.429 2.01306 47.4357 2.01973 47.4357 2.01973C47.5024 2.08639 47.569 2.19306 47.6357 2.33973C47.7157 2.47306 47.7557 2.57306 47.7557 2.63973C47.7557 2.73306 47.7157 2.82639 47.6357 2.91973C47.569 3.01306 47.509 3.05973 47.4557 3.05973C47.149 3.03306 46.849 3.01973 46.5557 3.01973C46.2757 3.00639 45.949 3.00639 45.5757 3.01973C45.2157 3.01973 44.749 3.03306 44.1757 3.05973C43.9224 3.07306 43.5624 3.08639 43.0957 3.09973C42.629 3.11306 42.1157 3.12639 41.5557 3.13973C41.009 3.15306 40.469 3.16639 39.9357 3.17973C39.4157 3.19306 38.969 3.20639 38.5957 3.21973V5.73973C38.8757 5.73973 39.229 5.73973 39.6557 5.73973C40.0957 5.72639 40.549 5.71306 41.0157 5.69973C41.4957 5.68639 41.929 5.67306 42.3157 5.65973C42.7157 5.64639 43.0157 5.63306 43.2157 5.61973C43.669 5.59306 44.129 5.56639 44.5957 5.53973C45.0757 5.49973 45.5024 5.45306 45.8757 5.39973C46.249 5.34639 46.5024 5.29306 46.6357 5.23973C46.809 5.18639 46.929 5.17973 46.9957 5.21973C47.0624 5.24639 47.1357 5.29973 47.2157 5.37973C47.2824 5.44639 47.349 5.53973 47.4157 5.65973C47.4957 5.77973 47.5357 5.87306 47.5357 5.93973C47.5357 6.03306 47.4957 6.11973 47.4157 6.19973C47.3357 6.27973 47.269 6.31973 47.2157 6.31973C46.7624 6.29306 46.2757 6.27973 45.7557 6.27973C45.2357 6.27973 44.549 6.29306 43.6957 6.31973C43.429 6.33306 43.0757 6.34639 42.6357 6.35973C42.1957 6.37306 41.7224 6.38639 41.2157 6.39973C40.709 6.39973 40.2224 6.40639 39.7557 6.41973C39.3024 6.43306 38.9157 6.44639 38.5957 6.45973V8.49973C38.5957 8.76639 38.629 8.95973 38.6957 9.07973C38.7624 9.19973 38.929 9.25973 39.1957 9.25973C39.929 9.25973 40.6757 9.25306 41.4357 9.23973C42.1957 9.22639 42.949 9.20639 43.6957 9.17973C44.4824 9.15306 45.1624 9.11306 45.7357 9.05973C46.3224 8.99306 46.7757 8.91306 47.0957 8.81973C47.269 8.76639 47.3957 8.74639 47.4757 8.75973C47.569 8.77306 47.649 8.83306 47.7157 8.93973C47.7957 9.01973 47.8624 9.11973 47.9157 9.23973C47.9824 9.35973 48.029 9.46639 48.0557 9.55973C48.069 9.63973 48.0224 9.73306 47.9157 9.83973C47.809 9.93306 47.729 9.97973 47.6757 9.97973C47.2224 9.93973 46.8024 9.91973 46.4157 9.91973C46.0424 9.90639 45.649 9.90639 45.2357 9.91973C44.8224 9.91973 44.3224 9.93306 43.7357 9.95973C43.2024 9.97306 42.6157 9.98639 41.9757 9.99973C41.349 10.0131 40.7157 10.0197 40.0757 10.0197C39.449 10.0197 38.8757 10.0197 38.3557 10.0197ZM35.8957 15.1597C35.6557 15.2131 35.4957 15.2331 35.4157 15.2197C35.3357 15.1931 35.229 15.1331 35.0957 15.0397C35.0157 14.9864 34.909 14.8997 34.7757 14.7797C34.6424 14.6597 34.5224 14.5464 34.4157 14.4397C34.309 14.3197 34.2424 14.2331 34.2157 14.1797C34.1757 14.1131 34.1957 14.0197 34.2757 13.8997C34.369 13.7797 34.4624 13.7331 34.5557 13.7597C34.9824 13.8531 35.4557 13.9197 35.9757 13.9597C36.509 13.9997 37.129 14.0197 37.8357 14.0197C38.5957 14.0197 39.3824 14.0197 40.1957 14.0197C41.009 14.0064 41.7957 13.9931 42.5557 13.9797C43.329 13.9664 44.0357 13.9531 44.6757 13.9397C45.3157 13.9131 45.8357 13.8931 46.2357 13.8797C47.1024 13.8531 47.8757 13.7931 48.5557 13.6997C49.2357 13.5931 49.7224 13.4931 50.0157 13.3997C50.1624 13.3464 50.2757 13.3397 50.3557 13.3797C50.449 13.4197 50.5357 13.4931 50.6157 13.5997C50.6957 13.7064 50.7757 13.8464 50.8557 14.0197C50.949 14.1797 50.9957 14.3131 50.9957 14.4197C50.9957 14.5131 50.949 14.5931 50.8557 14.6597C50.7624 14.7264 50.689 14.7597 50.6357 14.7597C50.0224 14.7064 49.329 14.6797 48.5557 14.6797C47.7957 14.6664 47.1024 14.6597 46.4757 14.6597C45.6757 14.6731 44.809 14.6931 43.8757 14.7197C42.9424 14.7331 42.0224 14.7464 41.1157 14.7597C40.2224 14.7731 39.409 14.7997 38.6757 14.8397C38.089 14.8664 37.5757 14.9064 37.1357 14.9597C36.6957 15.0131 36.2824 15.0797 35.8957 15.1597Z" fill="#014A2E"/>
</svg>
