<svg width="253" height="32" viewBox="0 0 253 32" fill="none" xmlns="http://www.w3.org/2000/svg">
<path d="M16.8638 27.7445C16.4585 27.7445 16.2238 27.4778 16.1598 26.9445C16.1171 26.5818 16.0745 26.1658 16.0318 25.6965C16.0105 25.2058 15.9891 24.7365 15.9678 24.2885C15.9678 23.8405 15.9678 23.4885 15.9678 23.2325V17.4085C15.4131 17.4511 14.8585 17.5151 14.3038 17.6005C13.7705 17.6858 13.2371 17.7925 12.7038 17.9205C12.2771 18.0271 11.8931 18.0165 11.5518 17.8885C11.4238 17.8245 11.2211 17.7071 10.9438 17.5365C10.6878 17.3658 10.4425 17.1951 10.2078 17.0245C9.99446 16.8325 9.87713 16.7151 9.8558 16.6725C9.77046 16.4165 9.8238 16.1605 10.0158 15.9045C10.2078 15.6271 10.3998 15.4778 10.5918 15.4565C11.4025 15.5845 12.2665 15.6485 13.1838 15.6485C14.1225 15.6485 15.0505 15.6058 15.9678 15.5205V10.8485C15.5838 10.8698 15.1891 10.9125 14.7838 10.9765C14.3998 11.0405 13.9625 11.1365 13.4718 11.2645C13.2371 11.3071 13.0558 11.3285 12.9278 11.3285C12.7998 11.3285 12.6291 11.2858 12.4158 11.2005C12.3091 11.1578 12.1705 11.0938 11.9998 11.0085C11.8291 10.9018 11.6585 10.7951 11.4878 10.6885C10.8905 12.0325 10.1225 13.4298 9.1838 14.8805C8.24513 16.3311 7.18913 17.6965 6.0158 18.9765C4.84246 20.2565 3.5838 21.3231 2.2398 22.1765C1.81313 22.4538 1.36513 22.6031 0.895797 22.6245C0.447797 22.6245 0.170464 22.4538 0.063797 22.1125C0.0211303 21.9205 0.0531303 21.7285 0.159797 21.5365C0.266464 21.3445 0.426464 21.1738 0.639797 21.0245C1.5998 20.2565 2.54913 19.3285 3.4878 18.2405C4.4478 17.1525 5.32246 15.9898 6.1118 14.7525C6.92246 13.4938 7.60513 12.2245 8.1598 10.9445C8.7358 9.66445 9.13046 8.44845 9.3438 7.29645C9.4078 7.04045 9.33313 6.91245 9.1198 6.91245C8.33046 6.91245 7.4558 6.96579 6.4958 7.07245C5.5358 7.17912 4.58646 7.33912 3.6478 7.55245C3.62646 7.55245 3.60513 7.55245 3.5838 7.55245C3.22113 7.63779 2.96513 7.68045 2.8158 7.68045C2.6878 7.65912 2.50646 7.54179 2.2718 7.32845C2.12246 7.20045 1.8878 6.98712 1.5678 6.68845C1.26913 6.36845 1.06646 6.11245 0.959797 5.92045C0.91713 5.72845 1.00246 5.50445 1.2158 5.24845C1.42913 4.97112 1.62113 4.83245 1.7918 4.83245C2.26113 4.93912 2.8478 5.01379 3.5518 5.05645C4.2558 5.09912 4.9918 5.10979 5.7598 5.08845C6.54913 5.06712 7.2958 5.01379 7.9998 4.92845C8.72513 4.82178 9.33313 4.68312 9.8238 4.51245C9.97313 4.44845 10.1011 4.42712 10.2078 4.44845C10.3145 4.44845 10.4211 4.46979 10.5278 4.51245C10.5491 4.51245 10.5598 4.51245 10.5598 4.51245C10.9011 4.61912 11.3065 4.73645 11.7758 4.86445C12.2451 4.99245 12.6185 5.10979 12.8958 5.21645C13.2585 5.34445 13.3545 5.62179 13.1838 6.04845C13.1411 6.24045 13.0451 6.52845 12.8958 6.91245C12.7678 7.29645 12.6291 7.69112 12.4798 8.09645C12.3518 8.48045 12.2345 8.80045 12.1278 9.05645C12.7465 9.14179 13.3758 9.18445 14.0158 9.18445C14.6558 9.16312 15.3065 9.13112 15.9678 9.08845V6.08045C15.9678 5.48312 15.9465 5.03512 15.9038 4.73645C15.8611 4.41645 15.7651 4.16045 15.6158 3.96845C15.4665 3.75512 15.2425 3.53112 14.9438 3.29645C14.7305 3.12578 14.5705 2.96578 14.4638 2.81645C14.3785 2.66712 14.3891 2.48578 14.4958 2.27245C14.8585 1.54712 15.3918 1.29112 16.0958 1.50445C16.5225 1.63245 16.9278 1.80312 17.3118 2.01645C17.7171 2.22979 18.0691 2.44312 18.3678 2.65645C18.7731 2.93379 18.9758 3.20045 18.9758 3.45645C18.9118 3.73378 18.8691 4.11779 18.8478 4.60845C18.8265 5.09912 18.8158 5.58979 18.8158 6.08045V23.0725C18.8158 23.4778 18.7838 23.9471 18.7198 24.4805C18.6558 24.9925 18.5491 25.5045 18.3998 26.0165C18.2505 26.5071 18.0478 26.9231 17.7918 27.2645C17.5571 27.5845 17.2478 27.7445 16.8638 27.7445ZM21.9198 28.8965C21.5358 28.8965 21.2905 28.6298 21.1838 28.0965C21.1198 27.7125 21.0665 27.2645 21.0238 26.7525C21.0025 26.2191 20.9811 25.7178 20.9598 25.2485C20.9598 24.7578 20.9598 24.3845 20.9598 24.1285V4.86445C20.9598 4.26712 20.9385 3.81912 20.8958 3.52045C20.8531 3.22179 20.7571 2.97645 20.6078 2.78445C20.4585 2.57112 20.2025 2.33645 19.8398 2.08045C19.6265 1.90978 19.4665 1.74979 19.3598 1.60045C19.2745 1.45112 19.2851 1.25912 19.3918 1.02445C19.7331 0.341785 20.2665 0.0857855 20.9918 0.256453C21.4825 0.384452 21.9518 0.565785 22.3998 0.800451C22.8691 1.03512 23.2745 1.26979 23.6158 1.50445C23.9998 1.76045 24.1918 2.01645 24.1918 2.27245C24.1491 2.54978 24.0958 2.93379 24.0318 3.42445C23.9678 3.91512 23.9358 4.40579 23.9358 4.89645L23.9038 23.9685C23.9038 24.3738 23.8718 24.8538 23.8078 25.4085C23.7651 25.9631 23.6691 26.5071 23.5198 27.0405C23.3705 27.5738 23.1678 28.0111 22.9118 28.3525C22.6558 28.7151 22.3251 28.8965 21.9198 28.8965ZM34.9563 17.6645C34.679 17.6645 34.455 17.5471 34.2843 17.3125C34.135 17.0565 34.0496 16.6511 34.0283 16.0965L33.8043 8.35245C33.783 7.73378 33.751 7.22179 33.7083 6.81645C33.6656 6.41112 33.5696 6.05912 33.4203 5.76045C33.271 5.44045 33.015 5.13112 32.6523 4.83245C32.503 4.68312 32.3963 4.53379 32.3323 4.38445C32.2683 4.23512 32.3003 4.05379 32.4283 3.84045C32.6416 3.49912 32.887 3.28579 33.1643 3.20045C33.4416 3.11512 33.719 3.11512 33.9963 3.20045C34.359 3.28579 34.7963 3.47778 35.3083 3.77645C35.8203 4.05378 36.1936 4.30979 36.4283 4.54445C36.663 4.75779 36.8123 4.92845 36.8763 5.05645C36.9403 5.18445 36.983 5.33378 37.0043 5.50445C36.9616 5.76045 36.919 6.06979 36.8763 6.43245C36.855 6.77379 36.8336 7.12579 36.8123 7.48845C37.3243 7.50979 38.039 7.52045 38.9563 7.52045C39.8736 7.49912 40.8443 7.46712 41.8683 7.42445C42.9136 7.38179 43.895 7.33912 44.8123 7.29645C45.751 7.25379 46.4976 7.21112 47.0523 7.16845V6.52845C47.0523 6.40045 47.0523 6.28312 47.0523 6.17645C47.0523 6.04845 47.0523 5.93112 47.0523 5.82445C47.0736 5.16312 47.0416 4.67245 46.9563 4.35245C46.871 4.01112 46.583 3.65912 46.0923 3.29645C45.9003 3.18979 45.7616 3.05112 45.6763 2.88045C45.6123 2.70979 45.6443 2.51779 45.7723 2.30445C45.9643 1.96312 46.199 1.74979 46.4763 1.66445C46.775 1.57912 47.063 1.57912 47.3403 1.66445C47.703 1.74979 48.087 1.89912 48.4923 2.11245C48.8976 2.30445 49.271 2.51779 49.6123 2.75245C50.103 3.09379 50.3696 3.38179 50.4123 3.61645C50.327 4.06445 50.263 4.64045 50.2203 5.34445C50.1776 6.04845 50.1563 6.60312 50.1563 7.00845L50.1243 14.2405C50.1243 15.0298 49.911 15.7125 49.4843 16.2885C49.0576 16.8431 48.5883 17.1205 48.0763 17.1205C47.735 17.1205 47.4896 17.0245 47.3403 16.8325C47.2123 16.6191 47.127 16.3098 47.0843 15.9045C46.551 15.9045 45.815 15.9151 44.8763 15.9365C43.959 15.9365 42.9776 15.9471 41.9323 15.9685C40.9083 15.9898 39.927 16.0111 38.9883 16.0325C38.071 16.0538 37.3243 16.0858 36.7483 16.1285C36.599 16.5978 36.343 16.9711 35.9803 17.2485C35.639 17.5258 35.2976 17.6645 34.9563 17.6645ZM30.7323 25.6645C30.4336 25.6645 30.135 25.5578 29.8363 25.3445C29.495 25.1311 29.1216 24.8431 28.7163 24.4805C28.3323 24.0965 28.119 23.8298 28.0763 23.6805C28.0123 23.4885 28.0976 23.2325 28.3323 22.9125C28.567 22.5711 28.823 22.4218 29.1003 22.4645C29.783 22.6138 30.647 22.7418 31.6923 22.8485C32.759 22.9338 34.007 22.9765 35.4363 22.9765C36.0123 22.9765 36.7696 22.9765 37.7083 22.9765C38.6683 22.9551 39.671 22.9338 40.7163 22.9125L40.6843 20.7685C40.663 19.9791 40.599 19.4671 40.4923 19.2325C40.3856 18.9765 40.1723 18.7205 39.8523 18.4645C39.831 18.4431 39.8096 18.4218 39.7883 18.4005C39.5963 18.2511 39.4683 18.1231 39.4043 18.0165C39.3403 17.9098 39.351 17.7498 39.4363 17.5365C39.607 17.1738 39.831 16.9498 40.1083 16.8645C40.3856 16.7578 40.663 16.7258 40.9403 16.7685C41.303 16.8325 41.687 16.9498 42.0923 17.1205C42.519 17.2911 42.8816 17.4618 43.1803 17.6325C43.607 17.8885 43.8416 18.1231 43.8843 18.3365C43.7136 19.0191 43.6176 19.7445 43.5963 20.5125L43.4683 22.8485C44.3216 22.8271 45.111 22.8058 45.8363 22.7845C46.5616 22.7418 47.1483 22.7098 47.5963 22.6885C48.919 22.6031 50.1136 22.4965 51.1803 22.3685C52.2683 22.2191 53.143 22.0591 53.8043 21.8885C54.0816 21.8031 54.3163 21.7605 54.5083 21.7605C54.743 21.7605 54.9563 21.8991 55.1483 22.1765C55.2976 22.4111 55.4576 22.7205 55.6283 23.1045C55.799 23.4885 55.8843 23.7551 55.8843 23.9045C55.8843 24.1391 55.735 24.3738 55.4363 24.6085C55.1376 24.8218 54.9243 24.9285 54.7963 24.9285C54.2843 24.8645 53.6443 24.8218 52.8763 24.8005C52.1083 24.7578 51.3083 24.7365 50.4763 24.7365C49.6656 24.7151 48.887 24.7045 48.1403 24.7045C46.3056 24.7258 44.3003 24.7685 42.1243 24.8325C39.9483 24.8751 37.719 24.9391 35.4363 25.0245C35.095 25.0458 34.6363 25.0885 34.0603 25.1525C33.5056 25.2165 32.9616 25.2911 32.4283 25.3765C31.9163 25.4405 31.5323 25.5045 31.2763 25.5685C31.063 25.6325 30.8816 25.6645 30.7323 25.6645ZM36.8763 14.1445C37.4736 14.1445 38.231 14.1445 39.1483 14.1445C40.0656 14.1231 41.0256 14.1018 42.0283 14.0805C43.031 14.0378 43.9803 13.9951 44.8763 13.9525C45.7723 13.9098 46.4976 13.8671 47.0523 13.8245V9.24845C46.5403 9.24845 45.8256 9.25912 44.9083 9.28045C44.0123 9.28045 43.0416 9.29112 41.9963 9.31245C40.9723 9.33379 39.991 9.36579 39.0523 9.40845C38.135 9.42979 37.3883 9.45112 36.8123 9.47245L36.8763 14.1445ZM65.9693 12.4485C65.4786 12.4485 65.0306 12.2778 64.6253 11.9365C64.22 11.5951 64.0173 10.9978 64.0173 10.1445V8.41645C63.996 8.18179 63.8786 7.98979 63.6653 7.84045C63.4093 7.62712 63.196 7.44579 63.0253 7.29645C62.876 7.14712 62.7906 7.01912 62.7693 6.91245C62.7906 6.74179 62.876 6.52845 63.0253 6.27245C63.196 6.01645 63.388 5.87779 63.6013 5.85645C64.092 5.92045 64.6573 5.97379 65.2973 6.01645C65.9586 6.05912 66.492 6.08045 66.8973 6.08045C67.324 6.08045 67.9 6.08045 68.6253 6.08045C69.372 6.05912 70.1933 6.03779 71.0893 6.01645C71.9853 5.97379 72.8813 5.93112 73.7773 5.88845C74.6946 5.84579 75.5373 5.79245 76.3053 5.72845C76.348 5.38712 76.3693 5.05645 76.3693 4.73645C76.3906 4.39512 76.412 4.07512 76.4333 3.77645C76.4333 3.58445 76.4013 3.47779 76.3373 3.45645C76.2946 3.41379 76.2093 3.39245 76.0813 3.39245C75.8466 3.39245 75.4093 3.40312 74.7693 3.42445C74.1506 3.42445 73.4466 3.44579 72.6573 3.48845C71.8893 3.53112 71.132 3.57379 70.3853 3.61645C69.66 3.63779 69.084 3.66979 68.6573 3.71245C68.3373 3.73378 67.9213 3.77645 67.4093 3.84045C66.8973 3.88312 66.4386 3.93645 66.0333 4.00045C65.6066 4.06445 65.2973 4.09645 65.1053 4.09645C64.9133 4.07512 64.7213 3.98978 64.5293 3.84045C64.316 3.66979 64.0493 3.43512 63.7293 3.13645C63.4306 2.83779 63.26 2.64579 63.2173 2.56045C63.1746 2.36845 63.2386 2.14445 63.4093 1.88845C63.6013 1.61112 63.8146 1.45112 64.0493 1.40845C64.604 1.51512 65.1693 1.60045 65.7453 1.66445C66.3426 1.70712 67.0253 1.72845 67.7933 1.72845C68.5613 1.72845 69.4893 1.71779 70.5773 1.69645C70.9613 1.69645 71.4413 1.68578 72.0173 1.66445C72.6146 1.62179 73.2226 1.57912 73.8413 1.53645C74.46 1.47245 75.0253 1.40845 75.5373 1.34445C76.0493 1.25912 76.4333 1.17378 76.6893 1.08845C76.8386 1.02445 76.9453 0.992453 77.0093 0.992453C77.0733 0.992453 77.1693 1.00312 77.2973 1.02445C77.34 1.04579 77.372 1.05645 77.3933 1.05645L79.6973 1.53645C80.0386 1.66445 80.1453 1.93112 80.0173 2.33645L79.0253 5.53645C79.26 5.66445 79.4733 5.81379 79.6653 5.98445C79.8573 6.15512 79.9533 6.28312 79.9533 6.36845C79.9533 6.62445 79.8786 6.91245 79.7293 7.23245C79.6013 7.53112 79.4093 7.72312 79.1533 7.80845C78.4706 7.78712 77.6066 7.78712 76.5613 7.80845C75.516 7.80845 74.4173 7.81912 73.2653 7.84045C72.1133 7.86179 70.9933 7.89379 69.9053 7.93645C68.8173 7.95779 67.8786 7.98979 67.0893 8.03245V9.66445C67.0893 10.0058 67.132 10.2191 67.2173 10.3045C67.324 10.3898 67.548 10.4431 67.8893 10.4645C68.7 10.4858 69.6493 10.4858 70.7373 10.4645C71.8466 10.4431 73.0413 10.4005 74.3213 10.3365C75.516 10.2725 76.5506 10.1765 77.4253 10.0485C78.3 9.89912 78.8973 9.77112 79.2173 9.66445C79.452 9.57912 79.6333 9.57912 79.7613 9.66445C79.9106 9.72845 80.028 9.82445 80.1133 9.95245C80.284 10.1658 80.444 10.4111 80.5933 10.6885C80.764 10.9445 80.8493 11.1258 80.8493 11.2325C80.8493 11.4031 80.7213 11.6165 80.4653 11.8725C80.2306 12.1285 80.0386 12.2565 79.8893 12.2565C79.5906 12.2351 79.068 12.2245 78.3213 12.2245C77.5746 12.2031 76.7426 12.2031 75.8253 12.2245C74.9293 12.2245 74.076 12.2351 73.2653 12.2565C72.9453 12.2565 72.476 12.2671 71.8573 12.2885C71.2386 12.3098 70.556 12.3311 69.8093 12.3525C69.0626 12.3738 68.348 12.3951 67.6653 12.4165C66.9826 12.4378 66.4173 12.4485 65.9693 12.4485ZM66.7373 30.1445C66.2466 30.1231 65.7773 29.8885 65.3293 29.4405C64.9026 29.0138 64.6893 28.3631 64.6893 27.4885V25.8885C64.6893 25.7818 64.668 25.7071 64.6253 25.6645C64.604 25.6005 64.5293 25.5258 64.4013 25.4405C64.124 25.2698 63.8893 25.1098 63.6973 24.9605C63.5266 24.8111 63.4306 24.6831 63.4093 24.5765C63.4306 24.4058 63.516 24.1818 63.6653 23.9045C63.8146 23.6271 63.996 23.4778 64.2093 23.4565C64.7 23.5418 65.276 23.6058 65.9373 23.6485C66.62 23.6911 67.164 23.7125 67.5693 23.7125C67.9746 23.7125 68.54 23.7125 69.2653 23.7125C69.9906 23.7125 70.7906 23.7018 71.6653 23.6805C72.5613 23.6378 73.4573 23.6058 74.3533 23.5845C75.2493 23.5418 76.06 23.4885 76.7853 23.4245C76.8066 23.0831 76.828 22.7525 76.8493 22.4325C76.8706 22.1125 76.8813 21.7818 76.8813 21.4405C76.8813 21.2698 76.8493 21.1738 76.7853 21.1525C76.7213 21.1098 76.6253 21.0885 76.4973 21.0885C76.2626 21.0885 75.8466 21.0991 75.2493 21.1205C74.6733 21.1418 74.012 21.1738 73.2653 21.2165C72.5186 21.2591 71.7933 21.3018 71.0893 21.3445C70.4066 21.3658 69.852 21.3871 69.4253 21.4085C69.212 21.4085 68.9133 21.4298 68.5293 21.4725C68.1453 21.4938 67.7506 21.5258 67.3453 21.5685C66.9613 21.6111 66.6306 21.6645 66.3533 21.7285C65.9266 21.8138 65.6173 21.8351 65.4253 21.7925C65.2333 21.7498 65.0413 21.6538 64.8493 21.5045C64.6573 21.3338 64.412 21.1098 64.1133 20.8325C63.836 20.5551 63.676 20.3738 63.6333 20.2885C63.5906 20.0965 63.6653 19.8725 63.8573 19.6165C64.0493 19.3605 64.2626 19.2111 64.4973 19.1685C65.3293 19.3391 66.2573 19.4458 67.2813 19.4885C68.3266 19.5098 69.4573 19.5098 70.6733 19.4885C71.0573 19.4885 71.548 19.4778 72.1453 19.4565C72.7426 19.4138 73.3613 19.3711 74.0013 19.3285C74.6626 19.2645 75.26 19.2005 75.7933 19.1365C76.3266 19.0511 76.7213 18.9658 76.9773 18.8805C77.148 18.8165 77.2653 18.7845 77.3293 18.7845C77.4146 18.7631 77.532 18.7738 77.6813 18.8165L79.9853 19.2965C80.3266 19.3605 80.4333 19.6058 80.3053 20.0325C80.22 20.2885 80.092 20.7471 79.9213 21.4085C79.7506 22.0485 79.5906 22.6351 79.4413 23.1685C79.676 23.2965 79.9 23.4458 80.1133 23.6165C80.3266 23.7871 80.4333 23.9258 80.4333 24.0325C80.4333 24.2885 80.3373 24.5658 80.1453 24.8645C79.9746 25.1631 79.7613 25.3551 79.5053 25.4405C78.8226 25.4191 77.9693 25.4085 76.9453 25.4085C75.9426 25.4085 74.876 25.4191 73.7453 25.4405C72.636 25.4618 71.548 25.4938 70.4813 25.5365C69.436 25.5791 68.5293 25.6218 67.7613 25.6645V26.9765C67.7613 27.3178 67.7933 27.5951 67.8573 27.8085C67.9426 28.0005 68.1133 28.1071 68.3693 28.1285C69.18 28.1711 70.14 28.1818 71.2493 28.1605C72.3586 28.1605 73.404 28.1498 74.3853 28.1285C75.9 28.0858 77.1693 27.9791 78.1933 27.8085C79.2386 27.6378 79.932 27.4885 80.2733 27.3605C80.508 27.2538 80.7 27.2431 80.8493 27.3285C80.9986 27.3925 81.116 27.4885 81.2013 27.6165C81.372 27.8298 81.5426 28.0858 81.7133 28.3845C81.884 28.7045 81.9693 28.9285 81.9693 29.0565C81.9693 29.2271 81.8413 29.4405 81.5853 29.6965C81.3506 29.9525 81.1586 30.0805 81.0093 30.0805C80.7106 30.0591 80.2306 30.0378 79.5693 30.0165C78.908 30.0165 78.172 30.0165 77.3613 30.0165C76.5506 30.0165 75.74 30.0271 74.9293 30.0485C74.6733 30.0485 74.1933 30.0591 73.4893 30.0805C72.8066 30.1018 72.0173 30.1125 71.1213 30.1125C70.2466 30.1338 69.404 30.1445 68.5933 30.1445C67.804 30.1658 67.1853 30.1658 66.7373 30.1445ZM60.8173 17.5685C60.348 17.6751 60.0066 17.7071 59.7933 17.6645C59.6013 17.6218 59.388 17.5151 59.1533 17.3445C59.0253 17.2378 58.8333 17.0778 58.5773 16.8645C58.3426 16.6511 58.108 16.4378 57.8733 16.2245C57.66 16.0111 57.532 15.8511 57.4893 15.7445C57.4466 15.5738 57.5426 15.3285 57.7773 15.0085C58.012 14.6885 58.2573 14.5391 58.5133 14.5605C59.196 14.7098 60.0066 14.8271 60.9453 14.9125C61.9053 14.9765 62.9186 15.0191 63.9853 15.0405C65.0093 15.0405 66.14 15.0405 67.3773 15.0405C68.6146 15.0191 69.8626 14.9871 71.1213 14.9445C72.4013 14.9018 73.6066 14.8591 74.7373 14.8165C75.868 14.7738 76.8386 14.7311 77.6493 14.6885C78.972 14.6031 80.1986 14.4965 81.3293 14.3685C82.4813 14.2405 83.388 14.0911 84.0493 13.9205C84.476 13.8138 84.764 13.7818 84.9133 13.8245C85.084 13.8458 85.244 13.9738 85.3933 14.2085C85.5426 14.4218 85.7026 14.7205 85.8733 15.1045C86.044 15.4671 86.1293 15.7231 86.1293 15.8725C86.108 16.1071 85.948 16.3418 85.6493 16.5765C85.372 16.7898 85.1693 16.8965 85.0413 16.8965C84.444 16.8325 83.8573 16.7898 83.2813 16.7685C82.7266 16.7258 82.0653 16.6938 81.2973 16.6725C80.5506 16.6511 79.58 16.6405 78.3853 16.6405C77.1693 16.6405 75.7933 16.6618 74.2573 16.7045C72.7213 16.7258 71.1853 16.7685 69.6493 16.8325C68.1133 16.8965 66.7266 16.9605 65.4893 17.0245C64.572 17.0671 63.7293 17.1418 62.9613 17.2485C62.1933 17.3338 61.4786 17.4405 60.8173 17.5685ZM106.274 15.8725C104.952 15.8938 103.736 15.6698 102.626 15.2005C101.538 14.7098 100.674 14.0058 100.034 13.0885C99.3943 12.1498 99.0743 11.0511 99.0743 9.79245C99.0743 8.59779 99.3943 7.53112 100.034 6.59245C100.696 5.63245 101.57 4.87512 102.658 4.32045C103.746 3.74445 104.941 3.44578 106.242 3.42445C107.565 3.38179 108.77 3.59512 109.858 4.06445C110.946 4.53378 111.821 5.22712 112.482 6.14445C113.144 7.06179 113.474 8.19245 113.474 9.53645C113.474 10.7525 113.144 11.8298 112.482 12.7685C111.821 13.7071 110.946 14.4538 109.858 15.0085C108.77 15.5418 107.576 15.8298 106.274 15.8725ZM104.162 30.8485C103.138 31.0618 102.562 30.9125 102.434 30.4005C102.413 30.2298 102.445 30.0805 102.53 29.9525C102.637 29.8245 102.754 29.7285 102.882 29.6645C104.056 29.0671 105.186 28.3631 106.274 27.5525C107.384 26.7418 108.386 25.8778 109.282 24.9605C110.2 24.0218 110.946 23.1045 111.522 22.2085C111.821 21.7391 112.024 21.2485 112.13 20.7365C112.258 20.2245 112.141 19.8085 111.778 19.4885C111.586 19.3178 111.458 19.1471 111.394 18.9765C111.33 18.8058 111.352 18.6138 111.458 18.4005C111.693 17.9738 111.96 17.7391 112.258 17.6965C112.557 17.6325 112.856 17.6538 113.154 17.7605C113.368 17.8245 113.645 17.9631 113.986 18.1765C114.328 18.3898 114.658 18.6245 114.978 18.8805C115.298 19.1151 115.544 19.3285 115.714 19.5205C116.056 19.9045 116.162 20.2245 116.034 20.4805C115.928 20.5871 115.746 20.8431 115.49 21.2485C115.256 21.6325 114.968 22.0805 114.626 22.5925C116.973 24.2778 119.128 25.3765 121.09 25.8885C121.41 26.0591 121.709 26.3685 121.986 26.8165C122.264 27.2645 122.488 27.7338 122.658 28.2245C122.85 28.7151 122.936 29.1205 122.914 29.4405C122.893 29.6538 122.776 29.8351 122.562 29.9845C122.349 30.1551 122.114 30.2725 121.858 30.3365C121.602 30.4218 121.4 30.4431 121.25 30.4005C120.568 29.7178 119.768 28.9925 118.85 28.2245C117.933 27.4778 117.005 26.7418 116.066 26.0165C115.149 25.2911 114.306 24.6511 113.538 24.0965C112.45 25.4618 111.33 26.6245 110.178 27.5845C109.026 28.5231 107.928 29.2591 106.882 29.7925C105.837 30.3258 104.93 30.6778 104.162 30.8485ZM119.522 20.7045C119.138 20.7045 118.893 20.4911 118.786 20.0645C118.68 19.5738 118.616 19.0298 118.594 18.4325C118.573 17.8138 118.562 17.3018 118.562 16.8965C118.562 16.7898 118.562 16.7151 118.562 16.6725V4.86445C118.562 4.26712 118.541 3.81912 118.498 3.52045C118.456 3.20045 118.338 2.94445 118.146 2.75245C117.976 2.56045 117.688 2.32579 117.282 2.04845C117.069 1.92045 116.909 1.77112 116.802 1.60045C116.717 1.42979 116.728 1.23779 116.834 1.02445C117.005 0.661785 117.229 0.427118 117.506 0.320452C117.784 0.213785 118.093 0.192452 118.434 0.256453C118.925 0.341785 119.426 0.512451 119.938 0.768452C120.45 1.00312 120.877 1.23778 121.218 1.47245C121.602 1.72845 121.794 1.99512 121.794 2.27245C121.752 2.54978 121.698 2.93379 121.634 3.42445C121.57 3.91512 121.538 4.40579 121.538 4.89645V16.5125C121.538 17.0458 121.474 17.6431 121.346 18.3045C121.24 18.9445 121.037 19.5098 120.738 20.0005C120.44 20.4698 120.034 20.7045 119.522 20.7045ZM106.242 13.7605C107.416 13.7178 108.397 13.3338 109.186 12.6085C109.976 11.8618 110.37 10.8378 110.37 9.53645C110.37 8.10712 109.965 7.07245 109.154 6.43245C108.365 5.77112 107.405 5.47245 106.274 5.53645C105.08 5.60045 104.088 5.99512 103.298 6.72045C102.509 7.44579 102.114 8.45912 102.114 9.76045C102.114 11.0831 102.509 12.0965 103.298 12.8005C104.088 13.4831 105.069 13.8031 106.242 13.7605ZM134.086 11.6485C133.595 11.6485 133.158 11.4245 132.774 10.9765C132.411 10.5285 132.23 9.74979 132.23 8.64045V6.56045C132.23 5.94179 132.209 5.45112 132.166 5.08845C132.145 4.72579 132.049 4.42712 131.878 4.19245C131.729 3.93645 131.462 3.69112 131.078 3.45645C130.694 3.20045 130.598 2.85912 130.79 2.43245C130.961 2.09112 131.185 1.86712 131.462 1.76045C131.761 1.63245 132.059 1.61112 132.358 1.69645C132.721 1.78178 133.126 1.93112 133.574 2.14445C134.022 2.33645 134.406 2.54978 134.726 2.78445C134.961 2.95512 135.163 3.12578 135.334 3.29645C135.526 3.46712 135.611 3.63779 135.59 3.80845C135.505 4.17112 135.441 4.59778 135.398 5.08845C135.377 5.55779 135.366 5.99512 135.366 6.40045V8.35245C135.366 8.94979 135.419 9.31245 135.526 9.44045C135.654 9.56845 135.931 9.63245 136.358 9.63245C137.169 9.63245 138.011 9.62179 138.886 9.60045C139.761 9.55779 140.923 9.49379 142.374 9.40845C143.889 9.32312 145.115 9.19512 146.054 9.02445C147.014 8.83245 147.654 8.68312 147.974 8.57645C148.209 8.49112 148.401 8.48045 148.55 8.54445C148.699 8.60845 148.817 8.71512 148.902 8.86445C149.073 9.07779 149.243 9.36579 149.414 9.72845C149.585 10.0698 149.67 10.2938 149.67 10.4005C149.67 10.5711 149.542 10.7845 149.286 11.0405C149.051 11.2965 148.859 11.4245 148.71 11.4245C148.433 11.4031 147.985 11.3925 147.366 11.3925C146.769 11.3711 146.086 11.3605 145.318 11.3605C144.55 11.3605 143.761 11.3711 142.95 11.3925C142.758 11.3925 142.385 11.4031 141.83 11.4245C141.297 11.4458 140.657 11.4671 139.91 11.4885C139.185 11.5098 138.438 11.5311 137.67 11.5525C136.923 11.5738 136.23 11.5951 135.59 11.6165C134.95 11.6378 134.449 11.6485 134.086 11.6485ZM129.286 18.6885C128.817 18.7951 128.475 18.8271 128.262 18.7845C128.07 18.7418 127.857 18.6351 127.622 18.4645C127.494 18.3578 127.302 18.1978 127.046 17.9845C126.811 17.7711 126.577 17.5578 126.342 17.3445C126.129 17.1311 126.001 16.9711 125.958 16.8645C125.915 16.6938 126.011 16.4485 126.246 16.1285C126.481 15.8085 126.726 15.6591 126.982 15.6805C127.665 15.8298 128.475 15.9471 129.414 16.0325C130.374 16.0965 131.387 16.1391 132.454 16.1605C133.478 16.1605 134.609 16.1605 135.846 16.1605C137.083 16.1391 138.331 16.1071 139.59 16.0645C140.87 16.0218 142.075 15.9791 143.206 15.9365C144.337 15.8938 145.307 15.8511 146.118 15.8085C147.441 15.7231 148.667 15.6165 149.798 15.4885C150.95 15.3605 151.857 15.2111 152.518 15.0405C152.945 14.9338 153.233 14.9018 153.382 14.9445C153.553 14.9658 153.713 15.0938 153.862 15.3285C154.011 15.5418 154.171 15.8405 154.342 16.2245C154.513 16.5871 154.598 16.8431 154.598 16.9925C154.577 17.2271 154.417 17.4618 154.118 17.6965C153.841 17.9098 153.638 18.0165 153.51 18.0165C152.913 17.9525 152.326 17.9098 151.75 17.8885C151.195 17.8458 150.534 17.8138 149.766 17.7925C149.019 17.7711 148.049 17.7605 146.854 17.7605C145.638 17.7605 144.262 17.7818 142.726 17.8245C141.19 17.8458 139.654 17.8885 138.118 17.9525C136.582 18.0165 135.195 18.0805 133.958 18.1445C133.041 18.1871 132.198 18.2618 131.43 18.3685C130.662 18.4538 129.947 18.5605 129.286 18.6885ZM135.59 29.9845C135.27 29.9631 134.907 29.8565 134.502 29.6645C134.118 29.4938 133.787 29.1951 133.51 28.7685C133.233 28.3631 133.094 27.8085 133.094 27.1045V25.3125C133.094 24.5018 133.051 23.9471 132.966 23.6485C132.881 23.3285 132.571 23.0298 132.038 22.7525C131.633 22.5391 131.537 22.2085 131.75 21.7605C131.921 21.3978 132.145 21.1738 132.422 21.0885C132.721 21.0031 133.019 20.9818 133.318 21.0245C133.681 21.0885 134.075 21.2058 134.502 21.3765C134.929 21.5258 135.302 21.6965 135.622 21.8885C135.857 22.0378 136.049 22.1871 136.198 22.3365C136.369 22.4645 136.454 22.6138 136.454 22.7845C136.369 23.1471 136.305 23.5311 136.262 23.9365C136.219 24.3418 136.198 24.7471 136.198 25.1525V26.7845C136.198 27.2538 136.241 27.5525 136.326 27.6805C136.433 27.8085 136.646 27.8831 136.966 27.9045C137.777 27.9258 138.726 27.9365 139.814 27.9365C140.923 27.9365 142.097 27.8938 143.334 27.8085C144.678 27.7231 145.851 27.5845 146.854 27.3925C147.857 27.2005 148.518 27.0618 148.838 26.9765C149.073 26.8911 149.265 26.8805 149.414 26.9445C149.563 27.0085 149.681 27.1045 149.766 27.2325C149.937 27.4458 150.107 27.7445 150.278 28.1285C150.449 28.5125 150.534 28.7578 150.534 28.8645C150.534 29.0565 150.406 29.2805 150.15 29.5365C149.915 29.7925 149.723 29.9205 149.574 29.9205C149.297 29.8991 148.849 29.8778 148.23 29.8565C147.611 29.8351 146.907 29.8245 146.118 29.8245C145.35 29.8245 144.561 29.8351 143.75 29.8565C143.579 29.8565 143.366 29.8565 143.11 29.8565C142.875 29.8778 142.619 29.8885 142.342 29.8885C141.638 29.9098 140.849 29.9311 139.974 29.9525C139.099 29.9738 138.267 29.9845 137.478 29.9845C136.689 30.0058 136.059 30.0058 135.59 29.9845ZM169.911 16.5445C169.634 16.5445 169.41 16.4485 169.239 16.2565C169.09 16.0645 169.004 15.7018 168.983 15.1685L168.791 7.77645C168.77 7.13645 168.738 6.65645 168.695 6.33645C168.674 5.99512 168.61 5.71778 168.503 5.50445C168.396 5.29112 168.194 5.06712 167.895 4.83245C167.746 4.70445 167.639 4.56579 167.575 4.41645C167.511 4.24579 167.554 4.05379 167.703 3.84045C167.938 3.47779 168.194 3.26445 168.471 3.20045C168.748 3.11512 169.026 3.12579 169.303 3.23245C169.687 3.36045 170.092 3.54178 170.519 3.77645C170.946 3.98979 171.276 4.21379 171.511 4.44845C171.639 4.57645 171.746 4.70445 171.831 4.83245C171.916 4.96045 171.959 5.07779 171.959 5.18445C171.916 5.41912 171.874 5.72845 171.831 6.11245C171.81 6.49645 171.799 6.86979 171.799 7.23245C172.354 7.23245 173.036 7.23245 173.847 7.23245C174.679 7.21112 175.511 7.18979 176.343 7.16845C177.196 7.12579 177.932 7.08312 178.551 7.04045V6.24045C178.551 5.36578 178.508 4.76845 178.423 4.44845C178.338 4.10712 178.114 3.78712 177.751 3.48845C177.559 3.31779 177.42 3.16845 177.335 3.04045C177.271 2.89112 177.303 2.70979 177.431 2.49645C177.623 2.15512 177.858 1.94178 178.135 1.85645C178.434 1.77112 178.722 1.77112 178.999 1.85645C179.362 1.94178 179.714 2.06978 180.055 2.24045C180.396 2.41112 180.738 2.61379 181.079 2.84845C181.548 3.16845 181.783 3.45645 181.783 3.71245C181.698 4.05378 181.634 4.54445 181.591 5.18445C181.57 5.80312 181.559 6.31512 181.559 6.72045V13.6645C181.559 14.4538 181.356 15.0725 180.951 15.5205C180.546 15.9685 180.087 16.1925 179.575 16.1925C179.063 16.1925 178.754 15.8831 178.647 15.2645C178.05 15.2431 177.324 15.2431 176.471 15.2645C175.639 15.2645 174.796 15.2751 173.943 15.2965C173.09 15.2965 172.332 15.3178 171.671 15.3605C171.5 15.7658 171.244 16.0645 170.903 16.2565C170.562 16.4485 170.231 16.5445 169.911 16.5445ZM175.959 30.1445C175.468 30.1231 174.999 29.8885 174.551 29.4405C174.124 29.0138 173.911 28.3631 173.911 27.4885V25.3445C173.89 25.2165 173.772 25.0778 173.559 24.9285C173.303 24.7578 173.09 24.6085 172.919 24.4805C172.77 24.3311 172.684 24.2031 172.663 24.0965C172.684 23.9258 172.78 23.7018 172.951 23.4245C173.122 23.1258 173.314 22.9658 173.527 22.9445C174.018 23.0085 174.583 23.0618 175.223 23.1045C175.863 23.1258 176.386 23.1471 176.791 23.1685C177.218 23.1898 177.783 23.2005 178.487 23.2005C179.212 23.1791 180.002 23.1578 180.855 23.1365C181.708 23.1151 182.572 23.0831 183.447 23.0405C184.322 22.9765 185.122 22.9125 185.847 22.8485C185.89 22.4645 185.922 22.0485 185.943 21.6005C185.964 21.1525 185.975 20.7258 185.975 20.3205C185.975 20.1498 185.943 20.0538 185.879 20.0325C185.815 19.9898 185.719 19.9685 185.591 19.9685C185.356 19.9685 184.951 19.9898 184.375 20.0325C183.799 20.0538 183.148 20.0858 182.423 20.1285C181.719 20.1498 181.026 20.1818 180.343 20.2245C179.682 20.2671 179.138 20.2991 178.711 20.3205C178.498 20.3205 178.199 20.3418 177.815 20.3845C177.452 20.4058 177.068 20.4378 176.663 20.4805C176.279 20.5231 175.948 20.5765 175.671 20.6405C175.244 20.7258 174.935 20.7578 174.743 20.7365C174.551 20.7151 174.359 20.6298 174.167 20.4805C173.954 20.3098 173.687 20.0751 173.367 19.7765C173.068 19.4778 172.898 19.2858 172.855 19.2005C172.812 19.0085 172.887 18.7845 173.079 18.5285C173.271 18.2725 173.484 18.1231 173.719 18.0805C174.551 18.2511 175.5 18.3471 176.567 18.3685C177.655 18.3685 178.807 18.3578 180.023 18.3365C180.748 18.3151 181.506 18.2831 182.295 18.2405C183.106 18.1978 183.852 18.1338 184.535 18.0485C185.218 17.9631 185.719 17.8671 186.039 17.7605C186.188 17.6965 186.295 17.6645 186.359 17.6645C186.423 17.6645 186.498 17.6751 186.583 17.6965C186.647 17.7178 186.7 17.7285 186.743 17.7285L189.047 18.2085C189.388 18.2725 189.495 18.5178 189.367 18.9445C189.324 19.1151 189.239 19.4138 189.111 19.8405C188.983 20.2671 188.855 20.7365 188.727 21.2485C188.62 21.7391 188.524 22.1765 188.439 22.5605C188.674 22.6885 188.908 22.8591 189.143 23.0725C189.399 23.2645 189.527 23.4138 189.527 23.5205C189.527 23.7765 189.431 24.0538 189.239 24.3525C189.068 24.6511 188.855 24.8431 188.599 24.9285C187.916 24.9071 187.074 24.8965 186.071 24.8965C185.068 24.8965 184.012 24.9071 182.903 24.9285C181.794 24.9498 180.716 24.9818 179.671 25.0245C178.647 25.0671 177.751 25.1098 176.983 25.1525V26.9765C176.983 27.3178 177.015 27.5951 177.079 27.8085C177.164 28.0005 177.335 28.1071 177.591 28.1285C178.402 28.1711 179.362 28.1818 180.471 28.1605C181.602 28.1391 182.658 28.1178 183.639 28.0965C185.154 28.0538 186.402 27.9471 187.383 27.7765C188.364 27.6058 189.026 27.4565 189.367 27.3285C189.602 27.2218 189.794 27.2111 189.943 27.2965C190.092 27.3605 190.21 27.4565 190.295 27.5845C190.466 27.7978 190.636 28.0751 190.807 28.4165C190.978 28.7578 191.063 28.9818 191.063 29.0885C191.063 29.2591 190.935 29.4725 190.679 29.7285C190.444 29.9845 190.252 30.1125 190.103 30.1125C189.804 30.0911 189.335 30.0698 188.695 30.0485C188.076 30.0485 187.372 30.0378 186.583 30.0165C185.794 30.0165 184.994 30.0271 184.183 30.0485C184.034 30.0485 183.778 30.0485 183.415 30.0485C183.074 30.0698 182.668 30.0805 182.199 30.0805C181.516 30.1018 180.77 30.1125 179.959 30.1125C179.148 30.1338 178.38 30.1445 177.655 30.1445C176.93 30.1658 176.364 30.1658 175.959 30.1445ZM187.351 16.8645C186.946 16.8645 186.7 16.6511 186.615 16.2245C186.53 15.6698 186.466 15.0725 186.423 14.4325C186.402 13.7711 186.391 13.2485 186.391 12.8645V4.86445C186.391 4.26712 186.37 3.81912 186.327 3.52045C186.284 3.20045 186.167 2.94445 185.975 2.75245C185.804 2.56045 185.516 2.32579 185.111 2.04845C184.898 1.92045 184.738 1.77112 184.631 1.60045C184.546 1.42979 184.556 1.23779 184.663 1.02445C184.834 0.661785 185.058 0.427118 185.335 0.320452C185.612 0.213785 185.922 0.192452 186.263 0.256453C186.754 0.341785 187.255 0.512451 187.767 0.768452C188.279 1.00312 188.706 1.23778 189.047 1.47245C189.431 1.72845 189.623 1.99512 189.623 2.27245C189.58 2.54978 189.527 2.93379 189.463 3.42445C189.399 3.91512 189.367 4.40579 189.367 4.89645V9.72845C190.199 9.64312 190.946 9.51512 191.607 9.34445C192.29 9.15245 192.77 9.01379 193.047 8.92845C193.282 8.84312 193.474 8.83245 193.623 8.89645C193.772 8.93912 193.89 9.02445 193.975 9.15245C194.146 9.36579 194.316 9.66445 194.487 10.0485C194.658 10.4325 194.743 10.6991 194.743 10.8485C194.743 11.0618 194.604 11.2751 194.327 11.4885C194.071 11.7018 193.868 11.8085 193.719 11.8085C193.058 11.7018 192.343 11.6378 191.575 11.6165C190.828 11.5738 190.092 11.5525 189.367 11.5525V12.6725C189.367 13.2058 189.303 13.8031 189.175 14.4645C189.068 15.1258 188.866 15.6911 188.567 16.1605C188.268 16.6298 187.863 16.8645 187.351 16.8645ZM171.831 13.4405C172.407 13.4405 173.1 13.4405 173.911 13.4405C174.722 13.4191 175.543 13.3978 176.375 13.3765C177.207 13.3338 177.943 13.2911 178.583 13.2485L178.551 9.05645C177.996 9.05645 177.314 9.06712 176.503 9.08845C175.692 9.10979 174.86 9.13112 174.007 9.15245C173.175 9.15245 172.439 9.16312 171.799 9.18445L171.831 13.4405ZM206.037 30.1445C205.546 30.1231 205.077 29.8885 204.629 29.4405C204.202 29.0138 203.989 28.3631 203.989 27.4885V25.3445C203.967 25.2165 203.85 25.0778 203.637 24.9285C203.381 24.7578 203.167 24.6085 202.997 24.4805C202.847 24.3311 202.762 24.2031 202.741 24.0965C202.762 23.9258 202.858 23.7018 203.029 23.4245C203.199 23.1258 203.391 22.9658 203.605 22.9445C204.095 23.0085 204.661 23.0618 205.301 23.1045C205.941 23.1258 206.463 23.1471 206.869 23.1685C207.295 23.1898 207.861 23.2005 208.565 23.2005C209.29 23.1791 210.079 23.1578 210.933 23.1365C211.786 23.1151 212.65 23.0831 213.525 23.0405C214.399 22.9765 215.199 22.9125 215.925 22.8485C215.967 22.4645 215.999 22.0485 216.021 21.6005C216.042 21.1525 216.053 20.7258 216.053 20.3205C216.053 20.1498 216.021 20.0538 215.957 20.0325C215.893 19.9898 215.797 19.9685 215.669 19.9685C215.434 19.9685 215.029 19.9898 214.453 20.0325C213.877 20.0538 213.226 20.0858 212.501 20.1285C211.797 20.1498 211.103 20.1818 210.421 20.2245C209.759 20.2671 209.215 20.2991 208.789 20.3205C208.575 20.3205 208.277 20.3418 207.893 20.3845C207.53 20.4058 207.146 20.4378 206.741 20.4805C206.357 20.5231 206.026 20.5765 205.749 20.6405C205.322 20.7258 205.013 20.7578 204.821 20.7365C204.629 20.7151 204.437 20.6298 204.245 20.4805C204.031 20.3098 203.765 20.0751 203.445 19.7765C203.146 19.4778 202.975 19.2858 202.933 19.2005C202.89 19.0085 202.965 18.7845 203.157 18.5285C203.349 18.2725 203.562 18.1231 203.797 18.0805C204.629 18.2511 205.578 18.3471 206.645 18.3685C207.733 18.3685 208.885 18.3578 210.101 18.3365C210.826 18.3151 211.583 18.2831 212.373 18.2405C213.183 18.1978 213.93 18.1338 214.613 18.0485C215.295 17.9631 215.797 17.8671 216.117 17.7605C216.266 17.6965 216.373 17.6645 216.437 17.6645C216.501 17.6645 216.575 17.6751 216.661 17.6965C216.725 17.7178 216.778 17.7285 216.821 17.7285L219.125 18.2085C219.466 18.2725 219.573 18.5178 219.445 18.9445C219.402 19.1151 219.317 19.4138 219.189 19.8405C219.061 20.2671 218.933 20.7365 218.805 21.2485C218.698 21.7391 218.602 22.1765 218.517 22.5605C218.751 22.6885 218.986 22.8591 219.221 23.0725C219.477 23.2645 219.605 23.4138 219.605 23.5205C219.605 23.7765 219.509 24.0538 219.317 24.3525C219.146 24.6511 218.933 24.8431 218.677 24.9285C217.994 24.9071 217.151 24.8965 216.149 24.8965C215.146 24.8965 214.09 24.9071 212.981 24.9285C211.871 24.9498 210.794 24.9818 209.749 25.0245C208.725 25.0671 207.829 25.1098 207.061 25.1525V26.9765C207.061 27.3178 207.093 27.5951 207.157 27.8085C207.242 28.0005 207.413 28.1071 207.669 28.1285C208.479 28.1711 209.439 28.1818 210.549 28.1605C211.679 28.1391 212.735 28.1178 213.717 28.0965C215.231 28.0538 216.479 27.9471 217.461 27.7765C218.442 27.6058 219.103 27.4565 219.445 27.3285C219.679 27.2218 219.871 27.2111 220.021 27.2965C220.17 27.3605 220.287 27.4565 220.373 27.5845C220.543 27.7978 220.714 28.0751 220.885 28.4165C221.055 28.7578 221.141 28.9818 221.141 29.0885C221.141 29.2591 221.013 29.4725 220.757 29.7285C220.522 29.9845 220.33 30.1125 220.181 30.1125C219.882 30.0911 219.413 30.0698 218.773 30.0485C218.154 30.0485 217.45 30.0378 216.661 30.0165C215.871 30.0165 215.071 30.0271 214.261 30.0485C214.111 30.0485 213.855 30.0485 213.493 30.0485C213.151 30.0698 212.746 30.0805 212.277 30.0805C211.594 30.1018 210.847 30.1125 210.037 30.1125C209.226 30.1338 208.458 30.1445 207.733 30.1445C207.007 30.1658 206.442 30.1658 206.037 30.1445ZM198.549 18.5925C198.058 18.8058 197.578 18.8485 197.109 18.7205C196.661 18.5711 196.415 18.3685 196.373 18.1125C196.351 18.0058 196.362 17.8671 196.405 17.6965C196.469 17.5045 196.629 17.3445 196.885 17.2165C197.695 16.8325 198.613 16.2565 199.637 15.4885C200.661 14.7205 201.685 13.8245 202.709 12.8005C203.733 11.7765 204.65 10.6885 205.461 9.53645C206.293 8.36312 206.901 7.16845 207.285 5.95245C207.349 5.76045 207.263 5.66445 207.029 5.66445C206.559 5.68578 205.983 5.71778 205.301 5.76045C204.639 5.78179 204.117 5.81379 203.733 5.85645C203.135 5.89912 202.506 5.95245 201.845 6.01645C201.205 6.08045 200.607 6.16578 200.053 6.27245C199.647 6.35778 199.359 6.38979 199.189 6.36845C199.018 6.34712 198.815 6.22979 198.581 6.01645C198.431 5.88845 198.207 5.68579 197.909 5.40845C197.61 5.10979 197.407 4.86445 197.301 4.67245C197.258 4.48045 197.343 4.25645 197.557 4.00045C197.77 3.72312 197.962 3.58445 198.133 3.58445C198.922 3.77645 199.775 3.88312 200.693 3.90445C201.631 3.92579 202.517 3.91512 203.349 3.87245C204.33 3.82979 205.269 3.75512 206.165 3.64845C207.061 3.52045 207.658 3.37112 207.957 3.20045C208.213 3.09378 208.447 3.07245 208.661 3.13645C209.002 3.24312 209.407 3.40312 209.877 3.61645C210.346 3.80845 210.719 3.95778 210.997 4.06445C211.167 4.12845 211.285 4.22445 211.349 4.35245C211.413 4.45912 211.391 4.62978 211.285 4.86445C211.199 5.14179 211.007 5.55779 210.709 6.11245C210.431 6.66712 210.175 7.14712 209.941 7.55245C209.407 8.51245 208.746 9.52579 207.957 10.5925C207.167 11.6378 206.271 12.6725 205.269 13.6965C204.287 14.7205 203.221 15.6591 202.069 16.5125C200.938 17.3658 199.765 18.0591 198.549 18.5925ZM217.429 16.8645C217.023 16.8645 216.778 16.6511 216.693 16.2245C216.607 15.6698 216.543 15.0725 216.501 14.4325C216.479 13.7711 216.469 13.2485 216.469 12.8645V11.1685C216.191 11.1898 215.935 11.2111 215.701 11.2325C215.466 11.2538 215.274 11.2751 215.125 11.2965C214.655 11.3605 214.175 11.4351 213.685 11.5205C213.215 11.5845 212.767 11.6805 212.341 11.8085C212.063 11.8938 211.839 11.9365 211.669 11.9365C211.519 11.9365 211.349 11.9045 211.157 11.8405C211.029 11.7765 210.815 11.6591 210.517 11.4885C210.239 11.2965 209.973 11.1151 209.717 10.9445C209.482 10.7525 209.354 10.6351 209.333 10.5925C209.247 10.3578 209.311 10.0911 209.525 9.79245C209.759 9.47245 209.983 9.31245 210.197 9.31245C211.007 9.46178 211.967 9.51512 213.077 9.47245C213.397 9.47245 213.877 9.46179 214.517 9.44045C215.178 9.39779 215.829 9.35512 216.469 9.31245V4.86445C216.469 4.26712 216.447 3.81912 216.405 3.52045C216.362 3.20045 216.245 2.94445 216.053 2.75245C215.882 2.56045 215.594 2.32579 215.189 2.04845C214.975 1.92045 214.815 1.77112 214.709 1.60045C214.623 1.42979 214.634 1.23779 214.741 1.02445C214.911 0.661785 215.135 0.427118 215.413 0.320452C215.69 0.213785 215.999 0.192452 216.341 0.256453C216.831 0.341785 217.333 0.512451 217.845 0.768452C218.357 1.00312 218.783 1.23778 219.125 1.47245C219.509 1.72845 219.701 1.99512 219.701 2.27245C219.658 2.54978 219.605 2.93379 219.541 3.42445C219.477 3.91512 219.445 4.40579 219.445 4.89645V12.6725C219.445 13.2058 219.381 13.8031 219.253 14.4645C219.146 15.1258 218.943 15.6911 218.645 16.1605C218.346 16.6298 217.941 16.8645 217.429 16.8645ZM232.44 30.9445C232.163 30.9445 231.95 30.8271 231.8 30.5925C231.651 30.3791 231.555 30.1018 231.512 29.7605L231.128 24.4165C231.086 23.7551 231 23.2858 230.872 23.0085C230.766 22.7098 230.499 22.4538 230.072 22.2405C229.646 22.0058 229.496 21.6965 229.624 21.3125C229.859 20.6511 230.318 20.3525 231 20.4165C231.363 20.4591 231.747 20.5338 232.152 20.6405C232.558 20.7258 232.952 20.8325 233.336 20.9605C233.912 20.9605 234.574 20.9605 235.32 20.9605C236.067 20.9605 236.803 20.9498 237.528 20.9285C238.275 20.9071 238.915 20.8858 239.448 20.8645C240.003 20.8431 240.344 20.8325 240.472 20.8325C241.091 20.7898 241.656 20.7365 242.168 20.6725C242.702 20.5871 243.171 20.4698 243.576 20.3205C243.576 20.3205 243.587 20.3205 243.608 20.3205C243.779 20.2565 243.896 20.2245 243.96 20.2245C244.046 20.2031 244.184 20.2138 244.376 20.2565L246.68 20.7685C246.958 20.8325 247.054 21.0671 246.968 21.4725C246.926 21.6645 246.872 21.9311 246.808 22.2725C246.744 22.6138 246.68 22.9658 246.616 23.3285C246.552 23.6698 246.499 23.9578 246.456 24.1925L245.912 27.6805C246.126 27.8298 246.328 28.0005 246.52 28.1925C246.734 28.4058 246.84 28.5338 246.84 28.5765C246.84 28.8325 246.744 29.0991 246.552 29.3765C246.382 29.6751 246.168 29.8458 245.912 29.8885C245.486 29.8671 244.888 29.8458 244.12 29.8245C243.374 29.8245 242.531 29.8138 241.592 29.7925C240.654 29.7925 239.694 29.7925 238.712 29.7925C237.752 29.8138 236.856 29.8351 236.024 29.8565C235.192 29.8778 234.51 29.8991 233.976 29.9205C233.827 30.1978 233.614 30.4325 233.336 30.6245C233.059 30.8378 232.76 30.9445 232.44 30.9445ZM238.232 12.2885C236.888 12.3098 235.64 12.0965 234.488 11.6485C233.358 11.1791 232.451 10.5178 231.768 9.66445C231.086 8.78978 230.744 7.75512 230.744 6.56045C230.744 5.42979 231.086 4.43779 231.768 3.58445C232.472 2.70978 233.39 2.01645 234.52 1.50445C235.672 0.992452 236.92 0.725786 238.264 0.704453C239.651 0.661785 240.91 0.853785 242.04 1.28045C243.171 1.70712 244.078 2.34712 244.76 3.20045C245.443 4.03245 245.784 5.06712 245.784 6.30445C245.784 7.43512 245.432 8.44845 244.728 9.34445C244.046 10.2405 243.128 10.9445 241.976 11.4565C240.846 11.9685 239.598 12.2458 238.232 12.2885ZM227.192 18.2085C226.723 18.3151 226.382 18.3471 226.168 18.3045C225.976 18.2618 225.763 18.1551 225.528 17.9845C225.4 17.8778 225.208 17.7178 224.952 17.5045C224.718 17.2911 224.483 17.0778 224.248 16.8645C224.035 16.6511 223.907 16.4911 223.864 16.3845C223.822 16.2138 223.918 15.9685 224.152 15.6485C224.387 15.3285 224.632 15.1791 224.888 15.2005C225.571 15.3498 226.382 15.4671 227.32 15.5525C228.28 15.6165 229.294 15.6591 230.36 15.6805C231.384 15.6805 232.515 15.6805 233.752 15.6805C234.99 15.6591 236.238 15.6271 237.496 15.5845C238.776 15.5418 239.982 15.4991 241.112 15.4565C242.243 15.4138 243.214 15.3711 244.024 15.3285C245.347 15.2431 246.574 15.1365 247.704 15.0085C248.856 14.8805 249.763 14.7311 250.424 14.5605C250.851 14.4538 251.139 14.4218 251.288 14.4645C251.459 14.4858 251.619 14.6138 251.768 14.8485C251.918 15.0618 252.078 15.3605 252.248 15.7445C252.419 16.1071 252.504 16.3631 252.504 16.5125C252.483 16.7471 252.323 16.9818 252.024 17.2165C251.747 17.4298 251.544 17.5365 251.416 17.5365C250.819 17.4725 250.232 17.4298 249.656 17.4085C249.102 17.3658 248.44 17.3338 247.672 17.3125C246.926 17.2911 245.955 17.2805 244.76 17.2805C243.544 17.2805 242.168 17.3018 240.632 17.3445C239.096 17.3658 237.56 17.4085 236.024 17.4725C234.488 17.5365 233.102 17.6005 231.864 17.6645C230.947 17.7071 230.104 17.7818 229.336 17.8885C228.568 17.9738 227.854 18.0805 227.192 18.2085ZM238.232 10.2405C239.47 10.1978 240.483 9.83512 241.272 9.15245C242.083 8.44845 242.51 7.49912 242.552 6.30445C242.595 5.08845 242.19 4.19245 241.336 3.61645C240.504 3.04045 239.47 2.75245 238.232 2.75245C237.422 2.75245 236.686 2.92312 236.024 3.26445C235.363 3.58445 234.84 4.03245 234.456 4.60845C234.072 5.16312 233.88 5.80312 233.88 6.52845C233.88 7.76579 234.307 8.70445 235.16 9.34445C236.014 9.98445 237.038 10.2831 238.232 10.2405ZM234.264 27.8405C235.075 27.8405 235.992 27.8405 237.016 27.8405C238.04 27.8405 239.096 27.8298 240.184 27.8085C241.294 27.7658 242.328 27.7231 243.288 27.6805C243.352 26.9551 243.395 26.1551 243.416 25.2805C243.459 24.4058 243.47 23.7018 243.448 23.1685C243.448 22.9765 243.406 22.8591 243.32 22.8165C243.256 22.7525 243.16 22.7205 243.032 22.7205C242.158 22.6991 241.187 22.6991 240.12 22.7205C239.075 22.7418 238.03 22.7631 236.984 22.7845C235.96 22.8058 235.032 22.8378 234.2 22.8805L234.264 27.8405Z" fill="white"/>
</svg>
