<svg width="313" height="31" viewBox="0 0 313 31" fill="none" xmlns="http://www.w3.org/2000/svg">
<path d="M2.30404 20.8643C2.13337 20.971 1.87737 21.0563 1.53604 21.1203C1.19471 21.163 0.874706 21.1523 0.576039 21.0883C0.298706 21.0243 0.117372 20.875 0.0320391 20.6403C0.0107058 20.5336 0.0213724 20.4056 0.0640391 20.2563C0.106706 20.107 0.224039 19.9576 0.416039 19.8083C1.50404 18.9763 2.53871 17.995 3.52004 16.8643C4.52271 15.7123 5.40804 14.5283 6.17604 13.3123C6.96537 12.0963 7.59471 10.955 8.06404 9.8883C8.53337 8.8003 8.77871 7.9043 8.80004 7.2003C8.80004 6.96563 8.73604 6.7203 8.60804 6.4643C7.94671 6.5283 7.27471 6.60296 6.59204 6.6883C5.90937 6.7523 5.24804 6.83763 4.60804 6.9443C4.58671 6.9443 4.56537 6.9443 4.54404 6.9443C4.18137 7.02963 3.92537 7.0723 3.77604 7.0723C3.64804 7.05096 3.46671 6.93363 3.23204 6.72029C3.08271 6.5923 2.84804 6.35763 2.52804 6.0163C2.22937 5.67496 2.02671 5.4083 1.92004 5.2163C1.87737 5.0243 1.96271 4.8003 2.17604 4.5443C2.38937 4.26696 2.58137 4.1283 2.75204 4.1283C3.43471 4.27763 4.26671 4.36296 5.24804 4.3843C6.25071 4.40563 7.31737 4.40563 8.44804 4.3843C10.6667 4.29896 12.416 4.1603 13.696 3.9683C14.9974 3.7763 15.904 3.63763 16.416 3.5523C16.6507 3.50963 16.8214 3.50963 16.928 3.5523C17.056 3.59496 17.1627 3.6803 17.248 3.8083C17.4187 4.08563 17.5574 4.40563 17.664 4.7683C17.7707 5.13096 17.824 5.36563 17.824 5.4723C17.824 5.64296 17.696 5.84563 17.44 6.0803C17.2054 6.29363 17.0134 6.4003 16.864 6.4003C16.3094 6.35763 15.5094 6.32563 14.464 6.3043C13.4187 6.28296 12.3627 6.29363 11.296 6.3363C11.5947 6.54963 11.84 6.7843 12.032 7.0403C12.2454 7.27496 12.3307 7.47763 12.288 7.6483C12.0747 8.33096 11.8187 9.01363 11.52 9.6963C11.2427 10.3576 10.9227 11.019 10.56 11.6803C11.8614 12.7896 12.992 13.6216 13.952 14.1763C14.9334 14.7096 15.7547 15.1256 16.416 15.4243C16.736 15.6163 17.0134 15.915 17.248 16.3203C17.4827 16.7256 17.6747 17.1416 17.824 17.5683C17.9734 17.9736 18.0587 18.3256 18.08 18.6243C18.0587 18.9443 17.8347 19.2323 17.408 19.4883C17.0027 19.723 16.6187 19.7976 16.256 19.7123C15.872 19.243 15.392 18.7096 14.816 18.1123C14.24 17.515 13.632 16.907 12.992 16.2883C12.352 15.6696 11.7334 15.0936 11.136 14.5603C10.56 14.0056 10.0587 13.5576 9.63204 13.2163C8.90671 14.3683 8.10671 15.4456 7.23204 16.4483C6.37871 17.451 5.52537 18.3363 4.67204 19.1043C3.81871 19.851 3.02937 20.4376 2.30404 20.8643ZM21.344 28.8643C20.9814 28.8643 20.7467 28.5976 20.64 28.0643C20.576 27.7016 20.5227 27.2643 20.48 26.7523C20.4587 26.2403 20.448 25.739 20.448 25.2483C20.448 24.7576 20.448 24.3736 20.448 24.0963V5.1843C20.448 5.14163 20.448 5.07763 20.448 4.9923C20.448 4.24563 20.384 3.65896 20.256 3.2323C20.1494 2.80563 19.7547 2.38963 19.072 1.98429C18.944 1.89896 18.8267 1.80296 18.72 1.69629C18.6134 1.58963 18.56 1.46163 18.56 1.3123C18.56 1.07763 18.6774 0.810961 18.912 0.512295C19.1467 0.213628 19.4347 0.0642948 19.776 0.0642948C20.0107 0.0642948 20.3307 0.128295 20.736 0.256296C21.1414 0.362963 21.5574 0.512296 21.984 0.704296C22.4107 0.874962 22.7734 1.05629 23.072 1.24829C23.4774 1.5043 23.68 1.7603 23.68 2.0163C23.6587 2.29363 23.6054 2.7523 23.52 3.3923C23.456 4.01096 23.424 4.6083 23.424 5.1843L23.392 23.9363C23.392 24.3416 23.36 24.8216 23.296 25.3763C23.232 25.931 23.1147 26.475 22.944 27.0083C22.7947 27.5416 22.5814 27.979 22.304 28.3203C22.048 28.683 21.728 28.8643 21.344 28.8643ZM42.4678 30.9443C41.0385 30.9443 39.7798 30.7096 38.6918 30.2403C37.6038 29.771 36.7505 29.1096 36.1318 28.2563C35.5131 27.4243 35.2038 26.4643 35.2038 25.3763C35.2038 24.459 35.4598 23.627 35.9718 22.8803C36.4838 22.1123 37.1665 21.4616 38.0198 20.9283C38.8945 20.395 39.8758 20.043 40.9638 19.8723C40.9425 19.403 40.9211 18.923 40.8998 18.4323C40.8998 17.9203 40.8998 17.4296 40.8998 16.9603C39.9825 16.9816 39.0971 17.0136 38.2438 17.0563C37.3905 17.099 36.5905 17.1416 35.8438 17.1843C34.9265 17.227 34.0838 17.3016 33.3158 17.4083C32.5478 17.4936 31.8331 17.6003 31.1718 17.7283C30.7025 17.835 30.3611 17.867 30.1478 17.8243C29.9558 17.7816 29.7425 17.675 29.5078 17.5043C29.3798 17.3976 29.1878 17.2376 28.9318 17.0243C28.6971 16.811 28.4625 16.5976 28.2278 16.3843C28.0145 16.171 27.8865 16.011 27.8438 15.9043C27.8011 15.7336 27.8971 15.4883 28.1318 15.1683C28.3665 14.8483 28.6118 14.699 28.8678 14.7203C29.5505 14.8696 30.3611 14.987 31.2998 15.0723C32.2598 15.1363 33.2731 15.179 34.3398 15.2003C35.3638 15.2003 36.4945 15.2003 37.7318 15.2003C38.9691 15.179 40.2171 15.147 41.4758 15.1043C42.7558 15.0616 43.9611 15.019 45.0918 14.9763C46.2225 14.9336 47.1931 14.891 48.0038 14.8483C49.3265 14.763 50.5531 14.6563 51.6838 14.5283C52.8358 14.4003 53.7425 14.251 54.4038 14.0803C54.8305 13.9736 55.1185 13.9416 55.2678 13.9843C55.4385 14.0056 55.5985 14.1336 55.7478 14.3683C55.8971 14.5816 56.0571 14.8803 56.2278 15.2643C56.3985 15.627 56.4838 15.883 56.4838 16.0323C56.4625 16.267 56.3025 16.5016 56.0038 16.7363C55.7265 16.9496 55.5238 17.0563 55.3958 17.0563C54.7985 16.9923 54.2118 16.9496 53.6358 16.9283C53.0811 16.8856 52.4198 16.8536 51.6518 16.8323C50.9051 16.811 49.9345 16.8003 48.7398 16.8003C48.0785 16.8003 47.3531 16.811 46.5638 16.8323C45.7958 16.8323 44.9958 16.843 44.1638 16.8643C44.1638 17.3123 44.1425 17.803 44.0998 18.3363C44.0785 18.8483 44.0358 19.339 43.9718 19.8083C45.6998 19.979 47.1185 20.5123 48.2278 21.4083C49.3585 22.283 49.9238 23.499 49.9238 25.0563C49.9238 26.2083 49.5931 27.2216 48.9318 28.0963C48.2918 28.9923 47.4065 29.6856 46.2758 30.1763C45.1665 30.6883 43.8971 30.9443 42.4678 30.9443ZM35.5238 13.2803C35.2465 13.2803 35.0225 13.163 34.8518 12.9283C34.7025 12.6723 34.6171 12.267 34.5958 11.7123L34.4678 6.5603C34.4678 6.47496 34.4678 6.4003 34.4678 6.3363C34.4678 6.25096 34.4678 6.16563 34.4678 6.0803C34.4465 5.33363 34.3931 4.75763 34.3078 4.35229C34.2438 3.94696 33.9665 3.5523 33.4758 3.16829C33.3265 3.01896 33.2198 2.86963 33.1558 2.72029C33.0918 2.57096 33.1238 2.38963 33.2518 2.1763C33.4651 1.81363 33.7105 1.58963 33.9878 1.5043C34.2651 1.41896 34.5425 1.41896 34.8198 1.5043C35.1825 1.58963 35.5878 1.77096 36.0358 2.0483C36.5051 2.32563 36.8571 2.5603 37.0918 2.7523C37.3265 2.9443 37.4758 3.1043 37.5398 3.2323C37.6251 3.3603 37.6678 3.46696 37.6678 3.5523C37.6251 3.72296 37.5931 3.92563 37.5718 4.1603C37.5505 4.39496 37.5398 4.62963 37.5398 4.8643C38.0518 4.88563 38.7238 4.88563 39.5558 4.8643C40.4091 4.84296 41.3051 4.82163 42.2438 4.80029C43.2038 4.75763 44.1105 4.71496 44.9638 4.6723C45.8385 4.6083 46.5425 4.55496 47.0758 4.5123C47.0758 3.76563 47.0331 3.22163 46.9478 2.88029C46.8838 2.51763 46.6385 2.16563 46.2118 1.8243C46.0198 1.65363 45.8811 1.5043 45.7958 1.3763C45.7318 1.22696 45.7638 1.03496 45.8918 0.800295C46.0838 0.437629 46.3185 0.213629 46.5958 0.128296C46.8945 0.0429624 47.1825 0.0429624 47.4598 0.128296C48.1638 0.320296 48.8678 0.650963 49.5718 1.1203C50.1051 1.46163 50.3825 1.77096 50.4038 2.0483C50.3185 2.4963 50.2438 3.02963 50.1798 3.6483C50.1371 4.24563 50.1158 4.74696 50.1158 5.1523L50.0838 10.2403C50.0838 11.0296 49.8705 11.6696 49.4438 12.1603C49.0385 12.651 48.5798 12.8963 48.0678 12.8963C47.5345 12.8963 47.2145 12.5656 47.1078 11.9043C46.5745 11.9043 45.8598 11.915 44.9638 11.9363C44.0891 11.9363 43.1505 11.947 42.1478 11.9683C41.1665 11.9896 40.2385 12.011 39.3638 12.0323C38.4891 12.0536 37.7745 12.0856 37.2198 12.1283C37.0491 12.5123 36.7931 12.8003 36.4518 12.9923C36.1318 13.1843 35.8225 13.2803 35.5238 13.2803ZM42.5318 28.7363C43.7265 28.7363 44.7185 28.427 45.5078 27.8083C46.3185 27.1896 46.7238 26.3256 46.7238 25.2163C46.7238 24.1283 46.3291 23.2856 45.5398 22.6883C44.7718 22.0696 43.8225 21.7603 42.6918 21.7603C41.4545 21.7603 40.4198 22.091 39.5878 22.7523C38.7558 23.4136 38.3398 24.2776 38.3398 25.3443C38.3398 26.3896 38.7451 27.2216 39.5558 27.8403C40.3665 28.4376 41.3585 28.7363 42.5318 28.7363ZM37.4758 10.1443C38.0518 10.1443 38.7665 10.1443 39.6198 10.1443C40.4731 10.123 41.3691 10.1016 42.3078 10.0803C43.2465 10.0376 44.1425 9.99496 44.9958 9.9523C45.8491 9.90963 46.5425 9.86696 47.0758 9.8243V6.5923C46.5638 6.5923 45.8811 6.60296 45.0278 6.6243C44.1958 6.6243 43.2998 6.64563 42.3398 6.6883C41.4011 6.70963 40.4945 6.74163 39.6198 6.7843C38.7451 6.80563 38.0305 6.82696 37.4758 6.8483V10.1443ZM72.9625 11.9043C71.5972 11.9256 70.3385 11.7123 69.1865 11.2643C68.0559 10.795 67.1492 10.1336 66.4665 9.2803C65.7839 8.42696 65.4425 7.41363 65.4425 6.2403C65.4425 5.13096 65.7839 4.13896 66.4665 3.2643C67.1705 2.38963 68.0879 1.6963 69.2185 1.1843C70.3705 0.672296 71.6185 0.405629 72.9625 0.384296C74.3492 0.341629 75.6079 0.533628 76.7385 0.960295C77.8692 1.38696 78.7759 2.02696 79.4585 2.88029C80.1412 3.7123 80.4825 4.74696 80.4825 5.98429C80.4825 7.09363 80.1305 8.0963 79.4265 8.9923C78.7439 9.86696 77.8372 10.5603 76.7065 11.0723C75.5759 11.5843 74.3279 11.8616 72.9625 11.9043ZM67.8105 29.9843C67.3199 29.963 66.8505 29.7283 66.4025 29.2803C65.9759 28.8536 65.7625 28.203 65.7625 27.3283V25.5363C65.7625 25.4296 65.7412 25.355 65.6985 25.3123C65.6772 25.2483 65.6025 25.1736 65.4745 25.0883C65.1972 24.9176 64.9625 24.7576 64.7705 24.6083C64.5999 24.459 64.5039 24.331 64.4825 24.2243C64.5039 24.0536 64.5892 23.8296 64.7385 23.5523C64.8879 23.275 65.0692 23.1256 65.2825 23.1043C65.7732 23.1896 66.3492 23.2536 67.0105 23.2963C67.6932 23.339 68.2372 23.3603 68.6425 23.3603C69.0479 23.3603 69.6132 23.3603 70.3385 23.3603C71.0639 23.3603 71.8639 23.3496 72.7385 23.3283C73.6345 23.2856 74.5305 23.2536 75.4265 23.2323C76.3225 23.1896 77.1332 23.1363 77.8585 23.0723C77.8799 22.731 77.9012 22.379 77.9225 22.0163C77.9439 21.6536 77.9545 21.3016 77.9545 20.9603C77.9545 20.7896 77.9225 20.6936 77.8585 20.6723C77.7945 20.6296 77.6985 20.6083 77.5705 20.6083C77.3359 20.6083 76.9199 20.619 76.3225 20.6403C75.7465 20.6616 75.0852 20.6936 74.3385 20.7363C73.5919 20.779 72.8665 20.8216 72.1625 20.8643C71.4799 20.8856 70.9252 20.907 70.4985 20.9283C70.2852 20.9283 69.9865 20.9496 69.6025 20.9923C69.2185 21.0136 68.8239 21.0456 68.4185 21.0883C68.0345 21.131 67.7039 21.1843 67.4265 21.2483C66.9999 21.3336 66.6905 21.355 66.4985 21.3123C66.3065 21.2696 66.1145 21.1736 65.9225 21.0243C65.7305 20.8536 65.4852 20.6296 65.1865 20.3523C64.9092 20.075 64.7492 19.8936 64.7065 19.8083C64.6639 19.6163 64.7385 19.3923 64.9305 19.1363C65.1225 18.8803 65.3359 18.731 65.5705 18.6883C66.4025 18.859 67.3305 18.9656 68.3545 19.0083C69.3999 19.0296 70.5305 19.0296 71.7465 19.0083C72.1305 19.0083 72.6212 18.9976 73.2185 18.9763C73.8159 18.9336 74.4345 18.891 75.0745 18.8483C75.7359 18.7843 76.3332 18.7203 76.8665 18.6563C77.3999 18.571 77.7945 18.4856 78.0505 18.4003C78.2212 18.3363 78.3385 18.3043 78.4025 18.3043C78.4879 18.283 78.6052 18.2936 78.7545 18.3363L81.0585 18.8163C81.3999 18.8803 81.5065 19.1256 81.3785 19.5523C81.2932 19.8083 81.1652 20.267 80.9945 20.9283C80.8239 21.5896 80.6639 22.219 80.5145 22.8163C80.7492 22.9443 80.9732 23.0936 81.1865 23.2643C81.3999 23.435 81.5065 23.5736 81.5065 23.6803C81.5065 23.9363 81.4105 24.2136 81.2185 24.5123C81.0479 24.811 80.8345 25.003 80.5785 25.0883C79.8959 25.067 79.0425 25.0563 78.0185 25.0563C77.0159 25.0563 75.9492 25.067 74.8185 25.0883C73.7092 25.1096 72.6212 25.1416 71.5545 25.1843C70.5092 25.227 69.6025 25.2696 68.8345 25.3123V26.8163C68.8345 27.1576 68.8665 27.435 68.9305 27.6483C69.0159 27.8403 69.1865 27.947 69.4425 27.9683C70.2532 28.011 71.2132 28.0216 72.3225 28.0003C73.4319 28.0003 74.4772 27.9896 75.4585 27.9683C76.9732 27.9256 78.2425 27.819 79.2665 27.6483C80.3119 27.4776 81.0052 27.3283 81.3465 27.2003C81.5812 27.0936 81.7732 27.083 81.9225 27.1683C82.0719 27.2323 82.1892 27.3283 82.2745 27.4563C82.4452 27.6696 82.6159 27.9256 82.7865 28.2243C82.9572 28.5443 83.0425 28.7683 83.0425 28.8963C83.0425 29.067 82.9145 29.2803 82.6585 29.5363C82.4239 29.7923 82.2319 29.9203 82.0825 29.9203C81.7839 29.899 81.3039 29.8776 80.6425 29.8563C79.9812 29.8563 79.2452 29.8563 78.4345 29.8563C77.6239 29.8563 76.8132 29.867 76.0025 29.8883C75.7465 29.8883 75.2665 29.899 74.5625 29.9203C73.8799 29.9416 73.0905 29.9523 72.1945 29.9523C71.3199 29.9736 70.4772 29.9843 69.6665 29.9843C68.8772 30.0056 68.2585 30.0056 67.8105 29.9843ZM61.8905 16.9283C61.4212 17.035 61.0799 17.067 60.8665 17.0243C60.6745 16.9816 60.4612 16.875 60.2265 16.7043C60.0985 16.5976 59.9065 16.4376 59.6505 16.2243C59.4159 16.011 59.1812 15.7976 58.9465 15.5843C58.7332 15.371 58.6052 15.211 58.5625 15.1043C58.5199 14.9336 58.6159 14.6883 58.8505 14.3683C59.0852 14.0483 59.3305 13.899 59.5865 13.9203C60.2692 14.0696 61.0799 14.187 62.0185 14.2723C62.9785 14.3363 63.9919 14.379 65.0585 14.4003C66.0825 14.4003 67.2132 14.4003 68.4505 14.4003C69.6879 14.379 70.9359 14.347 72.1945 14.3043C73.4745 14.2616 74.6799 14.219 75.8105 14.1763C76.9412 14.1336 77.9119 14.091 78.7225 14.0483C80.0452 13.963 81.2719 13.8563 82.4025 13.7283C83.5545 13.6003 84.4612 13.451 85.1225 13.2803C85.5492 13.1736 85.8372 13.1416 85.9865 13.1843C86.1572 13.2056 86.3172 13.3336 86.4665 13.5683C86.6159 13.7816 86.7759 14.0803 86.9465 14.4643C87.1172 14.827 87.2025 15.083 87.2025 15.2323C87.1812 15.467 87.0212 15.7016 86.7225 15.9363C86.4452 16.1496 86.2425 16.2563 86.1145 16.2563C85.5172 16.1923 84.9305 16.1496 84.3545 16.1283C83.7999 16.0856 83.1385 16.0536 82.3705 16.0323C81.6239 16.011 80.6532 16.0003 79.4585 16.0003C78.2425 16.0003 76.8665 16.0216 75.3305 16.0643C73.7945 16.0856 72.2585 16.1283 70.7225 16.1923C69.1865 16.2563 67.7999 16.3203 66.5625 16.3843C65.6452 16.427 64.8025 16.5016 64.0345 16.6083C63.2665 16.6936 62.5519 16.8003 61.8905 16.9283ZM72.9625 9.8563C74.1785 9.7923 75.1812 9.41896 75.9705 8.7363C76.7812 8.05363 77.2079 7.1363 77.2505 5.98429C77.2932 4.78963 76.8879 3.9043 76.0345 3.3283C75.2025 2.73096 74.1785 2.43229 72.9625 2.43229C72.1519 2.43229 71.4052 2.60296 70.7225 2.9443C70.0612 3.2643 69.5385 3.7123 69.1545 4.2883C68.7705 4.8643 68.5785 5.5043 68.5785 6.2083C68.5785 7.38163 69.0052 8.29896 69.8585 8.9603C70.7119 9.6003 71.7465 9.89896 72.9625 9.8563ZM113.492 29.1843C113.065 29.1843 112.798 28.9283 112.692 28.4163C112.585 27.8616 112.521 27.2643 112.5 26.6243C112.478 25.963 112.468 25.4403 112.468 25.0563V17.6963C111.55 17.7176 110.644 17.7603 109.748 17.8243C108.852 17.867 107.966 17.9096 107.092 17.9523C106.174 17.995 105.332 18.0696 104.564 18.1763C103.796 18.2616 103.081 18.3683 102.42 18.4963C101.95 18.603 101.609 18.635 101.396 18.5923C101.204 18.5496 100.99 18.443 100.756 18.2723C100.628 18.1656 100.446 18.0056 100.212 17.7923C99.9769 17.579 99.7529 17.3656 99.5395 17.1523C99.3475 16.9176 99.2302 16.747 99.1875 16.6403C99.1449 16.4696 99.2409 16.2243 99.4755 15.9043C99.7102 15.5843 99.9555 15.435 100.212 15.4563C100.894 15.6056 101.705 15.723 102.644 15.8083C103.604 15.8723 104.617 15.915 105.684 15.9363C106.708 15.9363 107.838 15.9363 109.076 15.9363C110.313 15.915 111.561 15.883 112.82 15.8403C114.1 15.7976 115.305 15.755 116.436 15.7123C117.588 15.6696 118.569 15.627 119.38 15.5843C120.702 15.499 121.897 15.3923 122.964 15.2643C124.052 15.1363 124.926 14.987 125.588 14.8163C126.014 14.7096 126.302 14.6776 126.452 14.7203C126.622 14.7416 126.782 14.8696 126.932 15.1043C127.081 15.3176 127.241 15.6163 127.412 16.0003C127.582 16.363 127.668 16.619 127.668 16.7683C127.646 17.003 127.486 17.2376 127.188 17.4723C126.91 17.6856 126.708 17.7923 126.58 17.7923C125.982 17.7283 125.396 17.6856 124.82 17.6643C124.265 17.6216 123.604 17.5896 122.836 17.5683C122.089 17.547 121.118 17.5363 119.924 17.5363C119.22 17.5363 118.494 17.547 117.748 17.5683C117.022 17.5683 116.276 17.579 115.508 17.6003V24.8963C115.508 25.4296 115.454 26.0376 115.348 26.7203C115.241 27.3816 115.038 27.9576 114.74 28.4483C114.462 28.939 114.046 29.1843 113.492 29.1843ZM107.092 12.1283C106.601 12.1283 106.196 11.8936 105.876 11.4243C105.556 10.955 105.396 10.1763 105.396 9.0883V5.9203C105.396 5.23763 105.332 4.77896 105.204 4.5443C105.097 4.2883 104.798 4.02163 104.308 3.7443C103.838 3.4883 103.678 3.1683 103.828 2.7843C103.998 2.35763 104.222 2.10163 104.5 2.0163C104.798 1.93096 105.108 1.90963 105.428 1.9523C105.726 1.99496 106.089 2.06963 106.516 2.1763C106.942 2.26163 107.326 2.35763 107.668 2.4643C108.606 2.48563 109.737 2.47496 111.06 2.43229C112.404 2.3683 113.79 2.29363 115.22 2.2083C116.734 2.10163 117.886 1.9843 118.676 1.8563C119.486 1.70696 120.052 1.57896 120.372 1.4723C120.606 1.38696 120.798 1.3763 120.948 1.4403C121.097 1.5043 121.214 1.6003 121.3 1.7283C121.47 1.96296 121.652 2.2403 121.844 2.5603C122.036 2.8803 122.132 3.09363 122.132 3.2003C122.132 3.37096 122.004 3.5843 121.748 3.8403C121.513 4.0963 121.321 4.2243 121.172 4.2243C120.766 4.18163 120.062 4.1603 119.06 4.1603C118.078 4.13896 116.99 4.13896 115.796 4.1603C114.345 4.18163 112.969 4.2243 111.668 4.2883C110.366 4.33096 109.31 4.37363 108.5 4.4163V8.8003C108.5 9.39763 108.553 9.7603 108.66 9.8883C108.788 10.0163 109.065 10.0803 109.492 10.0803C110.302 10.0803 111.156 10.0696 112.052 10.0483C112.969 10.027 114.046 9.99496 115.284 9.9523C116.798 9.8883 117.993 9.78163 118.868 9.6323C119.764 9.46163 120.372 9.33363 120.692 9.2483C120.926 9.16296 121.118 9.1523 121.268 9.2163C121.417 9.2803 121.534 9.3763 121.62 9.5043C121.79 9.71763 121.961 9.9843 122.132 10.3043C122.302 10.6243 122.388 10.8376 122.388 10.9443C122.388 11.115 122.26 11.3283 122.004 11.5843C121.769 11.8403 121.577 11.9683 121.428 11.9683C121.022 11.9256 120.286 11.9043 119.22 11.9043C118.174 11.883 117.054 11.883 115.86 11.9043C115.668 11.9043 115.294 11.915 114.74 11.9363C114.206 11.9363 113.577 11.947 112.852 11.9683C112.148 11.9896 111.412 12.0216 110.644 12.0643C109.897 12.0856 109.204 12.107 108.564 12.1283C107.945 12.1283 107.454 12.1283 107.092 12.1283ZM136.41 15.5843C135.919 15.5843 135.482 15.3283 135.098 14.8163C134.735 14.283 134.554 13.4723 134.554 12.3843V7.3603C134.554 6.67763 134.479 6.18696 134.33 5.8883C134.202 5.58963 133.892 5.30163 133.402 5.0243C132.954 4.7683 132.804 4.45896 132.954 4.0963C133.124 3.66963 133.348 3.41363 133.626 3.3283C133.903 3.22163 134.202 3.18963 134.522 3.2323C134.884 3.27496 135.332 3.37096 135.866 3.5203C136.399 3.6483 136.847 3.76563 137.21 3.8723C138.17 3.89363 139.322 3.88296 140.666 3.8403C142.01 3.79763 143.364 3.73363 144.73 3.6483C146.244 3.54163 147.407 3.4243 148.218 3.2963C149.028 3.1683 149.594 3.05096 149.914 2.9443C150.148 2.85896 150.34 2.8483 150.49 2.9123C150.639 2.9763 150.756 3.0723 150.842 3.2003C151.012 3.41363 151.194 3.6803 151.386 4.0003C151.578 4.3203 151.674 4.53363 151.674 4.6403C151.674 4.81096 151.546 5.0243 151.29 5.2803C151.055 5.5363 150.863 5.6643 150.714 5.6643C150.308 5.62163 149.604 5.6003 148.602 5.6003C147.599 5.57896 146.5 5.57896 145.306 5.6003C143.834 5.62163 142.404 5.6643 141.018 5.7283C139.631 5.7923 138.511 5.84563 137.658 5.8883V12.0963C137.658 12.6936 137.743 13.0883 137.914 13.2803C138.084 13.4723 138.383 13.5576 138.81 13.5363C139.343 13.515 139.866 13.5043 140.378 13.5043C140.89 13.5043 141.498 13.4936 142.202 13.4723C142.906 13.451 143.791 13.4083 144.858 13.3443C146.372 13.259 147.578 13.1416 148.474 12.9923C149.37 12.8216 149.978 12.6936 150.298 12.6083C150.532 12.523 150.724 12.5123 150.874 12.5763C151.023 12.6403 151.14 12.7363 151.226 12.8643C151.396 13.0776 151.567 13.3656 151.738 13.7283C151.908 14.0696 151.994 14.2936 151.994 14.4003C151.994 14.571 151.866 14.7843 151.61 15.0403C151.375 15.2963 151.183 15.4243 151.034 15.4243C150.628 15.3816 149.892 15.3603 148.826 15.3603C147.759 15.339 146.628 15.339 145.434 15.3603C145.242 15.3603 144.858 15.371 144.282 15.3923C143.727 15.3923 143.076 15.403 142.33 15.4243C141.604 15.4456 140.847 15.4776 140.058 15.5203C139.29 15.5416 138.575 15.563 137.914 15.5843C137.274 15.5843 136.772 15.5843 136.41 15.5843ZM131.962 24.8643C131.663 24.8643 131.364 24.7576 131.066 24.5443C130.724 24.331 130.351 24.043 129.946 23.6803C129.562 23.2963 129.348 23.0296 129.306 22.8803C129.242 22.6883 129.327 22.4323 129.562 22.1123C129.796 21.771 130.052 21.6216 130.33 21.6643C131.012 21.8136 131.876 21.9416 132.922 22.0483C133.988 22.1336 135.236 22.1763 136.666 22.1763C137.178 22.1763 137.839 22.1763 138.65 22.1763C139.482 22.155 140.378 22.1336 141.338 22.1123C142.319 22.091 143.279 22.0696 144.218 22.0483C145.178 22.027 146.063 22.0056 146.874 21.9843C147.684 21.9416 148.335 21.9096 148.826 21.8883C150.148 21.803 151.343 21.6963 152.41 21.5683C153.498 21.419 154.372 21.259 155.034 21.0883C155.311 21.003 155.546 20.9603 155.738 20.9603C155.972 20.9603 156.186 21.099 156.378 21.3763C156.527 21.611 156.687 21.9203 156.858 22.3043C157.028 22.6883 157.114 22.955 157.114 23.1043C157.114 23.339 156.964 23.5736 156.666 23.8083C156.367 24.0216 156.154 24.1283 156.026 24.1283C155.514 24.0643 154.874 24.0216 154.106 24.0003C153.338 23.9576 152.538 23.9363 151.706 23.9363C150.895 23.915 150.116 23.9043 149.37 23.9043C147.535 23.9256 145.53 23.9683 143.354 24.0323C141.178 24.075 138.948 24.139 136.666 24.2243C136.324 24.2456 135.866 24.2883 135.29 24.3523C134.735 24.4163 134.191 24.491 133.658 24.5763C133.146 24.6403 132.762 24.7043 132.506 24.7683C132.292 24.8323 132.111 24.8643 131.962 24.8643ZM163.391 21.5043C162.772 21.4616 162.292 21.1736 161.951 20.6403C161.631 20.107 161.471 19.4776 161.471 18.7523V13.5043C161.449 13.3123 161.3 13.131 161.023 12.9603C160.788 12.8323 160.532 12.6723 160.255 12.4803C159.999 12.2883 159.86 12.139 159.839 12.0323C159.817 11.7976 159.881 11.531 160.031 11.2323C160.201 10.9336 160.404 10.7736 160.639 10.7523C161.001 10.7736 161.385 10.8056 161.791 10.8483C162.217 10.891 162.633 10.923 163.039 10.9443C164.191 10.9656 165.343 10.955 166.495 10.9123C167.668 10.8483 168.841 10.7523 170.015 10.6243C170.057 10.2616 170.1 9.7923 170.143 9.2163C170.207 8.61896 170.26 8.04296 170.303 7.4883C170.367 6.93363 170.399 6.5283 170.399 6.27229C170.399 6.08029 170.356 5.96296 170.271 5.9203C170.207 5.8563 170.111 5.8243 169.983 5.8243C169.513 5.8243 168.852 5.84563 167.999 5.8883C167.145 5.93096 166.281 5.99496 165.407 6.0803C165.087 6.10163 164.735 6.1443 164.351 6.2083C163.967 6.25096 163.572 6.32563 163.167 6.4323C162.74 6.51763 162.441 6.54963 162.271 6.5283C162.121 6.50696 161.951 6.42163 161.759 6.27229C161.609 6.16563 161.428 6.00563 161.215 5.7923C161.001 5.57896 160.809 5.3763 160.639 5.1843C160.489 4.97096 160.404 4.8323 160.383 4.7683C160.361 4.61896 160.436 4.43763 160.607 4.2243C160.777 3.98963 160.98 3.85096 161.215 3.8083C162.047 3.95763 162.879 4.04296 163.711 4.06429C164.564 4.08563 165.417 4.08563 166.271 4.06429C167.039 4.02163 167.817 3.97896 168.607 3.9363C169.396 3.8723 170.089 3.73363 170.687 3.5203C170.857 3.4563 170.996 3.4243 171.103 3.4243C171.209 3.40296 171.359 3.4243 171.551 3.4883L173.695 4.1283C174.015 4.27763 174.121 4.53363 174.015 4.8963C173.929 5.17363 173.833 5.49363 173.727 5.8563C173.62 6.19763 173.524 6.53896 173.439 6.8803L172.543 10.4003C172.756 10.5496 172.991 10.763 173.247 11.0403C173.524 11.3176 173.663 11.4776 173.663 11.5203C173.663 11.7976 173.567 12.075 173.375 12.3523C173.183 12.6296 172.959 12.7896 172.703 12.8323C172.041 12.7896 171.231 12.779 170.271 12.8003C169.311 12.8216 168.319 12.8536 167.295 12.8963C166.271 12.9176 165.343 12.9603 164.511 13.0243V17.7923C164.511 18.1763 164.575 18.4323 164.703 18.5603C164.852 18.667 165.044 18.7203 165.279 18.7203C166.388 18.7203 167.508 18.6456 168.639 18.4963C169.769 18.347 170.847 18.155 171.871 17.9203C172.895 17.6856 173.791 17.451 174.559 17.2163C175.327 16.9603 175.881 16.7576 176.223 16.6083C176.585 16.4376 176.863 16.4056 177.055 16.5123C177.247 16.619 177.343 16.779 177.343 16.9923C177.364 17.6323 176.756 18.2296 175.519 18.7843C174.921 19.0403 174.132 19.3283 173.151 19.6483C172.191 19.947 171.135 20.235 169.983 20.5123C168.831 20.7896 167.679 21.0243 166.527 21.2163C165.375 21.387 164.329 21.483 163.391 21.5043ZM179.743 28.8643C179.38 28.8643 179.145 28.5976 179.039 28.0643C178.975 27.7016 178.921 27.2643 178.879 26.7523C178.857 26.2403 178.847 25.739 178.847 25.2483C178.847 24.7576 178.847 24.3736 178.847 24.0963V5.1843C178.847 5.14163 178.847 5.07763 178.847 4.9923C178.847 4.24563 178.783 3.65896 178.655 3.2323C178.548 2.80563 178.153 2.38963 177.471 1.98429C177.343 1.89896 177.225 1.80296 177.119 1.69629C177.012 1.58963 176.959 1.46163 176.959 1.3123C176.959 1.07763 177.076 0.810961 177.311 0.512295C177.545 0.213628 177.833 0.0642948 178.175 0.0642948C178.409 0.0642948 178.729 0.128295 179.135 0.256296C179.54 0.362963 179.956 0.512296 180.383 0.704296C180.809 0.874962 181.172 1.05629 181.471 1.24829C181.876 1.5043 182.079 1.7603 182.079 2.0163C182.057 2.29363 182.004 2.7523 181.919 3.3923C181.855 4.01096 181.823 4.6083 181.823 5.1843L181.791 23.9363C181.791 24.3416 181.759 24.8216 181.695 25.3763C181.631 25.931 181.513 26.475 181.343 27.0083C181.193 27.5416 180.98 27.979 180.703 28.3203C180.447 28.683 180.127 28.8643 179.743 28.8643ZM194.378 11.4883C193.887 11.4883 193.45 11.2643 193.066 10.8163C192.703 10.3683 192.522 9.58963 192.522 8.4803V6.4003C192.522 5.78163 192.501 5.29096 192.458 4.9283C192.437 4.56563 192.341 4.26696 192.17 4.0323C192.021 3.7763 191.754 3.53096 191.37 3.2963C190.986 3.0403 190.89 2.69896 191.082 2.27229C191.253 1.93096 191.477 1.70696 191.754 1.6003C192.053 1.4723 192.351 1.45096 192.65 1.53629C193.013 1.62163 193.418 1.77096 193.866 1.98429C194.314 2.17629 194.698 2.38963 195.018 2.6243C195.253 2.79496 195.455 2.96563 195.626 3.1363C195.818 3.30696 195.903 3.47763 195.882 3.6483C195.797 4.01096 195.733 4.43763 195.69 4.9283C195.669 5.39763 195.658 5.83496 195.658 6.2403V8.1923C195.658 8.78963 195.711 9.1523 195.818 9.2803C195.946 9.4083 196.223 9.4723 196.65 9.4723C197.461 9.4723 198.303 9.46163 199.178 9.4403C200.053 9.39763 201.215 9.33363 202.666 9.2483C204.181 9.16296 205.407 9.03496 206.346 8.8643C207.306 8.6723 207.946 8.52296 208.266 8.4163C208.501 8.33096 208.693 8.3203 208.842 8.3843C208.991 8.4483 209.109 8.55496 209.194 8.7043C209.365 8.91763 209.535 9.20563 209.706 9.5683C209.877 9.90963 209.962 10.1336 209.962 10.2403C209.962 10.411 209.834 10.6243 209.578 10.8803C209.343 11.1363 209.151 11.2643 209.002 11.2643C208.725 11.243 208.277 11.2323 207.658 11.2323C207.061 11.211 206.378 11.2003 205.61 11.2003C204.842 11.2003 204.053 11.211 203.242 11.2323C203.05 11.2323 202.677 11.243 202.122 11.2643C201.589 11.2856 200.949 11.307 200.202 11.3283C199.477 11.3496 198.73 11.371 197.962 11.3923C197.215 11.4136 196.522 11.435 195.882 11.4563C195.242 11.4776 194.741 11.4883 194.378 11.4883ZM189.578 18.5283C189.109 18.635 188.767 18.667 188.554 18.6243C188.362 18.5816 188.149 18.475 187.914 18.3043C187.786 18.1976 187.594 18.0376 187.338 17.8243C187.103 17.611 186.869 17.3976 186.634 17.1843C186.421 16.971 186.293 16.811 186.25 16.7043C186.207 16.5336 186.303 16.2883 186.538 15.9683C186.773 15.6483 187.018 15.499 187.274 15.5203C187.957 15.6696 188.767 15.787 189.706 15.8723C190.666 15.9363 191.679 15.979 192.746 16.0003C193.77 16.0003 194.901 16.0003 196.138 16.0003C197.375 15.979 198.623 15.947 199.882 15.9043C201.162 15.8616 202.367 15.819 203.498 15.7763C204.629 15.7336 205.599 15.691 206.41 15.6483C207.733 15.563 208.959 15.4563 210.09 15.3283C211.242 15.2003 212.149 15.051 212.81 14.8803C213.237 14.7736 213.525 14.7416 213.674 14.7843C213.845 14.8056 214.005 14.9336 214.154 15.1683C214.303 15.3816 214.463 15.6803 214.634 16.0643C214.805 16.427 214.89 16.683 214.89 16.8323C214.869 17.067 214.709 17.3016 214.41 17.5363C214.133 17.7496 213.93 17.8563 213.802 17.8563C213.205 17.7923 212.618 17.7496 212.042 17.7283C211.487 17.6856 210.826 17.6536 210.058 17.6323C209.311 17.611 208.341 17.6003 207.146 17.6003C205.93 17.6003 204.554 17.6216 203.018 17.6643C201.482 17.6856 199.946 17.7283 198.41 17.7923C196.874 17.8563 195.487 17.9203 194.25 17.9843C193.333 18.027 192.49 18.1016 191.722 18.2083C190.954 18.2936 190.239 18.4003 189.578 18.5283ZM195.882 29.8243C195.562 29.803 195.199 29.6963 194.794 29.5043C194.41 29.3336 194.079 29.035 193.802 28.6083C193.525 28.203 193.386 27.6483 193.386 26.9443V25.1523C193.386 24.3416 193.343 23.787 193.258 23.4883C193.173 23.1683 192.863 22.8696 192.33 22.5923C191.925 22.379 191.829 22.0483 192.042 21.6003C192.213 21.2376 192.437 21.0136 192.714 20.9283C193.013 20.843 193.311 20.8216 193.61 20.8643C193.973 20.9283 194.367 21.0456 194.794 21.2163C195.221 21.3656 195.594 21.5363 195.914 21.7283C196.149 21.8776 196.341 22.027 196.49 22.1763C196.661 22.3043 196.746 22.4536 196.746 22.6243C196.661 22.987 196.597 23.371 196.554 23.7763C196.511 24.1816 196.49 24.587 196.49 24.9923V26.6243C196.49 27.0936 196.533 27.3923 196.618 27.5203C196.725 27.6483 196.938 27.723 197.258 27.7443C198.069 27.7656 199.018 27.7763 200.106 27.7763C201.215 27.7763 202.389 27.7336 203.626 27.6483C204.97 27.563 206.143 27.4243 207.146 27.2323C208.149 27.0403 208.81 26.9016 209.13 26.8163C209.365 26.731 209.557 26.7203 209.706 26.7843C209.855 26.8483 209.973 26.9443 210.058 27.0723C210.229 27.2856 210.399 27.5843 210.57 27.9683C210.741 28.3523 210.826 28.5976 210.826 28.7043C210.826 28.8963 210.698 29.1203 210.442 29.3763C210.207 29.6323 210.015 29.7603 209.866 29.7603C209.589 29.739 209.141 29.7176 208.522 29.6963C207.903 29.675 207.199 29.6643 206.41 29.6643C205.642 29.6643 204.853 29.675 204.042 29.6963C203.871 29.6963 203.658 29.6963 203.402 29.6963C203.167 29.7176 202.911 29.7283 202.634 29.7283C201.93 29.7496 201.141 29.771 200.266 29.7923C199.391 29.8136 198.559 29.8243 197.77 29.8243C196.981 29.8456 196.351 29.8456 195.882 29.8243ZM230.203 17.1843C229.926 17.1843 229.702 17.0883 229.531 16.8963C229.382 16.7043 229.296 16.3416 229.275 15.8083L229.083 8.2563C229.062 7.6163 229.03 7.1363 228.987 6.8163C228.966 6.47496 228.902 6.19763 228.795 5.98429C228.688 5.77096 228.486 5.54696 228.187 5.3123C228.038 5.1843 227.931 5.04563 227.867 4.8963C227.803 4.72563 227.846 4.53363 227.995 4.3203C228.23 3.95763 228.486 3.7443 228.763 3.6803C229.04 3.59496 229.318 3.60563 229.595 3.7123C229.979 3.8403 230.384 4.02163 230.811 4.2563C231.238 4.46963 231.568 4.69363 231.803 4.9283C231.931 5.0563 232.038 5.1843 232.123 5.3123C232.208 5.4403 232.251 5.55763 232.251 5.6643C232.208 5.89896 232.166 6.21896 232.123 6.6243C232.102 7.0083 232.091 7.3923 232.091 7.7763C232.646 7.7763 233.35 7.7763 234.203 7.7763C235.056 7.75496 235.91 7.73363 236.763 7.7123C237.638 7.66963 238.384 7.62696 239.003 7.5843V6.72029C239.003 5.84563 238.96 5.2483 238.875 4.9283C238.79 4.58696 238.566 4.26696 238.203 3.9683C238.011 3.79763 237.872 3.6483 237.787 3.5203C237.723 3.37096 237.755 3.18963 237.883 2.9763C238.075 2.63496 238.31 2.42163 238.587 2.3363C238.886 2.25096 239.174 2.25096 239.451 2.3363C239.814 2.42163 240.166 2.54963 240.507 2.72029C240.848 2.89096 241.19 3.09363 241.531 3.3283C242 3.6483 242.235 3.9363 242.235 4.1923C242.15 4.53363 242.086 5.0243 242.043 5.6643C242.022 6.28296 242.011 6.79496 242.011 7.2003V14.3043C242.011 15.0936 241.808 15.7123 241.403 16.1603C240.998 16.6083 240.539 16.8323 240.027 16.8323C239.515 16.8323 239.206 16.523 239.099 15.9043C238.502 15.883 237.766 15.883 236.891 15.9043C236.016 15.9043 235.142 15.915 234.267 15.9363C233.392 15.9363 232.624 15.9576 231.963 16.0003C231.792 16.4056 231.536 16.7043 231.195 16.8963C230.854 17.0883 230.523 17.1843 230.203 17.1843ZM232.923 30.6883C231.899 30.9016 231.323 30.7523 231.195 30.2403C231.174 30.0696 231.206 29.9203 231.291 29.7923C231.398 29.6643 231.515 29.5683 231.643 29.5043C232.816 28.907 233.947 28.203 235.035 27.3923C236.144 26.5816 237.147 25.7176 238.043 24.8003C238.96 23.8616 239.707 22.9443 240.283 22.0483C240.582 21.579 240.784 21.0883 240.891 20.5763C241.019 20.0643 240.902 19.6483 240.539 19.3283C240.347 19.1576 240.219 18.987 240.155 18.8163C240.091 18.6456 240.112 18.4536 240.219 18.2403C240.454 17.8136 240.72 17.579 241.019 17.5363C241.318 17.4723 241.616 17.4936 241.915 17.6003C242.128 17.6643 242.406 17.803 242.747 18.0163C243.088 18.2296 243.419 18.4643 243.739 18.7203C244.059 18.955 244.304 19.1683 244.475 19.3603C244.816 19.7443 244.923 20.0643 244.795 20.3203C244.688 20.427 244.507 20.683 244.251 21.0883C244.016 21.4723 243.728 21.9203 243.387 22.4323C245.734 24.1176 247.888 25.2163 249.851 25.7283C250.171 25.899 250.47 26.2083 250.747 26.6563C251.024 27.1043 251.248 27.5736 251.419 28.0643C251.611 28.555 251.696 28.9603 251.675 29.2803C251.654 29.4936 251.536 29.675 251.323 29.8243C251.11 29.995 250.875 30.1123 250.619 30.1763C250.363 30.2616 250.16 30.283 250.011 30.2403C249.328 29.5576 248.528 28.8323 247.611 28.0643C246.694 27.3176 245.766 26.5816 244.827 25.8563C243.91 25.131 243.067 24.491 242.299 23.9363C241.211 25.3016 240.091 26.4643 238.939 27.4243C237.787 28.363 236.688 29.099 235.643 29.6323C234.598 30.1656 233.691 30.5176 232.923 30.6883ZM248.283 20.5443C247.899 20.5443 247.654 20.331 247.547 19.9043C247.44 19.4136 247.376 18.8696 247.355 18.2723C247.334 17.6536 247.323 17.1416 247.323 16.7363C247.323 16.6296 247.323 16.555 247.323 16.5123V4.7043C247.323 4.10696 247.302 3.65896 247.259 3.3603C247.216 3.0403 247.099 2.7843 246.907 2.5923C246.736 2.4003 246.448 2.16563 246.043 1.8883C245.83 1.7603 245.67 1.61096 245.563 1.4403C245.478 1.26963 245.488 1.07763 245.595 0.864296C245.766 0.501629 245.99 0.266962 246.267 0.160295C246.544 0.0536289 246.854 0.0322959 247.195 0.0962963C247.686 0.181629 248.187 0.352295 248.699 0.608295C249.211 0.842962 249.638 1.07763 249.979 1.3123C250.363 1.5683 250.555 1.83496 250.555 2.1123C250.512 2.38963 250.459 2.77363 250.395 3.2643C250.331 3.75496 250.299 4.24563 250.299 4.7363V16.3523C250.299 16.8856 250.235 17.483 250.107 18.1443C250 18.7843 249.798 19.3496 249.499 19.8403C249.2 20.3096 248.795 20.5443 248.283 20.5443ZM232.123 14.0803C232.699 14.0803 233.403 14.0803 234.235 14.0803C235.067 14.059 235.91 14.0376 236.763 14.0163C237.638 13.9736 238.395 13.931 239.035 13.8883L239.003 9.6003C238.448 9.6003 237.744 9.61096 236.891 9.6323C236.059 9.65363 235.206 9.67496 234.331 9.6963C233.478 9.6963 232.731 9.70696 232.091 9.7283L232.123 14.0803ZM258.047 17.0243C257.769 17.0243 257.545 16.9283 257.375 16.7363C257.225 16.5443 257.14 16.1816 257.119 15.6483L256.927 8.0963C256.905 7.4563 256.873 6.9763 256.831 6.6563C256.809 6.31496 256.745 6.03763 256.639 5.8243C256.532 5.61096 256.329 5.38696 256.031 5.1523C255.881 5.0243 255.775 4.88563 255.711 4.7363C255.647 4.56563 255.689 4.37363 255.839 4.1603C256.073 3.79763 256.329 3.5843 256.607 3.5203C256.884 3.43496 257.161 3.44563 257.439 3.5523C257.823 3.6803 258.228 3.86163 258.655 4.0963C259.081 4.30963 259.412 4.53363 259.647 4.7683C259.775 4.8963 259.881 5.0243 259.967 5.1523C260.052 5.2803 260.095 5.39763 260.095 5.5043C260.052 5.73896 260.009 6.05896 259.967 6.4643C259.945 6.8483 259.935 7.2323 259.935 7.6163C260.489 7.6163 261.172 7.6163 261.983 7.6163C262.815 7.59496 263.647 7.57363 264.479 7.5523C265.332 7.50963 266.068 7.46696 266.687 7.4243V6.5603C266.687 5.68563 266.644 5.0883 266.559 4.7683C266.473 4.42696 266.249 4.10696 265.887 3.8083C265.695 3.63763 265.556 3.4883 265.471 3.3603C265.407 3.21096 265.439 3.02963 265.567 2.8163C265.759 2.47496 265.993 2.26163 266.271 2.1763C266.569 2.09096 266.857 2.09096 267.135 2.1763C267.497 2.26163 267.849 2.38963 268.191 2.5603C268.532 2.73096 268.873 2.93363 269.215 3.16829C269.684 3.4883 269.919 3.7763 269.919 4.0323C269.833 4.37363 269.769 4.8643 269.727 5.5043C269.705 6.12296 269.695 6.63496 269.695 7.0403V14.1443C269.695 14.9336 269.492 15.5523 269.087 16.0003C268.681 16.4483 268.223 16.6723 267.711 16.6723C267.199 16.6723 266.889 16.363 266.783 15.7443C266.185 15.723 265.46 15.723 264.607 15.7443C263.775 15.7443 262.932 15.755 262.079 15.7763C261.225 15.7763 260.468 15.7976 259.807 15.8403C259.636 16.2456 259.38 16.5443 259.039 16.7363C258.697 16.9283 258.367 17.0243 258.047 17.0243ZM270.143 30.7843C268.735 30.7843 267.497 30.539 266.431 30.0483C265.364 29.5576 264.532 28.875 263.935 28.0003C263.337 27.147 263.039 26.1656 263.039 25.0563C263.039 23.947 263.359 22.955 263.999 22.0803C264.66 21.2056 265.535 20.5123 266.623 20.0003C267.732 19.4883 268.948 19.2323 270.271 19.2323C271.593 19.2323 272.799 19.4563 273.887 19.9043C274.975 20.331 275.839 20.971 276.479 21.8243C277.119 22.6563 277.439 23.691 277.439 24.9283C277.439 26.0803 277.108 27.0936 276.447 27.9683C275.807 28.843 274.932 29.5256 273.823 30.0163C272.713 30.5283 271.487 30.7843 270.143 30.7843ZM275.487 19.2643C275.081 19.2643 274.836 19.0403 274.751 18.5923C274.665 18.0376 274.601 17.4616 274.559 16.8643C274.537 16.267 274.527 15.7976 274.527 15.4563V4.7043C274.527 4.10696 274.505 3.65896 274.463 3.3603C274.42 3.0403 274.303 2.7843 274.111 2.5923C273.94 2.4003 273.652 2.16563 273.247 1.8883C273.033 1.7603 272.873 1.61096 272.767 1.4403C272.681 1.26963 272.692 1.07763 272.799 0.864296C272.969 0.501629 273.193 0.266962 273.471 0.160295C273.748 0.0536289 274.057 0.0322959 274.399 0.0962963C274.889 0.181629 275.391 0.352295 275.903 0.608295C276.415 0.842962 276.841 1.07763 277.183 1.3123C277.567 1.5683 277.759 1.83496 277.759 2.1123C277.716 2.38963 277.663 2.77363 277.599 3.2643C277.535 3.75496 277.503 4.24563 277.503 4.7363V9.8883C278.335 9.80296 279.081 9.67496 279.743 9.5043C280.425 9.3123 280.905 9.17363 281.183 9.0883C281.417 9.00296 281.609 8.9923 281.759 9.0563C281.908 9.09896 282.025 9.1843 282.111 9.3123C282.281 9.52563 282.452 9.8243 282.623 10.2083C282.793 10.5923 282.879 10.859 282.879 11.0083C282.879 11.2216 282.74 11.435 282.463 11.6483C282.207 11.8616 282.004 11.9683 281.855 11.9683C281.193 11.8616 280.479 11.7976 279.711 11.7763C278.964 11.7336 278.228 11.7123 277.503 11.7123V15.2963C277.503 15.8296 277.439 16.4056 277.311 17.0243C277.204 17.6216 277.001 18.1443 276.703 18.5923C276.404 19.019 275.999 19.243 275.487 19.2643ZM270.175 28.5123C271.305 28.5123 272.255 28.1923 273.023 27.5523C273.791 26.9123 274.196 26.0056 274.239 24.8323C274.281 23.7016 273.897 22.827 273.087 22.2083C272.297 21.5683 271.337 21.2483 270.207 21.2483C269.076 21.2483 268.127 21.6003 267.359 22.3043C266.591 23.0083 266.207 23.8936 266.207 24.9603C266.207 26.0696 266.58 26.9443 267.327 27.5843C268.095 28.203 269.044 28.5123 270.175 28.5123ZM259.967 13.9203C260.543 13.9203 261.236 13.9203 262.047 13.9203C262.857 13.899 263.679 13.8776 264.511 13.8563C265.343 13.8136 266.079 13.771 266.719 13.7283L266.687 9.4403C266.132 9.4403 265.449 9.45096 264.639 9.4723C263.828 9.49363 262.996 9.51496 262.143 9.5363C261.311 9.5363 260.575 9.54696 259.935 9.5683L259.967 13.9203ZM293.404 29.9843C292.914 29.963 292.444 29.7283 291.996 29.2803C291.57 28.8536 291.356 28.203 291.356 27.3283V25.5363C291.356 25.4296 291.335 25.355 291.292 25.3123C291.271 25.2483 291.196 25.1736 291.068 25.0883C290.791 24.9176 290.556 24.7576 290.364 24.6083C290.194 24.459 290.098 24.331 290.076 24.2243C290.098 24.0536 290.183 23.8296 290.332 23.5523C290.482 23.275 290.663 23.1256 290.876 23.1043C291.367 23.1896 291.943 23.2536 292.604 23.2963C293.287 23.339 293.831 23.3603 294.236 23.3603C294.642 23.3603 295.207 23.3603 295.932 23.3603C296.658 23.3603 297.458 23.3496 298.332 23.3283C299.228 23.2856 300.124 23.2536 301.02 23.2323C301.916 23.1896 302.727 23.1363 303.452 23.0723C303.474 22.731 303.495 22.379 303.516 22.0163C303.538 21.6536 303.548 21.3016 303.548 20.9603C303.548 20.7896 303.516 20.6936 303.452 20.6723C303.388 20.6296 303.292 20.6083 303.164 20.6083C302.93 20.6083 302.514 20.619 301.916 20.6403C301.34 20.6616 300.679 20.6936 299.932 20.7363C299.186 20.779 298.46 20.8216 297.756 20.8643C297.074 20.8856 296.519 20.907 296.092 20.9283C295.879 20.9283 295.58 20.9496 295.196 20.9923C294.812 21.0136 294.418 21.0456 294.012 21.0883C293.628 21.131 293.298 21.1843 293.02 21.2483C292.594 21.3336 292.284 21.355 292.092 21.3123C291.9 21.2696 291.708 21.1736 291.516 21.0243C291.324 20.8536 291.079 20.6296 290.78 20.3523C290.503 20.075 290.343 19.8936 290.3 19.8083C290.258 19.6163 290.332 19.3923 290.524 19.1363C290.716 18.8803 290.93 18.731 291.164 18.6883C291.996 18.859 292.924 18.9656 293.948 19.0083C294.972 19.0296 296.092 19.0296 297.308 19.0083C297.287 18.5176 297.266 17.995 297.244 17.4403C297.223 16.8856 297.212 16.3523 297.212 15.8403C296.295 15.8616 295.41 15.8936 294.556 15.9363C293.703 15.979 292.903 16.0216 292.156 16.0643C291.239 16.107 290.396 16.1816 289.628 16.2883C288.86 16.3736 288.146 16.4803 287.484 16.6083C287.015 16.715 286.674 16.747 286.46 16.7043C286.268 16.6616 286.055 16.555 285.82 16.3843C285.692 16.2776 285.5 16.1176 285.244 15.9043C285.01 15.691 284.775 15.4776 284.54 15.2643C284.327 15.051 284.199 14.891 284.156 14.7843C284.114 14.6136 284.21 14.3683 284.444 14.0483C284.679 13.7283 284.924 13.579 285.18 13.6003C285.863 13.7496 286.674 13.867 287.612 13.9523C288.572 14.0163 289.586 14.059 290.652 14.0803C291.676 14.0803 292.807 14.0803 294.044 14.0803C295.282 14.059 296.53 14.027 297.788 13.9843C299.068 13.9416 300.274 13.899 301.404 13.8563C302.535 13.8136 303.506 13.771 304.316 13.7283C305.639 13.643 306.866 13.5363 307.996 13.4083C309.148 13.2803 310.055 13.131 310.716 12.9603C311.143 12.8536 311.431 12.8216 311.58 12.8643C311.751 12.8856 311.911 13.0136 312.06 13.2483C312.21 13.4616 312.37 13.7603 312.54 14.1443C312.711 14.507 312.796 14.763 312.796 14.9123C312.775 15.147 312.615 15.3816 312.316 15.6163C312.039 15.8296 311.836 15.9363 311.708 15.9363C311.111 15.8723 310.524 15.8296 309.948 15.8083C309.394 15.7656 308.732 15.7336 307.964 15.7123C307.218 15.691 306.247 15.6803 305.052 15.6803C304.391 15.6803 303.666 15.691 302.876 15.7123C302.108 15.7123 301.308 15.723 300.476 15.7443C300.476 16.2136 300.455 16.7363 300.412 17.3123C300.391 17.867 300.348 18.3896 300.284 18.8803C300.988 18.8163 301.65 18.7523 302.268 18.6883C302.908 18.603 303.367 18.507 303.644 18.4003C303.815 18.3363 303.932 18.3043 303.996 18.3043C304.082 18.283 304.199 18.2936 304.348 18.3363L306.652 18.8163C306.994 18.8803 307.1 19.1256 306.972 19.5523C306.887 19.8083 306.759 20.267 306.588 20.9283C306.418 21.5896 306.258 22.219 306.108 22.8163C306.343 22.9443 306.567 23.0936 306.78 23.2643C306.994 23.435 307.1 23.5736 307.1 23.6803C307.1 23.9363 307.004 24.2136 306.812 24.5123C306.642 24.811 306.428 25.003 306.172 25.0883C305.49 25.067 304.636 25.0563 303.612 25.0563C302.61 25.0563 301.543 25.067 300.412 25.0883C299.303 25.1096 298.215 25.1416 297.148 25.1843C296.103 25.227 295.196 25.2696 294.428 25.3123V26.8163C294.428 27.1576 294.46 27.435 294.524 27.6483C294.61 27.8403 294.78 27.947 295.036 27.9683C295.847 28.011 296.807 28.0216 297.916 28.0003C299.026 28.0003 300.071 27.9896 301.052 27.9683C302.567 27.9256 303.836 27.819 304.86 27.6483C305.906 27.4776 306.599 27.3283 306.94 27.2003C307.175 27.0936 307.367 27.083 307.516 27.1683C307.666 27.2323 307.783 27.3283 307.868 27.4563C308.039 27.6696 308.21 27.9256 308.38 28.2243C308.551 28.5443 308.636 28.7683 308.636 28.8963C308.636 29.067 308.508 29.2803 308.252 29.5363C308.018 29.7923 307.826 29.9203 307.676 29.9203C307.378 29.899 306.898 29.8776 306.236 29.8563C305.575 29.8563 304.839 29.8563 304.028 29.8563C303.218 29.8563 302.407 29.867 301.596 29.8883C301.34 29.8883 300.86 29.899 300.156 29.9203C299.474 29.9416 298.684 29.9523 297.788 29.9523C296.914 29.9736 296.071 29.9843 295.26 29.9843C294.471 30.0056 293.852 30.0056 293.404 29.9843ZM298.556 11.7443C297.191 11.7656 295.932 11.563 294.78 11.1363C293.65 10.6883 292.743 10.0483 292.06 9.2163C291.378 8.36296 291.036 7.34963 291.036 6.1763C291.036 5.06696 291.378 4.08563 292.06 3.2323C292.764 2.35763 293.682 1.67496 294.812 1.1843C295.964 0.672296 297.212 0.405629 298.556 0.384296C299.943 0.341629 301.202 0.533628 302.332 0.960295C303.463 1.36563 304.37 1.9843 305.052 2.8163C305.735 3.6483 306.076 4.68296 306.076 5.9203C306.076 7.02963 305.724 8.02163 305.02 8.8963C304.338 9.77096 303.431 10.4536 302.3 10.9443C301.17 11.435 299.922 11.7016 298.556 11.7443ZM298.556 9.6963C299.772 9.6323 300.775 9.2803 301.564 8.6403C302.375 7.97896 302.802 7.0723 302.844 5.9203C302.887 4.72563 302.482 3.85096 301.628 3.2963C300.796 2.72029 299.772 2.43229 298.556 2.43229C297.746 2.43229 296.999 2.5923 296.316 2.9123C295.655 3.2323 295.132 3.6803 294.748 4.2563C294.364 4.81096 294.172 5.4403 294.172 6.1443C294.172 7.31763 294.599 8.21363 295.452 8.8323C296.306 9.45096 297.34 9.73896 298.556 9.6963Z" fill="white"/>
</svg>
