<svg width="226" height="32" viewBox="0 0 226 32" fill="none" xmlns="http://www.w3.org/2000/svg">
<path d="M22.592 20.8329C22.208 20.8329 21.9627 20.6196 21.856 20.1929C21.7493 19.7236 21.6853 19.2116 21.664 18.6569C21.664 18.1022 21.664 17.6116 21.664 17.1849C21.664 17.0142 21.664 16.8862 21.664 16.8009V11.6809L18.912 11.7769V13.7609C18.912 14.2942 18.8587 14.8916 18.752 15.5529C18.6453 16.1929 18.4533 16.7476 18.176 17.2169C17.92 17.6862 17.536 17.9209 17.024 17.9209C16.64 17.9209 16.3947 17.7076 16.288 17.2809C16.1813 16.8329 16.1173 16.3529 16.096 15.8409C16.096 15.3289 16.096 14.8489 16.096 14.4009C16.096 14.3156 16.096 14.2409 16.096 14.1769C16.096 14.0916 16.096 14.0062 16.096 13.9209V5.7609C16.096 5.18491 16.0853 4.74757 16.064 4.44891C16.0427 4.15024 15.968 3.90491 15.84 3.71291C15.712 3.52091 15.488 3.30757 15.168 3.0729C14.9547 2.90224 14.8053 2.75291 14.72 2.6249C14.6347 2.47557 14.6347 2.29424 14.72 2.08091C14.8907 1.71824 15.1147 1.47291 15.392 1.34491C15.6693 1.19557 15.968 1.17424 16.288 1.2809C16.7147 1.4089 17.0987 1.5689 17.44 1.7609C17.8027 1.9529 18.144 2.16624 18.464 2.40091C18.8693 2.69957 19.072 2.97691 19.072 3.2329C19.0293 3.51024 18.9867 3.89424 18.944 4.3849C18.9227 4.87557 18.912 5.36624 18.912 5.8569V9.7289L21.664 9.6009V4.8649C21.664 4.26757 21.6427 3.81957 21.6 3.5209C21.5573 3.2009 21.4613 2.9449 21.312 2.7529C21.1627 2.5609 20.9067 2.32624 20.544 2.0489C20.3307 1.87824 20.1707 1.71824 20.064 1.5689C19.9787 1.41957 19.9893 1.23824 20.096 1.0249C20.4373 0.342237 20.9707 0.0862376 21.696 0.256905C22.1867 0.384904 22.656 0.566238 23.104 0.800905C23.552 1.01424 23.9467 1.23824 24.288 1.4729C24.672 1.7289 24.864 1.99557 24.864 2.27291C24.8213 2.55024 24.768 2.93424 24.704 3.42491C24.64 3.91557 24.608 4.40624 24.608 4.89691V16.6409C24.608 17.1742 24.544 17.7716 24.416 18.4329C24.3093 19.0729 24.1067 19.6382 23.808 20.1289C23.5093 20.5982 23.104 20.8329 22.592 20.8329ZM8 18.8169C6.74134 18.8382 5.68534 18.6249 4.832 18.1769C3.97867 17.7289 3.33867 17.1636 2.912 16.4809C2.48534 15.7769 2.272 15.0942 2.272 14.4329C2.272 13.7289 2.464 13.0356 2.848 12.3529C3.25334 11.6702 3.88267 11.0942 4.736 10.6249C5.58934 10.1342 6.688 9.87824 8.032 9.8569C9.888 9.81424 11.3067 10.2196 12.288 11.0729C13.2693 11.9049 13.7493 12.9609 13.728 14.2409C13.728 14.9662 13.504 15.6809 13.056 16.3849C12.6293 17.0676 11.9893 17.6329 11.136 18.0809C10.2827 18.5289 9.23734 18.7742 8 18.8169ZM7.296 31.0729C6.29334 31.3076 5.70667 31.1796 5.536 30.6889C5.49334 30.5182 5.51467 30.3476 5.6 30.1769C5.68534 30.0276 5.80267 29.9209 5.952 29.8569C6.86934 29.3449 7.85067 28.7156 8.896 27.9689C9.94134 27.2009 10.9333 26.3796 11.872 25.5049C12.8107 24.6089 13.568 23.7236 14.144 22.8489C14.4427 22.3796 14.688 21.9102 14.88 21.4409C15.072 20.9716 15.008 20.5662 14.688 20.2249C14.5173 20.0542 14.3787 19.8942 14.272 19.7449C14.1867 19.5742 14.208 19.3822 14.336 19.1689C14.592 18.7422 14.8693 18.4862 15.168 18.4009C15.4667 18.3156 15.776 18.3369 16.096 18.4649C16.5227 18.6569 16.96 18.9236 17.408 19.2649C17.856 19.6062 18.208 19.9262 18.464 20.2249C18.592 20.3956 18.688 20.5662 18.752 20.7369C18.816 20.8862 18.8267 21.0142 18.784 21.1209C18.656 21.2702 18.464 21.5369 18.208 21.9209C17.9733 22.3049 17.6853 22.7316 17.344 23.2009C18.56 24.0542 19.7013 24.7049 20.768 25.1529C21.856 25.5796 22.912 25.9209 23.936 26.1769C24.256 26.3476 24.544 26.6569 24.8 27.1049C25.0773 27.5529 25.2907 28.0222 25.44 28.5129C25.6107 29.0036 25.6853 29.4089 25.664 29.7289C25.6213 30.0489 25.3867 30.2942 24.96 30.4649C24.5333 30.6569 24.2027 30.7209 23.968 30.6569C23.264 29.9529 22.4427 29.2382 21.504 28.5129C20.5867 27.7876 19.6587 27.0942 18.72 26.4329C17.7813 25.7716 16.928 25.1849 16.16 24.6729C15.3067 25.6969 14.336 26.6569 13.248 27.5529C12.16 28.4276 11.0827 29.1742 10.016 29.7929C8.97067 30.4329 8.064 30.8596 7.296 31.0729ZM2.656 9.31291C2.272 9.37691 2.00534 9.38757 1.856 9.34491C1.70667 9.30224 1.52534 9.20624 1.312 9.05691C1.16267 8.95024 0.938671 8.76891 0.640004 8.51291C0.362671 8.23557 0.170671 8.0009 0.0640039 7.8089C0.0213373 7.59557 0.117337 7.37157 0.352004 7.13691C0.586671 6.88091 0.789337 6.7529 0.960004 6.7529C1.38667 6.81691 1.94134 6.88091 2.624 6.9449C3.30667 6.98757 4.032 7.01957 4.8 7.0409C5.58934 7.0409 6.35734 7.03024 7.104 7.00891C8.93867 6.92357 10.432 6.80624 11.584 6.65691C12.736 6.48624 13.5147 6.35824 13.92 6.27291C14.1547 6.2089 14.3253 6.19824 14.432 6.24091C14.5387 6.28357 14.6347 6.3689 14.72 6.4969C14.8693 6.77424 14.9973 7.07291 15.104 7.39291C15.2107 7.71291 15.264 7.92624 15.264 8.03291C15.264 8.20357 15.136 8.39557 14.88 8.60891C14.624 8.80091 14.432 8.89691 14.304 8.89691C13.6213 8.83291 12.6613 8.79024 11.424 8.76891C10.208 8.74757 8.98134 8.75824 7.744 8.80091C6.89067 8.82224 6.048 8.87557 5.216 8.96091C4.384 9.04624 3.53067 9.16357 2.656 9.31291ZM7.936 16.8649C8.85334 16.8222 9.54667 16.5556 10.016 16.0649C10.4853 15.5742 10.7413 14.9662 10.784 14.2409C10.8053 13.8782 10.7307 13.4942 10.56 13.0889C10.4107 12.6622 10.1333 12.3102 9.728 12.0329C9.32267 11.7556 8.77867 11.6276 8.096 11.6489C7.05067 11.6916 6.29334 11.9796 5.824 12.5129C5.376 13.0462 5.152 13.6756 5.152 14.4009C5.152 15.0196 5.39734 15.5956 5.888 16.1289C6.4 16.6409 7.08267 16.8862 7.936 16.8649ZM6.944 5.18491C6.34667 5.12091 5.67467 4.96091 4.928 4.7049C4.18134 4.42757 3.60534 4.11824 3.2 3.77691C3.11467 3.5849 3.136 3.32891 3.264 3.00891C3.41334 2.66757 3.63734 2.48624 3.936 2.4649C4.74667 2.61424 5.52534 2.72091 6.272 2.7849C7.01867 2.8489 7.78667 2.88091 8.576 2.88091C9.23734 2.88091 9.76 2.85957 10.144 2.81691C10.5493 2.77424 10.9547 2.73157 11.36 2.68891C11.7013 2.71024 11.9787 2.81691 12.192 3.00891C12.4053 3.17957 12.512 3.35024 12.512 3.5209C12.4907 3.69157 12.3947 3.92624 12.224 4.22491C12.0747 4.52357 11.872 4.7369 11.616 4.8649C11.0613 5.0569 10.3467 5.17424 9.472 5.21691C8.59734 5.25957 7.75467 5.24891 6.944 5.18491ZM38.2525 30.2089C37.7618 30.1876 37.2925 29.9529 36.8445 29.5049C36.4178 29.0782 36.2045 28.4276 36.2045 27.5529V25.4089C36.1832 25.2809 36.0658 25.1422 35.8525 24.9929C35.5965 24.8222 35.3832 24.6729 35.2125 24.5449C35.0632 24.3956 34.9778 24.2676 34.9565 24.1609C34.9778 23.9902 35.0738 23.7662 35.2445 23.4889C35.4152 23.1902 35.6072 23.0302 35.8205 23.0089C36.3112 23.0729 36.8765 23.1262 37.5165 23.1689C38.1565 23.1902 38.6792 23.2116 39.0845 23.2329C39.5112 23.2542 40.0765 23.2649 40.7805 23.2649C41.5058 23.2436 42.2952 23.2222 43.1485 23.2009C44.0018 23.1796 44.8658 23.1476 45.7405 23.1049C46.6152 23.0409 47.4152 22.9769 48.1405 22.9129C48.1832 22.5289 48.2152 22.1129 48.2365 21.6649C48.2578 21.2169 48.2685 20.7902 48.2685 20.3849C48.2685 20.2142 48.2365 20.1182 48.1725 20.0969C48.1085 20.0542 48.0125 20.0329 47.8845 20.0329C47.6498 20.0329 47.2445 20.0542 46.6685 20.0969C46.0925 20.1182 45.4418 20.1502 44.7165 20.1929C44.0125 20.2142 43.3192 20.2462 42.6365 20.2889C41.9752 20.3316 41.4312 20.3636 41.0045 20.3849C40.7912 20.3849 40.4925 20.4062 40.1085 20.4489C39.7458 20.4702 39.3618 20.5022 38.9565 20.5449C38.5725 20.5876 38.2418 20.6409 37.9645 20.7049C37.5378 20.7902 37.2285 20.8222 37.0365 20.8009C36.8445 20.7796 36.6525 20.6942 36.4605 20.5449C36.2472 20.3742 35.9805 20.1396 35.6605 19.8409C35.3618 19.5422 35.1912 19.3502 35.1485 19.2649C35.1058 19.0729 35.1805 18.8489 35.3725 18.5929C35.5645 18.3369 35.7778 18.1876 36.0125 18.1449C36.8445 18.3156 37.7938 18.4116 38.8605 18.4329C39.9485 18.4329 41.1005 18.4222 42.3165 18.4009C43.0418 18.3796 43.7992 18.3476 44.5885 18.3049C45.3992 18.2622 46.1458 18.1982 46.8285 18.1129C47.5112 18.0276 48.0125 17.9316 48.3325 17.8249C48.4818 17.7609 48.5885 17.7289 48.6525 17.7289C48.7165 17.7289 48.7912 17.7396 48.8765 17.7609C48.9405 17.7822 48.9938 17.7929 49.0365 17.7929L51.3405 18.2729C51.6818 18.3369 51.7885 18.5822 51.6605 19.0089C51.6178 19.1796 51.5325 19.4782 51.4045 19.9049C51.2765 20.3316 51.1485 20.8009 51.0205 21.3129C50.9138 21.8036 50.8178 22.2409 50.7325 22.6249C50.9672 22.7529 51.2018 22.9236 51.4365 23.1369C51.6925 23.3289 51.8205 23.4782 51.8205 23.5849C51.8205 23.8409 51.7245 24.1182 51.5325 24.4169C51.3618 24.7156 51.1485 24.9076 50.8925 24.9929C50.2098 24.9716 49.3672 24.9609 48.3645 24.9609C47.3618 24.9609 46.3058 24.9716 45.1965 24.9929C44.0872 25.0142 43.0098 25.0462 41.9645 25.0889C40.9405 25.1316 40.0445 25.1742 39.2765 25.2169V27.0409C39.2765 27.3822 39.3085 27.6596 39.3725 27.8729C39.4578 28.0649 39.6285 28.1716 39.8845 28.1929C40.6952 28.2356 41.6552 28.2462 42.7645 28.2249C43.8952 28.2036 44.9512 28.1822 45.9325 28.1609C47.4472 28.1182 48.6952 28.0116 49.6765 27.8409C50.6578 27.6702 51.3192 27.5209 51.6605 27.3929C51.8952 27.2862 52.0872 27.2756 52.2365 27.3609C52.3858 27.4249 52.5032 27.5209 52.5885 27.6489C52.7592 27.8622 52.9298 28.1396 53.1005 28.4809C53.2712 28.8222 53.3565 29.0462 53.3565 29.1529C53.3565 29.3236 53.2285 29.5369 52.9725 29.7929C52.7378 30.0489 52.5458 30.1769 52.3965 30.1769C52.0978 30.1556 51.6285 30.1342 50.9885 30.1129C50.3698 30.1129 49.6658 30.1022 48.8765 30.0809C48.0872 30.0809 47.2872 30.0916 46.4765 30.1129C46.3272 30.1129 46.0712 30.1129 45.7085 30.1129C45.3672 30.1342 44.9618 30.1449 44.4925 30.1449C43.8098 30.1662 43.0632 30.1769 42.2525 30.1769C41.4418 30.1982 40.6738 30.2089 39.9485 30.2089C39.2232 30.2302 38.6578 30.2302 38.2525 30.2089ZM29.9965 17.0249C29.6552 17.2169 29.2712 17.2809 28.8445 17.2169C28.4178 17.1316 28.1725 16.9502 28.1085 16.6729C28.0872 16.5236 28.0978 16.3849 28.1405 16.2569C28.1832 16.1076 28.3112 15.9582 28.5245 15.8089C29.4632 15.1262 30.4552 14.2516 31.5005 13.1849C32.5672 12.0969 33.5592 10.9022 34.4765 9.6009C35.3938 8.29957 36.0872 6.97691 36.5565 5.63291C36.5565 5.61157 36.5672 5.5689 36.5885 5.50491C36.7378 5.12091 36.8232 4.76891 36.8445 4.44891C36.8872 4.10757 36.7272 3.77691 36.3645 3.45691C36.2152 3.32891 36.0978 3.20091 36.0125 3.0729C35.9485 2.92357 35.9698 2.74224 36.0765 2.52891C36.3325 1.99557 36.6418 1.7289 37.0045 1.7289C37.3885 1.70757 37.7405 1.77157 38.0605 1.9209C38.4658 2.09157 38.9032 2.3369 39.3725 2.6569C39.8632 2.95557 40.2365 3.24357 40.4925 3.5209C40.7698 3.77691 40.8872 4.02224 40.8445 4.2569C40.6312 4.59824 40.4178 4.96091 40.2045 5.34491C40.0125 5.70757 39.7992 6.10224 39.5645 6.52891C39.3938 6.84891 39.2125 7.16891 39.0205 7.4889C38.8285 7.78757 38.6258 8.08624 38.4125 8.3849C39.6072 9.23824 40.6952 9.92091 41.6765 10.4329C42.6578 10.9236 43.4685 11.2542 44.1085 11.4249C44.3005 11.5102 44.5138 11.7449 44.7485 12.1289C44.9832 12.4916 45.1858 12.8969 45.3565 13.3449C45.5485 13.7929 45.6552 14.1982 45.6765 14.5609C45.6125 14.9449 45.3672 15.2436 44.9405 15.4569C44.5352 15.6702 44.1938 15.7449 43.9165 15.6809C43.4258 15.1262 42.7858 14.4862 41.9965 13.7609C41.2072 13.0356 40.3965 12.3209 39.5645 11.6169C38.7538 10.8916 38.0498 10.2942 37.4525 9.82491C36.4072 11.2969 35.2445 12.6836 33.9645 13.9849C32.6845 15.2649 31.3618 16.2782 29.9965 17.0249ZM49.6445 16.9289C49.2392 16.9289 48.9938 16.7156 48.9085 16.2889C48.8232 15.7342 48.7592 15.1369 48.7165 14.4969C48.6952 13.8356 48.6845 13.3129 48.6845 12.9289V4.92891C48.6845 4.33157 48.6632 3.88357 48.6205 3.58491C48.5778 3.2649 48.4605 3.0089 48.2685 2.81691C48.0978 2.62491 47.8098 2.39024 47.4045 2.11291C47.1912 1.9849 47.0312 1.83557 46.9245 1.66491C46.8392 1.49424 46.8498 1.30224 46.9565 1.08891C47.1272 0.726238 47.3512 0.491571 47.6285 0.384905C47.9058 0.278238 48.2152 0.256905 48.5565 0.320906C49.0472 0.406238 49.5485 0.576904 50.0605 0.832905C50.5725 1.06757 50.9992 1.30224 51.3405 1.53691C51.7245 1.7929 51.9165 2.05957 51.9165 2.3369C51.8738 2.61424 51.8205 2.99824 51.7565 3.4889C51.6925 3.97957 51.6605 4.47024 51.6605 4.96091V9.79291C52.4925 9.70757 53.2392 9.57957 53.9005 9.40891C54.5832 9.2169 55.0632 9.07824 55.3405 8.9929C55.5752 8.90757 55.7672 8.8969 55.9165 8.96091C56.0658 9.00357 56.1832 9.08891 56.2685 9.21691C56.4392 9.43024 56.6098 9.72891 56.7805 10.1129C56.9512 10.4969 57.0365 10.7636 57.0365 10.9129C57.0365 11.1262 56.8978 11.3396 56.6205 11.5529C56.3645 11.7662 56.1618 11.8729 56.0125 11.8729C55.3512 11.7662 54.6365 11.7022 53.8685 11.6809C53.1218 11.6382 52.3858 11.6169 51.6605 11.6169V12.7369C51.6605 13.2702 51.5965 13.8676 51.4685 14.5289C51.3618 15.1902 51.1592 15.7556 50.8605 16.2249C50.5618 16.6942 50.1565 16.9289 49.6445 16.9289ZM73.2123 11.6809C72.9349 11.7449 72.6043 11.7342 72.2203 11.6489C71.8576 11.5422 71.6443 11.3076 71.5803 10.9449C71.4949 10.6036 71.6656 10.3689 72.0923 10.2409C74.1829 9.62224 76.0389 8.85424 77.6603 7.9369C79.2816 7.01957 80.4656 5.98491 81.2123 4.8329C81.2549 4.74757 81.2976 4.6409 81.3403 4.51291C81.4043 4.38491 81.4469 4.24624 81.4683 4.0969C81.3189 4.0969 81.1696 4.10757 81.0203 4.1289C80.8923 4.1289 80.7643 4.1289 80.6363 4.1289C79.8043 4.17157 79.0363 4.22491 78.3323 4.2889C77.6496 4.3529 76.9029 4.47024 76.0923 4.64091C75.6869 4.72624 75.4203 4.75824 75.2923 4.73691C75.1643 4.71557 74.9829 4.6089 74.7483 4.4169C74.5989 4.31024 74.3643 4.10757 74.0443 3.8089C73.7456 3.4889 73.5429 3.24357 73.4363 3.0729C73.3936 2.85957 73.4896 2.61424 73.7243 2.3369C73.9803 2.03824 74.1936 1.8889 74.3643 1.8889C75.0256 2.03824 75.7936 2.13424 76.6683 2.1769C77.5429 2.21957 78.5349 2.23024 79.6443 2.2089C80.3483 2.18757 80.9669 2.1769 81.5003 2.1769C82.0549 2.15557 82.6096 2.12357 83.1643 2.08091C83.7403 2.03824 84.3909 1.99557 85.1163 1.95291C86.3109 1.86757 87.3349 1.75024 88.1883 1.6009C89.0416 1.45157 89.6069 1.34491 89.8843 1.2809C90.2469 1.17424 90.5136 1.24891 90.6843 1.50491C90.8549 1.78224 90.9936 2.1129 91.1003 2.4969C91.2283 2.8809 91.3029 3.12624 91.3243 3.2329C91.3243 3.38224 91.2069 3.57424 90.9723 3.8089C90.7376 4.02224 90.5456 4.1289 90.3963 4.1289C90.0549 4.08624 89.3829 4.04357 88.3803 4.00091C87.3776 3.95824 86.2789 3.94757 85.0843 3.9689C84.8709 3.9689 84.6576 3.9689 84.4443 3.9689C84.2309 3.9689 84.0283 3.97957 83.8363 4.00091C84.0709 4.21424 84.2416 4.44891 84.3483 4.7049C84.4763 4.96091 84.5083 5.17424 84.4443 5.34491C84.2523 5.68624 84.0496 5.98491 83.8363 6.24091C84.6896 6.49691 85.4043 6.68891 85.9803 6.81691C86.5776 6.92357 87.1643 6.99824 87.7403 7.0409C88.3163 7.06224 88.9776 7.08357 89.7243 7.10491C90.1083 7.16891 90.4816 7.35024 90.8443 7.6489C91.2283 7.92624 91.5589 8.24624 91.8363 8.60891C92.1136 8.95024 92.2949 9.25957 92.3803 9.53691C92.3589 9.83557 92.2096 10.1556 91.9323 10.4969C91.6549 10.8382 91.3989 11.0089 91.1643 11.0089C89.8416 10.3689 88.4123 9.75024 86.8763 9.1529C85.3616 8.53424 83.9109 8.01157 82.5243 7.58491C81.5856 8.37424 80.5296 9.05691 79.3563 9.63291C78.2043 10.2089 77.0843 10.6676 75.9963 11.0089C74.9083 11.3289 73.9803 11.5529 73.2123 11.6809ZM71.5483 16.6729C71.0789 16.7796 70.7376 16.8116 70.5243 16.7689C70.3323 16.7262 70.1189 16.6196 69.8843 16.4489C69.7563 16.3422 69.5643 16.1822 69.3083 15.9689C69.0736 15.7556 68.8389 15.5422 68.6043 15.3289C68.3909 15.1156 68.2629 14.9556 68.2203 14.8489C68.1776 14.6782 68.2736 14.4329 68.5083 14.1129C68.7429 13.7929 68.9883 13.6436 69.2443 13.6649C69.9269 13.8142 70.7376 13.9316 71.6763 14.0169C72.6363 14.0809 73.6496 14.1236 74.7163 14.1449C75.6763 14.1449 76.7323 14.1449 77.8843 14.1449C79.0363 14.1236 80.1989 14.1022 81.3723 14.0809V13.2809C81.3723 12.6409 81.3083 12.2142 81.1803 12.0009C81.0736 11.7662 80.8816 11.5422 80.6043 11.3289C80.2843 11.0729 80.1883 10.7849 80.3163 10.4649C80.4869 10.1022 80.7003 9.87824 80.9563 9.79291C81.2336 9.68624 81.5109 9.66491 81.7883 9.7289C82.5563 9.89957 83.2389 10.1876 83.8363 10.5929C84.3056 10.9129 84.5403 11.1582 84.5403 11.3289C84.4549 11.6702 84.3803 12.0009 84.3163 12.3209C84.2736 12.6409 84.2416 13.0036 84.2203 13.4089L84.1883 13.9849C84.9989 13.9422 85.7563 13.9102 86.4603 13.8889C87.1856 13.8462 87.8256 13.8142 88.3803 13.7929C89.7029 13.7076 90.9296 13.6009 92.0603 13.4729C93.2123 13.3449 94.1189 13.1956 94.7803 13.0249C95.2069 12.9182 95.4949 12.8862 95.6443 12.9289C95.8149 12.9502 95.9749 13.0782 96.1243 13.3129C96.2736 13.5262 96.4336 13.8249 96.6043 14.2089C96.7749 14.5716 96.8603 14.8276 96.8603 14.9769C96.8389 15.2116 96.6789 15.4462 96.3803 15.6809C96.1029 15.8942 95.9003 16.0009 95.7723 16.0009C95.1749 15.9369 94.5883 15.8942 94.0123 15.8729C93.4576 15.8302 92.7963 15.7982 92.0283 15.7769C91.2816 15.7556 90.3109 15.7449 89.1163 15.7449C87.9003 15.7449 86.5243 15.7662 84.9883 15.8089C83.4523 15.8302 81.9163 15.8729 80.3803 15.9369C78.8443 16.0009 77.4576 16.0649 76.2203 16.1289C75.3029 16.1716 74.4603 16.2462 73.6923 16.3529C72.9243 16.4382 72.2096 16.5449 71.5483 16.6729ZM83.0683 31.4889C81.4256 31.4889 80.0923 31.1262 79.0683 30.4009C78.0443 29.6756 77.5429 28.7369 77.5643 27.5849C77.5856 26.9662 77.8096 26.3796 78.2363 25.8249C78.6629 25.2702 79.2923 24.8116 80.1243 24.4489C80.9776 24.0862 82.0016 23.9049 83.1963 23.9049C84.9669 23.9049 86.3429 24.2676 87.3243 24.9929C88.3056 25.6969 88.7963 26.5396 88.7963 27.5209C88.7963 28.6942 88.2523 29.6436 87.1643 30.3689C86.0976 31.1156 84.7323 31.4889 83.0683 31.4889ZM75.9003 23.6489C75.4949 23.7129 75.2176 23.7342 75.0683 23.7129C74.9403 23.6702 74.7483 23.5742 74.4923 23.4249C74.4069 23.3609 74.2576 23.2436 74.0443 23.0729C73.8309 22.9022 73.6176 22.7316 73.4043 22.5609C73.2123 22.3689 73.0843 22.2196 73.0203 22.1129C72.9776 21.8996 73.0736 21.6649 73.3083 21.4089C73.5643 21.1316 73.7776 20.9929 73.9483 20.9929C74.6096 21.1422 75.3989 21.2596 76.3163 21.3449C77.2336 21.4089 78.2469 21.4302 79.3563 21.4089C80.4229 21.4089 81.5109 21.3982 82.6203 21.3769C83.7296 21.3342 84.8389 21.2809 85.9483 21.2169C87.1429 21.1316 88.2416 21.0142 89.2443 20.8649C90.2469 20.6942 90.9403 20.5662 91.3243 20.4809C91.6869 20.3742 91.9536 20.4382 92.1243 20.6729C92.2736 20.9289 92.4016 21.2062 92.5083 21.5049C92.6363 21.8036 92.7003 22.0382 92.7003 22.2089C92.7003 22.3582 92.5936 22.5289 92.3803 22.7209C92.1669 22.9129 91.9643 23.0302 91.7723 23.0729C90.8336 22.9662 89.8203 22.9022 88.7323 22.8809C87.6656 22.8382 86.6416 22.8276 85.6603 22.8489C84.7003 22.8489 83.9003 22.8596 83.2603 22.8809C82.0229 22.9022 80.7749 22.9876 79.5163 23.1369C78.2576 23.2649 77.0523 23.4356 75.9003 23.6489ZM81.6603 20.0329C81.2763 19.9689 80.8176 19.8942 80.2843 19.8089C79.7509 19.7022 79.2496 19.5636 78.7803 19.3929C78.3323 19.2222 78.0123 19.0196 77.8203 18.7849C77.6923 18.6356 77.6923 18.4116 77.8203 18.1129C77.9696 17.8142 78.1509 17.6542 78.3643 17.6329C79.2389 17.7609 80.1456 17.8462 81.0843 17.8889C82.0443 17.9316 82.9083 17.9529 83.6763 17.9529C84.2523 17.9529 84.8496 17.9316 85.4683 17.8889C86.0869 17.8462 86.5989 17.8036 87.0043 17.7609C87.2389 17.7822 87.4523 17.8676 87.6443 18.0169C87.8576 18.1449 87.9643 18.2836 87.9643 18.4329C87.9643 18.6676 87.8789 18.9342 87.7083 19.2329C87.5589 19.5316 87.3989 19.7022 87.2283 19.7449C86.8656 19.8516 86.3429 19.9476 85.6603 20.0329C84.9989 20.0969 84.2949 20.1289 83.5483 20.1289C82.8229 20.1289 82.1936 20.0969 81.6603 20.0329ZM83.0363 29.3449C83.6763 29.3449 84.2736 29.2062 84.8283 28.9289C85.3829 28.6729 85.6709 28.1822 85.6923 27.4569C85.7136 26.9662 85.5323 26.5289 85.1483 26.1449C84.7643 25.7396 84.1349 25.5369 83.2603 25.5369C82.3856 25.5369 81.7243 25.7182 81.2763 26.0809C80.8496 26.4436 80.6363 26.9342 80.6363 27.5529C80.6363 28.1289 80.8816 28.5662 81.3723 28.8649C81.8629 29.1849 82.4176 29.3449 83.0363 29.3449ZM113.659 12.8649C112.272 12.8862 110.992 12.6622 109.819 12.1929C108.646 11.7022 107.707 11.0196 107.003 10.1449C106.32 9.24891 105.979 8.19291 105.979 6.97691C105.979 5.82491 106.331 4.80091 107.035 3.90491C107.739 3.00891 108.667 2.29424 109.819 1.7609C110.992 1.22757 112.272 0.950239 113.659 0.928905C115.067 0.886238 116.347 1.0889 117.499 1.53691C118.672 1.9849 119.6 2.64624 120.283 3.5209C120.987 4.37424 121.339 5.44091 121.339 6.72091C121.339 7.87291 120.987 8.90757 120.283 9.82491C119.579 10.7422 118.64 11.4676 117.467 12.0009C116.315 12.5342 115.046 12.8222 113.659 12.8649ZM102.267 18.9129C101.798 19.0196 101.456 19.0516 101.243 19.0089C101.051 18.9662 100.838 18.8596 100.603 18.6889C100.475 18.5822 100.283 18.4222 100.027 18.2089C99.7923 17.9956 99.5577 17.7822 99.323 17.5689C99.1097 17.3556 98.9817 17.1956 98.939 17.0889C98.8963 16.9182 98.9923 16.6729 99.227 16.3529C99.4617 16.0329 99.707 15.8836 99.963 15.9049C100.646 16.0542 101.456 16.1716 102.395 16.2569C103.355 16.3209 104.368 16.3636 105.435 16.3849C106.459 16.3849 107.59 16.3849 108.827 16.3849C110.064 16.3636 111.312 16.3316 112.571 16.2889C113.851 16.2462 115.056 16.2036 116.187 16.1609C117.318 16.1182 118.288 16.0756 119.099 16.0329C120.422 15.9476 121.648 15.8409 122.779 15.7129C123.931 15.5849 124.838 15.4356 125.499 15.2649C125.926 15.1582 126.214 15.1262 126.363 15.1689C126.534 15.1902 126.694 15.3182 126.843 15.5529C126.992 15.7662 127.152 16.0649 127.323 16.4489C127.494 16.8116 127.579 17.0676 127.579 17.2169C127.558 17.4516 127.398 17.6862 127.099 17.9209C126.822 18.1342 126.619 18.2409 126.491 18.2409C125.894 18.1769 125.307 18.1342 124.731 18.1129C124.176 18.0702 123.515 18.0382 122.747 18.0169C122 17.9956 121.03 17.9849 119.835 17.9849C118.619 17.9849 117.243 18.0062 115.707 18.0489C114.171 18.0702 112.635 18.1129 111.099 18.1769C109.563 18.2409 108.176 18.3049 106.939 18.3689C106.022 18.4116 105.179 18.4862 104.411 18.5929C103.643 18.6782 102.928 18.7849 102.267 18.9129ZM108.571 30.0489C108.251 30.0276 107.888 29.9209 107.483 29.7289C107.099 29.5582 106.768 29.2596 106.491 28.8329C106.214 28.4276 106.075 27.8729 106.075 27.1689V25.3769C106.075 24.5662 106.032 24.0116 105.947 23.7129C105.862 23.3929 105.552 23.0942 105.019 22.8169C104.614 22.6036 104.518 22.2729 104.731 21.8249C104.902 21.4622 105.126 21.2382 105.403 21.1529C105.702 21.0676 106 21.0462 106.299 21.0889C106.662 21.1529 107.056 21.2702 107.483 21.4409C107.91 21.5902 108.283 21.7609 108.603 21.9529C108.838 22.1022 109.03 22.2516 109.179 22.4009C109.35 22.5289 109.435 22.6782 109.435 22.8489C109.35 23.2116 109.286 23.5956 109.243 24.0009C109.2 24.4062 109.179 24.8116 109.179 25.2169V26.8489C109.179 27.3182 109.222 27.6169 109.307 27.7449C109.414 27.8729 109.627 27.9476 109.947 27.9689C110.758 27.9902 111.707 28.0009 112.795 28.0009C113.904 28.0009 115.078 27.9582 116.315 27.8729C117.659 27.7876 118.832 27.6489 119.835 27.4569C120.838 27.2649 121.499 27.1262 121.819 27.0409C122.054 26.9556 122.246 26.9449 122.395 27.0089C122.544 27.0729 122.662 27.1689 122.747 27.2969C122.918 27.5102 123.088 27.8089 123.259 28.1929C123.43 28.5769 123.515 28.8222 123.515 28.9289C123.515 29.1209 123.387 29.3449 123.131 29.6009C122.896 29.8569 122.704 29.9849 122.555 29.9849C122.278 29.9636 121.83 29.9422 121.211 29.9209C120.592 29.8996 119.888 29.8889 119.099 29.8889C118.331 29.8889 117.542 29.8996 116.731 29.9209C116.56 29.9209 116.347 29.9209 116.091 29.9209C115.856 29.9422 115.6 29.9529 115.323 29.9529C114.619 29.9742 113.83 29.9956 112.955 30.0169C112.08 30.0382 111.248 30.0489 110.459 30.0489C109.67 30.0702 109.04 30.0702 108.571 30.0489ZM113.659 10.7529C114.939 10.6889 115.984 10.3049 116.795 9.6009C117.606 8.8969 118.032 7.9369 118.075 6.72091C118.118 5.44091 117.712 4.50224 116.859 3.90491C116.006 3.30757 114.939 3.00891 113.659 3.00891C112.358 3.00891 111.28 3.38224 110.427 4.1289C109.574 4.87557 109.147 5.81424 109.147 6.9449C109.147 8.20357 109.574 9.16357 110.427 9.82491C111.302 10.4862 112.379 10.7956 113.659 10.7529ZM152.716 15.8089C151.201 15.8302 149.836 15.5956 148.62 15.1049C147.425 14.5929 146.476 13.8462 145.772 12.8649C145.068 11.8836 144.716 10.7102 144.716 9.34491C144.759 8.04357 145.132 6.90224 145.836 5.92091C146.561 4.93957 147.532 4.16091 148.748 3.58491C149.964 2.98757 151.329 2.66757 152.844 2.6249C154.423 2.58224 155.831 2.81691 157.068 3.32891C158.305 3.81957 159.276 4.55557 159.98 5.53691C160.684 6.49691 161.004 7.67024 160.94 9.05691C160.876 10.4222 160.481 11.6062 159.756 12.6089C159.031 13.6116 158.06 14.3902 156.844 14.9449C155.649 15.4782 154.273 15.7662 152.716 15.8089ZM141.932 25.5689C141.633 25.5689 141.335 25.4622 141.036 25.2489C140.695 25.0356 140.321 24.7476 139.916 24.3849C139.532 24.0009 139.319 23.7342 139.276 23.5849C139.212 23.3929 139.297 23.1369 139.532 22.8169C139.767 22.4756 140.023 22.3262 140.3 22.3689C140.983 22.5182 141.847 22.6462 142.892 22.7529C143.959 22.8382 145.207 22.8809 146.636 22.8809C147.212 22.8809 147.969 22.8809 148.908 22.8809C149.868 22.8596 150.871 22.8382 151.916 22.8169L151.884 20.4169C151.884 19.7982 151.82 19.3289 151.692 19.0089C151.585 18.6676 151.372 18.3689 151.052 18.1129C151.031 18.0916 151.009 18.0702 150.988 18.0489C150.796 17.8996 150.668 17.7716 150.604 17.6649C150.54 17.5582 150.551 17.3982 150.636 17.1849C150.807 16.8222 151.031 16.5876 151.308 16.4809C151.585 16.3742 151.863 16.3422 152.14 16.3849C152.503 16.4489 152.887 16.5769 153.292 16.7689C153.719 16.9396 154.081 17.1102 154.38 17.2809C154.807 17.5369 155.041 17.7716 155.084 17.9849C154.913 18.6676 154.817 19.3929 154.796 20.1609L154.668 22.7529C155.521 22.7316 156.311 22.7102 157.036 22.6889C157.761 22.6462 158.348 22.6142 158.796 22.5929C160.119 22.5076 161.313 22.4009 162.38 22.2729C163.468 22.1236 164.343 21.9636 165.004 21.7929C165.281 21.7076 165.516 21.6649 165.708 21.6649C165.943 21.6649 166.156 21.8036 166.348 22.0809C166.497 22.3156 166.657 22.6249 166.828 23.0089C166.999 23.3929 167.084 23.6596 167.084 23.8089C167.084 24.0436 166.935 24.2782 166.636 24.5129C166.337 24.7262 166.124 24.8329 165.996 24.8329C165.484 24.7689 164.844 24.7262 164.076 24.7049C163.308 24.6622 162.508 24.6409 161.676 24.6409C160.865 24.6196 160.087 24.6089 159.34 24.6089C157.505 24.6302 155.5 24.6729 153.324 24.7369C151.148 24.7796 148.919 24.8436 146.636 24.9289C146.295 24.9502 145.836 24.9929 145.26 25.0569C144.705 25.1209 144.161 25.1956 143.628 25.2809C143.116 25.3449 142.732 25.4089 142.476 25.4729C142.263 25.5369 142.081 25.5689 141.932 25.5689ZM152.716 13.6969C154.145 13.6542 155.329 13.2169 156.268 12.3849C157.207 11.5529 157.687 10.4436 157.708 9.05691C157.729 7.69157 157.292 6.63557 156.396 5.8889C155.5 5.12091 154.316 4.73691 152.844 4.73691C151.265 4.77957 150.06 5.25957 149.228 6.1769C148.396 7.0729 147.959 8.11824 147.916 9.31291C147.916 10.2089 148.129 10.9982 148.556 11.6809C148.983 12.3636 149.559 12.8862 150.284 13.2489C151.009 13.5902 151.82 13.7396 152.716 13.6969ZM182.961 16.8649C181.574 16.8862 180.401 16.6729 179.441 16.2249C178.481 15.7769 177.756 15.1902 177.265 14.4649C176.774 13.7182 176.529 12.9502 176.529 12.1609C176.529 11.3076 176.753 10.5289 177.201 9.82491C177.67 9.09957 178.385 8.51291 179.345 8.06491C180.326 7.61691 181.564 7.37157 183.057 7.32891C184.316 7.28624 185.446 7.44624 186.449 7.8089C187.452 8.15024 188.241 8.67291 188.817 9.37691C189.393 10.0809 189.681 10.9556 189.681 12.0009C189.681 12.8329 189.414 13.6116 188.881 14.3369C188.369 15.0622 187.612 15.6596 186.609 16.1289C185.628 16.5769 184.412 16.8222 182.961 16.8649ZM182.833 29.8889C182.406 29.8889 182.14 29.6329 182.033 29.1209C181.926 28.5662 181.862 27.9689 181.841 27.3289C181.82 26.6676 181.809 26.1449 181.809 25.7609V20.4809C180.934 20.5236 180.06 20.5662 179.185 20.6089C178.31 20.6516 177.446 20.6942 176.593 20.7369C175.676 20.7796 174.833 20.8542 174.065 20.9609C173.297 21.0462 172.582 21.1529 171.921 21.2809C171.452 21.3876 171.11 21.4196 170.897 21.3769C170.705 21.3342 170.492 21.2276 170.257 21.0569C170.129 20.9502 169.948 20.7902 169.713 20.5769C169.478 20.3636 169.254 20.1502 169.041 19.9369C168.849 19.7022 168.732 19.5316 168.689 19.4249C168.646 19.2542 168.742 19.0089 168.977 18.6889C169.212 18.3689 169.457 18.2196 169.713 18.2409C170.396 18.3902 171.206 18.5076 172.145 18.5929C173.105 18.6569 174.118 18.6996 175.185 18.7209C176.209 18.7209 177.34 18.7209 178.577 18.7209C179.814 18.6996 181.062 18.6676 182.321 18.6249C183.601 18.5822 184.806 18.5396 185.937 18.4969C187.089 18.4542 188.07 18.4116 188.881 18.3689C190.204 18.2836 191.398 18.1769 192.465 18.0489C193.553 17.9209 194.428 17.7716 195.089 17.6009C195.516 17.4942 195.804 17.4622 195.953 17.5049C196.124 17.5262 196.284 17.6542 196.433 17.8889C196.582 18.1022 196.742 18.4009 196.913 18.7849C197.084 19.1476 197.169 19.4036 197.169 19.5529C197.148 19.7876 196.988 20.0222 196.689 20.2569C196.412 20.4702 196.209 20.5769 196.081 20.5769C195.484 20.5129 194.897 20.4596 194.321 20.4169C193.766 20.3742 193.105 20.3529 192.337 20.3529C191.59 20.3316 190.62 20.3209 189.425 20.3209C188.7 20.3209 187.953 20.3316 187.185 20.3529C186.438 20.3529 185.66 20.3636 184.849 20.3849V25.6009C184.849 26.1342 184.796 26.7422 184.689 27.4249C184.582 28.0862 184.38 28.6622 184.081 29.1529C183.804 29.6436 183.388 29.8889 182.833 29.8889ZM174.865 7.10491C174.46 7.19024 174.193 7.22224 174.065 7.2009C173.937 7.17957 173.756 7.06224 173.521 6.84891C173.372 6.74224 173.137 6.53957 172.817 6.24091C172.518 5.9209 172.316 5.67557 172.209 5.50491C172.166 5.31291 172.262 5.07824 172.497 4.80091C172.753 4.50224 172.966 4.35291 173.137 4.35291C173.798 4.50224 174.577 4.59824 175.473 4.64091C176.39 4.68357 177.404 4.71557 178.513 4.73691C179.046 4.73691 179.697 4.73691 180.465 4.73691C181.254 4.71557 182.076 4.69424 182.929 4.6729C183.804 4.65157 184.636 4.61957 185.425 4.5769C186.214 4.53424 186.886 4.49157 187.441 4.44891C188.636 4.34224 189.67 4.21424 190.545 4.06491C191.42 3.91557 191.996 3.8089 192.273 3.74491C192.636 3.63824 192.902 3.71291 193.073 3.9689C193.244 4.24624 193.382 4.55557 193.489 4.89691C193.617 5.21691 193.692 5.43024 193.713 5.53691C193.713 5.68624 193.596 5.87824 193.361 6.11291C193.126 6.32624 192.934 6.43291 192.785 6.43291C192.444 6.39024 191.761 6.35824 190.737 6.3369C189.713 6.31557 188.604 6.3049 187.409 6.3049C186.876 6.3049 186.225 6.31557 185.457 6.3369C184.71 6.3369 183.942 6.34757 183.153 6.36891C182.385 6.39024 181.681 6.42224 181.041 6.4649C180.422 6.48624 179.964 6.50757 179.665 6.52891C178.833 6.59291 178.022 6.6569 177.233 6.72091C176.465 6.78491 175.676 6.91291 174.865 7.10491ZM182.961 14.6569C184.134 14.6569 184.998 14.3902 185.553 13.8569C186.129 13.3236 186.438 12.6409 186.481 11.8089C186.502 11.4249 186.406 11.0196 186.193 10.5929C186.001 10.1662 185.649 9.80357 185.137 9.50491C184.646 9.20624 183.964 9.05691 183.089 9.05691C182.214 9.05691 181.521 9.21691 181.009 9.53691C180.497 9.83557 180.134 10.2089 179.921 10.6569C179.708 11.1049 179.601 11.5316 179.601 11.9369C179.601 12.6196 179.889 13.2489 180.465 13.8249C181.062 14.3796 181.894 14.6569 182.961 14.6569ZM181.521 3.16891C181.137 3.1049 180.646 2.99824 180.049 2.84891C179.452 2.69957 178.876 2.51824 178.321 2.3049C177.788 2.09157 177.393 1.86757 177.137 1.6329C177.009 1.46224 177.009 1.20624 177.137 0.864904C177.265 0.502239 177.468 0.310239 177.745 0.288904C178.278 0.395571 178.908 0.491571 179.633 0.576904C180.358 0.640905 181.084 0.694238 181.809 0.736904C182.534 0.779572 183.153 0.800905 183.665 0.800905C185.073 0.800905 186.236 0.747572 187.153 0.640905C187.452 0.662238 187.718 0.758238 187.953 0.928905C188.188 1.09957 188.294 1.27024 188.273 1.4409C188.252 1.65424 188.156 1.9209 187.985 2.24091C187.836 2.56091 187.644 2.78491 187.409 2.9129C187.025 3.0409 186.47 3.1369 185.745 3.2009C185.02 3.24357 184.273 3.26491 183.505 3.26491C182.737 3.26491 182.076 3.23291 181.521 3.16891ZM216.727 21.7609C216.343 21.7609 216.098 21.5476 215.991 21.1209C215.885 20.6729 215.821 20.1929 215.799 19.6809C215.799 19.1689 215.799 18.6889 215.799 18.2409C215.799 18.1556 215.799 18.0809 215.799 18.0169C215.799 17.9316 215.799 17.8462 215.799 17.7609V11.1369C215.309 11.1582 214.829 11.2009 214.359 11.2649C213.911 11.3289 213.495 11.3822 213.111 11.4249C212.962 12.4489 212.567 13.3662 211.927 14.1769C211.309 14.9662 210.519 15.5849 209.559 16.0329C208.621 16.4809 207.597 16.7262 206.487 16.7689C205.271 16.7902 204.151 16.5556 203.127 16.0649C202.103 15.5742 201.282 14.8809 200.663 13.9849C200.045 13.0676 199.735 12.0009 199.735 10.7849C199.735 9.63291 200.034 8.59824 200.631 7.6809C201.25 6.76357 202.061 6.02757 203.063 5.47291C204.087 4.91824 205.207 4.63024 206.423 4.60891C208.066 4.56624 209.495 4.93957 210.711 5.7289C211.949 6.51824 212.727 7.67024 213.047 9.18491C213.495 9.16357 213.954 9.14224 214.423 9.1209C214.914 9.09957 215.373 9.07824 215.799 9.05691V5.7609C215.799 5.18491 215.789 4.74757 215.767 4.44891C215.746 4.15024 215.671 3.90491 215.543 3.71291C215.415 3.52091 215.191 3.30757 214.871 3.0729C214.658 2.90224 214.509 2.75291 214.423 2.6249C214.338 2.47557 214.338 2.29424 214.423 2.08091C214.594 1.71824 214.818 1.47291 215.095 1.34491C215.373 1.19557 215.671 1.17424 215.991 1.2809C216.418 1.4089 216.813 1.5689 217.175 1.7609C217.538 1.9529 217.869 2.16624 218.167 2.40091C218.573 2.69957 218.775 2.97691 218.775 3.2329C218.733 3.51024 218.69 3.89424 218.647 4.3849C218.626 4.87557 218.615 5.36624 218.615 5.8569V17.6009C218.615 18.1342 218.562 18.7316 218.455 19.3929C218.37 20.0329 218.189 20.5876 217.911 21.0569C217.634 21.5262 217.239 21.7609 216.727 21.7609ZM221.623 22.8489C221.261 22.8489 221.015 22.6249 220.887 22.1769C220.781 21.7289 220.717 21.2489 220.695 20.7369C220.695 20.2249 220.695 19.7449 220.695 19.2969C220.695 19.2116 220.695 19.1369 220.695 19.0729C220.695 18.9876 220.695 18.9022 220.695 18.8169V4.92891C220.695 4.37424 220.674 3.94757 220.631 3.6489C220.61 3.35024 220.525 3.09424 220.375 2.88091C220.226 2.64624 219.959 2.39024 219.575 2.11291C219.362 1.94224 219.202 1.78224 219.095 1.6329C219.01 1.48357 219.021 1.30224 219.127 1.08891C219.469 0.406239 220.002 0.150239 220.727 0.320906C221.218 0.448905 221.687 0.630238 222.135 0.864904C222.605 1.09957 222.999 1.32357 223.319 1.53691C223.703 1.7929 223.895 2.05957 223.895 2.3369C223.853 2.61424 223.799 2.99824 223.735 3.4889C223.671 3.97957 223.639 4.47024 223.639 4.96091V18.6569C223.639 19.1902 223.575 19.7876 223.447 20.4489C223.341 21.0889 223.138 21.6542 222.839 22.1449C222.541 22.6142 222.135 22.8489 221.623 22.8489ZM210.583 30.0489C210.263 30.0276 209.901 29.9316 209.495 29.7609C209.111 29.5902 208.781 29.2916 208.503 28.8649C208.226 28.4596 208.087 27.8942 208.087 27.1689V24.8329C208.087 24.1929 208.066 23.7236 208.023 23.4249C208.002 23.1049 207.917 22.8489 207.767 22.6569C207.618 22.4649 207.362 22.2516 206.999 22.0169C206.807 21.8889 206.679 21.7502 206.615 21.6009C206.573 21.4516 206.605 21.2596 206.711 21.0249C206.882 20.6622 207.106 20.4382 207.383 20.3529C207.682 20.2676 207.981 20.2462 208.279 20.2889C208.642 20.3529 209.037 20.4702 209.463 20.6409C209.911 20.7902 210.295 20.9609 210.615 21.1529C210.85 21.3022 211.042 21.4516 211.191 21.6009C211.362 21.7289 211.447 21.8782 211.447 22.0489C211.362 22.4116 211.298 22.8382 211.255 23.3289C211.213 23.8196 211.191 24.2676 211.191 24.6729V26.7849C211.191 27.3182 211.266 27.6489 211.415 27.7769C211.565 27.8836 211.799 27.9476 212.119 27.9689C212.93 27.9902 213.783 28.0009 214.679 28.0009C215.597 28.0009 216.674 27.9689 217.911 27.9049C219.298 27.8409 220.493 27.7022 221.495 27.4889C222.498 27.2756 223.159 27.1262 223.479 27.0409C223.714 26.9556 223.906 26.9449 224.055 27.0089C224.205 27.0729 224.322 27.1689 224.407 27.2969C224.578 27.5102 224.749 27.7982 224.919 28.1609C225.09 28.5236 225.175 28.7689 225.175 28.8969C225.175 29.0676 225.047 29.2809 224.791 29.5369C224.557 29.7929 224.365 29.9209 224.215 29.9209C223.938 29.8996 223.501 29.8782 222.903 29.8569C222.306 29.8569 221.623 29.8569 220.855 29.8569C220.087 29.8569 219.298 29.8676 218.487 29.8889C218.274 29.8889 218.007 29.8889 217.687 29.8889C217.389 29.9102 217.047 29.9316 216.663 29.9529C216.002 29.9742 215.277 29.9956 214.487 30.0169C213.719 30.0382 212.983 30.0489 212.279 30.0489C211.575 30.0702 211.01 30.0702 210.583 30.0489ZM206.423 14.5929C207.511 14.5502 208.386 14.1876 209.047 13.5049C209.73 12.8222 210.071 11.8302 210.071 10.5289C210.093 9.22757 209.762 8.25691 209.079 7.61691C208.397 6.97691 207.533 6.67824 206.487 6.72091C205.378 6.76357 204.471 7.14757 203.767 7.87291C203.085 8.57691 202.743 9.53691 202.743 10.7529C202.743 12.0329 203.095 13.0036 203.799 13.6649C204.503 14.3049 205.378 14.6142 206.423 14.5929Z" fill="white"/>
</svg>
