<svg width="174" height="77" viewBox="0 0 174 77" fill="none" xmlns="http://www.w3.org/2000/svg">
<path d="M13.5358 15.5843C12.0212 15.6056 10.6558 15.371 9.43983 14.8803C8.24516 14.3683 7.29583 13.6216 6.59183 12.6403C5.88783 11.659 5.53583 10.4856 5.53583 9.1203C5.5785 7.81896 5.95183 6.67763 6.65583 5.6963C7.38116 4.71496 8.35183 3.9363 9.56783 3.3603C10.7838 2.76296 12.1492 2.44296 13.6638 2.4003C15.2425 2.35763 16.6505 2.5923 17.8878 3.1043C19.1252 3.59496 20.0958 4.33096 20.7998 5.3123C21.5038 6.2723 21.8238 7.44563 21.7598 8.8323C21.6958 10.1976 21.3012 11.3816 20.5758 12.3843C19.8505 13.387 18.8798 14.1656 17.6638 14.7203C16.4692 15.2536 15.0932 15.5416 13.5358 15.5843ZM2.75183 25.3443C2.45316 25.3443 2.15449 25.2376 1.85583 25.0243C1.51449 24.811 1.14116 24.523 0.735828 24.1603C0.351828 23.7763 0.138495 23.5096 0.0958282 23.3603C0.0318282 23.1683 0.117161 22.9123 0.351828 22.5923C0.586495 22.251 0.842495 22.1016 1.11983 22.1443C1.80249 22.2936 2.66649 22.4216 3.71183 22.5283C4.7785 22.6136 6.0265 22.6563 7.45583 22.6563C8.03183 22.6563 8.78916 22.6563 9.72783 22.6563C10.6878 22.635 11.6905 22.6136 12.7358 22.5923L12.7038 20.1923C12.7038 19.5736 12.6398 19.1043 12.5118 18.7843C12.4052 18.443 12.1918 18.1443 11.8718 17.8883C11.8505 17.867 11.8292 17.8456 11.8078 17.8243C11.6158 17.675 11.4878 17.547 11.4238 17.4403C11.3598 17.3336 11.3705 17.1736 11.4558 16.9603C11.6265 16.5976 11.8505 16.363 12.1278 16.2563C12.4052 16.1496 12.6825 16.1176 12.9598 16.1603C13.3225 16.2243 13.7065 16.3523 14.1118 16.5443C14.5385 16.715 14.9012 16.8856 15.1998 17.0563C15.6265 17.3123 15.8612 17.547 15.9038 17.7603C15.7332 18.443 15.6372 19.1683 15.6158 19.9363L15.4878 22.5283C16.3412 22.507 17.1305 22.4856 17.8558 22.4643C18.5812 22.4216 19.1678 22.3896 19.6158 22.3683C20.9385 22.283 22.1332 22.1763 23.1998 22.0483C24.2878 21.899 25.1625 21.739 25.8238 21.5683C26.1012 21.483 26.3358 21.4403 26.5278 21.4403C26.7625 21.4403 26.9758 21.579 27.1678 21.8563C27.3172 22.091 27.4772 22.4003 27.6478 22.7843C27.8185 23.1683 27.9038 23.435 27.9038 23.5843C27.9038 23.819 27.7545 24.0536 27.4558 24.2883C27.1572 24.5016 26.9438 24.6083 26.8158 24.6083C26.3038 24.5443 25.6638 24.5016 24.8958 24.4803C24.1278 24.4376 23.3278 24.4163 22.4958 24.4163C21.6852 24.395 20.9065 24.3843 20.1598 24.3843C18.3252 24.4056 16.3198 24.4483 14.1438 24.5123C11.9678 24.555 9.7385 24.619 7.45583 24.7043C7.1145 24.7256 6.65583 24.7683 6.07983 24.8323C5.52516 24.8963 4.98116 24.971 4.44783 25.0563C3.93583 25.1203 3.55183 25.1843 3.29583 25.2483C3.0825 25.3123 2.90116 25.3443 2.75183 25.3443ZM13.5358 13.4723C14.9652 13.4296 16.1492 12.9923 17.0878 12.1603C18.0265 11.3283 18.5065 10.219 18.5278 8.8323C18.5492 7.46696 18.1118 6.41096 17.2158 5.6643C16.3198 4.8963 15.1358 4.5123 13.6638 4.5123C12.0852 4.55496 10.8798 5.03496 10.0478 5.9523C9.21583 6.8483 8.7785 7.89363 8.73583 9.0883C8.73583 9.9843 8.94916 10.7736 9.37583 11.4563C9.8025 12.139 10.3785 12.6616 11.1038 13.0243C11.8292 13.3656 12.6398 13.515 13.5358 13.4723ZM38.7568 29.9843C38.2662 29.963 37.7968 29.7283 37.3488 29.2803C36.9222 28.8536 36.7088 28.203 36.7088 27.3283V25.5363C36.7088 25.4296 36.6875 25.355 36.6448 25.3123C36.6235 25.2483 36.5488 25.1736 36.4208 25.0883C36.1435 24.9176 35.9088 24.7576 35.7168 24.6083C35.5462 24.459 35.4502 24.331 35.4288 24.2243C35.4502 24.0536 35.5355 23.8296 35.6848 23.5523C35.8342 23.275 36.0155 23.1256 36.2288 23.1043C36.7195 23.1896 37.2955 23.2536 37.9568 23.2963C38.6395 23.339 39.1835 23.3603 39.5888 23.3603C39.9942 23.3603 40.5595 23.3603 41.2848 23.3603C42.0102 23.3603 42.8102 23.3496 43.6848 23.3283C44.5808 23.2856 45.4768 23.2536 46.3728 23.2323C47.2688 23.1896 48.0795 23.1363 48.8048 23.0723C48.8262 22.731 48.8475 22.379 48.8688 22.0163C48.8902 21.6536 48.9008 21.3016 48.9008 20.9603C48.9008 20.7896 48.8688 20.6936 48.8048 20.6723C48.7408 20.6296 48.6448 20.6083 48.5168 20.6083C48.2822 20.6083 47.8662 20.619 47.2688 20.6403C46.6928 20.6616 46.0315 20.6936 45.2848 20.7363C44.5382 20.779 43.8128 20.8216 43.1088 20.8643C42.4262 20.8856 41.8715 20.907 41.4448 20.9283C41.2315 20.9283 40.9328 20.9496 40.5488 20.9923C40.1648 21.0136 39.7702 21.0456 39.3648 21.0883C38.9808 21.131 38.6502 21.1843 38.3728 21.2483C37.9462 21.3336 37.6368 21.355 37.4448 21.3123C37.2528 21.2696 37.0608 21.1736 36.8688 21.0243C36.6768 20.8536 36.4315 20.6296 36.1328 20.3523C35.8555 20.075 35.6955 19.8936 35.6528 19.8083C35.6102 19.6163 35.6848 19.3923 35.8768 19.1363C36.0688 18.8803 36.2822 18.731 36.5168 18.6883C37.3488 18.859 38.2768 18.9656 39.3008 19.0083C40.3462 19.0296 41.4768 19.0296 42.6928 19.0083C43.0768 19.0083 43.5675 18.9976 44.1648 18.9763C44.7622 18.9336 45.3808 18.891 46.0208 18.8483C46.6822 18.7843 47.2795 18.7203 47.8128 18.6563C48.3462 18.571 48.7408 18.4856 48.9968 18.4003C49.1675 18.3363 49.2848 18.3043 49.3488 18.3043C49.4342 18.283 49.5515 18.2936 49.7008 18.3363L52.0048 18.8163C52.3462 18.8803 52.4528 19.1256 52.3248 19.5523C52.2395 19.8083 52.1115 20.267 51.9408 20.9283C51.7702 21.5896 51.6102 22.219 51.4608 22.8163C51.6955 22.9443 51.9195 23.0936 52.1328 23.2643C52.3462 23.435 52.4528 23.5736 52.4528 23.6803C52.4528 23.9363 52.3568 24.2136 52.1648 24.5123C51.9942 24.811 51.7808 25.003 51.5248 25.0883C50.8422 25.067 49.9888 25.0563 48.9648 25.0563C47.9622 25.0563 46.8955 25.067 45.7648 25.0883C44.6555 25.1096 43.5675 25.1416 42.5008 25.1843C41.4555 25.227 40.5488 25.2696 39.7808 25.3123V26.8163C39.7808 27.1576 39.8128 27.435 39.8768 27.6483C39.9622 27.8403 40.1328 27.947 40.3888 27.9683C41.1995 28.011 42.1595 28.0216 43.2688 28.0003C44.3782 28.0003 45.4235 27.9896 46.4048 27.9683C47.9195 27.9256 49.1888 27.819 50.2128 27.6483C51.2582 27.4776 51.9515 27.3283 52.2928 27.2003C52.5275 27.0936 52.7195 27.083 52.8688 27.1683C53.0182 27.2323 53.1355 27.3283 53.2208 27.4563C53.3915 27.6696 53.5622 27.9256 53.7328 28.2243C53.9035 28.5443 53.9888 28.7683 53.9888 28.8963C53.9888 29.067 53.8608 29.2803 53.6048 29.5363C53.3702 29.7923 53.1782 29.9203 53.0288 29.9203C52.7302 29.899 52.2502 29.8776 51.5888 29.8563C50.9275 29.8563 50.1915 29.8563 49.3808 29.8563C48.5702 29.8563 47.7595 29.867 46.9488 29.8883C46.6928 29.8883 46.2128 29.899 45.5088 29.9203C44.8262 29.9416 44.0368 29.9523 43.1408 29.9523C42.2662 29.9736 41.4235 29.9843 40.6128 29.9843C39.8235 30.0056 39.2048 30.0056 38.7568 29.9843ZM32.8368 16.2883C32.3675 16.395 32.0262 16.427 31.8128 16.3843C31.6208 16.3416 31.4075 16.235 31.1728 16.0643C31.0448 15.9576 30.8528 15.7976 30.5968 15.5843C30.3622 15.371 30.1275 15.1576 29.8928 14.9443C29.6795 14.731 29.5515 14.571 29.5088 14.4643C29.4662 14.2936 29.5622 14.0483 29.7968 13.7283C30.0315 13.4083 30.2768 13.259 30.5328 13.2803C31.2155 13.4296 32.0262 13.547 32.9648 13.6323C33.9248 13.6963 34.9382 13.739 36.0048 13.7603C37.0288 13.7603 38.1595 13.7603 39.3968 13.7603C40.6342 13.739 41.8822 13.707 43.1408 13.6643C44.4208 13.6216 45.6262 13.579 46.7568 13.5363C47.8875 13.4936 48.8582 13.451 49.6688 13.4083C50.9915 13.323 52.2182 13.2163 53.3488 13.0883C54.5008 12.9603 55.4075 12.811 56.0688 12.6403C56.4955 12.5336 56.7835 12.5016 56.9328 12.5443C57.1035 12.5656 57.2635 12.6936 57.4128 12.9283C57.5622 13.1416 57.7222 13.4403 57.8928 13.8243C58.0635 14.187 58.1488 14.443 58.1488 14.5923C58.1275 14.827 57.9675 15.0616 57.6688 15.2963C57.3915 15.5096 57.1888 15.6163 57.0608 15.6163C56.4635 15.5523 55.8768 15.5096 55.3008 15.4883C54.7462 15.4456 54.0848 15.4136 53.3168 15.3923C52.5702 15.371 51.5995 15.3603 50.4048 15.3603C49.1888 15.3603 47.8128 15.3816 46.2768 15.4243C44.7408 15.4456 43.2048 15.4883 41.6688 15.5523C40.1328 15.6163 38.7462 15.6803 37.5088 15.7443C36.5915 15.787 35.7488 15.8616 34.9808 15.9683C34.2128 16.0536 33.4982 16.1603 32.8368 16.2883ZM37.4768 10.4643C36.9862 10.4643 36.5488 10.2403 36.1648 9.7923C35.8022 9.3443 35.6208 8.56563 35.6208 7.4563V6.0803C35.6208 5.46163 35.5995 4.97096 35.5568 4.6083C35.5355 4.24563 35.4395 3.94696 35.2688 3.7123C35.1195 3.4563 34.8528 3.21096 34.4688 2.9763C34.0848 2.7203 33.9888 2.37896 34.1808 1.9523C34.3515 1.61096 34.5755 1.38696 34.8528 1.2803C35.1515 1.1523 35.4502 1.13096 35.7488 1.2163C36.1115 1.30163 36.5168 1.45096 36.9648 1.6643C37.4128 1.8563 37.7968 2.06963 38.1168 2.3043C38.3515 2.47496 38.5542 2.64563 38.7248 2.8163C38.9168 2.98696 39.0022 3.15763 38.9808 3.3283C38.8955 3.69096 38.8315 4.11763 38.7888 4.6083C38.7675 5.07763 38.7568 5.51496 38.7568 5.9203V7.1683C38.7568 7.76563 38.8102 8.1283 38.9168 8.2563C39.0448 8.3843 39.3222 8.4483 39.7488 8.4483C40.5595 8.4483 41.4022 8.43763 42.2768 8.4163C43.1515 8.37363 44.3142 8.30963 45.7648 8.2243C47.2795 8.13896 48.4848 8.01096 49.3808 7.8403C50.2768 7.6483 50.8848 7.49896 51.2048 7.3923C51.4395 7.30696 51.6315 7.2963 51.7808 7.3603C51.9302 7.4243 52.0475 7.53096 52.1328 7.6803C52.3035 7.89363 52.4742 8.18163 52.6448 8.5443C52.8155 8.88563 52.9008 9.10963 52.9008 9.2163C52.9008 9.38696 52.7728 9.6003 52.5168 9.8563C52.2822 10.1123 52.0902 10.2403 51.9408 10.2403C51.5355 10.1976 50.7995 10.1763 49.7328 10.1763C48.6662 10.1763 47.5355 10.187 46.3408 10.2083C46.1488 10.2083 45.7755 10.219 45.2208 10.2403C44.6875 10.2616 44.0475 10.283 43.3008 10.3043C42.5755 10.3256 41.8288 10.347 41.0608 10.3683C40.3142 10.3896 39.6208 10.411 38.9808 10.4323C38.3408 10.4536 37.8395 10.4643 37.4768 10.4643ZM70.1476 14.9763C68.8462 14.9976 67.6409 14.763 66.5316 14.2723C65.4222 13.7816 64.5369 13.0776 63.8756 12.1603C63.2142 11.243 62.8836 10.187 62.8836 8.9923C62.8836 7.8403 63.2142 6.80563 63.8756 5.8883C64.5369 4.94963 65.4116 4.20296 66.4996 3.6483C67.6089 3.0723 68.8142 2.77363 70.1156 2.7523C71.4169 2.70963 72.6116 2.93363 73.6996 3.4243C74.8089 3.89363 75.6942 4.5763 76.3556 5.4723C77.0382 6.3683 77.3796 7.4563 77.3796 8.7363C77.3796 9.8883 77.0382 10.9336 76.3556 11.8723C75.6942 12.811 74.8196 13.5576 73.7316 14.1123C72.6436 14.6456 71.4489 14.9336 70.1476 14.9763ZM82.0516 28.7363C81.6676 28.7363 81.4222 28.4696 81.3156 27.9363C81.2089 27.4243 81.1449 26.795 81.1236 26.0483C81.1236 25.2803 81.1236 24.6723 81.1236 24.2243C81.1236 24.0963 81.1236 24.011 81.1236 23.9683V4.7043C81.1236 4.10696 81.1022 3.65896 81.0596 3.3603C81.0169 3.0403 80.8996 2.7843 80.7076 2.5923C80.5369 2.4003 80.2382 2.1763 79.8116 1.9203C79.5982 1.7923 79.4382 1.64296 79.3316 1.4723C79.2462 1.30163 79.2569 1.09896 79.3636 0.864296C79.5342 0.501629 79.7582 0.266962 80.0356 0.160295C80.3129 0.0536289 80.6222 0.0322959 80.9636 0.0962963C81.4542 0.181629 81.9662 0.352295 82.4996 0.608295C83.0329 0.864296 83.4702 1.10963 83.8116 1.3443C84.1956 1.6003 84.3876 1.8563 84.3876 2.1123C84.3449 2.38963 84.2916 2.77363 84.2276 3.2643C84.1636 3.75496 84.1316 4.24563 84.1316 4.7363L84.0996 23.8083C84.0996 24.2136 84.0676 24.6936 84.0036 25.2483C83.9396 25.803 83.8329 26.347 83.6836 26.8803C83.5342 27.4136 83.3209 27.851 83.0436 28.1923C82.7876 28.555 82.4569 28.7363 82.0516 28.7363ZM70.1156 12.8643C71.2889 12.8216 72.2702 12.4376 73.0596 11.7123C73.8489 10.9656 74.2436 9.97363 74.2436 8.7363C74.2436 7.3923 73.8489 6.38963 73.0596 5.7283C72.2916 5.06696 71.3209 4.7683 70.1476 4.8323C68.9316 4.8963 67.9182 5.29096 67.1076 6.0163C66.2969 6.74163 65.8916 7.72296 65.8916 8.9603C65.8916 10.1976 66.2969 11.1683 67.1076 11.8723C67.9182 12.555 68.9209 12.8856 70.1156 12.8643ZM63.4916 22.1443C63.2782 22.1656 63.0862 22.1763 62.9156 22.1763C62.7449 22.155 62.5422 22.0803 62.3076 21.9523C62.1582 21.867 61.9129 21.7176 61.5716 21.5043C61.2302 21.2696 60.9209 21.035 60.6436 20.8003C60.3662 20.5656 60.2276 20.4056 60.2276 20.3203C60.2276 20.0856 60.3342 19.8403 60.5476 19.5843C60.7609 19.3283 60.9422 19.1683 61.0916 19.1043C61.8382 19.1896 62.6382 19.2536 63.4916 19.2963C64.3449 19.339 65.0382 19.3496 65.5716 19.3283C66.4889 19.307 67.5556 19.2643 68.7716 19.2003C70.0089 19.115 71.2782 19.0083 72.5796 18.8803C73.8809 18.7523 75.1182 18.5923 76.2916 18.4003C77.4649 18.2083 78.4462 17.9843 79.2356 17.7283C79.5769 17.6216 79.8329 17.643 80.0036 17.7923C80.1742 17.9416 80.2596 18.1016 80.2596 18.2723C80.2596 19.0403 79.8542 19.531 79.0436 19.7443C78.5102 19.8936 77.7956 20.043 76.8996 20.1923C76.0036 20.3416 75.0436 20.491 74.0196 20.6403C72.9956 20.7896 71.9929 20.9283 71.0116 21.0563C70.0302 21.163 69.1662 21.259 68.4196 21.3443C67.5662 21.4296 66.6596 21.5683 65.6996 21.7603C64.7609 21.931 64.0249 22.059 63.4916 22.1443ZM107.698 19.7123C106.311 19.7336 105.149 19.499 104.21 19.0083C103.271 18.5176 102.557 17.8883 102.066 17.1203C101.597 16.331 101.362 15.5523 101.362 14.7843C101.362 13.9736 101.565 13.1843 101.97 12.4163C102.375 11.627 103.037 10.9656 103.954 10.4323C104.871 9.89896 106.087 9.62163 107.602 9.6003C108.583 9.57896 109.565 9.7283 110.546 10.0483C111.527 10.347 112.338 10.859 112.978 11.5843C113.639 12.2883 113.97 13.2483 113.97 14.4643C113.97 15.2963 113.735 16.107 113.266 16.8963C112.818 17.6856 112.125 18.347 111.186 18.8803C110.269 19.3923 109.106 19.6696 107.698 19.7123ZM119.378 23.2643C118.994 23.2643 118.749 23.051 118.642 22.6243C118.535 22.1336 118.471 21.5683 118.45 20.9283C118.429 20.2883 118.418 19.755 118.418 19.3283C118.418 19.2216 118.418 19.147 118.418 19.1043V4.7043C118.418 4.10696 118.397 3.65896 118.354 3.3603C118.311 3.06163 118.194 2.8163 118.002 2.6243C117.831 2.41096 117.543 2.1763 117.138 1.9203C116.925 1.7923 116.765 1.64296 116.658 1.4723C116.573 1.2803 116.583 1.07763 116.69 0.864296C116.861 0.501629 117.085 0.266962 117.362 0.160295C117.639 0.0536289 117.949 0.0322959 118.29 0.0962963C118.781 0.181629 119.282 0.352295 119.794 0.608295C120.306 0.842962 120.733 1.07763 121.074 1.3123C121.458 1.58963 121.65 1.8563 121.65 2.1123C121.607 2.38963 121.554 2.77363 121.49 3.2643C121.426 3.75496 121.394 4.24563 121.394 4.7363V11.4883C122.226 11.403 122.973 11.275 123.634 11.1043C124.317 10.9123 124.797 10.7736 125.074 10.6883C125.309 10.603 125.501 10.5923 125.65 10.6563C125.799 10.699 125.917 10.7843 126.002 10.9123C126.173 11.1256 126.343 11.4243 126.514 11.8083C126.685 12.1923 126.77 12.459 126.77 12.6083C126.77 12.8216 126.631 13.035 126.354 13.2483C126.098 13.4616 125.895 13.5683 125.746 13.5683C125.085 13.4616 124.37 13.3976 123.602 13.3763C122.855 13.3336 122.119 13.3123 121.394 13.3123V18.9443C121.394 19.4776 121.33 20.075 121.202 20.7363C121.095 21.3976 120.893 21.9843 120.594 22.4963C120.295 22.987 119.89 23.243 119.378 23.2643ZM108.658 29.8243C108.338 29.803 107.975 29.7283 107.57 29.6003C107.186 29.4936 106.855 29.259 106.578 28.8963C106.301 28.5336 106.162 27.9896 106.162 27.2643V25.6323C106.162 25.0563 106.141 24.6296 106.098 24.3523C106.055 24.0536 105.959 23.8296 105.81 23.6803C105.682 23.5096 105.447 23.3283 105.106 23.1363C104.722 22.9016 104.615 22.571 104.786 22.1443C104.935 21.7816 105.149 21.547 105.426 21.4403C105.725 21.3336 106.023 21.3016 106.322 21.3443C106.685 21.4083 107.09 21.515 107.538 21.6643C107.986 21.8136 108.359 21.9736 108.658 22.1443C108.893 22.2936 109.095 22.4323 109.266 22.5603C109.437 22.6883 109.522 22.8376 109.522 23.0083C109.437 23.371 109.373 23.7976 109.33 24.2883C109.287 24.7576 109.266 25.1523 109.266 25.4723V26.8803C109.266 27.2216 109.309 27.4456 109.394 27.5523C109.479 27.659 109.629 27.723 109.842 27.7443C110.653 27.7656 111.57 27.7763 112.594 27.7763C113.618 27.7763 114.749 27.7443 115.986 27.6803C117.373 27.595 118.567 27.4563 119.57 27.2643C120.573 27.051 121.234 26.9016 121.554 26.8163C121.789 26.731 121.981 26.7203 122.13 26.7843C122.279 26.8483 122.397 26.9443 122.482 27.0723C122.653 27.2856 122.823 27.5736 122.994 27.9363C123.165 28.299 123.25 28.5443 123.25 28.6723C123.25 28.843 123.122 29.0563 122.866 29.3123C122.631 29.5683 122.439 29.6963 122.29 29.6963C122.013 29.675 121.575 29.6536 120.978 29.6323C120.381 29.6323 119.698 29.6323 118.93 29.6323C118.162 29.6323 117.373 29.643 116.562 29.6643C116.349 29.6643 116.082 29.6643 115.762 29.6643C115.463 29.6856 115.122 29.707 114.738 29.7283C114.077 29.7496 113.351 29.771 112.562 29.7923C111.794 29.8136 111.058 29.8243 110.354 29.8243C109.65 29.8456 109.085 29.8456 108.658 29.8243ZM101.074 8.8323C100.669 8.91763 100.381 8.94963 100.21 8.9283C100.039 8.90696 99.8367 8.78963 99.6021 8.5763C99.4527 8.4483 99.2501 8.2563 98.9941 8.0003C98.7381 7.72296 98.5567 7.4883 98.4501 7.2963C98.4074 7.1043 98.4927 6.8803 98.7061 6.6243C98.9194 6.3683 99.1114 6.2403 99.2821 6.2403C99.6234 6.3043 100.093 6.35763 100.69 6.4003C101.287 6.44296 101.949 6.47496 102.674 6.4963C103.399 6.4963 104.114 6.4963 104.818 6.4963C105.543 6.4963 106.194 6.48563 106.77 6.4643C108.989 6.4003 110.77 6.2723 112.114 6.0803C113.479 5.8883 114.429 5.7283 114.962 5.6003C115.367 5.49363 115.655 5.5683 115.826 5.8243C115.997 6.10163 116.125 6.4003 116.21 6.72029C116.317 7.0403 116.37 7.25363 116.37 7.3603C116.37 7.53096 116.242 7.73363 115.986 7.9683C115.751 8.18163 115.559 8.27763 115.41 8.2563C114.855 8.21363 114.109 8.1923 113.17 8.1923C112.253 8.17096 111.261 8.17096 110.194 8.1923C109.149 8.1923 108.157 8.2243 107.218 8.2883C106.663 8.30963 106.013 8.3523 105.266 8.4163C104.519 8.45896 103.773 8.5123 103.026 8.5763C102.301 8.6403 101.65 8.72563 101.074 8.8323ZM107.634 17.6003C108.679 17.5576 109.49 17.227 110.066 16.6083C110.663 15.9683 110.962 15.2003 110.962 14.3043C110.962 13.899 110.855 13.4723 110.642 13.0243C110.429 12.5763 110.087 12.1923 109.618 11.8723C109.17 11.531 108.573 11.3603 107.826 11.3603C106.589 11.3603 105.682 11.691 105.106 12.3523C104.551 13.0136 104.274 13.771 104.274 14.6243C104.274 15.435 104.573 16.139 105.17 16.7363C105.789 17.3336 106.61 17.6216 107.634 17.6003ZM106.322 4.4163C105.917 4.3523 105.447 4.24563 104.914 4.0963C104.381 3.94696 103.869 3.76563 103.378 3.5523C102.887 3.31763 102.503 3.08296 102.226 2.8483C102.119 2.6563 102.141 2.38963 102.29 2.0483C102.439 1.70696 102.663 1.52563 102.962 1.5043C103.773 1.65363 104.605 1.77096 105.458 1.8563C106.333 1.94163 107.165 1.98429 107.954 1.98429C108.637 1.98429 109.298 1.96296 109.938 1.9203C110.578 1.87763 111.101 1.83496 111.506 1.7923C111.847 1.81363 112.125 1.9203 112.338 2.1123C112.573 2.3043 112.69 2.48563 112.69 2.6563C112.669 2.82696 112.573 3.0723 112.402 3.3923C112.231 3.69096 112.018 3.91496 111.762 4.06429C111.399 4.1923 110.887 4.29896 110.226 4.3843C109.565 4.4483 108.882 4.49096 108.178 4.5123C107.474 4.5123 106.855 4.4803 106.322 4.4163ZM140.25 18.6243C140.08 18.731 139.824 18.8163 139.482 18.8803C139.162 18.923 138.853 18.923 138.554 18.8803C138.256 18.8163 138.064 18.6776 137.978 18.4643C137.957 18.3576 137.968 18.2296 138.01 18.0803C138.053 17.9096 138.16 17.7496 138.33 17.6003C139.397 16.811 140.378 15.9256 141.274 14.9443C142.192 13.9416 142.992 12.9283 143.674 11.9043C144.378 10.859 144.933 9.87763 145.338 8.9603C145.744 8.04296 145.957 7.2643 145.978 6.6243C145.978 6.3683 145.904 6.15496 145.754 5.98429C145.157 6.02696 144.56 6.09096 143.962 6.1763C143.386 6.2403 142.789 6.32563 142.17 6.4323C141.765 6.51763 141.477 6.54963 141.306 6.5283C141.136 6.50696 140.933 6.38963 140.698 6.1763C140.549 6.0483 140.346 5.84563 140.09 5.5683C139.834 5.29096 139.653 5.0563 139.546 4.8643C139.504 4.6723 139.589 4.4483 139.802 4.1923C140.016 3.91496 140.208 3.7763 140.378 3.7763C141.061 3.92563 141.85 4.01096 142.746 4.0323C143.664 4.0323 144.688 4.02163 145.818 4.0003C147.312 3.9363 148.528 3.85096 149.466 3.7443C150.426 3.63763 151.194 3.53096 151.77 3.4243C152.346 3.2963 152.805 3.2003 153.146 3.1363C153.381 3.09363 153.552 3.09363 153.658 3.1363C153.786 3.17896 153.893 3.2643 153.978 3.3923C154.149 3.66963 154.288 3.97896 154.394 4.3203C154.501 4.66163 154.554 4.88563 154.554 4.9923C154.554 5.16296 154.426 5.35496 154.17 5.5683C153.936 5.78163 153.744 5.8883 153.594 5.8883C152.997 5.84563 152.24 5.81363 151.322 5.7923C150.426 5.77096 149.456 5.78163 148.41 5.8243C148.709 5.99496 148.954 6.19763 149.146 6.4323C149.338 6.64563 149.424 6.83763 149.402 7.0083C149.189 7.62696 148.933 8.24563 148.634 8.8643C148.357 9.46163 148.037 10.059 147.674 10.6563C148.933 11.5096 149.968 12.139 150.778 12.5443C151.61 12.9496 152.357 13.2376 153.018 13.4083C153.21 13.4936 153.434 13.707 153.69 14.0483C153.968 14.3683 154.202 14.7416 154.394 15.1683C154.608 15.5736 154.725 15.9576 154.746 16.3203C154.725 16.7043 154.501 17.0136 154.074 17.2483C153.648 17.4616 153.296 17.547 153.018 17.5043C152.464 16.8643 151.813 16.2243 151.066 15.5843C150.341 14.923 149.605 14.2936 148.858 13.6963C148.112 13.099 147.429 12.5656 146.81 12.0963C145.829 13.5256 144.741 14.8163 143.546 15.9683C142.373 17.1203 141.274 18.0056 140.25 18.6243ZM158.714 22.3043C158.33 22.3043 158.085 22.091 157.978 21.6643C157.872 21.1736 157.808 20.6083 157.786 19.9683C157.765 19.3283 157.754 18.795 157.754 18.3683C157.754 18.2616 157.754 18.187 157.754 18.1443V4.7043C157.754 4.10696 157.722 3.65896 157.658 3.3603C157.616 3.06163 157.498 2.8163 157.306 2.6243C157.114 2.41096 156.816 2.1763 156.41 1.9203C156.197 1.7923 156.037 1.64296 155.93 1.4723C155.845 1.2803 155.856 1.07763 155.962 0.864296C156.133 0.501629 156.357 0.266962 156.634 0.160295C156.912 0.0536289 157.221 0.0322959 157.562 0.0962963C158.053 0.181629 158.565 0.352295 159.098 0.608295C159.632 0.842962 160.069 1.07763 160.41 1.3123C160.794 1.58963 160.986 1.8563 160.986 2.1123C160.944 2.38963 160.89 2.77363 160.826 3.2643C160.762 3.75496 160.73 4.24563 160.73 4.7363V10.8483C161.562 10.763 162.309 10.635 162.97 10.4643C163.653 10.2723 164.133 10.1336 164.41 10.0483C164.645 9.96296 164.837 9.9523 164.986 10.0163C165.136 10.059 165.253 10.1443 165.338 10.2723C165.509 10.4856 165.68 10.7843 165.85 11.1683C166.021 11.5523 166.106 11.819 166.106 11.9683C166.106 12.1816 165.968 12.395 165.69 12.6083C165.434 12.8216 165.232 12.9283 165.082 12.9283C164.421 12.8216 163.706 12.7576 162.938 12.7363C162.192 12.6936 161.456 12.6723 160.73 12.6723V17.9843C160.73 18.5176 160.666 19.115 160.538 19.7763C160.432 20.4376 160.229 21.0243 159.93 21.5363C159.632 22.027 159.226 22.283 158.714 22.3043ZM147.994 29.8243C147.674 29.803 147.312 29.707 146.906 29.5363C146.522 29.3656 146.192 29.067 145.914 28.6403C145.637 28.235 145.498 27.6696 145.498 26.9443V24.6083C145.498 23.9683 145.477 23.499 145.434 23.2003C145.413 22.8803 145.328 22.6243 145.178 22.4323C145.029 22.2403 144.773 22.027 144.41 21.7923C144.218 21.6643 144.09 21.5256 144.026 21.3763C143.984 21.227 144.016 21.035 144.122 20.8003C144.293 20.4376 144.517 20.2136 144.794 20.1283C145.093 20.043 145.392 20.0216 145.69 20.0643C146.053 20.1283 146.448 20.2456 146.874 20.4163C147.322 20.5656 147.706 20.7363 148.026 20.9283C148.261 21.0776 148.453 21.227 148.602 21.3763C148.773 21.5043 148.858 21.6536 148.858 21.8243C148.773 22.187 148.709 22.6136 148.666 23.1043C148.624 23.595 148.602 24.043 148.602 24.4483V26.5603C148.602 27.0936 148.677 27.4243 148.826 27.5523C148.976 27.659 149.21 27.723 149.53 27.7443C150.341 27.7656 151.194 27.7763 152.09 27.7763C153.008 27.7763 154.085 27.7443 155.322 27.6803C156.709 27.6163 157.904 27.4776 158.906 27.2643C159.909 27.051 160.57 26.9016 160.89 26.8163C161.125 26.731 161.317 26.7203 161.466 26.7843C161.616 26.8483 161.733 26.9443 161.818 27.0723C161.989 27.2856 162.16 27.5736 162.33 27.9363C162.501 28.299 162.586 28.5443 162.586 28.6723C162.586 28.843 162.458 29.0563 162.202 29.3123C161.968 29.5683 161.776 29.6963 161.626 29.6963C161.349 29.675 160.912 29.6536 160.314 29.6323C159.717 29.6323 159.034 29.6323 158.266 29.6323C157.498 29.6323 156.709 29.643 155.898 29.6643C155.685 29.6643 155.418 29.6643 155.098 29.6643C154.8 29.6856 154.458 29.707 154.074 29.7283C153.413 29.7496 152.688 29.771 151.898 29.7923C151.13 29.8136 150.394 29.8243 149.69 29.8243C148.986 29.8456 148.421 29.8456 147.994 29.8243ZM168.504 29.6643C169.357 29.387 170.018 29.003 170.488 28.5123C170.957 28.0216 171.256 27.435 171.384 26.7523C171.234 26.7736 171.096 26.7843 170.968 26.7843C170.37 26.7843 169.88 26.5816 169.496 26.1763C169.112 25.771 168.92 25.2376 168.92 24.5763C168.92 24.0216 169.144 23.5523 169.592 23.1683C170.04 22.7843 170.573 22.603 171.192 22.6243C171.938 22.6456 172.525 22.923 172.952 23.4563C173.4 23.9896 173.624 24.7363 173.624 25.6963C173.624 27.0403 173.272 28.1923 172.568 29.1523C171.864 30.1123 171 30.7736 169.976 31.1363C169.784 31.2003 169.592 31.1896 169.4 31.1043C169.208 31.0403 169.058 30.891 168.952 30.6563L168.504 29.6643ZM39.2131 74.7363C38.8291 74.7363 38.5837 74.4696 38.4771 73.9363C38.4131 73.5523 38.3597 73.1043 38.3171 72.5923C38.2957 72.059 38.2744 71.5576 38.2531 71.0883C38.2531 70.5976 38.2531 70.2243 38.2531 69.9683V60.0803L35.0851 60.2083V68.9123C35.0851 69.3176 35.0531 69.787 34.9891 70.3203C34.9251 70.8323 34.8184 71.3443 34.6691 71.8563C34.5197 72.347 34.3171 72.763 34.0611 73.1043C33.8264 73.4243 33.5171 73.5843 33.1331 73.5843C32.7277 73.5843 32.4931 73.3176 32.4291 72.7843C32.3864 72.4216 32.3437 72.0056 32.3011 71.5363C32.2797 71.0456 32.2584 70.5763 32.2371 70.1283C32.2371 69.6803 32.2371 69.3283 32.2371 69.0723V51.9203C32.2371 51.323 32.2157 50.875 32.1731 50.5763C32.1304 50.2563 32.0344 50.0003 31.8851 49.8083C31.7357 49.595 31.5117 49.371 31.2131 49.1363C30.9997 48.9656 30.8397 48.8056 30.7331 48.6563C30.6477 48.507 30.6584 48.3256 30.7651 48.1123C31.1277 47.387 31.6611 47.131 32.3651 47.3443C32.7917 47.4723 33.1971 47.643 33.5811 47.8563C33.9864 48.0696 34.3384 48.283 34.6371 48.4963C35.0424 48.7736 35.2451 49.0403 35.2451 49.2963C35.1811 49.5736 35.1384 49.9576 35.1171 50.4483C35.0957 50.939 35.0851 51.4296 35.0851 51.9203V58.1283C35.5544 58.1283 36.0664 58.1176 36.6211 58.0963C37.1757 58.075 37.7197 58.043 38.2531 58.0003V50.7043C38.2531 50.107 38.2317 49.659 38.1891 49.3603C38.1464 49.0616 38.0504 48.8163 37.9011 48.6243C37.7517 48.411 37.4957 48.1763 37.1331 47.9203C36.9197 47.7496 36.7597 47.5896 36.6531 47.4403C36.5677 47.291 36.5784 47.099 36.6851 46.8643C37.0264 46.1816 37.5597 45.9256 38.2851 46.0963C38.7757 46.2243 39.2451 46.4056 39.6931 46.6403C40.1624 46.875 40.5677 47.1096 40.9091 47.3443C41.2931 47.6003 41.4851 47.8563 41.4851 48.1123C41.4424 48.3896 41.3891 48.7736 41.3251 49.2643C41.2611 49.755 41.2291 50.2456 41.2291 50.7363L41.1971 69.8083C41.1971 70.2136 41.1651 70.6936 41.1011 71.2483C41.0584 71.803 40.9624 72.347 40.8131 72.8803C40.6637 73.4136 40.4611 73.851 40.2051 74.1923C39.9491 74.555 39.6184 74.7363 39.2131 74.7363ZM21.3891 66.4803C20.8771 66.395 20.4397 66.075 20.0771 65.5203C19.7357 64.9443 19.5651 64.315 19.5651 63.6323V55.3443C19.5651 54.4056 19.5011 53.691 19.3731 53.2003C19.2451 52.7096 18.9464 52.2616 18.4771 51.8563C18.1144 51.5576 18.0397 51.227 18.2531 50.8643C18.4664 50.523 18.7117 50.3096 18.9891 50.2243C19.2664 50.1176 19.5437 50.107 19.8211 50.1923C20.1837 50.2776 20.5784 50.4376 21.0051 50.6723C21.4317 50.8856 21.7944 51.1203 22.0931 51.3763C22.6051 51.7603 22.8611 52.123 22.8611 52.4643C22.7757 52.8483 22.7117 53.307 22.6691 53.8403C22.6264 54.3736 22.6051 54.843 22.6051 55.2483V62.5443C22.6051 63.0136 22.6584 63.323 22.7651 63.4723C22.8717 63.6216 23.1384 63.6856 23.5651 63.6643C24.8024 63.5576 26.0291 63.355 27.2451 63.0563C28.4824 62.7363 29.5277 62.4056 30.3811 62.0643C30.7224 61.9363 30.9891 61.9363 31.1811 62.0643C31.3731 62.1923 31.4691 62.3523 31.4691 62.5443C31.4691 62.907 31.3731 63.2056 31.1811 63.4403C31.0104 63.675 30.6264 63.9416 30.0291 64.2403C29.6877 64.4323 29.1651 64.6563 28.4611 64.9123C27.7571 65.147 26.9784 65.3923 26.1251 65.6483C25.2717 65.883 24.4184 66.0856 23.5651 66.2563C22.7331 66.4056 22.0077 66.4803 21.3891 66.4803ZM53.7298 60.9123C52.4285 60.9336 51.2338 60.7096 50.1458 60.2403C49.0578 59.7496 48.1938 59.0456 47.5538 58.1283C46.9138 57.211 46.5938 56.1336 46.5938 54.8963C46.5938 53.7443 46.9138 52.699 47.5538 51.7603C48.2152 50.8216 49.0792 50.075 50.1458 49.5203C51.2338 48.9443 52.4178 48.6456 53.6978 48.6243C54.9992 48.5816 56.1832 48.795 57.2498 49.2643C58.3378 49.7123 59.2018 50.395 59.8418 51.3123C60.5032 52.2083 60.8338 53.3176 60.8338 54.6403C60.8338 55.8136 60.5032 56.8696 59.8418 57.8083C59.2018 58.747 58.3378 59.4936 57.2498 60.0483C56.1832 60.5816 55.0098 60.8696 53.7298 60.9123ZM55.6498 75.9843C55.1592 75.963 54.6898 75.7283 54.2418 75.2803C53.8152 74.8536 53.6018 74.203 53.6018 73.3283V71.1843C53.5805 71.0563 53.4632 70.9176 53.2498 70.7683C52.9938 70.5976 52.7805 70.4483 52.6098 70.3203C52.4605 70.171 52.3752 70.043 52.3538 69.9363C52.3752 69.7656 52.4712 69.5416 52.6418 69.2643C52.8125 68.9656 53.0045 68.8056 53.2178 68.7843C53.7085 68.8483 54.2738 68.9016 54.9138 68.9443C55.5538 68.9656 56.0765 68.987 56.4818 69.0083C56.9085 69.0296 57.4738 69.0403 58.1778 69.0403C58.9032 69.019 59.6925 68.9976 60.5458 68.9763C61.3992 68.955 62.2632 68.923 63.1378 68.8803C64.0125 68.8163 64.8125 68.7523 65.5378 68.6883C65.5805 68.3043 65.6125 67.8883 65.6338 67.4403C65.6552 66.9923 65.6658 66.5656 65.6658 66.1603C65.6658 65.9896 65.6338 65.8936 65.5698 65.8723C65.5058 65.8296 65.4098 65.8083 65.2818 65.8083C65.0472 65.8083 64.6418 65.8296 64.0658 65.8723C63.4898 65.8936 62.8392 65.9256 62.1138 65.9683C61.4098 65.9896 60.7165 66.0216 60.0338 66.0643C59.3725 66.107 58.8285 66.139 58.4018 66.1603C58.1885 66.1603 57.8898 66.1816 57.5058 66.2243C57.1432 66.2456 56.7592 66.2776 56.3538 66.3203C55.9698 66.363 55.6392 66.4163 55.3618 66.4803C54.9352 66.5656 54.6258 66.5976 54.4338 66.5763C54.2418 66.555 54.0498 66.4696 53.8578 66.3203C53.6445 66.1496 53.3778 65.915 53.0578 65.6163C52.7592 65.3176 52.5885 65.1256 52.5458 65.0403C52.5032 64.8483 52.5778 64.6243 52.7698 64.3683C52.9618 64.1123 53.1752 63.963 53.4098 63.9203C54.2418 64.091 55.1912 64.187 56.2578 64.2083C57.3458 64.2083 58.4978 64.1976 59.7138 64.1763C60.4392 64.155 61.1965 64.123 61.9858 64.0803C62.7965 64.0376 63.5432 63.9736 64.2258 63.8883C64.9085 63.803 65.4098 63.707 65.7298 63.6003C65.8792 63.5363 65.9858 63.5043 66.0498 63.5043C66.1138 63.5043 66.1885 63.515 66.2738 63.5363C66.3378 63.5576 66.3912 63.5683 66.4338 63.5683L68.7378 64.0483C69.0792 64.1123 69.1858 64.3576 69.0578 64.7843C69.0152 64.955 68.9298 65.2536 68.8018 65.6803C68.6738 66.107 68.5458 66.5763 68.4178 67.0883C68.3112 67.579 68.2152 68.0163 68.1298 68.4003C68.3645 68.5283 68.5992 68.699 68.8338 68.9123C69.0898 69.1043 69.2178 69.2536 69.2178 69.3603C69.2178 69.6163 69.1218 69.8936 68.9298 70.1923C68.7592 70.491 68.5458 70.683 68.2898 70.7683C67.6072 70.747 66.7645 70.7363 65.7618 70.7363C64.7592 70.7363 63.7032 70.747 62.5938 70.7683C61.4845 70.7896 60.4072 70.8216 59.3618 70.8643C58.3378 70.907 57.4418 70.9496 56.6738 70.9923V72.8163C56.6738 73.1576 56.7058 73.435 56.7698 73.6483C56.8552 73.8403 57.0258 73.947 57.2818 73.9683C58.0925 74.011 59.0525 74.0216 60.1618 74.0003C61.2925 73.979 62.3485 73.9576 63.3298 73.9363C64.8445 73.8936 66.0925 73.787 67.0738 73.6163C68.0552 73.4456 68.7165 73.2963 69.0578 73.1683C69.2925 73.0616 69.4845 73.051 69.6338 73.1363C69.7832 73.2003 69.9005 73.2963 69.9858 73.4243C70.1565 73.6376 70.3272 73.915 70.4978 74.2563C70.6685 74.5976 70.7538 74.8216 70.7538 74.9283C70.7538 75.099 70.6258 75.3123 70.3698 75.5683C70.1352 75.8243 69.9432 75.9523 69.7938 75.9523C69.4952 75.931 69.0258 75.9096 68.3858 75.8883C67.7672 75.8883 67.0632 75.8776 66.2738 75.8563C65.4845 75.8563 64.6845 75.867 63.8738 75.8883C63.7245 75.8883 63.4685 75.8883 63.1058 75.8883C62.7645 75.9096 62.3592 75.9203 61.8898 75.9203C61.2072 75.9416 60.4605 75.9523 59.6498 75.9523C58.8392 75.9736 58.0712 75.9843 57.3458 75.9843C56.6205 76.0056 56.0552 76.0056 55.6498 75.9843ZM53.6978 58.8003C54.8285 58.7576 55.7778 58.363 56.5458 57.6163C57.3352 56.8696 57.7298 55.8776 57.7298 54.6403C57.7298 53.2536 57.3352 52.2403 56.5458 51.6003C55.7778 50.939 54.8392 50.6403 53.7298 50.7043C52.5565 50.7683 51.5752 51.163 50.7858 51.8883C50.0178 52.6136 49.6338 53.6056 49.6338 54.8643C49.6338 56.1443 50.0285 57.1363 50.8178 57.8403C51.6072 58.523 52.5672 58.843 53.6978 58.8003ZM67.0418 62.7043C66.6365 62.7043 66.3912 62.491 66.3058 62.0643C66.2205 61.5096 66.1565 60.9123 66.1138 60.2723C66.0925 59.611 66.0818 59.0883 66.0818 58.7043V50.7043C66.0818 50.107 66.0605 49.659 66.0178 49.3603C65.9752 49.0403 65.8578 48.7843 65.6658 48.5923C65.4952 48.4003 65.2072 48.1656 64.8018 47.8883C64.5885 47.7603 64.4285 47.611 64.3218 47.4403C64.2365 47.2696 64.2472 47.0776 64.3538 46.8643C64.5245 46.5016 64.7485 46.267 65.0258 46.1603C65.3032 46.0536 65.6125 46.0323 65.9538 46.0963C66.4445 46.1816 66.9458 46.3523 67.4578 46.6083C67.9698 46.843 68.3965 47.0776 68.7378 47.3123C69.1218 47.5683 69.3138 47.835 69.3138 48.1123C69.2712 48.3896 69.2178 48.7736 69.1538 49.2643C69.0898 49.755 69.0578 50.2456 69.0578 50.7363V58.5123C69.0578 59.0456 68.9938 59.643 68.8658 60.3043C68.7592 60.9656 68.5565 61.531 68.2578 62.0003C67.9592 62.4696 67.5538 62.7043 67.0418 62.7043ZM83.3976 60.9763C82.0962 60.9976 80.8909 60.763 79.7816 60.2723C78.6722 59.7816 77.7869 59.0776 77.1256 58.1603C76.4642 57.243 76.1336 56.187 76.1336 54.9923C76.1336 53.8403 76.4642 52.8056 77.1256 51.8883C77.7869 50.9496 78.6616 50.203 79.7496 49.6483C80.8589 49.0723 82.0642 48.7736 83.3656 48.7523C84.6669 48.7096 85.8616 48.9336 86.9496 49.4243C88.0589 49.8936 88.9442 50.5763 89.6056 51.4723C90.2882 52.3683 90.6296 53.4563 90.6296 54.7363C90.6296 55.8883 90.2882 56.9336 89.6056 57.8723C88.9442 58.811 88.0696 59.5576 86.9816 60.1123C85.8936 60.6456 84.6989 60.9336 83.3976 60.9763ZM95.3016 74.7363C94.9176 74.7363 94.6722 74.4696 94.5656 73.9363C94.4589 73.4243 94.3949 72.795 94.3736 72.0483C94.3736 71.2803 94.3736 70.6723 94.3736 70.2243C94.3736 70.0963 94.3736 70.011 94.3736 69.9683V50.7043C94.3736 50.107 94.3522 49.659 94.3096 49.3603C94.2669 49.0403 94.1496 48.7843 93.9576 48.5923C93.7869 48.4003 93.4882 48.1763 93.0616 47.9203C92.8482 47.7923 92.6882 47.643 92.5816 47.4723C92.4962 47.3016 92.5069 47.099 92.6136 46.8643C92.7842 46.5016 93.0082 46.267 93.2856 46.1603C93.5629 46.0536 93.8722 46.0323 94.2136 46.0963C94.7042 46.1816 95.2162 46.3523 95.7496 46.6083C96.2829 46.8643 96.7202 47.1096 97.0616 47.3443C97.4456 47.6003 97.6376 47.8563 97.6376 48.1123C97.5949 48.3896 97.5416 48.7736 97.4776 49.2643C97.4136 49.755 97.3816 50.2456 97.3816 50.7363L97.3496 69.8083C97.3496 70.2136 97.3176 70.6936 97.2536 71.2483C97.1896 71.803 97.0829 72.347 96.9336 72.8803C96.7842 73.4136 96.5709 73.851 96.2936 74.1923C96.0376 74.555 95.7069 74.7363 95.3016 74.7363ZM83.3656 58.8643C84.5389 58.8216 85.5202 58.4376 86.3096 57.7123C87.0989 56.9656 87.4936 55.9736 87.4936 54.7363C87.4936 53.3923 87.0989 52.3896 86.3096 51.7283C85.5416 51.067 84.5709 50.7683 83.3976 50.8323C82.1816 50.8963 81.1682 51.291 80.3576 52.0163C79.5469 52.7416 79.1416 53.723 79.1416 54.9603C79.1416 56.1976 79.5469 57.1683 80.3576 57.8723C81.1682 58.555 82.1709 58.8856 83.3656 58.8643ZM76.7416 68.1443C76.5282 68.1656 76.3362 68.1763 76.1656 68.1763C75.9949 68.155 75.7922 68.0803 75.5576 67.9523C75.4082 67.867 75.1629 67.7176 74.8216 67.5043C74.4802 67.2696 74.1709 67.035 73.8936 66.8003C73.6162 66.5656 73.4776 66.4056 73.4776 66.3203C73.4776 66.0856 73.5842 65.8403 73.7976 65.5843C74.0109 65.3283 74.1922 65.1683 74.3416 65.1043C75.0882 65.1896 75.8882 65.2536 76.7416 65.2963C77.5949 65.339 78.2882 65.3496 78.8216 65.3283C79.7389 65.307 80.8056 65.2643 82.0216 65.2003C83.2589 65.115 84.5282 65.0083 85.8296 64.8803C87.1309 64.7523 88.3682 64.5923 89.5416 64.4003C90.7149 64.2083 91.6962 63.9843 92.4856 63.7283C92.8269 63.6216 93.0829 63.643 93.2536 63.7923C93.4242 63.9416 93.5096 64.1016 93.5096 64.2723C93.5096 65.0403 93.1042 65.531 92.2936 65.7443C91.7602 65.8936 91.0456 66.043 90.1496 66.1923C89.2536 66.3416 88.2936 66.491 87.2696 66.6403C86.2456 66.7896 85.2429 66.9283 84.2616 67.0563C83.2802 67.163 82.4162 67.259 81.6696 67.3443C80.8162 67.4296 79.9096 67.5683 78.9496 67.7603C78.0109 67.931 77.2749 68.059 76.7416 68.1443ZM116.948 60.9123C116.713 60.955 116.404 60.9443 116.02 60.8803C115.636 60.795 115.401 60.571 115.316 60.2083C115.295 60.0803 115.316 59.9416 115.38 59.7923C115.465 59.6216 115.604 59.5043 115.796 59.4403C117.076 59.035 118.303 58.523 119.476 57.9043C120.671 57.2643 121.716 56.5816 122.612 55.8563C123.508 55.1096 124.159 54.395 124.564 53.7123C124.607 53.627 124.649 53.5096 124.692 53.3603C124.756 53.211 124.777 53.0616 124.756 52.9123C124.649 52.9336 124.543 52.9443 124.436 52.9443C124.329 52.9443 124.223 52.9443 124.116 52.9443C123.284 52.987 122.473 53.0403 121.684 53.1043C120.916 53.1683 120.127 53.2856 119.316 53.4563C118.911 53.5416 118.644 53.5736 118.516 53.5523C118.388 53.531 118.207 53.4243 117.972 53.2323C117.823 53.1256 117.588 52.923 117.268 52.6243C116.969 52.3256 116.767 52.091 116.66 51.9203C116.617 51.7283 116.713 51.4936 116.948 51.2163C117.204 50.9176 117.417 50.7683 117.588 50.7683C118.249 50.9176 119.028 51.0136 119.924 51.0563C120.841 51.099 121.855 51.1096 122.964 51.0883C124.031 51.067 124.969 51.0456 125.78 51.0243C126.612 50.9816 127.583 50.9176 128.692 50.8323C129.887 50.747 130.921 50.6296 131.796 50.4803C132.671 50.331 133.247 50.2243 133.524 50.1603C133.887 50.0536 134.153 50.1283 134.324 50.3843C134.495 50.6616 134.633 50.9816 134.74 51.3443C134.868 51.6856 134.943 51.9096 134.964 52.0163C134.964 52.1656 134.847 52.3576 134.612 52.5923C134.377 52.827 134.185 52.9443 134.036 52.9443C133.695 52.9016 133.012 52.859 131.988 52.8163C130.964 52.7736 129.855 52.763 128.66 52.7843C128.447 52.7843 128.244 52.7843 128.052 52.7843C127.881 52.7843 127.711 52.795 127.54 52.8163C128.073 53.243 128.319 53.6483 128.276 54.0323C128.148 54.2456 128.02 54.4483 127.892 54.6403C127.764 54.8323 127.615 55.0243 127.444 55.2163C128.34 55.515 129.247 55.771 130.164 55.9843C131.081 56.1976 132.031 56.3043 133.012 56.3043C133.375 56.3683 133.748 56.5496 134.132 56.8483C134.537 57.1256 134.889 57.435 135.188 57.7763C135.487 58.1176 135.657 58.427 135.7 58.7043C135.7 59.003 135.561 59.291 135.284 59.5683C135.007 59.8456 134.751 59.995 134.516 60.0163C133.151 59.3976 131.743 58.779 130.292 58.1603C128.841 57.5416 127.423 57.0083 126.036 56.5603C125.097 57.3496 124.063 58.0536 122.932 58.6723C121.801 59.291 120.703 59.7923 119.636 60.1763C118.569 60.539 117.673 60.7843 116.948 60.9123ZM125.844 75.1843C125.417 75.1843 125.151 74.9283 125.044 74.4163C124.937 73.8616 124.873 73.2643 124.852 72.6243C124.831 71.963 124.82 71.4403 124.82 71.0563V64.4963C123.903 64.5176 122.996 64.5603 122.1 64.6243C121.204 64.667 120.319 64.7096 119.444 64.7523C118.527 64.795 117.684 64.8696 116.916 64.9763C116.148 65.0616 115.433 65.1683 114.772 65.2963C114.303 65.403 113.961 65.435 113.748 65.3923C113.556 65.3496 113.343 65.243 113.108 65.0723C112.98 64.9656 112.799 64.8056 112.564 64.5923C112.329 64.379 112.105 64.1656 111.892 63.9523C111.7 63.7176 111.583 63.547 111.54 63.4403C111.497 63.2696 111.593 63.0243 111.828 62.7043C112.063 62.3843 112.308 62.235 112.564 62.2563C113.247 62.4056 114.057 62.523 114.996 62.6083C115.956 62.6723 116.969 62.715 118.036 62.7363C119.06 62.7363 120.191 62.7363 121.428 62.7363C122.665 62.715 123.913 62.683 125.172 62.6403C126.452 62.5976 127.657 62.555 128.788 62.5123C129.94 62.4696 130.921 62.427 131.732 62.3843C133.055 62.299 134.249 62.1923 135.316 62.0643C136.404 61.9363 137.279 61.787 137.94 61.6163C138.367 61.5096 138.655 61.4776 138.804 61.5203C138.975 61.5416 139.135 61.6696 139.284 61.9043C139.433 62.1176 139.593 62.4163 139.764 62.8003C139.935 63.163 140.02 63.419 140.02 63.5683C139.999 63.803 139.839 64.0376 139.54 64.2723C139.263 64.4856 139.06 64.5923 138.932 64.5923C138.335 64.5283 137.748 64.4856 137.172 64.4643C136.617 64.4216 135.956 64.3896 135.188 64.3683C134.441 64.347 133.471 64.3363 132.276 64.3363C131.572 64.3363 130.847 64.347 130.1 64.3683C129.375 64.3683 128.628 64.379 127.86 64.4003V70.8963C127.86 71.4296 127.807 72.0376 127.7 72.7203C127.593 73.3816 127.391 73.9576 127.092 74.4483C126.815 74.939 126.399 75.1843 125.844 75.1843ZM124.404 49.1043C124.02 49.0403 123.529 48.9336 122.932 48.7843C122.335 48.635 121.759 48.4536 121.204 48.2403C120.671 48.027 120.276 47.803 120.02 47.5683C119.935 47.4616 119.903 47.3123 119.924 47.1203C119.967 46.907 120.052 46.7043 120.18 46.5123C120.308 46.3203 120.457 46.2243 120.628 46.2243C121.161 46.331 121.791 46.427 122.516 46.5123C123.241 46.5763 123.967 46.6296 124.692 46.6723C125.417 46.715 126.036 46.7363 126.548 46.7363C127.956 46.7363 129.119 46.683 130.036 46.5763C130.335 46.5976 130.601 46.7043 130.836 46.8963C131.071 47.067 131.177 47.2376 131.156 47.4083C131.135 47.6216 131.039 47.8883 130.868 48.2083C130.719 48.507 130.527 48.7203 130.292 48.8483C129.908 48.9763 129.353 49.0723 128.628 49.1363C127.903 49.179 127.156 49.2003 126.388 49.2003C125.62 49.2003 124.959 49.1683 124.404 49.1043ZM144.73 65.7763C144.56 65.8616 144.314 65.947 143.994 66.0323C143.696 66.0963 143.408 66.1176 143.13 66.0963C142.874 66.0536 142.704 65.9363 142.618 65.7443C142.597 65.6376 142.597 65.499 142.618 65.3283C142.661 65.1576 142.789 64.9976 143.002 64.8483C144.282 63.8456 145.424 62.779 146.426 61.6483C147.45 60.4963 148.282 59.3763 148.922 58.2883C149.562 57.2003 149.957 56.251 150.106 55.4403C150.128 55.291 150.138 55.1416 150.138 54.9923C150.138 54.843 150.117 54.7043 150.074 54.5763C149.434 54.619 148.794 54.683 148.154 54.7683C147.536 54.8536 146.896 54.9496 146.234 55.0563C145.829 55.1416 145.541 55.1736 145.37 55.1523C145.2 55.131 144.997 55.0136 144.762 54.8003C144.613 54.6723 144.41 54.4803 144.154 54.2243C143.898 53.947 143.717 53.7123 143.61 53.5203C143.568 53.3283 143.653 53.1043 143.866 52.8483C144.08 52.5923 144.272 52.4643 144.442 52.4643C145.125 52.6136 145.914 52.699 146.81 52.7203C147.706 52.7203 148.72 52.699 149.85 52.6563C152.069 52.5496 153.744 52.4003 154.874 52.2083C156.026 52.0163 156.869 51.8563 157.402 51.7283C157.637 51.6643 157.808 51.6643 157.914 51.7283C158.042 51.771 158.149 51.8563 158.234 51.9843C158.405 52.2616 158.544 52.571 158.65 52.9123C158.778 53.2536 158.842 53.4776 158.842 53.5843C158.842 53.755 158.714 53.947 158.458 54.1603C158.224 54.3736 158.032 54.4803 157.882 54.4803C157.221 54.4376 156.4 54.4163 155.418 54.4163C154.437 54.395 153.413 54.4056 152.346 54.4483C152.645 54.5976 152.89 54.7896 153.082 55.0243C153.274 55.259 153.381 55.483 153.402 55.6963C153.232 56.187 153.029 56.6776 152.794 57.1683C152.56 57.6376 152.293 58.107 151.994 58.5763C153.168 59.3443 154.117 59.899 154.842 60.2403C155.568 60.5603 156.272 60.827 156.954 61.0403C157.146 61.083 157.36 61.2643 157.594 61.5843C157.829 61.883 158.032 62.2456 158.202 62.6723C158.373 63.0776 158.458 63.4723 158.458 63.8563C158.437 64.2403 158.234 64.539 157.85 64.7523C157.466 64.9443 157.136 65.0403 156.858 65.0403C156.069 64.1656 155.141 63.2696 154.074 62.3523C153.008 61.4136 152.026 60.5923 151.13 59.8883C150.192 61.1896 149.136 62.363 147.962 63.4083C146.81 64.4323 145.733 65.2216 144.73 65.7763ZM163.674 68.3043C163.29 68.3043 163.045 68.091 162.938 67.6643C162.832 67.1736 162.768 66.6083 162.746 65.9683C162.725 65.3283 162.714 64.795 162.714 64.3683C162.714 64.2616 162.714 64.187 162.714 64.1443V58.7043C162.01 58.747 161.349 58.8323 160.73 58.9603C160.112 59.067 159.557 59.1736 159.066 59.2803C159.024 59.2803 158.97 59.291 158.906 59.3123C158.736 59.355 158.565 59.387 158.394 59.4083C158.245 59.4296 158.074 59.3976 157.882 59.3123C157.754 59.2483 157.541 59.1416 157.242 58.9923C156.965 58.8216 156.698 58.651 156.442 58.4803C156.208 58.3096 156.08 58.1816 156.058 58.0963C155.973 57.8403 156.037 57.5843 156.25 57.3283C156.485 57.051 156.709 56.9123 156.922 56.9123C157.2 56.955 157.584 56.9976 158.074 57.0403C158.565 57.0616 159.045 57.0723 159.514 57.0723C159.962 57.0723 160.464 57.0616 161.018 57.0403C161.573 56.9976 162.138 56.955 162.714 56.9123V50.7043C162.714 50.107 162.682 49.659 162.618 49.3603C162.576 49.0616 162.458 48.8163 162.266 48.6243C162.074 48.411 161.776 48.1763 161.37 47.9203C161.157 47.7923 160.997 47.643 160.89 47.4723C160.805 47.2803 160.816 47.0776 160.922 46.8643C161.093 46.5016 161.317 46.267 161.594 46.1603C161.872 46.0536 162.181 46.0323 162.522 46.0963C163.013 46.1816 163.525 46.3523 164.058 46.6083C164.592 46.843 165.029 47.0776 165.37 47.3123C165.754 47.5896 165.946 47.8563 165.946 48.1123C165.904 48.3896 165.85 48.7736 165.786 49.2643C165.722 49.755 165.69 50.2456 165.69 50.7363V63.9843C165.69 64.5176 165.626 65.115 165.498 65.7763C165.392 66.4376 165.189 67.0243 164.89 67.5363C164.592 68.027 164.186 68.283 163.674 68.3043ZM152.954 75.8243C152.634 75.803 152.272 75.7176 151.866 75.5683C151.482 75.4403 151.152 75.1736 150.874 74.7683C150.597 74.3843 150.458 73.8296 150.458 73.1043V71.0883C150.458 70.4483 150.437 69.979 150.394 69.6803C150.373 69.3603 150.288 69.1043 150.138 68.9123C149.989 68.7203 149.733 68.507 149.37 68.2723C149.178 68.1443 149.05 68.0056 148.986 67.8563C148.944 67.707 148.976 67.515 149.082 67.2803C149.253 66.9176 149.477 66.6936 149.754 66.6083C150.053 66.523 150.352 66.5016 150.65 66.5443C151.013 66.6083 151.408 66.7256 151.834 66.8963C152.282 67.0456 152.666 67.2163 152.986 67.4083C153.221 67.5576 153.413 67.707 153.562 67.8563C153.733 67.9843 153.818 68.1336 153.818 68.3043C153.733 68.667 153.669 69.0936 153.626 69.5843C153.584 70.075 153.562 70.523 153.562 70.9283V72.7203C153.562 73.211 153.626 73.499 153.754 73.5843C153.882 73.6696 154.074 73.723 154.33 73.7443C154.394 73.7443 154.448 73.7443 154.49 73.7443C155.301 73.7656 156.154 73.7763 157.05 73.7763C157.968 73.7763 159.045 73.7443 160.282 73.6803C161.669 73.6163 162.864 73.4776 163.866 73.2643C164.869 73.051 165.53 72.9016 165.85 72.8163C166.085 72.731 166.277 72.7203 166.426 72.7843C166.576 72.8483 166.693 72.9443 166.778 73.0723C166.949 73.2856 167.12 73.5736 167.29 73.9363C167.461 74.299 167.546 74.5443 167.546 74.6723C167.546 74.843 167.418 75.0563 167.162 75.3123C166.928 75.5683 166.736 75.6963 166.586 75.6963C166.309 75.675 165.872 75.6536 165.274 75.6323C164.677 75.6323 163.994 75.6323 163.226 75.6323C162.458 75.6323 161.669 75.643 160.858 75.6643C160.645 75.6643 160.378 75.6643 160.058 75.6643C159.76 75.6856 159.418 75.707 159.034 75.7283C158.373 75.7496 157.648 75.771 156.858 75.7923C156.09 75.8136 155.354 75.8243 154.65 75.8243C153.946 75.8456 153.381 75.8456 152.954 75.8243ZM150.074 50.3843C149.669 50.3203 149.21 50.2243 148.698 50.0963C148.208 49.947 147.728 49.7763 147.258 49.5843C146.81 49.371 146.448 49.147 146.17 48.9123C146.064 48.7203 146.085 48.4536 146.234 48.1123C146.384 47.771 146.608 47.5896 146.906 47.5683C147.717 47.7176 148.517 47.8243 149.306 47.8883C150.117 47.9523 150.917 47.9843 151.706 47.9843C152.389 47.9843 153.018 47.963 153.594 47.9203C154.192 47.8776 154.693 47.835 155.098 47.7923C155.44 47.8136 155.717 47.9203 155.93 48.1123C156.165 48.3043 156.282 48.4856 156.282 48.6563C156.261 48.827 156.165 49.0616 155.994 49.3603C155.824 49.659 155.61 49.883 155.354 50.0323C154.992 50.1603 154.49 50.267 153.85 50.3523C153.232 50.4163 152.581 50.459 151.898 50.4803C151.216 50.4803 150.608 50.4483 150.074 50.3843Z" fill="white"/>
</svg>
